<?xml version="1.0" encoding="utf-8" standalone="no"?>
<!DOCTYPE svg PUBLIC "-//W3C//DTD SVG 1.1//EN"
  "http://www.w3.org/Graphics/SVG/1.1/DTD/svg11.dtd">
<!-- Created with matplotlib (https://matplotlib.org/) -->
<svg height="386.034375pt" version="1.1" viewBox="0 0 618.953125 386.034375" width="618.953125pt" xmlns="http://www.w3.org/2000/svg" xmlns:xlink="http://www.w3.org/1999/xlink">
 <metadata>
  <rdf:RDF xmlns:cc="http://creativecommons.org/ns#" xmlns:dc="http://purl.org/dc/elements/1.1/" xmlns:rdf="http://www.w3.org/1999/02/22-rdf-syntax-ns#">
   <cc:Work>
    <dc:type rdf:resource="http://purl.org/dc/dcmitype/StillImage"/>
    <dc:date>2021-02-09T12:52:09.281333</dc:date>
    <dc:format>image/svg+xml</dc:format>
    <dc:creator>
     <cc:Agent>
      <dc:title>Matplotlib v3.3.3, https://matplotlib.org/</dc:title>
     </cc:Agent>
    </dc:creator>
   </cc:Work>
  </rdf:RDF>
 </metadata>
 <defs>
  <style type="text/css">*{stroke-linecap:butt;stroke-linejoin:round;}</style>
 </defs>
 <g id="figure_1">
  <g id="patch_1">
   <path d="M 0 386.034375 
L 618.953125 386.034375 
L 618.953125 0 
L 0 0 
z
" style="fill:none;"/>
  </g>
  <g id="axes_1">
   <g id="patch_2">
    <path d="M 42.620313 348.478125 
L 600.620312 348.478125 
L 600.620312 22.318125 
L 42.620313 22.318125 
z
" style="fill:#ffffff;"/>
   </g>
   <g id="matplotlib.axis_1">
    <g id="xtick_1">
     <g id="line2d_1">
      <defs>
       <path d="M 0 0 
L 0 3.5 
" id="me30a8bd66e" style="stroke:#000000;stroke-width:0.8;"/>
      </defs>
      <g>
       <use style="stroke:#000000;stroke-width:0.8;" x="42.620313" xlink:href="#me30a8bd66e" y="348.478125"/>
      </g>
     </g>
     <g id="text_1">
      <!-- 0.00 -->
      <g transform="translate(31.4875 363.076562)scale(0.1 -0.1)">
       <defs>
        <path d="M 31.78125 66.40625 
Q 24.171875 66.40625 20.328125 58.90625 
Q 16.5 51.421875 16.5 36.375 
Q 16.5 21.390625 20.328125 13.890625 
Q 24.171875 6.390625 31.78125 6.390625 
Q 39.453125 6.390625 43.28125 13.890625 
Q 47.125 21.390625 47.125 36.375 
Q 47.125 51.421875 43.28125 58.90625 
Q 39.453125 66.40625 31.78125 66.40625 
z
M 31.78125 74.21875 
Q 44.046875 74.21875 50.515625 64.515625 
Q 56.984375 54.828125 56.984375 36.375 
Q 56.984375 17.96875 50.515625 8.265625 
Q 44.046875 -1.421875 31.78125 -1.421875 
Q 19.53125 -1.421875 13.0625 8.265625 
Q 6.59375 17.96875 6.59375 36.375 
Q 6.59375 54.828125 13.0625 64.515625 
Q 19.53125 74.21875 31.78125 74.21875 
z
" id="DejaVuSans-48"/>
        <path d="M 10.6875 12.40625 
L 21 12.40625 
L 21 0 
L 10.6875 0 
z
" id="DejaVuSans-46"/>
       </defs>
       <use xlink:href="#DejaVuSans-48"/>
       <use x="63.623047" xlink:href="#DejaVuSans-46"/>
       <use x="95.410156" xlink:href="#DejaVuSans-48"/>
       <use x="159.033203" xlink:href="#DejaVuSans-48"/>
      </g>
     </g>
    </g>
    <g id="xtick_2">
     <g id="line2d_2">
      <g>
       <use style="stroke:#000000;stroke-width:0.8;" x="154.220313" xlink:href="#me30a8bd66e" y="348.478125"/>
      </g>
     </g>
     <g id="text_2">
      <!-- 0.01 -->
      <g transform="translate(143.0875 363.076562)scale(0.1 -0.1)">
       <defs>
        <path d="M 12.40625 8.296875 
L 28.515625 8.296875 
L 28.515625 63.921875 
L 10.984375 60.40625 
L 10.984375 69.390625 
L 28.421875 72.90625 
L 38.28125 72.90625 
L 38.28125 8.296875 
L 54.390625 8.296875 
L 54.390625 0 
L 12.40625 0 
z
" id="DejaVuSans-49"/>
       </defs>
       <use xlink:href="#DejaVuSans-48"/>
       <use x="63.623047" xlink:href="#DejaVuSans-46"/>
       <use x="95.410156" xlink:href="#DejaVuSans-48"/>
       <use x="159.033203" xlink:href="#DejaVuSans-49"/>
      </g>
     </g>
    </g>
    <g id="xtick_3">
     <g id="line2d_3">
      <g>
       <use style="stroke:#000000;stroke-width:0.8;" x="265.820312" xlink:href="#me30a8bd66e" y="348.478125"/>
      </g>
     </g>
     <g id="text_3">
      <!-- 0.02 -->
      <g transform="translate(254.6875 363.076562)scale(0.1 -0.1)">
       <defs>
        <path d="M 19.1875 8.296875 
L 53.609375 8.296875 
L 53.609375 0 
L 7.328125 0 
L 7.328125 8.296875 
Q 12.9375 14.109375 22.625 23.890625 
Q 32.328125 33.6875 34.8125 36.53125 
Q 39.546875 41.84375 41.421875 45.53125 
Q 43.3125 49.21875 43.3125 52.78125 
Q 43.3125 58.59375 39.234375 62.25 
Q 35.15625 65.921875 28.609375 65.921875 
Q 23.96875 65.921875 18.8125 64.3125 
Q 13.671875 62.703125 7.8125 59.421875 
L 7.8125 69.390625 
Q 13.765625 71.78125 18.9375 73 
Q 24.125 74.21875 28.421875 74.21875 
Q 39.75 74.21875 46.484375 68.546875 
Q 53.21875 62.890625 53.21875 53.421875 
Q 53.21875 48.921875 51.53125 44.890625 
Q 49.859375 40.875 45.40625 35.40625 
Q 44.1875 33.984375 37.640625 27.21875 
Q 31.109375 20.453125 19.1875 8.296875 
z
" id="DejaVuSans-50"/>
       </defs>
       <use xlink:href="#DejaVuSans-48"/>
       <use x="63.623047" xlink:href="#DejaVuSans-46"/>
       <use x="95.410156" xlink:href="#DejaVuSans-48"/>
       <use x="159.033203" xlink:href="#DejaVuSans-50"/>
      </g>
     </g>
    </g>
    <g id="xtick_4">
     <g id="line2d_4">
      <g>
       <use style="stroke:#000000;stroke-width:0.8;" x="377.420313" xlink:href="#me30a8bd66e" y="348.478125"/>
      </g>
     </g>
     <g id="text_4">
      <!-- 0.03 -->
      <g transform="translate(366.2875 363.076562)scale(0.1 -0.1)">
       <defs>
        <path d="M 40.578125 39.3125 
Q 47.65625 37.796875 51.625 33 
Q 55.609375 28.21875 55.609375 21.1875 
Q 55.609375 10.40625 48.1875 4.484375 
Q 40.765625 -1.421875 27.09375 -1.421875 
Q 22.515625 -1.421875 17.65625 -0.515625 
Q 12.796875 0.390625 7.625 2.203125 
L 7.625 11.71875 
Q 11.71875 9.328125 16.59375 8.109375 
Q 21.484375 6.890625 26.8125 6.890625 
Q 36.078125 6.890625 40.9375 10.546875 
Q 45.796875 14.203125 45.796875 21.1875 
Q 45.796875 27.640625 41.28125 31.265625 
Q 36.765625 34.90625 28.71875 34.90625 
L 20.21875 34.90625 
L 20.21875 43.015625 
L 29.109375 43.015625 
Q 36.375 43.015625 40.234375 45.921875 
Q 44.09375 48.828125 44.09375 54.296875 
Q 44.09375 59.90625 40.109375 62.90625 
Q 36.140625 65.921875 28.71875 65.921875 
Q 24.65625 65.921875 20.015625 65.03125 
Q 15.375 64.15625 9.8125 62.3125 
L 9.8125 71.09375 
Q 15.4375 72.65625 20.34375 73.4375 
Q 25.25 74.21875 29.59375 74.21875 
Q 40.828125 74.21875 47.359375 69.109375 
Q 53.90625 64.015625 53.90625 55.328125 
Q 53.90625 49.265625 50.4375 45.09375 
Q 46.96875 40.921875 40.578125 39.3125 
z
" id="DejaVuSans-51"/>
       </defs>
       <use xlink:href="#DejaVuSans-48"/>
       <use x="63.623047" xlink:href="#DejaVuSans-46"/>
       <use x="95.410156" xlink:href="#DejaVuSans-48"/>
       <use x="159.033203" xlink:href="#DejaVuSans-51"/>
      </g>
     </g>
    </g>
    <g id="xtick_5">
     <g id="line2d_5">
      <g>
       <use style="stroke:#000000;stroke-width:0.8;" x="489.020313" xlink:href="#me30a8bd66e" y="348.478125"/>
      </g>
     </g>
     <g id="text_5">
      <!-- 0.04 -->
      <g transform="translate(477.8875 363.076562)scale(0.1 -0.1)">
       <defs>
        <path d="M 37.796875 64.3125 
L 12.890625 25.390625 
L 37.796875 25.390625 
z
M 35.203125 72.90625 
L 47.609375 72.90625 
L 47.609375 25.390625 
L 58.015625 25.390625 
L 58.015625 17.1875 
L 47.609375 17.1875 
L 47.609375 0 
L 37.796875 0 
L 37.796875 17.1875 
L 4.890625 17.1875 
L 4.890625 26.703125 
z
" id="DejaVuSans-52"/>
       </defs>
       <use xlink:href="#DejaVuSans-48"/>
       <use x="63.623047" xlink:href="#DejaVuSans-46"/>
       <use x="95.410156" xlink:href="#DejaVuSans-48"/>
       <use x="159.033203" xlink:href="#DejaVuSans-52"/>
      </g>
     </g>
    </g>
    <g id="xtick_6">
     <g id="line2d_6">
      <g>
       <use style="stroke:#000000;stroke-width:0.8;" x="600.620312" xlink:href="#me30a8bd66e" y="348.478125"/>
      </g>
     </g>
     <g id="text_6">
      <!-- 0.05 -->
      <g transform="translate(589.4875 363.076562)scale(0.1 -0.1)">
       <defs>
        <path d="M 10.796875 72.90625 
L 49.515625 72.90625 
L 49.515625 64.59375 
L 19.828125 64.59375 
L 19.828125 46.734375 
Q 21.96875 47.46875 24.109375 47.828125 
Q 26.265625 48.1875 28.421875 48.1875 
Q 40.625 48.1875 47.75 41.5 
Q 54.890625 34.8125 54.890625 23.390625 
Q 54.890625 11.625 47.5625 5.09375 
Q 40.234375 -1.421875 26.90625 -1.421875 
Q 22.3125 -1.421875 17.546875 -0.640625 
Q 12.796875 0.140625 7.71875 1.703125 
L 7.71875 11.625 
Q 12.109375 9.234375 16.796875 8.0625 
Q 21.484375 6.890625 26.703125 6.890625 
Q 35.15625 6.890625 40.078125 11.328125 
Q 45.015625 15.765625 45.015625 23.390625 
Q 45.015625 31 40.078125 35.4375 
Q 35.15625 39.890625 26.703125 39.890625 
Q 22.75 39.890625 18.8125 39.015625 
Q 14.890625 38.140625 10.796875 36.28125 
z
" id="DejaVuSans-53"/>
       </defs>
       <use xlink:href="#DejaVuSans-48"/>
       <use x="63.623047" xlink:href="#DejaVuSans-46"/>
       <use x="95.410156" xlink:href="#DejaVuSans-48"/>
       <use x="159.033203" xlink:href="#DejaVuSans-53"/>
      </g>
     </g>
    </g>
    <g id="text_7">
     <!-- Time (Seconds) -->
     <g transform="translate(282.889063 376.754687)scale(0.1 -0.1)">
      <defs>
       <path d="M -0.296875 72.90625 
L 61.375 72.90625 
L 61.375 64.59375 
L 35.5 64.59375 
L 35.5 0 
L 25.59375 0 
L 25.59375 64.59375 
L -0.296875 64.59375 
z
" id="DejaVuSans-84"/>
       <path d="M 9.421875 54.6875 
L 18.40625 54.6875 
L 18.40625 0 
L 9.421875 0 
z
M 9.421875 75.984375 
L 18.40625 75.984375 
L 18.40625 64.59375 
L 9.421875 64.59375 
z
" id="DejaVuSans-105"/>
       <path d="M 52 44.1875 
Q 55.375 50.25 60.0625 53.125 
Q 64.75 56 71.09375 56 
Q 79.640625 56 84.28125 50.015625 
Q 88.921875 44.046875 88.921875 33.015625 
L 88.921875 0 
L 79.890625 0 
L 79.890625 32.71875 
Q 79.890625 40.578125 77.09375 44.375 
Q 74.3125 48.1875 68.609375 48.1875 
Q 61.625 48.1875 57.5625 43.546875 
Q 53.515625 38.921875 53.515625 30.90625 
L 53.515625 0 
L 44.484375 0 
L 44.484375 32.71875 
Q 44.484375 40.625 41.703125 44.40625 
Q 38.921875 48.1875 33.109375 48.1875 
Q 26.21875 48.1875 22.15625 43.53125 
Q 18.109375 38.875 18.109375 30.90625 
L 18.109375 0 
L 9.078125 0 
L 9.078125 54.6875 
L 18.109375 54.6875 
L 18.109375 46.1875 
Q 21.1875 51.21875 25.484375 53.609375 
Q 29.78125 56 35.6875 56 
Q 41.65625 56 45.828125 52.96875 
Q 50 49.953125 52 44.1875 
z
" id="DejaVuSans-109"/>
       <path d="M 56.203125 29.59375 
L 56.203125 25.203125 
L 14.890625 25.203125 
Q 15.484375 15.921875 20.484375 11.0625 
Q 25.484375 6.203125 34.421875 6.203125 
Q 39.59375 6.203125 44.453125 7.46875 
Q 49.3125 8.734375 54.109375 11.28125 
L 54.109375 2.78125 
Q 49.265625 0.734375 44.1875 -0.34375 
Q 39.109375 -1.421875 33.890625 -1.421875 
Q 20.796875 -1.421875 13.15625 6.1875 
Q 5.515625 13.8125 5.515625 26.8125 
Q 5.515625 40.234375 12.765625 48.109375 
Q 20.015625 56 32.328125 56 
Q 43.359375 56 49.78125 48.890625 
Q 56.203125 41.796875 56.203125 29.59375 
z
M 47.21875 32.234375 
Q 47.125 39.59375 43.09375 43.984375 
Q 39.0625 48.390625 32.421875 48.390625 
Q 24.90625 48.390625 20.390625 44.140625 
Q 15.875 39.890625 15.1875 32.171875 
z
" id="DejaVuSans-101"/>
       <path id="DejaVuSans-32"/>
       <path d="M 31 75.875 
Q 24.46875 64.65625 21.28125 53.65625 
Q 18.109375 42.671875 18.109375 31.390625 
Q 18.109375 20.125 21.3125 9.0625 
Q 24.515625 -2 31 -13.1875 
L 23.1875 -13.1875 
Q 15.875 -1.703125 12.234375 9.375 
Q 8.59375 20.453125 8.59375 31.390625 
Q 8.59375 42.28125 12.203125 53.3125 
Q 15.828125 64.359375 23.1875 75.875 
z
" id="DejaVuSans-40"/>
       <path d="M 53.515625 70.515625 
L 53.515625 60.890625 
Q 47.90625 63.578125 42.921875 64.890625 
Q 37.9375 66.21875 33.296875 66.21875 
Q 25.25 66.21875 20.875 63.09375 
Q 16.5 59.96875 16.5 54.203125 
Q 16.5 49.359375 19.40625 46.890625 
Q 22.3125 44.4375 30.421875 42.921875 
L 36.375 41.703125 
Q 47.40625 39.59375 52.65625 34.296875 
Q 57.90625 29 57.90625 20.125 
Q 57.90625 9.515625 50.796875 4.046875 
Q 43.703125 -1.421875 29.984375 -1.421875 
Q 24.8125 -1.421875 18.96875 -0.25 
Q 13.140625 0.921875 6.890625 3.21875 
L 6.890625 13.375 
Q 12.890625 10.015625 18.65625 8.296875 
Q 24.421875 6.59375 29.984375 6.59375 
Q 38.421875 6.59375 43.015625 9.90625 
Q 47.609375 13.234375 47.609375 19.390625 
Q 47.609375 24.75 44.3125 27.78125 
Q 41.015625 30.8125 33.5 32.328125 
L 27.484375 33.5 
Q 16.453125 35.6875 11.515625 40.375 
Q 6.59375 45.0625 6.59375 53.421875 
Q 6.59375 63.09375 13.40625 68.65625 
Q 20.21875 74.21875 32.171875 74.21875 
Q 37.3125 74.21875 42.625 73.28125 
Q 47.953125 72.359375 53.515625 70.515625 
z
" id="DejaVuSans-83"/>
       <path d="M 48.78125 52.59375 
L 48.78125 44.1875 
Q 44.96875 46.296875 41.140625 47.34375 
Q 37.3125 48.390625 33.40625 48.390625 
Q 24.65625 48.390625 19.8125 42.84375 
Q 14.984375 37.3125 14.984375 27.296875 
Q 14.984375 17.28125 19.8125 11.734375 
Q 24.65625 6.203125 33.40625 6.203125 
Q 37.3125 6.203125 41.140625 7.25 
Q 44.96875 8.296875 48.78125 10.40625 
L 48.78125 2.09375 
Q 45.015625 0.34375 40.984375 -0.53125 
Q 36.96875 -1.421875 32.421875 -1.421875 
Q 20.0625 -1.421875 12.78125 6.34375 
Q 5.515625 14.109375 5.515625 27.296875 
Q 5.515625 40.671875 12.859375 48.328125 
Q 20.21875 56 33.015625 56 
Q 37.15625 56 41.109375 55.140625 
Q 45.0625 54.296875 48.78125 52.59375 
z
" id="DejaVuSans-99"/>
       <path d="M 30.609375 48.390625 
Q 23.390625 48.390625 19.1875 42.75 
Q 14.984375 37.109375 14.984375 27.296875 
Q 14.984375 17.484375 19.15625 11.84375 
Q 23.34375 6.203125 30.609375 6.203125 
Q 37.796875 6.203125 41.984375 11.859375 
Q 46.1875 17.53125 46.1875 27.296875 
Q 46.1875 37.015625 41.984375 42.703125 
Q 37.796875 48.390625 30.609375 48.390625 
z
M 30.609375 56 
Q 42.328125 56 49.015625 48.375 
Q 55.71875 40.765625 55.71875 27.296875 
Q 55.71875 13.875 49.015625 6.21875 
Q 42.328125 -1.421875 30.609375 -1.421875 
Q 18.84375 -1.421875 12.171875 6.21875 
Q 5.515625 13.875 5.515625 27.296875 
Q 5.515625 40.765625 12.171875 48.375 
Q 18.84375 56 30.609375 56 
z
" id="DejaVuSans-111"/>
       <path d="M 54.890625 33.015625 
L 54.890625 0 
L 45.90625 0 
L 45.90625 32.71875 
Q 45.90625 40.484375 42.875 44.328125 
Q 39.84375 48.1875 33.796875 48.1875 
Q 26.515625 48.1875 22.3125 43.546875 
Q 18.109375 38.921875 18.109375 30.90625 
L 18.109375 0 
L 9.078125 0 
L 9.078125 54.6875 
L 18.109375 54.6875 
L 18.109375 46.1875 
Q 21.34375 51.125 25.703125 53.5625 
Q 30.078125 56 35.796875 56 
Q 45.21875 56 50.046875 50.171875 
Q 54.890625 44.34375 54.890625 33.015625 
z
" id="DejaVuSans-110"/>
       <path d="M 45.40625 46.390625 
L 45.40625 75.984375 
L 54.390625 75.984375 
L 54.390625 0 
L 45.40625 0 
L 45.40625 8.203125 
Q 42.578125 3.328125 38.25 0.953125 
Q 33.9375 -1.421875 27.875 -1.421875 
Q 17.96875 -1.421875 11.734375 6.484375 
Q 5.515625 14.40625 5.515625 27.296875 
Q 5.515625 40.1875 11.734375 48.09375 
Q 17.96875 56 27.875 56 
Q 33.9375 56 38.25 53.625 
Q 42.578125 51.265625 45.40625 46.390625 
z
M 14.796875 27.296875 
Q 14.796875 17.390625 18.875 11.75 
Q 22.953125 6.109375 30.078125 6.109375 
Q 37.203125 6.109375 41.296875 11.75 
Q 45.40625 17.390625 45.40625 27.296875 
Q 45.40625 37.203125 41.296875 42.84375 
Q 37.203125 48.484375 30.078125 48.484375 
Q 22.953125 48.484375 18.875 42.84375 
Q 14.796875 37.203125 14.796875 27.296875 
z
" id="DejaVuSans-100"/>
       <path d="M 44.28125 53.078125 
L 44.28125 44.578125 
Q 40.484375 46.53125 36.375 47.5 
Q 32.28125 48.484375 27.875 48.484375 
Q 21.1875 48.484375 17.84375 46.4375 
Q 14.5 44.390625 14.5 40.28125 
Q 14.5 37.15625 16.890625 35.375 
Q 19.28125 33.59375 26.515625 31.984375 
L 29.59375 31.296875 
Q 39.15625 29.25 43.1875 25.515625 
Q 47.21875 21.78125 47.21875 15.09375 
Q 47.21875 7.46875 41.1875 3.015625 
Q 35.15625 -1.421875 24.609375 -1.421875 
Q 20.21875 -1.421875 15.453125 -0.5625 
Q 10.6875 0.296875 5.421875 2 
L 5.421875 11.28125 
Q 10.40625 8.6875 15.234375 7.390625 
Q 20.0625 6.109375 24.8125 6.109375 
Q 31.15625 6.109375 34.5625 8.28125 
Q 37.984375 10.453125 37.984375 14.40625 
Q 37.984375 18.0625 35.515625 20.015625 
Q 33.0625 21.96875 24.703125 23.78125 
L 21.578125 24.515625 
Q 13.234375 26.265625 9.515625 29.90625 
Q 5.8125 33.546875 5.8125 39.890625 
Q 5.8125 47.609375 11.28125 51.796875 
Q 16.75 56 26.8125 56 
Q 31.78125 56 36.171875 55.265625 
Q 40.578125 54.546875 44.28125 53.078125 
z
" id="DejaVuSans-115"/>
       <path d="M 8.015625 75.875 
L 15.828125 75.875 
Q 23.140625 64.359375 26.78125 53.3125 
Q 30.421875 42.28125 30.421875 31.390625 
Q 30.421875 20.453125 26.78125 9.375 
Q 23.140625 -1.703125 15.828125 -13.1875 
L 8.015625 -13.1875 
Q 14.5 -2 17.703125 9.0625 
Q 20.90625 20.125 20.90625 31.390625 
Q 20.90625 42.671875 17.703125 53.65625 
Q 14.5 64.65625 8.015625 75.875 
z
" id="DejaVuSans-41"/>
      </defs>
      <use xlink:href="#DejaVuSans-84"/>
      <use x="57.958984" xlink:href="#DejaVuSans-105"/>
      <use x="85.742188" xlink:href="#DejaVuSans-109"/>
      <use x="183.154297" xlink:href="#DejaVuSans-101"/>
      <use x="244.677734" xlink:href="#DejaVuSans-32"/>
      <use x="276.464844" xlink:href="#DejaVuSans-40"/>
      <use x="315.478516" xlink:href="#DejaVuSans-83"/>
      <use x="378.955078" xlink:href="#DejaVuSans-101"/>
      <use x="440.478516" xlink:href="#DejaVuSans-99"/>
      <use x="495.458984" xlink:href="#DejaVuSans-111"/>
      <use x="556.640625" xlink:href="#DejaVuSans-110"/>
      <use x="620.019531" xlink:href="#DejaVuSans-100"/>
      <use x="683.496094" xlink:href="#DejaVuSans-115"/>
      <use x="735.595703" xlink:href="#DejaVuSans-41"/>
     </g>
    </g>
   </g>
   <g id="matplotlib.axis_2">
    <g id="ytick_1">
     <g id="line2d_7">
      <defs>
       <path d="M 0 0 
L -3.5 0 
" id="mbfe81c9cf8" style="stroke:#000000;stroke-width:0.8;"/>
      </defs>
      <g>
       <use style="stroke:#000000;stroke-width:0.8;" x="42.620313" xlink:href="#mbfe81c9cf8" y="293.398689"/>
      </g>
     </g>
     <g id="text_8">
      <!-- −2 -->
      <g transform="translate(20.878125 297.197908)scale(0.1 -0.1)">
       <defs>
        <path d="M 10.59375 35.5 
L 73.1875 35.5 
L 73.1875 27.203125 
L 10.59375 27.203125 
z
" id="DejaVuSans-8722"/>
       </defs>
       <use xlink:href="#DejaVuSans-8722"/>
       <use x="83.789062" xlink:href="#DejaVuSans-50"/>
      </g>
     </g>
    </g>
    <g id="ytick_2">
     <g id="line2d_8">
      <g>
       <use style="stroke:#000000;stroke-width:0.8;" x="42.620313" xlink:href="#mbfe81c9cf8" y="228.206582"/>
      </g>
     </g>
     <g id="text_9">
      <!-- −1 -->
      <g transform="translate(20.878125 232.005801)scale(0.1 -0.1)">
       <use xlink:href="#DejaVuSans-8722"/>
       <use x="83.789062" xlink:href="#DejaVuSans-49"/>
      </g>
     </g>
    </g>
    <g id="ytick_3">
     <g id="line2d_9">
      <g>
       <use style="stroke:#000000;stroke-width:0.8;" x="42.620313" xlink:href="#mbfe81c9cf8" y="163.014475"/>
      </g>
     </g>
     <g id="text_10">
      <!-- 0 -->
      <g transform="translate(29.257813 166.813694)scale(0.1 -0.1)">
       <use xlink:href="#DejaVuSans-48"/>
      </g>
     </g>
    </g>
    <g id="ytick_4">
     <g id="line2d_10">
      <g>
       <use style="stroke:#000000;stroke-width:0.8;" x="42.620313" xlink:href="#mbfe81c9cf8" y="97.822369"/>
      </g>
     </g>
     <g id="text_11">
      <!-- 1 -->
      <g transform="translate(29.257813 101.621587)scale(0.1 -0.1)">
       <use xlink:href="#DejaVuSans-49"/>
      </g>
     </g>
    </g>
    <g id="ytick_5">
     <g id="line2d_11">
      <g>
       <use style="stroke:#000000;stroke-width:0.8;" x="42.620313" xlink:href="#mbfe81c9cf8" y="32.630262"/>
      </g>
     </g>
     <g id="text_12">
      <!-- 2 -->
      <g transform="translate(29.257813 36.429481)scale(0.1 -0.1)">
       <use xlink:href="#DejaVuSans-50"/>
      </g>
     </g>
    </g>
    <g id="text_13">
     <!-- Waveform Sample -->
     <g transform="translate(14.798438 231.118437)rotate(-90)scale(0.1 -0.1)">
      <defs>
       <path d="M 3.328125 72.90625 
L 13.28125 72.90625 
L 28.609375 11.28125 
L 43.890625 72.90625 
L 54.984375 72.90625 
L 70.3125 11.28125 
L 85.59375 72.90625 
L 95.609375 72.90625 
L 77.296875 0 
L 64.890625 0 
L 49.515625 63.28125 
L 33.984375 0 
L 21.578125 0 
z
" id="DejaVuSans-87"/>
       <path d="M 34.28125 27.484375 
Q 23.390625 27.484375 19.1875 25 
Q 14.984375 22.515625 14.984375 16.5 
Q 14.984375 11.71875 18.140625 8.90625 
Q 21.296875 6.109375 26.703125 6.109375 
Q 34.1875 6.109375 38.703125 11.40625 
Q 43.21875 16.703125 43.21875 25.484375 
L 43.21875 27.484375 
z
M 52.203125 31.203125 
L 52.203125 0 
L 43.21875 0 
L 43.21875 8.296875 
Q 40.140625 3.328125 35.546875 0.953125 
Q 30.953125 -1.421875 24.3125 -1.421875 
Q 15.921875 -1.421875 10.953125 3.296875 
Q 6 8.015625 6 15.921875 
Q 6 25.140625 12.171875 29.828125 
Q 18.359375 34.515625 30.609375 34.515625 
L 43.21875 34.515625 
L 43.21875 35.40625 
Q 43.21875 41.609375 39.140625 45 
Q 35.0625 48.390625 27.6875 48.390625 
Q 23 48.390625 18.546875 47.265625 
Q 14.109375 46.140625 10.015625 43.890625 
L 10.015625 52.203125 
Q 14.9375 54.109375 19.578125 55.046875 
Q 24.21875 56 28.609375 56 
Q 40.484375 56 46.34375 49.84375 
Q 52.203125 43.703125 52.203125 31.203125 
z
" id="DejaVuSans-97"/>
       <path d="M 2.984375 54.6875 
L 12.5 54.6875 
L 29.59375 8.796875 
L 46.6875 54.6875 
L 56.203125 54.6875 
L 35.6875 0 
L 23.484375 0 
z
" id="DejaVuSans-118"/>
       <path d="M 37.109375 75.984375 
L 37.109375 68.5 
L 28.515625 68.5 
Q 23.6875 68.5 21.796875 66.546875 
Q 19.921875 64.59375 19.921875 59.515625 
L 19.921875 54.6875 
L 34.71875 54.6875 
L 34.71875 47.703125 
L 19.921875 47.703125 
L 19.921875 0 
L 10.890625 0 
L 10.890625 47.703125 
L 2.296875 47.703125 
L 2.296875 54.6875 
L 10.890625 54.6875 
L 10.890625 58.5 
Q 10.890625 67.625 15.140625 71.796875 
Q 19.390625 75.984375 28.609375 75.984375 
z
" id="DejaVuSans-102"/>
       <path d="M 41.109375 46.296875 
Q 39.59375 47.171875 37.8125 47.578125 
Q 36.03125 48 33.890625 48 
Q 26.265625 48 22.1875 43.046875 
Q 18.109375 38.09375 18.109375 28.8125 
L 18.109375 0 
L 9.078125 0 
L 9.078125 54.6875 
L 18.109375 54.6875 
L 18.109375 46.1875 
Q 20.953125 51.171875 25.484375 53.578125 
Q 30.03125 56 36.53125 56 
Q 37.453125 56 38.578125 55.875 
Q 39.703125 55.765625 41.0625 55.515625 
z
" id="DejaVuSans-114"/>
       <path d="M 18.109375 8.203125 
L 18.109375 -20.796875 
L 9.078125 -20.796875 
L 9.078125 54.6875 
L 18.109375 54.6875 
L 18.109375 46.390625 
Q 20.953125 51.265625 25.265625 53.625 
Q 29.59375 56 35.59375 56 
Q 45.5625 56 51.78125 48.09375 
Q 58.015625 40.1875 58.015625 27.296875 
Q 58.015625 14.40625 51.78125 6.484375 
Q 45.5625 -1.421875 35.59375 -1.421875 
Q 29.59375 -1.421875 25.265625 0.953125 
Q 20.953125 3.328125 18.109375 8.203125 
z
M 48.6875 27.296875 
Q 48.6875 37.203125 44.609375 42.84375 
Q 40.53125 48.484375 33.40625 48.484375 
Q 26.265625 48.484375 22.1875 42.84375 
Q 18.109375 37.203125 18.109375 27.296875 
Q 18.109375 17.390625 22.1875 11.75 
Q 26.265625 6.109375 33.40625 6.109375 
Q 40.53125 6.109375 44.609375 11.75 
Q 48.6875 17.390625 48.6875 27.296875 
z
" id="DejaVuSans-112"/>
       <path d="M 9.421875 75.984375 
L 18.40625 75.984375 
L 18.40625 0 
L 9.421875 0 
z
" id="DejaVuSans-108"/>
      </defs>
      <use xlink:href="#DejaVuSans-87"/>
      <use x="92.501953" xlink:href="#DejaVuSans-97"/>
      <use x="153.78125" xlink:href="#DejaVuSans-118"/>
      <use x="212.960938" xlink:href="#DejaVuSans-101"/>
      <use x="274.484375" xlink:href="#DejaVuSans-102"/>
      <use x="309.689453" xlink:href="#DejaVuSans-111"/>
      <use x="370.871094" xlink:href="#DejaVuSans-114"/>
      <use x="410.234375" xlink:href="#DejaVuSans-109"/>
      <use x="507.646484" xlink:href="#DejaVuSans-32"/>
      <use x="539.433594" xlink:href="#DejaVuSans-83"/>
      <use x="602.910156" xlink:href="#DejaVuSans-97"/>
      <use x="664.189453" xlink:href="#DejaVuSans-109"/>
      <use x="761.601562" xlink:href="#DejaVuSans-112"/>
      <use x="825.078125" xlink:href="#DejaVuSans-108"/>
      <use x="852.861328" xlink:href="#DejaVuSans-101"/>
     </g>
    </g>
   </g>
   <g id="line2d_12">
    <path clip-path="url(#pf0c7077f6a)" d="M 42.620313 321.051522 
L 42.873374 120.560085 
L 43.126435 221.728797 
L 43.379496 176.193959 
L 43.632557 294.687946 
L 43.885619 115.68836 
L 44.13868 191.499961 
L 44.391741 183.250633 
L 44.644802 230.075801 
L 44.897864 106.396156 
L 45.150925 121.323356 
L 45.403986 211.158037 
L 45.657047 235.377761 
L 45.910108 157.338982 
L 46.16317 216.869219 
L 46.416231 109.864083 
L 46.669292 114.562458 
L 46.922353 154.847032 
L 47.175415 41.170472 
L 47.428476 56.56229 
L 47.681537 169.805389 
L 47.934598 97.170905 
L 48.187659 120.609136 
L 48.440721 262.696609 
L 48.693782 156.728917 
L 48.946843 206.155069 
L 49.199904 106.038194 
L 49.452966 154.29307 
L 49.706027 333.65267 
L 50.212149 163.790947 
L 50.46521 181.707077 
L 50.718272 118.438391 
L 50.971333 225.645879 
L 51.224394 95.590755 
L 51.730517 204.504828 
L 51.983578 256.434396 
L 52.236639 278.671326 
L 52.4897 151.362594 
L 52.742761 153.76776 
L 52.995823 130.406756 
L 53.248884 167.240138 
L 53.501945 115.37607 
L 53.755006 208.734315 
L 54.008068 101.634715 
L 54.261129 215.53521 
L 54.51419 188.840185 
L 54.767251 223.429998 
L 55.020313 80.265692 
L 55.273374 172.119681 
L 55.526435 166.602858 
L 55.779496 200.30594 
L 56.285619 121.109241 
L 56.53868 161.299026 
L 56.791741 172.160833 
L 57.044802 149.363164 
L 57.297864 139.08891 
L 57.550925 191.938945 
L 57.803986 86.437218 
L 58.057047 80.106717 
L 58.310108 185.771077 
L 58.56317 105.16863 
L 58.816231 125.335912 
L 59.069292 155.511707 
L 59.322353 237.364905 
L 59.575415 280.396957 
L 59.828476 192.308524 
L 60.081537 201.6119 
L 60.334598 235.483331 
L 60.587659 167.8583 
L 61.346843 84.274418 
L 61.852966 215.801334 
L 62.106027 187.489987 
L 62.359088 131.444931 
L 62.612149 180.860669 
L 62.86521 124.95758 
L 63.118272 263.651798 
L 63.624394 150.067526 
L 63.877455 130.593903 
L 64.130517 222.50292 
L 64.383578 152.341568 
L 64.636639 166.68648 
L 64.8897 149.939836 
L 65.142761 153.531598 
L 65.395823 147.939756 
L 65.648884 162.523329 
L 65.901945 228.691097 
L 66.155006 37.14358 
L 66.661129 151.807033 
L 67.167251 89.442761 
L 67.420313 167.184312 
L 67.673374 133.113106 
L 67.926435 220.227891 
L 68.179496 171.063142 
L 68.685619 234.716688 
L 68.93868 204.766417 
L 69.191741 153.688364 
L 69.697864 206.22673 
L 70.203986 114.351303 
L 70.710108 222.665365 
L 70.96317 196.024932 
L 71.216231 186.863204 
L 71.469292 163.363129 
L 71.722353 112.721282 
L 71.975415 134.987842 
L 72.481537 50.007862 
L 72.734598 113.682146 
L 72.987659 133.78341 
L 73.240721 109.431265 
L 73.493782 191.366489 
L 73.746843 209.24578 
L 74.506027 130.494121 
L 74.759088 243.163286 
L 75.012149 286.343776 
L 75.26521 202.262223 
L 75.771333 150.202151 
L 76.024394 171.951859 
L 76.277455 160.642279 
L 76.530517 128.646029 
L 77.036639 229.795061 
L 77.2897 266.507477 
L 77.795823 152.66967 
L 78.048884 142.29653 
L 78.301945 148.965357 
L 78.555006 141.525168 
L 78.808068 162.064786 
L 79.061129 155.262814 
L 79.31419 158.629257 
L 79.567251 201.795965 
L 79.820313 205.703885 
L 80.073374 151.959511 
L 80.326435 126.560905 
L 80.579496 169.297802 
L 80.832557 183.25 
L 81.085619 176.868251 
L 81.33868 137.665885 
L 81.591741 141.422237 
L 81.844802 166.692775 
L 82.097864 160.784523 
L 82.350925 144.413921 
L 82.603986 165.488933 
L 82.857047 139.426345 
L 83.110108 84.069393 
L 83.36317 133.239653 
L 83.616231 145.6453 
L 83.869292 115.729893 
L 84.122353 140.649716 
L 84.628476 257.922267 
L 84.881537 235.619358 
L 85.134598 196.620755 
L 85.387659 217.992284 
L 85.640721 201.284252 
L 85.893782 152.405461 
L 86.399904 101.946306 
L 86.652966 121.666054 
L 86.906027 186.771877 
L 87.159088 201.259349 
L 87.412149 159.502929 
L 87.918272 153.010178 
L 88.424394 229.16117 
L 88.930517 140.557552 
L 89.183578 176.413072 
L 89.436639 187.178166 
L 89.6897 159.549029 
L 89.942761 158.360171 
L 90.195823 151.848504 
L 90.448884 150.858465 
L 90.701945 155.309371 
L 90.955006 195.281286 
L 91.461129 70.440586 
L 91.71419 127.198996 
L 91.967251 135.904282 
L 92.220313 105.033967 
L 93.232557 195.319206 
L 93.485619 184.614345 
L 93.73868 216.12285 
L 93.991741 219.174281 
L 94.244802 179.065261 
L 94.497864 170.336071 
L 94.750925 196.342562 
L 95.003986 186.963339 
L 95.257047 141.485003 
L 95.510108 140.507215 
L 95.76317 194.122675 
L 96.016231 208.881842 
L 96.522353 174.99218 
L 96.775415 138.291928 
L 97.028476 124.246161 
L 97.281537 117.285237 
L 97.534598 75.220147 
L 97.787659 82.656699 
L 98.040721 124.125595 
L 98.293782 122.021409 
L 98.546843 150.525033 
L 98.799904 199.933218 
L 99.052966 194.929376 
L 99.559088 143.526811 
L 99.812149 186.590561 
L 100.06521 263.73614 
L 100.318272 243.490114 
L 100.571333 187.21252 
L 100.824394 161.442785 
L 101.077455 161.09638 
L 101.330517 166.264243 
L 101.583578 144.827857 
L 101.836639 155.676384 
L 102.342761 247.299901 
L 102.595823 239.727329 
L 103.101945 147.638414 
L 103.355006 145.804779 
L 103.608068 145.422955 
L 104.11419 158.707307 
L 104.367251 157.00672 
L 104.873374 203.342571 
L 105.126435 178.673526 
L 105.379496 139.497751 
L 105.632557 148.080204 
L 105.885619 176.141307 
L 106.13868 179.888679 
L 106.644802 139.778765 
L 107.150925 163.731407 
L 107.403986 152.703375 
L 107.657047 155.032058 
L 107.910108 152.563208 
L 108.16317 112.260535 
L 108.416231 109.198122 
L 108.669292 139.678196 
L 108.922353 131.010865 
L 109.175415 128.538052 
L 109.428476 168.323268 
L 109.681537 226.37318 
L 109.934598 245.933249 
L 110.187659 215.589001 
L 110.440721 206.863599 
L 110.693782 209.17203 
L 111.452966 115.411951 
L 111.706027 112.318263 
L 112.212149 193.705602 
L 112.46521 180.207472 
L 112.718272 157.913696 
L 112.971333 154.699784 
L 113.224394 173.396117 
L 113.477455 211.090858 
L 113.730517 200.668717 
L 113.983578 156.809926 
L 114.236639 158.530603 
L 114.4897 181.607807 
L 114.742761 173.260106 
L 114.995823 158.995199 
L 115.501945 151.470094 
L 115.755006 153.183224 
L 116.008068 175.17252 
L 116.261129 164.237445 
L 116.51419 102.441298 
L 116.767251 99.461738 
L 117.020313 131.866267 
L 117.273374 120.894578 
L 117.526435 117.308928 
L 118.285619 185.697451 
L 118.53868 189.697252 
L 118.791741 199.995056 
L 119.044802 217.102225 
L 119.550925 174.583804 
L 120.057047 191.366566 
L 120.56317 141.216293 
L 121.069292 201.117381 
L 121.322353 199.650744 
L 121.575415 182.875361 
L 122.081537 131.586499 
L 122.334598 121.188187 
L 122.840721 79.779183 
L 123.346843 123.472912 
L 123.599904 136.540634 
L 124.106027 197.087129 
L 124.359088 181.604308 
L 124.612149 156.160038 
L 124.86521 165.038244 
L 125.118272 224.541862 
L 125.371333 252.707141 
L 125.877455 174.21452 
L 126.130517 161.287031 
L 126.383578 163.673653 
L 126.8897 150.379744 
L 127.142761 180.533806 
L 127.395823 225.887447 
L 127.648884 242.708623 
L 127.901945 211.067092 
L 128.155006 165.483079 
L 128.408068 146.884525 
L 128.661129 145.787873 
L 128.91419 148.808557 
L 129.167251 155.384312 
L 129.420313 157.908588 
L 129.673374 168.468583 
L 129.926435 191.404829 
L 130.179496 190.728113 
L 130.432557 159.124927 
L 130.685619 143.981232 
L 131.191741 177.864988 
L 131.444802 168.550689 
L 131.697864 148.696282 
L 131.950925 147.123436 
L 132.203986 158.979994 
L 132.457047 158.265362 
L 132.710108 153.959184 
L 132.96317 153.889801 
L 133.469292 111.25218 
L 133.975415 135.62123 
L 134.228476 130.106859 
L 134.481537 148.576498 
L 134.987659 235.421827 
L 135.240721 230.083658 
L 135.493782 210.744182 
L 135.746843 207.567781 
L 135.999904 192.640043 
L 136.506027 128.25173 
L 136.759088 114.3566 
L 137.012149 133.609611 
L 137.26521 173.896343 
L 137.518272 186.717116 
L 138.024394 156.373817 
L 138.277455 164.037616 
L 138.530517 191.951198 
L 138.783578 205.451134 
L 139.2897 157.723707 
L 139.795823 177.289762 
L 140.301945 157.14857 
L 140.555006 153.423644 
L 140.808068 152.433537 
L 141.061129 164.166238 
L 141.31419 169.638077 
L 141.820312 101.572148 
L 142.326435 126.746763 
L 142.579496 119.54088 
L 142.832557 128.851748 
L 143.591741 187.450523 
L 143.844802 194.527837 
L 144.097864 208.093299 
L 144.350925 207.481312 
L 144.603986 186.434693 
L 144.857047 178.701481 
L 145.110108 187.008948 
L 145.36317 177.641571 
L 145.616231 152.817186 
L 145.869292 154.33182 
L 146.122353 183.982859 
L 146.375415 200.010366 
L 146.628476 190.980567 
L 147.893782 89.096394 
L 148.146843 92.594594 
L 149.159088 185.866228 
L 149.412149 189.082406 
L 149.66521 168.823496 
L 149.918272 160.623294 
L 150.424394 237.868401 
L 150.677455 233.060014 
L 151.183578 167.703413 
L 151.436639 162.485683 
L 151.6897 159.680866 
L 151.942761 153.100382 
L 152.195823 165.432352 
L 152.701945 233.5852 
L 152.955006 226.249124 
L 153.461129 156.252109 
L 153.71419 146.502982 
L 153.967251 147.455378 
L 154.726435 163.186845 
L 155.232557 190.785951 
L 155.485619 174.807399 
L 155.73868 151.667694 
L 155.991741 153.150152 
L 156.244802 169.922611 
L 156.497864 173.105905 
L 157.003986 148.060905 
L 157.510108 158.666596 
L 158.016231 154.015392 
L 158.269292 143.500955 
L 158.522353 122.395333 
L 158.775415 118.487815 
L 159.028476 130.550495 
L 159.281537 133.165549 
L 159.534598 139.578406 
L 160.293782 232.05536 
L 161.052966 199.733018 
L 161.812149 121.721268 
L 162.06521 124.373419 
L 162.571333 180.133807 
L 162.824394 177.710178 
L 163.077455 162.690245 
L 163.330517 160.233804 
L 163.836639 198.344299 
L 164.0897 191.726582 
L 164.342761 168.101506 
L 164.595823 163.852715 
L 164.848884 173.537913 
L 165.101945 171.606355 
L 165.608068 155.363391 
L 165.861129 153.029449 
L 166.11419 158.347033 
L 166.367251 166.863281 
L 166.620313 151.750874 
L 166.873374 118.058239 
L 167.126435 109.396424 
L 167.379496 121.857859 
L 167.885619 124.584496 
L 168.391741 163.050602 
L 168.897864 190.709433 
L 169.403986 207.339577 
L 169.910108 182.372551 
L 170.16317 182.656807 
L 170.416231 182.132152 
L 170.922353 153.668903 
L 171.175415 169.095911 
L 171.428476 191.706791 
L 171.681537 195.170657 
L 171.934598 180.178316 
L 172.693782 118.62214 
L 172.946843 99.981816 
L 173.199904 91.567184 
L 173.452966 104.004848 
L 173.959088 143.315263 
L 174.46521 187.229718 
L 174.718272 178.793566 
L 174.971333 164.706306 
L 175.224394 177.402462 
L 175.477455 215.63879 
L 175.730517 234.73971 
L 175.983578 213.126904 
L 176.236639 180.775387 
L 176.4897 165.073747 
L 176.995823 156.456862 
L 177.248884 159.303848 
L 178.008068 229.248135 
L 178.261129 206.694588 
L 178.767251 151.493915 
L 179.020313 147.139533 
L 179.273374 149.962336 
L 179.779496 159.979147 
L 180.285619 185.054095 
L 180.53868 182.598853 
L 180.791741 163.235316 
L 181.044802 152.514978 
L 181.550925 171.42926 
L 181.803986 165.857928 
L 182.057047 153.460653 
L 182.310108 150.730207 
L 182.56317 155.980024 
L 182.816231 157.479851 
L 183.069292 155.177505 
L 183.322353 148.900737 
L 183.828476 120.867303 
L 184.081537 124.904109 
L 184.587659 136.638402 
L 184.840721 156.204456 
L 185.346843 223.259825 
L 185.599904 225.318311 
L 186.359088 187.365679 
L 186.86521 132.973116 
L 187.118272 123.447015 
L 187.371333 139.348555 
L 187.624394 166.949947 
L 187.877455 178.762918 
L 188.383578 161.477549 
L 188.636639 168.978959 
L 188.8897 187.843654 
L 189.142761 194.715231 
L 189.648884 165.947484 
L 190.155006 172.476557 
L 190.91419 154.284601 
L 191.167251 155.761504 
L 191.420313 162.60925 
L 191.673374 159.344151 
L 192.179496 114.220203 
L 192.432557 116.101015 
L 192.685619 123.103336 
L 192.93868 124.453022 
L 193.191741 132.840667 
L 193.950925 185.509051 
L 194.457047 203.722401 
L 194.710108 201.589426 
L 194.96317 189.230748 
L 195.216231 182.319677 
L 195.469292 182.20068 
L 195.722353 173.563139 
L 195.975415 159.47383 
L 196.228476 161.398728 
L 196.734598 193.134481 
L 196.987659 187.427886 
L 198.252966 96.4469 
L 198.506027 98.438301 
L 199.012149 133.301396 
L 199.518272 178.855997 
L 199.771333 182.811671 
L 200.024394 171.662581 
L 200.277455 170.973985 
L 200.783578 224.567503 
L 201.036639 223.324119 
L 201.542761 172.825466 
L 201.795823 163.08743 
L 202.048884 158.822072 
L 202.301945 157.931696 
L 202.555006 171.520726 
L 203.061129 222.8423 
L 203.31419 217.421793 
L 203.820312 161.782435 
L 204.073374 149.453701 
L 204.326435 148.69557 
L 204.832557 157.318825 
L 205.085619 165.659129 
L 205.33868 178.071228 
L 205.591741 183.618354 
L 206.097864 157.92654 
L 206.350925 157.092884 
L 206.603986 166.455454 
L 206.857047 168.587303 
L 207.36317 152.204621 
L 207.616231 153.451709 
L 207.869292 156.792783 
L 208.122353 156.395536 
L 208.375415 152.148874 
L 209.134598 123.286994 
L 209.640721 134.690099 
L 209.893782 146.58736 
L 210.652966 223.676322 
L 210.906027 218.971294 
L 211.412149 195.258046 
L 212.171333 128.55811 
L 212.424394 131.713952 
L 212.930517 172.758013 
L 213.183578 174.331324 
L 213.436639 165.775067 
L 213.6897 165.206116 
L 214.195823 190.996793 
L 214.448884 186.987983 
L 214.701945 172.747948 
L 214.955006 167.25021 
L 215.208068 170.482101 
L 215.461129 169.465784 
L 215.967251 156.480833 
L 216.220313 155.102966 
L 216.473374 159.223668 
L 216.726435 160.997078 
L 216.979496 147.422399 
L 217.232557 125.086045 
L 217.485619 115.639147 
L 218.244802 128.990521 
L 218.750925 161.861308 
L 219.257047 190.224912 
L 219.510108 199.240521 
L 219.76317 202.259499 
L 220.522353 182.067721 
L 220.775415 177.733235 
L 221.028476 166.483444 
L 221.281537 160.462061 
L 221.534598 170.735119 
L 221.787659 186.444317 
L 222.040721 190.008517 
L 222.293782 177.852714 
L 223.306027 103.741716 
L 223.559088 98.098319 
L 223.812149 106.70926 
L 224.318272 145.387915 
L 224.824394 180.65564 
L 225.077455 177.094899 
L 225.330517 171.235245 
L 225.583578 183.374122 
L 225.836639 209.902913 
L 226.0897 223.336497 
L 226.342761 209.498414 
L 226.848884 167.907028 
L 227.101945 160.975348 
L 227.355006 158.42326 
L 227.608068 164.709094 
L 228.367251 219.560871 
L 228.620313 202.861782 
L 229.126435 155.692032 
L 229.379496 149.214034 
L 229.632557 150.652901 
L 229.885619 154.921412 
L 230.13868 161.504232 
L 230.644802 180.666488 
L 230.897864 178.066169 
L 231.403986 157.56476 
L 231.910108 167.476309 
L 232.16317 164.128817 
L 232.416231 156.019389 
L 232.669292 152.930028 
L 233.175415 156.658362 
L 233.428476 154.359628 
L 233.681537 146.884451 
L 234.187659 125.728928 
L 234.440721 126.45361 
L 234.693782 132.098148 
L 234.946843 140.862487 
L 235.199904 160.776132 
L 235.706027 215.36541 
L 235.959088 220.740715 
L 236.212149 213.139643 
L 236.46521 201.401585 
L 236.971333 159.941482 
L 237.224394 137.758309 
L 237.477455 130.464815 
L 237.730517 142.686263 
L 237.983578 163.003073 
L 238.236639 173.439367 
L 238.742761 165.46583 
L 238.995823 171.644554 
L 239.248884 184.410939 
L 239.501945 188.732609 
L 240.008068 169.929233 
L 240.261129 168.807638 
L 240.51419 169.904348 
L 240.767251 165.987709 
L 241.273374 155.864126 
L 241.526435 157.221829 
L 241.779496 160.139414 
L 242.032557 154.297786 
L 242.53868 120.789115 
L 242.791741 118.28949 
L 243.297864 126.944871 
L 243.550925 136.051396 
L 244.56317 194.415534 
L 244.816231 200.372655 
L 245.069292 198.316232 
L 245.575415 183.599731 
L 245.828476 179.731618 
L 246.334598 163.46817 
L 246.587659 165.572749 
L 247.093782 187.974297 
L 247.346843 183.721454 
L 247.852966 147.660395 
L 248.359088 111.962457 
L 248.612149 101.540962 
L 248.86521 103.009896 
L 249.118272 115.814642 
L 249.877455 174.18372 
L 250.130517 178.716662 
L 250.383578 174.053566 
L 250.636639 177.161781 
L 251.142761 216.083653 
L 251.395823 215.883426 
L 252.155006 164.426921 
L 252.408068 159.732456 
L 252.661129 161.58066 
L 252.91419 175.097858 
L 253.420313 214.824556 
L 253.673374 210.729358 
L 254.432557 152.558647 
L 254.685619 150.064278 
L 254.93868 152.88943 
L 255.191741 158.260838 
L 255.697864 176.089508 
L 255.950925 179.20281 
L 256.710108 159.709054 
L 256.96317 164.615271 
L 257.216231 165.774682 
L 257.722353 154.560106 
L 257.975415 154.155087 
L 258.228476 156.000612 
L 258.481537 155.58405 
L 258.734598 150.745964 
L 259.240721 130.513992 
L 259.493782 126.460501 
L 259.746843 129.613265 
L 259.999904 136.745659 
L 260.252966 150.941261 
L 261.012149 217.502677 
L 261.26521 216.400922 
L 261.518272 206.828052 
L 262.024394 171.931824 
L 262.530517 134.400591 
L 262.783578 136.839929 
L 263.2897 168.169153 
L 263.542761 171.624122 
L 263.795823 167.677221 
L 264.048884 168.499785 
L 264.555006 186.336201 
L 264.808068 184.004004 
L 265.31419 169.304896 
L 265.567251 169.292578 
L 265.820312 167.896713 
L 266.326435 157.765165 
L 266.579496 156.607692 
L 266.832557 158.72396 
L 267.085619 157.276559 
L 267.844802 119.974054 
L 268.097864 120.827145 
L 268.350925 125.111558 
L 268.603986 131.813297 
L 269.110108 161.235417 
L 269.616231 189.021293 
L 269.869292 197.050298 
L 270.122353 198.981143 
L 270.881537 181.479163 
L 271.640721 164.505399 
L 271.893782 171.913468 
L 272.146843 183.002235 
L 272.399904 185.619542 
L 272.652966 175.586355 
L 273.66521 107.314337 
L 273.918272 102.88282 
L 274.171333 109.948291 
L 274.677455 146.015097 
L 274.930517 165.430554 
L 275.183578 176.315834 
L 275.436639 176.251408 
L 275.6897 175.481742 
L 275.942761 186.494854 
L 276.195823 205.76118 
L 276.448884 215.453849 
L 276.701945 205.839211 
L 277.208068 170.177312 
L 277.461129 162.089037 
L 277.71419 160.680137 
L 277.967251 168.286011 
L 278.473374 206.017225 
L 278.726435 212.279332 
L 278.979496 199.412163 
L 279.485619 159.059894 
L 279.73868 151.428493 
L 279.991741 151.59223 
L 280.244802 155.649527 
L 281.003986 177.499842 
L 281.257047 175.287691 
L 281.76317 160.614924 
L 282.016231 162.170686 
L 282.269292 165.173172 
L 282.522353 162.939848 
L 282.775415 157.388633 
L 283.028476 154.444165 
L 283.534598 155.864553 
L 283.787659 153.263502 
L 284.546843 128.832519 
L 284.799904 128.386659 
L 285.052966 133.477812 
L 285.306027 144.03517 
L 286.318272 216.412426 
L 286.571333 211.128487 
L 286.824394 199.275045 
L 287.836639 135.894202 
L 288.0897 145.074361 
L 288.595823 169.827816 
L 288.848884 169.584309 
L 289.101945 168.037763 
L 289.355006 173.086957 
L 289.608068 181.915983 
L 289.861129 184.948546 
L 290.620313 169.235894 
L 290.873374 168.538844 
L 291.126435 165.313305 
L 291.632557 157.244709 
L 292.13868 158.050402 
L 292.391741 151.547038 
L 292.897864 124.871836 
L 293.150925 120.826739 
L 293.403986 123.369803 
L 293.657047 128.807948 
L 293.910108 138.343446 
L 294.922353 192.735582 
L 295.175415 197.665708 
L 295.428476 196.09066 
L 296.693782 166.069591 
L 296.946843 168.157484 
L 297.452966 184.097924 
L 297.706027 180.427063 
L 298.212149 148.207782 
L 298.718272 114.502107 
L 298.971333 105.677737 
L 299.224394 106.981545 
L 299.477455 118.307669 
L 300.236639 170.794607 
L 300.4897 176.150929 
L 300.742761 175.738054 
L 300.995823 180.80856 
L 301.501945 210.131584 
L 301.755006 210.170209 
L 302.51419 166.101987 
L 302.767251 161.400886 
L 303.020313 164.468388 
L 303.273374 177.176213 
L 303.779496 208.686941 
L 304.032557 205.417435 
L 304.791741 155.321896 
L 305.044802 151.625402 
L 305.297864 153.714815 
L 305.550925 159.083636 
L 306.057047 174.268012 
L 306.310108 176.259973 
L 307.069292 161.409022 
L 307.322353 163.665354 
L 307.575415 164.04609 
L 308.081537 155.98738 
L 308.334598 154.882829 
L 308.587659 155.58592 
L 308.840721 154.648532 
L 309.093782 149.784118 
L 309.599904 132.733443 
L 309.852966 128.953638 
L 310.106027 131.253058 
L 310.359088 138.999071 
L 310.612149 153.81229 
L 311.371333 212.569233 
L 311.624394 213.262897 
L 311.877455 204.779893 
L 312.383578 171.162013 
L 312.8897 139.142854 
L 313.142761 140.709583 
L 313.648884 165.183165 
L 313.901945 169.639147 
L 314.155006 168.753071 
L 314.408068 170.486881 
L 314.91419 183.228087 
L 315.167251 181.877147 
L 315.673374 170.497735 
L 316.179496 166.886959 
L 316.685619 158.81388 
L 316.93868 157.537336 
L 317.191741 157.936153 
L 317.444802 154.880877 
L 318.203986 123.250939 
L 318.457047 122.507433 
L 318.710108 126.458132 
L 318.96317 133.870085 
L 319.469292 161.000221 
L 319.975415 187.523408 
L 320.228476 194.878784 
L 320.481537 196.539547 
L 320.734598 192.722218 
L 321.746843 168.793246 
L 321.999904 167.072547 
L 322.759088 182.070013 
L 323.012149 173.420805 
L 324.024394 110.619168 
L 324.277455 106.896489 
L 324.530517 113.148305 
L 325.036639 146.148602 
L 325.542761 173.368185 
L 326.048884 178.120718 
L 326.301945 188.049838 
L 326.555006 202.564735 
L 326.808068 209.679532 
L 327.061129 202.514251 
L 327.567251 171.962425 
L 327.820312 163.744067 
L 328.073374 162.935435 
L 328.326435 170.744222 
L 328.832557 201.877497 
L 329.085619 206.611811 
L 329.33868 196.352603 
L 329.844802 161.667996 
L 330.097864 153.569057 
L 330.350925 152.773552 
L 330.603986 156.465378 
L 331.36317 175.141498 
L 331.616231 173.435001 
L 332.122353 162.488585 
L 332.375415 162.541961 
L 332.628476 163.847309 
L 332.881537 162.128367 
L 333.387659 155.510898 
L 333.893782 155.196198 
L 334.146843 152.324306 
L 334.906027 131.16525 
L 335.159088 130.432459 
L 335.412149 135.404949 
L 335.66521 146.571768 
L 336.677455 212.417049 
L 336.930517 208.561326 
L 337.183578 197.225378 
L 337.942761 145.407472 
L 338.195823 140.157101 
L 338.448884 146.98184 
L 338.955006 167.367189 
L 339.208068 169.134292 
L 339.461129 169.553921 
L 339.71419 173.812668 
L 339.967251 180.119565 
L 340.220313 182.357236 
L 340.473374 178.493935 
L 340.979496 169.596701 
L 341.232557 167.809366 
L 341.991741 158.223996 
L 342.244802 157.789522 
L 342.497864 156.474575 
L 342.750925 149.939023 
L 343.257047 127.746112 
L 343.510108 123.280539 
L 343.76317 124.868099 
L 344.016231 130.492612 
L 344.522353 153.495914 
L 345.028476 181.475335 
L 345.281537 190.919229 
L 345.534598 195.382218 
L 345.787659 194.314719 
L 346.546843 177.791963 
L 347.052966 167.883712 
L 347.306027 169.786985 
L 347.812149 181.116537 
L 348.06521 177.5981 
L 348.571333 148.524236 
L 349.077455 117.073222 
L 349.330517 109.300395 
L 349.583578 110.552318 
L 349.836639 120.796599 
L 350.595823 168.277118 
L 350.848884 174.475916 
L 351.101945 176.82842 
L 351.355006 182.88457 
L 351.861129 205.691057 
L 352.11419 205.666068 
L 353.126435 163.336498 
L 353.379496 166.801575 
L 354.13868 203.832352 
L 354.391741 201.09753 
L 355.150925 157.672486 
L 355.403986 153.269737 
L 355.657047 154.703415 
L 356.16317 166.669974 
L 356.416231 172.705376 
L 356.669292 174.175512 
L 357.428476 162.520265 
L 357.681537 163.192834 
L 357.934598 162.988105 
L 358.693782 155.487566 
L 358.946843 155.33179 
L 359.199904 153.852795 
L 359.452966 149.148205 
L 359.959088 134.49663 
L 360.212149 131.121011 
L 360.46521 133.219662 
L 360.718272 141.20862 
L 361.224394 176.018824 
L 361.730517 208.442923 
L 361.983578 210.01444 
L 362.236639 202.494563 
L 362.742761 170.841679 
L 363.248884 142.984608 
L 363.501945 143.763921 
L 364.261129 168.198378 
L 364.51419 169.28081 
L 364.767251 171.596606 
L 365.273374 181.056161 
L 365.526435 180.251474 
L 366.032557 171.146769 
L 366.791741 162.832815 
L 367.044802 159.563305 
L 367.550925 157.190873 
L 367.803986 153.304876 
L 368.56317 125.888337 
L 368.816231 124.463721 
L 369.069292 128.033697 
L 369.322353 135.556903 
L 369.828476 160.942069 
L 370.334598 185.965454 
L 370.587659 192.849361 
L 370.840721 194.530129 
L 371.093782 191.578253 
L 372.106027 169.759016 
L 372.359088 168.77714 
L 372.86521 178.624496 
L 373.118272 179.19389 
L 373.371333 171.425199 
L 374.383578 113.685085 
L 374.636639 110.457238 
L 374.8897 116.147859 
L 375.395823 146.138054 
L 375.901945 171.292897 
L 376.408068 179.688075 
L 377.167251 205.251922 
L 377.420313 199.582479 
L 378.179496 165.545116 
L 378.432557 165.048491 
L 378.685619 172.483629 
L 379.191741 198.442294 
L 379.444802 202.070436 
L 379.697864 193.663085 
L 380.203986 163.669093 
L 380.457047 155.546545 
L 380.710108 154.076855 
L 380.96317 157.279707 
L 381.722353 173.336184 
L 381.975415 172.10512 
L 382.481537 163.653628 
L 382.734598 162.858129 
L 382.987659 163.089709 
L 383.240721 161.589765 
L 383.746843 156.255553 
L 384.252966 154.676514 
L 384.506027 151.61564 
L 385.26521 133.110877 
L 385.518272 132.478778 
L 385.771333 137.472144 
L 386.024394 148.6663 
L 386.783578 201.846329 
L 387.036639 208.76654 
L 387.2897 205.822101 
L 387.542761 195.244747 
L 388.301945 148.354899 
L 388.555006 143.570667 
L 388.808068 148.596994 
L 389.31419 165.686971 
L 390.579496 180.477424 
L 390.832557 177.75232 
L 391.33868 169.827639 
L 391.844802 164.544042 
L 392.350925 158.852115 
L 392.603986 157.677761 
L 392.857047 155.32554 
L 393.110108 148.968285 
L 393.616231 129.959281 
L 393.869292 125.554413 
L 394.122353 126.616366 
L 394.375415 132.107492 
L 394.881537 154.03352 
L 395.387659 180.205027 
L 395.640721 189.143479 
L 395.893782 193.382992 
L 396.146843 192.753794 
L 396.652966 183.19073 
L 397.159088 172.11934 
L 397.412149 169.205542 
L 397.66521 170.817931 
L 398.171333 178.750246 
L 398.424394 175.186594 
L 398.930517 148.723353 
L 399.436639 119.559535 
L 399.6897 112.580595 
L 399.942761 113.799667 
L 400.195823 123.129149 
L 400.955006 166.38986 
L 401.461129 177.461008 
L 401.71419 183.969998 
L 402.220312 202.212261 
L 402.473374 202.023173 
L 402.979496 179.728503 
L 403.232557 169.38581 
L 403.485619 165.27398 
L 403.73868 168.708544 
L 404.497864 199.883946 
L 404.750925 197.518238 
L 405.76317 154.893728 
L 406.016231 155.751643 
L 406.522353 166.378073 
L 406.775415 171.393923 
L 407.028476 172.623591 
L 407.787659 163.253464 
L 408.040721 162.974324 
L 408.293782 162.346484 
L 409.052966 155.942078 
L 409.306027 155.160454 
L 409.559088 153.244761 
L 409.812149 148.748792 
L 410.318272 135.998933 
L 410.571333 133.097024 
L 410.824394 135.255851 
L 411.077455 143.268674 
L 411.583578 175.718551 
L 412.0897 204.883515 
L 412.342761 206.851522 
L 412.595823 200.158235 
L 413.101945 170.7819 
L 413.608068 146.1333 
L 413.861129 146.253137 
L 414.620313 167.142955 
L 415.126435 172.139873 
L 415.632557 179.463615 
L 415.885619 178.953868 
L 416.897864 165.953158 
L 417.403986 160.063973 
L 417.910108 156.566779 
L 418.16317 152.255588 
L 418.922353 128.109423 
L 419.175415 126.454681 
L 419.428476 129.698455 
L 419.681537 137.049945 
L 420.946843 190.980748 
L 421.199904 192.767854 
L 421.452966 190.432997 
L 422.46521 170.585961 
L 422.718272 169.941764 
L 423.224394 177.079241 
L 423.477455 176.82888 
L 423.730517 169.635057 
L 424.742761 116.539509 
L 424.995823 113.688374 
L 425.248884 118.909909 
L 425.755006 146.126837 
L 426.261129 169.779296 
L 426.767251 180.538493 
L 427.526435 201.726685 
L 427.779496 197.023559 
L 428.53868 167.286741 
L 428.791741 166.951495 
L 429.044802 173.744079 
L 429.550925 195.536425 
L 429.803986 198.344226 
L 430.057047 191.302508 
L 430.816231 157.325273 
L 431.069292 155.399603 
L 431.322353 158.060443 
L 432.081537 171.918814 
L 432.334598 171.088715 
L 432.840721 164.379675 
L 433.093782 163.1129 
L 433.346843 162.663945 
L 433.599904 161.245653 
L 434.106027 156.768456 
L 434.612149 154.290726 
L 434.86521 151.116954 
L 435.624394 134.832643 
L 435.877455 134.464818 
L 436.130517 139.499785 
L 436.383578 150.431019 
L 437.142761 198.836566 
L 437.395823 205.438988 
L 437.648884 203.099974 
L 437.901945 193.355986 
L 438.661129 150.853079 
L 438.91419 146.361431 
L 439.167251 150.013262 
L 439.673374 164.541193 
L 440.685619 177.736405 
L 440.93868 179.046799 
L 441.191741 177.02247 
L 441.950925 167.218385 
L 442.710108 159.226466 
L 442.96317 157.495355 
L 443.216231 154.497216 
L 443.722353 139.752592 
L 443.975415 131.776692 
L 444.228476 127.639376 
L 444.481537 128.425947 
L 444.734598 133.670603 
L 445.240721 154.510994 
L 445.999904 187.472154 
L 446.252966 191.585703 
L 446.506027 191.314566 
L 446.759088 187.815622 
L 447.518272 172.528993 
L 447.771333 170.191369 
L 448.024394 171.461927 
L 448.277455 174.994978 
L 448.530517 176.814665 
L 448.783578 173.129794 
L 449.2897 148.865029 
L 449.795823 121.921024 
L 450.048884 115.592947 
L 450.301945 116.766295 
L 450.555006 125.274343 
L 451.31419 164.966204 
L 452.579496 199.375355 
L 452.832557 199.011515 
L 453.33868 180.042711 
L 453.591741 170.785738 
L 453.844802 167.078071 
L 454.097864 170.274454 
L 454.857047 196.601067 
L 455.110108 194.505278 
L 456.122353 156.428959 
L 456.375415 156.792868 
L 456.881537 166.04331 
L 457.134598 170.299462 
L 457.387659 171.418872 
L 457.640721 169.270715 
L 458.146843 163.73897 
L 458.652966 161.965396 
L 459.918272 152.806946 
L 460.424394 142.688606 
L 460.677455 137.339517 
L 460.930517 134.932388 
L 461.183578 137.242623 
L 461.436639 145.145892 
L 461.942761 175.322485 
L 462.448884 201.746544 
L 462.701945 203.856931 
L 462.955006 197.875845 
L 463.967251 148.751327 
L 464.220313 148.335618 
L 465.232557 169.41981 
L 465.991741 178.237831 
L 466.244802 177.884433 
L 468.522353 151.557696 
L 469.281537 130.041099 
L 469.534598 128.38248 
L 469.787659 131.367937 
L 470.040721 138.424691 
L 471.306027 189.263784 
L 471.559088 191.165778 
L 471.812149 189.299588 
L 472.824394 171.276724 
L 473.077455 170.748526 
L 473.583578 175.775918 
L 473.836639 174.852652 
L 474.0897 168.056317 
L 475.101945 119.19956 
L 475.355006 116.64797 
L 475.608068 121.440261 
L 476.11419 146.172599 
L 476.620313 168.638472 
L 477.885619 198.831645 
L 478.13868 194.795099 
L 478.897864 168.87273 
L 479.150925 168.619645 
L 479.403986 174.672478 
L 479.910108 193.043821 
L 480.16317 195.227786 
L 480.416231 189.22575 
L 481.175415 158.897243 
L 481.428476 156.674949 
L 481.681537 158.795908 
L 482.440721 170.78072 
L 482.693782 170.27149 
L 483.452966 163.311328 
L 483.706027 162.433409 
L 483.959088 161.03675 
L 484.718272 155.725735 
L 484.971333 154.013825 
L 485.224394 150.789104 
L 485.983578 136.404738 
L 486.236639 136.356775 
L 486.4897 141.41246 
L 486.995823 166.876178 
L 487.501945 196.204123 
L 487.755006 202.403865 
L 488.008068 200.487869 
L 488.261129 191.576732 
L 489.020313 152.984089 
L 489.273374 148.688182 
L 489.526435 151.283486 
L 490.285619 167.841489 
L 491.044802 176.87624 
L 491.297864 177.910665 
L 491.550925 176.32976 
L 492.816231 161.678633 
L 493.322353 157.294732 
L 493.575415 153.904106 
L 494.081537 140.376787 
L 494.334598 133.338873 
L 494.587659 129.549816 
L 494.840721 130.206601 
L 495.093782 135.177495 
L 495.599904 154.9351 
L 496.359088 185.921904 
L 496.612149 189.942778 
L 496.86521 189.960501 
L 497.118272 186.931552 
L 497.877455 172.926217 
L 498.130517 170.932644 
L 498.383578 171.84819 
L 498.636639 174.336749 
L 498.8897 175.191287 
L 499.142761 171.370084 
L 499.648884 148.984467 
L 500.155006 124.143892 
L 500.408068 118.374672 
L 500.661129 119.483819 
L 500.91419 127.241757 
L 501.926435 171.71462 
L 502.93868 196.986128 
L 503.191741 196.475383 
L 503.444802 189.829462 
L 503.950925 171.990809 
L 504.203986 168.68887 
L 504.457047 171.559745 
L 505.216231 193.82459 
L 505.469292 191.934645 
L 506.481537 157.83838 
L 506.734598 157.788219 
L 507.240721 165.720018 
L 507.493782 169.385911 
L 507.746843 170.450989 
L 507.999904 168.858846 
L 508.506027 164.05815 
L 509.26521 160.048627 
L 510.277455 152.507595 
L 511.2897 136.647094 
L 511.542761 139.125916 
L 511.795823 146.839001 
L 512.808068 198.941099 
L 513.061129 201.061553 
L 513.31419 195.702122 
L 514.326435 150.957919 
L 514.579496 150.116121 
L 515.085619 160.728032 
L 515.591741 169.253936 
L 516.350925 177.249663 
L 516.603986 176.979155 
L 517.110108 171.488966 
L 518.122353 160.579833 
L 518.628476 155.673569 
L 518.881537 151.102111 
L 519.640721 131.760046 
L 519.893782 130.209571 
L 520.146843 132.995272 
L 520.399904 139.712623 
L 521.66521 187.683162 
L 521.918272 189.682267 
L 522.171333 188.191711 
L 522.677455 179.531256 
L 523.183578 171.840281 
L 523.436639 171.306657 
L 523.942761 174.646522 
L 524.195823 173.178023 
L 524.448884 166.678246 
L 525.461129 121.676834 
L 525.71419 119.370098 
L 525.967251 123.759305 
L 526.473374 146.293752 
L 526.979496 167.752478 
L 527.991741 194.095963 
L 528.244802 196.393593 
L 528.497864 192.851043 
L 529.257047 170.266586 
L 529.510108 170.05321 
L 529.76317 175.361155 
L 530.269292 190.883692 
L 530.522353 192.580966 
L 530.775415 187.391482 
L 531.534598 160.269523 
L 531.787659 157.865311 
L 532.040721 159.482131 
L 532.799904 169.84941 
L 533.052966 169.588513 
L 533.812149 163.461455 
L 534.318272 160.919413 
L 535.330517 153.822262 
L 535.836639 145.994137 
L 536.342761 137.863251 
L 536.595823 138.137785 
L 536.848884 143.182779 
L 537.355006 167.120465 
L 537.861129 193.857836 
L 538.11419 199.631457 
L 538.367251 198.028164 
L 538.620312 189.914533 
L 539.379496 154.812012 
L 539.632557 150.661794 
L 539.885619 152.43957 
L 540.644802 167.469792 
L 541.403986 176.136358 
L 541.657047 176.97341 
L 541.910108 175.682436 
L 543.934598 153.484106 
L 544.946843 131.305105 
L 545.199904 131.916542 
L 545.452966 136.620553 
L 545.959088 155.316016 
L 546.718272 184.490469 
L 546.971333 188.426032 
L 547.224394 188.677764 
L 547.477455 186.048247 
L 548.236639 173.276921 
L 548.4897 171.487879 
L 548.742761 172.057826 
L 548.995823 173.71106 
L 549.248884 173.803295 
L 549.501945 169.858998 
L 550.008068 149.10281 
L 550.51419 126.225585 
L 550.767251 120.948376 
L 551.020313 121.979199 
L 551.273374 129.052466 
L 552.285619 171.110835 
L 553.297864 194.922475 
L 553.550925 194.30624 
L 553.803986 188.558566 
L 554.310108 173.008343 
L 554.56317 170.088444 
L 554.816231 172.610255 
L 555.575415 191.44515 
L 555.828476 189.716507 
L 556.334598 172.324944 
L 556.587659 163.775492 
L 556.840721 159.106887 
L 557.093782 158.717128 
L 557.346843 161.460944 
L 557.852966 168.621854 
L 558.106027 169.651917 
L 558.359088 168.472195 
L 558.86521 164.263011 
L 559.877455 158.284638 
L 560.383578 154.889457 
L 560.636639 152.316837 
L 561.648884 138.250657 
L 561.901945 140.883823 
L 562.155006 148.359422 
L 563.167251 196.407345 
L 563.420313 198.471657 
L 563.673374 193.66178 
L 564.685619 152.839679 
L 564.93868 151.66532 
L 565.191741 155.145503 
L 565.950925 169.018146 
L 566.457047 174.786628 
L 566.710108 176.41948 
L 566.96317 176.194789 
L 567.469292 171.355794 
L 568.481537 160.693218 
L 568.987659 155.369977 
L 569.493782 144.631666 
L 569.999904 133.315279 
L 570.252966 131.92486 
L 570.506027 134.556007 
L 570.759088 140.926759 
L 572.024394 186.223813 
L 572.277455 188.296524 
L 572.530517 187.11952 
L 573.036639 179.258556 
L 573.542761 172.288721 
L 573.795823 171.685269 
L 574.301945 173.64975 
L 574.555006 171.74298 
L 574.808068 165.482852 
L 575.820312 123.981256 
L 576.073374 121.879294 
L 576.326435 125.890819 
L 576.832557 146.490422 
L 577.33868 167.045736 
L 578.097864 187.210856 
L 578.350925 192.519509 
L 578.603986 194.298358 
L 578.857047 191.148223 
L 579.616231 171.463054 
L 579.869292 171.266001 
L 580.122353 175.87022 
L 580.628476 188.996903 
L 580.881537 190.305165 
L 581.134598 185.764354 
L 581.893782 161.456922 
L 582.146843 158.953033 
L 582.399904 160.11829 
L 583.159088 169.075661 
L 583.412149 169.00158 
L 585.6897 153.69726 
L 586.195823 146.26425 
L 586.701945 139.227306 
L 586.955006 139.801713 
L 587.208068 144.805551 
L 587.71419 167.270753 
L 588.220313 191.740468 
L 588.473374 197.095251 
L 588.726435 195.736196 
L 588.979496 188.369151 
L 589.73868 156.387127 
L 589.991741 152.360119 
L 590.244802 153.501502 
L 591.257047 170.478472 
L 591.76317 175.477168 
L 592.016231 176.174208 
L 592.269292 175.080774 
L 593.028476 167.010184 
L 594.293782 153.193488 
L 595.306027 132.924014 
L 595.559088 133.538174 
L 595.812149 137.994114 
L 596.318272 155.662943 
L 597.077455 183.169041 
L 597.330517 187.017712 
L 597.583578 187.461087 
L 597.836639 185.183769 
L 598.595823 173.567156 
L 598.848884 171.89727 
L 599.101945 172.143296 
L 599.355006 173.115714 
L 599.608068 172.599546 
L 599.861129 168.556932 
L 600.367251 149.232264 
L 600.873374 128.169266 
L 600.873374 128.169266 
" style="fill:none;stroke:#1f77b4;stroke-linecap:square;stroke-width:1.5;"/>
   </g>
   <g id="patch_3">
    <path d="M 42.620313 348.478125 
L 42.620313 22.318125 
" style="fill:none;stroke:#000000;stroke-linecap:square;stroke-linejoin:miter;stroke-width:0.8;"/>
   </g>
   <g id="patch_4">
    <path d="M 600.620312 348.478125 
L 600.620312 22.318125 
" style="fill:none;stroke:#000000;stroke-linecap:square;stroke-linejoin:miter;stroke-width:0.8;"/>
   </g>
   <g id="patch_5">
    <path d="M 42.620313 348.478125 
L 600.620312 348.478125 
" style="fill:none;stroke:#000000;stroke-linecap:square;stroke-linejoin:miter;stroke-width:0.8;"/>
   </g>
   <g id="patch_6">
    <path d="M 42.620313 22.318125 
L 600.620312 22.318125 
" style="fill:none;stroke:#000000;stroke-linecap:square;stroke-linejoin:miter;stroke-width:0.8;"/>
   </g>
   <g id="text_14">
    <!-- Karplus Strong A -->
    <g transform="translate(271.549375 16.318125)scale(0.12 -0.12)">
     <defs>
      <path d="M 9.8125 72.90625 
L 19.671875 72.90625 
L 19.671875 42.09375 
L 52.390625 72.90625 
L 65.09375 72.90625 
L 28.90625 38.921875 
L 67.671875 0 
L 54.6875 0 
L 19.671875 35.109375 
L 19.671875 0 
L 9.8125 0 
z
" id="DejaVuSans-75"/>
      <path d="M 8.5 21.578125 
L 8.5 54.6875 
L 17.484375 54.6875 
L 17.484375 21.921875 
Q 17.484375 14.15625 20.5 10.265625 
Q 23.53125 6.390625 29.59375 6.390625 
Q 36.859375 6.390625 41.078125 11.03125 
Q 45.3125 15.671875 45.3125 23.6875 
L 45.3125 54.6875 
L 54.296875 54.6875 
L 54.296875 0 
L 45.3125 0 
L 45.3125 8.40625 
Q 42.046875 3.421875 37.71875 1 
Q 33.40625 -1.421875 27.6875 -1.421875 
Q 18.265625 -1.421875 13.375 4.4375 
Q 8.5 10.296875 8.5 21.578125 
z
M 31.109375 56 
z
" id="DejaVuSans-117"/>
      <path d="M 18.3125 70.21875 
L 18.3125 54.6875 
L 36.8125 54.6875 
L 36.8125 47.703125 
L 18.3125 47.703125 
L 18.3125 18.015625 
Q 18.3125 11.328125 20.140625 9.421875 
Q 21.96875 7.515625 27.59375 7.515625 
L 36.8125 7.515625 
L 36.8125 0 
L 27.59375 0 
Q 17.1875 0 13.234375 3.875 
Q 9.28125 7.765625 9.28125 18.015625 
L 9.28125 47.703125 
L 2.6875 47.703125 
L 2.6875 54.6875 
L 9.28125 54.6875 
L 9.28125 70.21875 
z
" id="DejaVuSans-116"/>
      <path d="M 45.40625 27.984375 
Q 45.40625 37.75 41.375 43.109375 
Q 37.359375 48.484375 30.078125 48.484375 
Q 22.859375 48.484375 18.828125 43.109375 
Q 14.796875 37.75 14.796875 27.984375 
Q 14.796875 18.265625 18.828125 12.890625 
Q 22.859375 7.515625 30.078125 7.515625 
Q 37.359375 7.515625 41.375 12.890625 
Q 45.40625 18.265625 45.40625 27.984375 
z
M 54.390625 6.78125 
Q 54.390625 -7.171875 48.1875 -13.984375 
Q 42 -20.796875 29.203125 -20.796875 
Q 24.46875 -20.796875 20.265625 -20.09375 
Q 16.0625 -19.390625 12.109375 -17.921875 
L 12.109375 -9.1875 
Q 16.0625 -11.328125 19.921875 -12.34375 
Q 23.78125 -13.375 27.78125 -13.375 
Q 36.625 -13.375 41.015625 -8.765625 
Q 45.40625 -4.15625 45.40625 5.171875 
L 45.40625 9.625 
Q 42.625 4.78125 38.28125 2.390625 
Q 33.9375 0 27.875 0 
Q 17.828125 0 11.671875 7.65625 
Q 5.515625 15.328125 5.515625 27.984375 
Q 5.515625 40.671875 11.671875 48.328125 
Q 17.828125 56 27.875 56 
Q 33.9375 56 38.28125 53.609375 
Q 42.625 51.21875 45.40625 46.390625 
L 45.40625 54.6875 
L 54.390625 54.6875 
z
" id="DejaVuSans-103"/>
      <path d="M 34.1875 63.1875 
L 20.796875 26.90625 
L 47.609375 26.90625 
z
M 28.609375 72.90625 
L 39.796875 72.90625 
L 67.578125 0 
L 57.328125 0 
L 50.6875 18.703125 
L 17.828125 18.703125 
L 11.1875 0 
L 0.78125 0 
z
" id="DejaVuSans-65"/>
     </defs>
     <use xlink:href="#DejaVuSans-75"/>
     <use x="63.826172" xlink:href="#DejaVuSans-97"/>
     <use x="125.105469" xlink:href="#DejaVuSans-114"/>
     <use x="166.21875" xlink:href="#DejaVuSans-112"/>
     <use x="229.695312" xlink:href="#DejaVuSans-108"/>
     <use x="257.478516" xlink:href="#DejaVuSans-117"/>
     <use x="320.857422" xlink:href="#DejaVuSans-115"/>
     <use x="372.957031" xlink:href="#DejaVuSans-32"/>
     <use x="404.744141" xlink:href="#DejaVuSans-83"/>
     <use x="468.220703" xlink:href="#DejaVuSans-116"/>
     <use x="507.429688" xlink:href="#DejaVuSans-114"/>
     <use x="546.292969" xlink:href="#DejaVuSans-111"/>
     <use x="607.474609" xlink:href="#DejaVuSans-110"/>
     <use x="670.853516" xlink:href="#DejaVuSans-103"/>
     <use x="734.330078" xlink:href="#DejaVuSans-32"/>
     <use x="766.117188" xlink:href="#DejaVuSans-65"/>
    </g>
   </g>
  </g>
 </g>
 <defs>
  <clipPath id="pf0c7077f6a">
   <rect height="326.16" width="558" x="42.620313" y="22.318125"/>
  </clipPath>
 </defs>
</svg>
