<?xml version="1.0" encoding="utf-8" standalone="no"?>
<!DOCTYPE svg PUBLIC "-//W3C//DTD SVG 1.1//EN"
  "http://www.w3.org/Graphics/SVG/1.1/DTD/svg11.dtd">
<svg xmlns:xlink="http://www.w3.org/1999/xlink" width="718.467188pt" height="321.95625pt" viewBox="0 0 718.467188 321.95625" xmlns="http://www.w3.org/2000/svg" version="1.1">
 <metadata>
  <rdf:RDF xmlns:dc="http://purl.org/dc/elements/1.1/" xmlns:cc="http://creativecommons.org/ns#" xmlns:rdf="http://www.w3.org/1999/02/22-rdf-syntax-ns#">
   <cc:Work>
    <dc:type rdf:resource="http://purl.org/dc/dcmitype/StillImage"/>
    <dc:date>2023-03-19T17:51:48.655430</dc:date>
    <dc:format>image/svg+xml</dc:format>
    <dc:creator>
     <cc:Agent>
      <dc:title>Matplotlib v3.5.2, https://matplotlib.org/</dc:title>
     </cc:Agent>
    </dc:creator>
   </cc:Work>
  </rdf:RDF>
 </metadata>
 <defs>
  <style type="text/css">*{stroke-linejoin: round; stroke-linecap: butt}</style>
 </defs>
 <g id="figure_1">
  <g id="patch_1">
   <path d="M 0 321.95625 
L 718.467188 321.95625 
L 718.467188 0 
L 0 0 
z
" style="fill: #ffffff"/>
  </g>
  <g id="axes_1">
   <g id="patch_2">
    <path d="M 35.304688 284.4 
L 704.904688 284.4 
L 704.904688 7.2 
L 35.304688 7.2 
z
" style="fill: #ffffff"/>
   </g>
   <g id="matplotlib.axis_1">
    <g id="xtick_1">
     <g id="line2d_1">
      <defs>
       <path id="m46f1e69c1f" d="M 0 0 
L 0 3.5 
" style="stroke: #000000; stroke-width: 0.8"/>
      </defs>
      <g>
       <use xlink:href="#m46f1e69c1f" x="35.304688" y="284.4" style="stroke: #000000; stroke-width: 0.8"/>
      </g>
     </g>
     <g id="text_1">
      <!-- 0 -->
      <g transform="translate(32.123438 298.998438)scale(0.1 -0.1)">
       <defs>
        <path id="DejaVuSans-30" d="M 2034 4250 
Q 1547 4250 1301 3770 
Q 1056 3291 1056 2328 
Q 1056 1369 1301 889 
Q 1547 409 2034 409 
Q 2525 409 2770 889 
Q 3016 1369 3016 2328 
Q 3016 3291 2770 3770 
Q 2525 4250 2034 4250 
z
M 2034 4750 
Q 2819 4750 3233 4129 
Q 3647 3509 3647 2328 
Q 3647 1150 3233 529 
Q 2819 -91 2034 -91 
Q 1250 -91 836 529 
Q 422 1150 422 2328 
Q 422 3509 836 4129 
Q 1250 4750 2034 4750 
z
" transform="scale(0.015625)"/>
       </defs>
       <use xlink:href="#DejaVuSans-30"/>
      </g>
     </g>
    </g>
    <g id="xtick_2">
     <g id="line2d_2">
      <g>
       <use xlink:href="#m46f1e69c1f" x="169.224688" y="284.4" style="stroke: #000000; stroke-width: 0.8"/>
      </g>
     </g>
     <g id="text_2">
      <!-- 2 -->
      <g transform="translate(166.043438 298.998438)scale(0.1 -0.1)">
       <defs>
        <path id="DejaVuSans-32" d="M 1228 531 
L 3431 531 
L 3431 0 
L 469 0 
L 469 531 
Q 828 903 1448 1529 
Q 2069 2156 2228 2338 
Q 2531 2678 2651 2914 
Q 2772 3150 2772 3378 
Q 2772 3750 2511 3984 
Q 2250 4219 1831 4219 
Q 1534 4219 1204 4116 
Q 875 4013 500 3803 
L 500 4441 
Q 881 4594 1212 4672 
Q 1544 4750 1819 4750 
Q 2544 4750 2975 4387 
Q 3406 4025 3406 3419 
Q 3406 3131 3298 2873 
Q 3191 2616 2906 2266 
Q 2828 2175 2409 1742 
Q 1991 1309 1228 531 
z
" transform="scale(0.015625)"/>
       </defs>
       <use xlink:href="#DejaVuSans-32"/>
      </g>
     </g>
    </g>
    <g id="xtick_3">
     <g id="line2d_3">
      <g>
       <use xlink:href="#m46f1e69c1f" x="303.144688" y="284.4" style="stroke: #000000; stroke-width: 0.8"/>
      </g>
     </g>
     <g id="text_3">
      <!-- 4 -->
      <g transform="translate(299.963438 298.998438)scale(0.1 -0.1)">
       <defs>
        <path id="DejaVuSans-34" d="M 2419 4116 
L 825 1625 
L 2419 1625 
L 2419 4116 
z
M 2253 4666 
L 3047 4666 
L 3047 1625 
L 3713 1625 
L 3713 1100 
L 3047 1100 
L 3047 0 
L 2419 0 
L 2419 1100 
L 313 1100 
L 313 1709 
L 2253 4666 
z
" transform="scale(0.015625)"/>
       </defs>
       <use xlink:href="#DejaVuSans-34"/>
      </g>
     </g>
    </g>
    <g id="xtick_4">
     <g id="line2d_4">
      <g>
       <use xlink:href="#m46f1e69c1f" x="437.064688" y="284.4" style="stroke: #000000; stroke-width: 0.8"/>
      </g>
     </g>
     <g id="text_4">
      <!-- 6 -->
      <g transform="translate(433.883438 298.998438)scale(0.1 -0.1)">
       <defs>
        <path id="DejaVuSans-36" d="M 2113 2584 
Q 1688 2584 1439 2293 
Q 1191 2003 1191 1497 
Q 1191 994 1439 701 
Q 1688 409 2113 409 
Q 2538 409 2786 701 
Q 3034 994 3034 1497 
Q 3034 2003 2786 2293 
Q 2538 2584 2113 2584 
z
M 3366 4563 
L 3366 3988 
Q 3128 4100 2886 4159 
Q 2644 4219 2406 4219 
Q 1781 4219 1451 3797 
Q 1122 3375 1075 2522 
Q 1259 2794 1537 2939 
Q 1816 3084 2150 3084 
Q 2853 3084 3261 2657 
Q 3669 2231 3669 1497 
Q 3669 778 3244 343 
Q 2819 -91 2113 -91 
Q 1303 -91 875 529 
Q 447 1150 447 2328 
Q 447 3434 972 4092 
Q 1497 4750 2381 4750 
Q 2619 4750 2861 4703 
Q 3103 4656 3366 4563 
z
" transform="scale(0.015625)"/>
       </defs>
       <use xlink:href="#DejaVuSans-36"/>
      </g>
     </g>
    </g>
    <g id="xtick_5">
     <g id="line2d_5">
      <g>
       <use xlink:href="#m46f1e69c1f" x="570.984688" y="284.4" style="stroke: #000000; stroke-width: 0.8"/>
      </g>
     </g>
     <g id="text_5">
      <!-- 8 -->
      <g transform="translate(567.803438 298.998438)scale(0.1 -0.1)">
       <defs>
        <path id="DejaVuSans-38" d="M 2034 2216 
Q 1584 2216 1326 1975 
Q 1069 1734 1069 1313 
Q 1069 891 1326 650 
Q 1584 409 2034 409 
Q 2484 409 2743 651 
Q 3003 894 3003 1313 
Q 3003 1734 2745 1975 
Q 2488 2216 2034 2216 
z
M 1403 2484 
Q 997 2584 770 2862 
Q 544 3141 544 3541 
Q 544 4100 942 4425 
Q 1341 4750 2034 4750 
Q 2731 4750 3128 4425 
Q 3525 4100 3525 3541 
Q 3525 3141 3298 2862 
Q 3072 2584 2669 2484 
Q 3125 2378 3379 2068 
Q 3634 1759 3634 1313 
Q 3634 634 3220 271 
Q 2806 -91 2034 -91 
Q 1263 -91 848 271 
Q 434 634 434 1313 
Q 434 1759 690 2068 
Q 947 2378 1403 2484 
z
M 1172 3481 
Q 1172 3119 1398 2916 
Q 1625 2713 2034 2713 
Q 2441 2713 2670 2916 
Q 2900 3119 2900 3481 
Q 2900 3844 2670 4047 
Q 2441 4250 2034 4250 
Q 1625 4250 1398 4047 
Q 1172 3844 1172 3481 
z
" transform="scale(0.015625)"/>
       </defs>
       <use xlink:href="#DejaVuSans-38"/>
      </g>
     </g>
    </g>
    <g id="xtick_6">
     <g id="line2d_6">
      <g>
       <use xlink:href="#m46f1e69c1f" x="704.904688" y="284.4" style="stroke: #000000; stroke-width: 0.8"/>
      </g>
     </g>
     <g id="text_6">
      <!-- 10 -->
      <g transform="translate(698.542188 298.998438)scale(0.1 -0.1)">
       <defs>
        <path id="DejaVuSans-31" d="M 794 531 
L 1825 531 
L 1825 4091 
L 703 3866 
L 703 4441 
L 1819 4666 
L 2450 4666 
L 2450 531 
L 3481 531 
L 3481 0 
L 794 0 
L 794 531 
z
" transform="scale(0.015625)"/>
       </defs>
       <use xlink:href="#DejaVuSans-31"/>
       <use xlink:href="#DejaVuSans-30" x="63.623047"/>
      </g>
     </g>
    </g>
    <g id="text_7">
     <!-- Time (Sec) -->
     <g transform="translate(343.380469 312.676562)scale(0.1 -0.1)">
      <defs>
       <path id="DejaVuSans-54" d="M -19 4666 
L 3928 4666 
L 3928 4134 
L 2272 4134 
L 2272 0 
L 1638 0 
L 1638 4134 
L -19 4134 
L -19 4666 
z
" transform="scale(0.015625)"/>
       <path id="DejaVuSans-69" d="M 603 3500 
L 1178 3500 
L 1178 0 
L 603 0 
L 603 3500 
z
M 603 4863 
L 1178 4863 
L 1178 4134 
L 603 4134 
L 603 4863 
z
" transform="scale(0.015625)"/>
       <path id="DejaVuSans-6d" d="M 3328 2828 
Q 3544 3216 3844 3400 
Q 4144 3584 4550 3584 
Q 5097 3584 5394 3201 
Q 5691 2819 5691 2113 
L 5691 0 
L 5113 0 
L 5113 2094 
Q 5113 2597 4934 2840 
Q 4756 3084 4391 3084 
Q 3944 3084 3684 2787 
Q 3425 2491 3425 1978 
L 3425 0 
L 2847 0 
L 2847 2094 
Q 2847 2600 2669 2842 
Q 2491 3084 2119 3084 
Q 1678 3084 1418 2786 
Q 1159 2488 1159 1978 
L 1159 0 
L 581 0 
L 581 3500 
L 1159 3500 
L 1159 2956 
Q 1356 3278 1631 3431 
Q 1906 3584 2284 3584 
Q 2666 3584 2933 3390 
Q 3200 3197 3328 2828 
z
" transform="scale(0.015625)"/>
       <path id="DejaVuSans-65" d="M 3597 1894 
L 3597 1613 
L 953 1613 
Q 991 1019 1311 708 
Q 1631 397 2203 397 
Q 2534 397 2845 478 
Q 3156 559 3463 722 
L 3463 178 
Q 3153 47 2828 -22 
Q 2503 -91 2169 -91 
Q 1331 -91 842 396 
Q 353 884 353 1716 
Q 353 2575 817 3079 
Q 1281 3584 2069 3584 
Q 2775 3584 3186 3129 
Q 3597 2675 3597 1894 
z
M 3022 2063 
Q 3016 2534 2758 2815 
Q 2500 3097 2075 3097 
Q 1594 3097 1305 2825 
Q 1016 2553 972 2059 
L 3022 2063 
z
" transform="scale(0.015625)"/>
       <path id="DejaVuSans-20" transform="scale(0.015625)"/>
       <path id="DejaVuSans-28" d="M 1984 4856 
Q 1566 4138 1362 3434 
Q 1159 2731 1159 2009 
Q 1159 1288 1364 580 
Q 1569 -128 1984 -844 
L 1484 -844 
Q 1016 -109 783 600 
Q 550 1309 550 2009 
Q 550 2706 781 3412 
Q 1013 4119 1484 4856 
L 1984 4856 
z
" transform="scale(0.015625)"/>
       <path id="DejaVuSans-53" d="M 3425 4513 
L 3425 3897 
Q 3066 4069 2747 4153 
Q 2428 4238 2131 4238 
Q 1616 4238 1336 4038 
Q 1056 3838 1056 3469 
Q 1056 3159 1242 3001 
Q 1428 2844 1947 2747 
L 2328 2669 
Q 3034 2534 3370 2195 
Q 3706 1856 3706 1288 
Q 3706 609 3251 259 
Q 2797 -91 1919 -91 
Q 1588 -91 1214 -16 
Q 841 59 441 206 
L 441 856 
Q 825 641 1194 531 
Q 1563 422 1919 422 
Q 2459 422 2753 634 
Q 3047 847 3047 1241 
Q 3047 1584 2836 1778 
Q 2625 1972 2144 2069 
L 1759 2144 
Q 1053 2284 737 2584 
Q 422 2884 422 3419 
Q 422 4038 858 4394 
Q 1294 4750 2059 4750 
Q 2388 4750 2728 4690 
Q 3069 4631 3425 4513 
z
" transform="scale(0.015625)"/>
       <path id="DejaVuSans-63" d="M 3122 3366 
L 3122 2828 
Q 2878 2963 2633 3030 
Q 2388 3097 2138 3097 
Q 1578 3097 1268 2742 
Q 959 2388 959 1747 
Q 959 1106 1268 751 
Q 1578 397 2138 397 
Q 2388 397 2633 464 
Q 2878 531 3122 666 
L 3122 134 
Q 2881 22 2623 -34 
Q 2366 -91 2075 -91 
Q 1284 -91 818 406 
Q 353 903 353 1747 
Q 353 2603 823 3093 
Q 1294 3584 2113 3584 
Q 2378 3584 2631 3529 
Q 2884 3475 3122 3366 
z
" transform="scale(0.015625)"/>
       <path id="DejaVuSans-29" d="M 513 4856 
L 1013 4856 
Q 1481 4119 1714 3412 
Q 1947 2706 1947 2009 
Q 1947 1309 1714 600 
Q 1481 -109 1013 -844 
L 513 -844 
Q 928 -128 1133 580 
Q 1338 1288 1338 2009 
Q 1338 2731 1133 3434 
Q 928 4138 513 4856 
z
" transform="scale(0.015625)"/>
      </defs>
      <use xlink:href="#DejaVuSans-54"/>
      <use xlink:href="#DejaVuSans-69" x="57.958984"/>
      <use xlink:href="#DejaVuSans-6d" x="85.742188"/>
      <use xlink:href="#DejaVuSans-65" x="183.154297"/>
      <use xlink:href="#DejaVuSans-20" x="244.677734"/>
      <use xlink:href="#DejaVuSans-28" x="276.464844"/>
      <use xlink:href="#DejaVuSans-53" x="315.478516"/>
      <use xlink:href="#DejaVuSans-65" x="378.955078"/>
      <use xlink:href="#DejaVuSans-63" x="440.478516"/>
      <use xlink:href="#DejaVuSans-29" x="495.458984"/>
     </g>
    </g>
   </g>
   <g id="matplotlib.axis_2">
    <g id="ytick_1">
     <g id="line2d_7">
      <defs>
       <path id="m9049d4ab21" d="M 0 0 
L -3.5 0 
" style="stroke: #000000; stroke-width: 0.8"/>
      </defs>
      <g>
       <use xlink:href="#m9049d4ab21" x="35.304688" y="282.37238" style="stroke: #000000; stroke-width: 0.8"/>
      </g>
     </g>
     <g id="text_8">
      <!-- −20 -->
      <g transform="translate(7.2 286.171599)scale(0.1 -0.1)">
       <defs>
        <path id="DejaVuSans-2212" d="M 678 2272 
L 4684 2272 
L 4684 1741 
L 678 1741 
L 678 2272 
z
" transform="scale(0.015625)"/>
       </defs>
       <use xlink:href="#DejaVuSans-2212"/>
       <use xlink:href="#DejaVuSans-32" x="83.789062"/>
       <use xlink:href="#DejaVuSans-30" x="147.412109"/>
      </g>
     </g>
    </g>
    <g id="ytick_2">
     <g id="line2d_8">
      <g>
       <use xlink:href="#m9049d4ab21" x="35.304688" y="224.576222" style="stroke: #000000; stroke-width: 0.8"/>
      </g>
     </g>
     <g id="text_9">
      <!-- 0 -->
      <g transform="translate(21.942188 228.37544)scale(0.1 -0.1)">
       <use xlink:href="#DejaVuSans-30"/>
      </g>
     </g>
    </g>
    <g id="ytick_3">
     <g id="line2d_9">
      <g>
       <use xlink:href="#m9049d4ab21" x="35.304688" y="166.780063" style="stroke: #000000; stroke-width: 0.8"/>
      </g>
     </g>
     <g id="text_10">
      <!-- 20 -->
      <g transform="translate(15.579688 170.579282)scale(0.1 -0.1)">
       <use xlink:href="#DejaVuSans-32"/>
       <use xlink:href="#DejaVuSans-30" x="63.623047"/>
      </g>
     </g>
    </g>
    <g id="ytick_4">
     <g id="line2d_10">
      <g>
       <use xlink:href="#m9049d4ab21" x="35.304688" y="108.983905" style="stroke: #000000; stroke-width: 0.8"/>
      </g>
     </g>
     <g id="text_11">
      <!-- 40 -->
      <g transform="translate(15.579688 112.783124)scale(0.1 -0.1)">
       <use xlink:href="#DejaVuSans-34"/>
       <use xlink:href="#DejaVuSans-30" x="63.623047"/>
      </g>
     </g>
    </g>
    <g id="ytick_5">
     <g id="line2d_11">
      <g>
       <use xlink:href="#m9049d4ab21" x="35.304688" y="51.187747" style="stroke: #000000; stroke-width: 0.8"/>
      </g>
     </g>
     <g id="text_12">
      <!-- 60 -->
      <g transform="translate(15.579688 54.986965)scale(0.1 -0.1)">
       <use xlink:href="#DejaVuSans-36"/>
       <use xlink:href="#DejaVuSans-30" x="63.623047"/>
      </g>
     </g>
    </g>
   </g>
   <g id="line2d_12">
    <path d="M 35.69339 271.8 
L 35.69339 19.8 
" clip-path="url(#pa982821fc1)" style="fill: none; stroke: #1f77b4; stroke-linecap: square"/>
   </g>
   <g id="line2d_13">
    <path d="M 85.058549 271.8 
L 85.058549 19.8 
" clip-path="url(#pa982821fc1)" style="fill: none; stroke: #ff7f0e; stroke-linecap: square"/>
   </g>
   <g id="line2d_14">
    <path d="M 116.543414 271.8 
L 116.543414 19.8 
" clip-path="url(#pa982821fc1)" style="fill: none; stroke: #2ca02c; stroke-linecap: square"/>
   </g>
   <g id="line2d_15">
    <path d="M 148.416981 271.8 
L 148.416981 19.8 
" clip-path="url(#pa982821fc1)" style="fill: none; stroke: #d62728; stroke-linecap: square"/>
   </g>
   <g id="line2d_16">
    <path d="M 179.901847 271.8 
L 179.901847 19.8 
" clip-path="url(#pa982821fc1)" style="fill: none; stroke: #9467bd; stroke-linecap: square"/>
   </g>
   <g id="line2d_17">
    <path d="M 211.386712 271.8 
L 211.386712 19.8 
" clip-path="url(#pa982821fc1)" style="fill: none; stroke: #8c564b; stroke-linecap: square"/>
   </g>
   <g id="line2d_18">
    <path d="M 242.482875 271.8 
L 242.482875 19.8 
" clip-path="url(#pa982821fc1)" style="fill: none; stroke: #e377c2; stroke-linecap: square"/>
   </g>
   <g id="line2d_19">
    <path d="M 274.356443 271.8 
L 274.356443 19.8 
" clip-path="url(#pa982821fc1)" style="fill: none; stroke: #7f7f7f; stroke-linecap: square"/>
   </g>
   <g id="line2d_20">
    <path d="M 305.452606 271.8 
L 305.452606 19.8 
" clip-path="url(#pa982821fc1)" style="fill: none; stroke: #bcbd22; stroke-linecap: square"/>
   </g>
   <g id="line2d_21">
    <path d="M 336.548769 271.8 
L 336.548769 19.8 
" clip-path="url(#pa982821fc1)" style="fill: none; stroke: #17becf; stroke-linecap: square"/>
   </g>
   <g id="line2d_22">
    <path d="M 367.644932 271.8 
L 367.644932 19.8 
" clip-path="url(#pa982821fc1)" style="fill: none; stroke: #1f77b4; stroke-linecap: square"/>
   </g>
   <g id="line2d_23">
    <path d="M 399.907202 271.8 
L 399.907202 19.8 
" clip-path="url(#pa982821fc1)" style="fill: none; stroke: #ff7f0e; stroke-linecap: square"/>
   </g>
   <g id="line2d_24">
    <path d="M 431.003365 271.8 
L 431.003365 19.8 
" clip-path="url(#pa982821fc1)" style="fill: none; stroke: #2ca02c; stroke-linecap: square"/>
   </g>
   <g id="line2d_25">
    <path d="M 462.099528 271.8 
L 462.099528 19.8 
" clip-path="url(#pa982821fc1)" style="fill: none; stroke: #d62728; stroke-linecap: square"/>
   </g>
   <g id="line2d_26">
    <path d="M 493.195692 271.8 
L 493.195692 19.8 
" clip-path="url(#pa982821fc1)" style="fill: none; stroke: #9467bd; stroke-linecap: square"/>
   </g>
   <g id="line2d_27">
    <path d="M 524.680557 271.8 
L 524.680557 19.8 
" clip-path="url(#pa982821fc1)" style="fill: none; stroke: #8c564b; stroke-linecap: square"/>
   </g>
   <g id="line2d_28">
    <path d="M 554.221912 271.8 
L 554.221912 19.8 
" clip-path="url(#pa982821fc1)" style="fill: none; stroke: #e377c2; stroke-linecap: square"/>
   </g>
   <g id="line2d_29">
    <path d="M 586.095479 271.8 
L 586.095479 19.8 
" clip-path="url(#pa982821fc1)" style="fill: none; stroke: #7f7f7f; stroke-linecap: square"/>
   </g>
   <g id="line2d_30">
    <path d="M 617.580345 271.8 
L 617.580345 19.8 
" clip-path="url(#pa982821fc1)" style="fill: none; stroke: #bcbd22; stroke-linecap: square"/>
   </g>
   <g id="line2d_31">
    <path d="M 648.676508 271.8 
L 648.676508 19.8 
" clip-path="url(#pa982821fc1)" style="fill: none; stroke: #17becf; stroke-linecap: square"/>
   </g>
   <g id="line2d_32">
    <path d="M 680.550075 271.8 
L 680.550075 19.8 
" clip-path="url(#pa982821fc1)" style="fill: none; stroke: #1f77b4; stroke-linecap: square"/>
   </g>
   <g id="line2d_33">
    <path d="M 711.257536 271.8 
L 711.257536 19.8 
" clip-path="url(#pa982821fc1)" style="fill: none; stroke: #ff7f0e; stroke-linecap: square"/>
   </g>
   <g id="line2d_34">
    <path clip-path="url(#pa982821fc1)" style="fill: none; stroke: #2ca02c; stroke-linecap: square"/>
   </g>
   <g id="line2d_35">
    <path clip-path="url(#pa982821fc1)" style="fill: none; stroke: #d62728; stroke-linecap: square"/>
   </g>
   <g id="line2d_36">
    <path clip-path="url(#pa982821fc1)" style="fill: none; stroke: #9467bd; stroke-linecap: square"/>
   </g>
   <g id="line2d_37">
    <path clip-path="url(#pa982821fc1)" style="fill: none; stroke: #8c564b; stroke-linecap: square"/>
   </g>
   <g id="line2d_38">
    <path clip-path="url(#pa982821fc1)" style="fill: none; stroke: #e377c2; stroke-linecap: square"/>
   </g>
   <g id="line2d_39">
    <path clip-path="url(#pa982821fc1)" style="fill: none; stroke: #7f7f7f; stroke-linecap: square"/>
   </g>
   <g id="line2d_40">
    <path clip-path="url(#pa982821fc1)" style="fill: none; stroke: #bcbd22; stroke-linecap: square"/>
   </g>
   <g id="line2d_41">
    <path clip-path="url(#pa982821fc1)" style="fill: none; stroke: #17becf; stroke-linecap: square"/>
   </g>
   <g id="line2d_42">
    <path clip-path="url(#pa982821fc1)" style="fill: none; stroke: #1f77b4; stroke-linecap: square"/>
   </g>
   <g id="line2d_43">
    <path clip-path="url(#pa982821fc1)" style="fill: none; stroke: #ff7f0e; stroke-linecap: square"/>
   </g>
   <g id="line2d_44">
    <path clip-path="url(#pa982821fc1)" style="fill: none; stroke: #2ca02c; stroke-linecap: square"/>
   </g>
   <g id="line2d_45">
    <path clip-path="url(#pa982821fc1)" style="fill: none; stroke: #d62728; stroke-linecap: square"/>
   </g>
   <g id="line2d_46">
    <path clip-path="url(#pa982821fc1)" style="fill: none; stroke: #9467bd; stroke-linecap: square"/>
   </g>
   <g id="line2d_47">
    <path clip-path="url(#pa982821fc1)" style="fill: none; stroke: #8c564b; stroke-linecap: square"/>
   </g>
   <g id="line2d_48">
    <path clip-path="url(#pa982821fc1)" style="fill: none; stroke: #e377c2; stroke-linecap: square"/>
   </g>
   <g id="line2d_49">
    <path clip-path="url(#pa982821fc1)" style="fill: none; stroke: #7f7f7f; stroke-linecap: square"/>
   </g>
   <g id="line2d_50">
    <path clip-path="url(#pa982821fc1)" style="fill: none; stroke: #bcbd22; stroke-linecap: square"/>
   </g>
   <g id="line2d_51">
    <path clip-path="url(#pa982821fc1)" style="fill: none; stroke: #17becf; stroke-linecap: square"/>
   </g>
   <g id="line2d_52">
    <path clip-path="url(#pa982821fc1)" style="fill: none; stroke: #1f77b4; stroke-linecap: square"/>
   </g>
   <g id="line2d_53">
    <path clip-path="url(#pa982821fc1)" style="fill: none; stroke: #ff7f0e; stroke-linecap: square"/>
   </g>
   <g id="line2d_54">
    <path clip-path="url(#pa982821fc1)" style="fill: none; stroke: #2ca02c; stroke-linecap: square"/>
   </g>
   <g id="line2d_55">
    <path clip-path="url(#pa982821fc1)" style="fill: none; stroke: #d62728; stroke-linecap: square"/>
   </g>
   <g id="line2d_56">
    <path clip-path="url(#pa982821fc1)" style="fill: none; stroke: #9467bd; stroke-linecap: square"/>
   </g>
   <g id="line2d_57">
    <path clip-path="url(#pa982821fc1)" style="fill: none; stroke: #8c564b; stroke-linecap: square"/>
   </g>
   <g id="line2d_58">
    <path clip-path="url(#pa982821fc1)" style="fill: none; stroke: #e377c2; stroke-linecap: square"/>
   </g>
   <g id="line2d_59">
    <path clip-path="url(#pa982821fc1)" style="fill: none; stroke: #7f7f7f; stroke-linecap: square"/>
   </g>
   <g id="line2d_60">
    <path clip-path="url(#pa982821fc1)" style="fill: none; stroke: #bcbd22; stroke-linecap: square"/>
   </g>
   <g id="line2d_61">
    <path clip-path="url(#pa982821fc1)" style="fill: none; stroke: #17becf; stroke-linecap: square"/>
   </g>
   <g id="line2d_62">
    <path clip-path="url(#pa982821fc1)" style="fill: none; stroke: #1f77b4; stroke-linecap: square"/>
   </g>
   <g id="line2d_63">
    <path clip-path="url(#pa982821fc1)" style="fill: none; stroke: #ff7f0e; stroke-linecap: square"/>
   </g>
   <g id="line2d_64">
    <path clip-path="url(#pa982821fc1)" style="fill: none; stroke: #2ca02c; stroke-linecap: square"/>
   </g>
   <g id="line2d_65">
    <path clip-path="url(#pa982821fc1)" style="fill: none; stroke: #d62728; stroke-linecap: square"/>
   </g>
   <g id="line2d_66">
    <path clip-path="url(#pa982821fc1)" style="fill: none; stroke: #9467bd; stroke-linecap: square"/>
   </g>
   <g id="line2d_67">
    <path clip-path="url(#pa982821fc1)" style="fill: none; stroke: #8c564b; stroke-linecap: square"/>
   </g>
   <g id="line2d_68">
    <path clip-path="url(#pa982821fc1)" style="fill: none; stroke: #e377c2; stroke-linecap: square"/>
   </g>
   <g id="line2d_69">
    <path clip-path="url(#pa982821fc1)" style="fill: none; stroke: #7f7f7f; stroke-linecap: square"/>
   </g>
   <g id="line2d_70">
    <path clip-path="url(#pa982821fc1)" style="fill: none; stroke: #bcbd22; stroke-linecap: square"/>
   </g>
   <g id="line2d_71">
    <path clip-path="url(#pa982821fc1)" style="fill: none; stroke: #17becf; stroke-linecap: square"/>
   </g>
   <g id="line2d_72">
    <path clip-path="url(#pa982821fc1)" style="fill: none; stroke: #1f77b4; stroke-linecap: square"/>
   </g>
   <g id="line2d_73">
    <path clip-path="url(#pa982821fc1)" style="fill: none; stroke: #ff7f0e; stroke-linecap: square"/>
   </g>
   <g id="line2d_74">
    <path clip-path="url(#pa982821fc1)" style="fill: none; stroke: #2ca02c; stroke-linecap: square"/>
   </g>
   <g id="line2d_75">
    <path clip-path="url(#pa982821fc1)" style="fill: none; stroke: #d62728; stroke-linecap: square"/>
   </g>
   <g id="line2d_76">
    <path d="M 35.304688 224.55 
L 35.69339 224.401271 
L 36.082092 223.949515 
L 36.470794 221.709121 
L 36.859496 207.398989 
L 37.6369 103.43495 
L 38.025602 94.386019 
L 38.414304 111.01401 
L 38.803006 168.07865 
L 39.191708 191.623593 
L 39.969112 214.848962 
L 40.357814 216.330261 
L 40.746516 209.517478 
L 41.135218 211.857706 
L 41.52392 217.142418 
L 41.912622 218.097213 
L 42.301324 209.69493 
L 42.690026 212.505161 
L 43.078728 207.38296 
L 43.856132 215.70061 
L 44.244834 215.594102 
L 44.633536 218.775049 
L 45.022239 220.838284 
L 45.410941 212.590403 
L 45.799643 217.123593 
L 46.188345 218.255277 
L 46.577047 219.771761 
L 46.965749 219.947954 
L 47.354451 210.849341 
L 47.743153 214.992789 
L 48.131855 217.425911 
L 48.520557 208.930666 
L 48.909259 218.327465 
L 49.297961 219.743421 
L 49.686663 213.617157 
L 50.464067 206.665185 
L 50.852769 219.74611 
L 51.241471 219.856778 
L 51.630173 214.071356 
L 52.407577 218.879304 
L 52.796279 213.248855 
L 53.184981 214.758726 
L 53.573683 178.945338 
L 53.962385 128.677214 
L 54.351088 141.937351 
L 54.73979 188.320824 
L 55.128492 199.032339 
L 55.905896 211.816501 
L 56.294598 212.16779 
L 56.6833 208.231862 
L 57.072002 206.367218 
L 57.460704 212.364294 
L 57.849406 206.017093 
L 58.238108 204.198822 
L 58.62681 216.797472 
L 59.015512 219.589546 
L 59.404214 209.521238 
L 60.181618 216.72308 
L 60.57032 219.187948 
L 60.959022 218.720974 
L 61.347724 218.64697 
L 61.736426 216.746298 
L 62.125128 218.876963 
L 62.51383 213.713158 
L 62.902532 221.298441 
L 63.291234 215.99127 
L 63.679936 213.728007 
L 64.068639 217.082168 
L 64.457341 217.24974 
L 64.846043 217.943988 
L 65.234745 219.531331 
L 65.623447 214.29899 
L 66.012149 214.314752 
L 66.400851 218.624373 
L 66.789553 215.8951 
L 67.178255 221.233027 
L 67.566957 214.272881 
L 67.955659 220.866004 
L 68.733063 215.347777 
L 69.121765 219.703794 
L 69.510467 218.500342 
L 69.899169 214.638743 
L 70.287871 208.127464 
L 70.676573 197.487964 
L 71.065275 208.512863 
L 71.453977 214.499658 
L 71.842679 218.73269 
L 72.231381 218.532309 
L 72.620083 214.754606 
L 73.008785 214.259169 
L 73.397488 219.680344 
L 73.78619 213.674508 
L 74.174892 219.64491 
L 74.563594 218.366074 
L 74.952296 218.600171 
L 75.340998 215.77455 
L 75.7297 213.951737 
L 76.507104 219.289593 
L 76.895806 217.005016 
L 77.284508 219.756321 
L 77.67321 218.902968 
L 78.061912 219.147804 
L 78.839316 217.086826 
L 79.228018 216.219474 
L 79.61672 218.885205 
L 80.005422 210.994121 
L 80.782826 217.756018 
L 81.171528 211.477741 
L 81.948932 221.339721 
L 82.726336 217.662338 
L 83.115039 212.665434 
L 83.503741 211.792054 
L 84.281145 191.581133 
L 84.669847 164.180198 
L 85.058549 117.998086 
L 85.835953 178.697827 
L 86.224655 166.74229 
L 87.002059 210.338854 
L 87.390761 214.337369 
L 87.779463 220.02865 
L 88.168165 219.614744 
L 88.556867 211.253447 
L 88.945569 216.883318 
L 89.334271 218.784532 
L 89.722973 214.11497 
L 90.111675 219.12237 
L 90.500377 215.875887 
L 90.889079 218.161563 
L 91.277781 206.085541 
L 91.666483 206.217358 
L 92.055185 213.14438 
L 92.443888 214.765221 
L 92.83259 220.443205 
L 93.221292 221.737988 
L 93.609994 217.665071 
L 94.387398 220.173023 
L 94.7761 217.388116 
L 95.164802 220.999823 
L 95.553504 215.304805 
L 96.330908 220.337595 
L 96.71961 213.611198 
L 97.108312 221.478334 
L 97.497014 215.145395 
L 97.885716 213.221514 
L 98.274418 217.913751 
L 98.66312 217.846349 
L 99.051822 221.146489 
L 99.829226 211.731203 
L 100.217928 218.047152 
L 100.60663 210.14462 
L 100.995332 189.724879 
L 101.384034 190.653215 
L 101.772736 201.883002 
L 102.161439 218.240207 
L 102.550141 221.895749 
L 102.938843 218.039922 
L 103.327545 219.449147 
L 103.716247 217.321945 
L 104.104949 217.861385 
L 104.882353 212.211425 
L 105.271055 217.505057 
L 105.659757 218.360184 
L 106.048459 215.353347 
L 106.437161 219.402049 
L 106.825863 216.15979 
L 107.214565 203.810961 
L 107.603267 215.161721 
L 107.991969 221.459068 
L 108.380671 216.965231 
L 108.769373 211.168324 
L 109.158075 215.736016 
L 109.546777 218.97122 
L 109.935479 212.399391 
L 110.324181 214.704172 
L 110.712883 214.702621 
L 111.101585 215.707079 
L 111.490288 209.247998 
L 111.87899 216.285454 
L 112.267692 221.181633 
L 112.656394 221.086579 
L 113.045096 208.913859 
L 113.433798 211.965371 
L 113.8225 218.633003 
L 114.211202 219.930624 
L 114.599904 216.197519 
L 114.988606 215.785917 
L 115.377308 212.890217 
L 115.76601 204.895694 
L 116.543414 95.787841 
L 116.932116 121.916309 
L 117.320818 183.49917 
L 117.70952 194.017377 
L 118.098222 199.074629 
L 118.486924 212.055993 
L 118.875626 215.893686 
L 119.264328 216.159031 
L 119.65303 218.916096 
L 120.041732 219.702871 
L 120.430434 218.274192 
L 120.819136 215.829189 
L 121.207839 201.848961 
L 121.596541 206.232591 
L 121.985243 212.390827 
L 122.373945 213.305251 
L 122.762647 218.662816 
L 123.151349 214.756948 
L 123.540051 213.040434 
L 123.928753 219.191561 
L 124.317455 210.768512 
L 124.706157 216.961447 
L 125.094859 219.537365 
L 125.483561 214.32767 
L 125.872263 220.618838 
L 126.260965 217.576913 
L 126.649667 213.118904 
L 127.038369 220.723906 
L 127.427071 214.204353 
L 127.815773 219.6299 
L 128.204475 215.659525 
L 128.593177 214.907634 
L 128.981879 215.527525 
L 129.370581 212.57955 
L 129.759283 219.682759 
L 130.536688 216.039054 
L 130.92539 223.016205 
L 131.314092 221.600983 
L 131.702794 213.852546 
L 132.091496 208.583754 
L 132.480198 179.562014 
L 132.8689 189.768519 
L 133.257602 209.191663 
L 133.646304 216.224175 
L 134.035006 213.035509 
L 134.423708 206.313893 
L 134.81241 206.037347 
L 135.201112 215.499905 
L 135.589814 210.049726 
L 135.978516 206.916467 
L 136.367218 221.477763 
L 137.144622 212.125432 
L 137.533324 217.014131 
L 137.922026 216.46384 
L 138.310728 218.435387 
L 138.69943 215.757322 
L 139.088132 220.807155 
L 139.476834 218.417654 
L 139.865536 218.642655 
L 140.254239 220.192223 
L 141.031643 214.300954 
L 141.420345 214.758575 
L 141.809047 216.069696 
L 142.197749 220.008909 
L 142.586451 219.69923 
L 142.975153 219.602085 
L 143.363855 207.079304 
L 143.752557 211.551318 
L 144.141259 220.060292 
L 144.529961 211.254339 
L 144.918663 214.425158 
L 145.307365 222.218468 
L 145.696067 222.02001 
L 146.084769 210.386565 
L 146.473471 215.325965 
L 146.862173 213.951264 
L 147.250875 216.946009 
L 147.639577 212.230651 
L 148.416981 78.852088 
L 149.583088 182.243349 
L 150.360492 216.538092 
L 150.749194 213.749746 
L 151.137896 215.610463 
L 151.526598 219.284932 
L 151.9153 214.632655 
L 152.304002 213.719773 
L 152.692704 217.442792 
L 153.081406 219.376438 
L 153.470108 216.320035 
L 153.85881 217.774395 
L 154.247512 210.229266 
L 155.024916 221.05663 
L 155.413618 214.453232 
L 155.80232 218.427855 
L 156.191022 214.892227 
L 156.579724 209.863016 
L 156.968426 210.748343 
L 157.357128 212.681811 
L 157.74583 220.663328 
L 158.134532 219.494691 
L 158.523234 215.587888 
L 158.911936 222.597374 
L 159.300639 222.166878 
L 159.689341 214.445186 
L 160.078043 213.59479 
L 160.466745 218.900123 
L 160.855447 219.557001 
L 161.244149 220.695343 
L 161.632851 217.317945 
L 162.021553 222.15254 
L 162.410255 215.406239 
L 162.798957 217.245561 
L 163.187659 200.184662 
L 163.576361 173.350794 
L 163.965063 167.878504 
L 164.353765 181.034652 
L 165.131169 192.326488 
L 165.519871 210.046233 
L 165.908573 211.100631 
L 166.297275 209.440639 
L 166.685977 210.643919 
L 167.074679 209.663225 
L 167.463381 217.774662 
L 167.852083 218.094969 
L 168.240785 216.312513 
L 168.629488 217.510713 
L 169.01819 207.876903 
L 169.406892 213.37537 
L 169.795594 216.595978 
L 170.184296 212.998323 
L 170.572998 219.521469 
L 170.9617 217.883247 
L 171.350402 215.56519 
L 171.739104 220.095001 
L 172.127806 214.53725 
L 172.516508 214.211908 
L 172.90521 214.950552 
L 173.293912 216.631339 
L 173.682614 217.092806 
L 174.071316 212.609838 
L 174.460018 215.853896 
L 174.84872 217.891931 
L 175.237422 213.127507 
L 175.626124 221.947961 
L 176.014826 221.407994 
L 176.403528 216.071775 
L 176.79223 217.32744 
L 177.180932 211.973003 
L 177.569634 216.741851 
L 177.958336 208.673314 
L 178.347039 189.218875 
L 179.124443 214.071368 
L 179.513145 192.781886 
L 179.901847 145.891395 
L 180.679251 181.189617 
L 181.067953 193.641531 
L 181.456655 200.508808 
L 181.845357 205.164375 
L 182.234059 216.055495 
L 182.622761 218.018529 
L 183.011463 215.196904 
L 183.400165 205.535031 
L 183.788867 213.140057 
L 184.177569 210.090486 
L 184.566271 212.973844 
L 184.954973 205.213444 
L 185.343675 213.881829 
L 185.732377 219.588535 
L 186.121079 214.844752 
L 186.509781 218.902095 
L 186.898483 219.833248 
L 187.287185 210.519268 
L 187.675888 219.868131 
L 188.06459 220.819219 
L 188.453292 215.309362 
L 188.841994 219.687812 
L 189.230696 215.154202 
L 190.0081 220.372518 
L 190.396802 215.91792 
L 190.785504 220.175033 
L 191.174206 215.099773 
L 191.562908 211.481251 
L 191.95161 218.412406 
L 192.340312 217.817821 
L 192.729014 218.957342 
L 193.117716 218.266415 
L 193.506418 215.184662 
L 193.89512 219.855934 
L 194.283822 220.244257 
L 194.672524 214.102977 
L 195.061226 219.394482 
L 195.449928 213.383222 
L 195.83863 193.362443 
L 196.227332 199.098331 
L 196.616034 202.917564 
L 197.004736 211.080395 
L 197.393439 216.200715 
L 197.782141 216.258101 
L 198.170843 215.900674 
L 198.559545 216.78038 
L 198.948247 216.07238 
L 199.336949 214.338402 
L 199.725651 219.04971 
L 200.114353 220.061608 
L 200.503055 220.09394 
L 200.891757 213.54158 
L 201.280459 212.513245 
L 201.669161 214.553161 
L 202.057863 215.026679 
L 202.446565 214.115116 
L 202.835267 211.348942 
L 203.223969 219.203662 
L 203.612671 216.363772 
L 204.001373 208.951682 
L 204.390075 212.599788 
L 204.778777 221.882787 
L 205.167479 220.900443 
L 205.556181 215.607539 
L 205.944883 215.17952 
L 206.333585 214.526423 
L 206.722288 218.890747 
L 207.499692 211.711481 
L 207.888394 219.864669 
L 208.277096 210.264006 
L 208.665798 194.610132 
L 209.0545 201.429329 
L 209.443202 203.064002 
L 209.831904 202.344991 
L 210.220606 206.013575 
L 210.609308 189.156107 
L 211.386712 91.562917 
L 212.164116 198.173011 
L 212.552818 208.213302 
L 212.94152 211.578459 
L 213.330222 210.333393 
L 213.718924 211.00612 
L 214.88503 216.722742 
L 215.662434 207.337951 
L 216.051136 206.769961 
L 216.828541 215.686271 
L 217.217243 217.695341 
L 217.605945 220.359963 
L 217.994647 212.313181 
L 218.383349 219.386529 
L 218.772051 214.746323 
L 219.160753 214.161115 
L 219.549455 217.059401 
L 219.938157 213.456597 
L 220.326859 220.073351 
L 220.715561 220.136351 
L 221.104263 217.747958 
L 221.492965 221.368731 
L 221.881667 218.421594 
L 222.270369 217.364506 
L 222.659071 218.367719 
L 223.047773 213.512167 
L 223.436475 219.005055 
L 223.825177 219.669719 
L 224.213879 216.251226 
L 224.602581 220.209187 
L 224.991283 215.740006 
L 225.379985 221.82089 
L 225.768688 221.104516 
L 226.15739 212.293741 
L 226.546092 190.928646 
L 226.934794 184.572076 
L 227.712198 211.176464 
L 228.1009 216.047899 
L 228.489602 216.160986 
L 228.878304 218.441075 
L 229.267006 217.240709 
L 229.655708 220.30163 
L 230.04441 220.998017 
L 230.433112 218.281885 
L 230.821814 214.222575 
L 231.210516 218.642271 
L 231.599218 221.03714 
L 232.376622 221.841665 
L 232.765324 219.545052 
L 233.154026 217.94795 
L 233.93143 212.588366 
L 234.320132 215.831876 
L 234.708834 214.684624 
L 235.097536 217.456548 
L 235.486239 217.340135 
L 235.874941 214.51726 
L 236.263643 219.707544 
L 236.652345 218.320953 
L 237.041047 218.214496 
L 237.429749 212.50442 
L 237.818451 216.263256 
L 238.207153 214.303704 
L 238.595855 216.394745 
L 239.373259 222.652792 
L 239.761961 221.67086 
L 240.150663 214.687933 
L 240.539365 213.666761 
L 240.928067 212.064149 
L 241.316769 214.386258 
L 241.705471 214.635152 
L 242.482875 87.224735 
L 242.871577 118.338057 
L 243.260279 181.40735 
L 243.648981 200.677406 
L 244.037683 202.016466 
L 244.426385 210.99544 
L 244.815088 208.24893 
L 245.20379 209.074564 
L 245.592492 211.208572 
L 245.981194 205.290834 
L 246.758598 211.924556 
L 247.1473 212.547348 
L 247.536002 217.485116 
L 247.924704 201.914088 
L 248.313406 204.329671 
L 248.702108 217.761316 
L 249.09081 214.56778 
L 249.479512 215.540841 
L 249.868214 217.753315 
L 250.256916 214.385752 
L 250.645618 217.53271 
L 251.03432 212.997754 
L 251.423022 215.203748 
L 251.811724 222.575177 
L 252.200426 218.710937 
L 252.589128 217.748469 
L 252.97783 217.644493 
L 253.366532 213.130635 
L 253.755234 215.459981 
L 254.143936 216.791183 
L 254.532639 216.638616 
L 254.921341 217.160712 
L 255.310043 219.380971 
L 255.698745 213.544516 
L 256.087447 219.25776 
L 256.476149 217.537152 
L 256.864851 219.186313 
L 257.253553 215.296415 
L 257.642255 216.538988 
L 258.030957 216.48331 
L 258.419659 191.65872 
L 258.808361 194.311142 
L 259.197063 199.119991 
L 259.585765 211.335024 
L 259.974467 218.701811 
L 260.363169 220.18218 
L 260.751871 215.645277 
L 261.529275 197.527551 
L 261.917977 212.02474 
L 262.306679 215.446735 
L 263.084083 199.247013 
L 263.472785 206.089362 
L 263.861488 217.050891 
L 264.25019 215.44077 
L 264.638892 215.792679 
L 265.027594 221.636087 
L 265.416296 218.900127 
L 265.804998 217.850856 
L 266.1937 221.660307 
L 266.582402 220.421052 
L 266.971104 211.938124 
L 267.359806 213.813285 
L 267.748508 217.347816 
L 268.13721 218.018777 
L 268.914614 220.439478 
L 269.303316 219.251247 
L 269.692018 216.699241 
L 270.08072 220.800426 
L 270.469422 221.493281 
L 270.858124 220.049106 
L 271.246826 210.822033 
L 271.635528 208.500802 
L 272.02423 216.990892 
L 272.412932 218.319894 
L 273.190336 201.563538 
L 273.579039 173.028418 
L 273.967741 108.101115 
L 274.356443 87.41209 
L 275.522549 208.245165 
L 276.299953 217.914021 
L 276.688655 212.995639 
L 277.077357 212.785922 
L 277.466059 220.807729 
L 277.854761 216.204978 
L 278.243463 221.550249 
L 278.632165 209.047939 
L 279.020867 214.224038 
L 279.409569 209.998157 
L 280.186973 220.700451 
L 280.575675 219.707717 
L 280.964377 219.107885 
L 281.353079 219.675539 
L 281.741781 213.942193 
L 282.130483 216.796895 
L 282.519185 205.897396 
L 282.907888 213.867062 
L 283.29659 218.038358 
L 283.685292 214.308263 
L 284.073994 220.119383 
L 284.462696 219.34297 
L 284.851398 219.048718 
L 285.2401 222.591252 
L 285.628802 220.755163 
L 286.017504 217.729468 
L 287.18361 222.747383 
L 287.572312 219.581081 
L 287.961014 210.803854 
L 288.349716 198.942398 
L 288.738418 211.340388 
L 289.12712 218.350766 
L 289.515822 213.671135 
L 289.904524 186.503317 
L 290.293226 151.139031 
L 290.681928 180.246473 
L 291.07063 199.49105 
L 291.459332 198.49488 
L 291.848034 205.456757 
L 292.236736 215.483085 
L 292.625439 211.730407 
L 293.014141 220.785833 
L 293.402843 213.288351 
L 293.791545 208.768836 
L 294.180247 218.467498 
L 294.568949 215.749201 
L 294.957651 219.959348 
L 295.346353 220.823833 
L 295.735055 211.35369 
L 296.123757 213.140341 
L 296.512459 214.210382 
L 296.901161 212.019296 
L 297.289863 217.06083 
L 297.678565 212.17281 
L 298.067267 222.384514 
L 298.844671 214.42897 
L 299.233373 217.822604 
L 299.622075 217.094921 
L 300.399479 222.356463 
L 300.788181 213.571073 
L 301.176883 222.083182 
L 301.565585 217.530896 
L 302.34299 219.836978 
L 302.731692 209.892078 
L 303.120394 193.063768 
L 303.509096 196.074386 
L 303.897798 210.747318 
L 304.2865 213.401578 
L 304.675202 214.316965 
L 305.063904 172.231521 
L 305.452606 160.006837 
L 305.841308 169.873925 
L 306.23001 187.870388 
L 307.007414 210.38071 
L 307.396116 202.153376 
L 307.784818 205.025436 
L 308.17352 217.870964 
L 308.562222 212.860861 
L 308.950924 212.118943 
L 309.339626 206.252776 
L 309.728328 203.918472 
L 310.11703 215.632036 
L 310.505732 219.085908 
L 310.894434 211.539345 
L 311.283136 213.163989 
L 311.671839 206.594972 
L 312.060541 214.518723 
L 312.449243 216.044257 
L 312.837945 215.103107 
L 313.226647 219.861841 
L 313.615349 213.506871 
L 314.004051 213.750763 
L 314.392753 218.664555 
L 314.781455 211.617275 
L 315.558859 220.539443 
L 315.947561 216.430167 
L 316.336263 222.104204 
L 316.724965 220.168233 
L 317.113667 210.686697 
L 317.502369 214.291053 
L 317.891071 213.465403 
L 318.279773 221.247579 
L 318.668475 222.437234 
L 319.057177 216.395016 
L 319.445879 218.938516 
L 319.834581 214.750516 
L 320.223283 214.169008 
L 320.611985 215.759639 
L 321.000688 192.60171 
L 321.38939 193.444447 
L 321.778092 207.857773 
L 322.166794 217.079027 
L 322.555496 221.219635 
L 323.3329 217.68271 
L 323.721602 219.938282 
L 324.110304 216.991972 
L 324.499006 218.1461 
L 324.887708 217.462523 
L 325.27641 215.132156 
L 325.665112 221.140579 
L 326.053814 211.823212 
L 326.442516 216.800958 
L 326.831218 212.851132 
L 327.21992 212.58438 
L 327.608622 213.142065 
L 327.997324 220.457651 
L 328.386026 220.617151 
L 328.774728 213.793782 
L 329.16343 217.286695 
L 329.552132 216.302219 
L 329.940834 213.521871 
L 330.329536 213.214795 
L 330.718239 213.422115 
L 331.106941 218.536375 
L 331.495643 218.52522 
L 332.273047 216.904989 
L 332.661749 218.395449 
L 333.050451 217.956442 
L 333.439153 214.530394 
L 333.827855 217.885931 
L 334.216557 217.476097 
L 334.605259 217.284226 
L 334.993961 210.921712 
L 335.382663 198.429073 
L 335.771365 195.295924 
L 336.160067 111.383764 
L 336.548769 67.05 
L 337.326173 185.096855 
L 337.714875 203.895594 
L 338.103577 215.659069 
L 338.492279 218.145486 
L 338.880981 218.209008 
L 339.269683 210.815867 
L 339.658385 215.650239 
L 340.047088 213.962671 
L 340.43579 210.796318 
L 340.824492 222.270656 
L 341.213194 219.383498 
L 341.601896 212.463302 
L 341.990598 214.287316 
L 342.3793 213.073702 
L 342.768002 216.663379 
L 343.156704 214.724951 
L 343.545406 207.1946 
L 343.934108 211.75984 
L 344.32281 218.447775 
L 344.711512 219.714311 
L 345.100214 223.267428 
L 345.877618 210.731507 
L 346.26632 214.688455 
L 346.655022 211.191359 
L 347.043724 217.879668 
L 347.432426 218.998761 
L 347.821128 218.138885 
L 348.20983 222.112199 
L 348.598532 217.12826 
L 348.987234 219.019818 
L 349.764639 212.514259 
L 350.153341 219.776834 
L 350.542043 214.910455 
L 350.930745 214.774401 
L 351.319447 219.919999 
L 352.096851 189.284491 
L 353.262957 218.671088 
L 353.651659 219.124748 
L 354.040361 217.472532 
L 354.429063 222.261793 
L 354.817765 215.837653 
L 355.206467 217.069834 
L 355.595169 217.693983 
L 355.983871 221.994986 
L 356.372573 222.129339 
L 356.761275 218.421418 
L 357.538679 216.327751 
L 357.927381 219.629328 
L 358.316083 219.586541 
L 358.704785 213.118266 
L 359.093488 215.142569 
L 359.48219 212.929825 
L 359.870892 214.073079 
L 360.259594 217.640557 
L 360.648296 219.322883 
L 361.036998 216.625193 
L 361.814402 222.066476 
L 362.591806 218.067581 
L 362.980508 210.880685 
L 363.36921 217.702945 
L 363.757912 217.921759 
L 364.146614 214.479024 
L 364.535316 205.810473 
L 364.924018 212.766494 
L 365.31272 216.388993 
L 365.701422 214.939339 
L 366.090124 208.136957 
L 366.478826 216.998379 
L 366.867528 213.301834 
L 367.644932 115.970897 
L 368.033634 124.596763 
L 368.422336 165.299839 
L 368.811039 189.326629 
L 369.199741 202.579029 
L 369.588443 204.550681 
L 369.977145 210.403245 
L 370.365847 218.275044 
L 370.754549 217.294 
L 371.143251 213.41054 
L 371.531953 218.657355 
L 371.920655 214.273459 
L 372.698059 213.771287 
L 373.086761 217.423312 
L 373.475463 214.351463 
L 373.864165 214.279149 
L 374.252867 220.235005 
L 374.641569 216.985091 
L 375.418973 215.687276 
L 375.807675 213.404631 
L 376.196377 220.854828 
L 376.585079 217.411165 
L 376.973781 208.986844 
L 377.362483 213.00741 
L 377.751185 211.597315 
L 378.139888 217.513988 
L 378.52859 219.126292 
L 378.917292 217.791202 
L 379.305994 219.768817 
L 379.694696 215.745444 
L 380.083398 215.773442 
L 380.4721 221.692729 
L 380.860802 214.479026 
L 381.249504 211.563563 
L 381.638206 217.22199 
L 382.026908 217.124165 
L 382.41561 219.810542 
L 382.804312 221.638211 
L 383.193014 217.813459 
L 383.581716 190.255451 
L 383.970418 179.100192 
L 384.35912 197.657223 
L 384.747822 192.035258 
L 385.136524 198.607013 
L 385.525226 211.761126 
L 385.913928 218.752212 
L 386.691332 213.285598 
L 387.080034 208.825044 
L 387.468736 209.362588 
L 387.857439 207.085493 
L 388.246141 217.899895 
L 388.634843 216.762998 
L 389.023545 216.253208 
L 389.412247 208.566479 
L 389.800949 211.439059 
L 390.189651 218.186145 
L 390.578353 216.824482 
L 390.967055 210.611897 
L 391.355757 215.48919 
L 391.744459 217.032626 
L 392.133161 211.406215 
L 392.521863 210.365232 
L 392.910565 213.665981 
L 393.299267 220.230613 
L 393.687969 219.207635 
L 394.076671 212.648528 
L 394.465373 209.588682 
L 394.854075 215.474776 
L 395.631479 210.390982 
L 396.020181 215.876965 
L 396.408883 213.383143 
L 396.797585 215.51417 
L 397.186288 209.38234 
L 397.963692 220.355016 
L 398.352394 213.043509 
L 398.741096 200.518924 
L 399.129798 194.49942 
L 399.5185 106.056496 
L 399.907202 87.506163 
L 400.295904 152.970774 
L 400.684606 193.540396 
L 401.073308 211.725987 
L 401.46201 221.698866 
L 401.850712 219.581748 
L 402.239414 220.603453 
L 402.628116 221.131542 
L 403.016818 218.169884 
L 403.40552 212.317296 
L 403.794222 216.23938 
L 404.182924 206.28734 
L 404.571626 207.359705 
L 404.960328 211.589658 
L 405.34903 213.519625 
L 405.737732 212.798291 
L 406.126434 215.89975 
L 406.515136 212.883102 
L 406.903839 217.191307 
L 407.292541 211.749278 
L 407.681243 214.065355 
L 408.069945 217.875445 
L 408.458647 217.002906 
L 408.847349 217.958496 
L 409.236051 213.519767 
L 409.624753 212.416183 
L 410.013455 221.461589 
L 410.402157 218.009638 
L 410.790859 219.971723 
L 411.179561 217.985668 
L 411.568263 210.715233 
L 411.956965 218.279897 
L 412.345667 216.576924 
L 412.734369 219.719 
L 413.123071 216.743692 
L 413.511773 218.534765 
L 413.900475 215.825764 
L 414.289177 203.042271 
L 414.677879 174.949528 
L 415.066581 166.492523 
L 415.843985 187.324096 
L 416.232688 196.334224 
L 416.62139 213.663527 
L 417.010092 215.044869 
L 417.398794 217.131572 
L 417.787496 216.855956 
L 418.176198 211.774996 
L 419.342304 220.421408 
L 419.731006 217.972987 
L 420.119708 206.050361 
L 420.50841 214.982937 
L 420.897112 214.010539 
L 421.285814 214.518794 
L 421.674516 217.472051 
L 422.063218 211.418305 
L 422.840622 217.097878 
L 423.229324 211.388083 
L 423.618026 219.96653 
L 424.006728 213.627681 
L 424.39543 212.347275 
L 424.784132 217.530044 
L 425.172834 214.258825 
L 425.561536 213.656318 
L 425.950239 216.072346 
L 426.338941 206.156574 
L 426.727643 211.328637 
L 427.116345 214.468787 
L 427.505047 214.710041 
L 427.893749 214.625002 
L 428.282451 212.646896 
L 428.671153 212.871754 
L 429.059855 213.765763 
L 429.448557 213.603444 
L 429.837259 209.572268 
L 430.225961 198.689111 
L 430.614663 171.263101 
L 431.003365 169.99965 
L 431.392067 170.223037 
L 431.780769 180.115823 
L 432.169471 201.622072 
L 432.558173 211.903353 
L 432.946875 214.697609 
L 433.335577 209.648054 
L 433.724279 212.191122 
L 434.112981 215.613803 
L 434.501683 217.351902 
L 434.890385 212.949776 
L 435.279088 211.494186 
L 435.66779 214.646576 
L 436.056492 214.609077 
L 436.445194 216.763365 
L 436.833896 212.388425 
L 437.222598 205.668038 
L 437.6113 213.552238 
L 438.000002 211.740182 
L 438.388704 216.192506 
L 438.777406 215.83018 
L 439.166108 221.7025 
L 439.55481 213.130699 
L 439.943512 217.433863 
L 440.332214 213.298517 
L 440.720916 221.324062 
L 441.109618 215.190058 
L 441.887022 208.871998 
L 442.275724 214.971894 
L 442.664426 208.982094 
L 443.053128 211.055702 
L 443.44183 214.575354 
L 443.830532 198.849476 
L 444.219234 209.688767 
L 444.607936 215.258284 
L 444.996639 212.47823 
L 445.385341 215.593763 
L 445.774043 212.762275 
L 446.162745 191.195473 
L 446.551447 141.909183 
L 446.940149 134.431661 
L 447.328851 176.185472 
L 447.717553 196.624599 
L 448.106255 201.451724 
L 448.494957 217.53411 
L 448.883659 221.344122 
L 449.272361 213.604569 
L 449.661063 215.225378 
L 450.049765 211.1229 
L 450.438467 213.878383 
L 450.827169 217.76639 
L 451.215871 215.236133 
L 451.604573 208.324527 
L 451.993275 214.142249 
L 452.381977 213.163046 
L 452.770679 216.153208 
L 453.159381 208.235941 
L 453.548083 208.976546 
L 453.936785 218.314504 
L 454.325488 221.381056 
L 454.71419 213.032374 
L 455.102892 213.48399 
L 455.491594 210.163792 
L 455.880296 219.357915 
L 456.268998 219.111043 
L 456.6577 214.440646 
L 457.046402 221.469374 
L 457.435104 217.597883 
L 457.823806 210.095555 
L 458.212508 215.123236 
L 458.60121 203.937776 
L 458.989912 214.096333 
L 459.378614 219.987274 
L 459.767316 194.679377 
L 460.156018 210.449977 
L 460.54472 214.563076 
L 460.933422 215.793124 
L 461.322124 208.299668 
L 461.710826 159.86582 
L 462.099528 147.507071 
L 462.48823 182.760754 
L 462.876932 162.876674 
L 463.654336 199.503202 
L 464.043039 206.205843 
L 464.431741 209.441283 
L 464.820443 209.312689 
L 465.209145 215.534778 
L 465.597847 216.52387 
L 465.986549 209.553613 
L 466.375251 211.791777 
L 466.763953 210.494171 
L 467.152655 202.575753 
L 467.930059 221.787442 
L 468.318761 216.893772 
L 468.707463 219.760742 
L 469.484867 208.496371 
L 469.873569 212.538479 
L 470.262271 205.474997 
L 470.650973 218.065514 
L 471.039675 218.330187 
L 471.428377 199.708435 
L 471.817079 210.474136 
L 472.205781 212.649187 
L 472.594483 212.994585 
L 472.983185 216.658574 
L 473.371888 205.60566 
L 473.76059 214.404834 
L 474.149292 219.166793 
L 474.537994 213.698856 
L 474.926696 214.944161 
L 475.7041 220.797442 
L 476.092802 212.439359 
L 476.870206 180.247059 
L 477.258908 150.056949 
L 477.64761 139.636269 
L 478.036312 186.24699 
L 478.425014 210.144846 
L 478.813716 186.195585 
L 479.202418 196.705379 
L 479.59112 202.552256 
L 479.979822 213.047433 
L 480.368524 217.284219 
L 480.757226 216.908521 
L 481.145928 215.391802 
L 481.53463 210.01066 
L 481.923332 210.210503 
L 482.312034 198.232913 
L 482.700736 215.255961 
L 483.089439 217.96414 
L 483.478141 212.545704 
L 483.866843 216.233442 
L 484.255545 209.73795 
L 484.644247 212.169672 
L 485.032949 207.724168 
L 485.421651 218.090446 
L 485.810353 210.00842 
L 486.199055 214.779203 
L 486.587757 218.145773 
L 486.976459 205.240621 
L 487.365161 205.012584 
L 487.753863 217.656946 
L 488.142565 206.346448 
L 488.531267 215.458336 
L 488.919969 211.821171 
L 489.308671 210.060744 
L 490.086075 214.833474 
L 490.474777 207.844893 
L 490.863479 196.837608 
L 491.252181 210.85768 
L 491.640883 219.268189 
L 492.029585 218.739153 
L 492.418288 201.254461 
L 493.195692 140.588409 
L 493.584394 168.284286 
L 493.973096 174.961042 
L 494.361798 196.370837 
L 494.7505 207.639094 
L 495.139202 213.042093 
L 495.527904 212.328498 
L 495.916606 216.000034 
L 496.305308 209.472037 
L 496.69401 212.815271 
L 497.082712 210.659486 
L 498.248818 221.134925 
L 498.63752 216.603764 
L 499.026222 203.786253 
L 499.414924 217.619672 
L 499.803626 214.257409 
L 500.192328 205.094391 
L 500.58103 204.414462 
L 500.969732 220.088809 
L 501.747136 211.590154 
L 502.524541 212.710168 
L 502.913243 211.428477 
L 503.301945 214.62142 
L 503.690647 218.817689 
L 504.079349 203.845326 
L 504.468051 208.775999 
L 504.856753 215.520297 
L 505.245455 218.174772 
L 505.634157 214.334873 
L 506.022859 212.111166 
L 506.411561 216.165315 
L 506.800263 200.053453 
L 507.188965 207.300326 
L 507.577667 194.610824 
L 507.966369 200.001867 
L 508.743773 160.109793 
L 509.132475 185.890818 
L 509.521177 189.540479 
L 509.909879 197.900337 
L 510.298581 202.419585 
L 510.687283 204.133847 
L 511.075985 212.902895 
L 511.464688 216.072579 
L 511.85339 217.964837 
L 512.242092 211.684788 
L 512.630794 198.493286 
L 513.408198 214.593903 
L 513.7969 216.702989 
L 514.185602 215.732209 
L 514.574304 199.366389 
L 514.963006 219.202947 
L 515.351708 221.388255 
L 515.74041 217.626454 
L 516.129112 209.988353 
L 516.517814 214.543466 
L 516.906516 215.438569 
L 517.295218 215.540234 
L 517.68392 214.339084 
L 518.072622 216.141722 
L 518.850026 208.145799 
L 519.238728 207.89138 
L 519.62743 220.958957 
L 520.016132 214.418075 
L 520.404834 196.493727 
L 520.793536 207.096101 
L 521.570941 220.911368 
L 521.959643 220.427032 
L 522.737047 208.760625 
L 523.125749 210.016749 
L 523.514451 202.688427 
L 524.680557 153.700305 
L 525.457961 197.427221 
L 525.846663 185.939114 
L 526.235365 193.224995 
L 527.012769 215.536199 
L 527.401471 217.649483 
L 527.790173 211.384502 
L 528.178875 217.138935 
L 528.567577 215.619177 
L 528.956279 211.011536 
L 529.344981 221.443285 
L 529.733683 219.389467 
L 530.122385 213.498795 
L 530.511088 205.784882 
L 530.89979 206.458375 
L 531.288492 216.016964 
L 531.677194 194.555588 
L 532.065896 155.499988 
L 532.454598 169.600756 
L 532.8433 204.379785 
L 533.232002 215.201292 
L 533.620704 203.62398 
L 534.009406 217.128064 
L 534.398108 218.352428 
L 534.78681 212.314882 
L 535.175512 213.143077 
L 536.341618 221.002275 
L 536.73032 218.596405 
L 537.119022 212.4241 
L 537.507724 214.4282 
L 537.896426 196.341133 
L 538.285128 196.402403 
L 538.67383 202.263656 
L 539.062532 197.219483 
L 539.451234 130.191251 
L 539.839936 142.366579 
L 540.228639 194.8687 
L 540.617341 209.486749 
L 541.006043 216.388851 
L 541.394745 215.222157 
L 541.783447 209.776887 
L 542.172149 218.749744 
L 542.560851 213.473027 
L 542.949553 217.403963 
L 543.338255 220.10787 
L 543.726957 213.650848 
L 544.115659 218.539832 
L 544.504361 213.402579 
L 544.893063 213.458544 
L 545.281765 217.903105 
L 545.670467 215.249778 
L 546.059169 215.432757 
L 546.447871 208.920811 
L 546.836573 194.912758 
L 547.225275 162.82263 
L 548.002679 200.289821 
L 548.391381 207.18395 
L 548.780083 204.91597 
L 549.168785 210.615213 
L 549.557488 208.954027 
L 549.94619 213.994056 
L 550.334892 220.671001 
L 550.723594 216.303146 
L 551.112296 216.63956 
L 551.500998 212.034092 
L 552.278402 217.851796 
L 552.667104 219.317601 
L 553.055806 214.238128 
L 553.444508 218.670875 
L 553.83321 198.411606 
L 554.221912 167.790552 
L 554.999316 194.00415 
L 555.388018 194.482048 
L 555.77672 206.787019 
L 556.165422 204.859489 
L 556.554124 201.344629 
L 556.942826 211.318454 
L 557.331528 203.875234 
L 557.72023 216.70929 
L 558.108932 215.173047 
L 558.497634 198.996906 
L 558.886336 211.312756 
L 559.275039 214.15586 
L 559.663741 219.893406 
L 560.052443 218.183272 
L 560.441145 205.1271 
L 560.829847 213.834238 
L 561.218549 217.66566 
L 561.607251 215.180989 
L 561.995953 205.297912 
L 562.384655 213.535706 
L 562.773357 218.481231 
L 563.550761 213.891288 
L 563.939463 210.276659 
L 564.716867 214.002651 
L 565.105569 218.427969 
L 565.494271 220.227368 
L 565.882973 214.085876 
L 566.660377 219.324206 
L 567.049079 218.794846 
L 567.437781 215.934566 
L 567.826483 196.723867 
L 568.215185 192.80859 
L 568.603888 192.329783 
L 568.99259 193.481112 
L 569.381292 185.176566 
L 569.769994 199.33822 
L 570.158696 207.016816 
L 570.547398 209.7428 
L 570.9361 216.098987 
L 571.324802 209.45232 
L 572.102206 204.45883 
L 572.490908 214.730793 
L 572.87961 218.828798 
L 573.268312 216.041917 
L 573.657014 215.279061 
L 574.045716 216.764118 
L 574.434418 214.016777 
L 574.82312 218.05606 
L 575.211822 217.241133 
L 575.600524 216.706765 
L 575.989226 218.108361 
L 576.377928 218.029456 
L 577.155332 217.06455 
L 577.544034 216.707145 
L 578.321439 222.939157 
L 578.710141 219.52844 
L 579.098843 218.93151 
L 579.876247 210.567423 
L 580.264949 217.994385 
L 580.653651 218.690793 
L 581.042353 218.230576 
L 581.431055 218.479208 
L 581.819757 216.185402 
L 582.208459 215.855031 
L 582.597161 220.964467 
L 582.985863 216.13888 
L 583.374565 216.533051 
L 583.763267 220.183198 
L 584.151969 219.233097 
L 584.540671 218.810414 
L 585.318075 212.105659 
L 585.706777 187.948983 
L 586.095479 125.452505 
L 586.872883 184.178833 
L 587.261585 203.204749 
L 587.650288 213.918616 
L 588.03899 219.984823 
L 588.427692 216.137972 
L 588.816394 219.387463 
L 589.205096 219.881354 
L 589.593798 186.445125 
L 589.9825 201.434359 
L 590.371202 210.314935 
L 591.148606 219.61288 
L 591.537308 214.832185 
L 591.92601 221.624869 
L 592.314712 221.764046 
L 592.703414 212.010456 
L 593.092116 213.997065 
L 593.480818 217.3935 
L 593.86952 217.260125 
L 594.258222 219.557782 
L 594.646924 214.892474 
L 595.035626 215.203475 
L 595.424328 216.511303 
L 595.81303 215.641389 
L 596.201732 217.063336 
L 596.590434 213.715163 
L 596.979136 217.656296 
L 597.367839 220.053365 
L 597.756541 220.936746 
L 598.145243 217.127143 
L 598.533945 218.394801 
L 598.922647 221.510699 
L 599.700051 209.632838 
L 600.088753 216.296133 
L 600.477455 218.041169 
L 600.866157 205.927094 
L 601.254859 212.430198 
L 601.643561 213.691698 
L 602.032263 199.831891 
L 602.809667 209.358454 
L 603.198369 215.446142 
L 603.587071 212.254849 
L 603.975773 194.325837 
L 604.753177 212.56849 
L 605.141879 212.544777 
L 605.530581 217.682186 
L 605.919283 210.702486 
L 606.696688 213.700365 
L 607.08539 214.174454 
L 607.474092 212.646798 
L 607.862794 213.000839 
L 608.251496 215.381968 
L 608.640198 210.608523 
L 609.0289 220.909213 
L 609.417602 219.320863 
L 610.195006 212.149542 
L 610.583708 211.997676 
L 610.97241 209.534829 
L 611.361112 212.038462 
L 611.749814 215.481733 
L 612.138516 217.242351 
L 612.527218 214.9761 
L 612.91592 214.495841 
L 613.304622 214.588862 
L 613.693324 218.031091 
L 614.082026 216.759324 
L 614.470728 210.724859 
L 614.85943 217.588824 
L 615.248132 220.865538 
L 615.636834 217.992442 
L 616.025536 208.481111 
L 616.802941 215.238599 
L 617.191643 172.547077 
L 617.580345 112.755911 
L 617.969047 149.925985 
L 618.746451 197.923667 
L 619.135153 208.340851 
L 619.523855 212.682227 
L 619.912557 213.432164 
L 620.301259 211.58154 
L 620.689961 218.235042 
L 621.467365 209.703132 
L 621.856067 207.419987 
L 622.244769 201.514403 
L 622.633471 215.180786 
L 623.022173 218.089679 
L 623.410875 210.789388 
L 623.799577 216.405506 
L 624.188279 219.930399 
L 624.576981 216.337145 
L 624.965683 219.09421 
L 625.354385 214.855469 
L 625.743088 221.015145 
L 626.13179 220.90564 
L 626.520492 212.118331 
L 627.297896 221.605403 
L 628.0753 213.702497 
L 628.464002 213.227408 
L 628.852704 218.445231 
L 629.241406 221.092983 
L 629.630108 219.050686 
L 630.01881 211.978692 
L 630.796214 214.976069 
L 631.184916 212.181441 
L 631.573618 213.669141 
L 631.96232 214.480981 
L 632.351022 219.18441 
L 632.739724 214.601909 
L 633.128426 216.561675 
L 633.517128 182.295782 
L 633.90583 182.232834 
L 634.294532 178.158609 
L 634.683234 191.924938 
L 635.460639 206.918855 
L 635.849341 211.39725 
L 636.238043 219.501074 
L 636.626745 219.021206 
L 637.404149 219.53374 
L 637.792851 221.019934 
L 638.181553 216.870662 
L 638.570255 216.142562 
L 638.958957 219.535118 
L 639.347659 217.865459 
L 639.736361 217.975138 
L 640.125063 215.939191 
L 640.513765 217.091611 
L 640.902467 219.29779 
L 641.291169 214.717251 
L 641.679871 217.994193 
L 642.068573 216.21056 
L 642.457275 221.294324 
L 642.845977 216.105653 
L 643.234679 217.975964 
L 643.623381 220.605322 
L 644.400785 211.980331 
L 645.17819 219.118375 
L 645.566892 216.096601 
L 645.955594 214.208551 
L 646.344296 222.089713 
L 646.732998 220.292691 
L 647.1217 219.870534 
L 647.510402 213.981865 
L 647.899104 211.568858 
L 648.287806 117.395415 
L 648.676508 85.888775 
L 649.06521 144.683526 
L 650.620018 213.963254 
L 651.00872 218.311235 
L 651.786124 223.076438 
L 652.174826 220.523706 
L 652.563528 216.174069 
L 652.95223 216.561946 
L 653.340932 210.286901 
L 653.729634 206.785599 
L 654.118336 218.799775 
L 654.507039 219.563941 
L 654.895741 217.164005 
L 655.284443 219.457364 
L 656.061847 217.068282 
L 656.839251 210.023852 
L 657.227953 213.184343 
L 657.616655 219.011739 
L 658.005357 220.307568 
L 658.782761 211.889584 
L 659.560165 219.997423 
L 659.948867 210.364754 
L 660.337569 203.615422 
L 660.726271 216.568237 
L 661.114973 219.529238 
L 661.503675 215.708962 
L 661.892377 213.142012 
L 662.281079 214.228042 
L 662.669781 208.392826 
L 663.058483 209.008521 
L 663.835888 118.559127 
L 664.613292 185.628006 
L 665.001994 200.187876 
L 665.390696 208.822015 
L 665.779398 213.834041 
L 666.1681 217.218913 
L 666.556802 215.779405 
L 666.945504 195.37315 
L 667.334206 192.947717 
L 668.11161 201.860718 
L 668.500312 197.214276 
L 668.889014 214.186511 
L 669.277716 214.237552 
L 669.666418 209.787056 
L 670.05512 212.796308 
L 670.443822 212.11635 
L 670.832524 209.395045 
L 671.609928 220.530511 
L 671.99863 216.989304 
L 672.387332 215.093943 
L 672.776034 214.835044 
L 673.164736 215.259942 
L 673.553439 218.270481 
L 673.942141 214.720759 
L 674.330843 218.32601 
L 674.719545 220.03494 
L 675.496949 213.941642 
L 675.885651 214.503874 
L 676.274353 217.79869 
L 676.663055 219.41333 
L 677.051757 218.903234 
L 677.440459 215.688999 
L 677.829161 215.017746 
L 678.217863 211.750088 
L 678.606565 217.344505 
L 678.995267 219.733136 
L 679.383969 219.000685 
L 680.161373 203.183266 
L 680.550075 184.702024 
L 680.938777 191.843052 
L 681.327479 196.634288 
L 682.104883 202.470735 
L 682.493585 209.569712 
L 682.882288 209.589386 
L 683.27099 215.123027 
L 683.659692 215.79444 
L 684.048394 210.279988 
L 684.825798 218.172778 
L 685.2145 217.606978 
L 685.603202 210.197494 
L 685.991904 211.707293 
L 686.380606 212.264567 
L 686.769308 206.817169 
L 687.15801 212.414707 
L 687.546712 216.029506 
L 687.935414 211.870579 
L 688.324116 217.672484 
L 688.712818 221.556797 
L 689.10152 213.470484 
L 689.878924 205.92147 
L 690.267626 213.382615 
L 690.656328 217.418646 
L 691.04503 213.754092 
L 691.433732 216.197498 
L 691.822434 215.476296 
L 692.211136 217.377698 
L 692.599839 217.408602 
L 692.988541 215.843148 
L 693.377243 210.539087 
L 693.765945 215.314523 
L 694.154647 218.516707 
L 694.932051 185.903581 
L 695.320753 177.460193 
L 695.709455 174.963804 
L 696.486859 206.961898 
L 696.875561 212.741214 
L 697.652965 219.102078 
L 698.041667 220.804471 
L 698.430369 216.717219 
L 698.819071 209.789003 
L 699.207773 220.490471 
L 699.596475 218.251009 
L 699.985177 212.606184 
L 700.373879 210.321574 
L 700.762581 213.443755 
L 701.151283 214.135399 
L 701.539985 216.528374 
L 702.31739 214.757646 
L 702.706092 218.499691 
L 703.483496 213.428681 
L 703.872198 219.848326 
L 704.2609 216.290727 
L 704.649602 214.697065 
L 705.038304 209.925934 
L 705.038304 209.925934 
" clip-path="url(#pa982821fc1)" style="fill: none; stroke: #1f77b4; stroke-width: 2; stroke-linecap: square"/>
   </g>
   <g id="patch_3">
    <path d="M 35.304688 284.4 
L 35.304688 7.2 
" style="fill: none; stroke: #000000; stroke-width: 0.8; stroke-linejoin: miter; stroke-linecap: square"/>
   </g>
   <g id="patch_4">
    <path d="M 704.904688 284.4 
L 704.904688 7.2 
" style="fill: none; stroke: #000000; stroke-width: 0.8; stroke-linejoin: miter; stroke-linecap: square"/>
   </g>
   <g id="patch_5">
    <path d="M 35.304688 284.4 
L 704.904688 284.4 
" style="fill: none; stroke: #000000; stroke-width: 0.8; stroke-linejoin: miter; stroke-linecap: square"/>
   </g>
   <g id="patch_6">
    <path d="M 35.304688 7.2 
L 704.904688 7.2 
" style="fill: none; stroke: #000000; stroke-width: 0.8; stroke-linejoin: miter; stroke-linecap: square"/>
   </g>
  </g>
 </g>
 <defs>
  <clipPath id="pa982821fc1">
   <rect x="35.304688" y="7.2" width="669.6" height="277.2"/>
  </clipPath>
 </defs>
</svg>
