<?xml version="1.0" encoding="utf-8" standalone="no"?>
<!DOCTYPE svg PUBLIC "-//W3C//DTD SVG 1.1//EN"
  "http://www.w3.org/Graphics/SVG/1.1/DTD/svg11.dtd">
<!-- Created with matplotlib (https://matplotlib.org/) -->
<svg height="316.55625pt" version="1.1" viewBox="0 0 718.467188 316.55625" width="718.467188pt" xmlns="http://www.w3.org/2000/svg" xmlns:xlink="http://www.w3.org/1999/xlink">
 <metadata>
  <rdf:RDF xmlns:cc="http://creativecommons.org/ns#" xmlns:dc="http://purl.org/dc/elements/1.1/" xmlns:rdf="http://www.w3.org/1999/02/22-rdf-syntax-ns#">
   <cc:Work>
    <dc:type rdf:resource="http://purl.org/dc/dcmitype/StillImage"/>
    <dc:date>2021-04-01T22:29:18.754480</dc:date>
    <dc:format>image/svg+xml</dc:format>
    <dc:creator>
     <cc:Agent>
      <dc:title>Matplotlib v3.3.3, https://matplotlib.org/</dc:title>
     </cc:Agent>
    </dc:creator>
   </cc:Work>
  </rdf:RDF>
 </metadata>
 <defs>
  <style type="text/css">*{stroke-linecap:butt;stroke-linejoin:round;}</style>
 </defs>
 <g id="figure_1">
  <g id="patch_1">
   <path d="M 0 316.55625 
L 718.467188 316.55625 
L 718.467188 0 
L 0 0 
z
" style="fill:none;"/>
  </g>
  <g id="axes_1">
   <g id="patch_2">
    <path d="M 35.304688 279 
L 704.904688 279 
L 704.904688 7.2 
L 35.304688 7.2 
z
" style="fill:#ffffff;"/>
   </g>
   <g id="matplotlib.axis_1">
    <g id="xtick_1">
     <g id="line2d_1">
      <defs>
       <path d="M 0 0 
L 0 3.5 
" id="m47fc7cde9d" style="stroke:#000000;stroke-width:0.8;"/>
      </defs>
      <g>
       <use style="stroke:#000000;stroke-width:0.8;" x="35.304688" xlink:href="#m47fc7cde9d" y="279"/>
      </g>
     </g>
     <g id="text_1">
      <!-- 0 -->
      <g transform="translate(32.123438 293.598437)scale(0.1 -0.1)">
       <defs>
        <path d="M 31.78125 66.40625 
Q 24.171875 66.40625 20.328125 58.90625 
Q 16.5 51.421875 16.5 36.375 
Q 16.5 21.390625 20.328125 13.890625 
Q 24.171875 6.390625 31.78125 6.390625 
Q 39.453125 6.390625 43.28125 13.890625 
Q 47.125 21.390625 47.125 36.375 
Q 47.125 51.421875 43.28125 58.90625 
Q 39.453125 66.40625 31.78125 66.40625 
z
M 31.78125 74.21875 
Q 44.046875 74.21875 50.515625 64.515625 
Q 56.984375 54.828125 56.984375 36.375 
Q 56.984375 17.96875 50.515625 8.265625 
Q 44.046875 -1.421875 31.78125 -1.421875 
Q 19.53125 -1.421875 13.0625 8.265625 
Q 6.59375 17.96875 6.59375 36.375 
Q 6.59375 54.828125 13.0625 64.515625 
Q 19.53125 74.21875 31.78125 74.21875 
z
" id="DejaVuSans-48"/>
       </defs>
       <use xlink:href="#DejaVuSans-48"/>
      </g>
     </g>
    </g>
    <g id="xtick_2">
     <g id="line2d_2">
      <g>
       <use style="stroke:#000000;stroke-width:0.8;" x="169.224688" xlink:href="#m47fc7cde9d" y="279"/>
      </g>
     </g>
     <g id="text_2">
      <!-- 2 -->
      <g transform="translate(166.043438 293.598437)scale(0.1 -0.1)">
       <defs>
        <path d="M 19.1875 8.296875 
L 53.609375 8.296875 
L 53.609375 0 
L 7.328125 0 
L 7.328125 8.296875 
Q 12.9375 14.109375 22.625 23.890625 
Q 32.328125 33.6875 34.8125 36.53125 
Q 39.546875 41.84375 41.421875 45.53125 
Q 43.3125 49.21875 43.3125 52.78125 
Q 43.3125 58.59375 39.234375 62.25 
Q 35.15625 65.921875 28.609375 65.921875 
Q 23.96875 65.921875 18.8125 64.3125 
Q 13.671875 62.703125 7.8125 59.421875 
L 7.8125 69.390625 
Q 13.765625 71.78125 18.9375 73 
Q 24.125 74.21875 28.421875 74.21875 
Q 39.75 74.21875 46.484375 68.546875 
Q 53.21875 62.890625 53.21875 53.421875 
Q 53.21875 48.921875 51.53125 44.890625 
Q 49.859375 40.875 45.40625 35.40625 
Q 44.1875 33.984375 37.640625 27.21875 
Q 31.109375 20.453125 19.1875 8.296875 
z
" id="DejaVuSans-50"/>
       </defs>
       <use xlink:href="#DejaVuSans-50"/>
      </g>
     </g>
    </g>
    <g id="xtick_3">
     <g id="line2d_3">
      <g>
       <use style="stroke:#000000;stroke-width:0.8;" x="303.144688" xlink:href="#m47fc7cde9d" y="279"/>
      </g>
     </g>
     <g id="text_3">
      <!-- 4 -->
      <g transform="translate(299.963438 293.598437)scale(0.1 -0.1)">
       <defs>
        <path d="M 37.796875 64.3125 
L 12.890625 25.390625 
L 37.796875 25.390625 
z
M 35.203125 72.90625 
L 47.609375 72.90625 
L 47.609375 25.390625 
L 58.015625 25.390625 
L 58.015625 17.1875 
L 47.609375 17.1875 
L 47.609375 0 
L 37.796875 0 
L 37.796875 17.1875 
L 4.890625 17.1875 
L 4.890625 26.703125 
z
" id="DejaVuSans-52"/>
       </defs>
       <use xlink:href="#DejaVuSans-52"/>
      </g>
     </g>
    </g>
    <g id="xtick_4">
     <g id="line2d_4">
      <g>
       <use style="stroke:#000000;stroke-width:0.8;" x="437.064688" xlink:href="#m47fc7cde9d" y="279"/>
      </g>
     </g>
     <g id="text_4">
      <!-- 6 -->
      <g transform="translate(433.883438 293.598437)scale(0.1 -0.1)">
       <defs>
        <path d="M 33.015625 40.375 
Q 26.375 40.375 22.484375 35.828125 
Q 18.609375 31.296875 18.609375 23.390625 
Q 18.609375 15.53125 22.484375 10.953125 
Q 26.375 6.390625 33.015625 6.390625 
Q 39.65625 6.390625 43.53125 10.953125 
Q 47.40625 15.53125 47.40625 23.390625 
Q 47.40625 31.296875 43.53125 35.828125 
Q 39.65625 40.375 33.015625 40.375 
z
M 52.59375 71.296875 
L 52.59375 62.3125 
Q 48.875 64.0625 45.09375 64.984375 
Q 41.3125 65.921875 37.59375 65.921875 
Q 27.828125 65.921875 22.671875 59.328125 
Q 17.53125 52.734375 16.796875 39.40625 
Q 19.671875 43.65625 24.015625 45.921875 
Q 28.375 48.1875 33.59375 48.1875 
Q 44.578125 48.1875 50.953125 41.515625 
Q 57.328125 34.859375 57.328125 23.390625 
Q 57.328125 12.15625 50.6875 5.359375 
Q 44.046875 -1.421875 33.015625 -1.421875 
Q 20.359375 -1.421875 13.671875 8.265625 
Q 6.984375 17.96875 6.984375 36.375 
Q 6.984375 53.65625 15.1875 63.9375 
Q 23.390625 74.21875 37.203125 74.21875 
Q 40.921875 74.21875 44.703125 73.484375 
Q 48.484375 72.75 52.59375 71.296875 
z
" id="DejaVuSans-54"/>
       </defs>
       <use xlink:href="#DejaVuSans-54"/>
      </g>
     </g>
    </g>
    <g id="xtick_5">
     <g id="line2d_5">
      <g>
       <use style="stroke:#000000;stroke-width:0.8;" x="570.984688" xlink:href="#m47fc7cde9d" y="279"/>
      </g>
     </g>
     <g id="text_5">
      <!-- 8 -->
      <g transform="translate(567.803438 293.598437)scale(0.1 -0.1)">
       <defs>
        <path d="M 31.78125 34.625 
Q 24.75 34.625 20.71875 30.859375 
Q 16.703125 27.09375 16.703125 20.515625 
Q 16.703125 13.921875 20.71875 10.15625 
Q 24.75 6.390625 31.78125 6.390625 
Q 38.8125 6.390625 42.859375 10.171875 
Q 46.921875 13.96875 46.921875 20.515625 
Q 46.921875 27.09375 42.890625 30.859375 
Q 38.875 34.625 31.78125 34.625 
z
M 21.921875 38.8125 
Q 15.578125 40.375 12.03125 44.71875 
Q 8.5 49.078125 8.5 55.328125 
Q 8.5 64.0625 14.71875 69.140625 
Q 20.953125 74.21875 31.78125 74.21875 
Q 42.671875 74.21875 48.875 69.140625 
Q 55.078125 64.0625 55.078125 55.328125 
Q 55.078125 49.078125 51.53125 44.71875 
Q 48 40.375 41.703125 38.8125 
Q 48.828125 37.15625 52.796875 32.3125 
Q 56.78125 27.484375 56.78125 20.515625 
Q 56.78125 9.90625 50.3125 4.234375 
Q 43.84375 -1.421875 31.78125 -1.421875 
Q 19.734375 -1.421875 13.25 4.234375 
Q 6.78125 9.90625 6.78125 20.515625 
Q 6.78125 27.484375 10.78125 32.3125 
Q 14.796875 37.15625 21.921875 38.8125 
z
M 18.3125 54.390625 
Q 18.3125 48.734375 21.84375 45.5625 
Q 25.390625 42.390625 31.78125 42.390625 
Q 38.140625 42.390625 41.71875 45.5625 
Q 45.3125 48.734375 45.3125 54.390625 
Q 45.3125 60.0625 41.71875 63.234375 
Q 38.140625 66.40625 31.78125 66.40625 
Q 25.390625 66.40625 21.84375 63.234375 
Q 18.3125 60.0625 18.3125 54.390625 
z
" id="DejaVuSans-56"/>
       </defs>
       <use xlink:href="#DejaVuSans-56"/>
      </g>
     </g>
    </g>
    <g id="xtick_6">
     <g id="line2d_6">
      <g>
       <use style="stroke:#000000;stroke-width:0.8;" x="704.904688" xlink:href="#m47fc7cde9d" y="279"/>
      </g>
     </g>
     <g id="text_6">
      <!-- 10 -->
      <g transform="translate(698.542188 293.598437)scale(0.1 -0.1)">
       <defs>
        <path d="M 12.40625 8.296875 
L 28.515625 8.296875 
L 28.515625 63.921875 
L 10.984375 60.40625 
L 10.984375 69.390625 
L 28.421875 72.90625 
L 38.28125 72.90625 
L 38.28125 8.296875 
L 54.390625 8.296875 
L 54.390625 0 
L 12.40625 0 
z
" id="DejaVuSans-49"/>
       </defs>
       <use xlink:href="#DejaVuSans-49"/>
       <use x="63.623047" xlink:href="#DejaVuSans-48"/>
      </g>
     </g>
    </g>
    <g id="text_7">
     <!-- Time (Sec) -->
     <g transform="translate(343.380469 307.276562)scale(0.1 -0.1)">
      <defs>
       <path d="M -0.296875 72.90625 
L 61.375 72.90625 
L 61.375 64.59375 
L 35.5 64.59375 
L 35.5 0 
L 25.59375 0 
L 25.59375 64.59375 
L -0.296875 64.59375 
z
" id="DejaVuSans-84"/>
       <path d="M 9.421875 54.6875 
L 18.40625 54.6875 
L 18.40625 0 
L 9.421875 0 
z
M 9.421875 75.984375 
L 18.40625 75.984375 
L 18.40625 64.59375 
L 9.421875 64.59375 
z
" id="DejaVuSans-105"/>
       <path d="M 52 44.1875 
Q 55.375 50.25 60.0625 53.125 
Q 64.75 56 71.09375 56 
Q 79.640625 56 84.28125 50.015625 
Q 88.921875 44.046875 88.921875 33.015625 
L 88.921875 0 
L 79.890625 0 
L 79.890625 32.71875 
Q 79.890625 40.578125 77.09375 44.375 
Q 74.3125 48.1875 68.609375 48.1875 
Q 61.625 48.1875 57.5625 43.546875 
Q 53.515625 38.921875 53.515625 30.90625 
L 53.515625 0 
L 44.484375 0 
L 44.484375 32.71875 
Q 44.484375 40.625 41.703125 44.40625 
Q 38.921875 48.1875 33.109375 48.1875 
Q 26.21875 48.1875 22.15625 43.53125 
Q 18.109375 38.875 18.109375 30.90625 
L 18.109375 0 
L 9.078125 0 
L 9.078125 54.6875 
L 18.109375 54.6875 
L 18.109375 46.1875 
Q 21.1875 51.21875 25.484375 53.609375 
Q 29.78125 56 35.6875 56 
Q 41.65625 56 45.828125 52.96875 
Q 50 49.953125 52 44.1875 
z
" id="DejaVuSans-109"/>
       <path d="M 56.203125 29.59375 
L 56.203125 25.203125 
L 14.890625 25.203125 
Q 15.484375 15.921875 20.484375 11.0625 
Q 25.484375 6.203125 34.421875 6.203125 
Q 39.59375 6.203125 44.453125 7.46875 
Q 49.3125 8.734375 54.109375 11.28125 
L 54.109375 2.78125 
Q 49.265625 0.734375 44.1875 -0.34375 
Q 39.109375 -1.421875 33.890625 -1.421875 
Q 20.796875 -1.421875 13.15625 6.1875 
Q 5.515625 13.8125 5.515625 26.8125 
Q 5.515625 40.234375 12.765625 48.109375 
Q 20.015625 56 32.328125 56 
Q 43.359375 56 49.78125 48.890625 
Q 56.203125 41.796875 56.203125 29.59375 
z
M 47.21875 32.234375 
Q 47.125 39.59375 43.09375 43.984375 
Q 39.0625 48.390625 32.421875 48.390625 
Q 24.90625 48.390625 20.390625 44.140625 
Q 15.875 39.890625 15.1875 32.171875 
z
" id="DejaVuSans-101"/>
       <path id="DejaVuSans-32"/>
       <path d="M 31 75.875 
Q 24.46875 64.65625 21.28125 53.65625 
Q 18.109375 42.671875 18.109375 31.390625 
Q 18.109375 20.125 21.3125 9.0625 
Q 24.515625 -2 31 -13.1875 
L 23.1875 -13.1875 
Q 15.875 -1.703125 12.234375 9.375 
Q 8.59375 20.453125 8.59375 31.390625 
Q 8.59375 42.28125 12.203125 53.3125 
Q 15.828125 64.359375 23.1875 75.875 
z
" id="DejaVuSans-40"/>
       <path d="M 53.515625 70.515625 
L 53.515625 60.890625 
Q 47.90625 63.578125 42.921875 64.890625 
Q 37.9375 66.21875 33.296875 66.21875 
Q 25.25 66.21875 20.875 63.09375 
Q 16.5 59.96875 16.5 54.203125 
Q 16.5 49.359375 19.40625 46.890625 
Q 22.3125 44.4375 30.421875 42.921875 
L 36.375 41.703125 
Q 47.40625 39.59375 52.65625 34.296875 
Q 57.90625 29 57.90625 20.125 
Q 57.90625 9.515625 50.796875 4.046875 
Q 43.703125 -1.421875 29.984375 -1.421875 
Q 24.8125 -1.421875 18.96875 -0.25 
Q 13.140625 0.921875 6.890625 3.21875 
L 6.890625 13.375 
Q 12.890625 10.015625 18.65625 8.296875 
Q 24.421875 6.59375 29.984375 6.59375 
Q 38.421875 6.59375 43.015625 9.90625 
Q 47.609375 13.234375 47.609375 19.390625 
Q 47.609375 24.75 44.3125 27.78125 
Q 41.015625 30.8125 33.5 32.328125 
L 27.484375 33.5 
Q 16.453125 35.6875 11.515625 40.375 
Q 6.59375 45.0625 6.59375 53.421875 
Q 6.59375 63.09375 13.40625 68.65625 
Q 20.21875 74.21875 32.171875 74.21875 
Q 37.3125 74.21875 42.625 73.28125 
Q 47.953125 72.359375 53.515625 70.515625 
z
" id="DejaVuSans-83"/>
       <path d="M 48.78125 52.59375 
L 48.78125 44.1875 
Q 44.96875 46.296875 41.140625 47.34375 
Q 37.3125 48.390625 33.40625 48.390625 
Q 24.65625 48.390625 19.8125 42.84375 
Q 14.984375 37.3125 14.984375 27.296875 
Q 14.984375 17.28125 19.8125 11.734375 
Q 24.65625 6.203125 33.40625 6.203125 
Q 37.3125 6.203125 41.140625 7.25 
Q 44.96875 8.296875 48.78125 10.40625 
L 48.78125 2.09375 
Q 45.015625 0.34375 40.984375 -0.53125 
Q 36.96875 -1.421875 32.421875 -1.421875 
Q 20.0625 -1.421875 12.78125 6.34375 
Q 5.515625 14.109375 5.515625 27.296875 
Q 5.515625 40.671875 12.859375 48.328125 
Q 20.21875 56 33.015625 56 
Q 37.15625 56 41.109375 55.140625 
Q 45.0625 54.296875 48.78125 52.59375 
z
" id="DejaVuSans-99"/>
       <path d="M 8.015625 75.875 
L 15.828125 75.875 
Q 23.140625 64.359375 26.78125 53.3125 
Q 30.421875 42.28125 30.421875 31.390625 
Q 30.421875 20.453125 26.78125 9.375 
Q 23.140625 -1.703125 15.828125 -13.1875 
L 8.015625 -13.1875 
Q 14.5 -2 17.703125 9.0625 
Q 20.90625 20.125 20.90625 31.390625 
Q 20.90625 42.671875 17.703125 53.65625 
Q 14.5 64.65625 8.015625 75.875 
z
" id="DejaVuSans-41"/>
      </defs>
      <use xlink:href="#DejaVuSans-84"/>
      <use x="57.958984" xlink:href="#DejaVuSans-105"/>
      <use x="85.742188" xlink:href="#DejaVuSans-109"/>
      <use x="183.154297" xlink:href="#DejaVuSans-101"/>
      <use x="244.677734" xlink:href="#DejaVuSans-32"/>
      <use x="276.464844" xlink:href="#DejaVuSans-40"/>
      <use x="315.478516" xlink:href="#DejaVuSans-83"/>
      <use x="378.955078" xlink:href="#DejaVuSans-101"/>
      <use x="440.478516" xlink:href="#DejaVuSans-99"/>
      <use x="495.458984" xlink:href="#DejaVuSans-41"/>
     </g>
    </g>
   </g>
   <g id="matplotlib.axis_2">
    <g id="ytick_1">
     <g id="line2d_7">
      <defs>
       <path d="M 0 0 
L -3.5 0 
" id="md33e76192c" style="stroke:#000000;stroke-width:0.8;"/>
      </defs>
      <g>
       <use style="stroke:#000000;stroke-width:0.8;" x="35.304688" xlink:href="#md33e76192c" y="273.926161"/>
      </g>
     </g>
     <g id="text_8">
      <!-- −50 -->
      <g transform="translate(7.2 277.72538)scale(0.1 -0.1)">
       <defs>
        <path d="M 10.59375 35.5 
L 73.1875 35.5 
L 73.1875 27.203125 
L 10.59375 27.203125 
z
" id="DejaVuSans-8722"/>
        <path d="M 10.796875 72.90625 
L 49.515625 72.90625 
L 49.515625 64.59375 
L 19.828125 64.59375 
L 19.828125 46.734375 
Q 21.96875 47.46875 24.109375 47.828125 
Q 26.265625 48.1875 28.421875 48.1875 
Q 40.625 48.1875 47.75 41.5 
Q 54.890625 34.8125 54.890625 23.390625 
Q 54.890625 11.625 47.5625 5.09375 
Q 40.234375 -1.421875 26.90625 -1.421875 
Q 22.3125 -1.421875 17.546875 -0.640625 
Q 12.796875 0.140625 7.71875 1.703125 
L 7.71875 11.625 
Q 12.109375 9.234375 16.796875 8.0625 
Q 21.484375 6.890625 26.703125 6.890625 
Q 35.15625 6.890625 40.078125 11.328125 
Q 45.015625 15.765625 45.015625 23.390625 
Q 45.015625 31 40.078125 35.4375 
Q 35.15625 39.890625 26.703125 39.890625 
Q 22.75 39.890625 18.8125 39.015625 
Q 14.890625 38.140625 10.796875 36.28125 
z
" id="DejaVuSans-53"/>
       </defs>
       <use xlink:href="#DejaVuSans-8722"/>
       <use x="83.789062" xlink:href="#DejaVuSans-53"/>
       <use x="147.412109" xlink:href="#DejaVuSans-48"/>
      </g>
     </g>
    </g>
    <g id="ytick_2">
     <g id="line2d_8">
      <g>
       <use style="stroke:#000000;stroke-width:0.8;" x="35.304688" xlink:href="#md33e76192c" y="220.315909"/>
      </g>
     </g>
     <g id="text_9">
      <!-- 0 -->
      <g transform="translate(21.942188 224.115128)scale(0.1 -0.1)">
       <use xlink:href="#DejaVuSans-48"/>
      </g>
     </g>
    </g>
    <g id="ytick_3">
     <g id="line2d_9">
      <g>
       <use style="stroke:#000000;stroke-width:0.8;" x="35.304688" xlink:href="#md33e76192c" y="166.705657"/>
      </g>
     </g>
     <g id="text_10">
      <!-- 50 -->
      <g transform="translate(15.579688 170.504875)scale(0.1 -0.1)">
       <use xlink:href="#DejaVuSans-53"/>
       <use x="63.623047" xlink:href="#DejaVuSans-48"/>
      </g>
     </g>
    </g>
    <g id="ytick_4">
     <g id="line2d_10">
      <g>
       <use style="stroke:#000000;stroke-width:0.8;" x="35.304688" xlink:href="#md33e76192c" y="113.095404"/>
      </g>
     </g>
     <g id="text_11">
      <!-- 100 -->
      <g transform="translate(9.217188 116.894623)scale(0.1 -0.1)">
       <use xlink:href="#DejaVuSans-49"/>
       <use x="63.623047" xlink:href="#DejaVuSans-48"/>
       <use x="127.246094" xlink:href="#DejaVuSans-48"/>
      </g>
     </g>
    </g>
    <g id="ytick_5">
     <g id="line2d_11">
      <g>
       <use style="stroke:#000000;stroke-width:0.8;" x="35.304688" xlink:href="#md33e76192c" y="59.485152"/>
      </g>
     </g>
     <g id="text_12">
      <!-- 150 -->
      <g transform="translate(9.217188 63.284371)scale(0.1 -0.1)">
       <use xlink:href="#DejaVuSans-49"/>
       <use x="63.623047" xlink:href="#DejaVuSans-53"/>
       <use x="127.246094" xlink:href="#DejaVuSans-48"/>
      </g>
     </g>
    </g>
   </g>
   <g id="line2d_12">
    <path clip-path="url(#p71098ed4e0)" d="M 35.69339 266.645455 
L 35.69339 19.554545 
" style="fill:none;stroke:#1f77b4;stroke-linecap:square;"/>
   </g>
   <g id="line2d_13">
    <path clip-path="url(#p71098ed4e0)" d="M 85.835953 266.645455 
L 85.835953 19.554545 
" style="fill:none;stroke:#ff7f0e;stroke-linecap:square;"/>
   </g>
   <g id="line2d_14">
    <path clip-path="url(#p71098ed4e0)" d="M 117.320818 266.645455 
L 117.320818 19.554545 
" style="fill:none;stroke:#2ca02c;stroke-linecap:square;"/>
   </g>
   <g id="line2d_15">
    <path clip-path="url(#p71098ed4e0)" d="M 149.583088 266.645455 
L 149.583088 19.554545 
" style="fill:none;stroke:#d62728;stroke-linecap:square;"/>
   </g>
   <g id="line2d_16">
    <path clip-path="url(#p71098ed4e0)" d="M 181.067953 266.645455 
L 181.067953 19.554545 
" style="fill:none;stroke:#9467bd;stroke-linecap:square;"/>
   </g>
   <g id="line2d_17">
    <path clip-path="url(#p71098ed4e0)" d="M 212.164116 266.645455 
L 212.164116 19.554545 
" style="fill:none;stroke:#8c564b;stroke-linecap:square;"/>
   </g>
   <g id="line2d_18">
    <path clip-path="url(#p71098ed4e0)" d="M 243.260279 266.645455 
L 243.260279 19.554545 
" style="fill:none;stroke:#e377c2;stroke-linecap:square;"/>
   </g>
   <g id="line2d_19">
    <path clip-path="url(#p71098ed4e0)" d="M 275.133847 266.645455 
L 275.133847 19.554545 
" style="fill:none;stroke:#7f7f7f;stroke-linecap:square;"/>
   </g>
   <g id="line2d_20">
    <path clip-path="url(#p71098ed4e0)" d="M 306.23001 266.645455 
L 306.23001 19.554545 
" style="fill:none;stroke:#bcbd22;stroke-linecap:square;"/>
   </g>
   <g id="line2d_21">
    <path clip-path="url(#p71098ed4e0)" d="M 337.326173 266.645455 
L 337.326173 19.554545 
" style="fill:none;stroke:#17becf;stroke-linecap:square;"/>
   </g>
   <g id="line2d_22">
    <path clip-path="url(#p71098ed4e0)" d="M 368.422336 266.645455 
L 368.422336 19.554545 
" style="fill:none;stroke:#1f77b4;stroke-linecap:square;"/>
   </g>
   <g id="line2d_23">
    <path clip-path="url(#p71098ed4e0)" d="M 400.684606 266.645455 
L 400.684606 19.554545 
" style="fill:none;stroke:#ff7f0e;stroke-linecap:square;"/>
   </g>
   <g id="line2d_24">
    <path clip-path="url(#p71098ed4e0)" d="M 431.780769 266.645455 
L 431.780769 19.554545 
" style="fill:none;stroke:#2ca02c;stroke-linecap:square;"/>
   </g>
   <g id="line2d_25">
    <path clip-path="url(#p71098ed4e0)" d="M 462.876932 266.645455 
L 462.876932 19.554545 
" style="fill:none;stroke:#d62728;stroke-linecap:square;"/>
   </g>
   <g id="line2d_26">
    <path clip-path="url(#p71098ed4e0)" d="M 493.973096 266.645455 
L 493.973096 19.554545 
" style="fill:none;stroke:#9467bd;stroke-linecap:square;"/>
   </g>
   <g id="line2d_27">
    <path clip-path="url(#p71098ed4e0)" d="M 525.457961 266.645455 
L 525.457961 19.554545 
" style="fill:none;stroke:#8c564b;stroke-linecap:square;"/>
   </g>
   <g id="line2d_28">
    <path clip-path="url(#p71098ed4e0)" d="M 555.388018 266.645455 
L 555.388018 19.554545 
" style="fill:none;stroke:#e377c2;stroke-linecap:square;"/>
   </g>
   <g id="line2d_29">
    <path clip-path="url(#p71098ed4e0)" d="M 587.261585 266.645455 
L 587.261585 19.554545 
" style="fill:none;stroke:#7f7f7f;stroke-linecap:square;"/>
   </g>
   <g id="line2d_30">
    <path clip-path="url(#p71098ed4e0)" d="M 618.746451 266.645455 
L 618.746451 19.554545 
" style="fill:none;stroke:#bcbd22;stroke-linecap:square;"/>
   </g>
   <g id="line2d_31">
    <path clip-path="url(#p71098ed4e0)" d="M 649.453912 266.645455 
L 649.453912 19.554545 
" style="fill:none;stroke:#17becf;stroke-linecap:square;"/>
   </g>
   <g id="line2d_32">
    <path clip-path="url(#p71098ed4e0)" d="M 681.716181 266.645455 
L 681.716181 19.554545 
" style="fill:none;stroke:#1f77b4;stroke-linecap:square;"/>
   </g>
   <g id="line2d_33">
    <path clip-path="url(#p71098ed4e0)" d="M 712.034941 266.645455 
L 712.034941 19.554545 
" style="fill:none;stroke:#ff7f0e;stroke-linecap:square;"/>
   </g>
   <g id="line2d_34">
    <path clip-path="url(#p71098ed4e0)" style="fill:none;stroke:#2ca02c;stroke-linecap:square;"/>
   </g>
   <g id="line2d_35">
    <path clip-path="url(#p71098ed4e0)" style="fill:none;stroke:#d62728;stroke-linecap:square;"/>
   </g>
   <g id="line2d_36">
    <path clip-path="url(#p71098ed4e0)" style="fill:none;stroke:#9467bd;stroke-linecap:square;"/>
   </g>
   <g id="line2d_37">
    <path clip-path="url(#p71098ed4e0)" style="fill:none;stroke:#8c564b;stroke-linecap:square;"/>
   </g>
   <g id="line2d_38">
    <path clip-path="url(#p71098ed4e0)" style="fill:none;stroke:#e377c2;stroke-linecap:square;"/>
   </g>
   <g id="line2d_39">
    <path clip-path="url(#p71098ed4e0)" style="fill:none;stroke:#7f7f7f;stroke-linecap:square;"/>
   </g>
   <g id="line2d_40">
    <path clip-path="url(#p71098ed4e0)" style="fill:none;stroke:#bcbd22;stroke-linecap:square;"/>
   </g>
   <g id="line2d_41">
    <path clip-path="url(#p71098ed4e0)" style="fill:none;stroke:#17becf;stroke-linecap:square;"/>
   </g>
   <g id="line2d_42">
    <path clip-path="url(#p71098ed4e0)" style="fill:none;stroke:#1f77b4;stroke-linecap:square;"/>
   </g>
   <g id="line2d_43">
    <path clip-path="url(#p71098ed4e0)" style="fill:none;stroke:#ff7f0e;stroke-linecap:square;"/>
   </g>
   <g id="line2d_44">
    <path clip-path="url(#p71098ed4e0)" style="fill:none;stroke:#2ca02c;stroke-linecap:square;"/>
   </g>
   <g id="line2d_45">
    <path clip-path="url(#p71098ed4e0)" style="fill:none;stroke:#d62728;stroke-linecap:square;"/>
   </g>
   <g id="line2d_46">
    <path clip-path="url(#p71098ed4e0)" style="fill:none;stroke:#9467bd;stroke-linecap:square;"/>
   </g>
   <g id="line2d_47">
    <path clip-path="url(#p71098ed4e0)" style="fill:none;stroke:#8c564b;stroke-linecap:square;"/>
   </g>
   <g id="line2d_48">
    <path clip-path="url(#p71098ed4e0)" style="fill:none;stroke:#e377c2;stroke-linecap:square;"/>
   </g>
   <g id="line2d_49">
    <path clip-path="url(#p71098ed4e0)" style="fill:none;stroke:#7f7f7f;stroke-linecap:square;"/>
   </g>
   <g id="line2d_50">
    <path clip-path="url(#p71098ed4e0)" style="fill:none;stroke:#bcbd22;stroke-linecap:square;"/>
   </g>
   <g id="line2d_51">
    <path clip-path="url(#p71098ed4e0)" style="fill:none;stroke:#17becf;stroke-linecap:square;"/>
   </g>
   <g id="line2d_52">
    <path clip-path="url(#p71098ed4e0)" style="fill:none;stroke:#1f77b4;stroke-linecap:square;"/>
   </g>
   <g id="line2d_53">
    <path clip-path="url(#p71098ed4e0)" style="fill:none;stroke:#ff7f0e;stroke-linecap:square;"/>
   </g>
   <g id="line2d_54">
    <path clip-path="url(#p71098ed4e0)" style="fill:none;stroke:#2ca02c;stroke-linecap:square;"/>
   </g>
   <g id="line2d_55">
    <path clip-path="url(#p71098ed4e0)" style="fill:none;stroke:#d62728;stroke-linecap:square;"/>
   </g>
   <g id="line2d_56">
    <path clip-path="url(#p71098ed4e0)" style="fill:none;stroke:#9467bd;stroke-linecap:square;"/>
   </g>
   <g id="line2d_57">
    <path clip-path="url(#p71098ed4e0)" style="fill:none;stroke:#8c564b;stroke-linecap:square;"/>
   </g>
   <g id="line2d_58">
    <path clip-path="url(#p71098ed4e0)" style="fill:none;stroke:#e377c2;stroke-linecap:square;"/>
   </g>
   <g id="line2d_59">
    <path clip-path="url(#p71098ed4e0)" style="fill:none;stroke:#7f7f7f;stroke-linecap:square;"/>
   </g>
   <g id="line2d_60">
    <path clip-path="url(#p71098ed4e0)" style="fill:none;stroke:#bcbd22;stroke-linecap:square;"/>
   </g>
   <g id="line2d_61">
    <path clip-path="url(#p71098ed4e0)" style="fill:none;stroke:#17becf;stroke-linecap:square;"/>
   </g>
   <g id="line2d_62">
    <path clip-path="url(#p71098ed4e0)" style="fill:none;stroke:#1f77b4;stroke-linecap:square;"/>
   </g>
   <g id="line2d_63">
    <path clip-path="url(#p71098ed4e0)" style="fill:none;stroke:#ff7f0e;stroke-linecap:square;"/>
   </g>
   <g id="line2d_64">
    <path clip-path="url(#p71098ed4e0)" style="fill:none;stroke:#2ca02c;stroke-linecap:square;"/>
   </g>
   <g id="line2d_65">
    <path clip-path="url(#p71098ed4e0)" style="fill:none;stroke:#d62728;stroke-linecap:square;"/>
   </g>
   <g id="line2d_66">
    <path clip-path="url(#p71098ed4e0)" style="fill:none;stroke:#9467bd;stroke-linecap:square;"/>
   </g>
   <g id="line2d_67">
    <path clip-path="url(#p71098ed4e0)" style="fill:none;stroke:#8c564b;stroke-linecap:square;"/>
   </g>
   <g id="line2d_68">
    <path clip-path="url(#p71098ed4e0)" style="fill:none;stroke:#e377c2;stroke-linecap:square;"/>
   </g>
   <g id="line2d_69">
    <path clip-path="url(#p71098ed4e0)" style="fill:none;stroke:#7f7f7f;stroke-linecap:square;"/>
   </g>
   <g id="line2d_70">
    <path clip-path="url(#p71098ed4e0)" style="fill:none;stroke:#bcbd22;stroke-linecap:square;"/>
   </g>
   <g id="line2d_71">
    <path clip-path="url(#p71098ed4e0)" style="fill:none;stroke:#17becf;stroke-linecap:square;"/>
   </g>
   <g id="line2d_72">
    <path clip-path="url(#p71098ed4e0)" style="fill:none;stroke:#1f77b4;stroke-linecap:square;"/>
   </g>
   <g id="line2d_73">
    <path clip-path="url(#p71098ed4e0)" style="fill:none;stroke:#ff7f0e;stroke-linecap:square;"/>
   </g>
   <g id="line2d_74">
    <path clip-path="url(#p71098ed4e0)" style="fill:none;stroke:#2ca02c;stroke-linecap:square;"/>
   </g>
   <g id="line2d_75">
    <path clip-path="url(#p71098ed4e0)" style="fill:none;stroke:#d62728;stroke-linecap:square;"/>
   </g>
   <g id="line2d_76">
    <path clip-path="url(#p71098ed4e0)" d="M 35.304688 220.307458 
L 35.69339 220.282666 
L 36.082092 220.133898 
L 36.470794 219.653158 
L 36.859496 216.544973 
L 37.248198 198.265506 
L 38.025602 117.252717 
L 38.414304 75.811818 
L 38.803006 65.884091 
L 39.191708 88.661285 
L 39.969112 167.608656 
L 40.357814 190.501282 
L 40.746516 202.222713 
L 41.135218 209.249775 
L 41.52392 210.347324 
L 41.912622 210.258789 
L 42.301324 213.386822 
L 42.690026 214.324775 
L 43.078728 212.97285 
L 43.46743 210.74599 
L 43.856132 209.625453 
L 44.244834 209.640665 
L 45.022239 215.549803 
L 45.410941 214.71866 
L 45.799643 215.923024 
L 46.188345 215.769701 
L 46.577047 217.201819 
L 46.965749 217.615519 
L 47.354451 217.357038 
L 47.743153 216.660551 
L 48.131855 216.546843 
L 48.520557 215.821466 
L 48.909259 214.595882 
L 49.297961 214.409657 
L 50.075365 213.172836 
L 50.852769 208.108 
L 51.241471 209.386883 
L 52.018875 215.725483 
L 52.407577 217.266208 
L 52.796279 217.143693 
L 53.184981 216.81284 
L 53.573683 213.42382 
L 54.73979 143.872621 
L 55.128492 139.021126 
L 55.517194 154.839869 
L 55.905896 182.907508 
L 56.294598 199.021694 
L 56.6833 206.470321 
L 57.072002 211.194089 
L 57.460704 210.910636 
L 57.849406 209.78543 
L 58.238108 210.090262 
L 58.62681 212.653967 
L 59.015512 209.862123 
L 59.404214 209.569006 
L 59.792916 216.000349 
L 60.181618 215.832434 
L 60.57032 213.034794 
L 60.959022 214.393597 
L 61.347724 216.893123 
L 61.736426 217.178392 
L 62.51383 217.367981 
L 62.902532 216.790299 
L 63.291234 216.665202 
L 64.068639 218.239041 
L 64.457341 218.584067 
L 65.234745 216.606651 
L 65.623447 216.943373 
L 66.012149 216.798995 
L 66.400851 217.216142 
L 67.566957 217.50473 
L 67.955659 218.036183 
L 68.344361 217.766938 
L 68.733063 217.283625 
L 69.510467 217.377018 
L 69.899169 218.123428 
L 70.287871 217.03071 
L 71.453977 199.591354 
L 71.842679 202.429841 
L 72.620083 215.147637 
L 73.008785 216.736912 
L 74.174892 215.446244 
L 74.563594 215.683709 
L 75.340998 216.910161 
L 75.7297 217.94737 
L 76.118402 216.545728 
L 76.507104 215.98043 
L 76.895806 215.74905 
L 77.284508 215.836057 
L 77.67321 216.106015 
L 78.450614 218.397316 
L 78.839316 218.233821 
L 79.228018 218.364851 
L 79.61672 217.979723 
L 80.394124 215.132703 
L 80.782826 213.349274 
L 81.171528 212.232317 
L 81.56023 212.626713 
L 81.948932 214.52421 
L 82.726336 216.404375 
L 83.115039 216.893107 
L 83.503741 215.959935 
L 83.892443 212.616398 
L 84.281145 206.776772 
L 84.669847 190.142252 
L 85.447251 125.362949 
L 85.835953 109.463156 
L 86.224655 112.132701 
L 87.002059 167.654817 
L 88.168165 207.699086 
L 88.556867 213.841078 
L 88.945569 216.608242 
L 89.334271 215.78931 
L 89.722973 211.123742 
L 90.111675 211.98333 
L 90.500377 215.004942 
L 90.889079 216.452792 
L 91.277781 217.073791 
L 91.666483 215.38629 
L 92.443888 207.496273 
L 92.83259 211.024527 
L 93.221292 215.666661 
L 93.609994 217.241312 
L 93.998696 217.541546 
L 94.387398 218.247501 
L 94.7761 218.605778 
L 95.164802 218.61652 
L 95.942206 217.436451 
L 96.330908 217.622427 
L 96.71961 218.28417 
L 97.108312 218.484424 
L 97.497014 216.359021 
L 97.885716 216.179756 
L 98.274418 214.646953 
L 98.66312 215.068431 
L 99.051822 216.51801 
L 99.829226 218.1258 
L 100.217928 217.158713 
L 100.60663 215.189931 
L 100.995332 209.906829 
L 101.772736 195.672491 
L 102.161439 194.248663 
L 102.550141 197.233334 
L 103.327545 215.501209 
L 103.716247 217.849647 
L 104.104949 218.37374 
L 104.493651 216.806972 
L 104.882353 217.072795 
L 105.271055 215.574881 
L 106.437161 216.216761 
L 106.825863 217.27523 
L 107.214565 217.969292 
L 107.603267 216.055928 
L 107.991969 215.534169 
L 108.380671 213.88055 
L 108.769373 215.869338 
L 109.158075 215.764492 
L 109.546777 216.205746 
L 109.935479 217.289368 
L 110.324181 216.93287 
L 110.712883 216.989372 
L 111.101585 216.251155 
L 111.87899 213.948166 
L 112.267692 215.839014 
L 112.656394 215.671764 
L 113.045096 216.752064 
L 113.433798 216.23433 
L 113.8225 216.172174 
L 114.211202 215.466585 
L 114.599904 214.235783 
L 114.988606 214.904307 
L 115.377308 215.093161 
L 115.76601 212.326768 
L 116.154712 194.103494 
L 116.932116 112.272157 
L 117.320818 94.016664 
L 117.70952 103.804195 
L 118.486924 178.456044 
L 118.875626 196.565773 
L 119.264328 205.873699 
L 119.65303 212.057922 
L 120.041732 214.898491 
L 120.430434 216.163865 
L 120.819136 216.567283 
L 121.207839 216.417357 
L 121.596541 215.160054 
L 121.985243 210.615937 
L 122.373945 204.42354 
L 122.762647 206.04303 
L 123.151349 212.120746 
L 123.540051 214.294185 
L 123.928753 214.305389 
L 124.317455 214.45399 
L 124.706157 212.960807 
L 125.094859 213.899579 
L 125.483561 216.262633 
L 125.872263 217.528333 
L 126.260965 218.026153 
L 126.649667 217.908916 
L 127.038369 217.644167 
L 127.427071 217.172118 
L 127.815773 217.078598 
L 128.204475 217.385106 
L 128.593177 217.905075 
L 128.981879 217.578516 
L 129.370581 216.069412 
L 130.147985 214.885724 
L 130.536688 215.568669 
L 130.92539 217.227128 
L 131.702794 219.129706 
L 132.091496 218.08469 
L 133.257602 186.810005 
L 133.646304 184.828423 
L 134.423708 205.84514 
L 134.81241 208.836622 
L 135.201112 207.641996 
L 135.589814 206.980206 
L 135.978516 207.343357 
L 136.367218 208.7289 
L 136.75592 210.81243 
L 137.533324 211.626211 
L 137.922026 214.086319 
L 138.310728 214.865216 
L 138.69943 215.388508 
L 139.088132 214.532309 
L 139.476834 217.122123 
L 139.865536 218.513481 
L 140.254239 217.851129 
L 140.642941 218.938153 
L 141.031643 218.372647 
L 141.420345 217.40309 
L 141.809047 215.746265 
L 142.197749 213.025771 
L 142.586451 213.695868 
L 143.363855 217.772012 
L 143.752557 218.353691 
L 144.141259 215.844468 
L 144.529961 210.061052 
L 144.918663 208.146492 
L 145.307365 209.885249 
L 145.696067 213.329639 
L 146.084769 215.505558 
L 146.473471 216.347156 
L 146.862173 216.596199 
L 147.639577 215.311266 
L 148.028279 198.799094 
L 149.194385 84.118646 
L 149.583088 79.939497 
L 150.360492 156.208301 
L 150.749194 185.318849 
L 151.137896 204.134053 
L 151.526598 212.492297 
L 151.9153 216.762979 
L 152.304002 216.588723 
L 152.692704 216.838361 
L 153.081406 216.746607 
L 153.470108 217.827799 
L 153.85881 215.561852 
L 154.247512 214.603947 
L 154.636214 215.775575 
L 155.024916 214.974713 
L 155.413618 214.687583 
L 155.80232 216.691735 
L 156.579724 216.075448 
L 157.357128 212.507652 
L 157.74583 212.081603 
L 158.523234 216.555637 
L 158.911936 217.306619 
L 159.300639 217.525726 
L 159.689341 218.590887 
L 160.078043 217.790169 
L 160.466745 217.747333 
L 160.855447 217.297078 
L 161.244149 217.335793 
L 161.632851 217.947933 
L 162.021553 218.02193 
L 162.410255 217.942032 
L 162.798957 217.72414 
L 163.187659 216.445433 
L 163.965063 194.185385 
L 164.742467 161.636899 
L 165.131169 165.552889 
L 165.519871 171.750481 
L 166.297275 191.940432 
L 167.074679 205.392437 
L 168.240785 213.74943 
L 169.01819 217.227021 
L 169.406892 217.783517 
L 169.795594 216.098748 
L 170.184296 215.286984 
L 170.572998 215.643992 
L 170.9617 215.678432 
L 171.739104 217.337201 
L 172.127806 216.691797 
L 172.516508 215.406079 
L 173.293912 215.386862 
L 173.682614 216.314713 
L 174.071316 216.609066 
L 174.84872 214.512548 
L 175.626124 216.9192 
L 176.014826 216.91046 
L 176.79223 217.263137 
L 177.180932 216.486771 
L 177.569634 214.759014 
L 177.958336 211.782826 
L 179.124443 198.145869 
L 179.513145 196.296343 
L 179.901847 187.975567 
L 180.290549 174.692765 
L 180.679251 157.521637 
L 181.067953 148.635146 
L 181.456655 161.749331 
L 181.845357 181.677165 
L 183.011463 210.624766 
L 183.400165 214.941207 
L 183.788867 213.735775 
L 184.177569 213.860119 
L 184.566271 213.061489 
L 184.954973 210.779886 
L 185.343675 211.917258 
L 185.732377 212.67163 
L 186.121079 211.272357 
L 186.898483 217.218051 
L 187.287185 216.765208 
L 188.06459 217.938028 
L 188.453292 218.360158 
L 188.841994 217.00034 
L 189.619398 217.295788 
L 190.396802 216.978623 
L 190.785504 216.493221 
L 191.174206 216.442955 
L 191.95161 217.519574 
L 192.729014 216.632204 
L 193.506418 216.802743 
L 193.89512 216.660366 
L 194.283822 218.23811 
L 194.672524 218.68248 
L 195.061226 218.187958 
L 195.449928 217.378311 
L 195.83863 211.827176 
L 196.616034 196.801348 
L 197.004736 194.044568 
L 198.170843 212.297667 
L 198.559545 214.943709 
L 198.948247 214.576702 
L 199.336949 216.819634 
L 199.725651 216.520764 
L 200.114353 215.519402 
L 200.503055 215.237313 
L 200.891757 217.040452 
L 201.280459 217.562805 
L 201.669161 217.543876 
L 202.446565 213.642301 
L 202.835267 213.28493 
L 203.612671 211.545745 
L 204.001373 212.535177 
L 204.390075 213.141174 
L 204.778777 213.264683 
L 205.167479 213.82787 
L 205.944883 217.380756 
L 207.499692 214.965495 
L 207.888394 214.57745 
L 208.277096 212.39419 
L 209.0545 203.329768 
L 209.443202 197.837901 
L 209.831904 195.223781 
L 210.220606 196.428203 
L 210.609308 195.103565 
L 210.99801 171.622678 
L 211.775414 105.873572 
L 212.164116 96.653078 
L 212.552818 116.488229 
L 213.330222 186.714559 
L 213.718924 201.514881 
L 214.496328 215.789434 
L 214.88503 213.671767 
L 215.662434 217.693083 
L 216.051136 218.248868 
L 216.828541 207.285902 
L 217.994647 216.556935 
L 218.383349 217.768955 
L 218.772051 217.785313 
L 219.160753 216.546987 
L 219.549455 213.381442 
L 219.938157 214.171831 
L 220.326859 213.429585 
L 220.715561 214.392619 
L 221.104263 216.518858 
L 221.492965 217.323791 
L 221.881667 217.26644 
L 222.270369 217.796985 
L 222.659071 218.99229 
L 223.047773 218.697558 
L 223.436475 217.354171 
L 223.825177 217.087623 
L 224.213879 217.343135 
L 224.602581 218.202476 
L 224.991283 218.39517 
L 225.379985 216.780626 
L 225.768688 216.678975 
L 226.15739 216.822629 
L 226.546092 213.992724 
L 227.323496 192.185785 
L 227.712198 185.043831 
L 228.1009 189.529583 
L 228.878304 210.262111 
L 229.267006 214.477692 
L 229.655708 214.609832 
L 230.04441 215.074584 
L 230.821814 217.525598 
L 231.210516 217.979577 
L 231.98792 217.688999 
L 232.376622 218.883738 
L 232.765324 219.347523 
L 233.154026 218.97842 
L 233.542728 218.940656 
L 233.93143 218.606658 
L 234.708834 217.144715 
L 235.097536 215.412419 
L 235.486239 214.7537 
L 236.652345 217.252979 
L 237.041047 217.369934 
L 237.429749 216.562585 
L 237.818451 216.461262 
L 238.207153 215.567123 
L 238.595855 213.942107 
L 238.984557 214.334163 
L 239.373259 215.279706 
L 239.761961 217.079443 
L 240.150663 218.245677 
L 240.539365 218.468822 
L 240.928067 218.269574 
L 241.316769 216.12407 
L 241.705471 212.208484 
L 242.094173 198.407945 
L 242.871577 114.023898 
L 243.260279 90.240655 
L 243.648981 96.002027 
L 244.426385 179.739641 
L 244.815088 196.520163 
L 245.20379 205.819071 
L 245.592492 211.829798 
L 245.981194 212.386734 
L 246.758598 207.422093 
L 247.924704 217.018066 
L 248.313406 210.363016 
L 249.09081 204.393864 
L 249.479512 205.988052 
L 249.868214 211.73216 
L 250.256916 213.714132 
L 250.645618 215.0971 
L 251.03432 214.673845 
L 251.423022 213.104891 
L 251.811724 213.676824 
L 252.589128 217.741636 
L 252.97783 218.407999 
L 253.366532 217.775749 
L 254.143936 217.325493 
L 254.532639 215.464432 
L 254.921341 215.645085 
L 255.698745 217.966542 
L 256.087447 218.035307 
L 256.476149 217.71917 
L 256.864851 217.685797 
L 257.642255 218.496976 
L 258.030957 217.369634 
L 259.585765 186.804826 
L 259.974467 192.683509 
L 260.751871 211.842405 
L 261.140573 215.299364 
L 261.529275 212.591287 
L 261.917977 208.669454 
L 262.306679 208.275223 
L 262.695381 208.592074 
L 263.084083 210.111499 
L 263.472785 209.434425 
L 263.861488 207.767524 
L 264.25019 208.855427 
L 264.638892 205.638308 
L 265.027594 213.323567 
L 265.416296 216.390542 
L 265.804998 215.292325 
L 266.1937 218.114719 
L 266.582402 218.944799 
L 267.748508 214.938911 
L 268.13721 214.758052 
L 268.525912 215.40754 
L 268.914614 215.712205 
L 269.692018 217.132874 
L 270.08072 217.513838 
L 270.469422 218.245947 
L 270.858124 217.663857 
L 271.246826 217.897163 
L 271.635528 217.458192 
L 272.412932 213.210177 
L 273.190336 210.133712 
L 273.579039 205.874002 
L 273.967741 172.613312 
L 274.745145 88.894509 
L 275.133847 76.518169 
L 275.522549 104.384125 
L 276.299953 182.029554 
L 276.688655 199.44266 
L 277.077357 210.626677 
L 277.466059 216.220261 
L 277.854761 216.501915 
L 278.243463 216.9392 
L 278.632165 218.801346 
L 279.020867 219.413273 
L 279.409569 213.950838 
L 279.798271 212.529481 
L 280.186973 211.581567 
L 280.575675 214.023039 
L 280.964377 217.630055 
L 281.353079 218.338146 
L 281.741781 218.290516 
L 282.130483 218.057542 
L 282.907888 213.676048 
L 283.29659 212.999862 
L 283.685292 212.673373 
L 284.073994 214.514154 
L 284.462696 217.083895 
L 284.851398 218.226335 
L 285.2401 218.698673 
L 285.628802 218.85399 
L 286.406206 217.650329 
L 287.18361 218.051524 
L 287.572312 218.808717 
L 287.961014 218.772004 
L 288.349716 218.19712 
L 288.738418 215.097703 
L 289.12712 210.748436 
L 289.515822 207.706271 
L 289.904524 203.644662 
L 291.07063 161.107474 
L 291.459332 158.649345 
L 292.236736 187.869612 
L 292.625439 199.065006 
L 293.014141 206.07222 
L 293.402843 210.768326 
L 293.791545 213.363361 
L 294.180247 214.478644 
L 294.568949 214.736283 
L 296.123757 216.914979 
L 296.512459 216.080373 
L 297.289863 213.490971 
L 297.678565 213.776344 
L 298.067267 214.264792 
L 298.844671 217.485003 
L 299.233373 217.650777 
L 299.622075 217.584492 
L 300.788181 215.262917 
L 301.565585 216.823791 
L 302.34299 219.188537 
L 302.731692 218.51571 
L 303.120394 212.996984 
L 303.509096 204.625328 
L 303.897798 199.872326 
L 304.2865 197.739797 
L 304.675202 202.198349 
L 305.063904 203.321758 
L 305.452606 188.696498 
L 305.841308 169.635569 
L 306.23001 157.659472 
L 306.618712 163.47797 
L 307.396116 190.335498 
L 308.17352 202.813442 
L 309.339626 212.704033 
L 309.728328 214.381295 
L 310.11703 214.53158 
L 310.505732 210.073023 
L 310.894434 208.281738 
L 311.283136 214.254937 
L 311.671839 215.788633 
L 312.060541 214.024248 
L 312.449243 213.305982 
L 312.837945 212.96424 
L 313.226647 208.214145 
L 313.615349 214.36222 
L 314.004051 216.661332 
L 315.170157 215.697303 
L 315.947561 216.125329 
L 316.724965 217.687681 
L 317.113667 218.358281 
L 318.279773 216.276981 
L 318.668475 216.525585 
L 319.834581 218.28757 
L 320.223283 218.473245 
L 320.611985 217.732054 
L 321.000688 212.32226 
L 321.778092 195.682103 
L 322.166794 192.832722 
L 322.555496 197.280929 
L 323.3329 216.003767 
L 323.721602 217.109329 
L 324.110304 215.34802 
L 324.499006 215.086561 
L 324.887708 215.980725 
L 325.27641 216.272636 
L 325.665112 217.092941 
L 326.442516 216.713009 
L 326.831218 216.71761 
L 327.997324 213.874126 
L 328.386026 214.174573 
L 328.774728 215.307685 
L 329.16343 217.39564 
L 329.552132 217.54364 
L 330.329536 213.888594 
L 331.106941 215.234836 
L 331.495643 215.856133 
L 332.273047 218.021782 
L 333.050451 216.454315 
L 333.439153 215.87654 
L 333.827855 214.577543 
L 334.216557 215.888543 
L 334.605259 216.179206 
L 334.993961 214.692754 
L 335.382663 209.520037 
L 335.771365 201.422175 
L 336.160067 169.679675 
L 336.548769 116.737807 
L 336.937471 83.047083 
L 337.326173 68.081236 
L 337.714875 92.481658 
L 338.103577 147.436925 
L 338.492279 185.372042 
L 338.880981 203.704426 
L 339.269683 212.386341 
L 339.658385 217.253442 
L 340.047088 216.688712 
L 340.43579 213.469474 
L 340.824492 212.050686 
L 341.213194 213.868742 
L 341.601896 216.398367 
L 341.990598 216.852847 
L 342.3793 215.184047 
L 342.768002 214.777838 
L 343.156704 215.849383 
L 343.934108 213.496895 
L 344.32281 213.87279 
L 344.711512 215.903153 
L 345.488916 218.413709 
L 345.877618 219.750891 
L 346.26632 219.10317 
L 346.655022 216.793747 
L 347.043724 215.437492 
L 347.432426 215.541196 
L 347.821128 217.017641 
L 348.20983 217.642934 
L 348.598532 217.83664 
L 348.987234 218.466991 
L 349.375936 218.319449 
L 350.542043 216.521676 
L 351.319447 216.600385 
L 351.708149 214.373645 
L 352.485553 196.970464 
L 352.874255 191.134419 
L 353.262957 190.026997 
L 354.429063 214.902063 
L 354.817765 217.134267 
L 355.206467 218.222735 
L 355.595169 218.446419 
L 355.983871 217.554924 
L 356.372573 217.396067 
L 357.149977 218.760549 
L 357.538679 219.215078 
L 357.927381 218.330008 
L 358.316083 216.96443 
L 358.704785 216.043272 
L 359.093488 215.903195 
L 359.48219 214.829793 
L 359.870892 214.695487 
L 360.259594 213.283159 
L 360.648296 214.470358 
L 361.036998 214.597382 
L 361.4257 215.126748 
L 361.814402 216.405202 
L 362.203104 216.988046 
L 362.591806 219.123112 
L 362.980508 218.747374 
L 363.36921 217.321372 
L 363.757912 214.739016 
L 364.146614 213.115709 
L 364.924018 214.195262 
L 365.31272 213.023042 
L 365.701422 211.413129 
L 366.090124 211.764462 
L 366.867528 214.141464 
L 367.25623 201.926629 
L 368.422336 109.106758 
L 368.811039 110.237044 
L 369.588443 168.514516 
L 369.977145 188.531578 
L 370.754549 208.403689 
L 371.920655 215.615816 
L 372.309357 215.56639 
L 372.698059 213.15686 
L 373.086761 213.892216 
L 373.475463 214.971349 
L 373.864165 214.730748 
L 374.252867 214.315644 
L 375.030271 215.251473 
L 375.418973 215.294789 
L 376.196377 216.642998 
L 376.585079 217.344936 
L 377.362483 216.296226 
L 377.751185 215.060614 
L 378.139888 214.342517 
L 378.52859 214.133484 
L 378.917292 215.298574 
L 379.305994 217.114897 
L 379.694696 217.115582 
L 380.4721 211.159333 
L 380.860802 211.50848 
L 381.249504 214.678408 
L 381.638206 215.985334 
L 382.026908 215.582384 
L 382.41561 216.270785 
L 382.804312 217.764856 
L 383.193014 217.1632 
L 383.581716 215.293453 
L 384.747822 185.769259 
L 385.136524 181.200566 
L 386.691332 209.479382 
L 387.080034 210.66058 
L 387.468736 210.175258 
L 388.246141 207.720891 
L 388.634843 209.96657 
L 389.023545 211.055166 
L 389.412247 212.916778 
L 389.800949 215.902591 
L 390.189651 215.06704 
L 390.967055 215.904168 
L 391.355757 213.435561 
L 391.744459 213.530119 
L 392.133161 214.676659 
L 392.521863 215.168018 
L 392.910565 213.256505 
L 393.299267 212.202249 
L 393.687969 212.712445 
L 394.076671 215.84877 
L 394.465373 217.406684 
L 394.854075 217.375726 
L 395.242777 216.422349 
L 395.631479 216.164059 
L 396.408883 209.738229 
L 396.797585 213.217208 
L 397.186288 214.591306 
L 397.57499 213.387518 
L 397.963692 214.697994 
L 398.352394 216.630178 
L 398.741096 215.956169 
L 399.129798 210.602474 
L 399.5185 181.664755 
L 400.295904 99.114529 
L 400.684606 87.290709 
L 401.073308 116.130911 
L 401.46201 161.26692 
L 401.850712 193.401635 
L 402.239414 208.994114 
L 402.628116 217.729901 
L 403.016818 218.721324 
L 403.794222 217.266348 
L 404.182924 217.700442 
L 404.571626 216.995878 
L 404.960328 209.615785 
L 405.34903 208.969328 
L 405.737732 210.249151 
L 406.126434 213.14709 
L 406.515136 214.654905 
L 406.903839 214.975627 
L 407.292541 214.017185 
L 407.681243 214.518383 
L 408.069945 214.098051 
L 408.458647 214.698728 
L 408.847349 216.060114 
L 409.236051 216.891603 
L 409.624753 217.335551 
L 410.402157 215.930396 
L 411.568263 219.223225 
L 412.345667 216.907485 
L 412.734369 216.598798 
L 413.123071 216.808455 
L 413.511773 215.436817 
L 413.900475 214.905651 
L 414.289177 215.08637 
L 414.677879 209.257298 
L 415.066581 195.245134 
L 415.843985 162.274283 
L 416.232688 162.98736 
L 416.62139 173.437414 
L 417.398794 200.536653 
L 417.787496 207.973366 
L 418.176198 212.266757 
L 418.953602 215.286623 
L 419.342304 216.064575 
L 419.731006 215.284485 
L 420.119708 217.965467 
L 420.50841 217.998017 
L 420.897112 215.75633 
L 421.285814 214.58086 
L 421.674516 214.350296 
L 422.063218 214.593634 
L 422.45192 216.214612 
L 422.840622 216.510155 
L 423.229324 214.832815 
L 423.618026 214.479571 
L 424.006728 214.69688 
L 424.784132 216.838934 
L 425.172834 215.555702 
L 425.561536 215.187976 
L 425.950239 214.288824 
L 426.338941 214.651898 
L 426.727643 214.078432 
L 427.116345 211.816684 
L 427.505047 211.5161 
L 428.282451 214.085041 
L 428.671153 212.132079 
L 429.059855 212.51236 
L 429.448557 215.927 
L 429.837259 214.944524 
L 430.225961 208.343801 
L 431.003365 184.146206 
L 431.392067 166.445285 
L 431.780769 155.417766 
L 432.169471 159.878807 
L 433.724279 209.670037 
L 434.112981 215.701496 
L 434.501683 216.233473 
L 434.890385 213.72823 
L 435.279088 214.728082 
L 435.66779 214.160932 
L 436.056492 214.017811 
L 436.833896 210.209213 
L 437.222598 210.175683 
L 437.6113 211.65408 
L 438.000002 210.700643 
L 438.388704 209.382032 
L 438.777406 212.166855 
L 439.166108 212.038102 
L 439.943512 215.812629 
L 440.332214 216.652057 
L 440.720916 217.887298 
L 441.109618 217.348663 
L 441.49832 215.803857 
L 441.887022 213.741971 
L 442.275724 210.695026 
L 442.664426 208.715032 
L 443.053128 209.046995 
L 443.44183 209.666047 
L 443.830532 207.724238 
L 444.219234 204.144643 
L 444.607936 204.255362 
L 444.996639 206.564341 
L 445.385341 211.156601 
L 445.774043 214.217916 
L 446.162745 207.444253 
L 446.551447 190.404736 
L 447.328851 140.352098 
L 447.717553 129.62012 
L 448.106255 148.99448 
L 448.494957 178.39387 
L 448.883659 197.419653 
L 449.272361 208.520972 
L 449.661063 214.985459 
L 450.049765 216.441974 
L 450.438467 215.39291 
L 450.827169 214.898578 
L 451.215871 215.310331 
L 451.604573 213.752934 
L 452.381977 211.938199 
L 452.770679 211.502893 
L 453.159381 210.437611 
L 453.548083 213.856849 
L 453.936785 215.760061 
L 454.325488 215.258906 
L 454.71419 213.619422 
L 455.102892 216.235941 
L 455.491594 217.796853 
L 455.880296 216.871572 
L 456.268998 215.132799 
L 456.6577 215.847291 
L 457.046402 215.694567 
L 457.435104 216.557423 
L 457.823806 217.945435 
L 458.212508 214.902188 
L 458.989912 211.415358 
L 459.378614 212.188733 
L 459.767316 213.507568 
L 460.54472 207.15091 
L 460.933422 205.978206 
L 461.322124 206.77031 
L 461.710826 196.900594 
L 462.876932 136.180752 
L 463.265634 142.239581 
L 463.654336 159.630042 
L 464.043039 171.069113 
L 464.820443 202.154 
L 465.209145 210.150667 
L 465.597847 211.705829 
L 465.986549 212.456488 
L 466.375251 214.075068 
L 466.763953 213.862861 
L 467.152655 213.912257 
L 467.541357 211.588819 
L 467.930059 210.759809 
L 468.318761 211.994857 
L 469.096165 215.964275 
L 469.484867 216.511323 
L 469.873569 216.54962 
L 470.262271 214.197852 
L 470.650973 213.342553 
L 471.039675 213.058246 
L 471.428377 213.28935 
L 471.817079 208.735151 
L 472.205781 212.370094 
L 472.594483 213.387129 
L 472.983185 212.101179 
L 473.371888 213.763434 
L 473.76059 214.203136 
L 474.149292 209.830579 
L 474.537994 209.129502 
L 474.926696 215.132301 
L 475.315398 215.817538 
L 475.7041 216.054891 
L 476.092802 215.985628 
L 476.481504 213.945159 
L 476.870206 206.0876 
L 477.258908 187.839327 
L 478.036312 135.264759 
L 478.425014 137.44424 
L 479.59112 195.767101 
L 479.979822 200.398152 
L 480.368524 202.327398 
L 481.145928 214.958559 
L 481.53463 216.252128 
L 481.923332 214.808766 
L 482.312034 211.123424 
L 482.700736 209.154805 
L 483.089439 211.007153 
L 483.478141 216.18803 
L 483.866843 215.116457 
L 484.255545 214.698569 
L 485.032949 214.780385 
L 485.421651 211.301769 
L 485.810353 209.918924 
L 486.976459 213.995654 
L 487.365161 214.617252 
L 487.753863 213.77838 
L 488.142565 213.623771 
L 488.531267 212.600768 
L 488.919969 214.211641 
L 489.308671 214.746312 
L 489.697373 215.534174 
L 490.086075 215.516377 
L 490.474777 214.3748 
L 491.252181 205.327432 
L 491.640883 205.742388 
L 492.029585 205.444875 
L 492.418288 209.425407 
L 492.80699 201.907883 
L 493.973096 135.162642 
L 494.361798 140.961313 
L 494.7505 162.190845 
L 495.139202 176.630366 
L 495.527904 198.140514 
L 495.916606 209.414875 
L 496.305308 213.957 
L 496.69401 212.778956 
L 497.082712 214.420146 
L 497.471414 211.433314 
L 497.860116 209.362259 
L 498.248818 212.276714 
L 498.63752 209.435255 
L 499.026222 217.995885 
L 499.414924 217.1564 
L 499.803626 217.776711 
L 500.58103 213.805767 
L 500.969732 212.554218 
L 501.358434 212.551737 
L 501.747136 212.733563 
L 502.135839 211.62384 
L 502.524541 213.746849 
L 502.913243 211.611227 
L 503.301945 210.710405 
L 503.690647 211.806491 
L 504.079349 209.505897 
L 504.468051 210.774355 
L 504.856753 209.039815 
L 505.245455 208.457517 
L 506.022859 213.758942 
L 506.411561 212.128079 
L 506.800263 214.26923 
L 507.188965 214.920105 
L 507.577667 206.254391 
L 507.966369 193.695937 
L 508.355071 191.449793 
L 508.743773 175.947561 
L 509.132475 165.130546 
L 509.521177 160.464509 
L 509.909879 163.665438 
L 510.298581 180.60372 
L 510.687283 187.184542 
L 511.075985 197.053318 
L 512.242092 215.511062 
L 512.630794 217.295039 
L 513.019496 214.089446 
L 513.408198 207.908518 
L 513.7969 213.60758 
L 514.185602 210.522043 
L 514.574304 213.353575 
L 514.963006 214.19508 
L 515.351708 214.660204 
L 515.74041 212.084908 
L 516.129112 215.431471 
L 516.517814 217.123784 
L 516.906516 216.922196 
L 517.295218 215.014065 
L 517.68392 210.134318 
L 518.072622 215.520319 
L 518.461324 218.064181 
L 518.850026 216.784314 
L 519.238728 214.333014 
L 519.62743 214.172693 
L 520.016132 215.090828 
L 521.570941 205.916865 
L 521.959643 206.268973 
L 522.737047 214.640939 
L 523.125749 215.281186 
L 523.514451 212.774977 
L 524.291855 189.356764 
L 525.069259 153.600959 
L 525.457961 150.857145 
L 525.846663 158.133278 
L 526.624067 190.053018 
L 527.012769 192.77752 
L 528.178875 213.261342 
L 528.567577 215.675872 
L 528.956279 212.714147 
L 529.344981 212.67213 
L 529.733683 214.454094 
L 530.122385 213.93 
L 530.511088 214.245104 
L 530.89979 215.495814 
L 531.288492 215.845092 
L 531.677194 212.08463 
L 532.454598 177.306645 
L 532.8433 167.04649 
L 533.232002 165.812314 
L 534.009406 204.50168 
L 534.398108 212.973021 
L 534.78681 215.580521 
L 535.175512 210.617453 
L 535.564214 212.603479 
L 535.952916 212.863474 
L 536.341618 212.891675 
L 536.73032 213.849585 
L 537.119022 214.175801 
L 537.507724 213.049671 
L 537.896426 212.697541 
L 539.062532 194.091155 
L 539.451234 185.261793 
L 539.839936 162.435234 
L 540.228639 147.769706 
L 540.617341 144.636563 
L 541.006043 161.858899 
L 541.394745 194.056866 
L 541.783447 209.70664 
L 542.172149 212.842204 
L 542.560851 213.008632 
L 542.949553 214.196126 
L 543.338255 213.875111 
L 543.726957 215.410664 
L 544.115659 215.843865 
L 544.504361 215.143469 
L 544.893063 215.933664 
L 545.281765 216.351235 
L 545.670467 215.397194 
L 546.447871 217.180739 
L 546.836573 213.779695 
L 547.613977 178.914712 
L 548.002679 172.588557 
L 548.391381 174.033673 
L 549.168785 202.282872 
L 549.557488 208.769688 
L 549.94619 206.562838 
L 550.334892 207.823697 
L 550.723594 210.585476 
L 551.500998 214.011384 
L 551.8897 213.758688 
L 552.278402 214.56559 
L 552.667104 213.856829 
L 553.055806 214.733085 
L 553.444508 214.592292 
L 553.83321 211.987214 
L 554.221912 203.1764 
L 554.999316 180.531632 
L 555.388018 176.77058 
L 555.77672 179.059835 
L 556.165422 192.21405 
L 556.554124 200.351208 
L 556.942826 205.170129 
L 557.331528 205.743912 
L 557.72023 207.368793 
L 558.108932 212.74825 
L 558.497634 213.697312 
L 558.886336 208.49345 
L 559.275039 212.55042 
L 559.663741 210.498338 
L 560.052443 212.437981 
L 560.441145 215.823583 
L 560.829847 216.669139 
L 561.218549 216.361322 
L 561.607251 216.425661 
L 561.995953 212.563211 
L 562.384655 213.96621 
L 562.773357 212.933349 
L 563.162059 212.228448 
L 563.550761 214.068999 
L 563.939463 212.910301 
L 564.328165 213.206538 
L 564.716867 213.783962 
L 565.105569 213.360258 
L 565.494271 213.138338 
L 565.882973 215.666439 
L 566.271675 216.646867 
L 566.660377 216.311178 
L 567.049079 214.732595 
L 567.437781 214.312627 
L 567.826483 214.740642 
L 568.215185 213.275913 
L 568.603888 206.603525 
L 568.99259 195.428406 
L 569.381292 187.525921 
L 569.769994 184.725558 
L 570.158696 186.758026 
L 570.547398 190.866586 
L 570.9361 197.396028 
L 571.324802 206.369217 
L 571.713504 206.612077 
L 572.102206 205.272983 
L 572.490908 205.482749 
L 572.87961 208.466711 
L 573.268312 208.232659 
L 573.657014 207.627706 
L 574.045716 211.309777 
L 574.434418 212.162796 
L 574.82312 214.26031 
L 575.211822 215.213445 
L 575.600524 215.385984 
L 575.989226 214.4418 
L 576.377928 215.030253 
L 576.76663 216.454316 
L 577.544034 214.181503 
L 579.098843 217.930455 
L 579.487545 218.267302 
L 579.876247 217.224533 
L 580.264949 215.027989 
L 580.653651 213.851889 
L 581.042353 213.926777 
L 581.431055 216.1034 
L 582.208459 214.676653 
L 582.597161 215.285558 
L 582.985863 216.133929 
L 583.763267 216.680835 
L 584.151969 217.360852 
L 584.540671 217.325782 
L 585.318075 216.462723 
L 585.706777 206.69249 
L 586.872883 142.57687 
L 587.261585 139.943429 
L 588.427692 200.784434 
L 588.816394 211.665831 
L 589.205096 215.77225 
L 589.593798 217.561202 
L 589.9825 218.143401 
L 590.371202 217.453941 
L 590.759904 210.952932 
L 591.148606 201.484697 
L 591.92601 214.539765 
L 592.314712 216.460794 
L 592.703414 216.313058 
L 593.092116 216.601004 
L 593.480818 216.29247 
L 593.86952 213.380688 
L 594.258222 214.447436 
L 594.646924 216.971194 
L 595.035626 215.959079 
L 595.424328 215.664096 
L 595.81303 215.911892 
L 596.201732 213.728155 
L 596.590434 212.183757 
L 596.979136 212.25585 
L 598.145243 215.372953 
L 598.533945 217.814861 
L 598.922647 217.755118 
L 599.311349 218.080727 
L 599.700051 216.97816 
L 600.088753 215.328283 
L 600.477455 216.545085 
L 600.866157 216.515361 
L 601.254859 216.728338 
L 601.643561 216.29511 
L 602.032263 213.067833 
L 602.809667 203.446248 
L 603.198369 203.222389 
L 603.975773 207.494956 
L 604.753177 209.541102 
L 605.141879 206.88836 
L 605.530581 207.817347 
L 605.919283 211.896933 
L 606.307985 214.69212 
L 606.696688 215.758794 
L 607.08539 216.057137 
L 607.474092 215.709548 
L 607.862794 214.536768 
L 608.251496 214.389914 
L 609.0289 209.373423 
L 609.806304 216.760372 
L 610.195006 217.311725 
L 610.97241 215.635564 
L 611.361112 213.144478 
L 611.749814 212.591578 
L 612.138516 213.310457 
L 612.527218 214.606925 
L 612.91592 215.067994 
L 613.304622 213.951077 
L 614.082026 214.02337 
L 614.470728 214.584769 
L 614.85943 215.81951 
L 615.248132 216.368816 
L 616.025536 216.764624 
L 616.414239 216.75088 
L 616.802941 216.148298 
L 617.191643 208.581497 
L 617.969047 151.889521 
L 618.357749 129.356891 
L 618.746451 124.40256 
L 619.135153 157.839005 
L 619.912557 195.986186 
L 620.301259 207.768173 
L 620.689961 214.017869 
L 621.078663 215.35557 
L 621.467365 212.241765 
L 621.856067 210.819211 
L 622.244769 211.132781 
L 623.022173 213.884089 
L 623.410875 210.832957 
L 623.799577 210.856092 
L 624.188279 213.777593 
L 624.965683 215.506338 
L 625.354385 215.744954 
L 625.743088 217.141187 
L 626.13179 216.170562 
L 626.520492 215.752013 
L 626.909194 216.148818 
L 627.686598 217.449932 
L 628.0753 216.463694 
L 628.464002 216.149293 
L 628.852704 215.444841 
L 629.241406 214.009405 
L 629.630108 216.443705 
L 630.01881 217.280281 
L 630.407512 217.124051 
L 631.184916 215.923506 
L 631.573618 215.390245 
L 631.96232 213.884038 
L 632.351022 213.972293 
L 632.739724 215.462065 
L 633.128426 215.710602 
L 633.90583 201.337214 
L 634.683234 181.439582 
L 635.071936 176.641105 
L 635.460639 180.597219 
L 635.849341 191.296902 
L 636.626745 202.389269 
L 637.015447 211.712654 
L 637.792851 217.145865 
L 638.181553 216.585911 
L 638.570255 217.824885 
L 638.958957 217.754443 
L 639.347659 216.089008 
L 639.736361 215.915182 
L 640.125063 217.155784 
L 640.513765 216.497707 
L 640.902467 214.271638 
L 641.291169 215.323443 
L 641.679871 214.409426 
L 642.068573 215.845413 
L 642.457275 216.546455 
L 642.845977 215.623007 
L 643.234679 216.449821 
L 643.623381 217.653914 
L 644.012083 218.141976 
L 644.400785 217.823749 
L 644.789488 215.586262 
L 645.566892 213.017638 
L 645.955594 216.112236 
L 646.344296 214.298665 
L 647.1217 218.415132 
L 647.510402 217.338522 
L 647.899104 216.590219 
L 648.287806 194.897229 
L 648.676508 154.627799 
L 649.453912 103.148413 
L 649.842614 107.403191 
L 650.231316 141.124906 
L 651.00872 184.703717 
L 651.397422 201.874057 
L 651.786124 210.949536 
L 652.174826 217.301135 
L 652.563528 219.020842 
L 652.95223 218.867102 
L 653.340932 218.23697 
L 653.729634 216.768577 
L 654.118336 214.610113 
L 654.895741 204.947425 
L 655.284443 218.025188 
L 655.673145 219.786591 
L 656.061847 217.320424 
L 656.450549 216.38897 
L 656.839251 217.565313 
L 657.616655 212.867108 
L 658.005357 213.532394 
L 658.394059 215.998127 
L 658.782761 216.83666 
L 659.171463 218.245515 
L 659.948867 217.270039 
L 660.337569 215.909653 
L 661.114973 210.437946 
L 661.503675 209.181337 
L 661.892377 215.349484 
L 662.281079 216.057313 
L 662.669781 215.468722 
L 663.058483 214.130992 
L 663.447185 204.281888 
L 664.22459 144.881075 
L 664.613292 129.521887 
L 665.001994 130.442948 
L 666.1681 197.760837 
L 666.556802 208.522423 
L 666.945504 211.86503 
L 667.334206 212.01524 
L 667.722908 209.221393 
L 668.11161 202.210556 
L 668.500312 189.114321 
L 668.889014 196.723233 
L 670.05512 210.094469 
L 670.832524 211.607116 
L 671.221226 212.055503 
L 671.609928 210.457495 
L 671.99863 211.524283 
L 672.387332 215.108857 
L 672.776034 216.167411 
L 673.164736 214.371366 
L 673.553439 213.57703 
L 673.942141 214.193028 
L 674.330843 214.460699 
L 674.719545 214.495567 
L 675.108247 214.040463 
L 675.496949 215.469014 
L 675.885651 215.818941 
L 676.274353 214.757663 
L 676.663055 214.857064 
L 677.051757 215.49452 
L 677.829161 213.377892 
L 678.217863 213.165835 
L 678.606565 212.809663 
L 678.995267 212.922136 
L 679.772671 216.010693 
L 680.161373 214.247353 
L 680.550075 204.35811 
L 680.938777 190.219584 
L 681.327479 183.249859 
L 681.716181 180.850223 
L 682.493585 195.417723 
L 684.048394 213.69978 
L 684.437096 212.748351 
L 684.825798 214.765669 
L 685.2145 214.987029 
L 685.603202 213.483966 
L 685.991904 213.293153 
L 686.380606 212.331952 
L 686.769308 209.570303 
L 687.15801 208.446966 
L 687.546712 210.294656 
L 687.935414 209.011183 
L 689.10152 215.29248 
L 689.490222 217.233939 
L 689.878924 216.577706 
L 690.267626 215.585801 
L 690.656328 210.864196 
L 691.04503 208.771086 
L 691.433732 208.906189 
L 691.822434 208.793624 
L 692.211136 210.756861 
L 692.599839 213.412332 
L 692.988541 215.270856 
L 693.765945 214.313588 
L 694.154647 212.164621 
L 694.543349 208.984271 
L 696.098157 169.09737 
L 696.486859 170.86806 
L 696.875561 177.988538 
L 697.652965 200.892658 
L 698.041667 209.64677 
L 699.207773 216.312215 
L 699.596475 217.107138 
L 699.985177 215.146851 
L 700.373879 216.256608 
L 700.762581 216.726264 
L 701.151283 215.337501 
L 701.539985 211.8983 
L 701.928688 210.412387 
L 702.706092 213.297392 
L 703.094794 212.369103 
L 703.483496 212.999285 
L 703.872198 214.232751 
L 704.2609 214.393172 
L 704.649602 214.246388 
L 705.038304 214.249871 
L 705.038304 214.249871 
" style="fill:none;stroke:#1f77b4;stroke-linecap:square;stroke-width:2;"/>
   </g>
   <g id="patch_3">
    <path d="M 35.304688 279 
L 35.304688 7.2 
" style="fill:none;stroke:#000000;stroke-linecap:square;stroke-linejoin:miter;stroke-width:0.8;"/>
   </g>
   <g id="patch_4">
    <path d="M 704.904688 279 
L 704.904688 7.2 
" style="fill:none;stroke:#000000;stroke-linecap:square;stroke-linejoin:miter;stroke-width:0.8;"/>
   </g>
   <g id="patch_5">
    <path d="M 35.304688 279 
L 704.904688 279 
" style="fill:none;stroke:#000000;stroke-linecap:square;stroke-linejoin:miter;stroke-width:0.8;"/>
   </g>
   <g id="patch_6">
    <path d="M 35.304688 7.2 
L 704.904688 7.2 
" style="fill:none;stroke:#000000;stroke-linecap:square;stroke-linejoin:miter;stroke-width:0.8;"/>
   </g>
  </g>
 </g>
 <defs>
  <clipPath id="p71098ed4e0">
   <rect height="271.8" width="669.6" x="35.304688" y="7.2"/>
  </clipPath>
 </defs>
</svg>
