<?xml version="1.0" encoding="utf-8" standalone="no"?>
<!DOCTYPE svg PUBLIC "-//W3C//DTD SVG 1.1//EN"
  "http://www.w3.org/Graphics/SVG/1.1/DTD/svg11.dtd">
<!-- Created with matplotlib (https://matplotlib.org/) -->
<svg height="316.55625pt" version="1.1" viewBox="0 0 718.467188 316.55625" width="718.467188pt" xmlns="http://www.w3.org/2000/svg" xmlns:xlink="http://www.w3.org/1999/xlink">
 <metadata>
  <rdf:RDF xmlns:cc="http://creativecommons.org/ns#" xmlns:dc="http://purl.org/dc/elements/1.1/" xmlns:rdf="http://www.w3.org/1999/02/22-rdf-syntax-ns#">
   <cc:Work>
    <dc:type rdf:resource="http://purl.org/dc/dcmitype/StillImage"/>
    <dc:date>2021-04-01T22:37:18.498402</dc:date>
    <dc:format>image/svg+xml</dc:format>
    <dc:creator>
     <cc:Agent>
      <dc:title>Matplotlib v3.3.3, https://matplotlib.org/</dc:title>
     </cc:Agent>
    </dc:creator>
   </cc:Work>
  </rdf:RDF>
 </metadata>
 <defs>
  <style type="text/css">*{stroke-linecap:butt;stroke-linejoin:round;}</style>
 </defs>
 <g id="figure_1">
  <g id="patch_1">
   <path d="M 0 316.55625 
L 718.467188 316.55625 
L 718.467188 0 
L 0 0 
z
" style="fill:none;"/>
  </g>
  <g id="axes_1">
   <g id="patch_2">
    <path d="M 35.304688 279 
L 704.904688 279 
L 704.904688 7.2 
L 35.304688 7.2 
z
" style="fill:#ffffff;"/>
   </g>
   <g id="matplotlib.axis_1">
    <g id="xtick_1">
     <g id="line2d_1">
      <defs>
       <path d="M 0 0 
L 0 3.5 
" id="mefcbaffa06" style="stroke:#000000;stroke-width:0.8;"/>
      </defs>
      <g>
       <use style="stroke:#000000;stroke-width:0.8;" x="35.304688" xlink:href="#mefcbaffa06" y="279"/>
      </g>
     </g>
     <g id="text_1">
      <!-- 0 -->
      <g transform="translate(32.123438 293.598437)scale(0.1 -0.1)">
       <defs>
        <path d="M 31.78125 66.40625 
Q 24.171875 66.40625 20.328125 58.90625 
Q 16.5 51.421875 16.5 36.375 
Q 16.5 21.390625 20.328125 13.890625 
Q 24.171875 6.390625 31.78125 6.390625 
Q 39.453125 6.390625 43.28125 13.890625 
Q 47.125 21.390625 47.125 36.375 
Q 47.125 51.421875 43.28125 58.90625 
Q 39.453125 66.40625 31.78125 66.40625 
z
M 31.78125 74.21875 
Q 44.046875 74.21875 50.515625 64.515625 
Q 56.984375 54.828125 56.984375 36.375 
Q 56.984375 17.96875 50.515625 8.265625 
Q 44.046875 -1.421875 31.78125 -1.421875 
Q 19.53125 -1.421875 13.0625 8.265625 
Q 6.59375 17.96875 6.59375 36.375 
Q 6.59375 54.828125 13.0625 64.515625 
Q 19.53125 74.21875 31.78125 74.21875 
z
" id="DejaVuSans-48"/>
       </defs>
       <use xlink:href="#DejaVuSans-48"/>
      </g>
     </g>
    </g>
    <g id="xtick_2">
     <g id="line2d_2">
      <g>
       <use style="stroke:#000000;stroke-width:0.8;" x="169.224688" xlink:href="#mefcbaffa06" y="279"/>
      </g>
     </g>
     <g id="text_2">
      <!-- 2 -->
      <g transform="translate(166.043438 293.598437)scale(0.1 -0.1)">
       <defs>
        <path d="M 19.1875 8.296875 
L 53.609375 8.296875 
L 53.609375 0 
L 7.328125 0 
L 7.328125 8.296875 
Q 12.9375 14.109375 22.625 23.890625 
Q 32.328125 33.6875 34.8125 36.53125 
Q 39.546875 41.84375 41.421875 45.53125 
Q 43.3125 49.21875 43.3125 52.78125 
Q 43.3125 58.59375 39.234375 62.25 
Q 35.15625 65.921875 28.609375 65.921875 
Q 23.96875 65.921875 18.8125 64.3125 
Q 13.671875 62.703125 7.8125 59.421875 
L 7.8125 69.390625 
Q 13.765625 71.78125 18.9375 73 
Q 24.125 74.21875 28.421875 74.21875 
Q 39.75 74.21875 46.484375 68.546875 
Q 53.21875 62.890625 53.21875 53.421875 
Q 53.21875 48.921875 51.53125 44.890625 
Q 49.859375 40.875 45.40625 35.40625 
Q 44.1875 33.984375 37.640625 27.21875 
Q 31.109375 20.453125 19.1875 8.296875 
z
" id="DejaVuSans-50"/>
       </defs>
       <use xlink:href="#DejaVuSans-50"/>
      </g>
     </g>
    </g>
    <g id="xtick_3">
     <g id="line2d_3">
      <g>
       <use style="stroke:#000000;stroke-width:0.8;" x="303.144688" xlink:href="#mefcbaffa06" y="279"/>
      </g>
     </g>
     <g id="text_3">
      <!-- 4 -->
      <g transform="translate(299.963438 293.598437)scale(0.1 -0.1)">
       <defs>
        <path d="M 37.796875 64.3125 
L 12.890625 25.390625 
L 37.796875 25.390625 
z
M 35.203125 72.90625 
L 47.609375 72.90625 
L 47.609375 25.390625 
L 58.015625 25.390625 
L 58.015625 17.1875 
L 47.609375 17.1875 
L 47.609375 0 
L 37.796875 0 
L 37.796875 17.1875 
L 4.890625 17.1875 
L 4.890625 26.703125 
z
" id="DejaVuSans-52"/>
       </defs>
       <use xlink:href="#DejaVuSans-52"/>
      </g>
     </g>
    </g>
    <g id="xtick_4">
     <g id="line2d_4">
      <g>
       <use style="stroke:#000000;stroke-width:0.8;" x="437.064688" xlink:href="#mefcbaffa06" y="279"/>
      </g>
     </g>
     <g id="text_4">
      <!-- 6 -->
      <g transform="translate(433.883438 293.598437)scale(0.1 -0.1)">
       <defs>
        <path d="M 33.015625 40.375 
Q 26.375 40.375 22.484375 35.828125 
Q 18.609375 31.296875 18.609375 23.390625 
Q 18.609375 15.53125 22.484375 10.953125 
Q 26.375 6.390625 33.015625 6.390625 
Q 39.65625 6.390625 43.53125 10.953125 
Q 47.40625 15.53125 47.40625 23.390625 
Q 47.40625 31.296875 43.53125 35.828125 
Q 39.65625 40.375 33.015625 40.375 
z
M 52.59375 71.296875 
L 52.59375 62.3125 
Q 48.875 64.0625 45.09375 64.984375 
Q 41.3125 65.921875 37.59375 65.921875 
Q 27.828125 65.921875 22.671875 59.328125 
Q 17.53125 52.734375 16.796875 39.40625 
Q 19.671875 43.65625 24.015625 45.921875 
Q 28.375 48.1875 33.59375 48.1875 
Q 44.578125 48.1875 50.953125 41.515625 
Q 57.328125 34.859375 57.328125 23.390625 
Q 57.328125 12.15625 50.6875 5.359375 
Q 44.046875 -1.421875 33.015625 -1.421875 
Q 20.359375 -1.421875 13.671875 8.265625 
Q 6.984375 17.96875 6.984375 36.375 
Q 6.984375 53.65625 15.1875 63.9375 
Q 23.390625 74.21875 37.203125 74.21875 
Q 40.921875 74.21875 44.703125 73.484375 
Q 48.484375 72.75 52.59375 71.296875 
z
" id="DejaVuSans-54"/>
       </defs>
       <use xlink:href="#DejaVuSans-54"/>
      </g>
     </g>
    </g>
    <g id="xtick_5">
     <g id="line2d_5">
      <g>
       <use style="stroke:#000000;stroke-width:0.8;" x="570.984688" xlink:href="#mefcbaffa06" y="279"/>
      </g>
     </g>
     <g id="text_5">
      <!-- 8 -->
      <g transform="translate(567.803438 293.598437)scale(0.1 -0.1)">
       <defs>
        <path d="M 31.78125 34.625 
Q 24.75 34.625 20.71875 30.859375 
Q 16.703125 27.09375 16.703125 20.515625 
Q 16.703125 13.921875 20.71875 10.15625 
Q 24.75 6.390625 31.78125 6.390625 
Q 38.8125 6.390625 42.859375 10.171875 
Q 46.921875 13.96875 46.921875 20.515625 
Q 46.921875 27.09375 42.890625 30.859375 
Q 38.875 34.625 31.78125 34.625 
z
M 21.921875 38.8125 
Q 15.578125 40.375 12.03125 44.71875 
Q 8.5 49.078125 8.5 55.328125 
Q 8.5 64.0625 14.71875 69.140625 
Q 20.953125 74.21875 31.78125 74.21875 
Q 42.671875 74.21875 48.875 69.140625 
Q 55.078125 64.0625 55.078125 55.328125 
Q 55.078125 49.078125 51.53125 44.71875 
Q 48 40.375 41.703125 38.8125 
Q 48.828125 37.15625 52.796875 32.3125 
Q 56.78125 27.484375 56.78125 20.515625 
Q 56.78125 9.90625 50.3125 4.234375 
Q 43.84375 -1.421875 31.78125 -1.421875 
Q 19.734375 -1.421875 13.25 4.234375 
Q 6.78125 9.90625 6.78125 20.515625 
Q 6.78125 27.484375 10.78125 32.3125 
Q 14.796875 37.15625 21.921875 38.8125 
z
M 18.3125 54.390625 
Q 18.3125 48.734375 21.84375 45.5625 
Q 25.390625 42.390625 31.78125 42.390625 
Q 38.140625 42.390625 41.71875 45.5625 
Q 45.3125 48.734375 45.3125 54.390625 
Q 45.3125 60.0625 41.71875 63.234375 
Q 38.140625 66.40625 31.78125 66.40625 
Q 25.390625 66.40625 21.84375 63.234375 
Q 18.3125 60.0625 18.3125 54.390625 
z
" id="DejaVuSans-56"/>
       </defs>
       <use xlink:href="#DejaVuSans-56"/>
      </g>
     </g>
    </g>
    <g id="xtick_6">
     <g id="line2d_6">
      <g>
       <use style="stroke:#000000;stroke-width:0.8;" x="704.904688" xlink:href="#mefcbaffa06" y="279"/>
      </g>
     </g>
     <g id="text_6">
      <!-- 10 -->
      <g transform="translate(698.542188 293.598437)scale(0.1 -0.1)">
       <defs>
        <path d="M 12.40625 8.296875 
L 28.515625 8.296875 
L 28.515625 63.921875 
L 10.984375 60.40625 
L 10.984375 69.390625 
L 28.421875 72.90625 
L 38.28125 72.90625 
L 38.28125 8.296875 
L 54.390625 8.296875 
L 54.390625 0 
L 12.40625 0 
z
" id="DejaVuSans-49"/>
       </defs>
       <use xlink:href="#DejaVuSans-49"/>
       <use x="63.623047" xlink:href="#DejaVuSans-48"/>
      </g>
     </g>
    </g>
    <g id="text_7">
     <!-- Time (Sec) -->
     <g transform="translate(343.380469 307.276562)scale(0.1 -0.1)">
      <defs>
       <path d="M -0.296875 72.90625 
L 61.375 72.90625 
L 61.375 64.59375 
L 35.5 64.59375 
L 35.5 0 
L 25.59375 0 
L 25.59375 64.59375 
L -0.296875 64.59375 
z
" id="DejaVuSans-84"/>
       <path d="M 9.421875 54.6875 
L 18.40625 54.6875 
L 18.40625 0 
L 9.421875 0 
z
M 9.421875 75.984375 
L 18.40625 75.984375 
L 18.40625 64.59375 
L 9.421875 64.59375 
z
" id="DejaVuSans-105"/>
       <path d="M 52 44.1875 
Q 55.375 50.25 60.0625 53.125 
Q 64.75 56 71.09375 56 
Q 79.640625 56 84.28125 50.015625 
Q 88.921875 44.046875 88.921875 33.015625 
L 88.921875 0 
L 79.890625 0 
L 79.890625 32.71875 
Q 79.890625 40.578125 77.09375 44.375 
Q 74.3125 48.1875 68.609375 48.1875 
Q 61.625 48.1875 57.5625 43.546875 
Q 53.515625 38.921875 53.515625 30.90625 
L 53.515625 0 
L 44.484375 0 
L 44.484375 32.71875 
Q 44.484375 40.625 41.703125 44.40625 
Q 38.921875 48.1875 33.109375 48.1875 
Q 26.21875 48.1875 22.15625 43.53125 
Q 18.109375 38.875 18.109375 30.90625 
L 18.109375 0 
L 9.078125 0 
L 9.078125 54.6875 
L 18.109375 54.6875 
L 18.109375 46.1875 
Q 21.1875 51.21875 25.484375 53.609375 
Q 29.78125 56 35.6875 56 
Q 41.65625 56 45.828125 52.96875 
Q 50 49.953125 52 44.1875 
z
" id="DejaVuSans-109"/>
       <path d="M 56.203125 29.59375 
L 56.203125 25.203125 
L 14.890625 25.203125 
Q 15.484375 15.921875 20.484375 11.0625 
Q 25.484375 6.203125 34.421875 6.203125 
Q 39.59375 6.203125 44.453125 7.46875 
Q 49.3125 8.734375 54.109375 11.28125 
L 54.109375 2.78125 
Q 49.265625 0.734375 44.1875 -0.34375 
Q 39.109375 -1.421875 33.890625 -1.421875 
Q 20.796875 -1.421875 13.15625 6.1875 
Q 5.515625 13.8125 5.515625 26.8125 
Q 5.515625 40.234375 12.765625 48.109375 
Q 20.015625 56 32.328125 56 
Q 43.359375 56 49.78125 48.890625 
Q 56.203125 41.796875 56.203125 29.59375 
z
M 47.21875 32.234375 
Q 47.125 39.59375 43.09375 43.984375 
Q 39.0625 48.390625 32.421875 48.390625 
Q 24.90625 48.390625 20.390625 44.140625 
Q 15.875 39.890625 15.1875 32.171875 
z
" id="DejaVuSans-101"/>
       <path id="DejaVuSans-32"/>
       <path d="M 31 75.875 
Q 24.46875 64.65625 21.28125 53.65625 
Q 18.109375 42.671875 18.109375 31.390625 
Q 18.109375 20.125 21.3125 9.0625 
Q 24.515625 -2 31 -13.1875 
L 23.1875 -13.1875 
Q 15.875 -1.703125 12.234375 9.375 
Q 8.59375 20.453125 8.59375 31.390625 
Q 8.59375 42.28125 12.203125 53.3125 
Q 15.828125 64.359375 23.1875 75.875 
z
" id="DejaVuSans-40"/>
       <path d="M 53.515625 70.515625 
L 53.515625 60.890625 
Q 47.90625 63.578125 42.921875 64.890625 
Q 37.9375 66.21875 33.296875 66.21875 
Q 25.25 66.21875 20.875 63.09375 
Q 16.5 59.96875 16.5 54.203125 
Q 16.5 49.359375 19.40625 46.890625 
Q 22.3125 44.4375 30.421875 42.921875 
L 36.375 41.703125 
Q 47.40625 39.59375 52.65625 34.296875 
Q 57.90625 29 57.90625 20.125 
Q 57.90625 9.515625 50.796875 4.046875 
Q 43.703125 -1.421875 29.984375 -1.421875 
Q 24.8125 -1.421875 18.96875 -0.25 
Q 13.140625 0.921875 6.890625 3.21875 
L 6.890625 13.375 
Q 12.890625 10.015625 18.65625 8.296875 
Q 24.421875 6.59375 29.984375 6.59375 
Q 38.421875 6.59375 43.015625 9.90625 
Q 47.609375 13.234375 47.609375 19.390625 
Q 47.609375 24.75 44.3125 27.78125 
Q 41.015625 30.8125 33.5 32.328125 
L 27.484375 33.5 
Q 16.453125 35.6875 11.515625 40.375 
Q 6.59375 45.0625 6.59375 53.421875 
Q 6.59375 63.09375 13.40625 68.65625 
Q 20.21875 74.21875 32.171875 74.21875 
Q 37.3125 74.21875 42.625 73.28125 
Q 47.953125 72.359375 53.515625 70.515625 
z
" id="DejaVuSans-83"/>
       <path d="M 48.78125 52.59375 
L 48.78125 44.1875 
Q 44.96875 46.296875 41.140625 47.34375 
Q 37.3125 48.390625 33.40625 48.390625 
Q 24.65625 48.390625 19.8125 42.84375 
Q 14.984375 37.3125 14.984375 27.296875 
Q 14.984375 17.28125 19.8125 11.734375 
Q 24.65625 6.203125 33.40625 6.203125 
Q 37.3125 6.203125 41.140625 7.25 
Q 44.96875 8.296875 48.78125 10.40625 
L 48.78125 2.09375 
Q 45.015625 0.34375 40.984375 -0.53125 
Q 36.96875 -1.421875 32.421875 -1.421875 
Q 20.0625 -1.421875 12.78125 6.34375 
Q 5.515625 14.109375 5.515625 27.296875 
Q 5.515625 40.671875 12.859375 48.328125 
Q 20.21875 56 33.015625 56 
Q 37.15625 56 41.109375 55.140625 
Q 45.0625 54.296875 48.78125 52.59375 
z
" id="DejaVuSans-99"/>
       <path d="M 8.015625 75.875 
L 15.828125 75.875 
Q 23.140625 64.359375 26.78125 53.3125 
Q 30.421875 42.28125 30.421875 31.390625 
Q 30.421875 20.453125 26.78125 9.375 
Q 23.140625 -1.703125 15.828125 -13.1875 
L 8.015625 -13.1875 
Q 14.5 -2 17.703125 9.0625 
Q 20.90625 20.125 20.90625 31.390625 
Q 20.90625 42.671875 17.703125 53.65625 
Q 14.5 64.65625 8.015625 75.875 
z
" id="DejaVuSans-41"/>
      </defs>
      <use xlink:href="#DejaVuSans-84"/>
      <use x="57.958984" xlink:href="#DejaVuSans-105"/>
      <use x="85.742188" xlink:href="#DejaVuSans-109"/>
      <use x="183.154297" xlink:href="#DejaVuSans-101"/>
      <use x="244.677734" xlink:href="#DejaVuSans-32"/>
      <use x="276.464844" xlink:href="#DejaVuSans-40"/>
      <use x="315.478516" xlink:href="#DejaVuSans-83"/>
      <use x="378.955078" xlink:href="#DejaVuSans-101"/>
      <use x="440.478516" xlink:href="#DejaVuSans-99"/>
      <use x="495.458984" xlink:href="#DejaVuSans-41"/>
     </g>
    </g>
   </g>
   <g id="matplotlib.axis_2">
    <g id="ytick_1">
     <g id="line2d_7">
      <defs>
       <path d="M 0 0 
L -3.5 0 
" id="m90e9534d5b" style="stroke:#000000;stroke-width:0.8;"/>
      </defs>
      <g>
       <use style="stroke:#000000;stroke-width:0.8;" x="35.304688" xlink:href="#m90e9534d5b" y="259.79923"/>
      </g>
     </g>
     <g id="text_8">
      <!-- −20 -->
      <g transform="translate(7.2 263.598449)scale(0.1 -0.1)">
       <defs>
        <path d="M 10.59375 35.5 
L 73.1875 35.5 
L 73.1875 27.203125 
L 10.59375 27.203125 
z
" id="DejaVuSans-8722"/>
       </defs>
       <use xlink:href="#DejaVuSans-8722"/>
       <use x="83.789062" xlink:href="#DejaVuSans-50"/>
       <use x="147.412109" xlink:href="#DejaVuSans-48"/>
      </g>
     </g>
    </g>
    <g id="ytick_2">
     <g id="line2d_8">
      <g>
       <use style="stroke:#000000;stroke-width:0.8;" x="35.304688" xlink:href="#m90e9534d5b" y="220.315909"/>
      </g>
     </g>
     <g id="text_9">
      <!-- 0 -->
      <g transform="translate(21.942188 224.115128)scale(0.1 -0.1)">
       <use xlink:href="#DejaVuSans-48"/>
      </g>
     </g>
    </g>
    <g id="ytick_3">
     <g id="line2d_9">
      <g>
       <use style="stroke:#000000;stroke-width:0.8;" x="35.304688" xlink:href="#m90e9534d5b" y="180.832588"/>
      </g>
     </g>
     <g id="text_10">
      <!-- 20 -->
      <g transform="translate(15.579688 184.631806)scale(0.1 -0.1)">
       <use xlink:href="#DejaVuSans-50"/>
       <use x="63.623047" xlink:href="#DejaVuSans-48"/>
      </g>
     </g>
    </g>
    <g id="ytick_4">
     <g id="line2d_10">
      <g>
       <use style="stroke:#000000;stroke-width:0.8;" x="35.304688" xlink:href="#m90e9534d5b" y="141.349266"/>
      </g>
     </g>
     <g id="text_11">
      <!-- 40 -->
      <g transform="translate(15.579688 145.148485)scale(0.1 -0.1)">
       <use xlink:href="#DejaVuSans-52"/>
       <use x="63.623047" xlink:href="#DejaVuSans-48"/>
      </g>
     </g>
    </g>
    <g id="ytick_5">
     <g id="line2d_11">
      <g>
       <use style="stroke:#000000;stroke-width:0.8;" x="35.304688" xlink:href="#m90e9534d5b" y="101.865945"/>
      </g>
     </g>
     <g id="text_12">
      <!-- 60 -->
      <g transform="translate(15.579688 105.665164)scale(0.1 -0.1)">
       <use xlink:href="#DejaVuSans-54"/>
       <use x="63.623047" xlink:href="#DejaVuSans-48"/>
      </g>
     </g>
    </g>
    <g id="ytick_6">
     <g id="line2d_12">
      <g>
       <use style="stroke:#000000;stroke-width:0.8;" x="35.304688" xlink:href="#m90e9534d5b" y="62.382623"/>
      </g>
     </g>
     <g id="text_13">
      <!-- 80 -->
      <g transform="translate(15.579688 66.181842)scale(0.1 -0.1)">
       <use xlink:href="#DejaVuSans-56"/>
       <use x="63.623047" xlink:href="#DejaVuSans-48"/>
      </g>
     </g>
    </g>
    <g id="ytick_7">
     <g id="line2d_13">
      <g>
       <use style="stroke:#000000;stroke-width:0.8;" x="35.304688" xlink:href="#m90e9534d5b" y="22.899302"/>
      </g>
     </g>
     <g id="text_14">
      <!-- 100 -->
      <g transform="translate(9.217188 26.698521)scale(0.1 -0.1)">
       <use xlink:href="#DejaVuSans-49"/>
       <use x="63.623047" xlink:href="#DejaVuSans-48"/>
       <use x="127.246094" xlink:href="#DejaVuSans-48"/>
      </g>
     </g>
    </g>
   </g>
   <g id="line2d_14">
    <path clip-path="url(#p779ca69940)" d="M 35.69339 266.645455 
L 35.69339 19.554545 
" style="fill:none;stroke:#1f77b4;stroke-linecap:square;"/>
   </g>
   <g id="line2d_15">
    <path clip-path="url(#p779ca69940)" d="M 60.181618 266.645455 
L 60.181618 19.554545 
" style="fill:none;stroke:#ff7f0e;stroke-linecap:square;"/>
   </g>
   <g id="line2d_16">
    <path clip-path="url(#p779ca69940)" d="M 83.503741 266.645455 
L 83.503741 19.554545 
" style="fill:none;stroke:#2ca02c;stroke-linecap:square;"/>
   </g>
   <g id="line2d_17">
    <path clip-path="url(#p779ca69940)" d="M 105.659757 266.645455 
L 105.659757 19.554545 
" style="fill:none;stroke:#d62728;stroke-linecap:square;"/>
   </g>
   <g id="line2d_18">
    <path clip-path="url(#p779ca69940)" d="M 134.035006 266.645455 
L 134.035006 19.554545 
" style="fill:none;stroke:#9467bd;stroke-linecap:square;"/>
   </g>
   <g id="line2d_19">
    <path clip-path="url(#p779ca69940)" d="M 157.357128 266.645455 
L 157.357128 19.554545 
" style="fill:none;stroke:#8c564b;stroke-linecap:square;"/>
   </g>
   <g id="line2d_20">
    <path clip-path="url(#p779ca69940)" d="M 183.788867 266.645455 
L 183.788867 19.554545 
" style="fill:none;stroke:#e377c2;stroke-linecap:square;"/>
   </g>
   <g id="line2d_21">
    <path clip-path="url(#p779ca69940)" d="M 205.944883 266.645455 
L 205.944883 19.554545 
" style="fill:none;stroke:#7f7f7f;stroke-linecap:square;"/>
   </g>
   <g id="line2d_22">
    <path clip-path="url(#p779ca69940)" d="M 229.655708 266.645455 
L 229.655708 19.554545 
" style="fill:none;stroke:#bcbd22;stroke-linecap:square;"/>
   </g>
   <g id="line2d_23">
    <path clip-path="url(#p779ca69940)" d="M 257.642255 266.645455 
L 257.642255 19.554545 
" style="fill:none;stroke:#17becf;stroke-linecap:square;"/>
   </g>
   <g id="line2d_24">
    <path clip-path="url(#p779ca69940)" d="M 281.741781 266.645455 
L 281.741781 19.554545 
" style="fill:none;stroke:#1f77b4;stroke-linecap:square;"/>
   </g>
   <g id="line2d_25">
    <path clip-path="url(#p779ca69940)" d="M 305.452606 266.645455 
L 305.452606 19.554545 
" style="fill:none;stroke:#ff7f0e;stroke-linecap:square;"/>
   </g>
   <g id="line2d_26">
    <path clip-path="url(#p779ca69940)" d="M 329.16343 266.645455 
L 329.16343 19.554545 
" style="fill:none;stroke:#2ca02c;stroke-linecap:square;"/>
   </g>
   <g id="line2d_27">
    <path clip-path="url(#p779ca69940)" d="M 354.817765 266.645455 
L 354.817765 19.554545 
" style="fill:none;stroke:#d62728;stroke-linecap:square;"/>
   </g>
   <g id="line2d_28">
    <path clip-path="url(#p779ca69940)" d="M 378.917292 266.645455 
L 378.917292 19.554545 
" style="fill:none;stroke:#9467bd;stroke-linecap:square;"/>
   </g>
   <g id="line2d_29">
    <path clip-path="url(#p779ca69940)" d="M 404.960328 266.645455 
L 404.960328 19.554545 
" style="fill:none;stroke:#8c564b;stroke-linecap:square;"/>
   </g>
   <g id="line2d_30">
    <path clip-path="url(#p779ca69940)" d="M 428.671153 266.645455 
L 428.671153 19.554545 
" style="fill:none;stroke:#e377c2;stroke-linecap:square;"/>
   </g>
   <g id="line2d_31">
    <path clip-path="url(#p779ca69940)" d="M 452.770679 266.645455 
L 452.770679 19.554545 
" style="fill:none;stroke:#7f7f7f;stroke-linecap:square;"/>
   </g>
   <g id="line2d_32">
    <path clip-path="url(#p779ca69940)" d="M 478.036312 266.645455 
L 478.036312 19.554545 
" style="fill:none;stroke:#bcbd22;stroke-linecap:square;"/>
   </g>
   <g id="line2d_33">
    <path clip-path="url(#p779ca69940)" d="M 501.358434 266.645455 
L 501.358434 19.554545 
" style="fill:none;stroke:#17becf;stroke-linecap:square;"/>
   </g>
   <g id="line2d_34">
    <path clip-path="url(#p779ca69940)" d="M 525.457961 266.645455 
L 525.457961 19.554545 
" style="fill:none;stroke:#1f77b4;stroke-linecap:square;"/>
   </g>
   <g id="line2d_35">
    <path clip-path="url(#p779ca69940)" d="M 541.006043 266.645455 
L 541.006043 19.554545 
" style="fill:none;stroke:#ff7f0e;stroke-linecap:square;"/>
   </g>
   <g id="line2d_36">
    <path clip-path="url(#p779ca69940)" d="M 561.995953 266.645455 
L 561.995953 19.554545 
" style="fill:none;stroke:#2ca02c;stroke-linecap:square;"/>
   </g>
   <g id="line2d_37">
    <path clip-path="url(#p779ca69940)" d="M 585.706777 266.645455 
L 585.706777 19.554545 
" style="fill:none;stroke:#d62728;stroke-linecap:square;"/>
   </g>
   <g id="line2d_38">
    <path clip-path="url(#p779ca69940)" d="M 612.138516 266.645455 
L 612.138516 19.554545 
" style="fill:none;stroke:#9467bd;stroke-linecap:square;"/>
   </g>
   <g id="line2d_39">
    <path clip-path="url(#p779ca69940)" d="M 637.404149 266.645455 
L 637.404149 19.554545 
" style="fill:none;stroke:#8c564b;stroke-linecap:square;"/>
   </g>
   <g id="line2d_40">
    <path clip-path="url(#p779ca69940)" d="M 659.171463 266.645455 
L 659.171463 19.554545 
" style="fill:none;stroke:#e377c2;stroke-linecap:square;"/>
   </g>
   <g id="line2d_41">
    <path clip-path="url(#p779ca69940)" d="M 682.882288 266.645455 
L 682.882288 19.554545 
" style="fill:none;stroke:#7f7f7f;stroke-linecap:square;"/>
   </g>
   <g id="line2d_42">
    <path clip-path="url(#p779ca69940)" d="M 707.370516 266.645455 
L 707.370516 19.554545 
" style="fill:none;stroke:#bcbd22;stroke-linecap:square;"/>
   </g>
   <g id="line2d_43">
    <path clip-path="url(#p779ca69940)" style="fill:none;stroke:#17becf;stroke-linecap:square;"/>
   </g>
   <g id="line2d_44">
    <path clip-path="url(#p779ca69940)" style="fill:none;stroke:#1f77b4;stroke-linecap:square;"/>
   </g>
   <g id="line2d_45">
    <path clip-path="url(#p779ca69940)" style="fill:none;stroke:#ff7f0e;stroke-linecap:square;"/>
   </g>
   <g id="line2d_46">
    <path clip-path="url(#p779ca69940)" style="fill:none;stroke:#2ca02c;stroke-linecap:square;"/>
   </g>
   <g id="line2d_47">
    <path clip-path="url(#p779ca69940)" style="fill:none;stroke:#d62728;stroke-linecap:square;"/>
   </g>
   <g id="line2d_48">
    <path clip-path="url(#p779ca69940)" style="fill:none;stroke:#9467bd;stroke-linecap:square;"/>
   </g>
   <g id="line2d_49">
    <path clip-path="url(#p779ca69940)" style="fill:none;stroke:#8c564b;stroke-linecap:square;"/>
   </g>
   <g id="line2d_50">
    <path clip-path="url(#p779ca69940)" style="fill:none;stroke:#e377c2;stroke-linecap:square;"/>
   </g>
   <g id="line2d_51">
    <path clip-path="url(#p779ca69940)" style="fill:none;stroke:#7f7f7f;stroke-linecap:square;"/>
   </g>
   <g id="line2d_52">
    <path clip-path="url(#p779ca69940)" style="fill:none;stroke:#bcbd22;stroke-linecap:square;"/>
   </g>
   <g id="line2d_53">
    <path clip-path="url(#p779ca69940)" style="fill:none;stroke:#17becf;stroke-linecap:square;"/>
   </g>
   <g id="line2d_54">
    <path clip-path="url(#p779ca69940)" style="fill:none;stroke:#1f77b4;stroke-linecap:square;"/>
   </g>
   <g id="line2d_55">
    <path clip-path="url(#p779ca69940)" style="fill:none;stroke:#ff7f0e;stroke-linecap:square;"/>
   </g>
   <g id="line2d_56">
    <path clip-path="url(#p779ca69940)" style="fill:none;stroke:#2ca02c;stroke-linecap:square;"/>
   </g>
   <g id="line2d_57">
    <path clip-path="url(#p779ca69940)" style="fill:none;stroke:#d62728;stroke-linecap:square;"/>
   </g>
   <g id="line2d_58">
    <path clip-path="url(#p779ca69940)" style="fill:none;stroke:#9467bd;stroke-linecap:square;"/>
   </g>
   <g id="line2d_59">
    <path clip-path="url(#p779ca69940)" style="fill:none;stroke:#8c564b;stroke-linecap:square;"/>
   </g>
   <g id="line2d_60">
    <path clip-path="url(#p779ca69940)" style="fill:none;stroke:#e377c2;stroke-linecap:square;"/>
   </g>
   <g id="line2d_61">
    <path clip-path="url(#p779ca69940)" style="fill:none;stroke:#7f7f7f;stroke-linecap:square;"/>
   </g>
   <g id="line2d_62">
    <path clip-path="url(#p779ca69940)" style="fill:none;stroke:#bcbd22;stroke-linecap:square;"/>
   </g>
   <g id="line2d_63">
    <path clip-path="url(#p779ca69940)" style="fill:none;stroke:#17becf;stroke-linecap:square;"/>
   </g>
   <g id="line2d_64">
    <path clip-path="url(#p779ca69940)" style="fill:none;stroke:#1f77b4;stroke-linecap:square;"/>
   </g>
   <g id="line2d_65">
    <path clip-path="url(#p779ca69940)" style="fill:none;stroke:#ff7f0e;stroke-linecap:square;"/>
   </g>
   <g id="line2d_66">
    <path clip-path="url(#p779ca69940)" style="fill:none;stroke:#2ca02c;stroke-linecap:square;"/>
   </g>
   <g id="line2d_67">
    <path clip-path="url(#p779ca69940)" style="fill:none;stroke:#d62728;stroke-linecap:square;"/>
   </g>
   <g id="line2d_68">
    <path clip-path="url(#p779ca69940)" style="fill:none;stroke:#9467bd;stroke-linecap:square;"/>
   </g>
   <g id="line2d_69">
    <path clip-path="url(#p779ca69940)" style="fill:none;stroke:#8c564b;stroke-linecap:square;"/>
   </g>
   <g id="line2d_70">
    <path clip-path="url(#p779ca69940)" style="fill:none;stroke:#e377c2;stroke-linecap:square;"/>
   </g>
   <g id="line2d_71">
    <path clip-path="url(#p779ca69940)" style="fill:none;stroke:#7f7f7f;stroke-linecap:square;"/>
   </g>
   <g id="line2d_72">
    <path clip-path="url(#p779ca69940)" style="fill:none;stroke:#bcbd22;stroke-linecap:square;"/>
   </g>
   <g id="line2d_73">
    <path clip-path="url(#p779ca69940)" style="fill:none;stroke:#17becf;stroke-linecap:square;"/>
   </g>
   <g id="line2d_74">
    <path clip-path="url(#p779ca69940)" style="fill:none;stroke:#1f77b4;stroke-linecap:square;"/>
   </g>
   <g id="line2d_75">
    <path clip-path="url(#p779ca69940)" style="fill:none;stroke:#ff7f0e;stroke-linecap:square;"/>
   </g>
   <g id="line2d_76">
    <path clip-path="url(#p779ca69940)" style="fill:none;stroke:#2ca02c;stroke-linecap:square;"/>
   </g>
   <g id="line2d_77">
    <path clip-path="url(#p779ca69940)" style="fill:none;stroke:#d62728;stroke-linecap:square;"/>
   </g>
   <g id="line2d_78">
    <path clip-path="url(#p779ca69940)" style="fill:none;stroke:#9467bd;stroke-linecap:square;"/>
   </g>
   <g id="line2d_79">
    <path clip-path="url(#p779ca69940)" style="fill:none;stroke:#8c564b;stroke-linecap:square;"/>
   </g>
   <g id="line2d_80">
    <path clip-path="url(#p779ca69940)" style="fill:none;stroke:#e377c2;stroke-linecap:square;"/>
   </g>
   <g id="line2d_81">
    <path clip-path="url(#p779ca69940)" style="fill:none;stroke:#7f7f7f;stroke-linecap:square;"/>
   </g>
   <g id="line2d_82">
    <path clip-path="url(#p779ca69940)" style="fill:none;stroke:#bcbd22;stroke-linecap:square;"/>
   </g>
   <g id="line2d_83">
    <path clip-path="url(#p779ca69940)" style="fill:none;stroke:#17becf;stroke-linecap:square;"/>
   </g>
   <g id="line2d_84">
    <path clip-path="url(#p779ca69940)" style="fill:none;stroke:#1f77b4;stroke-linecap:square;"/>
   </g>
   <g id="line2d_85">
    <path clip-path="url(#p779ca69940)" style="fill:none;stroke:#ff7f0e;stroke-linecap:square;"/>
   </g>
   <g id="line2d_86">
    <path clip-path="url(#p779ca69940)" style="fill:none;stroke:#2ca02c;stroke-linecap:square;"/>
   </g>
   <g id="line2d_87">
    <path clip-path="url(#p779ca69940)" style="fill:none;stroke:#d62728;stroke-linecap:square;"/>
   </g>
   <g id="line2d_88">
    <path clip-path="url(#p779ca69940)" style="fill:none;stroke:#9467bd;stroke-linecap:square;"/>
   </g>
   <g id="line2d_89">
    <path clip-path="url(#p779ca69940)" style="fill:none;stroke:#8c564b;stroke-linecap:square;"/>
   </g>
   <g id="line2d_90">
    <path clip-path="url(#p779ca69940)" style="fill:none;stroke:#e377c2;stroke-linecap:square;"/>
   </g>
   <g id="line2d_91">
    <path clip-path="url(#p779ca69940)" style="fill:none;stroke:#7f7f7f;stroke-linecap:square;"/>
   </g>
   <g id="line2d_92">
    <path clip-path="url(#p779ca69940)" style="fill:none;stroke:#bcbd22;stroke-linecap:square;"/>
   </g>
   <g id="line2d_93">
    <path clip-path="url(#p779ca69940)" style="fill:none;stroke:#17becf;stroke-linecap:square;"/>
   </g>
   <g id="line2d_94">
    <path clip-path="url(#p779ca69940)" style="fill:none;stroke:#1f77b4;stroke-linecap:square;"/>
   </g>
   <g id="line2d_95">
    <path clip-path="url(#p779ca69940)" style="fill:none;stroke:#ff7f0e;stroke-linecap:square;"/>
   </g>
   <g id="line2d_96">
    <path clip-path="url(#p779ca69940)" style="fill:none;stroke:#2ca02c;stroke-linecap:square;"/>
   </g>
   <g id="line2d_97">
    <path clip-path="url(#p779ca69940)" style="fill:none;stroke:#d62728;stroke-linecap:square;"/>
   </g>
   <g id="line2d_98">
    <path clip-path="url(#p779ca69940)" style="fill:none;stroke:#9467bd;stroke-linecap:square;"/>
   </g>
   <g id="line2d_99">
    <path clip-path="url(#p779ca69940)" style="fill:none;stroke:#8c564b;stroke-linecap:square;"/>
   </g>
   <g id="line2d_100">
    <path clip-path="url(#p779ca69940)" d="M 35.304688 192.901013 
L 36.082092 201.053281 
L 36.859496 205.099846 
L 37.248198 206.675815 
L 37.6369 202.738118 
L 38.414304 184.7096 
L 38.803006 181.730697 
L 39.969112 207.239541 
L 40.357814 212.375662 
L 40.746516 210.47673 
L 41.135218 207.860944 
L 41.52392 207.894209 
L 41.912622 210.736945 
L 42.301324 212.340148 
L 42.690026 211.216327 
L 43.856132 199.22031 
L 44.244834 199.861766 
L 44.633536 200.028275 
L 45.022239 193.817753 
L 45.410941 195.187143 
L 45.799643 199.748907 
L 46.188345 207.398427 
L 46.577047 209.659585 
L 46.965749 207.919226 
L 47.354451 207.468466 
L 47.743153 208.130542 
L 48.131855 206.229575 
L 48.520557 205.14284 
L 48.909259 208.169647 
L 49.297961 210.097178 
L 49.686663 207.609419 
L 50.075365 202.028568 
L 50.464067 201.147894 
L 50.852769 201.659458 
L 51.241471 197.180158 
L 51.630173 194.106861 
L 52.018875 193.177103 
L 52.407577 194.916693 
L 52.796279 198.650304 
L 53.184981 199.034193 
L 53.573683 199.140312 
L 53.962385 198.145915 
L 54.351088 199.095457 
L 55.128492 208.937136 
L 55.517194 207.762668 
L 56.294598 195.02001 
L 57.072002 205.537324 
L 57.460704 207.587458 
L 57.849406 208.525201 
L 58.238108 207.509958 
L 58.62681 204.470546 
L 59.404214 185.74243 
L 59.792916 172.967623 
L 60.181618 169.293665 
L 60.57032 179.162788 
L 60.959022 193.997494 
L 61.736426 211.236745 
L 62.125128 214.529094 
L 62.51383 214.898721 
L 62.902532 211.639447 
L 63.291234 207.212807 
L 63.679936 201.251474 
L 64.068639 197.04505 
L 64.457341 197.896143 
L 65.234745 205.776199 
L 65.623447 207.938797 
L 66.012149 212.193693 
L 66.400851 213.368653 
L 66.789553 212.845088 
L 67.178255 211.338399 
L 67.566957 207.0691 
L 67.955659 199.078794 
L 68.344361 194.880329 
L 68.733063 198.55582 
L 69.121765 204.230051 
L 69.510467 204.654663 
L 70.287871 209.916209 
L 70.676573 210.664437 
L 71.065275 209.44456 
L 71.453977 210.05651 
L 71.842679 212.638275 
L 72.231381 213.108098 
L 73.008785 212.01919 
L 73.397488 210.672738 
L 73.78619 212.193188 
L 74.563594 207.810043 
L 74.952296 203.507191 
L 75.340998 206.373806 
L 75.7297 211.726308 
L 76.118402 214.172402 
L 76.507104 212.890029 
L 76.895806 207.27581 
L 77.284508 206.79034 
L 77.67321 208.558786 
L 78.061912 209.227538 
L 78.450614 208.463807 
L 78.839316 209.98377 
L 79.228018 211.991531 
L 79.61672 213.283515 
L 80.005422 210.541034 
L 80.394124 204.513108 
L 80.782826 201.532243 
L 81.171528 201.318864 
L 81.56023 198.218792 
L 82.337634 187.499541 
L 83.115039 172.096106 
L 83.503741 170.371347 
L 83.892443 177.031323 
L 84.669847 194.190099 
L 85.058549 199.402251 
L 85.835953 205.4422 
L 86.224655 207.312483 
L 87.002059 201.973942 
L 87.390761 201.527357 
L 88.168165 206.523013 
L 88.556867 206.881611 
L 88.945569 205.168705 
L 89.334271 205.28138 
L 90.111675 213.485602 
L 90.889079 207.240707 
L 91.277781 200.534185 
L 91.666483 198.968938 
L 92.055185 199.999319 
L 92.443888 201.511603 
L 92.83259 201.119682 
L 93.221292 202.066844 
L 93.609994 200.520868 
L 93.998696 197.853194 
L 94.387398 197.385477 
L 94.7761 201.533618 
L 95.164802 204.215567 
L 95.553504 208.987777 
L 95.942206 212.030691 
L 96.330908 212.948718 
L 96.71961 211.99478 
L 97.108312 213.272538 
L 97.497014 215.38111 
L 97.885716 213.938685 
L 98.274418 210.225579 
L 98.66312 210.549581 
L 99.051822 209.743964 
L 99.440524 210.381324 
L 99.829226 213.742888 
L 100.217928 213.62279 
L 100.60663 206.846411 
L 100.995332 193.655811 
L 101.384034 188.258295 
L 102.550141 213.532543 
L 102.938843 212.706747 
L 104.104949 191.057503 
L 104.493651 178.470578 
L 104.882353 173.602715 
L 105.659757 170.531667 
L 107.214565 209.705326 
L 107.603267 215.671363 
L 107.991969 215.639902 
L 108.380671 214.025681 
L 108.769373 208.924534 
L 109.158075 206.66666 
L 109.546777 205.681604 
L 110.324181 201.027566 
L 110.712883 202.61585 
L 111.101585 208.856774 
L 111.490288 213.049465 
L 111.87899 214.578929 
L 113.045096 208.581889 
L 113.433798 208.229899 
L 113.8225 206.66341 
L 114.211202 202.017058 
L 114.599904 201.771954 
L 114.988606 202.770806 
L 115.377308 203.028275 
L 115.76601 199.933428 
L 116.154712 190.984657 
L 116.543414 177.69001 
L 116.932116 170.946652 
L 117.320818 173.321646 
L 117.70952 181.810856 
L 118.098222 193.80511 
L 118.486924 200.362949 
L 118.875626 198.451806 
L 119.264328 191.986261 
L 119.65303 189.715005 
L 120.041732 189.220878 
L 120.430434 194.208989 
L 120.819136 193.903287 
L 121.207839 185.585898 
L 121.596541 183.392767 
L 122.373945 196.230667 
L 122.762647 199.410949 
L 123.151349 200.084587 
L 123.540051 198.563452 
L 124.706157 208.98282 
L 125.094859 210.01243 
L 125.483561 209.099229 
L 126.260965 205.750634 
L 126.649667 202.89617 
L 127.038369 202.317024 
L 128.204475 210.537863 
L 128.981879 213.660408 
L 129.370581 212.772895 
L 129.759283 208.088389 
L 130.147985 206.74876 
L 130.536688 206.71617 
L 130.92539 207.603503 
L 131.314092 206.810823 
L 131.702794 203.735969 
L 132.091496 196.645024 
L 132.480198 192.598732 
L 132.8689 191.051087 
L 133.257602 190.134035 
L 133.646304 187.947524 
L 134.035006 183.738929 
L 134.423708 185.815686 
L 134.81241 200.874728 
L 135.201112 206.193242 
L 135.589814 209.96631 
L 135.978516 212.10993 
L 136.367218 210.686246 
L 136.75592 209.929727 
L 137.144622 208.895559 
L 137.533324 205.96471 
L 137.922026 206.702299 
L 138.310728 209.521195 
L 138.69943 211.029473 
L 139.088132 210.295479 
L 139.476834 209.81449 
L 139.865536 208.708859 
L 140.254239 208.99733 
L 140.642941 208.209313 
L 141.031643 211.041935 
L 141.420345 215.591944 
L 141.809047 214.328644 
L 142.197749 208.623692 
L 142.586451 205.486568 
L 142.975153 205.46449 
L 143.363855 206.114961 
L 143.752557 204.694926 
L 144.141259 205.402838 
L 144.529961 204.528583 
L 144.918663 200.376664 
L 145.307365 198.911447 
L 146.084769 189.717964 
L 146.473471 193.934317 
L 146.862173 193.091328 
L 147.250875 189.854188 
L 147.639577 190.614303 
L 148.416981 200.059548 
L 149.194385 212.023963 
L 149.583088 214.52913 
L 149.97179 213.878449 
L 150.360492 209.723831 
L 150.749194 209.597269 
L 151.137896 208.049155 
L 151.526598 210.008262 
L 152.304002 212.638711 
L 152.692704 211.815992 
L 153.470108 213.653661 
L 153.85881 213.328728 
L 154.247512 211.634588 
L 154.636214 207.330188 
L 155.024916 207.209583 
L 156.968426 178.136167 
L 157.357128 176.290545 
L 157.74583 179.304777 
L 158.911936 204.642911 
L 159.300639 204.006921 
L 159.689341 202.916801 
L 160.078043 205.166302 
L 160.466745 204.697626 
L 160.855447 206.692348 
L 161.244149 207.391449 
L 161.632851 207.436105 
L 162.410255 211.477395 
L 162.798957 209.331563 
L 163.187659 204.687233 
L 163.576361 203.416952 
L 163.965063 203.507661 
L 164.353765 205.515397 
L 164.742467 206.526973 
L 165.131169 206.235837 
L 165.908573 203.284008 
L 166.297275 206.46481 
L 167.074679 205.099483 
L 167.463381 203.730935 
L 167.852083 200.390981 
L 168.240785 202.269206 
L 168.629488 201.694406 
L 169.406892 190.411015 
L 170.184296 186.188578 
L 170.572998 189.993118 
L 170.9617 190.893858 
L 171.350402 190.264255 
L 171.739104 193.657 
L 172.516508 197.395463 
L 172.90521 198.256776 
L 173.293912 197.273665 
L 174.071316 204.327915 
L 174.84872 211.326942 
L 175.237422 208.218053 
L 175.626124 204.12138 
L 176.014826 207.743672 
L 176.403528 213.124536 
L 176.79223 213.693666 
L 177.180932 207.651628 
L 177.569634 208.37843 
L 177.958336 208.687317 
L 178.735741 208.256765 
L 179.124443 206.814609 
L 179.901847 204.695374 
L 180.290549 206.356283 
L 180.679251 208.658817 
L 181.067953 207.07521 
L 181.456655 204.358057 
L 181.845357 202.999498 
L 182.234059 202.507011 
L 182.622761 197.120486 
L 183.400165 182.494433 
L 183.788867 181.207706 
L 184.177569 186.222953 
L 184.566271 193.509479 
L 184.954973 203.786176 
L 185.343675 207.14738 
L 185.732377 208.318582 
L 186.121079 207.529296 
L 186.509781 204.181996 
L 186.898483 206.214171 
L 187.287185 209.696484 
L 188.06459 209.186831 
L 188.453292 210.277463 
L 188.841994 212.067459 
L 189.619398 198.353801 
L 190.0081 198.035114 
L 190.396802 200.154094 
L 190.785504 201.390453 
L 191.174206 210.122125 
L 191.562908 212.512649 
L 191.95161 212.834896 
L 192.340312 209.584719 
L 192.729014 211.970272 
L 193.117716 215.251495 
L 193.89512 210.562754 
L 195.061226 198.286033 
L 195.449928 193.611085 
L 195.83863 198.362489 
L 196.227332 206.293426 
L 196.616034 211.181011 
L 197.004736 213.915197 
L 197.393439 214.185656 
L 197.782141 209.003036 
L 198.170843 201.617588 
L 198.559545 201.625926 
L 198.948247 205.923882 
L 199.336949 207.437495 
L 199.725651 207.608105 
L 200.114353 211.413658 
L 200.503055 213.410136 
L 200.891757 209.390769 
L 201.280459 203.422338 
L 201.669161 204.221074 
L 202.057863 209.316243 
L 202.446565 208.2757 
L 202.835267 210.091125 
L 203.223969 208.751542 
L 203.612671 204.080602 
L 204.001373 204.003492 
L 204.390075 213.03184 
L 204.778777 215.388549 
L 205.167479 213.109159 
L 205.944883 194.44901 
L 206.333585 199.193139 
L 206.722288 205.61595 
L 207.11099 206.593353 
L 207.499692 206.205008 
L 207.888394 201.40831 
L 208.277096 195.227253 
L 208.665798 194.986852 
L 209.0545 200.936133 
L 209.443202 202.542562 
L 209.831904 201.285947 
L 210.220606 201.169485 
L 210.609308 204.043372 
L 210.99801 211.321147 
L 211.386712 213.037774 
L 211.775414 212.096397 
L 212.164116 204.698149 
L 212.552818 202.454571 
L 212.94152 207.184297 
L 213.718924 212.433816 
L 214.107626 211.419441 
L 214.496328 213.880543 
L 214.88503 212.493529 
L 215.273732 212.024171 
L 215.662434 214.870482 
L 216.051136 214.659535 
L 216.439839 210.178658 
L 216.828541 207.152464 
L 217.217243 208.753114 
L 217.605945 207.134411 
L 217.994647 204.98597 
L 218.383349 198.749276 
L 219.160753 177.450935 
L 219.549455 175.03605 
L 220.326859 188.593164 
L 221.492965 200.696189 
L 221.881667 208.015751 
L 222.270369 209.107411 
L 222.659071 211.164925 
L 223.047773 214.707657 
L 223.436475 215.705697 
L 223.825177 214.263274 
L 224.213879 215.574709 
L 224.602581 216.174884 
L 224.991283 217.288752 
L 225.379985 217.534628 
L 225.768688 216.928883 
L 226.15739 214.415852 
L 226.546092 214.062889 
L 226.934794 212.453661 
L 227.323496 212.703076 
L 227.712198 212.134845 
L 228.1009 209.390942 
L 229.267006 160.750034 
L 229.655708 156.351294 
L 230.04441 166.124065 
L 230.821814 191.803692 
L 231.210516 199.095052 
L 231.98792 205.86817 
L 232.376622 206.099859 
L 232.765324 206.76724 
L 233.154026 207.035267 
L 233.93143 200.76545 
L 234.320132 201.118506 
L 234.708834 205.263752 
L 235.486239 207.471127 
L 236.263643 202.829843 
L 236.652345 202.263637 
L 237.041047 203.214265 
L 238.207153 213.038983 
L 238.595855 211.622606 
L 238.984557 211.707205 
L 240.150663 203.80531 
L 240.539365 204.361568 
L 240.928067 204.45684 
L 241.316769 202.445017 
L 242.094173 204.578108 
L 243.648981 209.933811 
L 244.037683 213.962977 
L 244.426385 213.499673 
L 245.592492 203.148834 
L 245.981194 186.618037 
L 246.369896 177.275025 
L 246.758598 183.296406 
L 247.924704 211.37422 
L 248.313406 214.675293 
L 248.702108 215.450723 
L 249.479512 213.074203 
L 250.256916 206.98602 
L 250.645618 208.047777 
L 251.03432 205.391478 
L 251.423022 204.733928 
L 252.200426 211.505208 
L 252.589128 210.86617 
L 252.97783 208.441026 
L 253.755234 209.525345 
L 254.143936 206.992479 
L 254.532639 206.822391 
L 254.921341 201.942374 
L 255.310043 190.299279 
L 256.087447 178.284132 
L 256.476149 177.051883 
L 256.864851 178.306627 
L 257.253553 176.87222 
L 257.642255 174.297863 
L 258.419659 177.774986 
L 258.808361 187.329867 
L 259.197063 202.54281 
L 259.585765 209.711719 
L 259.974467 209.637465 
L 260.363169 207.43579 
L 260.751871 207.623151 
L 261.529275 204.677646 
L 261.917977 205.323108 
L 262.306679 204.432581 
L 262.695381 204.656555 
L 263.472785 212.179427 
L 263.861488 213.502081 
L 264.25019 212.339881 
L 264.638892 211.96239 
L 265.027594 209.933339 
L 265.416296 209.272694 
L 266.582402 202.322498 
L 266.971104 201.822994 
L 267.359806 201.086891 
L 267.748508 198.435243 
L 268.13721 199.090269 
L 268.525912 202.005623 
L 268.914614 210.701325 
L 269.303316 215.314572 
L 269.692018 210.632505 
L 270.08072 201.898054 
L 270.469422 202.046442 
L 270.858124 203.205463 
L 271.246826 197.651938 
L 271.635528 200.308588 
L 272.02423 204.281466 
L 272.801634 209.662233 
L 273.190336 207.861967 
L 273.579039 208.459854 
L 273.967741 209.722318 
L 274.356443 205.369687 
L 274.745145 202.329769 
L 275.133847 203.434353 
L 275.522549 202.519237 
L 275.911251 210.252554 
L 276.299953 213.956787 
L 276.688655 213.739034 
L 277.077357 212.800588 
L 277.466059 214.880984 
L 277.854761 211.155711 
L 278.243463 205.521516 
L 278.632165 192.544063 
L 279.409569 161.65324 
L 279.798271 160.857015 
L 280.186973 164.343174 
L 280.575675 164.652535 
L 280.964377 157.986573 
L 281.353079 148.651597 
L 281.741781 145.47262 
L 282.907888 199.95994 
L 283.29659 209.927365 
L 283.685292 210.899489 
L 284.073994 211.080065 
L 284.462696 211.79426 
L 284.851398 211.711761 
L 285.2401 209.267441 
L 285.628802 209.737767 
L 286.017504 206.498132 
L 286.406206 204.306618 
L 286.794908 202.93358 
L 287.18361 205.215776 
L 287.572312 209.579002 
L 288.349716 215.676725 
L 288.738418 217.216209 
L 289.12712 218.110075 
L 289.515822 217.131525 
L 289.904524 208.111748 
L 290.681928 170.480179 
L 291.07063 158.479407 
L 291.459332 168.35737 
L 291.848034 192.414215 
L 292.236736 208.400158 
L 292.625439 210.158182 
L 293.014141 207.984566 
L 293.402843 202.027341 
L 293.791545 193.705753 
L 294.180247 188.009726 
L 294.568949 187.057788 
L 294.957651 188.317226 
L 295.346353 195.15096 
L 295.735055 198.782075 
L 296.512459 210.326465 
L 296.901161 214.872405 
L 297.289863 212.594692 
L 298.067267 197.825466 
L 298.455969 190.765054 
L 298.844671 193.575696 
L 299.233373 203.576112 
L 299.622075 203.821856 
L 300.010777 202.079679 
L 300.399479 204.297706 
L 301.176883 205.845676 
L 301.565585 210.43966 
L 301.954288 212.229465 
L 302.34299 208.551768 
L 302.731692 207.305108 
L 303.120394 216.103933 
L 303.509096 216.221895 
L 303.897798 212.740047 
L 304.2865 207.633519 
L 304.675202 201.040854 
L 305.063904 191.647405 
L 305.452606 186.312328 
L 305.841308 187.454118 
L 306.23001 191.50596 
L 306.618712 193.117206 
L 307.396116 207.81297 
L 307.784818 209.934848 
L 308.17352 212.792962 
L 308.562222 214.739378 
L 308.950924 212.81516 
L 309.339626 206.221345 
L 309.728328 204.73835 
L 310.11703 206.70249 
L 310.505732 204.656083 
L 310.894434 205.53033 
L 311.283136 204.77098 
L 311.671839 204.429676 
L 312.060541 205.787273 
L 312.449243 206.552654 
L 312.837945 205.339932 
L 313.226647 205.964286 
L 313.615349 207.954251 
L 314.004051 208.14948 
L 314.392753 207.744136 
L 314.781455 206.688846 
L 315.558859 199.738368 
L 315.947561 200.626662 
L 317.113667 205.575177 
L 317.502369 191.388062 
L 318.279773 151.213994 
L 318.668475 149.531987 
L 319.057177 159.455815 
L 319.834581 197.030572 
L 320.611985 210.274427 
L 321.000688 210.962248 
L 321.38939 208.971667 
L 321.778092 208.527734 
L 322.555496 205.733931 
L 322.944198 205.69578 
L 323.3329 206.960706 
L 323.721602 203.006496 
L 324.110304 191.874323 
L 324.499006 191.648775 
L 324.887708 197.631214 
L 325.27641 201.474851 
L 326.053814 215.204997 
L 326.442516 215.566145 
L 326.831218 212.536256 
L 327.21992 213.736851 
L 327.997324 207.675727 
L 328.774728 179.803913 
L 329.16343 175.950907 
L 329.552132 177.784681 
L 330.329536 193.762054 
L 331.884345 211.48527 
L 332.273047 206.332906 
L 333.050451 204.599722 
L 333.439153 206.919503 
L 333.827855 212.839337 
L 334.216557 213.039552 
L 334.605259 209.136835 
L 334.993961 209.375678 
L 335.382663 210.926316 
L 335.771365 213.756187 
L 336.160067 214.070318 
L 336.548769 213.156599 
L 336.937471 210.385665 
L 337.326173 206.059822 
L 337.714875 205.556245 
L 338.103577 204.53454 
L 338.492279 198.359088 
L 338.880981 200.842015 
L 339.269683 201.330273 
L 340.047088 197.962145 
L 340.43579 195.672397 
L 340.824492 194.607984 
L 341.213194 194.574462 
L 341.601896 198.522152 
L 341.990598 203.617959 
L 342.768002 192.151349 
L 343.156704 192.543288 
L 343.934108 199.843166 
L 345.100214 209.089208 
L 345.488916 208.435173 
L 345.877618 204.962455 
L 346.26632 205.341915 
L 346.655022 211.451726 
L 347.043724 215.417746 
L 347.432426 215.278634 
L 347.821128 211.850084 
L 348.20983 210.59365 
L 348.598532 211.223882 
L 348.987234 212.372134 
L 349.375936 216.308849 
L 349.764639 214.808631 
L 350.153341 213.944254 
L 350.542043 214.304922 
L 350.930745 214.146568 
L 351.319447 210.761731 
L 352.485553 195.261224 
L 352.874255 194.777566 
L 353.262957 191.46844 
L 353.651659 191.365666 
L 354.040361 186.186435 
L 354.817765 162.549082 
L 355.206467 164.514451 
L 355.983871 200.286438 
L 356.372573 210.608845 
L 356.761275 213.029034 
L 357.149977 213.226333 
L 357.538679 211.193109 
L 358.316083 198.543574 
L 358.704785 199.747948 
L 359.093488 204.708647 
L 359.48219 207.053015 
L 359.870892 205.620117 
L 360.648296 182.169426 
L 361.814402 209.069339 
L 362.203104 209.991174 
L 362.591806 205.565555 
L 362.980508 205.956416 
L 363.36921 207.666737 
L 363.757912 210.919886 
L 364.146614 209.045578 
L 364.535316 210.461433 
L 364.924018 208.562742 
L 365.31272 205.752439 
L 365.701422 201.002239 
L 366.090124 192.594216 
L 366.478826 188.957892 
L 366.867528 193.191433 
L 367.25623 196.030101 
L 367.644932 196.454263 
L 368.033634 192.691578 
L 368.422336 196.480104 
L 368.811039 205.720509 
L 369.199741 207.743359 
L 369.588443 208.23328 
L 369.977145 211.022365 
L 370.365847 211.958801 
L 371.143251 205.43875 
L 371.531953 207.881498 
L 371.920655 205.936412 
L 372.698059 189.629726 
L 373.086761 191.747086 
L 373.475463 200.966151 
L 373.864165 200.843735 
L 374.641569 208.802051 
L 375.030271 209.570944 
L 375.418973 209.017266 
L 375.807675 211.368271 
L 376.196377 212.553584 
L 376.585079 214.730715 
L 376.973781 215.140249 
L 377.362483 214.786977 
L 377.751185 205.14957 
L 378.139888 191.618406 
L 378.52859 183.735243 
L 378.917292 182.12013 
L 379.305994 185.387147 
L 379.694696 191.325312 
L 380.4721 210.686827 
L 380.860802 207.355565 
L 381.249504 202.309669 
L 381.638206 200.246128 
L 382.026908 206.210578 
L 382.41561 207.881072 
L 382.804312 206.532152 
L 383.193014 203.609142 
L 383.581716 194.772262 
L 384.747822 183.543971 
L 385.136524 192.334143 
L 385.525226 195.899792 
L 385.913928 198.27828 
L 386.30263 197.01065 
L 386.691332 194.889329 
L 387.080034 188.26487 
L 387.468736 191.259272 
L 388.246141 207.959459 
L 388.634843 209.235453 
L 389.023545 207.543638 
L 389.412247 204.260754 
L 389.800949 198.312804 
L 390.189651 188.572907 
L 390.578353 182.190412 
L 390.967055 181.497237 
L 391.355757 183.453973 
L 391.744459 188.85434 
L 392.133161 197.610625 
L 392.521863 203.237656 
L 392.910565 203.700632 
L 393.299267 204.475748 
L 393.687969 210.931085 
L 394.076671 212.210079 
L 394.465373 211.607156 
L 394.854075 212.175296 
L 395.242777 210.153346 
L 396.020181 202.219246 
L 396.408883 201.61757 
L 396.797585 203.609157 
L 397.186288 201.416373 
L 397.963692 207.354566 
L 398.352394 205.546228 
L 398.741096 204.297902 
L 399.5185 214.309055 
L 399.907202 216.033408 
L 400.295904 214.225754 
L 400.684606 210.184325 
L 401.073308 209.893357 
L 401.46201 206.828939 
L 401.850712 205.687334 
L 402.239414 203.23433 
L 403.016818 210.370574 
L 403.794222 202.652732 
L 404.571626 183.191911 
L 404.960328 179.729597 
L 405.34903 183.985815 
L 405.737732 199.628149 
L 406.126434 208.594946 
L 406.903839 204.343507 
L 407.292541 206.17854 
L 407.681243 208.563002 
L 408.069945 212.309404 
L 408.458647 212.524267 
L 408.847349 215.006781 
L 409.236051 216.166616 
L 409.624753 213.985701 
L 410.402157 201.931101 
L 410.790859 201.410277 
L 411.179561 204.134269 
L 411.568263 205.270495 
L 411.956965 208.382465 
L 412.345667 209.19636 
L 413.123071 215.48494 
L 413.511773 210.354012 
L 414.289177 192.523944 
L 414.677879 188.832984 
L 415.843985 172.517751 
L 417.398794 194.277007 
L 418.5649 198.629656 
L 418.953602 202.921173 
L 419.342304 209.914025 
L 419.731006 209.982792 
L 420.119708 206.496288 
L 420.50841 205.67804 
L 420.897112 206.019304 
L 421.285814 203.554499 
L 421.674516 205.201973 
L 422.063218 210.461038 
L 422.45192 212.348167 
L 422.840622 210.366582 
L 423.618026 201.652142 
L 424.006728 200.467452 
L 424.39543 202.67166 
L 424.784132 207.402121 
L 425.172834 209.369941 
L 425.561536 208.927599 
L 425.950239 205.474031 
L 426.338941 199.839004 
L 426.727643 199.34095 
L 427.116345 204.785482 
L 427.505047 206.145538 
L 427.893749 204.640085 
L 428.282451 201.847677 
L 428.671153 200.059004 
L 429.059855 203.536697 
L 429.837259 213.441605 
L 430.225961 216.998722 
L 431.003365 208.321911 
L 431.392067 211.051638 
L 431.780769 211.734516 
L 432.169471 209.56533 
L 432.558173 210.926168 
L 432.946875 207.713032 
L 433.335577 207.078822 
L 433.724279 207.815784 
L 434.112981 207.640441 
L 434.501683 206.838164 
L 434.890385 211.578019 
L 435.279088 211.732719 
L 435.66779 211.251663 
L 436.445194 208.320787 
L 436.833896 208.038811 
L 437.6113 214.340511 
L 438.777406 204.441792 
L 439.166108 205.168829 
L 439.55481 203.301819 
L 439.943512 206.891461 
L 440.332214 205.609983 
L 441.49832 172.28522 
L 441.887022 179.125968 
L 442.275724 191.998082 
L 442.664426 199.844155 
L 443.053128 205.439646 
L 443.44183 207.250511 
L 443.830532 205.556393 
L 444.219234 202.762741 
L 444.607936 204.168511 
L 444.996639 204.964671 
L 445.385341 201.00972 
L 445.774043 201.578237 
L 446.162745 209.851979 
L 446.551447 214.081207 
L 446.940149 212.306046 
L 447.328851 209.693497 
L 447.717553 211.266635 
L 448.106255 210.216485 
L 448.494957 199.886455 
L 448.883659 193.117807 
L 449.272361 189.372976 
L 450.049765 184.944796 
L 450.438467 183.728163 
L 451.215871 167.618841 
L 451.993275 144.818079 
L 452.381977 141.012851 
L 452.770679 140.609282 
L 453.159381 145.447302 
L 453.548083 161.326583 
L 453.936785 182.58713 
L 454.325488 196.624528 
L 454.71419 203.263579 
L 455.102892 204.469279 
L 455.491594 196.88159 
L 455.880296 195.867233 
L 456.6577 207.816827 
L 457.046402 204.227268 
L 457.435104 201.805886 
L 457.823806 205.496729 
L 458.212508 211.501054 
L 458.60121 212.999636 
L 458.989912 213.343783 
L 459.378614 205.394322 
L 459.767316 206.419955 
L 460.156018 209.43137 
L 460.933422 198.63651 
L 461.322124 186.747012 
L 461.710826 182.872804 
L 462.099528 187.133512 
L 462.876932 204.605897 
L 463.265634 200.059438 
L 463.654336 179.502115 
L 464.043039 174.328457 
L 464.431741 174.42388 
L 464.820443 182.5278 
L 465.209145 195.52342 
L 465.597847 201.213863 
L 465.986549 204.528208 
L 466.375251 211.186245 
L 466.763953 211.390423 
L 467.152655 205.871317 
L 467.541357 208.879791 
L 467.930059 207.142485 
L 468.318761 204.505104 
L 468.707463 210.267919 
L 469.096165 213.927642 
L 469.484867 210.010866 
L 469.873569 203.531579 
L 470.262271 202.141989 
L 470.650973 202.297395 
L 471.817079 185.25825 
L 472.205781 184.628171 
L 472.594483 187.934609 
L 472.983185 200.45834 
L 473.371888 209.146357 
L 473.76059 212.607898 
L 474.149292 209.455236 
L 474.537994 207.902138 
L 475.7041 190.710146 
L 476.092802 189.397387 
L 476.481504 194.308075 
L 476.870206 195.828869 
L 477.64761 169.961257 
L 478.036312 162.983937 
L 478.425014 171.519666 
L 478.813716 186.632743 
L 479.202418 195.954143 
L 479.59112 201.597372 
L 479.979822 208.900429 
L 480.368524 213.275351 
L 480.757226 213.259291 
L 481.145928 212.733087 
L 481.53463 212.004994 
L 481.923332 209.090737 
L 482.312034 208.42783 
L 482.700736 208.62969 
L 483.089439 211.006408 
L 483.478141 211.544623 
L 483.866843 208.888562 
L 484.255545 212.386246 
L 484.644247 211.534682 
L 485.032949 212.708427 
L 485.421651 212.690232 
L 485.810353 209.763383 
L 486.199055 203.185438 
L 487.365161 150.531466 
L 487.753863 160.571681 
L 488.142565 186.898398 
L 488.531267 202.150986 
L 488.919969 204.377174 
L 489.308671 204.789682 
L 489.697373 209.271027 
L 490.086075 210.493487 
L 490.474777 209.245177 
L 491.252181 197.489279 
L 491.640883 191.864171 
L 492.418288 210.758089 
L 492.80699 204.968276 
L 493.584394 209.19777 
L 493.973096 212.958237 
L 494.361798 207.923401 
L 494.7505 207.676273 
L 495.139202 204.954664 
L 495.527904 204.706494 
L 495.916606 205.296146 
L 496.305308 207.782417 
L 496.69401 208.099125 
L 497.082712 206.103903 
L 497.471414 201.766031 
L 498.248818 213.73876 
L 498.63752 209.628249 
L 499.026222 208.471474 
L 499.414924 205.21153 
L 500.58103 160.362596 
L 500.969732 152.29087 
L 501.358434 150.498841 
L 502.135839 160.12431 
L 502.524541 157.405861 
L 503.301945 182.111309 
L 503.690647 199.179641 
L 504.079349 206.910353 
L 504.468051 208.730285 
L 504.856753 206.991766 
L 505.245455 203.674058 
L 505.634157 193.811912 
L 506.022859 193.14867 
L 506.411561 195.162069 
L 506.800263 194.220346 
L 507.577667 212.010102 
L 507.966369 207.088881 
L 508.355071 205.166908 
L 508.743773 205.64418 
L 509.521177 201.31759 
L 509.909879 203.59758 
L 510.298581 202.598679 
L 510.687283 203.789661 
L 511.075985 201.069245 
L 511.85339 198.865467 
L 512.630794 195.825776 
L 513.019496 191.694187 
L 513.408198 194.896412 
L 513.7969 201.272617 
L 514.185602 204.828657 
L 514.574304 202.505442 
L 515.351708 192.217148 
L 515.74041 201.49944 
L 516.129112 204.52351 
L 516.517814 205.698387 
L 516.906516 202.939702 
L 517.68392 192.245049 
L 518.072622 189.962794 
L 518.461324 201.99503 
L 518.850026 206.90635 
L 519.62743 212.980284 
L 520.016132 210.593269 
L 520.404834 215.61766 
L 520.793536 212.546125 
L 521.182239 208.032091 
L 521.570941 205.79776 
L 521.959643 207.187363 
L 522.348345 205.484318 
L 522.737047 206.910075 
L 523.125749 205.718937 
L 523.514451 205.294745 
L 523.903153 207.397595 
L 524.291855 201.48523 
L 525.069259 179.789657 
L 525.457961 172.558654 
L 525.846663 171.999814 
L 526.235365 176.220669 
L 527.012769 201.241451 
L 527.401471 202.255721 
L 527.790173 203.944455 
L 528.178875 201.564894 
L 528.567577 193.618703 
L 528.956279 190.181079 
L 529.344981 194.250684 
L 529.733683 202.46121 
L 530.122385 204.649671 
L 530.511088 205.123448 
L 530.89979 203.71933 
L 531.288492 201.735198 
L 531.677194 205.169549 
L 532.065896 210.498247 
L 532.454598 212.635695 
L 533.232002 209.159729 
L 533.620704 208.303069 
L 534.009406 210.780137 
L 534.398108 204.157232 
L 534.78681 204.935879 
L 535.952916 210.800731 
L 536.341618 207.602365 
L 536.73032 207.636851 
L 537.119022 208.816258 
L 537.507724 209.046148 
L 537.896426 206.099347 
L 538.285128 205.691855 
L 538.67383 199.715928 
L 539.062532 189.643718 
L 539.451234 186.003254 
L 539.839936 176.853625 
L 540.228639 177.433336 
L 540.617341 174.816427 
L 541.006043 177.42947 
L 541.394745 191.968828 
L 541.783447 200.412223 
L 542.172149 201.548494 
L 542.560851 207.00303 
L 542.949553 209.03282 
L 543.338255 210.225227 
L 543.726957 212.390651 
L 544.504361 201.163163 
L 544.893063 199.29129 
L 545.281765 204.717172 
L 545.670467 212.328881 
L 546.447871 212.776214 
L 546.836573 213.619653 
L 547.225275 211.561135 
L 547.613977 207.990628 
L 548.002679 206.435636 
L 548.391381 211.313843 
L 548.780083 208.319073 
L 549.168785 207.045372 
L 549.557488 201.030882 
L 549.94619 190.359857 
L 550.334892 186.758404 
L 550.723594 186.48364 
L 551.500998 201.794457 
L 551.8897 207.300872 
L 552.278402 208.72288 
L 552.667104 208.088827 
L 553.055806 209.971237 
L 553.83321 199.922362 
L 554.221912 206.672119 
L 554.610614 211.28109 
L 554.999316 211.553497 
L 555.77672 209.453898 
L 556.165422 210.010105 
L 556.554124 213.64525 
L 556.942826 214.223436 
L 557.72023 209.696826 
L 558.108932 200.465948 
L 558.497634 195.609473 
L 558.886336 193.024825 
L 559.275039 195.599122 
L 559.663741 196.812609 
L 560.052443 183.981918 
L 560.441145 177.684159 
L 561.218549 169.605257 
L 561.995953 158.864089 
L 562.384655 167.618905 
L 563.162059 195.68444 
L 563.550761 200.294995 
L 563.939463 200.714315 
L 564.716867 205.179167 
L 565.105569 205.836335 
L 565.494271 207.386837 
L 565.882973 207.353653 
L 566.271675 209.986054 
L 566.660377 210.991844 
L 567.049079 208.622732 
L 567.437781 209.457576 
L 567.826483 207.655367 
L 568.215185 202.907605 
L 568.603888 195.931554 
L 568.99259 197.579638 
L 569.381292 196.152919 
L 569.769994 203.825335 
L 570.158696 207.693382 
L 570.547398 213.343677 
L 570.9361 215.174688 
L 571.324802 211.408771 
L 571.713504 211.197834 
L 572.102206 209.976481 
L 572.490908 207.437218 
L 572.87961 208.371175 
L 573.268312 207.092897 
L 573.657014 204.449419 
L 574.045716 202.887741 
L 574.434418 200.540172 
L 574.82312 196.290762 
L 575.211822 187.569331 
L 575.989226 175.731263 
L 577.155332 207.655028 
L 577.544034 208.334335 
L 577.932736 206.591622 
L 579.098843 211.56764 
L 579.876247 214.655996 
L 580.264949 213.8146 
L 580.653651 209.048529 
L 581.042353 208.033669 
L 581.819757 214.88735 
L 582.597161 206.246417 
L 582.985863 204.252479 
L 583.374565 204.950798 
L 583.763267 205.936511 
L 584.151969 207.914975 
L 584.929373 210.407273 
L 585.318075 206.381882 
L 585.706777 204.177564 
L 586.095479 206.282309 
L 586.484181 206.681281 
L 587.261585 210.707352 
L 587.650288 209.485056 
L 588.03899 211.39826 
L 588.427692 211.044321 
L 588.816394 210.997305 
L 589.593798 205.578339 
L 589.9825 204.623433 
L 590.371202 200.835067 
L 590.759904 200.972067 
L 591.537308 210.29488 
L 591.92601 214.275483 
L 592.314712 214.632476 
L 592.703414 214.203274 
L 593.092116 213.226133 
L 593.86952 213.846046 
L 594.258222 213.762398 
L 594.646924 210.35914 
L 595.035626 210.095806 
L 595.424328 213.716727 
L 595.81303 209.07576 
L 596.201732 197.941206 
L 596.590434 193.804185 
L 596.979136 199.373064 
L 597.367839 201.111929 
L 597.756541 204.381903 
L 598.533945 214.823609 
L 598.922647 211.585903 
L 599.700051 180.893312 
L 600.088753 181.004627 
L 600.866157 206.604113 
L 601.254859 207.934756 
L 601.643561 206.788379 
L 602.032263 202.180633 
L 602.420965 199.851245 
L 602.809667 202.780569 
L 603.198369 209.630003 
L 603.587071 210.538697 
L 603.975773 210.60615 
L 604.364475 209.214634 
L 604.753177 210.944553 
L 605.141879 212.118381 
L 605.530581 210.544693 
L 605.919283 210.6554 
L 606.307985 213.813117 
L 607.08539 216.486179 
L 607.474092 216.511398 
L 608.251496 209.416579 
L 608.640198 206.86328 
L 609.417602 195.859966 
L 609.806304 196.139299 
L 610.195006 197.730927 
L 610.583708 197.475042 
L 610.97241 194.812745 
L 611.749814 183.427808 
L 612.138516 182.364718 
L 612.91592 190.243457 
L 613.304622 199.282105 
L 613.693324 203.140316 
L 614.082026 203.357372 
L 614.470728 206.135981 
L 615.248132 214.930741 
L 615.636834 216.067011 
L 616.025536 211.050129 
L 616.414239 208.140284 
L 616.802941 207.241993 
L 617.191643 208.057714 
L 617.580345 207.78635 
L 617.969047 206.668864 
L 618.357749 209.465736 
L 618.746451 211.194157 
L 619.135153 214.327734 
L 619.523855 215.502667 
L 619.912557 216.285105 
L 620.301259 213.013541 
L 620.689961 205.706534 
L 621.078663 201.135305 
L 621.467365 200.190058 
L 621.856067 203.194233 
L 622.244769 204.22182 
L 622.633471 204.746706 
L 623.022173 204.865224 
L 623.410875 208.823476 
L 623.799577 211.175709 
L 624.576981 201.841449 
L 624.965683 202.026665 
L 625.354385 203.696603 
L 626.13179 212.551027 
L 626.520492 214.66516 
L 627.297896 215.120836 
L 627.686598 215.340339 
L 628.0753 213.484616 
L 628.464002 212.713887 
L 628.852704 213.534607 
L 629.241406 213.536068 
L 629.630108 212.803452 
L 630.407512 217.752277 
L 630.796214 217.105362 
L 631.573618 211.240796 
L 631.96232 210.836992 
L 632.351022 205.776977 
L 633.128426 183.803536 
L 633.517128 178.072476 
L 633.90583 179.396462 
L 634.294532 185.517177 
L 634.683234 187.73491 
L 635.071936 182.810798 
L 635.460639 183.012184 
L 636.238043 194.806677 
L 637.404149 176.58829 
L 638.570255 208.209951 
L 638.958957 212.574781 
L 639.347659 213.368548 
L 639.736361 216.123292 
L 640.125063 215.93239 
L 641.291169 205.513972 
L 642.068573 203.978406 
L 643.234679 209.878739 
L 643.623381 212.893385 
L 644.012083 213.697705 
L 644.400785 212.382182 
L 644.789488 209.360774 
L 645.566892 193.745011 
L 645.955594 190.889919 
L 646.344296 190.406136 
L 646.732998 194.603751 
L 647.899104 213.58491 
L 648.287806 218.378323 
L 648.676508 217.23892 
L 649.06521 215.081878 
L 649.842614 212.661623 
L 650.231316 214.133192 
L 650.620018 211.83145 
L 651.00872 207.257737 
L 651.397422 206.581104 
L 651.786124 210.135888 
L 652.174826 211.852218 
L 652.563528 210.969602 
L 652.95223 213.557854 
L 653.340932 209.528931 
L 653.729634 206.983187 
L 654.507039 217.975229 
L 654.895741 216.557709 
L 655.284443 216.56421 
L 655.673145 215.894864 
L 656.061847 211.846321 
L 658.394059 176.554453 
L 658.782761 165.265053 
L 659.171463 164.116715 
L 661.114973 205.574139 
L 661.503675 211.409275 
L 661.892377 213.133525 
L 662.281079 213.201061 
L 662.669781 212.781637 
L 663.058483 213.234458 
L 663.447185 213.270851 
L 663.835888 213.017877 
L 664.22459 215.137956 
L 664.613292 214.027573 
L 665.001994 212.379585 
L 665.779398 203.933754 
L 666.1681 200.749291 
L 666.556802 202.836657 
L 667.722908 210.636772 
L 668.11161 211.703709 
L 669.277716 189.657818 
L 669.666418 188.902083 
L 670.05512 196.842037 
L 670.443822 208.192715 
L 670.832524 211.824334 
L 671.221226 206.230757 
L 671.609928 190.761612 
L 671.99863 182.794491 
L 672.387332 185.862213 
L 672.776034 199.141094 
L 673.164736 202.414775 
L 673.553439 201.909259 
L 673.942141 205.642353 
L 674.330843 211.695212 
L 674.719545 214.83275 
L 675.108247 215.075735 
L 675.496949 214.239595 
L 675.885651 207.8469 
L 676.274353 199.274286 
L 676.663055 200.082807 
L 677.051757 208.303098 
L 677.440459 211.813086 
L 677.829161 213.570639 
L 678.217863 211.866065 
L 678.606565 208.677571 
L 678.995267 209.47336 
L 679.383969 210.866426 
L 679.772671 211.646251 
L 680.161373 213.16573 
L 680.550075 212.965494 
L 680.938777 213.842162 
L 681.327479 211.73574 
L 681.716181 210.488088 
L 682.104883 211.316827 
L 682.493585 208.781992 
L 682.882288 208.292323 
L 683.27099 210.840918 
L 684.048394 213.549825 
L 684.437096 212.791301 
L 684.825798 212.985599 
L 685.2145 211.607715 
L 685.603202 207.467893 
L 685.991904 206.863123 
L 686.380606 204.466008 
L 686.769308 209.192058 
L 687.15801 211.5405 
L 687.546712 212.442786 
L 687.935414 214.849999 
L 688.324116 212.719417 
L 688.712818 211.25749 
L 689.10152 215.534688 
L 690.267626 213.248829 
L 690.656328 210.336482 
L 691.04503 211.857368 
L 691.433732 215.35765 
L 691.822434 217.102731 
L 692.211136 215.834535 
L 692.599839 207.269252 
L 693.377243 185.561939 
L 693.765945 183.056051 
L 694.154647 189.606716 
L 694.543349 198.918725 
L 694.932051 201.4068 
L 695.709455 202.18685 
L 696.098157 199.41553 
L 696.486859 201.540337 
L 696.875561 197.270498 
L 697.264263 198.124394 
L 697.652965 207.395714 
L 698.041667 213.999521 
L 698.430369 214.605371 
L 698.819071 216.228912 
L 699.207773 215.571415 
L 699.596475 215.457619 
L 699.985177 215.643222 
L 700.762581 214.429196 
L 701.151283 207.538866 
L 701.539985 206.916287 
L 701.928688 212.352862 
L 702.31739 215.697479 
L 702.706092 215.957174 
L 703.094794 216.976004 
L 703.483496 217.601822 
L 703.872198 214.487409 
L 704.2609 206.187187 
L 704.649602 191.013854 
L 705.038304 182.063002 
L 705.038304 182.063002 
" style="fill:none;stroke:#1f77b4;stroke-linecap:square;stroke-width:2;"/>
   </g>
   <g id="patch_3">
    <path d="M 35.304688 279 
L 35.304688 7.2 
" style="fill:none;stroke:#000000;stroke-linecap:square;stroke-linejoin:miter;stroke-width:0.8;"/>
   </g>
   <g id="patch_4">
    <path d="M 704.904688 279 
L 704.904688 7.2 
" style="fill:none;stroke:#000000;stroke-linecap:square;stroke-linejoin:miter;stroke-width:0.8;"/>
   </g>
   <g id="patch_5">
    <path d="M 35.304688 279 
L 704.904688 279 
" style="fill:none;stroke:#000000;stroke-linecap:square;stroke-linejoin:miter;stroke-width:0.8;"/>
   </g>
   <g id="patch_6">
    <path d="M 35.304688 7.2 
L 704.904688 7.2 
" style="fill:none;stroke:#000000;stroke-linecap:square;stroke-linejoin:miter;stroke-width:0.8;"/>
   </g>
  </g>
 </g>
 <defs>
  <clipPath id="p779ca69940">
   <rect height="271.8" width="669.6" x="35.304688" y="7.2"/>
  </clipPath>
 </defs>
</svg>
