<?xml version="1.0" encoding="utf-8" standalone="no"?>
<!DOCTYPE svg PUBLIC "-//W3C//DTD SVG 1.1//EN"
  "http://www.w3.org/Graphics/SVG/1.1/DTD/svg11.dtd">
<svg xmlns:xlink="http://www.w3.org/1999/xlink" width="718.467188pt" height="321.95625pt" viewBox="0 0 718.467188 321.95625" xmlns="http://www.w3.org/2000/svg" version="1.1">
 <metadata>
  <rdf:RDF xmlns:dc="http://purl.org/dc/elements/1.1/" xmlns:cc="http://creativecommons.org/ns#" xmlns:rdf="http://www.w3.org/1999/02/22-rdf-syntax-ns#">
   <cc:Work>
    <dc:type rdf:resource="http://purl.org/dc/dcmitype/StillImage"/>
    <dc:date>2023-03-19T17:58:53.707646</dc:date>
    <dc:format>image/svg+xml</dc:format>
    <dc:creator>
     <cc:Agent>
      <dc:title>Matplotlib v3.5.2, https://matplotlib.org/</dc:title>
     </cc:Agent>
    </dc:creator>
   </cc:Work>
  </rdf:RDF>
 </metadata>
 <defs>
  <style type="text/css">*{stroke-linejoin: round; stroke-linecap: butt}</style>
 </defs>
 <g id="figure_1">
  <g id="patch_1">
   <path d="M 0 321.95625 
L 718.467188 321.95625 
L 718.467188 0 
L 0 0 
z
" style="fill: #ffffff"/>
  </g>
  <g id="axes_1">
   <g id="patch_2">
    <path d="M 35.304688 284.4 
L 704.904688 284.4 
L 704.904688 7.2 
L 35.304688 7.2 
z
" style="fill: #ffffff"/>
   </g>
   <g id="matplotlib.axis_1">
    <g id="xtick_1">
     <g id="line2d_1">
      <defs>
       <path id="m77a58e9c48" d="M 0 0 
L 0 3.5 
" style="stroke: #000000; stroke-width: 0.8"/>
      </defs>
      <g>
       <use xlink:href="#m77a58e9c48" x="35.304688" y="284.4" style="stroke: #000000; stroke-width: 0.8"/>
      </g>
     </g>
     <g id="text_1">
      <!-- 0 -->
      <g transform="translate(32.123438 298.998438)scale(0.1 -0.1)">
       <defs>
        <path id="DejaVuSans-30" d="M 2034 4250 
Q 1547 4250 1301 3770 
Q 1056 3291 1056 2328 
Q 1056 1369 1301 889 
Q 1547 409 2034 409 
Q 2525 409 2770 889 
Q 3016 1369 3016 2328 
Q 3016 3291 2770 3770 
Q 2525 4250 2034 4250 
z
M 2034 4750 
Q 2819 4750 3233 4129 
Q 3647 3509 3647 2328 
Q 3647 1150 3233 529 
Q 2819 -91 2034 -91 
Q 1250 -91 836 529 
Q 422 1150 422 2328 
Q 422 3509 836 4129 
Q 1250 4750 2034 4750 
z
" transform="scale(0.015625)"/>
       </defs>
       <use xlink:href="#DejaVuSans-30"/>
      </g>
     </g>
    </g>
    <g id="xtick_2">
     <g id="line2d_2">
      <g>
       <use xlink:href="#m77a58e9c48" x="169.224688" y="284.4" style="stroke: #000000; stroke-width: 0.8"/>
      </g>
     </g>
     <g id="text_2">
      <!-- 2 -->
      <g transform="translate(166.043438 298.998438)scale(0.1 -0.1)">
       <defs>
        <path id="DejaVuSans-32" d="M 1228 531 
L 3431 531 
L 3431 0 
L 469 0 
L 469 531 
Q 828 903 1448 1529 
Q 2069 2156 2228 2338 
Q 2531 2678 2651 2914 
Q 2772 3150 2772 3378 
Q 2772 3750 2511 3984 
Q 2250 4219 1831 4219 
Q 1534 4219 1204 4116 
Q 875 4013 500 3803 
L 500 4441 
Q 881 4594 1212 4672 
Q 1544 4750 1819 4750 
Q 2544 4750 2975 4387 
Q 3406 4025 3406 3419 
Q 3406 3131 3298 2873 
Q 3191 2616 2906 2266 
Q 2828 2175 2409 1742 
Q 1991 1309 1228 531 
z
" transform="scale(0.015625)"/>
       </defs>
       <use xlink:href="#DejaVuSans-32"/>
      </g>
     </g>
    </g>
    <g id="xtick_3">
     <g id="line2d_3">
      <g>
       <use xlink:href="#m77a58e9c48" x="303.144688" y="284.4" style="stroke: #000000; stroke-width: 0.8"/>
      </g>
     </g>
     <g id="text_3">
      <!-- 4 -->
      <g transform="translate(299.963438 298.998438)scale(0.1 -0.1)">
       <defs>
        <path id="DejaVuSans-34" d="M 2419 4116 
L 825 1625 
L 2419 1625 
L 2419 4116 
z
M 2253 4666 
L 3047 4666 
L 3047 1625 
L 3713 1625 
L 3713 1100 
L 3047 1100 
L 3047 0 
L 2419 0 
L 2419 1100 
L 313 1100 
L 313 1709 
L 2253 4666 
z
" transform="scale(0.015625)"/>
       </defs>
       <use xlink:href="#DejaVuSans-34"/>
      </g>
     </g>
    </g>
    <g id="xtick_4">
     <g id="line2d_4">
      <g>
       <use xlink:href="#m77a58e9c48" x="437.064688" y="284.4" style="stroke: #000000; stroke-width: 0.8"/>
      </g>
     </g>
     <g id="text_4">
      <!-- 6 -->
      <g transform="translate(433.883438 298.998438)scale(0.1 -0.1)">
       <defs>
        <path id="DejaVuSans-36" d="M 2113 2584 
Q 1688 2584 1439 2293 
Q 1191 2003 1191 1497 
Q 1191 994 1439 701 
Q 1688 409 2113 409 
Q 2538 409 2786 701 
Q 3034 994 3034 1497 
Q 3034 2003 2786 2293 
Q 2538 2584 2113 2584 
z
M 3366 4563 
L 3366 3988 
Q 3128 4100 2886 4159 
Q 2644 4219 2406 4219 
Q 1781 4219 1451 3797 
Q 1122 3375 1075 2522 
Q 1259 2794 1537 2939 
Q 1816 3084 2150 3084 
Q 2853 3084 3261 2657 
Q 3669 2231 3669 1497 
Q 3669 778 3244 343 
Q 2819 -91 2113 -91 
Q 1303 -91 875 529 
Q 447 1150 447 2328 
Q 447 3434 972 4092 
Q 1497 4750 2381 4750 
Q 2619 4750 2861 4703 
Q 3103 4656 3366 4563 
z
" transform="scale(0.015625)"/>
       </defs>
       <use xlink:href="#DejaVuSans-36"/>
      </g>
     </g>
    </g>
    <g id="xtick_5">
     <g id="line2d_5">
      <g>
       <use xlink:href="#m77a58e9c48" x="570.984688" y="284.4" style="stroke: #000000; stroke-width: 0.8"/>
      </g>
     </g>
     <g id="text_5">
      <!-- 8 -->
      <g transform="translate(567.803438 298.998438)scale(0.1 -0.1)">
       <defs>
        <path id="DejaVuSans-38" d="M 2034 2216 
Q 1584 2216 1326 1975 
Q 1069 1734 1069 1313 
Q 1069 891 1326 650 
Q 1584 409 2034 409 
Q 2484 409 2743 651 
Q 3003 894 3003 1313 
Q 3003 1734 2745 1975 
Q 2488 2216 2034 2216 
z
M 1403 2484 
Q 997 2584 770 2862 
Q 544 3141 544 3541 
Q 544 4100 942 4425 
Q 1341 4750 2034 4750 
Q 2731 4750 3128 4425 
Q 3525 4100 3525 3541 
Q 3525 3141 3298 2862 
Q 3072 2584 2669 2484 
Q 3125 2378 3379 2068 
Q 3634 1759 3634 1313 
Q 3634 634 3220 271 
Q 2806 -91 2034 -91 
Q 1263 -91 848 271 
Q 434 634 434 1313 
Q 434 1759 690 2068 
Q 947 2378 1403 2484 
z
M 1172 3481 
Q 1172 3119 1398 2916 
Q 1625 2713 2034 2713 
Q 2441 2713 2670 2916 
Q 2900 3119 2900 3481 
Q 2900 3844 2670 4047 
Q 2441 4250 2034 4250 
Q 1625 4250 1398 4047 
Q 1172 3844 1172 3481 
z
" transform="scale(0.015625)"/>
       </defs>
       <use xlink:href="#DejaVuSans-38"/>
      </g>
     </g>
    </g>
    <g id="xtick_6">
     <g id="line2d_6">
      <g>
       <use xlink:href="#m77a58e9c48" x="704.904688" y="284.4" style="stroke: #000000; stroke-width: 0.8"/>
      </g>
     </g>
     <g id="text_6">
      <!-- 10 -->
      <g transform="translate(698.542188 298.998438)scale(0.1 -0.1)">
       <defs>
        <path id="DejaVuSans-31" d="M 794 531 
L 1825 531 
L 1825 4091 
L 703 3866 
L 703 4441 
L 1819 4666 
L 2450 4666 
L 2450 531 
L 3481 531 
L 3481 0 
L 794 0 
L 794 531 
z
" transform="scale(0.015625)"/>
       </defs>
       <use xlink:href="#DejaVuSans-31"/>
       <use xlink:href="#DejaVuSans-30" x="63.623047"/>
      </g>
     </g>
    </g>
    <g id="text_7">
     <!-- Time (Sec) -->
     <g transform="translate(343.380469 312.676562)scale(0.1 -0.1)">
      <defs>
       <path id="DejaVuSans-54" d="M -19 4666 
L 3928 4666 
L 3928 4134 
L 2272 4134 
L 2272 0 
L 1638 0 
L 1638 4134 
L -19 4134 
L -19 4666 
z
" transform="scale(0.015625)"/>
       <path id="DejaVuSans-69" d="M 603 3500 
L 1178 3500 
L 1178 0 
L 603 0 
L 603 3500 
z
M 603 4863 
L 1178 4863 
L 1178 4134 
L 603 4134 
L 603 4863 
z
" transform="scale(0.015625)"/>
       <path id="DejaVuSans-6d" d="M 3328 2828 
Q 3544 3216 3844 3400 
Q 4144 3584 4550 3584 
Q 5097 3584 5394 3201 
Q 5691 2819 5691 2113 
L 5691 0 
L 5113 0 
L 5113 2094 
Q 5113 2597 4934 2840 
Q 4756 3084 4391 3084 
Q 3944 3084 3684 2787 
Q 3425 2491 3425 1978 
L 3425 0 
L 2847 0 
L 2847 2094 
Q 2847 2600 2669 2842 
Q 2491 3084 2119 3084 
Q 1678 3084 1418 2786 
Q 1159 2488 1159 1978 
L 1159 0 
L 581 0 
L 581 3500 
L 1159 3500 
L 1159 2956 
Q 1356 3278 1631 3431 
Q 1906 3584 2284 3584 
Q 2666 3584 2933 3390 
Q 3200 3197 3328 2828 
z
" transform="scale(0.015625)"/>
       <path id="DejaVuSans-65" d="M 3597 1894 
L 3597 1613 
L 953 1613 
Q 991 1019 1311 708 
Q 1631 397 2203 397 
Q 2534 397 2845 478 
Q 3156 559 3463 722 
L 3463 178 
Q 3153 47 2828 -22 
Q 2503 -91 2169 -91 
Q 1331 -91 842 396 
Q 353 884 353 1716 
Q 353 2575 817 3079 
Q 1281 3584 2069 3584 
Q 2775 3584 3186 3129 
Q 3597 2675 3597 1894 
z
M 3022 2063 
Q 3016 2534 2758 2815 
Q 2500 3097 2075 3097 
Q 1594 3097 1305 2825 
Q 1016 2553 972 2059 
L 3022 2063 
z
" transform="scale(0.015625)"/>
       <path id="DejaVuSans-20" transform="scale(0.015625)"/>
       <path id="DejaVuSans-28" d="M 1984 4856 
Q 1566 4138 1362 3434 
Q 1159 2731 1159 2009 
Q 1159 1288 1364 580 
Q 1569 -128 1984 -844 
L 1484 -844 
Q 1016 -109 783 600 
Q 550 1309 550 2009 
Q 550 2706 781 3412 
Q 1013 4119 1484 4856 
L 1984 4856 
z
" transform="scale(0.015625)"/>
       <path id="DejaVuSans-53" d="M 3425 4513 
L 3425 3897 
Q 3066 4069 2747 4153 
Q 2428 4238 2131 4238 
Q 1616 4238 1336 4038 
Q 1056 3838 1056 3469 
Q 1056 3159 1242 3001 
Q 1428 2844 1947 2747 
L 2328 2669 
Q 3034 2534 3370 2195 
Q 3706 1856 3706 1288 
Q 3706 609 3251 259 
Q 2797 -91 1919 -91 
Q 1588 -91 1214 -16 
Q 841 59 441 206 
L 441 856 
Q 825 641 1194 531 
Q 1563 422 1919 422 
Q 2459 422 2753 634 
Q 3047 847 3047 1241 
Q 3047 1584 2836 1778 
Q 2625 1972 2144 2069 
L 1759 2144 
Q 1053 2284 737 2584 
Q 422 2884 422 3419 
Q 422 4038 858 4394 
Q 1294 4750 2059 4750 
Q 2388 4750 2728 4690 
Q 3069 4631 3425 4513 
z
" transform="scale(0.015625)"/>
       <path id="DejaVuSans-63" d="M 3122 3366 
L 3122 2828 
Q 2878 2963 2633 3030 
Q 2388 3097 2138 3097 
Q 1578 3097 1268 2742 
Q 959 2388 959 1747 
Q 959 1106 1268 751 
Q 1578 397 2138 397 
Q 2388 397 2633 464 
Q 2878 531 3122 666 
L 3122 134 
Q 2881 22 2623 -34 
Q 2366 -91 2075 -91 
Q 1284 -91 818 406 
Q 353 903 353 1747 
Q 353 2603 823 3093 
Q 1294 3584 2113 3584 
Q 2378 3584 2631 3529 
Q 2884 3475 3122 3366 
z
" transform="scale(0.015625)"/>
       <path id="DejaVuSans-29" d="M 513 4856 
L 1013 4856 
Q 1481 4119 1714 3412 
Q 1947 2706 1947 2009 
Q 1947 1309 1714 600 
Q 1481 -109 1013 -844 
L 513 -844 
Q 928 -128 1133 580 
Q 1338 1288 1338 2009 
Q 1338 2731 1133 3434 
Q 928 4138 513 4856 
z
" transform="scale(0.015625)"/>
      </defs>
      <use xlink:href="#DejaVuSans-54"/>
      <use xlink:href="#DejaVuSans-69" x="57.958984"/>
      <use xlink:href="#DejaVuSans-6d" x="85.742188"/>
      <use xlink:href="#DejaVuSans-65" x="183.154297"/>
      <use xlink:href="#DejaVuSans-20" x="244.677734"/>
      <use xlink:href="#DejaVuSans-28" x="276.464844"/>
      <use xlink:href="#DejaVuSans-53" x="315.478516"/>
      <use xlink:href="#DejaVuSans-65" x="378.955078"/>
      <use xlink:href="#DejaVuSans-63" x="440.478516"/>
      <use xlink:href="#DejaVuSans-29" x="495.458984"/>
     </g>
    </g>
   </g>
   <g id="matplotlib.axis_2">
    <g id="ytick_1">
     <g id="line2d_7">
      <defs>
       <path id="m9b65fe1899" d="M 0 0 
L -3.5 0 
" style="stroke: #000000; stroke-width: 0.8"/>
      </defs>
      <g>
       <use xlink:href="#m9b65fe1899" x="35.304688" y="273.447391" style="stroke: #000000; stroke-width: 0.8"/>
      </g>
     </g>
     <g id="text_8">
      <!-- −20 -->
      <g transform="translate(7.2 277.246609)scale(0.1 -0.1)">
       <defs>
        <path id="DejaVuSans-2212" d="M 678 2272 
L 4684 2272 
L 4684 1741 
L 678 1741 
L 678 2272 
z
" transform="scale(0.015625)"/>
       </defs>
       <use xlink:href="#DejaVuSans-2212"/>
       <use xlink:href="#DejaVuSans-32" x="83.789062"/>
       <use xlink:href="#DejaVuSans-30" x="147.412109"/>
      </g>
     </g>
    </g>
    <g id="ytick_2">
     <g id="line2d_8">
      <g>
       <use xlink:href="#m9b65fe1899" x="35.304688" y="224.550137" style="stroke: #000000; stroke-width: 0.8"/>
      </g>
     </g>
     <g id="text_9">
      <!-- 0 -->
      <g transform="translate(21.942188 228.349355)scale(0.1 -0.1)">
       <use xlink:href="#DejaVuSans-30"/>
      </g>
     </g>
    </g>
    <g id="ytick_3">
     <g id="line2d_9">
      <g>
       <use xlink:href="#m9b65fe1899" x="35.304688" y="175.652883" style="stroke: #000000; stroke-width: 0.8"/>
      </g>
     </g>
     <g id="text_10">
      <!-- 20 -->
      <g transform="translate(15.579688 179.452101)scale(0.1 -0.1)">
       <use xlink:href="#DejaVuSans-32"/>
       <use xlink:href="#DejaVuSans-30" x="63.623047"/>
      </g>
     </g>
    </g>
    <g id="ytick_4">
     <g id="line2d_10">
      <g>
       <use xlink:href="#m9b65fe1899" x="35.304688" y="126.755628" style="stroke: #000000; stroke-width: 0.8"/>
      </g>
     </g>
     <g id="text_11">
      <!-- 40 -->
      <g transform="translate(15.579688 130.554847)scale(0.1 -0.1)">
       <use xlink:href="#DejaVuSans-34"/>
       <use xlink:href="#DejaVuSans-30" x="63.623047"/>
      </g>
     </g>
    </g>
    <g id="ytick_5">
     <g id="line2d_11">
      <g>
       <use xlink:href="#m9b65fe1899" x="35.304688" y="77.858374" style="stroke: #000000; stroke-width: 0.8"/>
      </g>
     </g>
     <g id="text_12">
      <!-- 60 -->
      <g transform="translate(15.579688 81.657593)scale(0.1 -0.1)">
       <use xlink:href="#DejaVuSans-36"/>
       <use xlink:href="#DejaVuSans-30" x="63.623047"/>
      </g>
     </g>
    </g>
    <g id="ytick_6">
     <g id="line2d_12">
      <g>
       <use xlink:href="#m9b65fe1899" x="35.304688" y="28.96112" style="stroke: #000000; stroke-width: 0.8"/>
      </g>
     </g>
     <g id="text_13">
      <!-- 80 -->
      <g transform="translate(15.579688 32.760339)scale(0.1 -0.1)">
       <use xlink:href="#DejaVuSans-38"/>
       <use xlink:href="#DejaVuSans-30" x="63.623047"/>
      </g>
     </g>
    </g>
   </g>
   <g id="line2d_13">
    <path d="M 35.69339 271.8 
L 35.69339 19.8 
" clip-path="url(#p542653f707)" style="fill: none; stroke: #1f77b4; stroke-linecap: square"/>
   </g>
   <g id="line2d_14">
    <path d="M 78.450614 271.8 
L 78.450614 19.8 
" clip-path="url(#p542653f707)" style="fill: none; stroke: #ff7f0e; stroke-linecap: square"/>
   </g>
   <g id="line2d_15">
    <path d="M 102.550141 271.8 
L 102.550141 19.8 
" clip-path="url(#p542653f707)" style="fill: none; stroke: #2ca02c; stroke-linecap: square"/>
   </g>
   <g id="line2d_16">
    <path d="M 130.92539 271.8 
L 130.92539 19.8 
" clip-path="url(#p542653f707)" style="fill: none; stroke: #d62728; stroke-linecap: square"/>
   </g>
   <g id="line2d_17">
    <path d="M 157.357128 271.8 
L 157.357128 19.8 
" clip-path="url(#p542653f707)" style="fill: none; stroke: #9467bd; stroke-linecap: square"/>
   </g>
   <g id="line2d_18">
    <path d="M 182.234059 271.8 
L 182.234059 19.8 
" clip-path="url(#p542653f707)" style="fill: none; stroke: #8c564b; stroke-linecap: square"/>
   </g>
   <g id="line2d_19">
    <path d="M 208.665798 271.8 
L 208.665798 19.8 
" clip-path="url(#p542653f707)" style="fill: none; stroke: #e377c2; stroke-linecap: square"/>
   </g>
   <g id="line2d_20">
    <path d="M 237.818451 271.8 
L 237.818451 19.8 
" clip-path="url(#p542653f707)" style="fill: none; stroke: #7f7f7f; stroke-linecap: square"/>
   </g>
   <g id="line2d_21">
    <path d="M 263.084083 271.8 
L 263.084083 19.8 
" clip-path="url(#p542653f707)" style="fill: none; stroke: #bcbd22; stroke-linecap: square"/>
   </g>
   <g id="line2d_22">
    <path d="M 291.459332 271.8 
L 291.459332 19.8 
" clip-path="url(#p542653f707)" style="fill: none; stroke: #17becf; stroke-linecap: square"/>
   </g>
   <g id="line2d_23">
    <path d="M 316.724965 271.8 
L 316.724965 19.8 
" clip-path="url(#p542653f707)" style="fill: none; stroke: #1f77b4; stroke-linecap: square"/>
   </g>
   <g id="line2d_24">
    <path d="M 341.990598 271.8 
L 341.990598 19.8 
" clip-path="url(#p542653f707)" style="fill: none; stroke: #ff7f0e; stroke-linecap: square"/>
   </g>
   <g id="line2d_25">
    <path d="M 369.588443 271.8 
L 369.588443 19.8 
" clip-path="url(#p542653f707)" style="fill: none; stroke: #2ca02c; stroke-linecap: square"/>
   </g>
   <g id="line2d_26">
    <path d="M 395.631479 271.8 
L 395.631479 19.8 
" clip-path="url(#p542653f707)" style="fill: none; stroke: #d62728; stroke-linecap: square"/>
   </g>
   <g id="line2d_27">
    <path d="M 420.50841 271.8 
L 420.50841 19.8 
" clip-path="url(#p542653f707)" style="fill: none; stroke: #9467bd; stroke-linecap: square"/>
   </g>
   <g id="line2d_28">
    <path d="M 448.106255 271.8 
L 448.106255 19.8 
" clip-path="url(#p542653f707)" style="fill: none; stroke: #8c564b; stroke-linecap: square"/>
   </g>
   <g id="line2d_29">
    <path d="M 475.315398 271.8 
L 475.315398 19.8 
" clip-path="url(#p542653f707)" style="fill: none; stroke: #e377c2; stroke-linecap: square"/>
   </g>
   <g id="line2d_30">
    <path d="M 500.58103 271.8 
L 500.58103 19.8 
" clip-path="url(#p542653f707)" style="fill: none; stroke: #7f7f7f; stroke-linecap: square"/>
   </g>
   <g id="line2d_31">
    <path d="M 527.401471 271.8 
L 527.401471 19.8 
" clip-path="url(#p542653f707)" style="fill: none; stroke: #bcbd22; stroke-linecap: square"/>
   </g>
   <g id="line2d_32">
    <path d="M 551.8897 271.8 
L 551.8897 19.8 
" clip-path="url(#p542653f707)" style="fill: none; stroke: #17becf; stroke-linecap: square"/>
   </g>
   <g id="line2d_33">
    <path d="M 581.042353 271.8 
L 581.042353 19.8 
" clip-path="url(#p542653f707)" style="fill: none; stroke: #1f77b4; stroke-linecap: square"/>
   </g>
   <g id="line2d_34">
    <path d="M 606.307985 271.8 
L 606.307985 19.8 
" clip-path="url(#p542653f707)" style="fill: none; stroke: #ff7f0e; stroke-linecap: square"/>
   </g>
   <g id="line2d_35">
    <path d="M 633.128426 271.8 
L 633.128426 19.8 
" clip-path="url(#p542653f707)" style="fill: none; stroke: #2ca02c; stroke-linecap: square"/>
   </g>
   <g id="line2d_36">
    <path d="M 656.839251 271.8 
L 656.839251 19.8 
" clip-path="url(#p542653f707)" style="fill: none; stroke: #d62728; stroke-linecap: square"/>
   </g>
   <g id="line2d_37">
    <path d="M 683.659692 271.8 
L 683.659692 19.8 
" clip-path="url(#p542653f707)" style="fill: none; stroke: #9467bd; stroke-linecap: square"/>
   </g>
   <g id="line2d_38">
    <path d="M 711.257536 271.8 
L 711.257536 19.8 
" clip-path="url(#p542653f707)" style="fill: none; stroke: #8c564b; stroke-linecap: square"/>
   </g>
   <g id="line2d_39">
    <path clip-path="url(#p542653f707)" style="fill: none; stroke: #e377c2; stroke-linecap: square"/>
   </g>
   <g id="line2d_40">
    <path clip-path="url(#p542653f707)" style="fill: none; stroke: #7f7f7f; stroke-linecap: square"/>
   </g>
   <g id="line2d_41">
    <path clip-path="url(#p542653f707)" style="fill: none; stroke: #bcbd22; stroke-linecap: square"/>
   </g>
   <g id="line2d_42">
    <path clip-path="url(#p542653f707)" style="fill: none; stroke: #17becf; stroke-linecap: square"/>
   </g>
   <g id="line2d_43">
    <path clip-path="url(#p542653f707)" style="fill: none; stroke: #1f77b4; stroke-linecap: square"/>
   </g>
   <g id="line2d_44">
    <path clip-path="url(#p542653f707)" style="fill: none; stroke: #ff7f0e; stroke-linecap: square"/>
   </g>
   <g id="line2d_45">
    <path clip-path="url(#p542653f707)" style="fill: none; stroke: #2ca02c; stroke-linecap: square"/>
   </g>
   <g id="line2d_46">
    <path clip-path="url(#p542653f707)" style="fill: none; stroke: #d62728; stroke-linecap: square"/>
   </g>
   <g id="line2d_47">
    <path clip-path="url(#p542653f707)" style="fill: none; stroke: #9467bd; stroke-linecap: square"/>
   </g>
   <g id="line2d_48">
    <path clip-path="url(#p542653f707)" style="fill: none; stroke: #8c564b; stroke-linecap: square"/>
   </g>
   <g id="line2d_49">
    <path clip-path="url(#p542653f707)" style="fill: none; stroke: #e377c2; stroke-linecap: square"/>
   </g>
   <g id="line2d_50">
    <path clip-path="url(#p542653f707)" style="fill: none; stroke: #7f7f7f; stroke-linecap: square"/>
   </g>
   <g id="line2d_51">
    <path clip-path="url(#p542653f707)" style="fill: none; stroke: #bcbd22; stroke-linecap: square"/>
   </g>
   <g id="line2d_52">
    <path clip-path="url(#p542653f707)" style="fill: none; stroke: #17becf; stroke-linecap: square"/>
   </g>
   <g id="line2d_53">
    <path clip-path="url(#p542653f707)" style="fill: none; stroke: #1f77b4; stroke-linecap: square"/>
   </g>
   <g id="line2d_54">
    <path clip-path="url(#p542653f707)" style="fill: none; stroke: #ff7f0e; stroke-linecap: square"/>
   </g>
   <g id="line2d_55">
    <path clip-path="url(#p542653f707)" style="fill: none; stroke: #2ca02c; stroke-linecap: square"/>
   </g>
   <g id="line2d_56">
    <path clip-path="url(#p542653f707)" style="fill: none; stroke: #d62728; stroke-linecap: square"/>
   </g>
   <g id="line2d_57">
    <path clip-path="url(#p542653f707)" style="fill: none; stroke: #9467bd; stroke-linecap: square"/>
   </g>
   <g id="line2d_58">
    <path clip-path="url(#p542653f707)" style="fill: none; stroke: #8c564b; stroke-linecap: square"/>
   </g>
   <g id="line2d_59">
    <path clip-path="url(#p542653f707)" style="fill: none; stroke: #e377c2; stroke-linecap: square"/>
   </g>
   <g id="line2d_60">
    <path clip-path="url(#p542653f707)" style="fill: none; stroke: #7f7f7f; stroke-linecap: square"/>
   </g>
   <g id="line2d_61">
    <path clip-path="url(#p542653f707)" style="fill: none; stroke: #bcbd22; stroke-linecap: square"/>
   </g>
   <g id="line2d_62">
    <path clip-path="url(#p542653f707)" style="fill: none; stroke: #17becf; stroke-linecap: square"/>
   </g>
   <g id="line2d_63">
    <path clip-path="url(#p542653f707)" style="fill: none; stroke: #1f77b4; stroke-linecap: square"/>
   </g>
   <g id="line2d_64">
    <path clip-path="url(#p542653f707)" style="fill: none; stroke: #ff7f0e; stroke-linecap: square"/>
   </g>
   <g id="line2d_65">
    <path clip-path="url(#p542653f707)" style="fill: none; stroke: #2ca02c; stroke-linecap: square"/>
   </g>
   <g id="line2d_66">
    <path clip-path="url(#p542653f707)" style="fill: none; stroke: #d62728; stroke-linecap: square"/>
   </g>
   <g id="line2d_67">
    <path clip-path="url(#p542653f707)" style="fill: none; stroke: #9467bd; stroke-linecap: square"/>
   </g>
   <g id="line2d_68">
    <path clip-path="url(#p542653f707)" style="fill: none; stroke: #8c564b; stroke-linecap: square"/>
   </g>
   <g id="line2d_69">
    <path clip-path="url(#p542653f707)" style="fill: none; stroke: #e377c2; stroke-linecap: square"/>
   </g>
   <g id="line2d_70">
    <path clip-path="url(#p542653f707)" style="fill: none; stroke: #7f7f7f; stroke-linecap: square"/>
   </g>
   <g id="line2d_71">
    <path clip-path="url(#p542653f707)" style="fill: none; stroke: #bcbd22; stroke-linecap: square"/>
   </g>
   <g id="line2d_72">
    <path clip-path="url(#p542653f707)" style="fill: none; stroke: #17becf; stroke-linecap: square"/>
   </g>
   <g id="line2d_73">
    <path clip-path="url(#p542653f707)" style="fill: none; stroke: #1f77b4; stroke-linecap: square"/>
   </g>
   <g id="line2d_74">
    <path clip-path="url(#p542653f707)" style="fill: none; stroke: #ff7f0e; stroke-linecap: square"/>
   </g>
   <g id="line2d_75">
    <path clip-path="url(#p542653f707)" style="fill: none; stroke: #2ca02c; stroke-linecap: square"/>
   </g>
   <g id="line2d_76">
    <path clip-path="url(#p542653f707)" style="fill: none; stroke: #d62728; stroke-linecap: square"/>
   </g>
   <g id="line2d_77">
    <path clip-path="url(#p542653f707)" style="fill: none; stroke: #9467bd; stroke-linecap: square"/>
   </g>
   <g id="line2d_78">
    <path clip-path="url(#p542653f707)" style="fill: none; stroke: #8c564b; stroke-linecap: square"/>
   </g>
   <g id="line2d_79">
    <path clip-path="url(#p542653f707)" style="fill: none; stroke: #e377c2; stroke-linecap: square"/>
   </g>
   <g id="line2d_80">
    <path clip-path="url(#p542653f707)" style="fill: none; stroke: #7f7f7f; stroke-linecap: square"/>
   </g>
   <g id="line2d_81">
    <path clip-path="url(#p542653f707)" style="fill: none; stroke: #bcbd22; stroke-linecap: square"/>
   </g>
   <g id="line2d_82">
    <path clip-path="url(#p542653f707)" style="fill: none; stroke: #17becf; stroke-linecap: square"/>
   </g>
   <g id="line2d_83">
    <path clip-path="url(#p542653f707)" style="fill: none; stroke: #1f77b4; stroke-linecap: square"/>
   </g>
   <g id="line2d_84">
    <path clip-path="url(#p542653f707)" style="fill: none; stroke: #ff7f0e; stroke-linecap: square"/>
   </g>
   <g id="line2d_85">
    <path clip-path="url(#p542653f707)" style="fill: none; stroke: #2ca02c; stroke-linecap: square"/>
   </g>
   <g id="line2d_86">
    <path clip-path="url(#p542653f707)" style="fill: none; stroke: #d62728; stroke-linecap: square"/>
   </g>
   <g id="line2d_87">
    <path clip-path="url(#p542653f707)" style="fill: none; stroke: #9467bd; stroke-linecap: square"/>
   </g>
   <g id="line2d_88">
    <path clip-path="url(#p542653f707)" style="fill: none; stroke: #8c564b; stroke-linecap: square"/>
   </g>
   <g id="line2d_89">
    <path d="M 35.304688 201.915531 
L 35.69339 185.499968 
L 36.082092 187.559143 
L 36.470794 186.083243 
L 36.859496 162.932471 
L 37.248198 150.397103 
L 37.6369 142.131895 
L 38.025602 157.363865 
L 38.414304 185.863038 
L 38.803006 195.992075 
L 39.191708 192.026593 
L 39.58041 179.621613 
L 39.969112 185.047065 
L 40.357814 199.467728 
L 40.746516 183.64641 
L 42.301324 213.67244 
L 42.690026 215.891567 
L 43.078728 217.074118 
L 43.46743 220.966156 
L 43.856132 222.534223 
L 44.244834 222.549859 
L 44.633536 218.170929 
L 45.022239 209.942149 
L 45.410941 206.44439 
L 45.799643 204.565426 
L 46.188345 198.871249 
L 46.577047 196.453111 
L 46.965749 193.221175 
L 47.354451 178.669626 
L 47.743153 170.994336 
L 48.131855 169.231519 
L 48.909259 119.262371 
L 49.686663 92.789683 
L 51.241471 160.401262 
L 51.630173 170.490314 
L 52.018875 175.54452 
L 52.407577 195.511283 
L 52.796279 206.263915 
L 53.184981 210.06537 
L 53.573683 212.333547 
L 53.962385 206.308762 
L 54.351088 207.782376 
L 54.73979 212.167485 
L 55.128492 212.582449 
L 55.517194 220.151114 
L 55.905896 222.793209 
L 56.294598 220.921067 
L 56.6833 220.677625 
L 57.072002 219.683493 
L 57.460704 217.654805 
L 57.849406 206.329661 
L 58.238108 206.293976 
L 58.62681 209.404109 
L 59.015512 210.065598 
L 59.404214 207.858307 
L 59.792916 209.525103 
L 60.181618 213.947502 
L 60.57032 214.593668 
L 60.959022 216.024505 
L 61.347724 211.497599 
L 61.736426 205.047092 
L 62.125128 189.796424 
L 63.291234 163.863213 
L 63.679936 173.879324 
L 64.068639 187.264199 
L 64.457341 180.349439 
L 65.234745 209.867314 
L 65.623447 210.551843 
L 66.012149 203.414768 
L 66.400851 199.812875 
L 66.789553 193.878482 
L 67.178255 185.310063 
L 67.566957 197.68486 
L 67.955659 196.207417 
L 68.344361 201.267644 
L 68.733063 210.926814 
L 69.121765 206.656026 
L 69.510467 192.514462 
L 69.899169 190.511241 
L 70.676573 200.778074 
L 71.065275 206.208979 
L 71.842679 213.40777 
L 72.231381 210.84492 
L 72.620083 211.271222 
L 73.008785 220.612309 
L 74.174892 206.855364 
L 74.952296 187.376059 
L 75.340998 191.837137 
L 75.7297 199.154112 
L 76.118402 197.594329 
L 76.507104 192.057094 
L 76.895806 190.719526 
L 77.284508 190.052034 
L 78.450614 138.899133 
L 78.839316 156.385414 
L 79.61672 195.779579 
L 80.005422 207.481646 
L 80.782826 214.54518 
L 81.171528 211.816599 
L 81.56023 211.099265 
L 81.948932 214.535846 
L 82.337634 214.409213 
L 83.115039 192.163618 
L 83.892443 216.925846 
L 84.281145 218.697327 
L 84.669847 218.425348 
L 85.058549 215.825059 
L 85.447251 215.666129 
L 85.835953 211.865686 
L 86.224655 211.353753 
L 87.002059 164.699796 
L 87.390761 149.763228 
L 87.779463 149.840432 
L 88.168165 154.175208 
L 88.556867 160.714493 
L 88.945569 163.672864 
L 89.334271 160.17539 
L 90.111675 140.333601 
L 90.500377 144.774404 
L 90.889079 150.604682 
L 91.277781 171.429182 
L 91.666483 173.710869 
L 92.055185 170.278419 
L 92.443888 174.945303 
L 92.83259 168.320529 
L 93.221292 175.591381 
L 93.609994 200.61671 
L 93.998696 213.745037 
L 94.7761 206.617717 
L 95.164802 205.924292 
L 95.942206 220.733174 
L 96.330908 218.222667 
L 96.71961 213.944191 
L 97.108312 205.742142 
L 97.497014 209.369393 
L 97.885716 218.555938 
L 98.274418 220.505704 
L 98.66312 220.684906 
L 99.051822 222.862984 
L 99.440524 222.203236 
L 99.829226 209.931174 
L 100.217928 183.401181 
L 100.995332 164.622197 
L 101.384034 163.9683 
L 101.772736 129.686754 
L 102.161439 106.713795 
L 102.550141 103.073863 
L 102.938843 120.202478 
L 103.716247 194.069697 
L 104.104949 205.986721 
L 104.493651 211.392361 
L 104.882353 207.216734 
L 105.271055 197.941562 
L 105.659757 199.683172 
L 106.048459 199.723487 
L 106.437161 203.278817 
L 106.825863 204.208255 
L 107.603267 208.528322 
L 107.991969 214.103251 
L 108.380671 214.244051 
L 108.769373 215.489194 
L 109.158075 215.655667 
L 109.546777 220.394783 
L 109.935479 223.087033 
L 110.324181 222.93604 
L 110.712883 221.194632 
L 111.101585 218.8826 
L 111.490288 218.328631 
L 111.87899 216.714707 
L 112.267692 221.073031 
L 112.656394 218.093747 
L 113.045096 210.078154 
L 113.433798 212.446355 
L 113.8225 210.343605 
L 114.599904 199.451487 
L 114.988606 192.11506 
L 115.377308 188.198386 
L 115.76601 171.480209 
L 116.154712 161.408219 
L 116.543414 155.209144 
L 117.320818 150.765593 
L 117.70952 151.224092 
L 118.098222 152.87358 
L 118.486924 161.188279 
L 118.875626 176.954579 
L 119.264328 203.09195 
L 120.041732 216.880462 
L 120.430434 222.485495 
L 120.819136 218.469806 
L 121.207839 206.020763 
L 121.596541 188.749458 
L 121.985243 191.986809 
L 122.373945 208.411739 
L 122.762647 215.906801 
L 123.151349 214.698521 
L 123.540051 219.218191 
L 123.928753 217.659627 
L 124.317455 213.286103 
L 124.706157 197.739863 
L 125.483561 212.270953 
L 125.872263 211.845608 
L 126.260965 214.834144 
L 126.649667 209.780107 
L 127.038369 196.688031 
L 127.427071 178.96126 
L 127.815773 154.234707 
L 128.204475 138.628707 
L 128.981879 128.090881 
L 129.370581 123.671386 
L 129.759283 122.636676 
L 130.147985 124.693776 
L 130.536688 122.148755 
L 130.92539 114.427134 
L 131.314092 128.824558 
L 132.091496 194.173739 
L 132.480198 208.274392 
L 132.8689 203.485113 
L 133.257602 189.257978 
L 133.646304 181.98886 
L 134.035006 185.239986 
L 134.423708 200.507099 
L 134.81241 208.734844 
L 135.201112 209.122305 
L 135.589814 216.547451 
L 135.978516 216.927841 
L 136.367218 209.543022 
L 137.144622 205.908854 
L 137.533324 208.676148 
L 137.922026 215.699523 
L 138.69943 221.903015 
L 139.088132 220.642314 
L 139.476834 214.731124 
L 139.865536 206.69994 
L 140.254239 207.914848 
L 140.642941 206.394912 
L 141.031643 198.648701 
L 141.420345 199.296774 
L 141.809047 196.348922 
L 142.197749 195.026154 
L 142.586451 199.144106 
L 142.975153 185.347278 
L 143.363855 189.841619 
L 143.752557 192.634429 
L 144.529961 200.07339 
L 144.918663 200.542109 
L 145.307365 201.743722 
L 146.084769 212.282014 
L 146.473471 213.919494 
L 146.862173 209.728281 
L 147.639577 203.69357 
L 148.028279 196.345069 
L 148.416981 206.333455 
L 149.194385 218.444109 
L 149.583088 217.204993 
L 149.97179 214.079024 
L 150.360492 216.320834 
L 150.749194 211.853908 
L 151.137896 196.663821 
L 151.526598 195.253487 
L 151.9153 195.654626 
L 152.304002 198.054274 
L 152.692704 199.182564 
L 153.470108 210.40416 
L 153.85881 204.52212 
L 154.247512 191.330058 
L 154.636214 188.709983 
L 155.024916 188.62389 
L 155.413618 190.772389 
L 155.80232 196.263335 
L 156.191022 196.880341 
L 156.579724 191.784971 
L 157.357128 162.578612 
L 157.74583 173.712509 
L 158.134532 179.894479 
L 158.911936 206.346849 
L 159.300639 209.356614 
L 160.078043 203.854257 
L 160.855447 186.991371 
L 161.244149 203.944758 
L 161.632851 208.825217 
L 162.021553 211.422913 
L 162.410255 217.714773 
L 162.798957 216.966166 
L 163.187659 219.473238 
L 163.576361 218.963671 
L 163.965063 214.434616 
L 164.353765 211.891043 
L 164.742467 206.703999 
L 165.131169 203.186721 
L 165.519871 197.138298 
L 166.297275 208.037211 
L 166.685977 196.935626 
L 167.463381 141.92522 
L 167.852083 124.889477 
L 168.240785 120.871424 
L 168.629488 136.069109 
L 169.01819 142.9013 
L 169.406892 139.192305 
L 170.184296 127.708498 
L 170.572998 131.300711 
L 170.9617 150.838684 
L 172.516508 203.752289 
L 172.90521 211.18344 
L 173.293912 210.516344 
L 173.682614 207.615028 
L 174.071316 206.285956 
L 174.460018 208.455425 
L 174.84872 200.616336 
L 175.237422 209.875055 
L 175.626124 214.781737 
L 176.014826 216.060948 
L 176.403528 221.285623 
L 176.79223 216.582378 
L 177.180932 208.42504 
L 177.569634 203.586825 
L 177.958336 204.718706 
L 178.347039 210.687114 
L 178.735741 212.74778 
L 179.124443 209.064166 
L 179.513145 215.487611 
L 179.901847 218.811048 
L 180.290549 215.250748 
L 180.679251 203.860227 
L 181.067953 186.803598 
L 181.845357 161.977117 
L 182.234059 162.24072 
L 182.622761 165.537113 
L 183.011463 164.149943 
L 183.400165 169.478212 
L 183.788867 187.925285 
L 184.177569 196.684112 
L 184.566271 194.150356 
L 184.954973 188.775917 
L 185.343675 192.419579 
L 185.732377 193.995214 
L 186.121079 198.585701 
L 186.509781 207.638206 
L 186.898483 211.013843 
L 187.287185 218.154237 
L 187.675888 214.062889 
L 188.06459 217.829302 
L 188.453292 215.345327 
L 188.841994 215.782097 
L 189.230696 214.090099 
L 190.0081 215.470136 
L 190.396802 215.98677 
L 190.785504 217.970278 
L 191.174206 217.242557 
L 191.562908 219.276997 
L 191.95161 219.179456 
L 192.340312 213.674107 
L 192.729014 215.530753 
L 193.117716 219.997545 
L 193.506418 221.680956 
L 193.89512 216.085584 
L 194.283822 201.633143 
L 194.672524 182.486518 
L 195.449928 159.883439 
L 195.83863 157.001559 
L 196.227332 152.497839 
L 196.616034 139.621307 
L 197.004736 137.17883 
L 197.393439 152.862057 
L 198.170843 197.792044 
L 198.559545 200.460113 
L 199.336949 216.835346 
L 199.725651 216.9432 
L 200.114353 220.296898 
L 200.503055 200.21896 
L 200.891757 206.299349 
L 201.280459 207.509994 
L 201.669161 217.541844 
L 202.057863 223.588901 
L 202.446565 223.193913 
L 202.835267 223.282295 
L 203.612671 224.55 
L 204.001373 223.424797 
L 204.390075 220.944511 
L 204.778777 215.273023 
L 205.167479 206.227068 
L 205.556181 213.117091 
L 205.944883 215.304272 
L 206.333585 210.302995 
L 206.722288 196.792346 
L 207.11099 174.319933 
L 207.888394 97.046057 
L 208.277096 78.703733 
L 208.665798 67.05 
L 209.0545 74.638327 
L 209.443202 117.190072 
L 210.220606 170.722137 
L 210.609308 173.886873 
L 210.99801 170.775838 
L 211.775414 185.004175 
L 212.552818 214.485566 
L 212.94152 219.505051 
L 213.330222 217.399049 
L 213.718924 222.193011 
L 214.107626 219.872943 
L 214.496328 211.300325 
L 214.88503 207.955532 
L 215.273732 207.953506 
L 215.662434 210.264399 
L 216.051136 213.932775 
L 216.439839 221.090025 
L 216.828541 223.402131 
L 217.605945 217.837491 
L 217.994647 212.690173 
L 218.383349 212.941541 
L 218.772051 214.966878 
L 219.160753 215.008304 
L 219.549455 208.225293 
L 219.938157 209.480781 
L 220.326859 204.63485 
L 220.715561 191.893818 
L 221.881667 183.483755 
L 222.270369 189.69723 
L 223.047773 169.870853 
L 223.436475 168.025027 
L 223.825177 174.492454 
L 224.213879 184.062263 
L 224.602581 202.825329 
L 225.379985 210.148596 
L 225.768688 209.545786 
L 226.15739 212.599524 
L 226.546092 217.284626 
L 226.934794 219.462243 
L 227.323496 219.17365 
L 228.1009 202.976539 
L 228.489602 203.375959 
L 229.267006 201.5882 
L 229.655708 204.090168 
L 230.04441 197.265059 
L 230.433112 202.93903 
L 230.821814 212.099216 
L 231.210516 214.285651 
L 231.98792 212.688178 
L 232.376622 210.966987 
L 233.154026 203.94043 
L 233.542728 199.376462 
L 233.93143 197.316089 
L 234.320132 193.239896 
L 234.708834 194.678856 
L 235.097536 196.604901 
L 236.263643 215.701569 
L 236.652345 213.310826 
L 237.041047 201.148103 
L 237.818451 158.237983 
L 238.207153 162.517086 
L 238.984557 194.189015 
L 239.373259 200.888752 
L 239.761961 204.531665 
L 240.150663 214.169016 
L 240.539365 219.250341 
L 240.928067 221.773115 
L 241.316769 215.858743 
L 241.705471 219.192323 
L 242.094173 219.740206 
L 242.482875 223.561586 
L 242.871577 224.547409 
L 243.260279 223.805237 
L 244.426385 213.469558 
L 244.815088 204.980575 
L 245.20379 193.056449 
L 245.981194 153.552732 
L 246.758598 103.976969 
L 247.1473 92.104792 
L 247.536002 99.350312 
L 248.313406 146.231558 
L 248.702108 159.498312 
L 249.09081 165.99242 
L 249.479512 161.211555 
L 249.868214 162.593266 
L 250.645618 151.162109 
L 251.03432 147.522448 
L 251.423022 156.726395 
L 252.200426 198.759524 
L 252.589128 208.621289 
L 253.366532 214.957765 
L 253.755234 215.225778 
L 254.143936 212.65367 
L 254.532639 212.829188 
L 254.921341 216.114299 
L 255.310043 215.077958 
L 255.698745 215.637292 
L 256.087447 213.589884 
L 256.476149 208.34041 
L 256.864851 195.792549 
L 257.253553 212.318503 
L 258.030957 215.430967 
L 258.419659 219.232274 
L 258.808361 215.351048 
L 259.197063 208.294626 
L 259.585765 206.230646 
L 260.363169 208.495941 
L 260.751871 215.633384 
L 261.140573 212.458544 
L 261.529275 199.426029 
L 261.917977 171.913257 
L 262.306679 164.211721 
L 262.695381 153.799477 
L 263.084083 151.380237 
L 263.472785 157.442162 
L 263.861488 171.731241 
L 264.25019 190.182 
L 264.638892 191.048707 
L 265.416296 199.432566 
L 265.804998 200.67678 
L 266.1937 211.216695 
L 266.582402 210.766595 
L 266.971104 213.53638 
L 267.359806 211.978885 
L 268.13721 222.943497 
L 268.525912 222.952849 
L 268.914614 222.552708 
L 269.303316 219.356513 
L 269.692018 220.501082 
L 270.08072 218.452964 
L 270.469422 215.482416 
L 270.858124 217.89546 
L 271.246826 217.631393 
L 271.635528 199.176649 
L 272.412932 193.951318 
L 272.801634 209.03268 
L 273.190336 216.659766 
L 273.579039 213.971997 
L 273.967741 207.829292 
L 274.356443 187.916797 
L 274.745145 152.939126 
L 275.133847 129.964869 
L 275.522549 117.858469 
L 275.911251 123.289992 
L 276.299953 152.040417 
L 276.688655 157.709255 
L 277.077357 165.425062 
L 277.466059 165.284987 
L 277.854761 163.355269 
L 278.243463 164.624288 
L 279.020867 210.458934 
L 279.409569 218.352211 
L 279.798271 216.367118 
L 280.186973 206.026632 
L 280.575675 213.966234 
L 280.964377 215.021439 
L 281.353079 212.925155 
L 281.741781 217.04529 
L 282.130483 216.800375 
L 282.519185 216.939356 
L 282.907888 213.140244 
L 283.29659 212.57431 
L 283.685292 198.907044 
L 284.462696 154.673535 
L 285.2401 172.477473 
L 285.628802 185.632977 
L 286.017504 203.842271 
L 286.406206 211.292249 
L 287.18361 187.248515 
L 287.572312 186.055342 
L 287.961014 193.123878 
L 288.349716 204.762973 
L 288.738418 202.674861 
L 289.515822 178.690661 
L 289.904524 189.812102 
L 290.293226 206.211694 
L 290.681928 209.844661 
L 291.07063 195.008349 
L 291.459332 161.47311 
L 291.848034 160.959993 
L 292.236736 178.50229 
L 292.625439 201.158768 
L 293.014141 207.417645 
L 293.402843 210.108335 
L 293.791545 214.02582 
L 294.180247 213.601273 
L 294.568949 200.321176 
L 294.957651 202.147131 
L 295.346353 216.08366 
L 295.735055 218.151781 
L 296.123757 212.584897 
L 296.901161 193.580659 
L 297.289863 194.527923 
L 297.678565 215.329592 
L 298.067267 212.727098 
L 298.455969 214.152906 
L 298.844671 210.395409 
L 299.233373 195.283608 
L 299.622075 171.315168 
L 300.399479 142.487092 
L 300.788181 153.879266 
L 301.565585 185.81475 
L 301.954288 194.986533 
L 302.34299 191.47231 
L 303.120394 178.778468 
L 303.509096 176.643262 
L 304.675202 207.484306 
L 305.063904 214.046804 
L 305.452606 218.32502 
L 306.23001 202.563327 
L 307.007414 211.933239 
L 307.396116 212.746797 
L 307.784818 219.258274 
L 308.17352 220.010532 
L 308.950924 220.472557 
L 309.339626 210.144897 
L 309.728328 216.962038 
L 310.11703 219.879506 
L 310.505732 221.559758 
L 310.894434 221.074746 
L 311.283136 216.905248 
L 311.671839 209.617911 
L 312.060541 204.738082 
L 312.449243 196.839104 
L 312.837945 185.932268 
L 313.615349 145.998461 
L 314.392753 132.096074 
L 315.170157 163.534867 
L 315.558859 160.97957 
L 316.336263 115.74382 
L 316.724965 112.271447 
L 317.113667 143.394309 
L 317.502369 191.207343 
L 317.891071 201.947325 
L 318.279773 199.849558 
L 318.668475 205.013085 
L 319.057177 194.241347 
L 319.445879 191.925182 
L 319.834581 192.485604 
L 320.223283 206.71941 
L 320.611985 213.547748 
L 321.000688 209.664142 
L 321.38939 209.667085 
L 321.778092 207.761651 
L 322.166794 210.443933 
L 322.555496 208.94775 
L 322.944198 214.756454 
L 323.3329 214.347978 
L 323.721602 213.223645 
L 324.110304 211.756262 
L 324.499006 216.690969 
L 324.887708 216.827653 
L 325.27641 206.530149 
L 325.665112 211.805057 
L 326.053814 213.05711 
L 326.442516 208.707415 
L 326.831218 211.03718 
L 327.21992 209.165012 
L 327.608622 200.242537 
L 327.997324 204.81233 
L 328.386026 204.324487 
L 328.774728 199.578067 
L 329.552132 185.401044 
L 329.940834 161.506584 
L 330.329536 149.200144 
L 330.718239 162.133377 
L 331.106941 171.23729 
L 331.495643 192.093809 
L 332.273047 209.94886 
L 332.661749 207.819361 
L 333.050451 202.890568 
L 333.439153 202.973844 
L 333.827855 208.681767 
L 334.216557 203.593098 
L 334.605259 199.984775 
L 334.993961 201.948025 
L 335.382663 202.167994 
L 336.160067 215.505535 
L 336.548769 216.93261 
L 336.937471 215.465718 
L 337.326173 202.159275 
L 337.714875 212.539432 
L 338.103577 206.614012 
L 338.492279 207.228272 
L 338.880981 214.194997 
L 339.658385 207.060062 
L 340.047088 209.052907 
L 340.43579 214.007145 
L 340.824492 193.437012 
L 341.601896 126.062212 
L 341.990598 109.53607 
L 342.768002 190.108884 
L 343.156704 195.964996 
L 343.545406 197.458406 
L 343.934108 196.193357 
L 344.32281 198.265881 
L 344.711512 198.652941 
L 345.100214 204.086184 
L 345.488916 214.002791 
L 345.877618 218.494557 
L 346.655022 220.28518 
L 347.432426 195.71276 
L 347.821128 198.511368 
L 348.20983 204.345101 
L 348.598532 213.865205 
L 348.987234 215.274473 
L 349.375936 215.591962 
L 349.764639 214.131558 
L 350.153341 207.53698 
L 350.542043 218.300587 
L 350.930745 218.094873 
L 351.319447 213.550786 
L 351.708149 215.143248 
L 352.485553 190.270342 
L 353.651659 215.457803 
L 354.040361 217.568914 
L 354.429063 215.532742 
L 354.817765 197.431487 
L 355.206467 165.316961 
L 355.595169 161.933877 
L 355.983871 163.460904 
L 356.761275 193.498836 
L 357.538679 179.1376 
L 358.316083 174.437372 
L 358.704785 192.689823 
L 359.093488 201.88107 
L 359.48219 198.428495 
L 359.870892 198.906595 
L 360.648296 218.345556 
L 361.036998 222.704932 
L 361.4257 221.344903 
L 361.814402 220.859642 
L 362.203104 218.969289 
L 362.591806 206.643187 
L 362.980508 203.006297 
L 363.36921 204.493493 
L 363.757912 206.494169 
L 364.146614 206.691255 
L 364.535316 207.474808 
L 364.924018 206.271014 
L 365.701422 168.340752 
L 366.090124 189.898329 
L 366.478826 183.506399 
L 366.867528 157.752107 
L 367.25623 145.421544 
L 367.644932 139.105587 
L 368.033634 123.800801 
L 368.422336 138.261356 
L 368.811039 132.3793 
L 369.199741 121.915804 
L 369.588443 116.155504 
L 369.977145 122.863431 
L 371.920655 204.694832 
L 372.698059 215.539262 
L 373.086761 210.998716 
L 373.475463 196.842348 
L 373.864165 196.371875 
L 374.252867 202.290206 
L 374.641569 211.328797 
L 375.030271 214.755069 
L 375.418973 216.35958 
L 375.807675 222.02171 
L 376.585079 217.328337 
L 376.973781 217.132511 
L 377.362483 214.766597 
L 377.751185 211.132417 
L 378.139888 215.316789 
L 378.52859 217.798184 
L 378.917292 215.891526 
L 380.083398 195.618509 
L 380.4721 186.436449 
L 380.860802 189.464247 
L 381.249504 189.326514 
L 381.638206 179.986246 
L 382.026908 182.506438 
L 382.41561 180.839861 
L 382.804312 186.977661 
L 383.193014 178.891032 
L 383.581716 179.371083 
L 384.35912 217.409574 
L 384.747822 222.355267 
L 385.136524 222.36201 
L 385.525226 221.941756 
L 385.913928 215.841911 
L 386.30263 219.58845 
L 386.691332 217.007102 
L 387.080034 216.156168 
L 387.468736 215.590888 
L 387.857439 211.983265 
L 388.246141 201.092331 
L 388.634843 205.275786 
L 389.023545 214.025063 
L 389.412247 217.588064 
L 389.800949 218.259536 
L 390.189651 215.151428 
L 391.355757 211.198056 
L 391.744459 207.376256 
L 392.133161 212.161705 
L 392.521863 218.501829 
L 392.910565 214.86428 
L 393.299267 215.491077 
L 393.687969 206.546689 
L 394.465373 183.129948 
L 394.854075 175.992836 
L 395.242777 175.02407 
L 395.631479 170.443758 
L 396.020181 187.050462 
L 396.408883 197.108938 
L 396.797585 203.879682 
L 397.186288 202.9949 
L 397.57499 199.195805 
L 397.963692 200.845628 
L 398.352394 198.673767 
L 398.741096 209.348959 
L 399.129798 209.485524 
L 399.5185 213.686061 
L 399.907202 212.554688 
L 400.295904 212.999589 
L 400.684606 219.270897 
L 401.073308 220.031752 
L 401.46201 217.881775 
L 402.628116 194.282556 
L 403.016818 210.896683 
L 403.40552 221.290415 
L 403.794222 219.297285 
L 404.182924 223.178371 
L 404.571626 223.313823 
L 404.960328 210.449761 
L 405.737732 174.199685 
L 406.126434 158.235872 
L 407.292541 89.322354 
L 407.681243 87.21169 
L 408.069945 110.067922 
L 408.458647 141.73395 
L 408.847349 155.872019 
L 409.236051 162.319926 
L 409.624753 164.894671 
L 410.013455 161.592481 
L 410.790859 207.015463 
L 411.179561 217.959142 
L 411.956965 209.102916 
L 412.345667 208.090494 
L 412.734369 211.042189 
L 413.123071 208.160703 
L 413.511773 212.896867 
L 413.900475 215.359913 
L 415.066581 202.324921 
L 415.455283 204.074346 
L 415.843985 209.085749 
L 416.232688 212.085127 
L 416.62139 211.136885 
L 417.010092 213.583523 
L 417.398794 207.032588 
L 417.787496 207.620783 
L 418.5649 200.848584 
L 418.953602 205.133226 
L 419.342304 200.461976 
L 420.50841 162.130948 
L 420.897112 169.855493 
L 421.285814 186.923939 
L 421.674516 198.398987 
L 422.063218 194.066247 
L 422.45192 180.850925 
L 422.840622 173.257459 
L 423.229324 184.489696 
L 424.39543 202.844487 
L 424.784132 204.655647 
L 425.172834 209.882346 
L 425.561536 205.240337 
L 425.950239 203.250154 
L 426.338941 212.618483 
L 426.727643 217.429017 
L 427.116345 219.339164 
L 427.505047 218.229976 
L 427.893749 215.028594 
L 428.282451 210.668561 
L 429.059855 215.996596 
L 429.448557 219.689011 
L 429.837259 215.64006 
L 430.225961 216.445339 
L 430.614663 217.948597 
L 431.003365 216.907794 
L 431.392067 214.484628 
L 431.780769 218.267513 
L 432.169471 215.234545 
L 432.558173 207.625908 
L 432.946875 189.076344 
L 433.335577 155.611811 
L 434.112981 114.350631 
L 434.501683 111.293438 
L 434.890385 128.003451 
L 435.279088 152.665585 
L 436.056492 182.360593 
L 437.222598 199.778121 
L 437.6113 208.660188 
L 438.000002 212.925002 
L 438.388704 212.867809 
L 438.777406 213.775803 
L 439.166108 211.912915 
L 439.55481 208.467124 
L 439.943512 206.276231 
L 440.332214 212.006203 
L 440.720916 214.290719 
L 441.109618 211.634863 
L 441.49832 211.282797 
L 441.887022 214.577827 
L 442.275724 212.609425 
L 442.664426 203.607803 
L 443.053128 201.904497 
L 443.44183 201.324419 
L 443.830532 209.294445 
L 444.219234 212.058356 
L 445.385341 147.604672 
L 445.774043 146.00356 
L 446.162745 146.813333 
L 446.551447 143.0226 
L 446.940149 142.989509 
L 447.328851 148.916491 
L 447.717553 143.637827 
L 448.106255 134.350527 
L 448.494957 170.463654 
L 448.883659 179.358989 
L 449.272361 182.013854 
L 450.049765 209.604321 
L 450.827169 198.396044 
L 451.215871 211.546072 
L 451.604573 216.94012 
L 451.993275 220.721036 
L 452.381977 220.699246 
L 452.770679 215.53452 
L 453.159381 205.045594 
L 453.548083 189.278196 
L 454.71419 211.836426 
L 455.102892 216.223316 
L 455.491594 211.107676 
L 455.880296 201.752928 
L 456.268998 209.820256 
L 456.6577 209.674325 
L 457.046402 208.390154 
L 457.435104 212.845975 
L 458.212508 191.010055 
L 458.60121 200.540357 
L 458.989912 200.67589 
L 459.767316 160.849938 
L 460.156018 153.585134 
L 460.54472 163.053069 
L 460.933422 162.720618 
L 461.710826 198.06188 
L 462.099528 198.563272 
L 462.48823 201.053443 
L 462.876932 210.793614 
L 463.265634 203.500162 
L 464.043039 214.444204 
L 464.431741 202.052027 
L 464.820443 194.631205 
L 465.209145 208.30804 
L 465.597847 209.989601 
L 465.986549 208.875897 
L 466.375251 211.102153 
L 466.763953 202.95899 
L 467.152655 198.097298 
L 467.541357 201.207839 
L 467.930059 199.871226 
L 468.318761 190.886565 
L 468.707463 197.379394 
L 469.096165 208.049473 
L 469.484867 212.935381 
L 469.873569 214.335556 
L 470.262271 207.988312 
L 470.650973 193.716011 
L 471.039675 195.890904 
L 471.428377 209.632377 
L 471.817079 214.568847 
L 472.205781 210.963236 
L 472.594483 211.780175 
L 472.983185 210.309839 
L 473.371888 204.55315 
L 473.76059 204.819464 
L 474.926696 131.463917 
L 475.315398 126.512894 
L 475.7041 161.677877 
L 476.092802 175.884359 
L 476.481504 177.341654 
L 477.64761 187.081372 
L 478.036312 208.979813 
L 478.425014 213.96991 
L 478.813716 211.874191 
L 479.202418 215.678533 
L 479.59112 216.72792 
L 479.979822 213.322703 
L 480.368524 212.738625 
L 480.757226 205.141494 
L 481.145928 203.770458 
L 481.923332 210.781074 
L 482.312034 211.942566 
L 482.700736 215.570737 
L 483.089439 214.593675 
L 483.478141 207.104732 
L 483.866843 196.081352 
L 484.255545 195.771401 
L 485.421651 181.784064 
L 485.810353 173.177727 
L 486.199055 177.768124 
L 486.587757 172.589636 
L 487.365161 158.251007 
L 487.753863 147.311766 
L 488.919969 190.746129 
L 489.308671 200.270202 
L 489.697373 200.361056 
L 490.086075 201.937116 
L 490.474777 206.046541 
L 490.863479 208.163079 
L 491.252181 216.594493 
L 492.418288 193.478008 
L 492.80699 199.728429 
L 493.195692 201.582808 
L 493.584394 207.962699 
L 493.973096 207.963176 
L 494.361798 212.148957 
L 494.7505 210.234982 
L 495.139202 205.363846 
L 495.527904 204.624383 
L 495.916606 200.967781 
L 496.305308 202.978417 
L 496.69401 202.900468 
L 497.082712 200.152646 
L 497.471414 204.164625 
L 497.860116 202.806126 
L 498.248818 199.821965 
L 498.63752 195.360606 
L 499.026222 175.677537 
L 499.414924 176.370429 
L 499.803626 179.39592 
L 500.192328 174.075515 
L 500.58103 171.422094 
L 500.969732 173.577627 
L 501.358434 178.234396 
L 502.135839 197.316454 
L 502.524541 206.674124 
L 502.913243 205.76586 
L 503.301945 200.783988 
L 503.690647 214.831725 
L 504.079349 212.817772 
L 504.468051 206.760717 
L 504.856753 208.627593 
L 505.245455 214.85274 
L 505.634157 204.581285 
L 506.022859 199.878776 
L 506.411561 187.895996 
L 506.800263 188.021978 
L 507.188965 208.520503 
L 507.577667 221.061227 
L 507.966369 221.502592 
L 508.355071 216.460671 
L 508.743773 203.946177 
L 509.132475 219.303873 
L 509.521177 218.941998 
L 509.909879 216.154504 
L 510.298581 218.452658 
L 510.687283 218.118746 
L 511.464688 186.160524 
L 512.242092 144.059549 
L 512.630794 153.416218 
L 513.019496 185.369624 
L 513.408198 205.346692 
L 513.7969 203.119791 
L 514.185602 181.540878 
L 514.574304 153.614363 
L 514.963006 150.05358 
L 515.351708 164.78286 
L 515.74041 197.083346 
L 516.129112 209.850317 
L 516.517814 205.457428 
L 516.906516 205.766225 
L 517.295218 209.960931 
L 517.68392 215.946407 
L 518.072622 206.066791 
L 518.461324 202.906993 
L 518.850026 216.474758 
L 519.238728 221.386271 
L 519.62743 218.047504 
L 520.404834 201.9134 
L 520.793536 209.147765 
L 521.182239 208.4453 
L 521.959643 191.69134 
L 522.348345 191.006202 
L 522.737047 198.350357 
L 524.291855 173.611644 
L 525.069259 155.809878 
L 525.457961 161.345264 
L 525.846663 147.383656 
L 526.235365 148.568859 
L 526.624067 149.217466 
L 527.401471 112.301243 
L 527.790173 140.315547 
L 528.178875 159.037446 
L 528.567577 186.098942 
L 528.956279 193.305558 
L 529.344981 191.339625 
L 529.733683 193.972663 
L 530.122385 193.526928 
L 530.511088 190.740239 
L 530.89979 192.861931 
L 531.288492 203.433015 
L 531.677194 204.339255 
L 532.065896 204.903176 
L 532.454598 217.313878 
L 532.8433 216.503066 
L 533.232002 215.39571 
L 533.620704 216.122077 
L 534.009406 219.218821 
L 534.398108 216.633686 
L 534.78681 210.365154 
L 535.175512 206.521503 
L 535.564214 207.624766 
L 536.341618 214.645301 
L 536.73032 216.954495 
L 537.119022 217.387728 
L 537.507724 214.214433 
L 537.896426 217.209919 
L 538.285128 211.507048 
L 538.67383 203.730118 
L 539.451234 181.308713 
L 539.839936 184.121984 
L 541.006043 215.858939 
L 541.394745 215.305918 
L 541.783447 217.133647 
L 542.172149 216.449417 
L 542.560851 214.794499 
L 542.949553 200.587149 
L 543.338255 198.766799 
L 543.726957 198.309347 
L 544.504361 215.491493 
L 544.893063 217.643142 
L 545.670467 214.524973 
L 546.059169 220.715528 
L 546.447871 223.367245 
L 546.836573 223.776571 
L 547.225275 221.505442 
L 547.613977 211.424554 
L 548.002679 208.214065 
L 548.391381 207.101934 
L 548.780083 208.672615 
L 549.168785 213.358496 
L 549.557488 213.968399 
L 549.94619 215.190364 
L 550.334892 211.283569 
L 550.723594 201.547356 
L 551.112296 179.108753 
L 551.500998 146.175665 
L 551.8897 140.609483 
L 552.278402 151.489464 
L 553.055806 189.29901 
L 553.444508 195.855537 
L 553.83321 194.361115 
L 554.221912 186.342424 
L 554.610614 169.137002 
L 554.999316 157.810683 
L 556.165422 208.248948 
L 556.554124 216.67704 
L 556.942826 221.599673 
L 557.331528 222.439927 
L 557.72023 216.74541 
L 558.108932 216.86243 
L 558.497634 216.317775 
L 558.886336 214.479859 
L 559.275039 203.475038 
L 559.663741 206.539957 
L 560.052443 214.466343 
L 560.441145 215.94036 
L 560.829847 216.225002 
L 561.218549 216.899337 
L 561.607251 212.008108 
L 562.384655 181.070089 
L 563.162059 147.828637 
L 563.550761 149.018831 
L 563.939463 141.7293 
L 564.328165 141.644259 
L 564.716867 144.30145 
L 565.105569 133.561104 
L 565.494271 130.739824 
L 565.882973 137.584115 
L 566.271675 152.041465 
L 566.660377 155.93618 
L 567.049079 161.599764 
L 567.826483 152.797724 
L 568.603888 189.978345 
L 568.99259 203.551242 
L 569.381292 208.084508 
L 569.769994 210.586561 
L 570.158696 212.008418 
L 570.547398 214.322989 
L 570.9361 214.660566 
L 571.324802 210.25304 
L 571.713504 207.977064 
L 572.102206 209.464901 
L 572.490908 211.981906 
L 573.268312 218.137386 
L 573.657014 217.606659 
L 574.045716 209.015869 
L 574.434418 208.827818 
L 574.82312 211.552222 
L 575.211822 207.373645 
L 575.600524 212.260579 
L 575.989226 211.686043 
L 576.76663 193.706683 
L 577.155332 192.554068 
L 577.544034 176.303883 
L 578.321439 158.45989 
L 578.710141 158.537132 
L 579.098843 176.092859 
L 579.487545 185.836396 
L 579.876247 183.455436 
L 580.264949 176.676569 
L 581.042353 151.224945 
L 581.431055 165.701597 
L 581.819757 188.025834 
L 582.597161 200.270483 
L 582.985863 205.321916 
L 583.374565 215.673803 
L 583.763267 216.409757 
L 584.151969 219.318914 
L 584.540671 217.340323 
L 584.929373 218.135834 
L 585.706777 221.535388 
L 586.095479 221.517998 
L 586.484181 220.123468 
L 586.872883 217.756717 
L 587.261585 217.896411 
L 588.03899 213.046151 
L 588.427692 212.475809 
L 588.816394 213.677139 
L 589.205096 217.777919 
L 589.593798 217.682153 
L 589.9825 216.934502 
L 590.371202 216.722567 
L 590.759904 208.058074 
L 591.537308 168.940733 
L 591.92601 168.956737 
L 592.314712 177.368739 
L 592.703414 191.608432 
L 593.092116 189.087666 
L 593.480818 171.223896 
L 593.86952 170.384658 
L 594.258222 167.836264 
L 594.646924 178.678206 
L 595.035626 198.166085 
L 595.81303 215.589794 
L 596.201732 209.399804 
L 596.590434 213.402882 
L 596.979136 214.221943 
L 597.367839 214.22326 
L 597.756541 210.732288 
L 598.145243 205.441717 
L 598.533945 193.632877 
L 598.922647 196.878271 
L 599.311349 213.467963 
L 599.700051 218.29238 
L 600.088753 216.5654 
L 600.477455 213.64802 
L 601.254859 177.366781 
L 601.643561 173.58321 
L 602.032263 179.355253 
L 602.420965 195.017674 
L 602.809667 198.805063 
L 603.587071 178.664664 
L 603.975773 181.712159 
L 604.364475 199.539361 
L 604.753177 205.393761 
L 605.141879 204.072558 
L 605.919283 195.417083 
L 606.307985 185.093127 
L 606.696688 188.654213 
L 607.08539 190.647234 
L 607.474092 192.011177 
L 607.862794 199.033359 
L 608.251496 203.385915 
L 608.640198 204.562755 
L 609.0289 205.291529 
L 609.417602 203.877311 
L 609.806304 186.717655 
L 610.195006 195.138408 
L 610.583708 200.994741 
L 610.97241 216.284842 
L 611.361112 222.921634 
L 611.749814 222.947344 
L 612.138516 220.565014 
L 612.91592 204.317691 
L 613.304622 212.384912 
L 613.693324 206.824451 
L 614.082026 216.517953 
L 614.470728 213.125002 
L 614.85943 198.402043 
L 615.248132 192.362967 
L 615.636834 198.006226 
L 616.025536 172.61027 
L 616.414239 131.433816 
L 616.802941 123.39684 
L 617.191643 129.824348 
L 617.969047 170.787749 
L 618.357749 173.424878 
L 618.746451 170.02558 
L 619.135153 172.34509 
L 619.523855 178.843712 
L 619.912557 181.387852 
L 620.689961 197.022214 
L 621.078663 201.669408 
L 621.467365 200.537144 
L 621.856067 207.671603 
L 622.244769 208.953876 
L 622.633471 186.974646 
L 623.022173 194.545982 
L 623.410875 212.381948 
L 623.799577 219.11358 
L 624.188279 220.800035 
L 624.576981 218.958595 
L 624.965683 220.536403 
L 625.354385 202.084336 
L 625.743088 197.20389 
L 626.13179 212.584877 
L 626.520492 217.522539 
L 626.909194 216.06682 
L 627.297896 199.713456 
L 627.686598 191.987991 
L 628.464002 170.072826 
L 629.241406 185.448426 
L 629.630108 181.367695 
L 630.01881 161.038603 
L 630.407512 153.048799 
L 630.796214 161.812357 
L 631.184916 182.101468 
L 631.573618 185.440674 
L 631.96232 181.813761 
L 632.351022 166.527864 
L 632.739724 146.723704 
L 633.128426 141.130356 
L 633.90583 173.140204 
L 634.683234 192.308446 
L 635.071936 200.935083 
L 635.460639 201.015245 
L 636.238043 215.742626 
L 636.626745 217.859294 
L 637.015447 211.474555 
L 637.404149 210.514488 
L 637.792851 208.899485 
L 638.181553 203.273951 
L 638.570255 205.048193 
L 639.347659 214.612485 
L 639.736361 215.434653 
L 640.125063 208.27287 
L 640.513765 197.220341 
L 640.902467 198.706286 
L 641.291169 210.683649 
L 641.679871 209.262554 
L 642.068573 201.866024 
L 642.457275 199.692134 
L 643.234679 193.321558 
L 643.623381 205.20633 
L 644.012083 201.9189 
L 644.400785 194.272086 
L 644.789488 203.917899 
L 645.17819 204.125096 
L 645.566892 204.020763 
L 645.955594 210.485481 
L 646.344296 214.431795 
L 647.1217 208.325165 
L 647.510402 196.497251 
L 647.899104 181.085015 
L 648.287806 192.608002 
L 648.676508 199.316965 
L 649.06521 210.26063 
L 649.453912 211.292817 
L 650.231316 196.269843 
L 650.620018 192.650333 
L 651.00872 192.004399 
L 651.397422 207.154056 
L 651.786124 209.894099 
L 652.174826 219.61993 
L 652.563528 219.613099 
L 652.95223 209.607245 
L 653.340932 206.077321 
L 653.729634 207.019921 
L 654.118336 197.179149 
L 654.507039 204.850652 
L 654.895741 207.528686 
L 655.284443 207.564807 
L 655.673145 210.385206 
L 656.061847 198.209946 
L 656.450549 173.703306 
L 656.839251 168.902597 
L 657.227953 183.278684 
L 657.616655 189.750714 
L 658.005357 189.727611 
L 658.394059 181.804393 
L 659.171463 175.796899 
L 660.337569 217.400541 
L 660.726271 217.909458 
L 661.114973 210.347208 
L 661.503675 199.895786 
L 661.892377 202.586944 
L 662.281079 214.485091 
L 662.669781 217.623446 
L 663.058483 212.70472 
L 663.447185 210.009311 
L 663.835888 203.647538 
L 664.22459 205.522314 
L 664.613292 211.900025 
L 665.001994 211.34779 
L 665.390696 215.534658 
L 665.779398 221.133541 
L 666.1681 220.430993 
L 666.556802 216.416924 
L 666.945504 213.722034 
L 667.334206 216.602657 
L 667.722908 216.226471 
L 668.500312 220.288339 
L 669.277716 207.062073 
L 669.666418 196.586996 
L 670.05512 179.573446 
L 670.443822 169.057134 
L 670.832524 164.349224 
L 671.221226 153.437139 
L 671.609928 167.574919 
L 671.99863 193.978948 
L 672.387332 193.931448 
L 672.776034 190.091581 
L 673.553439 124.104376 
L 673.942141 164.358717 
L 674.330843 187.080309 
L 675.108247 213.406145 
L 675.496949 210.217567 
L 675.885651 215.163764 
L 676.274353 216.682443 
L 676.663055 207.89816 
L 677.051757 209.030237 
L 677.440459 218.656383 
L 678.217863 223.542107 
L 678.995267 218.612818 
L 679.772671 202.690742 
L 680.161373 187.005793 
L 680.938777 144.612708 
L 681.327479 138.264214 
L 682.104883 142.205008 
L 682.493585 148.518645 
L 683.27099 129.419799 
L 683.659692 115.82497 
L 684.048394 122.24239 
L 684.437096 151.505911 
L 684.825798 171.896305 
L 685.2145 184.856647 
L 685.603202 187.78724 
L 685.991904 183.181883 
L 686.380606 182.47927 
L 686.769308 193.427283 
L 687.546712 203.295277 
L 687.935414 205.565022 
L 688.324116 206.970431 
L 688.712818 206.441528 
L 689.10152 199.819218 
L 689.878924 192.818856 
L 690.656328 205.05226 
L 691.04503 208.852035 
L 691.433732 216.713634 
L 691.822434 219.659699 
L 692.211136 210.990764 
L 692.599839 192.739048 
L 692.988541 189.586577 
L 693.377243 206.251526 
L 694.154647 214.523923 
L 694.543349 208.454171 
L 694.932051 195.516266 
L 695.320753 163.086514 
L 695.709455 143.746829 
L 696.875561 193.025801 
L 697.264263 205.202025 
L 697.652965 210.514407 
L 698.041667 212.657989 
L 698.430369 212.473894 
L 698.819071 209.672799 
L 699.207773 211.761666 
L 699.596475 211.721669 
L 699.985177 203.752824 
L 700.373879 203.321716 
L 700.762581 208.098312 
L 701.539985 204.070535 
L 701.928688 210.347824 
L 702.31739 214.755839 
L 702.706092 210.026365 
L 703.094794 202.655827 
L 703.483496 199.754337 
L 703.872198 201.888522 
L 704.2609 206.252876 
L 704.649602 212.282849 
L 705.038304 216.229429 
L 705.038304 216.229429 
" clip-path="url(#p542653f707)" style="fill: none; stroke: #1f77b4; stroke-width: 2; stroke-linecap: square"/>
   </g>
   <g id="patch_3">
    <path d="M 35.304688 284.4 
L 35.304688 7.2 
" style="fill: none; stroke: #000000; stroke-width: 0.8; stroke-linejoin: miter; stroke-linecap: square"/>
   </g>
   <g id="patch_4">
    <path d="M 704.904688 284.4 
L 704.904688 7.2 
" style="fill: none; stroke: #000000; stroke-width: 0.8; stroke-linejoin: miter; stroke-linecap: square"/>
   </g>
   <g id="patch_5">
    <path d="M 35.304688 284.4 
L 704.904688 284.4 
" style="fill: none; stroke: #000000; stroke-width: 0.8; stroke-linejoin: miter; stroke-linecap: square"/>
   </g>
   <g id="patch_6">
    <path d="M 35.304688 7.2 
L 704.904688 7.2 
" style="fill: none; stroke: #000000; stroke-width: 0.8; stroke-linejoin: miter; stroke-linecap: square"/>
   </g>
  </g>
 </g>
 <defs>
  <clipPath id="p542653f707">
   <rect x="35.304688" y="7.2" width="669.6" height="277.2"/>
  </clipPath>
 </defs>
</svg>
