<?xml version="1.0" encoding="utf-8" standalone="no"?>
<!DOCTYPE svg PUBLIC "-//W3C//DTD SVG 1.1//EN"
  "http://www.w3.org/Graphics/SVG/1.1/DTD/svg11.dtd">
<!-- Created with matplotlib (https://matplotlib.org/) -->
<svg height="316.55625pt" version="1.1" viewBox="0 0 718.467188 316.55625" width="718.467188pt" xmlns="http://www.w3.org/2000/svg" xmlns:xlink="http://www.w3.org/1999/xlink">
 <metadata>
  <rdf:RDF xmlns:cc="http://creativecommons.org/ns#" xmlns:dc="http://purl.org/dc/elements/1.1/" xmlns:rdf="http://www.w3.org/1999/02/22-rdf-syntax-ns#">
   <cc:Work>
    <dc:type rdf:resource="http://purl.org/dc/dcmitype/StillImage"/>
    <dc:date>2021-04-01T22:42:01.052495</dc:date>
    <dc:format>image/svg+xml</dc:format>
    <dc:creator>
     <cc:Agent>
      <dc:title>Matplotlib v3.3.3, https://matplotlib.org/</dc:title>
     </cc:Agent>
    </dc:creator>
   </cc:Work>
  </rdf:RDF>
 </metadata>
 <defs>
  <style type="text/css">*{stroke-linecap:butt;stroke-linejoin:round;}</style>
 </defs>
 <g id="figure_1">
  <g id="patch_1">
   <path d="M 0 316.55625 
L 718.467188 316.55625 
L 718.467188 0 
L 0 0 
z
" style="fill:none;"/>
  </g>
  <g id="axes_1">
   <g id="patch_2">
    <path d="M 35.304688 279 
L 704.904688 279 
L 704.904688 7.2 
L 35.304688 7.2 
z
" style="fill:#ffffff;"/>
   </g>
   <g id="matplotlib.axis_1">
    <g id="xtick_1">
     <g id="line2d_1">
      <defs>
       <path d="M 0 0 
L 0 3.5 
" id="m492e797fc6" style="stroke:#000000;stroke-width:0.8;"/>
      </defs>
      <g>
       <use style="stroke:#000000;stroke-width:0.8;" x="35.304688" xlink:href="#m492e797fc6" y="279"/>
      </g>
     </g>
     <g id="text_1">
      <!-- 0 -->
      <g transform="translate(32.123438 293.598437)scale(0.1 -0.1)">
       <defs>
        <path d="M 31.78125 66.40625 
Q 24.171875 66.40625 20.328125 58.90625 
Q 16.5 51.421875 16.5 36.375 
Q 16.5 21.390625 20.328125 13.890625 
Q 24.171875 6.390625 31.78125 6.390625 
Q 39.453125 6.390625 43.28125 13.890625 
Q 47.125 21.390625 47.125 36.375 
Q 47.125 51.421875 43.28125 58.90625 
Q 39.453125 66.40625 31.78125 66.40625 
z
M 31.78125 74.21875 
Q 44.046875 74.21875 50.515625 64.515625 
Q 56.984375 54.828125 56.984375 36.375 
Q 56.984375 17.96875 50.515625 8.265625 
Q 44.046875 -1.421875 31.78125 -1.421875 
Q 19.53125 -1.421875 13.0625 8.265625 
Q 6.59375 17.96875 6.59375 36.375 
Q 6.59375 54.828125 13.0625 64.515625 
Q 19.53125 74.21875 31.78125 74.21875 
z
" id="DejaVuSans-48"/>
       </defs>
       <use xlink:href="#DejaVuSans-48"/>
      </g>
     </g>
    </g>
    <g id="xtick_2">
     <g id="line2d_2">
      <g>
       <use style="stroke:#000000;stroke-width:0.8;" x="169.224688" xlink:href="#m492e797fc6" y="279"/>
      </g>
     </g>
     <g id="text_2">
      <!-- 2 -->
      <g transform="translate(166.043438 293.598437)scale(0.1 -0.1)">
       <defs>
        <path d="M 19.1875 8.296875 
L 53.609375 8.296875 
L 53.609375 0 
L 7.328125 0 
L 7.328125 8.296875 
Q 12.9375 14.109375 22.625 23.890625 
Q 32.328125 33.6875 34.8125 36.53125 
Q 39.546875 41.84375 41.421875 45.53125 
Q 43.3125 49.21875 43.3125 52.78125 
Q 43.3125 58.59375 39.234375 62.25 
Q 35.15625 65.921875 28.609375 65.921875 
Q 23.96875 65.921875 18.8125 64.3125 
Q 13.671875 62.703125 7.8125 59.421875 
L 7.8125 69.390625 
Q 13.765625 71.78125 18.9375 73 
Q 24.125 74.21875 28.421875 74.21875 
Q 39.75 74.21875 46.484375 68.546875 
Q 53.21875 62.890625 53.21875 53.421875 
Q 53.21875 48.921875 51.53125 44.890625 
Q 49.859375 40.875 45.40625 35.40625 
Q 44.1875 33.984375 37.640625 27.21875 
Q 31.109375 20.453125 19.1875 8.296875 
z
" id="DejaVuSans-50"/>
       </defs>
       <use xlink:href="#DejaVuSans-50"/>
      </g>
     </g>
    </g>
    <g id="xtick_3">
     <g id="line2d_3">
      <g>
       <use style="stroke:#000000;stroke-width:0.8;" x="303.144688" xlink:href="#m492e797fc6" y="279"/>
      </g>
     </g>
     <g id="text_3">
      <!-- 4 -->
      <g transform="translate(299.963438 293.598437)scale(0.1 -0.1)">
       <defs>
        <path d="M 37.796875 64.3125 
L 12.890625 25.390625 
L 37.796875 25.390625 
z
M 35.203125 72.90625 
L 47.609375 72.90625 
L 47.609375 25.390625 
L 58.015625 25.390625 
L 58.015625 17.1875 
L 47.609375 17.1875 
L 47.609375 0 
L 37.796875 0 
L 37.796875 17.1875 
L 4.890625 17.1875 
L 4.890625 26.703125 
z
" id="DejaVuSans-52"/>
       </defs>
       <use xlink:href="#DejaVuSans-52"/>
      </g>
     </g>
    </g>
    <g id="xtick_4">
     <g id="line2d_4">
      <g>
       <use style="stroke:#000000;stroke-width:0.8;" x="437.064688" xlink:href="#m492e797fc6" y="279"/>
      </g>
     </g>
     <g id="text_4">
      <!-- 6 -->
      <g transform="translate(433.883438 293.598437)scale(0.1 -0.1)">
       <defs>
        <path d="M 33.015625 40.375 
Q 26.375 40.375 22.484375 35.828125 
Q 18.609375 31.296875 18.609375 23.390625 
Q 18.609375 15.53125 22.484375 10.953125 
Q 26.375 6.390625 33.015625 6.390625 
Q 39.65625 6.390625 43.53125 10.953125 
Q 47.40625 15.53125 47.40625 23.390625 
Q 47.40625 31.296875 43.53125 35.828125 
Q 39.65625 40.375 33.015625 40.375 
z
M 52.59375 71.296875 
L 52.59375 62.3125 
Q 48.875 64.0625 45.09375 64.984375 
Q 41.3125 65.921875 37.59375 65.921875 
Q 27.828125 65.921875 22.671875 59.328125 
Q 17.53125 52.734375 16.796875 39.40625 
Q 19.671875 43.65625 24.015625 45.921875 
Q 28.375 48.1875 33.59375 48.1875 
Q 44.578125 48.1875 50.953125 41.515625 
Q 57.328125 34.859375 57.328125 23.390625 
Q 57.328125 12.15625 50.6875 5.359375 
Q 44.046875 -1.421875 33.015625 -1.421875 
Q 20.359375 -1.421875 13.671875 8.265625 
Q 6.984375 17.96875 6.984375 36.375 
Q 6.984375 53.65625 15.1875 63.9375 
Q 23.390625 74.21875 37.203125 74.21875 
Q 40.921875 74.21875 44.703125 73.484375 
Q 48.484375 72.75 52.59375 71.296875 
z
" id="DejaVuSans-54"/>
       </defs>
       <use xlink:href="#DejaVuSans-54"/>
      </g>
     </g>
    </g>
    <g id="xtick_5">
     <g id="line2d_5">
      <g>
       <use style="stroke:#000000;stroke-width:0.8;" x="570.984688" xlink:href="#m492e797fc6" y="279"/>
      </g>
     </g>
     <g id="text_5">
      <!-- 8 -->
      <g transform="translate(567.803438 293.598437)scale(0.1 -0.1)">
       <defs>
        <path d="M 31.78125 34.625 
Q 24.75 34.625 20.71875 30.859375 
Q 16.703125 27.09375 16.703125 20.515625 
Q 16.703125 13.921875 20.71875 10.15625 
Q 24.75 6.390625 31.78125 6.390625 
Q 38.8125 6.390625 42.859375 10.171875 
Q 46.921875 13.96875 46.921875 20.515625 
Q 46.921875 27.09375 42.890625 30.859375 
Q 38.875 34.625 31.78125 34.625 
z
M 21.921875 38.8125 
Q 15.578125 40.375 12.03125 44.71875 
Q 8.5 49.078125 8.5 55.328125 
Q 8.5 64.0625 14.71875 69.140625 
Q 20.953125 74.21875 31.78125 74.21875 
Q 42.671875 74.21875 48.875 69.140625 
Q 55.078125 64.0625 55.078125 55.328125 
Q 55.078125 49.078125 51.53125 44.71875 
Q 48 40.375 41.703125 38.8125 
Q 48.828125 37.15625 52.796875 32.3125 
Q 56.78125 27.484375 56.78125 20.515625 
Q 56.78125 9.90625 50.3125 4.234375 
Q 43.84375 -1.421875 31.78125 -1.421875 
Q 19.734375 -1.421875 13.25 4.234375 
Q 6.78125 9.90625 6.78125 20.515625 
Q 6.78125 27.484375 10.78125 32.3125 
Q 14.796875 37.15625 21.921875 38.8125 
z
M 18.3125 54.390625 
Q 18.3125 48.734375 21.84375 45.5625 
Q 25.390625 42.390625 31.78125 42.390625 
Q 38.140625 42.390625 41.71875 45.5625 
Q 45.3125 48.734375 45.3125 54.390625 
Q 45.3125 60.0625 41.71875 63.234375 
Q 38.140625 66.40625 31.78125 66.40625 
Q 25.390625 66.40625 21.84375 63.234375 
Q 18.3125 60.0625 18.3125 54.390625 
z
" id="DejaVuSans-56"/>
       </defs>
       <use xlink:href="#DejaVuSans-56"/>
      </g>
     </g>
    </g>
    <g id="xtick_6">
     <g id="line2d_6">
      <g>
       <use style="stroke:#000000;stroke-width:0.8;" x="704.904688" xlink:href="#m492e797fc6" y="279"/>
      </g>
     </g>
     <g id="text_6">
      <!-- 10 -->
      <g transform="translate(698.542188 293.598437)scale(0.1 -0.1)">
       <defs>
        <path d="M 12.40625 8.296875 
L 28.515625 8.296875 
L 28.515625 63.921875 
L 10.984375 60.40625 
L 10.984375 69.390625 
L 28.421875 72.90625 
L 38.28125 72.90625 
L 38.28125 8.296875 
L 54.390625 8.296875 
L 54.390625 0 
L 12.40625 0 
z
" id="DejaVuSans-49"/>
       </defs>
       <use xlink:href="#DejaVuSans-49"/>
       <use x="63.623047" xlink:href="#DejaVuSans-48"/>
      </g>
     </g>
    </g>
    <g id="text_7">
     <!-- Time (Sec) -->
     <g transform="translate(343.380469 307.276562)scale(0.1 -0.1)">
      <defs>
       <path d="M -0.296875 72.90625 
L 61.375 72.90625 
L 61.375 64.59375 
L 35.5 64.59375 
L 35.5 0 
L 25.59375 0 
L 25.59375 64.59375 
L -0.296875 64.59375 
z
" id="DejaVuSans-84"/>
       <path d="M 9.421875 54.6875 
L 18.40625 54.6875 
L 18.40625 0 
L 9.421875 0 
z
M 9.421875 75.984375 
L 18.40625 75.984375 
L 18.40625 64.59375 
L 9.421875 64.59375 
z
" id="DejaVuSans-105"/>
       <path d="M 52 44.1875 
Q 55.375 50.25 60.0625 53.125 
Q 64.75 56 71.09375 56 
Q 79.640625 56 84.28125 50.015625 
Q 88.921875 44.046875 88.921875 33.015625 
L 88.921875 0 
L 79.890625 0 
L 79.890625 32.71875 
Q 79.890625 40.578125 77.09375 44.375 
Q 74.3125 48.1875 68.609375 48.1875 
Q 61.625 48.1875 57.5625 43.546875 
Q 53.515625 38.921875 53.515625 30.90625 
L 53.515625 0 
L 44.484375 0 
L 44.484375 32.71875 
Q 44.484375 40.625 41.703125 44.40625 
Q 38.921875 48.1875 33.109375 48.1875 
Q 26.21875 48.1875 22.15625 43.53125 
Q 18.109375 38.875 18.109375 30.90625 
L 18.109375 0 
L 9.078125 0 
L 9.078125 54.6875 
L 18.109375 54.6875 
L 18.109375 46.1875 
Q 21.1875 51.21875 25.484375 53.609375 
Q 29.78125 56 35.6875 56 
Q 41.65625 56 45.828125 52.96875 
Q 50 49.953125 52 44.1875 
z
" id="DejaVuSans-109"/>
       <path d="M 56.203125 29.59375 
L 56.203125 25.203125 
L 14.890625 25.203125 
Q 15.484375 15.921875 20.484375 11.0625 
Q 25.484375 6.203125 34.421875 6.203125 
Q 39.59375 6.203125 44.453125 7.46875 
Q 49.3125 8.734375 54.109375 11.28125 
L 54.109375 2.78125 
Q 49.265625 0.734375 44.1875 -0.34375 
Q 39.109375 -1.421875 33.890625 -1.421875 
Q 20.796875 -1.421875 13.15625 6.1875 
Q 5.515625 13.8125 5.515625 26.8125 
Q 5.515625 40.234375 12.765625 48.109375 
Q 20.015625 56 32.328125 56 
Q 43.359375 56 49.78125 48.890625 
Q 56.203125 41.796875 56.203125 29.59375 
z
M 47.21875 32.234375 
Q 47.125 39.59375 43.09375 43.984375 
Q 39.0625 48.390625 32.421875 48.390625 
Q 24.90625 48.390625 20.390625 44.140625 
Q 15.875 39.890625 15.1875 32.171875 
z
" id="DejaVuSans-101"/>
       <path id="DejaVuSans-32"/>
       <path d="M 31 75.875 
Q 24.46875 64.65625 21.28125 53.65625 
Q 18.109375 42.671875 18.109375 31.390625 
Q 18.109375 20.125 21.3125 9.0625 
Q 24.515625 -2 31 -13.1875 
L 23.1875 -13.1875 
Q 15.875 -1.703125 12.234375 9.375 
Q 8.59375 20.453125 8.59375 31.390625 
Q 8.59375 42.28125 12.203125 53.3125 
Q 15.828125 64.359375 23.1875 75.875 
z
" id="DejaVuSans-40"/>
       <path d="M 53.515625 70.515625 
L 53.515625 60.890625 
Q 47.90625 63.578125 42.921875 64.890625 
Q 37.9375 66.21875 33.296875 66.21875 
Q 25.25 66.21875 20.875 63.09375 
Q 16.5 59.96875 16.5 54.203125 
Q 16.5 49.359375 19.40625 46.890625 
Q 22.3125 44.4375 30.421875 42.921875 
L 36.375 41.703125 
Q 47.40625 39.59375 52.65625 34.296875 
Q 57.90625 29 57.90625 20.125 
Q 57.90625 9.515625 50.796875 4.046875 
Q 43.703125 -1.421875 29.984375 -1.421875 
Q 24.8125 -1.421875 18.96875 -0.25 
Q 13.140625 0.921875 6.890625 3.21875 
L 6.890625 13.375 
Q 12.890625 10.015625 18.65625 8.296875 
Q 24.421875 6.59375 29.984375 6.59375 
Q 38.421875 6.59375 43.015625 9.90625 
Q 47.609375 13.234375 47.609375 19.390625 
Q 47.609375 24.75 44.3125 27.78125 
Q 41.015625 30.8125 33.5 32.328125 
L 27.484375 33.5 
Q 16.453125 35.6875 11.515625 40.375 
Q 6.59375 45.0625 6.59375 53.421875 
Q 6.59375 63.09375 13.40625 68.65625 
Q 20.21875 74.21875 32.171875 74.21875 
Q 37.3125 74.21875 42.625 73.28125 
Q 47.953125 72.359375 53.515625 70.515625 
z
" id="DejaVuSans-83"/>
       <path d="M 48.78125 52.59375 
L 48.78125 44.1875 
Q 44.96875 46.296875 41.140625 47.34375 
Q 37.3125 48.390625 33.40625 48.390625 
Q 24.65625 48.390625 19.8125 42.84375 
Q 14.984375 37.3125 14.984375 27.296875 
Q 14.984375 17.28125 19.8125 11.734375 
Q 24.65625 6.203125 33.40625 6.203125 
Q 37.3125 6.203125 41.140625 7.25 
Q 44.96875 8.296875 48.78125 10.40625 
L 48.78125 2.09375 
Q 45.015625 0.34375 40.984375 -0.53125 
Q 36.96875 -1.421875 32.421875 -1.421875 
Q 20.0625 -1.421875 12.78125 6.34375 
Q 5.515625 14.109375 5.515625 27.296875 
Q 5.515625 40.671875 12.859375 48.328125 
Q 20.21875 56 33.015625 56 
Q 37.15625 56 41.109375 55.140625 
Q 45.0625 54.296875 48.78125 52.59375 
z
" id="DejaVuSans-99"/>
       <path d="M 8.015625 75.875 
L 15.828125 75.875 
Q 23.140625 64.359375 26.78125 53.3125 
Q 30.421875 42.28125 30.421875 31.390625 
Q 30.421875 20.453125 26.78125 9.375 
Q 23.140625 -1.703125 15.828125 -13.1875 
L 8.015625 -13.1875 
Q 14.5 -2 17.703125 9.0625 
Q 20.90625 20.125 20.90625 31.390625 
Q 20.90625 42.671875 17.703125 53.65625 
Q 14.5 64.65625 8.015625 75.875 
z
" id="DejaVuSans-41"/>
      </defs>
      <use xlink:href="#DejaVuSans-84"/>
      <use x="57.958984" xlink:href="#DejaVuSans-105"/>
      <use x="85.742188" xlink:href="#DejaVuSans-109"/>
      <use x="183.154297" xlink:href="#DejaVuSans-101"/>
      <use x="244.677734" xlink:href="#DejaVuSans-32"/>
      <use x="276.464844" xlink:href="#DejaVuSans-40"/>
      <use x="315.478516" xlink:href="#DejaVuSans-83"/>
      <use x="378.955078" xlink:href="#DejaVuSans-101"/>
      <use x="440.478516" xlink:href="#DejaVuSans-99"/>
      <use x="495.458984" xlink:href="#DejaVuSans-41"/>
     </g>
    </g>
   </g>
   <g id="matplotlib.axis_2">
    <g id="ytick_1">
     <g id="line2d_7">
      <defs>
       <path d="M 0 0 
L -3.5 0 
" id="m59dedcf7fb" style="stroke:#000000;stroke-width:0.8;"/>
      </defs>
      <g>
       <use style="stroke:#000000;stroke-width:0.8;" x="35.304688" xlink:href="#m59dedcf7fb" y="272.005123"/>
      </g>
     </g>
     <g id="text_8">
      <!-- −20 -->
      <g transform="translate(7.2 275.804342)scale(0.1 -0.1)">
       <defs>
        <path d="M 10.59375 35.5 
L 73.1875 35.5 
L 73.1875 27.203125 
L 10.59375 27.203125 
z
" id="DejaVuSans-8722"/>
       </defs>
       <use xlink:href="#DejaVuSans-8722"/>
       <use x="83.789062" xlink:href="#DejaVuSans-50"/>
       <use x="147.412109" xlink:href="#DejaVuSans-48"/>
      </g>
     </g>
    </g>
    <g id="ytick_2">
     <g id="line2d_8">
      <g>
       <use style="stroke:#000000;stroke-width:0.8;" x="35.304688" xlink:href="#m59dedcf7fb" y="220.320842"/>
      </g>
     </g>
     <g id="text_9">
      <!-- 0 -->
      <g transform="translate(21.942188 224.120061)scale(0.1 -0.1)">
       <use xlink:href="#DejaVuSans-48"/>
      </g>
     </g>
    </g>
    <g id="ytick_3">
     <g id="line2d_9">
      <g>
       <use style="stroke:#000000;stroke-width:0.8;" x="35.304688" xlink:href="#m59dedcf7fb" y="168.636562"/>
      </g>
     </g>
     <g id="text_10">
      <!-- 20 -->
      <g transform="translate(15.579688 172.43578)scale(0.1 -0.1)">
       <use xlink:href="#DejaVuSans-50"/>
       <use x="63.623047" xlink:href="#DejaVuSans-48"/>
      </g>
     </g>
    </g>
    <g id="ytick_4">
     <g id="line2d_10">
      <g>
       <use style="stroke:#000000;stroke-width:0.8;" x="35.304688" xlink:href="#m59dedcf7fb" y="116.952281"/>
      </g>
     </g>
     <g id="text_11">
      <!-- 40 -->
      <g transform="translate(15.579688 120.751499)scale(0.1 -0.1)">
       <use xlink:href="#DejaVuSans-52"/>
       <use x="63.623047" xlink:href="#DejaVuSans-48"/>
      </g>
     </g>
    </g>
    <g id="ytick_5">
     <g id="line2d_11">
      <g>
       <use style="stroke:#000000;stroke-width:0.8;" x="35.304688" xlink:href="#m59dedcf7fb" y="65.268"/>
      </g>
     </g>
     <g id="text_12">
      <!-- 60 -->
      <g transform="translate(15.579688 69.067219)scale(0.1 -0.1)">
       <use xlink:href="#DejaVuSans-54"/>
       <use x="63.623047" xlink:href="#DejaVuSans-48"/>
      </g>
     </g>
    </g>
    <g id="ytick_6">
     <g id="line2d_12">
      <g>
       <use style="stroke:#000000;stroke-width:0.8;" x="35.304688" xlink:href="#m59dedcf7fb" y="13.583719"/>
      </g>
     </g>
     <g id="text_13">
      <!-- 80 -->
      <g transform="translate(15.579688 17.382938)scale(0.1 -0.1)">
       <use xlink:href="#DejaVuSans-56"/>
       <use x="63.623047" xlink:href="#DejaVuSans-48"/>
      </g>
     </g>
    </g>
   </g>
   <g id="line2d_13">
    <path clip-path="url(#p762fae840e)" d="M 35.69339 266.645455 
L 35.69339 19.554545 
" style="fill:none;stroke:#1f77b4;stroke-linecap:square;"/>
   </g>
   <g id="line2d_14">
    <path clip-path="url(#p762fae840e)" d="M 79.61672 266.645455 
L 79.61672 19.554545 
" style="fill:none;stroke:#ff7f0e;stroke-linecap:square;"/>
   </g>
   <g id="line2d_15">
    <path clip-path="url(#p762fae840e)" d="M 104.104949 266.645455 
L 104.104949 19.554545 
" style="fill:none;stroke:#2ca02c;stroke-linecap:square;"/>
   </g>
   <g id="line2d_16">
    <path clip-path="url(#p762fae840e)" d="M 130.92539 266.645455 
L 130.92539 19.554545 
" style="fill:none;stroke:#d62728;stroke-linecap:square;"/>
   </g>
   <g id="line2d_17">
    <path clip-path="url(#p762fae840e)" d="M 158.911936 266.645455 
L 158.911936 19.554545 
" style="fill:none;stroke:#9467bd;stroke-linecap:square;"/>
   </g>
   <g id="line2d_18">
    <path clip-path="url(#p762fae840e)" d="M 184.177569 266.645455 
L 184.177569 19.554545 
" style="fill:none;stroke:#8c564b;stroke-linecap:square;"/>
   </g>
   <g id="line2d_19">
    <path clip-path="url(#p762fae840e)" d="M 210.220606 266.645455 
L 210.220606 19.554545 
" style="fill:none;stroke:#e377c2;stroke-linecap:square;"/>
   </g>
   <g id="line2d_20">
    <path clip-path="url(#p762fae840e)" d="M 239.373259 266.645455 
L 239.373259 19.554545 
" style="fill:none;stroke:#7f7f7f;stroke-linecap:square;"/>
   </g>
   <g id="line2d_21">
    <path clip-path="url(#p762fae840e)" d="M 264.638892 266.645455 
L 264.638892 19.554545 
" style="fill:none;stroke:#bcbd22;stroke-linecap:square;"/>
   </g>
   <g id="line2d_22">
    <path clip-path="url(#p762fae840e)" d="M 291.459332 266.645455 
L 291.459332 19.554545 
" style="fill:none;stroke:#17becf;stroke-linecap:square;"/>
   </g>
   <g id="line2d_23">
    <path clip-path="url(#p762fae840e)" d="M 317.891071 266.645455 
L 317.891071 19.554545 
" style="fill:none;stroke:#1f77b4;stroke-linecap:square;"/>
   </g>
   <g id="line2d_24">
    <path clip-path="url(#p762fae840e)" d="M 343.545406 266.645455 
L 343.545406 19.554545 
" style="fill:none;stroke:#ff7f0e;stroke-linecap:square;"/>
   </g>
   <g id="line2d_25">
    <path clip-path="url(#p762fae840e)" d="M 371.143251 266.645455 
L 371.143251 19.554545 
" style="fill:none;stroke:#2ca02c;stroke-linecap:square;"/>
   </g>
   <g id="line2d_26">
    <path clip-path="url(#p762fae840e)" d="M 397.186288 266.645455 
L 397.186288 19.554545 
" style="fill:none;stroke:#d62728;stroke-linecap:square;"/>
   </g>
   <g id="line2d_27">
    <path clip-path="url(#p762fae840e)" d="M 422.063218 266.645455 
L 422.063218 19.554545 
" style="fill:none;stroke:#9467bd;stroke-linecap:square;"/>
   </g>
   <g id="line2d_28">
    <path clip-path="url(#p762fae840e)" d="M 448.494957 266.645455 
L 448.494957 19.554545 
" style="fill:none;stroke:#8c564b;stroke-linecap:square;"/>
   </g>
   <g id="line2d_29">
    <path clip-path="url(#p762fae840e)" d="M 476.481504 266.645455 
L 476.481504 19.554545 
" style="fill:none;stroke:#e377c2;stroke-linecap:square;"/>
   </g>
   <g id="line2d_30">
    <path clip-path="url(#p762fae840e)" d="M 502.135839 266.645455 
L 502.135839 19.554545 
" style="fill:none;stroke:#7f7f7f;stroke-linecap:square;"/>
   </g>
   <g id="line2d_31">
    <path clip-path="url(#p762fae840e)" d="M 528.567577 266.645455 
L 528.567577 19.554545 
" style="fill:none;stroke:#bcbd22;stroke-linecap:square;"/>
   </g>
   <g id="line2d_32">
    <path clip-path="url(#p762fae840e)" d="M 553.444508 266.645455 
L 553.444508 19.554545 
" style="fill:none;stroke:#17becf;stroke-linecap:square;"/>
   </g>
   <g id="line2d_33">
    <path clip-path="url(#p762fae840e)" d="M 579.487545 266.645455 
L 579.487545 19.554545 
" style="fill:none;stroke:#1f77b4;stroke-linecap:square;"/>
   </g>
   <g id="line2d_34">
    <path clip-path="url(#p762fae840e)" d="M 605.141879 266.645455 
L 605.141879 19.554545 
" style="fill:none;stroke:#ff7f0e;stroke-linecap:square;"/>
   </g>
   <g id="line2d_35">
    <path clip-path="url(#p762fae840e)" d="M 631.96232 266.645455 
L 631.96232 19.554545 
" style="fill:none;stroke:#2ca02c;stroke-linecap:square;"/>
   </g>
   <g id="line2d_36">
    <path clip-path="url(#p762fae840e)" d="M 658.394059 266.645455 
L 658.394059 19.554545 
" style="fill:none;stroke:#d62728;stroke-linecap:square;"/>
   </g>
   <g id="line2d_37">
    <path clip-path="url(#p762fae840e)" d="M 685.2145 266.645455 
L 685.2145 19.554545 
" style="fill:none;stroke:#9467bd;stroke-linecap:square;"/>
   </g>
   <g id="line2d_38">
    <path clip-path="url(#p762fae840e)" d="M 712.034941 266.645455 
L 712.034941 19.554545 
" style="fill:none;stroke:#8c564b;stroke-linecap:square;"/>
   </g>
   <g id="line2d_39">
    <path clip-path="url(#p762fae840e)" style="fill:none;stroke:#e377c2;stroke-linecap:square;"/>
   </g>
   <g id="line2d_40">
    <path clip-path="url(#p762fae840e)" style="fill:none;stroke:#7f7f7f;stroke-linecap:square;"/>
   </g>
   <g id="line2d_41">
    <path clip-path="url(#p762fae840e)" style="fill:none;stroke:#bcbd22;stroke-linecap:square;"/>
   </g>
   <g id="line2d_42">
    <path clip-path="url(#p762fae840e)" style="fill:none;stroke:#17becf;stroke-linecap:square;"/>
   </g>
   <g id="line2d_43">
    <path clip-path="url(#p762fae840e)" style="fill:none;stroke:#1f77b4;stroke-linecap:square;"/>
   </g>
   <g id="line2d_44">
    <path clip-path="url(#p762fae840e)" style="fill:none;stroke:#ff7f0e;stroke-linecap:square;"/>
   </g>
   <g id="line2d_45">
    <path clip-path="url(#p762fae840e)" style="fill:none;stroke:#2ca02c;stroke-linecap:square;"/>
   </g>
   <g id="line2d_46">
    <path clip-path="url(#p762fae840e)" style="fill:none;stroke:#d62728;stroke-linecap:square;"/>
   </g>
   <g id="line2d_47">
    <path clip-path="url(#p762fae840e)" style="fill:none;stroke:#9467bd;stroke-linecap:square;"/>
   </g>
   <g id="line2d_48">
    <path clip-path="url(#p762fae840e)" style="fill:none;stroke:#8c564b;stroke-linecap:square;"/>
   </g>
   <g id="line2d_49">
    <path clip-path="url(#p762fae840e)" style="fill:none;stroke:#e377c2;stroke-linecap:square;"/>
   </g>
   <g id="line2d_50">
    <path clip-path="url(#p762fae840e)" style="fill:none;stroke:#7f7f7f;stroke-linecap:square;"/>
   </g>
   <g id="line2d_51">
    <path clip-path="url(#p762fae840e)" style="fill:none;stroke:#bcbd22;stroke-linecap:square;"/>
   </g>
   <g id="line2d_52">
    <path clip-path="url(#p762fae840e)" style="fill:none;stroke:#17becf;stroke-linecap:square;"/>
   </g>
   <g id="line2d_53">
    <path clip-path="url(#p762fae840e)" style="fill:none;stroke:#1f77b4;stroke-linecap:square;"/>
   </g>
   <g id="line2d_54">
    <path clip-path="url(#p762fae840e)" style="fill:none;stroke:#ff7f0e;stroke-linecap:square;"/>
   </g>
   <g id="line2d_55">
    <path clip-path="url(#p762fae840e)" style="fill:none;stroke:#2ca02c;stroke-linecap:square;"/>
   </g>
   <g id="line2d_56">
    <path clip-path="url(#p762fae840e)" style="fill:none;stroke:#d62728;stroke-linecap:square;"/>
   </g>
   <g id="line2d_57">
    <path clip-path="url(#p762fae840e)" style="fill:none;stroke:#9467bd;stroke-linecap:square;"/>
   </g>
   <g id="line2d_58">
    <path clip-path="url(#p762fae840e)" style="fill:none;stroke:#8c564b;stroke-linecap:square;"/>
   </g>
   <g id="line2d_59">
    <path clip-path="url(#p762fae840e)" style="fill:none;stroke:#e377c2;stroke-linecap:square;"/>
   </g>
   <g id="line2d_60">
    <path clip-path="url(#p762fae840e)" style="fill:none;stroke:#7f7f7f;stroke-linecap:square;"/>
   </g>
   <g id="line2d_61">
    <path clip-path="url(#p762fae840e)" style="fill:none;stroke:#bcbd22;stroke-linecap:square;"/>
   </g>
   <g id="line2d_62">
    <path clip-path="url(#p762fae840e)" style="fill:none;stroke:#17becf;stroke-linecap:square;"/>
   </g>
   <g id="line2d_63">
    <path clip-path="url(#p762fae840e)" style="fill:none;stroke:#1f77b4;stroke-linecap:square;"/>
   </g>
   <g id="line2d_64">
    <path clip-path="url(#p762fae840e)" style="fill:none;stroke:#ff7f0e;stroke-linecap:square;"/>
   </g>
   <g id="line2d_65">
    <path clip-path="url(#p762fae840e)" style="fill:none;stroke:#2ca02c;stroke-linecap:square;"/>
   </g>
   <g id="line2d_66">
    <path clip-path="url(#p762fae840e)" style="fill:none;stroke:#d62728;stroke-linecap:square;"/>
   </g>
   <g id="line2d_67">
    <path clip-path="url(#p762fae840e)" style="fill:none;stroke:#9467bd;stroke-linecap:square;"/>
   </g>
   <g id="line2d_68">
    <path clip-path="url(#p762fae840e)" style="fill:none;stroke:#8c564b;stroke-linecap:square;"/>
   </g>
   <g id="line2d_69">
    <path clip-path="url(#p762fae840e)" style="fill:none;stroke:#e377c2;stroke-linecap:square;"/>
   </g>
   <g id="line2d_70">
    <path clip-path="url(#p762fae840e)" style="fill:none;stroke:#7f7f7f;stroke-linecap:square;"/>
   </g>
   <g id="line2d_71">
    <path clip-path="url(#p762fae840e)" style="fill:none;stroke:#bcbd22;stroke-linecap:square;"/>
   </g>
   <g id="line2d_72">
    <path clip-path="url(#p762fae840e)" style="fill:none;stroke:#17becf;stroke-linecap:square;"/>
   </g>
   <g id="line2d_73">
    <path clip-path="url(#p762fae840e)" style="fill:none;stroke:#1f77b4;stroke-linecap:square;"/>
   </g>
   <g id="line2d_74">
    <path clip-path="url(#p762fae840e)" style="fill:none;stroke:#ff7f0e;stroke-linecap:square;"/>
   </g>
   <g id="line2d_75">
    <path clip-path="url(#p762fae840e)" style="fill:none;stroke:#2ca02c;stroke-linecap:square;"/>
   </g>
   <g id="line2d_76">
    <path clip-path="url(#p762fae840e)" style="fill:none;stroke:#d62728;stroke-linecap:square;"/>
   </g>
   <g id="line2d_77">
    <path clip-path="url(#p762fae840e)" style="fill:none;stroke:#9467bd;stroke-linecap:square;"/>
   </g>
   <g id="line2d_78">
    <path clip-path="url(#p762fae840e)" style="fill:none;stroke:#8c564b;stroke-linecap:square;"/>
   </g>
   <g id="line2d_79">
    <path clip-path="url(#p762fae840e)" style="fill:none;stroke:#e377c2;stroke-linecap:square;"/>
   </g>
   <g id="line2d_80">
    <path clip-path="url(#p762fae840e)" style="fill:none;stroke:#7f7f7f;stroke-linecap:square;"/>
   </g>
   <g id="line2d_81">
    <path clip-path="url(#p762fae840e)" style="fill:none;stroke:#bcbd22;stroke-linecap:square;"/>
   </g>
   <g id="line2d_82">
    <path clip-path="url(#p762fae840e)" style="fill:none;stroke:#17becf;stroke-linecap:square;"/>
   </g>
   <g id="line2d_83">
    <path clip-path="url(#p762fae840e)" style="fill:none;stroke:#1f77b4;stroke-linecap:square;"/>
   </g>
   <g id="line2d_84">
    <path clip-path="url(#p762fae840e)" style="fill:none;stroke:#ff7f0e;stroke-linecap:square;"/>
   </g>
   <g id="line2d_85">
    <path clip-path="url(#p762fae840e)" style="fill:none;stroke:#2ca02c;stroke-linecap:square;"/>
   </g>
   <g id="line2d_86">
    <path clip-path="url(#p762fae840e)" style="fill:none;stroke:#d62728;stroke-linecap:square;"/>
   </g>
   <g id="line2d_87">
    <path clip-path="url(#p762fae840e)" style="fill:none;stroke:#9467bd;stroke-linecap:square;"/>
   </g>
   <g id="line2d_88">
    <path clip-path="url(#p762fae840e)" style="fill:none;stroke:#8c564b;stroke-linecap:square;"/>
   </g>
   <g id="line2d_89">
    <path clip-path="url(#p762fae840e)" d="M 35.304688 185.531528 
L 35.69339 200.725299 
L 36.082092 208.767046 
L 36.470794 207.073726 
L 38.025602 165.250844 
L 38.414304 148.076122 
L 38.803006 137.504506 
L 39.191708 142.968622 
L 39.58041 162.958188 
L 39.969112 175.908858 
L 40.357814 180.00266 
L 41.135218 175.810457 
L 41.52392 188.926701 
L 41.912622 195.916798 
L 42.301324 187.282555 
L 42.690026 191.333925 
L 43.46743 204.80043 
L 43.856132 207.803679 
L 44.244834 207.189852 
L 44.633536 213.066016 
L 45.022239 214.83383 
L 45.410941 214.307512 
L 45.799643 215.077779 
L 46.188345 212.022133 
L 46.577047 206.015189 
L 46.965749 202.186564 
L 47.354451 199.969968 
L 47.743153 194.343492 
L 48.131855 185.019392 
L 48.520557 179.658584 
L 49.297961 158.527166 
L 49.686663 147.462414 
L 50.464067 106.375804 
L 50.852769 99.303383 
L 51.241471 101.572967 
L 51.630173 126.45151 
L 52.018875 136.825067 
L 52.407577 139.575021 
L 52.796279 146.272863 
L 53.184981 156.585536 
L 54.351088 194.247126 
L 54.73979 201.704022 
L 55.128492 196.441949 
L 55.517194 186.740224 
L 55.905896 200.784262 
L 56.294598 206.817259 
L 57.072002 209.760839 
L 57.460704 210.192701 
L 58.238108 206.558265 
L 58.62681 212.178003 
L 59.015512 209.075713 
L 59.404214 202.070797 
L 59.792916 198.244142 
L 60.181618 202.786662 
L 60.57032 201.295007 
L 60.959022 198.005473 
L 61.347724 198.951405 
L 61.736426 209.995305 
L 62.125128 209.24501 
L 62.51383 209.502221 
L 62.902532 205.812974 
L 63.291234 192.420422 
L 63.679936 170.900597 
L 64.068639 163.54763 
L 64.846043 157.291717 
L 65.234745 166.670098 
L 65.623447 181.789059 
L 66.012149 180.576651 
L 66.789553 204.737049 
L 67.178255 203.968273 
L 67.566957 202.708181 
L 67.955659 200.445099 
L 68.733063 176.250987 
L 69.121765 190.170961 
L 69.510467 194.829229 
L 69.899169 201.205193 
L 70.287871 202.860255 
L 70.676573 197.90422 
L 71.065275 184.374716 
L 71.453977 184.561777 
L 71.842679 196.988202 
L 72.231381 198.496089 
L 72.620083 199.495021 
L 73.008785 198.750616 
L 73.397488 199.43239 
L 73.78619 200.988119 
L 74.174892 199.301686 
L 74.563594 212.729312 
L 74.952296 212.368721 
L 75.340998 210.592593 
L 76.118402 197.241187 
L 76.507104 184.663987 
L 76.895806 179.479493 
L 77.284508 190.207466 
L 78.061912 185.345755 
L 78.839316 163.589986 
L 79.228018 142.066963 
L 79.61672 135.217485 
L 80.005422 134.940637 
L 81.171528 192.092548 
L 81.56023 199.603726 
L 81.948932 204.17271 
L 82.337634 198.029118 
L 82.726336 204.544764 
L 83.115039 208.102752 
L 83.503741 207.112292 
L 83.892443 208.033374 
L 84.281145 204.050458 
L 84.669847 190.306241 
L 85.447251 210.10876 
L 85.835953 209.15076 
L 86.224655 211.27027 
L 86.613357 209.451229 
L 87.002059 209.357041 
L 87.390761 208.525029 
L 87.779463 200.458509 
L 88.556867 154.922762 
L 88.945569 146.115868 
L 89.334271 150.654973 
L 89.722973 157.381688 
L 90.111675 160.416856 
L 90.500377 159.055715 
L 91.666483 139.040933 
L 92.055185 140.678934 
L 92.83259 157.340385 
L 93.221292 154.239763 
L 93.609994 161.165952 
L 93.998696 170.410109 
L 94.387398 171.988697 
L 94.7761 179.60286 
L 95.164802 196.175735 
L 95.553504 203.970345 
L 95.942206 202.264943 
L 96.330908 201.716681 
L 97.108312 208.615715 
L 97.497014 208.961606 
L 97.885716 210.397662 
L 98.274418 203.37977 
L 98.66312 192.184836 
L 99.051822 198.560965 
L 99.440524 209.281138 
L 99.829226 211.831242 
L 100.217928 216.020962 
L 100.60663 216.637279 
L 100.995332 216.514367 
L 101.384034 204.212106 
L 101.772736 181.856898 
L 102.161439 167.732981 
L 102.550141 160.112623 
L 102.938843 143.275165 
L 103.327545 113.273525 
L 103.716247 102.256183 
L 104.104949 109.016367 
L 104.882353 170.669491 
L 105.659757 195.488223 
L 106.048459 199.276722 
L 106.437161 191.021491 
L 106.825863 185.485983 
L 107.603267 194.749909 
L 107.991969 203.612512 
L 108.769373 204.653581 
L 109.158075 203.231067 
L 109.546777 204.112705 
L 109.935479 198.794777 
L 110.324181 202.15192 
L 111.101585 212.641411 
L 111.490288 212.344881 
L 111.87899 214.874474 
L 112.267692 215.155327 
L 112.656394 213.103706 
L 113.045096 214.140937 
L 113.433798 211.547999 
L 113.8225 201.792362 
L 114.211202 206.871222 
L 114.988606 206.184511 
L 115.377308 203.969802 
L 115.76601 192.018677 
L 116.154712 196.309021 
L 116.543414 190.382925 
L 116.932116 177.60722 
L 117.70952 146.989426 
L 118.098222 145.437106 
L 118.486924 145.207647 
L 118.875626 147.850139 
L 119.264328 147.088015 
L 119.65303 142.421226 
L 120.041732 152.674708 
L 120.430434 182.596093 
L 120.819136 202.010101 
L 121.207839 210.240903 
L 121.596541 214.739684 
L 121.985243 215.925087 
L 122.373945 211.986617 
L 122.762647 206.515011 
L 123.151349 191.80186 
L 123.540051 192.565768 
L 124.317455 206.460724 
L 124.706157 206.733778 
L 125.094859 208.375202 
L 125.483561 213.16192 
L 125.872263 205.960646 
L 126.260965 201.20373 
L 126.649667 202.077499 
L 127.038369 205.378906 
L 127.815773 203.696776 
L 128.204475 198.836227 
L 128.593177 186.553445 
L 129.759283 132.215221 
L 130.92539 105.008808 
L 131.314092 108.193011 
L 132.091496 122.597618 
L 132.480198 127.106749 
L 132.8689 135.043614 
L 133.646304 187.685542 
L 134.035006 199.780299 
L 134.423708 193.382764 
L 134.81241 184.804983 
L 135.201112 180.795078 
L 135.978516 200.347521 
L 136.367218 201.448533 
L 136.75592 200.199059 
L 137.144622 204.650612 
L 137.533324 204.378888 
L 137.922026 201.012654 
L 138.310728 196.259272 
L 138.69943 199.684071 
L 139.476834 212.237788 
L 140.254239 215.778856 
L 140.642941 214.612086 
L 141.031643 209.240721 
L 141.420345 189.901784 
L 142.197749 198.117813 
L 142.586451 191.922766 
L 142.975153 191.418035 
L 143.363855 192.013643 
L 143.752557 193.908862 
L 144.141259 186.082621 
L 144.529961 181.895053 
L 144.918663 186.964878 
L 145.307365 183.436369 
L 145.696067 188.974176 
L 146.473471 194.5737 
L 146.862173 193.664595 
L 147.639577 206.467719 
L 148.028279 207.812879 
L 148.416981 206.045339 
L 149.194385 201.316584 
L 149.583088 199.997976 
L 149.97179 201.038497 
L 150.749194 209.670167 
L 151.137896 210.934206 
L 151.526598 211.172762 
L 151.9153 211.687418 
L 152.304002 208.180272 
L 152.692704 197.2495 
L 153.081406 191.083029 
L 153.470108 197.13864 
L 153.85881 195.284951 
L 154.247512 195.300746 
L 154.636214 193.158819 
L 155.024916 192.3394 
L 155.413618 182.914558 
L 155.80232 178.529591 
L 156.191022 180.757139 
L 156.579724 179.964062 
L 156.968426 184.487284 
L 157.357128 183.24234 
L 157.74583 174.952426 
L 158.134532 170.631788 
L 158.911936 155.673287 
L 159.300639 162.874429 
L 159.689341 175.520867 
L 160.078043 193.37727 
L 160.466745 203.572274 
L 160.855447 205.673297 
L 161.244149 205.245841 
L 161.632851 201.606247 
L 162.410255 190.822459 
L 162.798957 199.649872 
L 163.187659 203.52598 
L 163.576361 212.04533 
L 163.965063 211.355673 
L 164.353765 214.034728 
L 164.742467 214.12526 
L 165.131169 213.936282 
L 166.297275 200.063952 
L 166.685977 198.962625 
L 167.074679 198.558635 
L 167.463381 197.8531 
L 167.852083 190.207168 
L 168.240785 176.145081 
L 169.01819 138.411922 
L 169.406892 132.769961 
L 170.184296 144.375996 
L 170.572998 139.037453 
L 171.350402 119.74041 
L 171.739104 124.501276 
L 172.127806 131.676569 
L 173.293912 161.799955 
L 173.682614 177.92143 
L 174.071316 185.654857 
L 174.460018 199.314055 
L 174.84872 205.245893 
L 175.237422 200.51568 
L 175.626124 200.91999 
L 176.014826 200.782747 
L 176.403528 200.435607 
L 176.79223 204.321946 
L 177.180932 202.574131 
L 177.569634 213.25263 
L 177.958336 216.031171 
L 178.347039 214.438552 
L 178.735741 202.42013 
L 179.124443 197.036233 
L 179.513145 197.851648 
L 179.901847 200.212524 
L 180.290549 206.305897 
L 180.679251 203.010254 
L 181.456655 204.483759 
L 181.845357 205.981629 
L 182.622761 174.441537 
L 183.011463 167.414452 
L 183.400165 163.017189 
L 183.788867 151.252711 
L 184.177569 148.94503 
L 184.566271 151.602233 
L 184.954973 160.369124 
L 185.732377 188.078062 
L 186.121079 190.318734 
L 186.509781 190.863681 
L 186.898483 189.62175 
L 187.287185 192.07314 
L 187.675888 191.996803 
L 188.06459 202.032678 
L 188.453292 207.53628 
L 188.841994 210.699107 
L 189.230696 209.909173 
L 189.619398 211.580595 
L 190.396802 209.445224 
L 190.785504 209.129049 
L 191.174206 210.593362 
L 191.95161 207.459987 
L 192.340312 210.428584 
L 192.729014 209.895989 
L 193.117716 213.126818 
L 193.506418 212.171655 
L 193.89512 200.9032 
L 194.283822 214.149456 
L 194.672524 214.625089 
L 195.061226 212.691186 
L 195.449928 208.269177 
L 197.004736 150.248156 
L 197.393439 144.870716 
L 197.782141 134.220515 
L 198.170843 127.996501 
L 198.559545 130.35274 
L 199.336949 167.221509 
L 199.725651 180.805547 
L 200.114353 186.317809 
L 200.503055 199.142743 
L 200.891757 206.544417 
L 201.669161 214.254171 
L 202.057863 203.586776 
L 202.446565 203.232873 
L 202.835267 205.526729 
L 203.223969 213.702959 
L 203.612671 218.756635 
L 204.001373 213.480068 
L 204.390075 204.68851 
L 204.778777 215.506444 
L 205.167479 217.664937 
L 205.556181 218.176772 
L 205.944883 215.818305 
L 206.722288 197.239494 
L 207.11099 204.655482 
L 207.499692 204.639618 
L 207.888394 199.168266 
L 208.277096 183.661786 
L 208.665798 153.172567 
L 209.443202 80.962807 
L 209.831904 65.884091 
L 210.220606 68.515079 
L 210.609308 93.552955 
L 211.386712 153.388007 
L 211.775414 162.275043 
L 212.164116 166.627832 
L 213.330222 189.093063 
L 213.718924 198.989867 
L 214.107626 205.879308 
L 214.496328 204.079029 
L 214.88503 205.756739 
L 215.273732 213.78632 
L 215.662434 213.792675 
L 216.439839 195.963882 
L 216.828541 200.560216 
L 217.217243 207.584267 
L 217.994647 216.434467 
L 218.383349 218.114436 
L 218.772051 212.965206 
L 219.160753 205.589466 
L 219.549455 205.218349 
L 219.938157 208.775618 
L 220.326859 209.561795 
L 220.715561 211.549687 
L 221.104263 208.473829 
L 221.492965 192.103349 
L 221.881667 193.556285 
L 222.270369 188.325417 
L 222.659071 178.146251 
L 223.047773 175.517465 
L 223.436475 173.72523 
L 223.825177 173.5414 
L 224.213879 165.968481 
L 224.602581 160.837604 
L 224.991283 168.960844 
L 225.379985 174.195657 
L 225.768688 188.820597 
L 226.15739 197.525092 
L 226.546092 197.092272 
L 226.934794 199.548369 
L 227.712198 208.654191 
L 228.1009 211.526357 
L 228.489602 213.28886 
L 228.878304 209.784395 
L 229.267006 195.314542 
L 229.655708 195.380056 
L 230.433112 198.92096 
L 231.210516 198.538965 
L 231.599218 192.821081 
L 231.98792 190.092938 
L 232.376622 205.179393 
L 232.765324 208.190934 
L 233.154026 209.791056 
L 233.542728 209.428972 
L 234.320132 196.794551 
L 234.708834 185.560522 
L 235.097536 179.680485 
L 235.486239 185.130078 
L 235.874941 186.60687 
L 236.263643 190.751749 
L 236.652345 198.175078 
L 237.041047 199.554133 
L 237.429749 200.368958 
L 237.818451 204.398963 
L 238.207153 202.947282 
L 238.595855 192.361109 
L 239.373259 153.531243 
L 239.761961 154.146913 
L 240.150663 165.022779 
L 240.539365 182.17672 
L 241.316769 198.256192 
L 241.705471 203.6309 
L 242.094173 203.494472 
L 242.482875 215.387503 
L 242.871577 212.484482 
L 243.260279 214.303436 
L 244.037683 219.764061 
L 244.426385 218.460969 
L 244.815088 217.855412 
L 245.20379 216.602879 
L 245.592492 211.953614 
L 245.981194 205.60303 
L 246.369896 196.781928 
L 246.758598 183.866422 
L 247.924704 119.642352 
L 248.313406 96.022838 
L 248.702108 87.65996 
L 249.09081 103.744848 
L 249.868214 148.86108 
L 250.256916 159.394521 
L 250.645618 157.11436 
L 251.03432 149.990274 
L 251.423022 146.587637 
L 251.811724 137.337981 
L 252.200426 133.6149 
L 252.589128 141.096305 
L 252.97783 157.340814 
L 253.366532 180.387979 
L 253.755234 194.113616 
L 254.143936 199.129904 
L 254.532639 198.667302 
L 254.921341 195.330661 
L 255.310043 203.972349 
L 255.698745 206.754459 
L 256.087447 210.526182 
L 256.476149 210.422938 
L 256.864851 206.429099 
L 257.253553 205.696897 
L 257.642255 203.334055 
L 258.030957 202.981405 
L 258.419659 182.534642 
L 258.808361 195.289667 
L 259.197063 197.704535 
L 259.585765 205.87771 
L 259.974467 208.280104 
L 260.363169 207.348009 
L 261.140573 190.263459 
L 261.529275 193.891051 
L 261.917977 204.192093 
L 262.306679 204.898006 
L 262.695381 205.038451 
L 263.084083 190.799299 
L 263.472785 167.424532 
L 264.25019 150.996079 
L 264.638892 148.864468 
L 265.027594 157.018208 
L 265.416296 175.504223 
L 265.804998 188.464884 
L 266.1937 187.180007 
L 266.582402 189.648768 
L 267.748508 207.641387 
L 268.13721 207.858625 
L 268.914614 204.901568 
L 269.303316 208.637523 
L 269.692018 211.285155 
L 270.08072 215.281104 
L 270.469422 215.120837 
L 270.858124 210.917608 
L 271.246826 214.494644 
L 271.635528 214.394875 
L 272.02423 213.241209 
L 272.412932 215.345552 
L 272.801634 213.749944 
L 273.579039 187.603782 
L 273.967741 200.13573 
L 274.356443 205.36751 
L 274.745145 207.037894 
L 275.133847 206.789923 
L 275.522549 195.242834 
L 276.688655 127.690225 
L 277.077357 118.646076 
L 277.854761 138.785244 
L 278.243463 142.114531 
L 279.020867 161.610802 
L 279.409569 165.613833 
L 279.798271 161.346689 
L 280.964377 213.37386 
L 281.353079 213.257706 
L 281.741781 209.769464 
L 282.130483 211.766658 
L 282.519185 207.20112 
L 283.29659 212.814988 
L 283.685292 212.896122 
L 284.073994 215.451078 
L 284.851398 204.885257 
L 285.2401 190.255829 
L 285.628802 160.844565 
L 286.017504 142.663808 
L 286.406206 151.078193 
L 286.794908 163.23722 
L 287.18361 181.65037 
L 287.572312 189.633144 
L 287.961014 191.291146 
L 288.349716 186.992253 
L 288.738418 180.040671 
L 289.12712 178.360258 
L 289.904524 195.420537 
L 290.293226 193.0965 
L 290.681928 182.320169 
L 291.07063 175.634594 
L 291.459332 172.409946 
L 291.848034 191.999648 
L 292.236736 195.886636 
L 293.014141 162.652185 
L 293.402843 166.208762 
L 294.180247 195.794066 
L 294.568949 201.088293 
L 294.957651 200.396925 
L 295.346353 198.72612 
L 295.735055 199.556364 
L 296.123757 191.212708 
L 296.512459 194.905025 
L 296.901161 209.222548 
L 297.289863 212.049205 
L 298.455969 196.852002 
L 298.844671 199.86652 
L 299.233373 210.219921 
L 299.622075 209.072265 
L 300.010777 208.956632 
L 300.399479 207.323757 
L 300.788181 193.206573 
L 301.565585 147.551916 
L 301.954288 142.319576 
L 302.34299 145.77901 
L 303.120394 179.826203 
L 303.509096 187.252153 
L 303.897798 183.08893 
L 304.2865 173.391816 
L 304.675202 170.453093 
L 305.063904 178.379204 
L 305.841308 197.88273 
L 306.23001 201.007247 
L 306.618712 206.855751 
L 307.007414 209.78632 
L 307.396116 208.314503 
L 307.784818 197.039714 
L 308.17352 195.715993 
L 308.562222 203.575589 
L 309.339626 211.925674 
L 309.728328 215.862887 
L 310.505732 209.832319 
L 310.894434 203.600667 
L 311.283136 207.458341 
L 311.671839 214.746295 
L 312.060541 216.742425 
L 312.449243 214.93866 
L 312.837945 209.078431 
L 313.226647 200.26129 
L 313.615349 197.814993 
L 314.004051 187.554033 
L 315.170157 140.769452 
L 315.558859 136.898428 
L 315.947561 135.593575 
L 316.724965 146.063847 
L 317.113667 135.229013 
L 317.502369 117.902509 
L 317.891071 109.780357 
L 318.279773 130.197927 
L 319.057177 192.003139 
L 319.445879 200.772747 
L 319.834581 199.865618 
L 320.223283 196.269201 
L 320.611985 187.320097 
L 321.000688 189.119239 
L 321.38939 192.178232 
L 321.778092 200.924387 
L 322.166794 203.288276 
L 322.555496 198.606678 
L 322.944198 197.908288 
L 323.3329 202.672697 
L 323.721602 199.007956 
L 324.110304 196.681297 
L 324.499006 206.608726 
L 324.887708 204.833829 
L 325.27641 204.631149 
L 326.053814 211.478728 
L 326.442516 209.575366 
L 326.831218 194.554077 
L 327.21992 195.235679 
L 327.608622 199.464601 
L 327.997324 198.162074 
L 328.386026 204.082166 
L 328.774728 203.671705 
L 329.16343 193.189004 
L 329.552132 193.887884 
L 329.940834 191.571588 
L 331.106941 181.884749 
L 331.495643 159.831798 
L 331.884345 147.914617 
L 332.273047 159.353226 
L 332.661749 165.049717 
L 333.050451 180.454831 
L 333.439153 190.906996 
L 333.827855 195.526209 
L 334.216557 197.486135 
L 334.605259 196.413155 
L 334.993961 199.551986 
L 335.382663 198.548136 
L 335.771365 196.473998 
L 336.160067 187.214933 
L 336.548769 181.737641 
L 336.937471 183.891693 
L 337.326173 202.208387 
L 337.714875 206.081138 
L 338.103577 208.75728 
L 338.492279 209.633151 
L 338.880981 208.635834 
L 339.269683 208.408047 
L 339.658385 206.804104 
L 340.047088 204.633487 
L 340.43579 209.270291 
L 340.824492 200.997339 
L 341.213194 189.033222 
L 341.601896 188.213453 
L 341.990598 187.041852 
L 342.3793 172.300844 
L 342.768002 143.147886 
L 343.156704 124.481138 
L 343.545406 120.153348 
L 344.32281 182.679434 
L 344.711512 186.894239 
L 345.488916 192.142387 
L 345.877618 197.286873 
L 346.26632 190.355483 
L 346.655022 198.281634 
L 347.043724 210.025837 
L 347.432426 210.033418 
L 347.821128 210.232074 
L 348.20983 208.542384 
L 348.987234 190.705396 
L 349.375936 190.402224 
L 349.764639 202.336206 
L 350.153341 207.043375 
L 350.542043 209.245653 
L 350.930745 206.672264 
L 351.319447 201.14034 
L 351.708149 203.126749 
L 352.096851 211.931961 
L 352.874255 210.038367 
L 353.262957 212.909511 
L 354.040361 187.375171 
L 354.429063 195.759048 
L 354.817765 199.967198 
L 355.206467 202.593069 
L 355.595169 206.016477 
L 355.983871 200.043018 
L 356.761275 156.983472 
L 357.149977 150.557308 
L 357.538679 162.587702 
L 357.927381 179.170099 
L 358.316083 188.751316 
L 358.704785 182.627318 
L 359.093488 174.365399 
L 359.48219 168.957807 
L 359.870892 175.627663 
L 360.259594 194.037986 
L 360.648296 202.810478 
L 361.036998 192.342787 
L 361.4257 194.183504 
L 361.814402 201.949031 
L 362.203104 213.428664 
L 362.591806 218.145627 
L 362.980508 214.881058 
L 363.36921 213.091819 
L 363.757912 214.581438 
L 364.535316 196.677557 
L 364.924018 196.515109 
L 365.31272 200.356945 
L 365.701422 202.294684 
L 366.090124 202.398224 
L 366.478826 201.615891 
L 367.25623 170.98034 
L 367.644932 168.852189 
L 368.033634 159.223892 
L 368.811039 131.497503 
L 369.199741 130.657436 
L 369.588443 121.134575 
L 369.977145 123.878547 
L 370.365847 125.156928 
L 371.143251 111.034938 
L 371.531953 125.655691 
L 372.309357 165.487316 
L 373.475463 190.827686 
L 374.252867 204.84509 
L 374.641569 198.362226 
L 375.030271 194.083226 
L 375.418973 195.418413 
L 375.807675 202.979102 
L 376.196377 203.869707 
L 376.585079 206.594897 
L 376.973781 210.730235 
L 377.362483 209.951809 
L 377.751185 211.645246 
L 378.52859 206.321942 
L 378.917292 211.425117 
L 379.305994 211.355174 
L 379.694696 213.278579 
L 380.083398 212.876377 
L 380.860802 198.470984 
L 382.41561 172.713647 
L 382.804312 183.527354 
L 383.193014 180.603175 
L 383.970418 183.625123 
L 384.35912 182.592178 
L 384.747822 168.770475 
L 385.136524 161.423635 
L 385.525226 179.156473 
L 385.913928 204.538317 
L 386.30263 216.847396 
L 386.691332 217.174158 
L 387.080034 217.659551 
L 387.468736 214.195995 
L 387.857439 212.156524 
L 388.246141 211.287863 
L 388.634843 205.916957 
L 389.023545 207.277379 
L 389.412247 203.029807 
L 389.800949 195.169749 
L 390.578353 207.855253 
L 390.967055 212.274003 
L 391.355757 213.393486 
L 391.744459 211.124304 
L 392.521863 205.172709 
L 392.910565 204.838312 
L 393.299267 206.569594 
L 394.076671 211.555451 
L 394.465373 209.616876 
L 396.020181 169.266624 
L 396.408883 165.996378 
L 396.797585 168.008522 
L 397.186288 162.984102 
L 397.963692 192.66629 
L 398.352394 194.014217 
L 398.741096 192.702047 
L 399.5185 195.966693 
L 399.907202 203.055381 
L 400.295904 202.237698 
L 400.684606 199.790462 
L 401.46201 204.185018 
L 401.850712 207.287042 
L 402.239414 213.162614 
L 402.628116 214.96896 
L 403.016818 211.145952 
L 403.794222 194.717455 
L 404.182924 192.177076 
L 404.960328 214.293322 
L 405.737732 215.644394 
L 406.126434 215.587496 
L 406.903839 178.62376 
L 408.847349 85.780023 
L 409.236051 97.913798 
L 410.013455 143.161689 
L 410.402157 154.093542 
L 410.790859 156.188865 
L 411.179561 156.894137 
L 411.568263 163.56317 
L 412.345667 200.403885 
L 412.734369 206.762314 
L 413.123071 201.687933 
L 413.511773 194.888507 
L 414.289177 204.714323 
L 414.677879 204.757911 
L 415.066581 207.816879 
L 415.455283 207.963113 
L 415.843985 203.918015 
L 416.232688 196.616068 
L 416.62139 198.778173 
L 417.010092 197.87523 
L 417.398794 203.09819 
L 417.787496 204.855454 
L 418.176198 204.120791 
L 418.5649 205.150504 
L 418.953602 200.866521 
L 419.342304 191.131686 
L 419.731006 197.982402 
L 420.50841 195.280147 
L 420.897112 186.951039 
L 421.674516 162.76489 
L 422.063218 156.981881 
L 422.45192 162.87901 
L 422.840622 179.060957 
L 423.229324 187.623003 
L 423.618026 184.915591 
L 424.006728 181.035991 
L 424.39543 182.302071 
L 425.561536 190.509716 
L 425.950239 197.489705 
L 426.727643 204.381124 
L 427.116345 204.307082 
L 427.505047 204.903954 
L 427.893749 207.779628 
L 428.282451 213.900922 
L 428.671153 213.307779 
L 429.059855 210.07689 
L 429.448557 209.829893 
L 429.837259 207.417243 
L 430.225961 206.653094 
L 430.614663 208.754913 
L 431.003365 208.799397 
L 431.392067 208.177646 
L 431.780769 209.006999 
L 432.169471 210.567351 
L 432.558173 210.167071 
L 432.946875 207.043585 
L 433.335577 208.411621 
L 433.724279 211.413421 
L 434.112981 199.810925 
L 434.890385 145.742977 
L 435.66779 116.126674 
L 436.056492 111.915176 
L 436.445194 119.966145 
L 436.833896 135.765661 
L 437.222598 159.073371 
L 437.6113 175.709167 
L 438.388704 195.844966 
L 438.777406 202.699205 
L 439.166108 211.652272 
L 439.55481 209.131388 
L 439.943512 198.344214 
L 440.332214 205.876956 
L 440.720916 207.565881 
L 441.109618 205.492779 
L 441.49832 201.965435 
L 442.275724 197.862454 
L 442.664426 204.547275 
L 443.44183 209.069833 
L 443.830532 204.000966 
L 444.219234 193.04759 
L 444.607936 187.675322 
L 444.996639 195.918427 
L 445.385341 197.979645 
L 445.774043 193.214322 
L 446.551447 146.699622 
L 446.940149 138.706313 
L 447.328851 138.465497 
L 447.717553 140.110368 
L 448.106255 134.048681 
L 448.494957 136.132906 
L 449.272361 142.354878 
L 449.661063 142.998925 
L 450.049765 162.657538 
L 450.438467 170.795771 
L 450.827169 171.654174 
L 451.215871 190.407989 
L 451.604573 201.871097 
L 451.993275 199.452025 
L 452.381977 192.840202 
L 452.770679 204.841522 
L 453.159381 211.514026 
L 453.548083 214.278003 
L 453.936785 213.692099 
L 454.325488 199.895397 
L 454.71419 191.742009 
L 455.102892 187.673328 
L 455.491594 197.555337 
L 455.880296 199.753125 
L 456.6577 210.130209 
L 457.046402 204.402863 
L 457.435104 200.380916 
L 458.212508 208.660656 
L 458.60121 209.051331 
L 458.989912 206.925322 
L 459.378614 200.039504 
L 459.767316 187.075136 
L 460.156018 193.090595 
L 460.54472 188.057847 
L 461.322124 153.63141 
L 461.710826 151.593885 
L 462.099528 159.918476 
L 462.48823 163.340483 
L 462.876932 178.093379 
L 463.265634 199.486256 
L 463.654336 201.65597 
L 464.043039 200.479362 
L 464.431741 205.470974 
L 464.820443 205.01995 
L 465.209145 209.344658 
L 465.597847 210.972089 
L 465.986549 203.779576 
L 466.375251 189.873372 
L 466.763953 201.389248 
L 467.152655 196.200745 
L 467.541357 199.306568 
L 467.930059 204.998697 
L 468.707463 192.729495 
L 469.096165 202.934004 
L 469.484867 202.826477 
L 469.873569 196.445781 
L 470.262271 197.104084 
L 470.650973 203.189809 
L 471.428377 209.033297 
L 471.817079 206.280947 
L 472.205781 194.244363 
L 472.983185 202.728828 
L 473.371888 202.579322 
L 473.76059 203.15776 
L 474.149292 203.297678 
L 474.537994 200.911944 
L 474.926696 196.647682 
L 475.315398 185.112928 
L 476.481504 124.891729 
L 476.870206 139.507786 
L 477.258908 165.829764 
L 477.64761 172.229033 
L 478.036312 176.476213 
L 478.425014 178.81117 
L 479.202418 191.667071 
L 479.979822 208.112806 
L 480.368524 213.274053 
L 480.757226 212.724112 
L 481.145928 215.855101 
L 481.53463 211.839114 
L 481.923332 211.019283 
L 482.312034 208.196923 
L 482.700736 202.239984 
L 483.089439 204.351015 
L 483.478141 204.880222 
L 484.255545 208.152279 
L 485.032949 195.391886 
L 485.421651 185.368404 
L 486.199055 181.008857 
L 486.587757 175.049261 
L 487.365161 157.596217 
L 487.753863 163.752662 
L 488.531267 151.559342 
L 488.919969 149.743401 
L 489.308671 153.572729 
L 489.697373 162.460039 
L 490.086075 175.918457 
L 490.474777 185.340328 
L 490.863479 189.827575 
L 491.252181 188.449365 
L 491.640883 191.789997 
L 492.029585 190.863484 
L 492.418288 194.397527 
L 492.80699 206.252844 
L 493.195692 201.230351 
L 493.584394 200.810847 
L 493.973096 198.363989 
L 494.361798 196.674149 
L 494.7505 193.270864 
L 495.139202 205.033012 
L 495.527904 203.549089 
L 495.916606 205.066089 
L 496.305308 203.393498 
L 496.69401 197.318958 
L 497.082712 196.32892 
L 497.471414 193.428958 
L 497.860116 197.22723 
L 498.248818 197.207345 
L 498.63752 197.720747 
L 499.026222 196.865337 
L 499.414924 199.699095 
L 500.192328 180.413026 
L 500.58103 167.06525 
L 500.969732 165.606697 
L 501.747136 169.037466 
L 502.135839 169.768411 
L 502.524541 172.958995 
L 503.301945 183.73806 
L 503.690647 193.443319 
L 504.079349 199.598855 
L 504.468051 200.708151 
L 504.856753 193.124309 
L 505.245455 206.431928 
L 505.634157 204.539188 
L 506.022859 195.657263 
L 506.411561 196.115019 
L 506.800263 204.812046 
L 507.188965 189.95474 
L 507.577667 186.467228 
L 507.966369 184.698357 
L 508.355071 188.455684 
L 509.132475 214.58838 
L 509.521177 215.627261 
L 509.909879 210.035176 
L 510.298581 199.911661 
L 510.687283 211.887124 
L 511.075985 212.432087 
L 511.464688 213.681242 
L 511.85339 211.866917 
L 512.242092 211.883093 
L 512.630794 196.5782 
L 513.408198 149.771265 
L 513.7969 138.558264 
L 514.185602 143.424971 
L 514.574304 175.887697 
L 514.963006 190.791353 
L 515.351708 186.973645 
L 516.129112 157.243824 
L 516.517814 157.075918 
L 517.295218 190.841233 
L 518.072622 203.156511 
L 518.850026 207.026094 
L 519.238728 213.934187 
L 519.62743 203.567865 
L 520.016132 201.154312 
L 520.404834 206.492465 
L 520.793536 214.60394 
L 521.182239 214.700539 
L 521.959643 196.274052 
L 522.348345 201.714605 
L 522.737047 198.158301 
L 523.125749 188.23063 
L 523.514451 189.275708 
L 523.903153 188.926312 
L 524.291855 190.385025 
L 524.680557 187.901969 
L 525.846663 159.453164 
L 526.235365 149.524802 
L 526.624067 143.122459 
L 527.012769 146.266633 
L 527.401471 142.127273 
L 527.790173 134.303029 
L 528.178875 132.451557 
L 528.567577 123.497275 
L 528.956279 130.595939 
L 530.122385 180.311757 
L 530.511088 184.250429 
L 530.89979 180.672046 
L 531.288492 186.288837 
L 531.677194 189.207827 
L 532.065896 190.499426 
L 532.454598 193.955545 
L 532.8433 198.957302 
L 533.232002 200.817596 
L 533.620704 200.978623 
L 534.009406 209.950033 
L 534.398108 208.703912 
L 534.78681 206.773187 
L 535.175512 212.0353 
L 535.564214 210.238665 
L 535.952916 206.996444 
L 536.341618 206.047105 
L 536.73032 198.563812 
L 537.119022 196.874717 
L 537.896426 206.073704 
L 538.285128 208.494358 
L 538.67383 207.77099 
L 539.062532 207.677906 
L 539.451234 205.548423 
L 540.228639 191.418942 
L 540.617341 185.164214 
L 541.006043 172.730596 
L 541.394745 180.443366 
L 542.172149 201.912778 
L 542.560851 208.574764 
L 542.949553 209.72964 
L 543.338255 210.003025 
L 543.726957 208.692091 
L 544.115659 205.533931 
L 544.504361 197.275798 
L 544.893063 186.549635 
L 545.281765 191.461139 
L 546.447871 212.291621 
L 546.836573 212.809586 
L 547.225275 211.498638 
L 547.613977 205.148796 
L 548.002679 212.03602 
L 548.391381 215.601458 
L 548.780083 215.255165 
L 549.168785 211.837986 
L 549.557488 203.340681 
L 549.94619 198.122325 
L 550.334892 200.78113 
L 550.723594 207.378116 
L 551.112296 207.646912 
L 551.500998 205.756989 
L 551.8897 198.732509 
L 552.278402 183.337251 
L 553.055806 134.271493 
L 553.444508 126.494145 
L 553.83321 143.062396 
L 554.221912 170.323919 
L 554.610614 188.488854 
L 554.999316 197.539008 
L 555.388018 192.996392 
L 556.165422 156.576361 
L 556.554124 146.04436 
L 556.942826 159.97621 
L 557.331528 187.771514 
L 557.72023 203.82633 
L 558.497634 215.323762 
L 558.886336 217.103241 
L 559.275039 215.435268 
L 559.663741 214.379757 
L 560.052443 215.138477 
L 560.441145 211.595363 
L 560.829847 197.222274 
L 561.218549 197.599006 
L 561.607251 207.599391 
L 561.995953 210.773171 
L 562.384655 212.019669 
L 562.773357 210.271039 
L 563.162059 201.624554 
L 563.550761 190.099227 
L 564.328165 146.592052 
L 564.716867 136.40923 
L 565.105569 135.545171 
L 565.494271 138.146578 
L 565.882973 134.56239 
L 566.271675 127.391309 
L 566.660377 116.975514 
L 567.049079 118.165907 
L 567.437781 137.409994 
L 567.826483 151.092517 
L 568.215185 158.387616 
L 568.603888 158.189206 
L 568.99259 154.32315 
L 569.381292 159.877483 
L 570.547398 195.927734 
L 570.9361 203.789108 
L 571.324802 203.52715 
L 571.713504 204.253183 
L 572.102206 209.570053 
L 572.490908 210.05794 
L 572.87961 204.541501 
L 573.268312 201.437216 
L 573.657014 205.754236 
L 574.045716 208.088498 
L 574.434418 209.613708 
L 574.82312 214.196604 
L 575.211822 213.435192 
L 575.600524 206.623819 
L 575.989226 205.168531 
L 576.377928 201.858041 
L 576.76663 201.641908 
L 577.155332 206.466482 
L 577.544034 205.676366 
L 577.932736 202.711951 
L 578.321439 195.634796 
L 578.710141 184.237182 
L 579.487545 148.086202 
L 579.876247 148.916087 
L 580.653651 158.228396 
L 581.042353 156.572019 
L 581.431055 161.036848 
L 581.819757 162.937577 
L 582.208459 163.990992 
L 582.597161 163.098073 
L 583.374565 189.589816 
L 583.763267 195.453297 
L 584.151969 197.187662 
L 584.540671 201.449104 
L 584.929373 208.850147 
L 585.318075 206.872402 
L 585.706777 212.367408 
L 586.095479 209.938586 
L 586.484181 210.754738 
L 586.872883 210.997686 
L 587.261585 210.764293 
L 587.650288 213.341894 
L 588.03899 212.960293 
L 588.427692 209.808138 
L 588.816394 209.307382 
L 589.205096 211.162666 
L 589.593798 207.363083 
L 589.9825 205.645797 
L 590.371202 206.433063 
L 590.759904 210.336973 
L 591.148606 207.792831 
L 591.537308 199.036612 
L 591.92601 204.064657 
L 593.092116 155.460556 
L 593.480818 155.269001 
L 593.86952 175.106787 
L 594.258222 184.691065 
L 594.646924 177.394179 
L 595.035626 156.788846 
L 595.81303 159.606413 
L 596.979136 201.943099 
L 597.367839 211.377867 
L 597.756541 210.699495 
L 598.145243 211.392018 
L 598.533945 213.206614 
L 598.922647 208.90177 
L 599.311349 208.777804 
L 599.700051 206.975299 
L 600.088753 197.973702 
L 600.477455 197.951549 
L 600.866157 208.049945 
L 601.254859 211.415686 
L 601.643561 210.124077 
L 602.420965 191.315186 
L 602.809667 173.396013 
L 603.198369 166.021385 
L 603.587071 169.735949 
L 603.975773 177.053398 
L 604.364475 177.58631 
L 605.141879 168.248416 
L 605.530581 174.398858 
L 605.919283 188.862234 
L 606.307985 189.672564 
L 606.696688 186.910125 
L 607.08539 189.563166 
L 607.474092 182.413852 
L 607.862794 170.26495 
L 608.640198 176.282788 
L 609.417602 187.118518 
L 609.806304 194.033146 
L 610.583708 201.277176 
L 610.97241 200.174954 
L 611.361112 178.416085 
L 612.138516 195.96739 
L 612.527218 211.819837 
L 612.91592 216.928376 
L 613.304622 217.730999 
L 613.693324 215.385647 
L 614.082026 211.648752 
L 614.470728 202.496022 
L 614.85943 204.222744 
L 615.248132 202.775104 
L 615.636834 210.195438 
L 616.025536 207.83327 
L 616.802941 186.742777 
L 617.191643 180.771663 
L 617.580345 160.621142 
L 617.969047 131.156992 
L 618.357749 124.965776 
L 618.746451 133.156685 
L 619.135153 150.926286 
L 619.523855 163.122829 
L 619.912557 166.417612 
L 620.301259 162.007993 
L 620.689961 165.174463 
L 621.078663 173.633616 
L 622.633471 197.211237 
L 623.022173 197.310945 
L 623.410875 202.040098 
L 623.799577 202.724724 
L 624.188279 186.045518 
L 624.576981 191.053268 
L 624.965683 206.763907 
L 625.354385 209.344353 
L 625.743088 213.298893 
L 626.13179 211.188177 
L 626.520492 206.583317 
L 626.909194 196.690642 
L 627.297896 197.191578 
L 627.686598 209.02489 
L 628.0753 212.712935 
L 628.464002 205.324972 
L 629.241406 182.199809 
L 629.630108 176.620377 
L 630.01881 166.886832 
L 630.796214 172.489905 
L 631.184916 164.545249 
L 631.573618 153.753041 
L 631.96232 149.215555 
L 632.351022 155.637553 
L 632.739724 167.524122 
L 633.517128 173.078979 
L 633.90583 163.652264 
L 634.294532 147.065535 
L 634.683234 144.484449 
L 635.460639 174.362146 
L 635.849341 174.81181 
L 636.626745 195.353989 
L 637.015447 198.618451 
L 637.404149 199.432839 
L 637.792851 207.98466 
L 638.181553 209.511651 
L 638.570255 204.584229 
L 638.958957 204.761188 
L 639.347659 203.245513 
L 639.736361 202.72781 
L 640.125063 200.509691 
L 640.513765 203.796995 
L 640.902467 209.495744 
L 641.291169 204.279716 
L 641.679871 196.241403 
L 642.068573 194.622381 
L 642.457275 201.187534 
L 643.234679 203.214238 
L 643.623381 191.84853 
L 644.012083 191.000457 
L 644.400785 187.860585 
L 644.789488 182.9613 
L 645.17819 192.808571 
L 645.955594 185.477749 
L 646.344296 185.867956 
L 646.732998 191.802764 
L 647.1217 200.61918 
L 647.899104 206.495136 
L 648.287806 205.522243 
L 648.676508 199.091055 
L 649.453912 170.267414 
L 650.231316 188.879595 
L 650.620018 202.094298 
L 651.00872 202.400578 
L 651.397422 198.534923 
L 651.786124 196.905169 
L 652.174826 194.421308 
L 652.563528 200.284479 
L 652.95223 201.871477 
L 653.340932 196.390596 
L 653.729634 210.822436 
L 654.118336 209.824053 
L 654.507039 202.122855 
L 654.895741 197.699287 
L 655.284443 196.795221 
L 655.673145 194.664112 
L 656.061847 198.176436 
L 656.450549 203.895591 
L 656.839251 206.060605 
L 657.616655 177.885968 
L 658.005357 159.994123 
L 658.394059 161.298048 
L 658.782761 176.848805 
L 659.171463 180.58828 
L 659.560165 179.724778 
L 659.948867 174.148055 
L 660.337569 173.288714 
L 660.726271 173.825845 
L 661.114973 179.333644 
L 661.503675 202.387274 
L 661.892377 207.611632 
L 662.281079 208.778611 
L 662.669781 205.026778 
L 663.058483 195.773024 
L 663.447185 202.309173 
L 663.835888 205.493625 
L 664.22459 206.76754 
L 664.613292 201.116074 
L 665.001994 200.832111 
L 665.390696 199.250914 
L 666.1681 207.223155 
L 666.556802 204.708494 
L 666.945504 206.193895 
L 667.334206 212.409807 
L 667.722908 211.145534 
L 668.11161 209.463517 
L 668.500312 209.305745 
L 668.889014 210.747231 
L 669.277716 211.480832 
L 669.666418 214.376331 
L 670.05512 214.326067 
L 670.443822 208.907191 
L 671.221226 186.079905 
L 671.609928 164.761421 
L 671.99863 154.734824 
L 672.387332 149.857492 
L 672.776034 150.819655 
L 673.164736 165.887474 
L 673.553439 188.649878 
L 673.942141 194.49643 
L 674.330843 183.420247 
L 675.108247 140.928026 
L 675.885651 184.346208 
L 676.663055 206.286004 
L 677.051757 211.784926 
L 677.440459 213.950714 
L 677.829161 209.804967 
L 678.217863 202.548965 
L 678.606565 204.37001 
L 678.995267 211.209179 
L 679.383969 214.600581 
L 679.772671 215.327303 
L 680.161373 209.838317 
L 680.550075 208.9856 
L 680.938777 203.362918 
L 681.327479 195.771876 
L 681.716181 184.271563 
L 682.493585 138.216453 
L 682.882288 131.462943 
L 683.27099 129.317821 
L 683.659692 139.899243 
L 684.048394 142.001365 
L 684.437096 130.415953 
L 684.825798 123.88927 
L 685.2145 122.402448 
L 686.380606 173.51924 
L 686.769308 178.170975 
L 687.546712 171.013945 
L 687.935414 171.500146 
L 688.324116 184.984524 
L 688.712818 194.611308 
L 689.10152 190.620184 
L 689.490222 200.906651 
L 689.878924 201.257939 
L 690.267626 202.716474 
L 690.656328 195.449332 
L 691.04503 192.108828 
L 691.433732 192.277162 
L 691.822434 194.94639 
L 692.211136 201.247386 
L 692.599839 204.727104 
L 692.988541 205.349062 
L 693.377243 209.446522 
L 694.154647 177.892101 
L 694.543349 185.361997 
L 694.932051 202.309249 
L 695.320753 205.019114 
L 695.709455 204.124963 
L 696.098157 194.906455 
L 696.875561 160.843409 
L 697.264263 154.942713 
L 697.652965 161.329419 
L 698.430369 186.48739 
L 699.207773 206.674007 
L 699.596475 208.522331 
L 699.985177 205.886241 
L 700.373879 204.816592 
L 700.762581 205.084457 
L 701.151283 203.831181 
L 701.539985 196.518181 
L 701.928688 197.82113 
L 702.31739 197.050374 
L 702.706092 199.067157 
L 703.094794 198.565033 
L 703.483496 203.646233 
L 703.872198 205.452318 
L 704.2609 198.202968 
L 704.649602 196.762509 
L 705.038304 196.85688 
L 705.038304 196.85688 
" style="fill:none;stroke:#1f77b4;stroke-linecap:square;stroke-width:2;"/>
   </g>
   <g id="patch_3">
    <path d="M 35.304688 279 
L 35.304688 7.2 
" style="fill:none;stroke:#000000;stroke-linecap:square;stroke-linejoin:miter;stroke-width:0.8;"/>
   </g>
   <g id="patch_4">
    <path d="M 704.904688 279 
L 704.904688 7.2 
" style="fill:none;stroke:#000000;stroke-linecap:square;stroke-linejoin:miter;stroke-width:0.8;"/>
   </g>
   <g id="patch_5">
    <path d="M 35.304688 279 
L 704.904688 279 
" style="fill:none;stroke:#000000;stroke-linecap:square;stroke-linejoin:miter;stroke-width:0.8;"/>
   </g>
   <g id="patch_6">
    <path d="M 35.304688 7.2 
L 704.904688 7.2 
" style="fill:none;stroke:#000000;stroke-linecap:square;stroke-linejoin:miter;stroke-width:0.8;"/>
   </g>
  </g>
 </g>
 <defs>
  <clipPath id="p762fae840e">
   <rect height="271.8" width="669.6" x="35.304688" y="7.2"/>
  </clipPath>
 </defs>
</svg>
