<?xml version="1.0" encoding="utf-8" standalone="no"?>
<!DOCTYPE svg PUBLIC "-//W3C//DTD SVG 1.1//EN"
  "http://www.w3.org/Graphics/SVG/1.1/DTD/svg11.dtd">
<svg xmlns:xlink="http://www.w3.org/1999/xlink" width="684pt" height="583.687029pt" viewBox="0 0 684 583.687029" xmlns="http://www.w3.org/2000/svg" version="1.1">
 <metadata>
  <rdf:RDF xmlns:dc="http://purl.org/dc/elements/1.1/" xmlns:cc="http://creativecommons.org/ns#" xmlns:rdf="http://www.w3.org/1999/02/22-rdf-syntax-ns#">
   <cc:Work>
    <dc:type rdf:resource="http://purl.org/dc/dcmitype/StillImage"/>
    <dc:date>2023-02-13T13:33:12.889685</dc:date>
    <dc:format>image/svg+xml</dc:format>
    <dc:creator>
     <cc:Agent>
      <dc:title>Matplotlib v3.5.2, https://matplotlib.org/</dc:title>
     </cc:Agent>
    </dc:creator>
   </cc:Work>
  </rdf:RDF>
 </metadata>
 <defs>
  <style type="text/css">*{stroke-linejoin: round; stroke-linecap: butt}</style>
 </defs>
 <g id="figure_1">
  <g id="patch_1">
   <path d="M 0 583.687029 
L 684 583.687029 
L 684 0 
L 0 0 
z
" style="fill: #ffffff"/>
  </g>
  <g id="axes_1">
   <g id="text_1">
    <!-- 0 -->
    <g transform="translate(20.592 29.135466)scale(0.1 -0.1)">
     <defs>
      <path id="DejaVuSans-30" d="M 2034 4250 
Q 1547 4250 1301 3770 
Q 1056 3291 1056 2328 
Q 1056 1369 1301 889 
Q 1547 409 2034 409 
Q 2525 409 2770 889 
Q 3016 1369 3016 2328 
Q 3016 3291 2770 3770 
Q 2525 4250 2034 4250 
z
M 2034 4750 
Q 2819 4750 3233 4129 
Q 3647 3509 3647 2328 
Q 3647 1150 3233 529 
Q 2819 -91 2034 -91 
Q 1250 -91 836 529 
Q 422 1150 422 2328 
Q 422 3509 836 4129 
Q 1250 4750 2034 4750 
z
" transform="scale(0.015625)"/>
     </defs>
     <use xlink:href="#DejaVuSans-30"/>
    </g>
   </g>
  </g>
  <g id="axes_2">
   <g id="line2d_1">
    <path d="M 53.706764 26.863019 
L 61.073924 26.863019 
L 68.441085 26.863019 
L 75.808246 26.863019 
L 83.175407 26.863019 
L 90.542568 26.863019 
L 97.909729 26.863019 
L 105.27689 26.863019 
L 112.64405 26.863019 
L 120.011211 26.863019 
L 127.378372 26.863019 
L 134.745533 26.863019 
L 142.112694 26.863019 
L 149.479855 26.863019 
L 156.847015 26.863019 
L 164.214176 26.863019 
L 171.581337 26.863019 
L 178.948498 26.863019 
L 186.315659 26.863019 
L 193.68282 26.863019 
L 201.04998 26.863019 
L 208.417141 26.863019 
L 215.784302 26.863019 
L 223.151463 26.863019 
L 230.518624 26.863019 
L 237.885785 26.863019 
L 245.252945 26.863019 
L 252.620106 26.863019 
L 259.987267 26.863019 
L 267.354428 26.863019 
L 274.721589 26.863019 
L 282.08875 26.863019 
L 289.45591 26.863019 
L 296.823071 26.863019 
L 304.190232 26.863019 
L 311.557393 26.863019 
L 318.924554 26.863019 
L 326.291715 26.863019 
L 333.658876 26.863019 
L 341.026036 26.863019 
" clip-path="url(#pe43f0ae97a)" style="fill: none; stroke: #1f77b4; stroke-width: 1.5; stroke-linecap: square"/>
   </g>
   <g id="text_2">
    <!-- Cosines -->
    <g transform="translate(174.092962 16.318125)scale(0.12 -0.12)">
     <defs>
      <path id="DejaVuSans-43" d="M 4122 4306 
L 4122 3641 
Q 3803 3938 3442 4084 
Q 3081 4231 2675 4231 
Q 1875 4231 1450 3742 
Q 1025 3253 1025 2328 
Q 1025 1406 1450 917 
Q 1875 428 2675 428 
Q 3081 428 3442 575 
Q 3803 722 4122 1019 
L 4122 359 
Q 3791 134 3420 21 
Q 3050 -91 2638 -91 
Q 1578 -91 968 557 
Q 359 1206 359 2328 
Q 359 3453 968 4101 
Q 1578 4750 2638 4750 
Q 3056 4750 3426 4639 
Q 3797 4528 4122 4306 
z
" transform="scale(0.015625)"/>
      <path id="DejaVuSans-6f" d="M 1959 3097 
Q 1497 3097 1228 2736 
Q 959 2375 959 1747 
Q 959 1119 1226 758 
Q 1494 397 1959 397 
Q 2419 397 2687 759 
Q 2956 1122 2956 1747 
Q 2956 2369 2687 2733 
Q 2419 3097 1959 3097 
z
M 1959 3584 
Q 2709 3584 3137 3096 
Q 3566 2609 3566 1747 
Q 3566 888 3137 398 
Q 2709 -91 1959 -91 
Q 1206 -91 779 398 
Q 353 888 353 1747 
Q 353 2609 779 3096 
Q 1206 3584 1959 3584 
z
" transform="scale(0.015625)"/>
      <path id="DejaVuSans-73" d="M 2834 3397 
L 2834 2853 
Q 2591 2978 2328 3040 
Q 2066 3103 1784 3103 
Q 1356 3103 1142 2972 
Q 928 2841 928 2578 
Q 928 2378 1081 2264 
Q 1234 2150 1697 2047 
L 1894 2003 
Q 2506 1872 2764 1633 
Q 3022 1394 3022 966 
Q 3022 478 2636 193 
Q 2250 -91 1575 -91 
Q 1294 -91 989 -36 
Q 684 19 347 128 
L 347 722 
Q 666 556 975 473 
Q 1284 391 1588 391 
Q 1994 391 2212 530 
Q 2431 669 2431 922 
Q 2431 1156 2273 1281 
Q 2116 1406 1581 1522 
L 1381 1569 
Q 847 1681 609 1914 
Q 372 2147 372 2553 
Q 372 3047 722 3315 
Q 1072 3584 1716 3584 
Q 2034 3584 2315 3537 
Q 2597 3491 2834 3397 
z
" transform="scale(0.015625)"/>
      <path id="DejaVuSans-69" d="M 603 3500 
L 1178 3500 
L 1178 0 
L 603 0 
L 603 3500 
z
M 603 4863 
L 1178 4863 
L 1178 4134 
L 603 4134 
L 603 4863 
z
" transform="scale(0.015625)"/>
      <path id="DejaVuSans-6e" d="M 3513 2113 
L 3513 0 
L 2938 0 
L 2938 2094 
Q 2938 2591 2744 2837 
Q 2550 3084 2163 3084 
Q 1697 3084 1428 2787 
Q 1159 2491 1159 1978 
L 1159 0 
L 581 0 
L 581 3500 
L 1159 3500 
L 1159 2956 
Q 1366 3272 1645 3428 
Q 1925 3584 2291 3584 
Q 2894 3584 3203 3211 
Q 3513 2838 3513 2113 
z
" transform="scale(0.015625)"/>
      <path id="DejaVuSans-65" d="M 3597 1894 
L 3597 1613 
L 953 1613 
Q 991 1019 1311 708 
Q 1631 397 2203 397 
Q 2534 397 2845 478 
Q 3156 559 3463 722 
L 3463 178 
Q 3153 47 2828 -22 
Q 2503 -91 2169 -91 
Q 1331 -91 842 396 
Q 353 884 353 1716 
Q 353 2575 817 3079 
Q 1281 3584 2069 3584 
Q 2775 3584 3186 3129 
Q 3597 2675 3597 1894 
z
M 3022 2063 
Q 3016 2534 2758 2815 
Q 2500 3097 2075 3097 
Q 1594 3097 1305 2825 
Q 1016 2553 972 2059 
L 3022 2063 
z
" transform="scale(0.015625)"/>
     </defs>
     <use xlink:href="#DejaVuSans-43"/>
     <use xlink:href="#DejaVuSans-6f" x="69.824219"/>
     <use xlink:href="#DejaVuSans-73" x="131.005859"/>
     <use xlink:href="#DejaVuSans-69" x="183.105469"/>
     <use xlink:href="#DejaVuSans-6e" x="210.888672"/>
     <use xlink:href="#DejaVuSans-65" x="274.267578"/>
     <use xlink:href="#DejaVuSans-73" x="335.791016"/>
    </g>
   </g>
  </g>
  <g id="axes_3">
   <g id="line2d_2">
    <path d="M 375.114764 35.952806 
L 382.481924 35.952806 
L 389.849085 35.952806 
L 397.216246 35.952806 
L 404.583407 35.952806 
L 411.950568 35.952806 
L 419.317729 35.952806 
L 426.68489 35.952806 
L 434.05205 35.952806 
L 441.419211 35.952806 
L 448.786372 35.952806 
L 456.153533 35.952806 
L 463.520694 35.952806 
L 470.887855 35.952806 
L 478.255015 35.952806 
L 485.622176 35.952806 
L 492.989337 35.952806 
L 500.356498 35.952806 
L 507.723659 35.952806 
L 515.09082 35.952806 
L 522.45798 35.952806 
L 529.825141 35.952806 
L 537.192302 35.952806 
L 544.559463 35.952806 
L 551.926624 35.952806 
L 559.293785 35.952806 
L 566.660945 35.952806 
L 574.028106 35.952806 
L 581.395267 35.952806 
L 588.762428 35.952806 
L 596.129589 35.952806 
L 603.49675 35.952806 
L 610.86391 35.952806 
L 618.231071 35.952806 
L 625.598232 35.952806 
L 632.965393 35.952806 
L 640.332554 35.952806 
L 647.699715 35.952806 
L 655.066876 35.952806 
L 662.434036 35.952806 
" clip-path="url(#pe3684a218d)" style="fill: none; stroke: #1f77b4; stroke-width: 1.5; stroke-linecap: square"/>
   </g>
   <g id="text_3">
    <!-- Sines -->
    <g transform="translate(502.678463 16.318125)scale(0.12 -0.12)">
     <defs>
      <path id="DejaVuSans-53" d="M 3425 4513 
L 3425 3897 
Q 3066 4069 2747 4153 
Q 2428 4238 2131 4238 
Q 1616 4238 1336 4038 
Q 1056 3838 1056 3469 
Q 1056 3159 1242 3001 
Q 1428 2844 1947 2747 
L 2328 2669 
Q 3034 2534 3370 2195 
Q 3706 1856 3706 1288 
Q 3706 609 3251 259 
Q 2797 -91 1919 -91 
Q 1588 -91 1214 -16 
Q 841 59 441 206 
L 441 856 
Q 825 641 1194 531 
Q 1563 422 1919 422 
Q 2459 422 2753 634 
Q 3047 847 3047 1241 
Q 3047 1584 2836 1778 
Q 2625 1972 2144 2069 
L 1759 2144 
Q 1053 2284 737 2584 
Q 422 2884 422 3419 
Q 422 4038 858 4394 
Q 1294 4750 2059 4750 
Q 2388 4750 2728 4690 
Q 3069 4631 3425 4513 
z
" transform="scale(0.015625)"/>
     </defs>
     <use xlink:href="#DejaVuSans-53"/>
     <use xlink:href="#DejaVuSans-69" x="63.476562"/>
     <use xlink:href="#DejaVuSans-6e" x="91.259766"/>
     <use xlink:href="#DejaVuSans-65" x="154.638672"/>
     <use xlink:href="#DejaVuSans-73" x="216.162109"/>
    </g>
   </g>
  </g>
  <g id="axes_4">
   <g id="text_4">
    <!-- 1 -->
    <g transform="translate(20.592 56.86702)scale(0.1 -0.1)">
     <defs>
      <path id="DejaVuSans-31" d="M 794 531 
L 1825 531 
L 1825 4091 
L 703 3866 
L 703 4441 
L 1819 4666 
L 2450 4666 
L 2450 531 
L 3481 531 
L 3481 0 
L 794 0 
L 794 531 
z
" transform="scale(0.015625)"/>
     </defs>
     <use xlink:href="#DejaVuSans-31"/>
    </g>
   </g>
  </g>
  <g id="axes_5">
   <g id="line2d_3">
    <path d="M 53.706764 54.594574 
L 61.073924 54.706484 
L 68.441085 55.039459 
L 75.808246 55.585301 
L 83.175407 56.330568 
L 90.542568 57.256911 
L 97.909729 58.341518 
L 105.27689 59.557684 
L 112.64405 60.875462 
L 120.011211 62.262405 
L 127.378372 63.684361 
L 134.745533 65.106317 
L 142.112694 66.49326 
L 149.479855 67.811038 
L 156.847015 69.027204 
L 164.214176 70.111811 
L 171.581337 71.038153 
L 178.948498 71.783421 
L 186.315659 72.329262 
L 193.68282 72.662238 
L 201.04998 72.774148 
L 208.417141 72.662238 
L 215.784302 72.329262 
L 223.151463 71.783421 
L 230.518624 71.038153 
L 237.885785 70.111811 
L 245.252945 69.027204 
L 252.620106 67.811038 
L 259.987267 66.49326 
L 267.354428 65.106317 
L 274.721589 63.684361 
L 282.08875 62.262405 
L 289.45591 60.875462 
L 296.823071 59.557684 
L 304.190232 58.341518 
L 311.557393 57.256911 
L 318.924554 56.330568 
L 326.291715 55.585301 
L 333.658876 55.039459 
L 341.026036 54.706484 
" clip-path="url(#p721366581a)" style="fill: none; stroke: #1f77b4; stroke-width: 1.5; stroke-linecap: square"/>
   </g>
  </g>
  <g id="axes_6">
   <g id="line2d_4">
    <path d="M 375.114764 63.684361 
L 382.481924 62.262405 
L 389.849085 60.875462 
L 397.216246 59.557684 
L 404.583407 58.341518 
L 411.950568 57.256911 
L 419.317729 56.330568 
L 426.68489 55.585301 
L 434.05205 55.039459 
L 441.419211 54.706484 
L 448.786372 54.594574 
L 456.153533 54.706484 
L 463.520694 55.039459 
L 470.887855 55.585301 
L 478.255015 56.330568 
L 485.622176 57.256911 
L 492.989337 58.341518 
L 500.356498 59.557684 
L 507.723659 60.875462 
L 515.09082 62.262405 
L 522.45798 63.684361 
L 529.825141 65.106317 
L 537.192302 66.49326 
L 544.559463 67.811038 
L 551.926624 69.027204 
L 559.293785 70.111811 
L 566.660945 71.038153 
L 574.028106 71.783421 
L 581.395267 72.329262 
L 588.762428 72.662238 
L 596.129589 72.774148 
L 603.49675 72.662238 
L 610.86391 72.329262 
L 618.231071 71.783421 
L 625.598232 71.038153 
L 632.965393 70.111811 
L 640.332554 69.027204 
L 647.699715 67.811038 
L 655.066876 66.49326 
L 662.434036 65.106317 
" clip-path="url(#p4571ab4b6b)" style="fill: none; stroke: #1f77b4; stroke-width: 1.5; stroke-linecap: square"/>
   </g>
  </g>
  <g id="axes_7">
   <g id="text_5">
    <!-- 2 -->
    <g transform="translate(20.592 84.598575)scale(0.1 -0.1)">
     <defs>
      <path id="DejaVuSans-32" d="M 1228 531 
L 3431 531 
L 3431 0 
L 469 0 
L 469 531 
Q 828 903 1448 1529 
Q 2069 2156 2228 2338 
Q 2531 2678 2651 2914 
Q 2772 3150 2772 3378 
Q 2772 3750 2511 3984 
Q 2250 4219 1831 4219 
Q 1534 4219 1204 4116 
Q 875 4013 500 3803 
L 500 4441 
Q 881 4594 1212 4672 
Q 1544 4750 1819 4750 
Q 2544 4750 2975 4387 
Q 3406 4025 3406 3419 
Q 3406 3131 3298 2873 
Q 3191 2616 2906 2266 
Q 2828 2175 2409 1742 
Q 1991 1309 1228 531 
z
" transform="scale(0.015625)"/>
     </defs>
     <use xlink:href="#DejaVuSans-32"/>
    </g>
   </g>
  </g>
  <g id="axes_8">
   <g id="line2d_5">
    <path d="M 53.706764 82.326128 
L 61.073924 82.771014 
L 68.441085 84.062123 
L 75.808246 86.073073 
L 83.175407 88.607017 
L 90.542568 91.415916 
L 97.909729 94.224815 
L 105.27689 96.758759 
L 112.64405 98.769708 
L 120.011211 100.060817 
L 127.378372 100.505703 
L 134.745533 100.060817 
L 142.112694 98.769708 
L 149.479855 96.758759 
L 156.847015 94.224815 
L 164.214176 91.415916 
L 171.581337 88.607017 
L 178.948498 86.073073 
L 186.315659 84.062123 
L 193.68282 82.771014 
L 201.04998 82.326128 
L 208.417141 82.771014 
L 215.784302 84.062123 
L 223.151463 86.073073 
L 230.518624 88.607017 
L 237.885785 91.415916 
L 245.252945 94.224815 
L 252.620106 96.758759 
L 259.987267 98.769708 
L 267.354428 100.060817 
L 274.721589 100.505703 
L 282.08875 100.060817 
L 289.45591 98.769708 
L 296.823071 96.758759 
L 304.190232 94.224815 
L 311.557393 91.415916 
L 318.924554 88.607017 
L 326.291715 86.073073 
L 333.658876 84.062123 
L 341.026036 82.771014 
" clip-path="url(#pa0cd5a631d)" style="fill: none; stroke: #1f77b4; stroke-width: 1.5; stroke-linecap: square"/>
   </g>
  </g>
  <g id="axes_9">
   <g id="line2d_6">
    <path d="M 375.114764 91.415916 
L 382.481924 88.607017 
L 389.849085 86.073073 
L 397.216246 84.062123 
L 404.583407 82.771014 
L 411.950568 82.326128 
L 419.317729 82.771014 
L 426.68489 84.062123 
L 434.05205 86.073073 
L 441.419211 88.607017 
L 448.786372 91.415916 
L 456.153533 94.224815 
L 463.520694 96.758759 
L 470.887855 98.769708 
L 478.255015 100.060817 
L 485.622176 100.505703 
L 492.989337 100.060817 
L 500.356498 98.769708 
L 507.723659 96.758759 
L 515.09082 94.224815 
L 522.45798 91.415916 
L 529.825141 88.607017 
L 537.192302 86.073073 
L 544.559463 84.062123 
L 551.926624 82.771014 
L 559.293785 82.326128 
L 566.660945 82.771014 
L 574.028106 84.062123 
L 581.395267 86.073073 
L 588.762428 88.607017 
L 596.129589 91.415916 
L 603.49675 94.224815 
L 610.86391 96.758759 
L 618.231071 98.769708 
L 625.598232 100.060817 
L 632.965393 100.505703 
L 640.332554 100.060817 
L 647.699715 98.769708 
L 655.066876 96.758759 
L 662.434036 94.224815 
" clip-path="url(#p1e98d45992)" style="fill: none; stroke: #1f77b4; stroke-width: 1.5; stroke-linecap: square"/>
   </g>
  </g>
  <g id="axes_10">
   <g id="text_6">
    <!-- 3 -->
    <g transform="translate(20.592 112.33013)scale(0.1 -0.1)">
     <defs>
      <path id="DejaVuSans-33" d="M 2597 2516 
Q 3050 2419 3304 2112 
Q 3559 1806 3559 1356 
Q 3559 666 3084 287 
Q 2609 -91 1734 -91 
Q 1441 -91 1130 -33 
Q 819 25 488 141 
L 488 750 
Q 750 597 1062 519 
Q 1375 441 1716 441 
Q 2309 441 2620 675 
Q 2931 909 2931 1356 
Q 2931 1769 2642 2001 
Q 2353 2234 1838 2234 
L 1294 2234 
L 1294 2753 
L 1863 2753 
Q 2328 2753 2575 2939 
Q 2822 3125 2822 3475 
Q 2822 3834 2567 4026 
Q 2313 4219 1838 4219 
Q 1578 4219 1281 4162 
Q 984 4106 628 3988 
L 628 4550 
Q 988 4650 1302 4700 
Q 1616 4750 1894 4750 
Q 2613 4750 3031 4423 
Q 3450 4097 3450 3541 
Q 3450 3153 3228 2886 
Q 3006 2619 2597 2516 
z
" transform="scale(0.015625)"/>
     </defs>
     <use xlink:href="#DejaVuSans-33"/>
    </g>
   </g>
  </g>
  <g id="axes_11">
   <g id="line2d_7">
    <path d="M 53.706764 110.057683 
L 61.073924 111.048411 
L 68.441085 113.804628 
L 75.808246 117.725515 
L 83.175407 121.956369 
L 90.542568 125.574921 
L 97.909729 127.792372 
L 105.27689 128.125348 
L 112.64405 126.501263 
L 120.011211 123.274148 
L 127.378372 119.147471 
L 134.745533 115.020793 
L 142.112694 111.793678 
L 149.479855 110.169594 
L 156.847015 110.502569 
L 164.214176 112.72002 
L 171.581337 116.338572 
L 178.948498 120.569427 
L 186.315659 124.490314 
L 193.68282 127.24653 
L 201.04998 128.237258 
L 208.417141 127.24653 
L 215.784302 124.490314 
L 223.151463 120.569427 
L 230.518624 116.338572 
L 237.885785 112.72002 
L 245.252945 110.502569 
L 252.620106 110.169594 
L 259.987267 111.793678 
L 267.354428 115.020793 
L 274.721589 119.147471 
L 282.08875 123.274148 
L 289.45591 126.501263 
L 296.823071 128.125348 
L 304.190232 127.792372 
L 311.557393 125.574921 
L 318.924554 121.956369 
L 326.291715 117.725515 
L 333.658876 113.804628 
L 341.026036 111.048411 
" clip-path="url(#p6e662d257d)" style="fill: none; stroke: #1f77b4; stroke-width: 1.5; stroke-linecap: square"/>
   </g>
  </g>
  <g id="axes_12">
   <g id="line2d_8">
    <path d="M 375.114764 119.147471 
L 382.481924 115.020793 
L 389.849085 111.793678 
L 397.216246 110.169594 
L 404.583407 110.502569 
L 411.950568 112.72002 
L 419.317729 116.338572 
L 426.68489 120.569427 
L 434.05205 124.490314 
L 441.419211 127.24653 
L 448.786372 128.237258 
L 456.153533 127.24653 
L 463.520694 124.490314 
L 470.887855 120.569427 
L 478.255015 116.338572 
L 485.622176 112.72002 
L 492.989337 110.502569 
L 500.356498 110.169594 
L 507.723659 111.793678 
L 515.09082 115.020793 
L 522.45798 119.147471 
L 529.825141 123.274148 
L 537.192302 126.501263 
L 544.559463 128.125348 
L 551.926624 127.792372 
L 559.293785 125.574921 
L 566.660945 121.956369 
L 574.028106 117.725515 
L 581.395267 113.804628 
L 588.762428 111.048411 
L 596.129589 110.057683 
L 603.49675 111.048411 
L 610.86391 113.804628 
L 618.231071 117.725515 
L 625.598232 121.956369 
L 632.965393 125.574921 
L 640.332554 127.792372 
L 647.699715 128.125348 
L 655.066876 126.501263 
L 662.434036 123.274148 
" clip-path="url(#p2bb650d20b)" style="fill: none; stroke: #1f77b4; stroke-width: 1.5; stroke-linecap: square"/>
   </g>
  </g>
  <g id="axes_13">
   <g id="text_7">
    <!-- 4 -->
    <g transform="translate(20.592 140.061685)scale(0.1 -0.1)">
     <defs>
      <path id="DejaVuSans-34" d="M 2419 4116 
L 825 1625 
L 2419 1625 
L 2419 4116 
z
M 2253 4666 
L 3047 4666 
L 3047 1625 
L 3713 1625 
L 3713 1100 
L 3047 1100 
L 3047 0 
L 2419 0 
L 2419 1100 
L 313 1100 
L 313 1709 
L 2253 4666 
z
" transform="scale(0.015625)"/>
     </defs>
     <use xlink:href="#DejaVuSans-34"/>
    </g>
   </g>
  </g>
  <g id="axes_14">
   <g id="line2d_9">
    <path d="M 53.706764 137.789238 
L 61.073924 139.525233 
L 68.441085 144.070127 
L 75.808246 149.687924 
L 83.175407 154.232818 
L 90.542568 155.968813 
L 97.909729 154.232818 
L 105.27689 149.687924 
L 112.64405 144.070127 
L 120.011211 139.525233 
L 127.378372 137.789238 
L 134.745533 139.525233 
L 142.112694 144.070127 
L 149.479855 149.687924 
L 156.847015 154.232818 
L 164.214176 155.968813 
L 171.581337 154.232818 
L 178.948498 149.687924 
L 186.315659 144.070127 
L 193.68282 139.525233 
L 201.04998 137.789238 
L 208.417141 139.525233 
L 215.784302 144.070127 
L 223.151463 149.687924 
L 230.518624 154.232818 
L 237.885785 155.968813 
L 245.252945 154.232818 
L 252.620106 149.687924 
L 259.987267 144.070127 
L 267.354428 139.525233 
L 274.721589 137.789238 
L 282.08875 139.525233 
L 289.45591 144.070127 
L 296.823071 149.687924 
L 304.190232 154.232818 
L 311.557393 155.968813 
L 318.924554 154.232818 
L 326.291715 149.687924 
L 333.658876 144.070127 
L 341.026036 139.525233 
" clip-path="url(#pd3bae925c7)" style="fill: none; stroke: #1f77b4; stroke-width: 1.5; stroke-linecap: square"/>
   </g>
  </g>
  <g id="axes_15">
   <g id="line2d_10">
    <path d="M 375.114764 146.879025 
L 382.481924 141.536182 
L 389.849085 138.234124 
L 397.216246 138.234124 
L 404.583407 141.536182 
L 411.950568 146.879025 
L 419.317729 152.221868 
L 426.68489 155.523927 
L 434.05205 155.523927 
L 441.419211 152.221868 
L 448.786372 146.879025 
L 456.153533 141.536182 
L 463.520694 138.234124 
L 470.887855 138.234124 
L 478.255015 141.536182 
L 485.622176 146.879025 
L 492.989337 152.221868 
L 500.356498 155.523927 
L 507.723659 155.523927 
L 515.09082 152.221868 
L 522.45798 146.879025 
L 529.825141 141.536182 
L 537.192302 138.234124 
L 544.559463 138.234124 
L 551.926624 141.536182 
L 559.293785 146.879025 
L 566.660945 152.221868 
L 574.028106 155.523927 
L 581.395267 155.523927 
L 588.762428 152.221868 
L 596.129589 146.879025 
L 603.49675 141.536182 
L 610.86391 138.234124 
L 618.231071 138.234124 
L 625.598232 141.536182 
L 632.965393 146.879025 
L 640.332554 152.221868 
L 647.699715 155.523927 
L 655.066876 155.523927 
L 662.434036 152.221868 
" clip-path="url(#p4d5245354d)" style="fill: none; stroke: #1f77b4; stroke-width: 1.5; stroke-linecap: square"/>
   </g>
  </g>
  <g id="axes_16">
   <g id="text_8">
    <!-- 5 -->
    <g transform="translate(20.592 167.79324)scale(0.1 -0.1)">
     <defs>
      <path id="DejaVuSans-35" d="M 691 4666 
L 3169 4666 
L 3169 4134 
L 1269 4134 
L 1269 2991 
Q 1406 3038 1543 3061 
Q 1681 3084 1819 3084 
Q 2600 3084 3056 2656 
Q 3513 2228 3513 1497 
Q 3513 744 3044 326 
Q 2575 -91 1722 -91 
Q 1428 -91 1123 -41 
Q 819 9 494 109 
L 494 744 
Q 775 591 1075 516 
Q 1375 441 1709 441 
Q 2250 441 2565 725 
Q 2881 1009 2881 1497 
Q 2881 1984 2565 2268 
Q 2250 2553 1709 2553 
Q 1456 2553 1204 2497 
Q 953 2441 691 2322 
L 691 4666 
z
" transform="scale(0.015625)"/>
     </defs>
     <use xlink:href="#DejaVuSans-35"/>
    </g>
   </g>
  </g>
  <g id="axes_17">
   <g id="line2d_11">
    <path d="M 53.706764 165.520793 
L 61.073924 168.18313 
L 68.441085 174.61058 
L 75.808246 181.038031 
L 83.175407 183.700368 
L 90.542568 181.038031 
L 97.909729 174.61058 
L 105.27689 168.18313 
L 112.64405 165.520793 
L 120.011211 168.18313 
L 127.378372 174.61058 
L 134.745533 181.038031 
L 142.112694 183.700368 
L 149.479855 181.038031 
L 156.847015 174.61058 
L 164.214176 168.18313 
L 171.581337 165.520793 
L 178.948498 168.18313 
L 186.315659 174.61058 
L 193.68282 181.038031 
L 201.04998 183.700368 
L 208.417141 181.038031 
L 215.784302 174.61058 
L 223.151463 168.18313 
L 230.518624 165.520793 
L 237.885785 168.18313 
L 245.252945 174.61058 
L 252.620106 181.038031 
L 259.987267 183.700368 
L 267.354428 181.038031 
L 274.721589 174.61058 
L 282.08875 168.18313 
L 289.45591 165.520793 
L 296.823071 168.18313 
L 304.190232 174.61058 
L 311.557393 181.038031 
L 318.924554 183.700368 
L 326.291715 181.038031 
L 333.658876 174.61058 
L 341.026036 168.18313 
" clip-path="url(#p9f985ec2be)" style="fill: none; stroke: #1f77b4; stroke-width: 1.5; stroke-linecap: square"/>
   </g>
  </g>
  <g id="axes_18">
   <g id="line2d_12">
    <path d="M 375.114764 174.61058 
L 382.481924 168.18313 
L 389.849085 165.520793 
L 397.216246 168.18313 
L 404.583407 174.61058 
L 411.950568 181.038031 
L 419.317729 183.700368 
L 426.68489 181.038031 
L 434.05205 174.61058 
L 441.419211 168.18313 
L 448.786372 165.520793 
L 456.153533 168.18313 
L 463.520694 174.61058 
L 470.887855 181.038031 
L 478.255015 183.700368 
L 485.622176 181.038031 
L 492.989337 174.61058 
L 500.356498 168.18313 
L 507.723659 165.520793 
L 515.09082 168.18313 
L 522.45798 174.61058 
L 529.825141 181.038031 
L 537.192302 183.700368 
L 544.559463 181.038031 
L 551.926624 174.61058 
L 559.293785 168.18313 
L 566.660945 165.520793 
L 574.028106 168.18313 
L 581.395267 174.61058 
L 588.762428 181.038031 
L 596.129589 183.700368 
L 603.49675 181.038031 
L 610.86391 174.61058 
L 618.231071 168.18313 
L 625.598232 165.520793 
L 632.965393 168.18313 
L 640.332554 174.61058 
L 647.699715 181.038031 
L 655.066876 183.700368 
L 662.434036 181.038031 
" clip-path="url(#p9e3d9a1397)" style="fill: none; stroke: #1f77b4; stroke-width: 1.5; stroke-linecap: square"/>
   </g>
  </g>
  <g id="axes_19">
   <g id="text_9">
    <!-- 6 -->
    <g transform="translate(20.592 195.524794)scale(0.1 -0.1)">
     <defs>
      <path id="DejaVuSans-36" d="M 2113 2584 
Q 1688 2584 1439 2293 
Q 1191 2003 1191 1497 
Q 1191 994 1439 701 
Q 1688 409 2113 409 
Q 2538 409 2786 701 
Q 3034 994 3034 1497 
Q 3034 2003 2786 2293 
Q 2538 2584 2113 2584 
z
M 3366 4563 
L 3366 3988 
Q 3128 4100 2886 4159 
Q 2644 4219 2406 4219 
Q 1781 4219 1451 3797 
Q 1122 3375 1075 2522 
Q 1259 2794 1537 2939 
Q 1816 3084 2150 3084 
Q 2853 3084 3261 2657 
Q 3669 2231 3669 1497 
Q 3669 778 3244 343 
Q 2819 -91 2113 -91 
Q 1303 -91 875 529 
Q 447 1150 447 2328 
Q 447 3434 972 4092 
Q 1497 4750 2381 4750 
Q 2619 4750 2861 4703 
Q 3103 4656 3366 4563 
z
" transform="scale(0.015625)"/>
     </defs>
     <use xlink:href="#DejaVuSans-36"/>
    </g>
   </g>
  </g>
  <g id="axes_20">
   <g id="line2d_13">
    <path d="M 53.706764 193.252348 
L 61.073924 196.999292 
L 68.441085 205.151034 
L 75.808246 210.987037 
L 83.175407 209.695927 
L 90.542568 202.342135 
L 97.909729 194.988343 
L 105.27689 193.697233 
L 112.64405 199.533236 
L 120.011211 207.684978 
L 127.378372 211.431922 
L 134.745533 207.684978 
L 142.112694 199.533236 
L 149.479855 193.697233 
L 156.847015 194.988343 
L 164.214176 202.342135 
L 171.581337 209.695927 
L 178.948498 210.987037 
L 186.315659 205.151034 
L 193.68282 196.999292 
L 201.04998 193.252348 
L 208.417141 196.999292 
L 215.784302 205.151034 
L 223.151463 210.987037 
L 230.518624 209.695927 
L 237.885785 202.342135 
L 245.252945 194.988343 
L 252.620106 193.697233 
L 259.987267 199.533236 
L 267.354428 207.684978 
L 274.721589 211.431922 
L 282.08875 207.684978 
L 289.45591 199.533236 
L 296.823071 193.697233 
L 304.190232 194.988343 
L 311.557393 202.342135 
L 318.924554 209.695927 
L 326.291715 210.987037 
L 333.658876 205.151034 
L 341.026036 196.999292 
" clip-path="url(#pc6f78afe11)" style="fill: none; stroke: #1f77b4; stroke-width: 1.5; stroke-linecap: square"/>
   </g>
  </g>
  <g id="axes_21">
   <g id="line2d_14">
    <path d="M 375.114764 202.342135 
L 382.481924 194.988343 
L 389.849085 193.697233 
L 397.216246 199.533236 
L 404.583407 207.684978 
L 411.950568 211.431922 
L 419.317729 207.684978 
L 426.68489 199.533236 
L 434.05205 193.697233 
L 441.419211 194.988343 
L 448.786372 202.342135 
L 456.153533 209.695927 
L 463.520694 210.987037 
L 470.887855 205.151034 
L 478.255015 196.999292 
L 485.622176 193.252348 
L 492.989337 196.999292 
L 500.356498 205.151034 
L 507.723659 210.987037 
L 515.09082 209.695927 
L 522.45798 202.342135 
L 529.825141 194.988343 
L 537.192302 193.697233 
L 544.559463 199.533236 
L 551.926624 207.684978 
L 559.293785 211.431922 
L 566.660945 207.684978 
L 574.028106 199.533236 
L 581.395267 193.697233 
L 588.762428 194.988343 
L 596.129589 202.342135 
L 603.49675 209.695927 
L 610.86391 210.987037 
L 618.231071 205.151034 
L 625.598232 196.999292 
L 632.965393 193.252348 
L 640.332554 196.999292 
L 647.699715 205.151034 
L 655.066876 210.987037 
L 662.434036 209.695927 
" clip-path="url(#p82ed4b4ae7)" style="fill: none; stroke: #1f77b4; stroke-width: 1.5; stroke-linecap: square"/>
   </g>
  </g>
  <g id="axes_22">
   <g id="text_10">
    <!-- 7 -->
    <g transform="translate(20.592 223.256349)scale(0.1 -0.1)">
     <defs>
      <path id="DejaVuSans-37" d="M 525 4666 
L 3525 4666 
L 3525 4397 
L 1831 0 
L 1172 0 
L 2766 4134 
L 525 4134 
L 525 4666 
z
" transform="scale(0.015625)"/>
     </defs>
     <use xlink:href="#DejaVuSans-37"/>
    </g>
   </g>
  </g>
  <g id="axes_23">
   <g id="line2d_15">
    <path d="M 53.706764 220.983902 
L 61.073924 225.947013 
L 68.441085 235.416533 
L 75.808246 239.051567 
L 83.175407 232.882589 
L 90.542568 223.64624 
L 97.909729 221.428788 
L 105.27689 228.651734 
L 112.64405 237.427482 
L 120.011211 238.17275 
L 127.378372 230.07369 
L 134.745533 221.97463 
L 142.112694 222.719897 
L 149.479855 231.495646 
L 156.847015 238.718591 
L 164.214176 236.50114 
L 171.581337 227.264791 
L 178.948498 221.095813 
L 186.315659 224.730847 
L 193.68282 234.200367 
L 201.04998 239.163477 
L 208.417141 234.200367 
L 215.784302 224.730847 
L 223.151463 221.095813 
L 230.518624 227.264791 
L 237.885785 236.50114 
L 245.252945 238.718591 
L 252.620106 231.495646 
L 259.987267 222.719897 
L 267.354428 221.97463 
L 274.721589 230.07369 
L 282.08875 238.17275 
L 289.45591 237.427482 
L 296.823071 228.651734 
L 304.190232 221.428788 
L 311.557393 223.64624 
L 318.924554 232.882589 
L 326.291715 239.051567 
L 333.658876 235.416533 
L 341.026036 225.947013 
" clip-path="url(#p40331ed4e2)" style="fill: none; stroke: #1f77b4; stroke-width: 1.5; stroke-linecap: square"/>
   </g>
  </g>
  <g id="axes_24">
   <g id="line2d_16">
    <path d="M 375.114764 230.07369 
L 382.481924 221.97463 
L 389.849085 222.719897 
L 397.216246 231.495646 
L 404.583407 238.718591 
L 411.950568 236.50114 
L 419.317729 227.264791 
L 426.68489 221.095813 
L 434.05205 224.730847 
L 441.419211 234.200367 
L 448.786372 239.163477 
L 456.153533 234.200367 
L 463.520694 224.730847 
L 470.887855 221.095813 
L 478.255015 227.264791 
L 485.622176 236.50114 
L 492.989337 238.718591 
L 500.356498 231.495646 
L 507.723659 222.719897 
L 515.09082 221.97463 
L 522.45798 230.07369 
L 529.825141 238.17275 
L 537.192302 237.427482 
L 544.559463 228.651734 
L 551.926624 221.428788 
L 559.293785 223.64624 
L 566.660945 232.882589 
L 574.028106 239.051567 
L 581.395267 235.416533 
L 588.762428 225.947013 
L 596.129589 220.983902 
L 603.49675 225.947013 
L 610.86391 235.416533 
L 618.231071 239.051567 
L 625.598232 232.882589 
L 632.965393 223.64624 
L 640.332554 221.428788 
L 647.699715 228.651734 
L 655.066876 237.427482 
L 662.434036 238.17275 
" clip-path="url(#p26cc127bb0)" style="fill: none; stroke: #1f77b4; stroke-width: 1.5; stroke-linecap: square"/>
   </g>
  </g>
  <g id="axes_25">
   <g id="text_11">
    <!-- 8 -->
    <g transform="translate(20.592 250.987904)scale(0.1 -0.1)">
     <defs>
      <path id="DejaVuSans-38" d="M 2034 2216 
Q 1584 2216 1326 1975 
Q 1069 1734 1069 1313 
Q 1069 891 1326 650 
Q 1584 409 2034 409 
Q 2484 409 2743 651 
Q 3003 894 3003 1313 
Q 3003 1734 2745 1975 
Q 2488 2216 2034 2216 
z
M 1403 2484 
Q 997 2584 770 2862 
Q 544 3141 544 3541 
Q 544 4100 942 4425 
Q 1341 4750 2034 4750 
Q 2731 4750 3128 4425 
Q 3525 4100 3525 3541 
Q 3525 3141 3298 2862 
Q 3072 2584 2669 2484 
Q 3125 2378 3379 2068 
Q 3634 1759 3634 1313 
Q 3634 634 3220 271 
Q 2806 -91 2034 -91 
Q 1263 -91 848 271 
Q 434 634 434 1313 
Q 434 1759 690 2068 
Q 947 2378 1403 2484 
z
M 1172 3481 
Q 1172 3119 1398 2916 
Q 1625 2713 2034 2713 
Q 2441 2713 2670 2916 
Q 2900 3119 2900 3481 
Q 2900 3844 2670 4047 
Q 2441 4250 2034 4250 
Q 1625 4250 1398 4047 
Q 1172 3844 1172 3481 
z
" transform="scale(0.015625)"/>
     </defs>
     <use xlink:href="#DejaVuSans-38"/>
    </g>
   </g>
  </g>
  <g id="axes_26">
   <g id="line2d_17">
    <path d="M 53.706764 248.715457 
L 61.073924 254.996346 
L 68.441085 265.159037 
L 75.808246 265.159037 
L 83.175407 254.996346 
L 90.542568 248.715457 
L 97.909729 254.996346 
L 105.27689 265.159037 
L 112.64405 265.159037 
L 120.011211 254.996346 
L 127.378372 248.715457 
L 134.745533 254.996346 
L 142.112694 265.159037 
L 149.479855 265.159037 
L 156.847015 254.996346 
L 164.214176 248.715457 
L 171.581337 254.996346 
L 178.948498 265.159037 
L 186.315659 265.159037 
L 193.68282 254.996346 
L 201.04998 248.715457 
L 208.417141 254.996346 
L 215.784302 265.159037 
L 223.151463 265.159037 
L 230.518624 254.996346 
L 237.885785 248.715457 
L 245.252945 254.996346 
L 252.620106 265.159037 
L 259.987267 265.159037 
L 267.354428 254.996346 
L 274.721589 248.715457 
L 282.08875 254.996346 
L 289.45591 265.159037 
L 296.823071 265.159037 
L 304.190232 254.996346 
L 311.557393 248.715457 
L 318.924554 254.996346 
L 326.291715 265.159037 
L 333.658876 265.159037 
L 341.026036 254.996346 
" clip-path="url(#pde224fdc02)" style="fill: none; stroke: #1f77b4; stroke-width: 1.5; stroke-linecap: square"/>
   </g>
  </g>
  <g id="axes_27">
   <g id="line2d_18">
    <path d="M 375.114764 257.805245 
L 382.481924 249.160343 
L 389.849085 252.462402 
L 397.216246 263.148088 
L 404.583407 266.450146 
L 411.950568 257.805245 
L 419.317729 249.160343 
L 426.68489 252.462402 
L 434.05205 263.148088 
L 441.419211 266.450146 
L 448.786372 257.805245 
L 456.153533 249.160343 
L 463.520694 252.462402 
L 470.887855 263.148088 
L 478.255015 266.450146 
L 485.622176 257.805245 
L 492.989337 249.160343 
L 500.356498 252.462402 
L 507.723659 263.148088 
L 515.09082 266.450146 
L 522.45798 257.805245 
L 529.825141 249.160343 
L 537.192302 252.462402 
L 544.559463 263.148088 
L 551.926624 266.450146 
L 559.293785 257.805245 
L 566.660945 249.160343 
L 574.028106 252.462402 
L 581.395267 263.148088 
L 588.762428 266.450146 
L 596.129589 257.805245 
L 603.49675 249.160343 
L 610.86391 252.462402 
L 618.231071 263.148088 
L 625.598232 266.450146 
L 632.965393 257.805245 
L 640.332554 249.160343 
L 647.699715 252.462402 
L 655.066876 263.148088 
L 662.434036 266.450146 
" clip-path="url(#p04aecc2656)" style="fill: none; stroke: #1f77b4; stroke-width: 1.5; stroke-linecap: square"/>
   </g>
  </g>
  <g id="axes_28">
   <g id="text_12">
    <!-- 9 -->
    <g transform="translate(20.592 278.719459)scale(0.1 -0.1)">
     <defs>
      <path id="DejaVuSans-39" d="M 703 97 
L 703 672 
Q 941 559 1184 500 
Q 1428 441 1663 441 
Q 2288 441 2617 861 
Q 2947 1281 2994 2138 
Q 2813 1869 2534 1725 
Q 2256 1581 1919 1581 
Q 1219 1581 811 2004 
Q 403 2428 403 3163 
Q 403 3881 828 4315 
Q 1253 4750 1959 4750 
Q 2769 4750 3195 4129 
Q 3622 3509 3622 2328 
Q 3622 1225 3098 567 
Q 2575 -91 1691 -91 
Q 1453 -91 1209 -44 
Q 966 3 703 97 
z
M 1959 2075 
Q 2384 2075 2632 2365 
Q 2881 2656 2881 3163 
Q 2881 3666 2632 3958 
Q 2384 4250 1959 4250 
Q 1534 4250 1286 3958 
Q 1038 3666 1038 3163 
Q 1038 2656 1286 2365 
Q 1534 2075 1959 2075 
z
" transform="scale(0.015625)"/>
     </defs>
     <use xlink:href="#DejaVuSans-39"/>
    </g>
   </g>
  </g>
  <g id="axes_29">
   <g id="line2d_19">
    <path d="M 53.706764 276.447012 
L 61.073924 284.114843 
L 68.441085 294.181701 
L 75.808246 289.663477 
L 83.175407 278.183007 
L 90.542568 279.109349 
L 97.909729 290.879642 
L 105.27689 293.635859 
L 112.64405 282.727901 
L 120.011211 276.558922 
L 127.378372 285.536799 
L 134.745533 294.514676 
L 142.112694 288.345698 
L 149.479855 277.43774 
L 156.847015 280.193956 
L 164.214176 291.96425 
L 171.581337 292.890592 
L 178.948498 281.410122 
L 186.315659 276.891898 
L 193.68282 286.958755 
L 201.04998 294.626587 
L 208.417141 286.958755 
L 215.784302 276.891898 
L 223.151463 281.410122 
L 230.518624 292.890592 
L 237.885785 291.96425 
L 245.252945 280.193956 
L 252.620106 277.43774 
L 259.987267 288.345698 
L 267.354428 294.514676 
L 274.721589 285.536799 
L 282.08875 276.558922 
L 289.45591 282.727901 
L 296.823071 293.635859 
L 304.190232 290.879642 
L 311.557393 279.109349 
L 318.924554 278.183007 
L 326.291715 289.663477 
L 333.658876 294.181701 
L 341.026036 284.114843 
" clip-path="url(#p8e26968304)" style="fill: none; stroke: #1f77b4; stroke-width: 1.5; stroke-linecap: square"/>
   </g>
  </g>
  <g id="axes_30">
   <g id="line2d_20">
    <path d="M 375.114764 285.536799 
L 382.481924 276.558922 
L 389.849085 282.727901 
L 397.216246 293.635859 
L 404.583407 290.879642 
L 411.950568 279.109349 
L 419.317729 278.183007 
L 426.68489 289.663477 
L 434.05205 294.181701 
L 441.419211 284.114843 
L 448.786372 276.447012 
L 456.153533 284.114843 
L 463.520694 294.181701 
L 470.887855 289.663477 
L 478.255015 278.183007 
L 485.622176 279.109349 
L 492.989337 290.879642 
L 500.356498 293.635859 
L 507.723659 282.727901 
L 515.09082 276.558922 
L 522.45798 285.536799 
L 529.825141 294.514676 
L 537.192302 288.345698 
L 544.559463 277.43774 
L 551.926624 280.193956 
L 559.293785 291.96425 
L 566.660945 292.890592 
L 574.028106 281.410122 
L 581.395267 276.891898 
L 588.762428 286.958755 
L 596.129589 294.626587 
L 603.49675 286.958755 
L 610.86391 276.891898 
L 618.231071 281.410122 
L 625.598232 292.890592 
L 632.965393 291.96425 
L 640.332554 280.193956 
L 647.699715 277.43774 
L 655.066876 288.345698 
L 662.434036 294.514676 
" clip-path="url(#pd07e5557a1)" style="fill: none; stroke: #1f77b4; stroke-width: 1.5; stroke-linecap: square"/>
   </g>
  </g>
  <g id="axes_31">
   <g id="text_13">
    <!-- 10 -->
    <g transform="translate(20.592 306.451014)scale(0.1 -0.1)">
     <use xlink:href="#DejaVuSans-31"/>
     <use xlink:href="#DejaVuSans-30" x="63.623047"/>
    </g>
   </g>
  </g>
  <g id="axes_32">
   <g id="line2d_21">
    <path d="M 53.706764 304.178567 
L 61.073924 313.268354 
L 68.441085 322.358142 
L 75.808246 313.268354 
L 83.175407 304.178567 
L 90.542568 313.268354 
L 97.909729 322.358142 
L 105.27689 313.268354 
L 112.64405 304.178567 
L 120.011211 313.268354 
L 127.378372 322.358142 
L 134.745533 313.268354 
L 142.112694 304.178567 
L 149.479855 313.268354 
L 156.847015 322.358142 
L 164.214176 313.268354 
L 171.581337 304.178567 
L 178.948498 313.268354 
L 186.315659 322.358142 
L 193.68282 313.268354 
L 201.04998 304.178567 
L 208.417141 313.268354 
L 215.784302 322.358142 
L 223.151463 313.268354 
L 230.518624 304.178567 
L 237.885785 313.268354 
L 245.252945 322.358142 
L 252.620106 313.268354 
L 259.987267 304.178567 
L 267.354428 313.268354 
L 274.721589 322.358142 
L 282.08875 313.268354 
L 289.45591 304.178567 
L 296.823071 313.268354 
L 304.190232 322.358142 
L 311.557393 313.268354 
L 318.924554 304.178567 
L 326.291715 313.268354 
L 333.658876 322.358142 
L 341.026036 313.268354 
" clip-path="url(#p00449904ac)" style="fill: none; stroke: #1f77b4; stroke-width: 1.5; stroke-linecap: square"/>
   </g>
  </g>
  <g id="axes_33">
   <g id="line2d_22">
    <path d="M 375.114764 313.268354 
L 382.481924 304.178567 
L 389.849085 313.268354 
L 397.216246 322.358142 
L 404.583407 313.268354 
L 411.950568 304.178567 
L 419.317729 313.268354 
L 426.68489 322.358142 
L 434.05205 313.268354 
L 441.419211 304.178567 
L 448.786372 313.268354 
L 456.153533 322.358142 
L 463.520694 313.268354 
L 470.887855 304.178567 
L 478.255015 313.268354 
L 485.622176 322.358142 
L 492.989337 313.268354 
L 500.356498 304.178567 
L 507.723659 313.268354 
L 515.09082 322.358142 
L 522.45798 313.268354 
L 529.825141 304.178567 
L 537.192302 313.268354 
L 544.559463 322.358142 
L 551.926624 313.268354 
L 559.293785 304.178567 
L 566.660945 313.268354 
L 574.028106 322.358142 
L 581.395267 313.268354 
L 588.762428 304.178567 
L 596.129589 313.268354 
L 603.49675 322.358142 
L 610.86391 313.268354 
L 618.231071 304.178567 
L 625.598232 313.268354 
L 632.965393 322.358142 
L 640.332554 313.268354 
L 647.699715 304.178567 
L 655.066876 313.268354 
L 662.434036 322.358142 
" clip-path="url(#p4ee8e05b1f)" style="fill: none; stroke: #1f77b4; stroke-width: 1.5; stroke-linecap: square"/>
   </g>
  </g>
  <g id="axes_34">
   <g id="text_14">
    <!-- 11 -->
    <g transform="translate(20.592 334.182569)scale(0.1 -0.1)">
     <use xlink:href="#DejaVuSans-31"/>
     <use xlink:href="#DejaVuSans-31" x="63.623047"/>
    </g>
   </g>
  </g>
  <g id="axes_35">
   <g id="line2d_23">
    <path d="M 53.706764 331.910122 
L 61.073924 342.421865 
L 68.441085 349.644811 
L 75.808246 336.873232 
L 83.175407 333.646117 
L 90.542568 347.427359 
L 97.909729 346.342752 
L 105.27689 332.900849 
L 112.64405 338.19101 
L 120.011211 349.977786 
L 127.378372 340.999909 
L 134.745533 332.022032 
L 142.112694 343.808808 
L 149.479855 349.098969 
L 156.847015 335.657066 
L 164.214176 334.572459 
L 171.581337 348.353702 
L 178.948498 345.126586 
L 186.315659 332.355008 
L 193.68282 339.577953 
L 201.04998 350.089696 
L 208.417141 339.577953 
L 215.784302 332.355008 
L 223.151463 345.126586 
L 230.518624 348.353702 
L 237.885785 334.572459 
L 245.252945 335.657066 
L 252.620106 349.098969 
L 259.987267 343.808808 
L 267.354428 332.022032 
L 274.721589 340.999909 
L 282.08875 349.977786 
L 289.45591 338.19101 
L 296.823071 332.900849 
L 304.190232 346.342752 
L 311.557393 347.427359 
L 318.924554 333.646117 
L 326.291715 336.873232 
L 333.658876 349.644811 
L 341.026036 342.421865 
" clip-path="url(#pf65e346b79)" style="fill: none; stroke: #1f77b4; stroke-width: 1.5; stroke-linecap: square"/>
   </g>
  </g>
  <g id="axes_36">
   <g id="line2d_24">
    <path d="M 375.114764 340.999909 
L 382.481924 332.022032 
L 389.849085 343.808808 
L 397.216246 349.098969 
L 404.583407 335.657066 
L 411.950568 334.572459 
L 419.317729 348.353702 
L 426.68489 345.126586 
L 434.05205 332.355008 
L 441.419211 339.577953 
L 448.786372 350.089696 
L 456.153533 339.577953 
L 463.520694 332.355008 
L 470.887855 345.126586 
L 478.255015 348.353702 
L 485.622176 334.572459 
L 492.989337 335.657066 
L 500.356498 349.098969 
L 507.723659 343.808808 
L 515.09082 332.022032 
L 522.45798 340.999909 
L 529.825141 349.977786 
L 537.192302 338.19101 
L 544.559463 332.900849 
L 551.926624 346.342752 
L 559.293785 347.427359 
L 566.660945 333.646117 
L 574.028106 336.873232 
L 581.395267 349.644811 
L 588.762428 342.421865 
L 596.129589 331.910122 
L 603.49675 342.421865 
L 610.86391 349.644811 
L 618.231071 336.873232 
L 625.598232 333.646117 
L 632.965393 347.427359 
L 640.332554 346.342752 
L 647.699715 332.900849 
L 655.066876 338.19101 
L 662.434036 349.977786 
" clip-path="url(#p0f8617a127)" style="fill: none; stroke: #1f77b4; stroke-width: 1.5; stroke-linecap: square"/>
   </g>
  </g>
  <g id="axes_37">
   <g id="text_15">
    <!-- 12 -->
    <g transform="translate(20.592 361.914123)scale(0.1 -0.1)">
     <use xlink:href="#DejaVuSans-31"/>
     <use xlink:href="#DejaVuSans-32" x="63.623047"/>
    </g>
   </g>
  </g>
  <g id="axes_38">
   <g id="line2d_25">
    <path d="M 53.706764 359.641676 
L 61.073924 371.540363 
L 68.441085 376.085256 
L 75.808246 361.377671 
L 83.175407 365.922565 
L 90.542568 377.821251 
L 97.909729 365.922565 
L 105.27689 361.377671 
L 112.64405 376.085256 
L 120.011211 371.540363 
L 127.378372 359.641676 
L 134.745533 371.540363 
L 142.112694 376.085256 
L 149.479855 361.377671 
L 156.847015 365.922565 
L 164.214176 377.821251 
L 171.581337 365.922565 
L 178.948498 361.377671 
L 186.315659 376.085256 
L 193.68282 371.540363 
L 201.04998 359.641676 
L 208.417141 371.540363 
L 215.784302 376.085256 
L 223.151463 361.377671 
L 230.518624 365.922565 
L 237.885785 377.821251 
L 245.252945 365.922565 
L 252.620106 361.377671 
L 259.987267 376.085256 
L 267.354428 371.540363 
L 274.721589 359.641676 
L 282.08875 371.540363 
L 289.45591 376.085256 
L 296.823071 361.377671 
L 304.190232 365.922565 
L 311.557393 377.821251 
L 318.924554 365.922565 
L 326.291715 361.377671 
L 333.658876 376.085256 
L 341.026036 371.540363 
" clip-path="url(#pbc30351931)" style="fill: none; stroke: #1f77b4; stroke-width: 1.5; stroke-linecap: square"/>
   </g>
  </g>
  <g id="axes_39">
   <g id="line2d_26">
    <path d="M 375.114764 368.731464 
L 382.481924 360.086562 
L 389.849085 374.074307 
L 397.216246 374.074307 
L 404.583407 360.086562 
L 411.950568 368.731464 
L 419.317729 377.376365 
L 426.68489 363.388621 
L 434.05205 363.388621 
L 441.419211 377.376365 
L 448.786372 368.731464 
L 456.153533 360.086562 
L 463.520694 374.074307 
L 470.887855 374.074307 
L 478.255015 360.086562 
L 485.622176 368.731464 
L 492.989337 377.376365 
L 500.356498 363.388621 
L 507.723659 363.388621 
L 515.09082 377.376365 
L 522.45798 368.731464 
L 529.825141 360.086562 
L 537.192302 374.074307 
L 544.559463 374.074307 
L 551.926624 360.086562 
L 559.293785 368.731464 
L 566.660945 377.376365 
L 574.028106 363.388621 
L 581.395267 363.388621 
L 588.762428 377.376365 
L 596.129589 368.731464 
L 603.49675 360.086562 
L 610.86391 374.074307 
L 618.231071 374.074307 
L 625.598232 360.086562 
L 632.965393 368.731464 
L 640.332554 377.376365 
L 647.699715 363.388621 
L 655.066876 363.388621 
L 662.434036 377.376365 
" clip-path="url(#pc3224bce8f)" style="fill: none; stroke: #1f77b4; stroke-width: 1.5; stroke-linecap: square"/>
   </g>
  </g>
  <g id="axes_40">
   <g id="text_16">
    <!-- 13 -->
    <g transform="translate(20.592 389.645678)scale(0.1 -0.1)">
     <use xlink:href="#DejaVuSans-31"/>
     <use xlink:href="#DejaVuSans-33" x="63.623047"/>
    </g>
   </g>
  </g>
  <g id="axes_41">
   <g id="line2d_27">
    <path d="M 53.706764 387.373231 
L 61.073924 400.589696 
L 68.441085 401.805862 
L 75.808246 387.485142 
L 83.175407 399.271917 
L 90.542568 402.890469 
L 97.909729 387.818117 
L 105.27689 397.884975 
L 112.64405 403.816811 
L 120.011211 388.363959 
L 127.378372 396.463019 
L 134.745533 404.562079 
L 142.112694 389.109226 
L 149.479855 395.041063 
L 156.847015 405.10792 
L 164.214176 390.035568 
L 171.581337 393.65412 
L 178.948498 405.440896 
L 186.315659 391.120176 
L 193.68282 392.336342 
L 201.04998 405.552806 
L 208.417141 392.336342 
L 215.784302 391.120176 
L 223.151463 405.440896 
L 230.518624 393.65412 
L 237.885785 390.035568 
L 245.252945 405.10792 
L 252.620106 395.041063 
L 259.987267 389.109226 
L 267.354428 404.562079 
L 274.721589 396.463019 
L 282.08875 388.363959 
L 289.45591 403.816811 
L 296.823071 397.884975 
L 304.190232 387.818117 
L 311.557393 402.890469 
L 318.924554 399.271917 
L 326.291715 387.485142 
L 333.658876 401.805862 
L 341.026036 400.589696 
" clip-path="url(#p469e20ecfb)" style="fill: none; stroke: #1f77b4; stroke-width: 1.5; stroke-linecap: square"/>
   </g>
  </g>
  <g id="axes_42">
   <g id="line2d_28">
    <path d="M 375.114764 396.463019 
L 382.481924 388.363959 
L 389.849085 403.816811 
L 397.216246 397.884975 
L 404.583407 387.818117 
L 411.950568 402.890469 
L 419.317729 399.271917 
L 426.68489 387.485142 
L 434.05205 401.805862 
L 441.419211 400.589696 
L 448.786372 387.373231 
L 456.153533 400.589696 
L 463.520694 401.805862 
L 470.887855 387.485142 
L 478.255015 399.271917 
L 485.622176 402.890469 
L 492.989337 387.818117 
L 500.356498 397.884975 
L 507.723659 403.816811 
L 515.09082 388.363959 
L 522.45798 396.463019 
L 529.825141 404.562079 
L 537.192302 389.109226 
L 544.559463 395.041063 
L 551.926624 405.10792 
L 559.293785 390.035568 
L 566.660945 393.65412 
L 574.028106 405.440896 
L 581.395267 391.120176 
L 588.762428 392.336342 
L 596.129589 405.552806 
L 603.49675 392.336342 
L 610.86391 391.120176 
L 618.231071 405.440896 
L 625.598232 393.65412 
L 632.965393 390.035568 
L 640.332554 405.10792 
L 647.699715 395.041063 
L 655.066876 389.109226 
L 662.434036 404.562079 
" clip-path="url(#pa65808c3d6)" style="fill: none; stroke: #1f77b4; stroke-width: 1.5; stroke-linecap: square"/>
   </g>
  </g>
  <g id="axes_43">
   <g id="text_17">
    <!-- 14 -->
    <g transform="translate(20.592 417.377233)scale(0.1 -0.1)">
     <use xlink:href="#DejaVuSans-31"/>
     <use xlink:href="#DejaVuSans-34" x="63.623047"/>
    </g>
   </g>
  </g>
  <g id="axes_44">
   <g id="line2d_29">
    <path d="M 53.706764 415.104786 
L 61.073924 429.537417 
L 68.441085 427.003472 
L 75.808246 415.549672 
L 83.175407 431.548366 
L 90.542568 424.194574 
L 97.909729 416.840781 
L 105.27689 432.839475 
L 112.64405 421.385675 
L 120.011211 418.851731 
L 127.378372 433.284361 
L 134.745533 418.851731 
L 142.112694 421.385675 
L 149.479855 432.839475 
L 156.847015 416.840781 
L 164.214176 424.194574 
L 171.581337 431.548366 
L 178.948498 415.549672 
L 186.315659 427.003472 
L 193.68282 429.537417 
L 201.04998 415.104786 
L 208.417141 429.537417 
L 215.784302 427.003472 
L 223.151463 415.549672 
L 230.518624 431.548366 
L 237.885785 424.194574 
L 245.252945 416.840781 
L 252.620106 432.839475 
L 259.987267 421.385675 
L 267.354428 418.851731 
L 274.721589 433.284361 
L 282.08875 418.851731 
L 289.45591 421.385675 
L 296.823071 432.839475 
L 304.190232 416.840781 
L 311.557393 424.194574 
L 318.924554 431.548366 
L 326.291715 415.549672 
L 333.658876 427.003472 
L 341.026036 429.537417 
" clip-path="url(#p0a6bfaa9c0)" style="fill: none; stroke: #1f77b4; stroke-width: 1.5; stroke-linecap: square"/>
   </g>
  </g>
  <g id="axes_45">
   <g id="line2d_30">
    <path d="M 375.114764 424.194574 
L 382.481924 416.840781 
L 389.849085 432.839475 
L 397.216246 421.385675 
L 404.583407 418.851731 
L 411.950568 433.284361 
L 419.317729 418.851731 
L 426.68489 421.385675 
L 434.05205 432.839475 
L 441.419211 416.840781 
L 448.786372 424.194574 
L 456.153533 431.548366 
L 463.520694 415.549672 
L 470.887855 427.003472 
L 478.255015 429.537417 
L 485.622176 415.104786 
L 492.989337 429.537417 
L 500.356498 427.003472 
L 507.723659 415.549672 
L 515.09082 431.548366 
L 522.45798 424.194574 
L 529.825141 416.840781 
L 537.192302 432.839475 
L 544.559463 421.385675 
L 551.926624 418.851731 
L 559.293785 433.284361 
L 566.660945 418.851731 
L 574.028106 421.385675 
L 581.395267 432.839475 
L 588.762428 416.840781 
L 596.129589 424.194574 
L 603.49675 431.548366 
L 610.86391 415.549672 
L 618.231071 427.003472 
L 625.598232 429.537417 
L 632.965393 415.104786 
L 640.332554 429.537417 
L 647.699715 427.003472 
L 655.066876 415.549672 
L 662.434036 431.548366 
" clip-path="url(#p5d0fb75d89)" style="fill: none; stroke: #1f77b4; stroke-width: 1.5; stroke-linecap: square"/>
   </g>
  </g>
  <g id="axes_46">
   <g id="text_18">
    <!-- 15 -->
    <g transform="translate(20.592 445.108788)scale(0.1 -0.1)">
     <use xlink:href="#DejaVuSans-31"/>
     <use xlink:href="#DejaVuSans-35" x="63.623047"/>
    </g>
   </g>
  </g>
  <g id="axes_47">
   <g id="line2d_31">
    <path d="M 53.706764 442.836341 
L 61.073924 458.353579 
L 68.441085 451.926128 
L 75.808246 445.498678 
L 83.175407 461.015916 
L 90.542568 445.498678 
L 97.909729 451.926128 
L 105.27689 458.353579 
L 112.64405 442.836341 
L 120.011211 458.353579 
L 127.378372 451.926128 
L 134.745533 445.498678 
L 142.112694 461.015916 
L 149.479855 445.498678 
L 156.847015 451.926128 
L 164.214176 458.353579 
L 171.581337 442.836341 
L 178.948498 458.353579 
L 186.315659 451.926128 
L 193.68282 445.498678 
L 201.04998 461.015916 
L 208.417141 445.498678 
L 215.784302 451.926128 
L 223.151463 458.353579 
L 230.518624 442.836341 
L 237.885785 458.353579 
L 245.252945 451.926128 
L 252.620106 445.498678 
L 259.987267 461.015916 
L 267.354428 445.498678 
L 274.721589 451.926128 
L 282.08875 458.353579 
L 289.45591 442.836341 
L 296.823071 458.353579 
L 304.190232 451.926128 
L 311.557393 445.498678 
L 318.924554 461.015916 
L 326.291715 445.498678 
L 333.658876 451.926128 
L 341.026036 458.353579 
" clip-path="url(#p13b65e3a45)" style="fill: none; stroke: #1f77b4; stroke-width: 1.5; stroke-linecap: square"/>
   </g>
  </g>
  <g id="axes_48">
   <g id="line2d_32">
    <path d="M 375.114764 451.926128 
L 382.481924 445.498678 
L 389.849085 461.015916 
L 397.216246 445.498678 
L 404.583407 451.926128 
L 411.950568 458.353579 
L 419.317729 442.836341 
L 426.68489 458.353579 
L 434.05205 451.926128 
L 441.419211 445.498678 
L 448.786372 461.015916 
L 456.153533 445.498678 
L 463.520694 451.926128 
L 470.887855 458.353579 
L 478.255015 442.836341 
L 485.622176 458.353579 
L 492.989337 451.926128 
L 500.356498 445.498678 
L 507.723659 461.015916 
L 515.09082 445.498678 
L 522.45798 451.926128 
L 529.825141 458.353579 
L 537.192302 442.836341 
L 544.559463 458.353579 
L 551.926624 451.926128 
L 559.293785 445.498678 
L 566.660945 461.015916 
L 574.028106 445.498678 
L 581.395267 451.926128 
L 588.762428 458.353579 
L 596.129589 442.836341 
L 603.49675 458.353579 
L 610.86391 451.926128 
L 618.231071 445.498678 
L 625.598232 461.015916 
L 632.965393 445.498678 
L 640.332554 451.926128 
L 647.699715 458.353579 
L 655.066876 442.836341 
L 662.434036 458.353579 
" clip-path="url(#pfc049d8c8f)" style="fill: none; stroke: #1f77b4; stroke-width: 1.5; stroke-linecap: square"/>
   </g>
  </g>
  <g id="axes_49">
   <g id="text_19">
    <!-- 16 -->
    <g transform="translate(20.592 472.840343)scale(0.1 -0.1)">
     <use xlink:href="#DejaVuSans-31"/>
     <use xlink:href="#DejaVuSans-36" x="63.623047"/>
    </g>
   </g>
  </g>
  <g id="axes_50">
   <g id="line2d_33">
    <path d="M 53.706764 470.567896 
L 61.073924 487.011476 
L 68.441085 476.848784 
L 75.808246 476.848784 
L 83.175407 487.011476 
L 90.542568 470.567896 
L 97.909729 487.011476 
L 105.27689 476.848784 
L 112.64405 476.848784 
L 120.011211 487.011476 
L 127.378372 470.567896 
L 134.745533 487.011476 
L 142.112694 476.848784 
L 149.479855 476.848784 
L 156.847015 487.011476 
L 164.214176 470.567896 
L 171.581337 487.011476 
L 178.948498 476.848784 
L 186.315659 476.848784 
L 193.68282 487.011476 
L 201.04998 470.567896 
L 208.417141 487.011476 
L 215.784302 476.848784 
L 223.151463 476.848784 
L 230.518624 487.011476 
L 237.885785 470.567896 
L 245.252945 487.011476 
L 252.620106 476.848784 
L 259.987267 476.848784 
L 267.354428 487.011476 
L 274.721589 470.567896 
L 282.08875 487.011476 
L 289.45591 476.848784 
L 296.823071 476.848784 
L 304.190232 487.011476 
L 311.557393 470.567896 
L 318.924554 487.011476 
L 326.291715 476.848784 
L 333.658876 476.848784 
L 341.026036 487.011476 
" clip-path="url(#pc2ef7b32de)" style="fill: none; stroke: #1f77b4; stroke-width: 1.5; stroke-linecap: square"/>
   </g>
  </g>
  <g id="axes_51">
   <g id="line2d_34">
    <path d="M 375.114764 479.657683 
L 382.481924 474.31484 
L 389.849085 488.302585 
L 397.216246 471.012782 
L 404.583407 485.000526 
L 411.950568 479.657683 
L 419.317729 474.31484 
L 426.68489 488.302585 
L 434.05205 471.012782 
L 441.419211 485.000526 
L 448.786372 479.657683 
L 456.153533 474.31484 
L 463.520694 488.302585 
L 470.887855 471.012782 
L 478.255015 485.000526 
L 485.622176 479.657683 
L 492.989337 474.31484 
L 500.356498 488.302585 
L 507.723659 471.012782 
L 515.09082 485.000526 
L 522.45798 479.657683 
L 529.825141 474.31484 
L 537.192302 488.302585 
L 544.559463 471.012782 
L 551.926624 485.000526 
L 559.293785 479.657683 
L 566.660945 474.31484 
L 574.028106 488.302585 
L 581.395267 471.012782 
L 588.762428 485.000526 
L 596.129589 479.657683 
L 603.49675 474.31484 
L 610.86391 488.302585 
L 618.231071 471.012782 
L 625.598232 485.000526 
L 632.965393 479.657683 
L 640.332554 474.31484 
L 647.699715 488.302585 
L 655.066876 471.012782 
L 662.434036 485.000526 
" clip-path="url(#pf4424f7cc0)" style="fill: none; stroke: #1f77b4; stroke-width: 1.5; stroke-linecap: square"/>
   </g>
  </g>
  <g id="axes_52">
   <g id="text_20">
    <!-- 17 -->
    <g transform="translate(20.592 500.571897)scale(0.1 -0.1)">
     <use xlink:href="#DejaVuSans-31"/>
     <use xlink:href="#DejaVuSans-37" x="63.623047"/>
    </g>
   </g>
  </g>
  <g id="axes_53">
   <g id="line2d_35">
    <path d="M 53.706764 498.299451 
L 61.073924 515.488298 
L 68.441085 502.046395 
L 75.808246 508.811194 
L 83.175407 510.198137 
L 90.542568 500.961788 
L 97.909729 516.03414 
L 105.27689 498.411361 
L 112.64405 514.74303 
L 120.011211 503.262561 
L 127.378372 507.389238 
L 134.745533 511.515915 
L 142.112694 500.035445 
L 149.479855 516.367115 
L 156.847015 498.744336 
L 164.214176 513.816688 
L 171.581337 504.580339 
L 178.948498 505.967282 
L 186.315659 512.732081 
L 193.68282 499.290178 
L 201.04998 516.479025 
L 208.417141 499.290178 
L 215.784302 512.732081 
L 223.151463 505.967282 
L 230.518624 504.580339 
L 237.885785 513.816688 
L 245.252945 498.744336 
L 252.620106 516.367115 
L 259.987267 500.035445 
L 267.354428 511.515915 
L 274.721589 507.389238 
L 282.08875 503.262561 
L 289.45591 514.74303 
L 296.823071 498.411361 
L 304.190232 516.03414 
L 311.557393 500.961788 
L 318.924554 510.198137 
L 326.291715 508.811194 
L 333.658876 502.046395 
L 341.026036 515.488298 
" clip-path="url(#p07cc29c11c)" style="fill: none; stroke: #1f77b4; stroke-width: 1.5; stroke-linecap: square"/>
   </g>
  </g>
  <g id="axes_54">
   <g id="line2d_36">
    <path d="M 375.114764 507.389238 
L 382.481924 503.262561 
L 389.849085 514.74303 
L 397.216246 498.411361 
L 404.583407 516.03414 
L 411.950568 500.961788 
L 419.317729 510.198137 
L 426.68489 508.811194 
L 434.05205 502.046395 
L 441.419211 515.488298 
L 448.786372 498.299451 
L 456.153533 515.488298 
L 463.520694 502.046395 
L 470.887855 508.811194 
L 478.255015 510.198137 
L 485.622176 500.961788 
L 492.989337 516.03414 
L 500.356498 498.411361 
L 507.723659 514.74303 
L 515.09082 503.262561 
L 522.45798 507.389238 
L 529.825141 511.515915 
L 537.192302 500.035445 
L 544.559463 516.367115 
L 551.926624 498.744336 
L 559.293785 513.816688 
L 566.660945 504.580339 
L 574.028106 505.967282 
L 581.395267 512.732081 
L 588.762428 499.290178 
L 596.129589 516.479025 
L 603.49675 499.290178 
L 610.86391 512.732081 
L 618.231071 505.967282 
L 625.598232 504.580339 
L 632.965393 513.816688 
L 640.332554 498.744336 
L 647.699715 516.367115 
L 655.066876 500.035445 
L 662.434036 511.515915 
" clip-path="url(#p1cd59a1a48)" style="fill: none; stroke: #1f77b4; stroke-width: 1.5; stroke-linecap: square"/>
   </g>
  </g>
  <g id="axes_55">
   <g id="text_21">
    <!-- 18 -->
    <g transform="translate(20.592 528.303452)scale(0.1 -0.1)">
     <use xlink:href="#DejaVuSans-31"/>
     <use xlink:href="#DejaVuSans-38" x="63.623047"/>
    </g>
   </g>
  </g>
  <g id="axes_56">
   <g id="line2d_37">
    <path d="M 53.706764 526.031005 
L 61.073924 543.765694 
L 68.441085 527.767 
L 75.808246 540.463636 
L 83.175407 532.311894 
L 90.542568 535.120793 
L 97.909729 537.929692 
L 105.27689 529.77795 
L 112.64405 542.474585 
L 120.011211 526.475891 
L 127.378372 544.21058 
L 134.745533 526.475891 
L 142.112694 542.474585 
L 149.479855 529.77795 
L 156.847015 537.929692 
L 164.214176 535.120793 
L 171.581337 532.311894 
L 178.948498 540.463636 
L 186.315659 527.767 
L 193.68282 543.765694 
L 201.04998 526.031005 
L 208.417141 543.765694 
L 215.784302 527.767 
L 223.151463 540.463636 
L 230.518624 532.311894 
L 237.885785 535.120793 
L 245.252945 537.929692 
L 252.620106 529.77795 
L 259.987267 542.474585 
L 267.354428 526.475891 
L 274.721589 544.21058 
L 282.08875 526.475891 
L 289.45591 542.474585 
L 296.823071 529.77795 
L 304.190232 537.929692 
L 311.557393 535.120793 
L 318.924554 532.311894 
L 326.291715 540.463636 
L 333.658876 527.767 
L 341.026036 543.765694 
" clip-path="url(#pae2561c923)" style="fill: none; stroke: #1f77b4; stroke-width: 1.5; stroke-linecap: square"/>
   </g>
  </g>
  <g id="axes_57">
   <g id="line2d_38">
    <path d="M 375.114764 535.120793 
L 382.481924 532.311894 
L 389.849085 540.463636 
L 397.216246 527.767 
L 404.583407 543.765694 
L 411.950568 526.031005 
L 419.317729 543.765694 
L 426.68489 527.767 
L 434.05205 540.463636 
L 441.419211 532.311894 
L 448.786372 535.120793 
L 456.153533 537.929692 
L 463.520694 529.77795 
L 470.887855 542.474585 
L 478.255015 526.475891 
L 485.622176 544.21058 
L 492.989337 526.475891 
L 500.356498 542.474585 
L 507.723659 529.77795 
L 515.09082 537.929692 
L 522.45798 535.120793 
L 529.825141 532.311894 
L 537.192302 540.463636 
L 544.559463 527.767 
L 551.926624 543.765694 
L 559.293785 526.031005 
L 566.660945 543.765694 
L 574.028106 527.767 
L 581.395267 540.463636 
L 588.762428 532.311894 
L 596.129589 535.120793 
L 603.49675 537.929692 
L 610.86391 529.77795 
L 618.231071 542.474585 
L 625.598232 526.475891 
L 632.965393 544.21058 
L 640.332554 526.475891 
L 647.699715 542.474585 
L 655.066876 529.77795 
L 662.434036 537.929692 
" clip-path="url(#p8564340c84)" style="fill: none; stroke: #1f77b4; stroke-width: 1.5; stroke-linecap: square"/>
   </g>
  </g>
  <g id="axes_58">
   <g id="text_22">
    <!-- 19 -->
    <g transform="translate(20.592 556.035007)scale(0.1 -0.1)">
     <use xlink:href="#DejaVuSans-31"/>
     <use xlink:href="#DejaVuSans-39" x="63.623047"/>
    </g>
   </g>
  </g>
  <g id="axes_59">
   <g id="line2d_39">
    <path d="M 53.706764 553.76256 
L 61.073924 571.830225 
L 68.441085 554.207446 
L 75.808246 570.951407 
L 83.175407 555.498555 
L 90.542568 569.279798 
L 97.909729 557.509505 
L 105.27689 566.979025 
L 112.64405 560.043449 
L 120.011211 564.274304 
L 127.378372 562.852348 
L 134.745533 561.430392 
L 142.112694 565.661246 
L 149.479855 558.72567 
L 156.847015 568.195191 
L 164.214176 556.424897 
L 171.581337 570.20614 
L 178.948498 554.753288 
L 186.315659 571.497249 
L 193.68282 553.874471 
L 201.04998 571.942135 
L 208.417141 553.874471 
L 215.784302 571.497249 
L 223.151463 554.753288 
L 230.518624 570.20614 
L 237.885785 556.424897 
L 245.252945 568.195191 
L 252.620106 558.72567 
L 259.987267 565.661246 
L 267.354428 561.430392 
L 274.721589 562.852348 
L 282.08875 564.274304 
L 289.45591 560.043449 
L 296.823071 566.979025 
L 304.190232 557.509505 
L 311.557393 569.279798 
L 318.924554 555.498555 
L 326.291715 570.951407 
L 333.658876 554.207446 
L 341.026036 571.830225 
" clip-path="url(#pe62118598c)" style="fill: none; stroke: #1f77b4; stroke-width: 1.5; stroke-linecap: square"/>
   </g>
  </g>
  <g id="axes_60">
   <g id="line2d_40">
    <path d="M 375.114764 562.852348 
L 382.481924 561.430392 
L 389.849085 565.661246 
L 397.216246 558.72567 
L 404.583407 568.195191 
L 411.950568 556.424897 
L 419.317729 570.20614 
L 426.68489 554.753288 
L 434.05205 571.497249 
L 441.419211 553.874471 
L 448.786372 571.942135 
L 456.153533 553.874471 
L 463.520694 571.497249 
L 470.887855 554.753288 
L 478.255015 570.20614 
L 485.622176 556.424897 
L 492.989337 568.195191 
L 500.356498 558.72567 
L 507.723659 565.661246 
L 515.09082 561.430392 
L 522.45798 562.852348 
L 529.825141 564.274304 
L 537.192302 560.043449 
L 544.559463 566.979025 
L 551.926624 557.509505 
L 559.293785 569.279798 
L 566.660945 555.498555 
L 574.028106 570.951407 
L 581.395267 554.207446 
L 588.762428 571.830225 
L 596.129589 553.76256 
L 603.49675 571.830225 
L 610.86391 554.207446 
L 618.231071 570.951407 
L 625.598232 555.498555 
L 632.965393 569.279798 
L 640.332554 557.509505 
L 647.699715 566.979025 
L 655.066876 560.043449 
L 662.434036 564.274304 
" clip-path="url(#pb5e52b6dc1)" style="fill: none; stroke: #1f77b4; stroke-width: 1.5; stroke-linecap: square"/>
   </g>
  </g>
 </g>
 <defs>
  <clipPath id="pe43f0ae97a">
   <rect x="39.3408" y="22.318125" width="316.0512" height="27.269362"/>
  </clipPath>
  <clipPath id="pe3684a218d">
   <rect x="360.7488" y="22.318125" width="316.0512" height="27.269362"/>
  </clipPath>
  <clipPath id="p721366581a">
   <rect x="39.3408" y="50.04968" width="316.0512" height="27.269362"/>
  </clipPath>
  <clipPath id="p4571ab4b6b">
   <rect x="360.7488" y="50.04968" width="316.0512" height="27.269362"/>
  </clipPath>
  <clipPath id="pa0cd5a631d">
   <rect x="39.3408" y="77.781235" width="316.0512" height="27.269362"/>
  </clipPath>
  <clipPath id="p1e98d45992">
   <rect x="360.7488" y="77.781235" width="316.0512" height="27.269362"/>
  </clipPath>
  <clipPath id="p6e662d257d">
   <rect x="39.3408" y="105.512789" width="316.0512" height="27.269362"/>
  </clipPath>
  <clipPath id="p2bb650d20b">
   <rect x="360.7488" y="105.512789" width="316.0512" height="27.269362"/>
  </clipPath>
  <clipPath id="pd3bae925c7">
   <rect x="39.3408" y="133.244344" width="316.0512" height="27.269362"/>
  </clipPath>
  <clipPath id="p4d5245354d">
   <rect x="360.7488" y="133.244344" width="316.0512" height="27.269362"/>
  </clipPath>
  <clipPath id="p9f985ec2be">
   <rect x="39.3408" y="160.975899" width="316.0512" height="27.269362"/>
  </clipPath>
  <clipPath id="p9e3d9a1397">
   <rect x="360.7488" y="160.975899" width="316.0512" height="27.269362"/>
  </clipPath>
  <clipPath id="pc6f78afe11">
   <rect x="39.3408" y="188.707454" width="316.0512" height="27.269362"/>
  </clipPath>
  <clipPath id="p82ed4b4ae7">
   <rect x="360.7488" y="188.707454" width="316.0512" height="27.269362"/>
  </clipPath>
  <clipPath id="p40331ed4e2">
   <rect x="39.3408" y="216.439009" width="316.0512" height="27.269362"/>
  </clipPath>
  <clipPath id="p26cc127bb0">
   <rect x="360.7488" y="216.439009" width="316.0512" height="27.269362"/>
  </clipPath>
  <clipPath id="pde224fdc02">
   <rect x="39.3408" y="244.170564" width="316.0512" height="27.269362"/>
  </clipPath>
  <clipPath id="p04aecc2656">
   <rect x="360.7488" y="244.170564" width="316.0512" height="27.269362"/>
  </clipPath>
  <clipPath id="p8e26968304">
   <rect x="39.3408" y="271.902118" width="316.0512" height="27.269362"/>
  </clipPath>
  <clipPath id="pd07e5557a1">
   <rect x="360.7488" y="271.902118" width="316.0512" height="27.269362"/>
  </clipPath>
  <clipPath id="p00449904ac">
   <rect x="39.3408" y="299.633673" width="316.0512" height="27.269362"/>
  </clipPath>
  <clipPath id="p4ee8e05b1f">
   <rect x="360.7488" y="299.633673" width="316.0512" height="27.269362"/>
  </clipPath>
  <clipPath id="pf65e346b79">
   <rect x="39.3408" y="327.365228" width="316.0512" height="27.269362"/>
  </clipPath>
  <clipPath id="p0f8617a127">
   <rect x="360.7488" y="327.365228" width="316.0512" height="27.269362"/>
  </clipPath>
  <clipPath id="pbc30351931">
   <rect x="39.3408" y="355.096783" width="316.0512" height="27.269362"/>
  </clipPath>
  <clipPath id="pc3224bce8f">
   <rect x="360.7488" y="355.096783" width="316.0512" height="27.269362"/>
  </clipPath>
  <clipPath id="p469e20ecfb">
   <rect x="39.3408" y="382.828338" width="316.0512" height="27.269362"/>
  </clipPath>
  <clipPath id="pa65808c3d6">
   <rect x="360.7488" y="382.828338" width="316.0512" height="27.269362"/>
  </clipPath>
  <clipPath id="p0a6bfaa9c0">
   <rect x="39.3408" y="410.559892" width="316.0512" height="27.269362"/>
  </clipPath>
  <clipPath id="p5d0fb75d89">
   <rect x="360.7488" y="410.559892" width="316.0512" height="27.269362"/>
  </clipPath>
  <clipPath id="p13b65e3a45">
   <rect x="39.3408" y="438.291447" width="316.0512" height="27.269362"/>
  </clipPath>
  <clipPath id="pfc049d8c8f">
   <rect x="360.7488" y="438.291447" width="316.0512" height="27.269362"/>
  </clipPath>
  <clipPath id="pc2ef7b32de">
   <rect x="39.3408" y="466.023002" width="316.0512" height="27.269362"/>
  </clipPath>
  <clipPath id="pf4424f7cc0">
   <rect x="360.7488" y="466.023002" width="316.0512" height="27.269362"/>
  </clipPath>
  <clipPath id="p07cc29c11c">
   <rect x="39.3408" y="493.754557" width="316.0512" height="27.269362"/>
  </clipPath>
  <clipPath id="p1cd59a1a48">
   <rect x="360.7488" y="493.754557" width="316.0512" height="27.269362"/>
  </clipPath>
  <clipPath id="pae2561c923">
   <rect x="39.3408" y="521.486112" width="316.0512" height="27.269362"/>
  </clipPath>
  <clipPath id="p8564340c84">
   <rect x="360.7488" y="521.486112" width="316.0512" height="27.269362"/>
  </clipPath>
  <clipPath id="pe62118598c">
   <rect x="39.3408" y="549.217666" width="316.0512" height="27.269362"/>
  </clipPath>
  <clipPath id="pb5e52b6dc1">
   <rect x="360.7488" y="549.217666" width="316.0512" height="27.269362"/>
  </clipPath>
 </defs>
</svg>
