<?xml version="1.0" encoding="utf-8" standalone="no"?>
<!DOCTYPE svg PUBLIC "-//W3C//DTD SVG 1.1//EN"
  "http://www.w3.org/Graphics/SVG/1.1/DTD/svg11.dtd">
<!-- Created with matplotlib (https://matplotlib.org/) -->
<svg height="572.891531pt" version="1.1" viewBox="0 0 684 572.891531" width="684pt" xmlns="http://www.w3.org/2000/svg" xmlns:xlink="http://www.w3.org/1999/xlink">
 <metadata>
  <rdf:RDF xmlns:cc="http://creativecommons.org/ns#" xmlns:dc="http://purl.org/dc/elements/1.1/" xmlns:rdf="http://www.w3.org/1999/02/22-rdf-syntax-ns#">
   <cc:Work>
    <dc:type rdf:resource="http://purl.org/dc/dcmitype/StillImage"/>
    <dc:date>2021-02-12T11:19:52.706370</dc:date>
    <dc:format>image/svg+xml</dc:format>
    <dc:creator>
     <cc:Agent>
      <dc:title>Matplotlib v3.3.3, https://matplotlib.org/</dc:title>
     </cc:Agent>
    </dc:creator>
   </cc:Work>
  </rdf:RDF>
 </metadata>
 <defs>
  <style type="text/css">*{stroke-linecap:butt;stroke-linejoin:round;}</style>
 </defs>
 <g id="figure_1">
  <g id="patch_1">
   <path d="M 0 572.891531 
L 684 572.891531 
L 684 0 
L 0 0 
z
" style="fill:none;"/>
  </g>
  <g id="axes_1">
   <g id="text_1">
    <!-- 0 -->
    <g transform="translate(20.592 29.00266)scale(0.1 -0.1)">
     <defs>
      <path d="M 31.78125 66.40625 
Q 24.171875 66.40625 20.328125 58.90625 
Q 16.5 51.421875 16.5 36.375 
Q 16.5 21.390625 20.328125 13.890625 
Q 24.171875 6.390625 31.78125 6.390625 
Q 39.453125 6.390625 43.28125 13.890625 
Q 47.125 21.390625 47.125 36.375 
Q 47.125 51.421875 43.28125 58.90625 
Q 39.453125 66.40625 31.78125 66.40625 
z
M 31.78125 74.21875 
Q 44.046875 74.21875 50.515625 64.515625 
Q 56.984375 54.828125 56.984375 36.375 
Q 56.984375 17.96875 50.515625 8.265625 
Q 44.046875 -1.421875 31.78125 -1.421875 
Q 19.53125 -1.421875 13.0625 8.265625 
Q 6.59375 17.96875 6.59375 36.375 
Q 6.59375 54.828125 13.0625 64.515625 
Q 19.53125 74.21875 31.78125 74.21875 
z
" id="DejaVuSans-48"/>
     </defs>
     <use xlink:href="#DejaVuSans-48"/>
    </g>
   </g>
  </g>
  <g id="axes_2">
   <g id="line2d_1">
    <path clip-path="url(#pe5ad95f5cc)" d="M 53.706764 26.774482 
L 61.073924 26.774482 
L 68.441085 26.774482 
L 75.808246 26.774482 
L 83.175407 26.774482 
L 90.542568 26.774482 
L 97.909729 26.774482 
L 105.27689 26.774482 
L 112.64405 26.774482 
L 120.011211 26.774482 
L 127.378372 26.774482 
L 134.745533 26.774482 
L 142.112694 26.774482 
L 149.479855 26.774482 
L 156.847015 26.774482 
L 164.214176 26.774482 
L 171.581337 26.774482 
L 178.948498 26.774482 
L 186.315659 26.774482 
L 193.68282 26.774482 
L 201.04998 26.774482 
L 208.417141 26.774482 
L 215.784302 26.774482 
L 223.151463 26.774482 
L 230.518624 26.774482 
L 237.885785 26.774482 
L 245.252945 26.774482 
L 252.620106 26.774482 
L 259.987267 26.774482 
L 267.354428 26.774482 
L 274.721589 26.774482 
L 282.08875 26.774482 
L 289.45591 26.774482 
L 296.823071 26.774482 
L 304.190232 26.774482 
L 311.557393 26.774482 
L 318.924554 26.774482 
L 326.291715 26.774482 
L 333.658876 26.774482 
L 341.026036 26.774482 
" style="fill:none;stroke:#1f77b4;stroke-linecap:square;stroke-width:1.5;"/>
   </g>
   <g id="text_2">
    <!-- Cosines -->
    <g transform="translate(174.092962 16.318125)scale(0.12 -0.12)">
     <defs>
      <path d="M 64.40625 67.28125 
L 64.40625 56.890625 
Q 59.421875 61.53125 53.78125 63.8125 
Q 48.140625 66.109375 41.796875 66.109375 
Q 29.296875 66.109375 22.65625 58.46875 
Q 16.015625 50.828125 16.015625 36.375 
Q 16.015625 21.96875 22.65625 14.328125 
Q 29.296875 6.6875 41.796875 6.6875 
Q 48.140625 6.6875 53.78125 8.984375 
Q 59.421875 11.28125 64.40625 15.921875 
L 64.40625 5.609375 
Q 59.234375 2.09375 53.4375 0.328125 
Q 47.65625 -1.421875 41.21875 -1.421875 
Q 24.65625 -1.421875 15.125 8.703125 
Q 5.609375 18.84375 5.609375 36.375 
Q 5.609375 53.953125 15.125 64.078125 
Q 24.65625 74.21875 41.21875 74.21875 
Q 47.75 74.21875 53.53125 72.484375 
Q 59.328125 70.75 64.40625 67.28125 
z
" id="DejaVuSans-67"/>
      <path d="M 30.609375 48.390625 
Q 23.390625 48.390625 19.1875 42.75 
Q 14.984375 37.109375 14.984375 27.296875 
Q 14.984375 17.484375 19.15625 11.84375 
Q 23.34375 6.203125 30.609375 6.203125 
Q 37.796875 6.203125 41.984375 11.859375 
Q 46.1875 17.53125 46.1875 27.296875 
Q 46.1875 37.015625 41.984375 42.703125 
Q 37.796875 48.390625 30.609375 48.390625 
z
M 30.609375 56 
Q 42.328125 56 49.015625 48.375 
Q 55.71875 40.765625 55.71875 27.296875 
Q 55.71875 13.875 49.015625 6.21875 
Q 42.328125 -1.421875 30.609375 -1.421875 
Q 18.84375 -1.421875 12.171875 6.21875 
Q 5.515625 13.875 5.515625 27.296875 
Q 5.515625 40.765625 12.171875 48.375 
Q 18.84375 56 30.609375 56 
z
" id="DejaVuSans-111"/>
      <path d="M 44.28125 53.078125 
L 44.28125 44.578125 
Q 40.484375 46.53125 36.375 47.5 
Q 32.28125 48.484375 27.875 48.484375 
Q 21.1875 48.484375 17.84375 46.4375 
Q 14.5 44.390625 14.5 40.28125 
Q 14.5 37.15625 16.890625 35.375 
Q 19.28125 33.59375 26.515625 31.984375 
L 29.59375 31.296875 
Q 39.15625 29.25 43.1875 25.515625 
Q 47.21875 21.78125 47.21875 15.09375 
Q 47.21875 7.46875 41.1875 3.015625 
Q 35.15625 -1.421875 24.609375 -1.421875 
Q 20.21875 -1.421875 15.453125 -0.5625 
Q 10.6875 0.296875 5.421875 2 
L 5.421875 11.28125 
Q 10.40625 8.6875 15.234375 7.390625 
Q 20.0625 6.109375 24.8125 6.109375 
Q 31.15625 6.109375 34.5625 8.28125 
Q 37.984375 10.453125 37.984375 14.40625 
Q 37.984375 18.0625 35.515625 20.015625 
Q 33.0625 21.96875 24.703125 23.78125 
L 21.578125 24.515625 
Q 13.234375 26.265625 9.515625 29.90625 
Q 5.8125 33.546875 5.8125 39.890625 
Q 5.8125 47.609375 11.28125 51.796875 
Q 16.75 56 26.8125 56 
Q 31.78125 56 36.171875 55.265625 
Q 40.578125 54.546875 44.28125 53.078125 
z
" id="DejaVuSans-115"/>
      <path d="M 9.421875 54.6875 
L 18.40625 54.6875 
L 18.40625 0 
L 9.421875 0 
z
M 9.421875 75.984375 
L 18.40625 75.984375 
L 18.40625 64.59375 
L 9.421875 64.59375 
z
" id="DejaVuSans-105"/>
      <path d="M 54.890625 33.015625 
L 54.890625 0 
L 45.90625 0 
L 45.90625 32.71875 
Q 45.90625 40.484375 42.875 44.328125 
Q 39.84375 48.1875 33.796875 48.1875 
Q 26.515625 48.1875 22.3125 43.546875 
Q 18.109375 38.921875 18.109375 30.90625 
L 18.109375 0 
L 9.078125 0 
L 9.078125 54.6875 
L 18.109375 54.6875 
L 18.109375 46.1875 
Q 21.34375 51.125 25.703125 53.5625 
Q 30.078125 56 35.796875 56 
Q 45.21875 56 50.046875 50.171875 
Q 54.890625 44.34375 54.890625 33.015625 
z
" id="DejaVuSans-110"/>
      <path d="M 56.203125 29.59375 
L 56.203125 25.203125 
L 14.890625 25.203125 
Q 15.484375 15.921875 20.484375 11.0625 
Q 25.484375 6.203125 34.421875 6.203125 
Q 39.59375 6.203125 44.453125 7.46875 
Q 49.3125 8.734375 54.109375 11.28125 
L 54.109375 2.78125 
Q 49.265625 0.734375 44.1875 -0.34375 
Q 39.109375 -1.421875 33.890625 -1.421875 
Q 20.796875 -1.421875 13.15625 6.1875 
Q 5.515625 13.8125 5.515625 26.8125 
Q 5.515625 40.234375 12.765625 48.109375 
Q 20.015625 56 32.328125 56 
Q 43.359375 56 49.78125 48.890625 
Q 56.203125 41.796875 56.203125 29.59375 
z
M 47.21875 32.234375 
Q 47.125 39.59375 43.09375 43.984375 
Q 39.0625 48.390625 32.421875 48.390625 
Q 24.90625 48.390625 20.390625 44.140625 
Q 15.875 39.890625 15.1875 32.171875 
z
" id="DejaVuSans-101"/>
     </defs>
     <use xlink:href="#DejaVuSans-67"/>
     <use x="69.824219" xlink:href="#DejaVuSans-111"/>
     <use x="131.005859" xlink:href="#DejaVuSans-115"/>
     <use x="183.105469" xlink:href="#DejaVuSans-105"/>
     <use x="210.888672" xlink:href="#DejaVuSans-110"/>
     <use x="274.267578" xlink:href="#DejaVuSans-101"/>
     <use x="335.791016" xlink:href="#DejaVuSans-115"/>
    </g>
   </g>
  </g>
  <g id="axes_3">
   <g id="line2d_2">
    <path clip-path="url(#p0c8c6ef230)" d="M 375.114764 35.687195 
L 382.481924 35.687195 
L 389.849085 35.687195 
L 397.216246 35.687195 
L 404.583407 35.687195 
L 411.950568 35.687195 
L 419.317729 35.687195 
L 426.68489 35.687195 
L 434.05205 35.687195 
L 441.419211 35.687195 
L 448.786372 35.687195 
L 456.153533 35.687195 
L 463.520694 35.687195 
L 470.887855 35.687195 
L 478.255015 35.687195 
L 485.622176 35.687195 
L 492.989337 35.687195 
L 500.356498 35.687195 
L 507.723659 35.687195 
L 515.09082 35.687195 
L 522.45798 35.687195 
L 529.825141 35.687195 
L 537.192302 35.687195 
L 544.559463 35.687195 
L 551.926624 35.687195 
L 559.293785 35.687195 
L 566.660945 35.687195 
L 574.028106 35.687195 
L 581.395267 35.687195 
L 588.762428 35.687195 
L 596.129589 35.687195 
L 603.49675 35.687195 
L 610.86391 35.687195 
L 618.231071 35.687195 
L 625.598232 35.687195 
L 632.965393 35.687195 
L 640.332554 35.687195 
L 647.699715 35.687195 
L 655.066876 35.687195 
L 662.434036 35.687195 
" style="fill:none;stroke:#1f77b4;stroke-linecap:square;stroke-width:1.5;"/>
   </g>
   <g id="text_3">
    <!-- Sines -->
    <g transform="translate(502.678463 16.318125)scale(0.12 -0.12)">
     <defs>
      <path d="M 53.515625 70.515625 
L 53.515625 60.890625 
Q 47.90625 63.578125 42.921875 64.890625 
Q 37.9375 66.21875 33.296875 66.21875 
Q 25.25 66.21875 20.875 63.09375 
Q 16.5 59.96875 16.5 54.203125 
Q 16.5 49.359375 19.40625 46.890625 
Q 22.3125 44.4375 30.421875 42.921875 
L 36.375 41.703125 
Q 47.40625 39.59375 52.65625 34.296875 
Q 57.90625 29 57.90625 20.125 
Q 57.90625 9.515625 50.796875 4.046875 
Q 43.703125 -1.421875 29.984375 -1.421875 
Q 24.8125 -1.421875 18.96875 -0.25 
Q 13.140625 0.921875 6.890625 3.21875 
L 6.890625 13.375 
Q 12.890625 10.015625 18.65625 8.296875 
Q 24.421875 6.59375 29.984375 6.59375 
Q 38.421875 6.59375 43.015625 9.90625 
Q 47.609375 13.234375 47.609375 19.390625 
Q 47.609375 24.75 44.3125 27.78125 
Q 41.015625 30.8125 33.5 32.328125 
L 27.484375 33.5 
Q 16.453125 35.6875 11.515625 40.375 
Q 6.59375 45.0625 6.59375 53.421875 
Q 6.59375 63.09375 13.40625 68.65625 
Q 20.21875 74.21875 32.171875 74.21875 
Q 37.3125 74.21875 42.625 73.28125 
Q 47.953125 72.359375 53.515625 70.515625 
z
" id="DejaVuSans-83"/>
     </defs>
     <use xlink:href="#DejaVuSans-83"/>
     <use x="63.476562" xlink:href="#DejaVuSans-105"/>
     <use x="91.259766" xlink:href="#DejaVuSans-110"/>
     <use x="154.638672" xlink:href="#DejaVuSans-101"/>
     <use x="216.162109" xlink:href="#DejaVuSans-115"/>
    </g>
   </g>
  </g>
  <g id="axes_4">
   <g id="text_4">
    <!-- 1 -->
    <g transform="translate(20.592 56.19399)scale(0.1 -0.1)">
     <defs>
      <path d="M 12.40625 8.296875 
L 28.515625 8.296875 
L 28.515625 63.921875 
L 10.984375 60.40625 
L 10.984375 69.390625 
L 28.421875 72.90625 
L 38.28125 72.90625 
L 38.28125 8.296875 
L 54.390625 8.296875 
L 54.390625 0 
L 12.40625 0 
z
" id="DejaVuSans-49"/>
     </defs>
     <use xlink:href="#DejaVuSans-49"/>
    </g>
   </g>
  </g>
  <g id="axes_5">
   <g id="line2d_3">
    <path clip-path="url(#p5f6bb82a1f)" d="M 53.706764 53.965812 
L 61.073924 54.075542 
L 68.441085 54.402031 
L 75.808246 54.937239 
L 83.175407 55.667988 
L 90.542568 56.576285 
L 97.909729 57.639764 
L 105.27689 58.832238 
L 112.64405 60.124345 
L 120.011211 61.48427 
L 127.378372 62.878525 
L 134.745533 64.272781 
L 142.112694 65.632705 
L 149.479855 66.924812 
L 156.847015 68.117287 
L 164.214176 69.180765 
L 171.581337 70.089062 
L 178.948498 70.819811 
L 186.315659 71.35502 
L 193.68282 71.681509 
L 201.04998 71.791239 
L 208.417141 71.681509 
L 215.784302 71.35502 
L 223.151463 70.819811 
L 230.518624 70.089062 
L 237.885785 69.180765 
L 245.252945 68.117287 
L 252.620106 66.924812 
L 259.987267 65.632705 
L 267.354428 64.272781 
L 274.721589 62.878525 
L 282.08875 61.48427 
L 289.45591 60.124345 
L 296.823071 58.832238 
L 304.190232 57.639764 
L 311.557393 56.576285 
L 318.924554 55.667988 
L 326.291715 54.937239 
L 333.658876 54.402031 
L 341.026036 54.075542 
" style="fill:none;stroke:#1f77b4;stroke-linecap:square;stroke-width:1.5;"/>
   </g>
  </g>
  <g id="axes_6">
   <g id="line2d_4">
    <path clip-path="url(#p1a00aca976)" d="M 375.114764 62.878525 
L 382.481924 61.48427 
L 389.849085 60.124345 
L 397.216246 58.832238 
L 404.583407 57.639764 
L 411.950568 56.576285 
L 419.317729 55.667988 
L 426.68489 54.937239 
L 434.05205 54.402031 
L 441.419211 54.075542 
L 448.786372 53.965812 
L 456.153533 54.075542 
L 463.520694 54.402031 
L 470.887855 54.937239 
L 478.255015 55.667988 
L 485.622176 56.576285 
L 492.989337 57.639764 
L 500.356498 58.832238 
L 507.723659 60.124345 
L 515.09082 61.48427 
L 522.45798 62.878525 
L 529.825141 64.272781 
L 537.192302 65.632705 
L 544.559463 66.924812 
L 551.926624 68.117287 
L 559.293785 69.180765 
L 566.660945 70.089062 
L 574.028106 70.819811 
L 581.395267 71.35502 
L 588.762428 71.681509 
L 596.129589 71.791239 
L 603.49675 71.681509 
L 610.86391 71.35502 
L 618.231071 70.819811 
L 625.598232 70.089062 
L 632.965393 69.180765 
L 640.332554 68.117287 
L 647.699715 66.924812 
L 655.066876 65.632705 
L 662.434036 64.272781 
" style="fill:none;stroke:#1f77b4;stroke-linecap:square;stroke-width:1.5;"/>
   </g>
  </g>
  <g id="axes_7">
   <g id="text_5">
    <!-- 2 -->
    <g transform="translate(20.592 83.38532)scale(0.1 -0.1)">
     <defs>
      <path d="M 19.1875 8.296875 
L 53.609375 8.296875 
L 53.609375 0 
L 7.328125 0 
L 7.328125 8.296875 
Q 12.9375 14.109375 22.625 23.890625 
Q 32.328125 33.6875 34.8125 36.53125 
Q 39.546875 41.84375 41.421875 45.53125 
Q 43.3125 49.21875 43.3125 52.78125 
Q 43.3125 58.59375 39.234375 62.25 
Q 35.15625 65.921875 28.609375 65.921875 
Q 23.96875 65.921875 18.8125 64.3125 
Q 13.671875 62.703125 7.8125 59.421875 
L 7.8125 69.390625 
Q 13.765625 71.78125 18.9375 73 
Q 24.125 74.21875 28.421875 74.21875 
Q 39.75 74.21875 46.484375 68.546875 
Q 53.21875 62.890625 53.21875 53.421875 
Q 53.21875 48.921875 51.53125 44.890625 
Q 49.859375 40.875 45.40625 35.40625 
Q 44.1875 33.984375 37.640625 27.21875 
Q 31.109375 20.453125 19.1875 8.296875 
z
" id="DejaVuSans-50"/>
     </defs>
     <use xlink:href="#DejaVuSans-50"/>
    </g>
   </g>
  </g>
  <g id="axes_8">
   <g id="line2d_5">
    <path clip-path="url(#p4a2d23fc0c)" d="M 53.706764 81.157141 
L 61.073924 81.593361 
L 68.441085 82.859318 
L 75.808246 84.831093 
L 83.175407 87.315675 
L 90.542568 90.069855 
L 97.909729 92.824035 
L 105.27689 95.308617 
L 112.64405 97.280392 
L 120.011211 98.546349 
L 127.378372 98.982569 
L 134.745533 98.546349 
L 142.112694 97.280392 
L 149.479855 95.308617 
L 156.847015 92.824035 
L 164.214176 90.069855 
L 171.581337 87.315675 
L 178.948498 84.831093 
L 186.315659 82.859318 
L 193.68282 81.593361 
L 201.04998 81.157141 
L 208.417141 81.593361 
L 215.784302 82.859318 
L 223.151463 84.831093 
L 230.518624 87.315675 
L 237.885785 90.069855 
L 245.252945 92.824035 
L 252.620106 95.308617 
L 259.987267 97.280392 
L 267.354428 98.546349 
L 274.721589 98.982569 
L 282.08875 98.546349 
L 289.45591 97.280392 
L 296.823071 95.308617 
L 304.190232 92.824035 
L 311.557393 90.069855 
L 318.924554 87.315675 
L 326.291715 84.831093 
L 333.658876 82.859318 
L 341.026036 81.593361 
" style="fill:none;stroke:#1f77b4;stroke-linecap:square;stroke-width:1.5;"/>
   </g>
  </g>
  <g id="axes_9">
   <g id="line2d_6">
    <path clip-path="url(#p3c902644c9)" d="M 375.114764 90.069855 
L 382.481924 87.315675 
L 389.849085 84.831093 
L 397.216246 82.859318 
L 404.583407 81.593361 
L 411.950568 81.157141 
L 419.317729 81.593361 
L 426.68489 82.859318 
L 434.05205 84.831093 
L 441.419211 87.315675 
L 448.786372 90.069855 
L 456.153533 92.824035 
L 463.520694 95.308617 
L 470.887855 97.280392 
L 478.255015 98.546349 
L 485.622176 98.982569 
L 492.989337 98.546349 
L 500.356498 97.280392 
L 507.723659 95.308617 
L 515.09082 92.824035 
L 522.45798 90.069855 
L 529.825141 87.315675 
L 537.192302 84.831093 
L 544.559463 82.859318 
L 551.926624 81.593361 
L 559.293785 81.157141 
L 566.660945 81.593361 
L 574.028106 82.859318 
L 581.395267 84.831093 
L 588.762428 87.315675 
L 596.129589 90.069855 
L 603.49675 92.824035 
L 610.86391 95.308617 
L 618.231071 97.280392 
L 625.598232 98.546349 
L 632.965393 98.982569 
L 640.332554 98.546349 
L 647.699715 97.280392 
L 655.066876 95.308617 
L 662.434036 92.824035 
" style="fill:none;stroke:#1f77b4;stroke-linecap:square;stroke-width:1.5;"/>
   </g>
  </g>
  <g id="axes_10">
   <g id="text_6">
    <!-- 3 -->
    <g transform="translate(20.592 110.576649)scale(0.1 -0.1)">
     <defs>
      <path d="M 40.578125 39.3125 
Q 47.65625 37.796875 51.625 33 
Q 55.609375 28.21875 55.609375 21.1875 
Q 55.609375 10.40625 48.1875 4.484375 
Q 40.765625 -1.421875 27.09375 -1.421875 
Q 22.515625 -1.421875 17.65625 -0.515625 
Q 12.796875 0.390625 7.625 2.203125 
L 7.625 11.71875 
Q 11.71875 9.328125 16.59375 8.109375 
Q 21.484375 6.890625 26.8125 6.890625 
Q 36.078125 6.890625 40.9375 10.546875 
Q 45.796875 14.203125 45.796875 21.1875 
Q 45.796875 27.640625 41.28125 31.265625 
Q 36.765625 34.90625 28.71875 34.90625 
L 20.21875 34.90625 
L 20.21875 43.015625 
L 29.109375 43.015625 
Q 36.375 43.015625 40.234375 45.921875 
Q 44.09375 48.828125 44.09375 54.296875 
Q 44.09375 59.90625 40.109375 62.90625 
Q 36.140625 65.921875 28.71875 65.921875 
Q 24.65625 65.921875 20.015625 65.03125 
Q 15.375 64.15625 9.8125 62.3125 
L 9.8125 71.09375 
Q 15.4375 72.65625 20.34375 73.4375 
Q 25.25 74.21875 29.59375 74.21875 
Q 40.828125 74.21875 47.359375 69.109375 
Q 53.90625 64.015625 53.90625 55.328125 
Q 53.90625 49.265625 50.4375 45.09375 
Q 46.96875 40.921875 40.578125 39.3125 
z
" id="DejaVuSans-51"/>
     </defs>
     <use xlink:href="#DejaVuSans-51"/>
    </g>
   </g>
  </g>
  <g id="axes_11">
   <g id="line2d_7">
    <path clip-path="url(#p92ceabd493)" d="M 53.706764 108.348471 
L 61.073924 109.319899 
L 68.441085 112.022423 
L 75.808246 115.866929 
L 83.175407 120.015365 
L 90.542568 123.563425 
L 97.909729 125.737679 
L 105.27689 126.064168 
L 112.64405 124.471721 
L 120.011211 121.307472 
L 127.378372 117.261185 
L 134.745533 113.214897 
L 142.112694 110.050648 
L 149.479855 108.458201 
L 156.847015 108.78469 
L 164.214176 110.958944 
L 171.581337 114.507005 
L 178.948498 118.65544 
L 186.315659 122.499946 
L 193.68282 125.202471 
L 201.04998 126.173898 
L 208.417141 125.202471 
L 215.784302 122.499946 
L 223.151463 118.65544 
L 230.518624 114.507005 
L 237.885785 110.958944 
L 245.252945 108.78469 
L 252.620106 108.458201 
L 259.987267 110.050648 
L 267.354428 113.214897 
L 274.721589 117.261185 
L 282.08875 121.307472 
L 289.45591 124.471721 
L 296.823071 126.064168 
L 304.190232 125.737679 
L 311.557393 123.563425 
L 318.924554 120.015365 
L 326.291715 115.866929 
L 333.658876 112.022423 
L 341.026036 109.319899 
" style="fill:none;stroke:#1f77b4;stroke-linecap:square;stroke-width:1.5;"/>
   </g>
  </g>
  <g id="axes_12">
   <g id="line2d_8">
    <path clip-path="url(#p4e8818717a)" d="M 375.114764 117.261185 
L 382.481924 113.214897 
L 389.849085 110.050648 
L 397.216246 108.458201 
L 404.583407 108.78469 
L 411.950568 110.958944 
L 419.317729 114.507005 
L 426.68489 118.65544 
L 434.05205 122.499946 
L 441.419211 125.202471 
L 448.786372 126.173898 
L 456.153533 125.202471 
L 463.520694 122.499946 
L 470.887855 118.65544 
L 478.255015 114.507005 
L 485.622176 110.958944 
L 492.989337 108.78469 
L 500.356498 108.458201 
L 507.723659 110.050648 
L 515.09082 113.214897 
L 522.45798 117.261185 
L 529.825141 121.307472 
L 537.192302 124.471721 
L 544.559463 126.064168 
L 551.926624 125.737679 
L 559.293785 123.563425 
L 566.660945 120.015365 
L 574.028106 115.866929 
L 581.395267 112.022423 
L 588.762428 109.319899 
L 596.129589 108.348471 
L 603.49675 109.319899 
L 610.86391 112.022423 
L 618.231071 115.866929 
L 625.598232 120.015365 
L 632.965393 123.563425 
L 640.332554 125.737679 
L 647.699715 126.064168 
L 655.066876 124.471721 
L 662.434036 121.307472 
" style="fill:none;stroke:#1f77b4;stroke-linecap:square;stroke-width:1.5;"/>
   </g>
  </g>
  <g id="axes_13">
   <g id="text_7">
    <!-- 4 -->
    <g transform="translate(20.592 137.767979)scale(0.1 -0.1)">
     <defs>
      <path d="M 37.796875 64.3125 
L 12.890625 25.390625 
L 37.796875 25.390625 
z
M 35.203125 72.90625 
L 47.609375 72.90625 
L 47.609375 25.390625 
L 58.015625 25.390625 
L 58.015625 17.1875 
L 47.609375 17.1875 
L 47.609375 0 
L 37.796875 0 
L 37.796875 17.1875 
L 4.890625 17.1875 
L 4.890625 26.703125 
z
" id="DejaVuSans-52"/>
     </defs>
     <use xlink:href="#DejaVuSans-52"/>
    </g>
   </g>
  </g>
  <g id="axes_14">
   <g id="line2d_9">
    <path clip-path="url(#pb7168c719d)" d="M 53.706764 135.539801 
L 61.073924 137.241978 
L 68.441085 141.698334 
L 75.808246 147.206694 
L 83.175407 151.663051 
L 90.542568 153.365228 
L 97.909729 151.663051 
L 105.27689 147.206694 
L 112.64405 141.698334 
L 120.011211 137.241978 
L 127.378372 135.539801 
L 134.745533 137.241978 
L 142.112694 141.698334 
L 149.479855 147.206694 
L 156.847015 151.663051 
L 164.214176 153.365228 
L 171.581337 151.663051 
L 178.948498 147.206694 
L 186.315659 141.698334 
L 193.68282 137.241978 
L 201.04998 135.539801 
L 208.417141 137.241978 
L 215.784302 141.698334 
L 223.151463 147.206694 
L 230.518624 151.663051 
L 237.885785 153.365228 
L 245.252945 151.663051 
L 252.620106 147.206694 
L 259.987267 141.698334 
L 267.354428 137.241978 
L 274.721589 135.539801 
L 282.08875 137.241978 
L 289.45591 141.698334 
L 296.823071 147.206694 
L 304.190232 151.663051 
L 311.557393 153.365228 
L 318.924554 151.663051 
L 326.291715 147.206694 
L 333.658876 141.698334 
L 341.026036 137.241978 
" style="fill:none;stroke:#1f77b4;stroke-linecap:square;stroke-width:1.5;"/>
   </g>
  </g>
  <g id="axes_15">
   <g id="line2d_10">
    <path clip-path="url(#p7dad0435b1)" d="M 375.114764 144.452514 
L 382.481924 139.213753 
L 389.849085 135.97602 
L 397.216246 135.97602 
L 404.583407 139.213753 
L 411.950568 144.452514 
L 419.317729 149.691276 
L 426.68489 152.929009 
L 434.05205 152.929009 
L 441.419211 149.691276 
L 448.786372 144.452514 
L 456.153533 139.213753 
L 463.520694 135.97602 
L 470.887855 135.97602 
L 478.255015 139.213753 
L 485.622176 144.452514 
L 492.989337 149.691276 
L 500.356498 152.929009 
L 507.723659 152.929009 
L 515.09082 149.691276 
L 522.45798 144.452514 
L 529.825141 139.213753 
L 537.192302 135.97602 
L 544.559463 135.97602 
L 551.926624 139.213753 
L 559.293785 144.452514 
L 566.660945 149.691276 
L 574.028106 152.929009 
L 581.395267 152.929009 
L 588.762428 149.691276 
L 596.129589 144.452514 
L 603.49675 139.213753 
L 610.86391 135.97602 
L 618.231071 135.97602 
L 625.598232 139.213753 
L 632.965393 144.452514 
L 640.332554 149.691276 
L 647.699715 152.929009 
L 655.066876 152.929009 
L 662.434036 149.691276 
" style="fill:none;stroke:#1f77b4;stroke-linecap:square;stroke-width:1.5;"/>
   </g>
  </g>
  <g id="axes_16">
   <g id="text_8">
    <!-- 5 -->
    <g transform="translate(20.592 164.959309)scale(0.1 -0.1)">
     <defs>
      <path d="M 10.796875 72.90625 
L 49.515625 72.90625 
L 49.515625 64.59375 
L 19.828125 64.59375 
L 19.828125 46.734375 
Q 21.96875 47.46875 24.109375 47.828125 
Q 26.265625 48.1875 28.421875 48.1875 
Q 40.625 48.1875 47.75 41.5 
Q 54.890625 34.8125 54.890625 23.390625 
Q 54.890625 11.625 47.5625 5.09375 
Q 40.234375 -1.421875 26.90625 -1.421875 
Q 22.3125 -1.421875 17.546875 -0.640625 
Q 12.796875 0.140625 7.71875 1.703125 
L 7.71875 11.625 
Q 12.109375 9.234375 16.796875 8.0625 
Q 21.484375 6.890625 26.703125 6.890625 
Q 35.15625 6.890625 40.078125 11.328125 
Q 45.015625 15.765625 45.015625 23.390625 
Q 45.015625 31 40.078125 35.4375 
Q 35.15625 39.890625 26.703125 39.890625 
Q 22.75 39.890625 18.8125 39.015625 
Q 14.890625 38.140625 10.796875 36.28125 
z
" id="DejaVuSans-53"/>
     </defs>
     <use xlink:href="#DejaVuSans-53"/>
    </g>
   </g>
  </g>
  <g id="axes_17">
   <g id="line2d_11">
    <path clip-path="url(#p3f300f5420)" d="M 53.706764 162.73113 
L 61.073924 165.341604 
L 68.441085 171.643844 
L 75.808246 177.946084 
L 83.175407 180.556558 
L 90.542568 177.946084 
L 97.909729 171.643844 
L 105.27689 165.341604 
L 112.64405 162.73113 
L 120.011211 165.341604 
L 127.378372 171.643844 
L 134.745533 177.946084 
L 142.112694 180.556558 
L 149.479855 177.946084 
L 156.847015 171.643844 
L 164.214176 165.341604 
L 171.581337 162.73113 
L 178.948498 165.341604 
L 186.315659 171.643844 
L 193.68282 177.946084 
L 201.04998 180.556558 
L 208.417141 177.946084 
L 215.784302 171.643844 
L 223.151463 165.341604 
L 230.518624 162.73113 
L 237.885785 165.341604 
L 245.252945 171.643844 
L 252.620106 177.946084 
L 259.987267 180.556558 
L 267.354428 177.946084 
L 274.721589 171.643844 
L 282.08875 165.341604 
L 289.45591 162.73113 
L 296.823071 165.341604 
L 304.190232 171.643844 
L 311.557393 177.946084 
L 318.924554 180.556558 
L 326.291715 177.946084 
L 333.658876 171.643844 
L 341.026036 165.341604 
" style="fill:none;stroke:#1f77b4;stroke-linecap:square;stroke-width:1.5;"/>
   </g>
  </g>
  <g id="axes_18">
   <g id="line2d_12">
    <path clip-path="url(#p347fd8972c)" d="M 375.114764 171.643844 
L 382.481924 165.341604 
L 389.849085 162.73113 
L 397.216246 165.341604 
L 404.583407 171.643844 
L 411.950568 177.946084 
L 419.317729 180.556558 
L 426.68489 177.946084 
L 434.05205 171.643844 
L 441.419211 165.341604 
L 448.786372 162.73113 
L 456.153533 165.341604 
L 463.520694 171.643844 
L 470.887855 177.946084 
L 478.255015 180.556558 
L 485.622176 177.946084 
L 492.989337 171.643844 
L 500.356498 165.341604 
L 507.723659 162.73113 
L 515.09082 165.341604 
L 522.45798 171.643844 
L 529.825141 177.946084 
L 537.192302 180.556558 
L 544.559463 177.946084 
L 551.926624 171.643844 
L 559.293785 165.341604 
L 566.660945 162.73113 
L 574.028106 165.341604 
L 581.395267 171.643844 
L 588.762428 177.946084 
L 596.129589 180.556558 
L 603.49675 177.946084 
L 610.86391 171.643844 
L 618.231071 165.341604 
L 625.598232 162.73113 
L 632.965393 165.341604 
L 640.332554 171.643844 
L 647.699715 177.946084 
L 655.066876 180.556558 
L 662.434036 177.946084 
" style="fill:none;stroke:#1f77b4;stroke-linecap:square;stroke-width:1.5;"/>
   </g>
  </g>
  <g id="axes_19">
   <g id="text_9">
    <!-- 6 -->
    <g transform="translate(20.592 192.150639)scale(0.1 -0.1)">
     <defs>
      <path d="M 33.015625 40.375 
Q 26.375 40.375 22.484375 35.828125 
Q 18.609375 31.296875 18.609375 23.390625 
Q 18.609375 15.53125 22.484375 10.953125 
Q 26.375 6.390625 33.015625 6.390625 
Q 39.65625 6.390625 43.53125 10.953125 
Q 47.40625 15.53125 47.40625 23.390625 
Q 47.40625 31.296875 43.53125 35.828125 
Q 39.65625 40.375 33.015625 40.375 
z
M 52.59375 71.296875 
L 52.59375 62.3125 
Q 48.875 64.0625 45.09375 64.984375 
Q 41.3125 65.921875 37.59375 65.921875 
Q 27.828125 65.921875 22.671875 59.328125 
Q 17.53125 52.734375 16.796875 39.40625 
Q 19.671875 43.65625 24.015625 45.921875 
Q 28.375 48.1875 33.59375 48.1875 
Q 44.578125 48.1875 50.953125 41.515625 
Q 57.328125 34.859375 57.328125 23.390625 
Q 57.328125 12.15625 50.6875 5.359375 
Q 44.046875 -1.421875 33.015625 -1.421875 
Q 20.359375 -1.421875 13.671875 8.265625 
Q 6.984375 17.96875 6.984375 36.375 
Q 6.984375 53.65625 15.1875 63.9375 
Q 23.390625 74.21875 37.203125 74.21875 
Q 40.921875 74.21875 44.703125 73.484375 
Q 48.484375 72.75 52.59375 71.296875 
z
" id="DejaVuSans-54"/>
     </defs>
     <use xlink:href="#DejaVuSans-54"/>
    </g>
   </g>
  </g>
  <g id="axes_20">
   <g id="line2d_13">
    <path clip-path="url(#pfe71d03d28)" d="M 53.706764 189.92246 
L 61.073924 193.596412 
L 68.441085 201.589354 
L 75.808246 207.311668 
L 83.175407 206.045711 
L 90.542568 198.835174 
L 97.909729 191.624637 
L 105.27689 190.358679 
L 112.64405 196.080994 
L 120.011211 204.073935 
L 127.378372 207.747887 
L 134.745533 204.073935 
L 142.112694 196.080994 
L 149.479855 190.358679 
L 156.847015 191.624637 
L 164.214176 198.835174 
L 171.581337 206.045711 
L 178.948498 207.311668 
L 186.315659 201.589354 
L 193.68282 193.596412 
L 201.04998 189.92246 
L 208.417141 193.596412 
L 215.784302 201.589354 
L 223.151463 207.311668 
L 230.518624 206.045711 
L 237.885785 198.835174 
L 245.252945 191.624637 
L 252.620106 190.358679 
L 259.987267 196.080994 
L 267.354428 204.073935 
L 274.721589 207.747887 
L 282.08875 204.073935 
L 289.45591 196.080994 
L 296.823071 190.358679 
L 304.190232 191.624637 
L 311.557393 198.835174 
L 318.924554 206.045711 
L 326.291715 207.311668 
L 333.658876 201.589354 
L 341.026036 193.596412 
" style="fill:none;stroke:#1f77b4;stroke-linecap:square;stroke-width:1.5;"/>
   </g>
  </g>
  <g id="axes_21">
   <g id="line2d_14">
    <path clip-path="url(#pd8153d8ded)" d="M 375.114764 198.835174 
L 382.481924 191.624637 
L 389.849085 190.358679 
L 397.216246 196.080994 
L 404.583407 204.073935 
L 411.950568 207.747887 
L 419.317729 204.073935 
L 426.68489 196.080994 
L 434.05205 190.358679 
L 441.419211 191.624637 
L 448.786372 198.835174 
L 456.153533 206.045711 
L 463.520694 207.311668 
L 470.887855 201.589354 
L 478.255015 193.596412 
L 485.622176 189.92246 
L 492.989337 193.596412 
L 500.356498 201.589354 
L 507.723659 207.311668 
L 515.09082 206.045711 
L 522.45798 198.835174 
L 529.825141 191.624637 
L 537.192302 190.358679 
L 544.559463 196.080994 
L 551.926624 204.073935 
L 559.293785 207.747887 
L 566.660945 204.073935 
L 574.028106 196.080994 
L 581.395267 190.358679 
L 588.762428 191.624637 
L 596.129589 198.835174 
L 603.49675 206.045711 
L 610.86391 207.311668 
L 618.231071 201.589354 
L 625.598232 193.596412 
L 632.965393 189.92246 
L 640.332554 193.596412 
L 647.699715 201.589354 
L 655.066876 207.311668 
L 662.434036 206.045711 
" style="fill:none;stroke:#1f77b4;stroke-linecap:square;stroke-width:1.5;"/>
   </g>
  </g>
  <g id="axes_22">
   <g id="text_10">
    <!-- 7 -->
    <g transform="translate(20.592 219.341968)scale(0.1 -0.1)">
     <defs>
      <path d="M 8.203125 72.90625 
L 55.078125 72.90625 
L 55.078125 68.703125 
L 28.609375 0 
L 18.3125 0 
L 43.21875 64.59375 
L 8.203125 64.59375 
z
" id="DejaVuSans-55"/>
     </defs>
     <use xlink:href="#DejaVuSans-55"/>
    </g>
   </g>
  </g>
  <g id="axes_23">
   <g id="line2d_15">
    <path clip-path="url(#p2fdc9569f7)" d="M 53.706764 217.11379 
L 61.073924 221.980216 
L 68.441085 231.265265 
L 75.808246 234.829487 
L 83.175407 228.780683 
L 90.542568 219.724263 
L 97.909729 217.550009 
L 105.27689 224.632248 
L 112.64405 233.23704 
L 120.011211 233.967789 
L 127.378372 226.026503 
L 134.745533 218.085217 
L 142.112694 218.815967 
L 149.479855 227.420759 
L 156.847015 234.502998 
L 164.214176 232.328744 
L 171.581337 223.272324 
L 178.948498 217.22352 
L 186.315659 220.787742 
L 193.68282 230.072791 
L 201.04998 234.939217 
L 208.417141 230.072791 
L 215.784302 220.787742 
L 223.151463 217.22352 
L 230.518624 223.272324 
L 237.885785 232.328744 
L 245.252945 234.502998 
L 252.620106 227.420759 
L 259.987267 218.815967 
L 267.354428 218.085217 
L 274.721589 226.026503 
L 282.08875 233.967789 
L 289.45591 233.23704 
L 296.823071 224.632248 
L 304.190232 217.550009 
L 311.557393 219.724263 
L 318.924554 228.780683 
L 326.291715 234.829487 
L 333.658876 231.265265 
L 341.026036 221.980216 
" style="fill:none;stroke:#1f77b4;stroke-linecap:square;stroke-width:1.5;"/>
   </g>
  </g>
  <g id="axes_24">
   <g id="line2d_16">
    <path clip-path="url(#p7cc446f8c1)" d="M 375.114764 226.026503 
L 382.481924 218.085217 
L 389.849085 218.815967 
L 397.216246 227.420759 
L 404.583407 234.502998 
L 411.950568 232.328744 
L 419.317729 223.272324 
L 426.68489 217.22352 
L 434.05205 220.787742 
L 441.419211 230.072791 
L 448.786372 234.939217 
L 456.153533 230.072791 
L 463.520694 220.787742 
L 470.887855 217.22352 
L 478.255015 223.272324 
L 485.622176 232.328744 
L 492.989337 234.502998 
L 500.356498 227.420759 
L 507.723659 218.815967 
L 515.09082 218.085217 
L 522.45798 226.026503 
L 529.825141 233.967789 
L 537.192302 233.23704 
L 544.559463 224.632248 
L 551.926624 217.550009 
L 559.293785 219.724263 
L 566.660945 228.780683 
L 574.028106 234.829487 
L 581.395267 231.265265 
L 588.762428 221.980216 
L 596.129589 217.11379 
L 603.49675 221.980216 
L 610.86391 231.265265 
L 618.231071 234.829487 
L 625.598232 228.780683 
L 632.965393 219.724263 
L 640.332554 217.550009 
L 647.699715 224.632248 
L 655.066876 233.23704 
L 662.434036 233.967789 
" style="fill:none;stroke:#1f77b4;stroke-linecap:square;stroke-width:1.5;"/>
   </g>
  </g>
  <g id="axes_25">
   <g id="text_11">
    <!-- 8 -->
    <g transform="translate(20.592 246.533298)scale(0.1 -0.1)">
     <defs>
      <path d="M 31.78125 34.625 
Q 24.75 34.625 20.71875 30.859375 
Q 16.703125 27.09375 16.703125 20.515625 
Q 16.703125 13.921875 20.71875 10.15625 
Q 24.75 6.390625 31.78125 6.390625 
Q 38.8125 6.390625 42.859375 10.171875 
Q 46.921875 13.96875 46.921875 20.515625 
Q 46.921875 27.09375 42.890625 30.859375 
Q 38.875 34.625 31.78125 34.625 
z
M 21.921875 38.8125 
Q 15.578125 40.375 12.03125 44.71875 
Q 8.5 49.078125 8.5 55.328125 
Q 8.5 64.0625 14.71875 69.140625 
Q 20.953125 74.21875 31.78125 74.21875 
Q 42.671875 74.21875 48.875 69.140625 
Q 55.078125 64.0625 55.078125 55.328125 
Q 55.078125 49.078125 51.53125 44.71875 
Q 48 40.375 41.703125 38.8125 
Q 48.828125 37.15625 52.796875 32.3125 
Q 56.78125 27.484375 56.78125 20.515625 
Q 56.78125 9.90625 50.3125 4.234375 
Q 43.84375 -1.421875 31.78125 -1.421875 
Q 19.734375 -1.421875 13.25 4.234375 
Q 6.78125 9.90625 6.78125 20.515625 
Q 6.78125 27.484375 10.78125 32.3125 
Q 14.796875 37.15625 21.921875 38.8125 
z
M 18.3125 54.390625 
Q 18.3125 48.734375 21.84375 45.5625 
Q 25.390625 42.390625 31.78125 42.390625 
Q 38.140625 42.390625 41.71875 45.5625 
Q 45.3125 48.734375 45.3125 54.390625 
Q 45.3125 60.0625 41.71875 63.234375 
Q 38.140625 66.40625 31.78125 66.40625 
Q 25.390625 66.40625 21.84375 63.234375 
Q 18.3125 60.0625 18.3125 54.390625 
z
" id="DejaVuSans-56"/>
     </defs>
     <use xlink:href="#DejaVuSans-56"/>
    </g>
   </g>
  </g>
  <g id="axes_26">
   <g id="line2d_17">
    <path clip-path="url(#p5a303e9258)" d="M 53.706764 244.30512 
L 61.073924 250.463653 
L 68.441085 260.42837 
L 75.808246 260.42837 
L 83.175407 250.463653 
L 90.542568 244.30512 
L 97.909729 250.463653 
L 105.27689 260.42837 
L 112.64405 260.42837 
L 120.011211 250.463653 
L 127.378372 244.30512 
L 134.745533 250.463653 
L 142.112694 260.42837 
L 149.479855 260.42837 
L 156.847015 250.463653 
L 164.214176 244.30512 
L 171.581337 250.463653 
L 178.948498 260.42837 
L 186.315659 260.42837 
L 193.68282 250.463653 
L 201.04998 244.30512 
L 208.417141 250.463653 
L 215.784302 260.42837 
L 223.151463 260.42837 
L 230.518624 250.463653 
L 237.885785 244.30512 
L 245.252945 250.463653 
L 252.620106 260.42837 
L 259.987267 260.42837 
L 267.354428 250.463653 
L 274.721589 244.30512 
L 282.08875 250.463653 
L 289.45591 260.42837 
L 296.823071 260.42837 
L 304.190232 250.463653 
L 311.557393 244.30512 
L 318.924554 250.463653 
L 326.291715 260.42837 
L 333.658876 260.42837 
L 341.026036 250.463653 
" style="fill:none;stroke:#1f77b4;stroke-linecap:square;stroke-width:1.5;"/>
   </g>
  </g>
  <g id="axes_27">
   <g id="line2d_18">
    <path clip-path="url(#p3d79b80e83)" d="M 375.114764 253.217833 
L 382.481924 244.741339 
L 389.849085 247.979072 
L 397.216246 258.456595 
L 404.583407 261.694328 
L 411.950568 253.217833 
L 419.317729 244.741339 
L 426.68489 247.979072 
L 434.05205 258.456595 
L 441.419211 261.694328 
L 448.786372 253.217833 
L 456.153533 244.741339 
L 463.520694 247.979072 
L 470.887855 258.456595 
L 478.255015 261.694328 
L 485.622176 253.217833 
L 492.989337 244.741339 
L 500.356498 247.979072 
L 507.723659 258.456595 
L 515.09082 261.694328 
L 522.45798 253.217833 
L 529.825141 244.741339 
L 537.192302 247.979072 
L 544.559463 258.456595 
L 551.926624 261.694328 
L 559.293785 253.217833 
L 566.660945 244.741339 
L 574.028106 247.979072 
L 581.395267 258.456595 
L 588.762428 261.694328 
L 596.129589 253.217833 
L 603.49675 244.741339 
L 610.86391 247.979072 
L 618.231071 258.456595 
L 625.598232 261.694328 
L 632.965393 253.217833 
L 640.332554 244.741339 
L 647.699715 247.979072 
L 655.066876 258.456595 
L 662.434036 261.694328 
" style="fill:none;stroke:#1f77b4;stroke-linecap:square;stroke-width:1.5;"/>
   </g>
  </g>
  <g id="axes_28">
   <g id="text_12">
    <!-- 9 -->
    <g transform="translate(20.592 273.724628)scale(0.1 -0.1)">
     <defs>
      <path d="M 10.984375 1.515625 
L 10.984375 10.5 
Q 14.703125 8.734375 18.5 7.8125 
Q 22.3125 6.890625 25.984375 6.890625 
Q 35.75 6.890625 40.890625 13.453125 
Q 46.046875 20.015625 46.78125 33.40625 
Q 43.953125 29.203125 39.59375 26.953125 
Q 35.25 24.703125 29.984375 24.703125 
Q 19.046875 24.703125 12.671875 31.3125 
Q 6.296875 37.9375 6.296875 49.421875 
Q 6.296875 60.640625 12.9375 67.421875 
Q 19.578125 74.21875 30.609375 74.21875 
Q 43.265625 74.21875 49.921875 64.515625 
Q 56.59375 54.828125 56.59375 36.375 
Q 56.59375 19.140625 48.40625 8.859375 
Q 40.234375 -1.421875 26.421875 -1.421875 
Q 22.703125 -1.421875 18.890625 -0.6875 
Q 15.09375 0.046875 10.984375 1.515625 
z
M 30.609375 32.421875 
Q 37.25 32.421875 41.125 36.953125 
Q 45.015625 41.5 45.015625 49.421875 
Q 45.015625 57.28125 41.125 61.84375 
Q 37.25 66.40625 30.609375 66.40625 
Q 23.96875 66.40625 20.09375 61.84375 
Q 16.21875 57.28125 16.21875 49.421875 
Q 16.21875 41.5 20.09375 36.953125 
Q 23.96875 32.421875 30.609375 32.421875 
z
" id="DejaVuSans-57"/>
     </defs>
     <use xlink:href="#DejaVuSans-57"/>
    </g>
   </g>
  </g>
  <g id="axes_29">
   <g id="line2d_19">
    <path clip-path="url(#pc21d5d0f24)" d="M 53.706764 271.496449 
L 61.073924 279.014907 
L 68.441085 288.885657 
L 75.808246 284.45545 
L 83.175407 273.198626 
L 90.542568 274.106923 
L 97.909729 285.647925 
L 105.27689 288.350449 
L 112.64405 277.654983 
L 120.011211 271.60618 
L 127.378372 280.409163 
L 134.745533 289.212146 
L 142.112694 283.163343 
L 149.479855 272.467877 
L 156.847015 275.170401 
L 164.214176 286.711403 
L 171.581337 287.6197 
L 178.948498 276.362876 
L 186.315659 271.932669 
L 193.68282 281.803419 
L 201.04998 289.321877 
L 208.417141 281.803419 
L 215.784302 271.932669 
L 223.151463 276.362876 
L 230.518624 287.6197 
L 237.885785 286.711403 
L 245.252945 275.170401 
L 252.620106 272.467877 
L 259.987267 283.163343 
L 267.354428 289.212146 
L 274.721589 280.409163 
L 282.08875 271.60618 
L 289.45591 277.654983 
L 296.823071 288.350449 
L 304.190232 285.647925 
L 311.557393 274.106923 
L 318.924554 273.198626 
L 326.291715 284.45545 
L 333.658876 288.885657 
L 341.026036 279.014907 
" style="fill:none;stroke:#1f77b4;stroke-linecap:square;stroke-width:1.5;"/>
   </g>
  </g>
  <g id="axes_30">
   <g id="line2d_20">
    <path clip-path="url(#p93b765cead)" d="M 375.114764 280.409163 
L 382.481924 271.60618 
L 389.849085 277.654983 
L 397.216246 288.350449 
L 404.583407 285.647925 
L 411.950568 274.106923 
L 419.317729 273.198626 
L 426.68489 284.45545 
L 434.05205 288.885657 
L 441.419211 279.014907 
L 448.786372 271.496449 
L 456.153533 279.014907 
L 463.520694 288.885657 
L 470.887855 284.45545 
L 478.255015 273.198626 
L 485.622176 274.106923 
L 492.989337 285.647925 
L 500.356498 288.350449 
L 507.723659 277.654983 
L 515.09082 271.60618 
L 522.45798 280.409163 
L 529.825141 289.212146 
L 537.192302 283.163343 
L 544.559463 272.467877 
L 551.926624 275.170401 
L 559.293785 286.711403 
L 566.660945 287.6197 
L 574.028106 276.362876 
L 581.395267 271.932669 
L 588.762428 281.803419 
L 596.129589 289.321877 
L 603.49675 281.803419 
L 610.86391 271.932669 
L 618.231071 276.362876 
L 625.598232 287.6197 
L 632.965393 286.711403 
L 640.332554 275.170401 
L 647.699715 272.467877 
L 655.066876 283.163343 
L 662.434036 289.212146 
" style="fill:none;stroke:#1f77b4;stroke-linecap:square;stroke-width:1.5;"/>
   </g>
  </g>
  <g id="axes_31">
   <g id="text_13">
    <!-- 10 -->
    <g transform="translate(20.592 300.915957)scale(0.1 -0.1)">
     <use xlink:href="#DejaVuSans-49"/>
     <use x="63.623047" xlink:href="#DejaVuSans-48"/>
    </g>
   </g>
  </g>
  <g id="axes_32">
   <g id="line2d_21">
    <path clip-path="url(#p048dd24092)" d="M 53.706764 298.687779 
L 61.073924 307.600493 
L 68.441085 316.513206 
L 75.808246 307.600493 
L 83.175407 298.687779 
L 90.542568 307.600493 
L 97.909729 316.513206 
L 105.27689 307.600493 
L 112.64405 298.687779 
L 120.011211 307.600493 
L 127.378372 316.513206 
L 134.745533 307.600493 
L 142.112694 298.687779 
L 149.479855 307.600493 
L 156.847015 316.513206 
L 164.214176 307.600493 
L 171.581337 298.687779 
L 178.948498 307.600493 
L 186.315659 316.513206 
L 193.68282 307.600493 
L 201.04998 298.687779 
L 208.417141 307.600493 
L 215.784302 316.513206 
L 223.151463 307.600493 
L 230.518624 298.687779 
L 237.885785 307.600493 
L 245.252945 316.513206 
L 252.620106 307.600493 
L 259.987267 298.687779 
L 267.354428 307.600493 
L 274.721589 316.513206 
L 282.08875 307.600493 
L 289.45591 298.687779 
L 296.823071 307.600493 
L 304.190232 316.513206 
L 311.557393 307.600493 
L 318.924554 298.687779 
L 326.291715 307.600493 
L 333.658876 316.513206 
L 341.026036 307.600493 
" style="fill:none;stroke:#1f77b4;stroke-linecap:square;stroke-width:1.5;"/>
   </g>
  </g>
  <g id="axes_33">
   <g id="line2d_22">
    <path clip-path="url(#pfcdaad318a)" d="M 375.114764 307.600493 
L 382.481924 298.687779 
L 389.849085 307.600493 
L 397.216246 316.513206 
L 404.583407 307.600493 
L 411.950568 298.687779 
L 419.317729 307.600493 
L 426.68489 316.513206 
L 434.05205 307.600493 
L 441.419211 298.687779 
L 448.786372 307.600493 
L 456.153533 316.513206 
L 463.520694 307.600493 
L 470.887855 298.687779 
L 478.255015 307.600493 
L 485.622176 316.513206 
L 492.989337 307.600493 
L 500.356498 298.687779 
L 507.723659 307.600493 
L 515.09082 316.513206 
L 522.45798 307.600493 
L 529.825141 298.687779 
L 537.192302 307.600493 
L 544.559463 316.513206 
L 551.926624 307.600493 
L 559.293785 298.687779 
L 566.660945 307.600493 
L 574.028106 316.513206 
L 581.395267 307.600493 
L 588.762428 298.687779 
L 596.129589 307.600493 
L 603.49675 316.513206 
L 610.86391 307.600493 
L 618.231071 298.687779 
L 625.598232 307.600493 
L 632.965393 316.513206 
L 640.332554 307.600493 
L 647.699715 298.687779 
L 655.066876 307.600493 
L 662.434036 316.513206 
" style="fill:none;stroke:#1f77b4;stroke-linecap:square;stroke-width:1.5;"/>
   </g>
  </g>
  <g id="axes_34">
   <g id="text_14">
    <!-- 11 -->
    <g transform="translate(20.592 328.107287)scale(0.1 -0.1)">
     <use xlink:href="#DejaVuSans-49"/>
     <use x="63.623047" xlink:href="#DejaVuSans-49"/>
    </g>
   </g>
  </g>
  <g id="axes_35">
   <g id="line2d_23">
    <path clip-path="url(#pcd9c5cbc4c)" d="M 53.706764 325.879109 
L 61.073924 336.186078 
L 68.441085 343.268317 
L 75.808246 330.745535 
L 83.175407 327.581286 
L 90.542568 341.094063 
L 97.909729 340.030584 
L 105.27689 326.850536 
L 112.64405 332.037642 
L 120.011211 343.594806 
L 127.378372 334.791822 
L 134.745533 325.988839 
L 142.112694 337.546002 
L 149.479855 342.733108 
L 156.847015 329.553061 
L 164.214176 328.489582 
L 171.581337 342.002359 
L 178.948498 338.83811 
L 186.315659 326.315328 
L 193.68282 333.397567 
L 201.04998 343.704536 
L 208.417141 333.397567 
L 215.784302 326.315328 
L 223.151463 338.83811 
L 230.518624 342.002359 
L 237.885785 328.489582 
L 245.252945 329.553061 
L 252.620106 342.733108 
L 259.987267 337.546002 
L 267.354428 325.988839 
L 274.721589 334.791822 
L 282.08875 343.594806 
L 289.45591 332.037642 
L 296.823071 326.850536 
L 304.190232 340.030584 
L 311.557393 341.094063 
L 318.924554 327.581286 
L 326.291715 330.745535 
L 333.658876 343.268317 
L 341.026036 336.186078 
" style="fill:none;stroke:#1f77b4;stroke-linecap:square;stroke-width:1.5;"/>
   </g>
  </g>
  <g id="axes_36">
   <g id="line2d_24">
    <path clip-path="url(#pc103e22bad)" d="M 375.114764 334.791822 
L 382.481924 325.988839 
L 389.849085 337.546002 
L 397.216246 342.733108 
L 404.583407 329.553061 
L 411.950568 328.489582 
L 419.317729 342.002359 
L 426.68489 338.83811 
L 434.05205 326.315328 
L 441.419211 333.397567 
L 448.786372 343.704536 
L 456.153533 333.397567 
L 463.520694 326.315328 
L 470.887855 338.83811 
L 478.255015 342.002359 
L 485.622176 328.489582 
L 492.989337 329.553061 
L 500.356498 342.733108 
L 507.723659 337.546002 
L 515.09082 325.988839 
L 522.45798 334.791822 
L 529.825141 343.594806 
L 537.192302 332.037642 
L 544.559463 326.850536 
L 551.926624 340.030584 
L 559.293785 341.094063 
L 566.660945 327.581286 
L 574.028106 330.745535 
L 581.395267 343.268317 
L 588.762428 336.186078 
L 596.129589 325.879109 
L 603.49675 336.186078 
L 610.86391 343.268317 
L 618.231071 330.745535 
L 625.598232 327.581286 
L 632.965393 341.094063 
L 640.332554 340.030584 
L 647.699715 326.850536 
L 655.066876 332.037642 
L 662.434036 343.594806 
" style="fill:none;stroke:#1f77b4;stroke-linecap:square;stroke-width:1.5;"/>
   </g>
  </g>
  <g id="axes_37">
   <g id="text_15">
    <!-- 12 -->
    <g transform="translate(20.592 355.298617)scale(0.1 -0.1)">
     <use xlink:href="#DejaVuSans-49"/>
     <use x="63.623047" xlink:href="#DejaVuSans-50"/>
    </g>
   </g>
  </g>
  <g id="axes_38">
   <g id="line2d_25">
    <path clip-path="url(#pa176bf6b64)" d="M 53.706764 353.070438 
L 61.073924 364.737332 
L 68.441085 369.193689 
L 75.808246 354.772615 
L 83.175407 359.228972 
L 90.542568 370.895866 
L 97.909729 359.228972 
L 105.27689 354.772615 
L 112.64405 369.193689 
L 120.011211 364.737332 
L 127.378372 353.070438 
L 134.745533 364.737332 
L 142.112694 369.193689 
L 149.479855 354.772615 
L 156.847015 359.228972 
L 164.214176 370.895866 
L 171.581337 359.228972 
L 178.948498 354.772615 
L 186.315659 369.193689 
L 193.68282 364.737332 
L 201.04998 353.070438 
L 208.417141 364.737332 
L 215.784302 369.193689 
L 223.151463 354.772615 
L 230.518624 359.228972 
L 237.885785 370.895866 
L 245.252945 359.228972 
L 252.620106 354.772615 
L 259.987267 369.193689 
L 267.354428 364.737332 
L 274.721589 353.070438 
L 282.08875 364.737332 
L 289.45591 369.193689 
L 296.823071 354.772615 
L 304.190232 359.228972 
L 311.557393 370.895866 
L 318.924554 359.228972 
L 326.291715 354.772615 
L 333.658876 369.193689 
L 341.026036 364.737332 
" style="fill:none;stroke:#1f77b4;stroke-linecap:square;stroke-width:1.5;"/>
   </g>
  </g>
  <g id="axes_39">
   <g id="line2d_26">
    <path clip-path="url(#pa1110000cb)" d="M 375.114764 361.983152 
L 382.481924 353.506658 
L 389.849085 367.221914 
L 397.216246 367.221914 
L 404.583407 353.506658 
L 411.950568 361.983152 
L 419.317729 370.459646 
L 426.68489 356.74439 
L 434.05205 356.74439 
L 441.419211 370.459646 
L 448.786372 361.983152 
L 456.153533 353.506658 
L 463.520694 367.221914 
L 470.887855 367.221914 
L 478.255015 353.506658 
L 485.622176 361.983152 
L 492.989337 370.459646 
L 500.356498 356.74439 
L 507.723659 356.74439 
L 515.09082 370.459646 
L 522.45798 361.983152 
L 529.825141 353.506658 
L 537.192302 367.221914 
L 544.559463 367.221914 
L 551.926624 353.506658 
L 559.293785 361.983152 
L 566.660945 370.459646 
L 574.028106 356.74439 
L 581.395267 356.74439 
L 588.762428 370.459646 
L 596.129589 361.983152 
L 603.49675 353.506658 
L 610.86391 367.221914 
L 618.231071 367.221914 
L 625.598232 353.506658 
L 632.965393 361.983152 
L 640.332554 370.459646 
L 647.699715 356.74439 
L 655.066876 356.74439 
L 662.434036 370.459646 
" style="fill:none;stroke:#1f77b4;stroke-linecap:square;stroke-width:1.5;"/>
   </g>
  </g>
  <g id="axes_40">
   <g id="text_16">
    <!-- 13 -->
    <g transform="translate(20.592 382.489947)scale(0.1 -0.1)">
     <use xlink:href="#DejaVuSans-49"/>
     <use x="63.623047" xlink:href="#DejaVuSans-51"/>
    </g>
   </g>
  </g>
  <g id="axes_41">
   <g id="line2d_27">
    <path clip-path="url(#p82b33ede4a)" d="M 53.706764 380.261768 
L 61.073924 393.220769 
L 68.441085 394.413243 
L 75.808246 380.371498 
L 83.175407 391.928662 
L 90.542568 395.476722 
L 97.909729 380.697987 
L 105.27689 390.568737 
L 112.64405 396.385019 
L 120.011211 381.233196 
L 127.378372 389.174482 
L 134.745533 397.115768 
L 142.112694 381.963945 
L 149.479855 387.780226 
L 156.847015 397.650976 
L 164.214176 382.872242 
L 171.581337 386.420302 
L 178.948498 397.977465 
L 186.315659 383.93572 
L 193.68282 385.128195 
L 201.04998 398.087195 
L 208.417141 385.128195 
L 215.784302 383.93572 
L 223.151463 397.977465 
L 230.518624 386.420302 
L 237.885785 382.872242 
L 245.252945 397.650976 
L 252.620106 387.780226 
L 259.987267 381.963945 
L 267.354428 397.115768 
L 274.721589 389.174482 
L 282.08875 381.233196 
L 289.45591 396.385019 
L 296.823071 390.568737 
L 304.190232 380.697987 
L 311.557393 395.476722 
L 318.924554 391.928662 
L 326.291715 380.371498 
L 333.658876 394.413243 
L 341.026036 393.220769 
" style="fill:none;stroke:#1f77b4;stroke-linecap:square;stroke-width:1.5;"/>
   </g>
  </g>
  <g id="axes_42">
   <g id="line2d_28">
    <path clip-path="url(#p5138e0b860)" d="M 375.114764 389.174482 
L 382.481924 381.233196 
L 389.849085 396.385019 
L 397.216246 390.568737 
L 404.583407 380.697987 
L 411.950568 395.476722 
L 419.317729 391.928662 
L 426.68489 380.371498 
L 434.05205 394.413243 
L 441.419211 393.220769 
L 448.786372 380.261768 
L 456.153533 393.220769 
L 463.520694 394.413243 
L 470.887855 380.371498 
L 478.255015 391.928662 
L 485.622176 395.476722 
L 492.989337 380.697987 
L 500.356498 390.568737 
L 507.723659 396.385019 
L 515.09082 381.233196 
L 522.45798 389.174482 
L 529.825141 397.115768 
L 537.192302 381.963945 
L 544.559463 387.780226 
L 551.926624 397.650976 
L 559.293785 382.872242 
L 566.660945 386.420302 
L 574.028106 397.977465 
L 581.395267 383.93572 
L 588.762428 385.128195 
L 596.129589 398.087195 
L 603.49675 385.128195 
L 610.86391 383.93572 
L 618.231071 397.977465 
L 625.598232 386.420302 
L 632.965393 382.872242 
L 640.332554 397.650976 
L 647.699715 387.780226 
L 655.066876 381.963945 
L 662.434036 397.115768 
" style="fill:none;stroke:#1f77b4;stroke-linecap:square;stroke-width:1.5;"/>
   </g>
  </g>
  <g id="axes_43">
   <g id="text_17">
    <!-- 14 -->
    <g transform="translate(20.592 409.681276)scale(0.1 -0.1)">
     <use xlink:href="#DejaVuSans-49"/>
     <use x="63.623047" xlink:href="#DejaVuSans-52"/>
    </g>
   </g>
  </g>
  <g id="axes_44">
   <g id="line2d_29">
    <path clip-path="url(#p1d3c60e744)" d="M 53.706764 407.453098 
L 61.073924 421.604573 
L 68.441085 419.119992 
L 75.808246 407.889317 
L 83.175407 423.576348 
L 90.542568 416.365812 
L 97.909729 409.155275 
L 105.27689 424.842306 
L 112.64405 413.611632 
L 120.011211 411.12705 
L 127.378372 425.278525 
L 134.745533 411.12705 
L 142.112694 413.611632 
L 149.479855 424.842306 
L 156.847015 409.155275 
L 164.214176 416.365812 
L 171.581337 423.576348 
L 178.948498 407.889317 
L 186.315659 419.119992 
L 193.68282 421.604573 
L 201.04998 407.453098 
L 208.417141 421.604573 
L 215.784302 419.119992 
L 223.151463 407.889317 
L 230.518624 423.576348 
L 237.885785 416.365812 
L 245.252945 409.155275 
L 252.620106 424.842306 
L 259.987267 413.611632 
L 267.354428 411.12705 
L 274.721589 425.278525 
L 282.08875 411.12705 
L 289.45591 413.611632 
L 296.823071 424.842306 
L 304.190232 409.155275 
L 311.557393 416.365812 
L 318.924554 423.576348 
L 326.291715 407.889317 
L 333.658876 419.119992 
L 341.026036 421.604573 
" style="fill:none;stroke:#1f77b4;stroke-linecap:square;stroke-width:1.5;"/>
   </g>
  </g>
  <g id="axes_45">
   <g id="line2d_30">
    <path clip-path="url(#p513a26f749)" d="M 375.114764 416.365812 
L 382.481924 409.155275 
L 389.849085 424.842306 
L 397.216246 413.611632 
L 404.583407 411.12705 
L 411.950568 425.278525 
L 419.317729 411.12705 
L 426.68489 413.611632 
L 434.05205 424.842306 
L 441.419211 409.155275 
L 448.786372 416.365812 
L 456.153533 423.576348 
L 463.520694 407.889317 
L 470.887855 419.119992 
L 478.255015 421.604573 
L 485.622176 407.453098 
L 492.989337 421.604573 
L 500.356498 419.119992 
L 507.723659 407.889317 
L 515.09082 423.576348 
L 522.45798 416.365812 
L 529.825141 409.155275 
L 537.192302 424.842306 
L 544.559463 413.611632 
L 551.926624 411.12705 
L 559.293785 425.278525 
L 566.660945 411.12705 
L 574.028106 413.611632 
L 581.395267 424.842306 
L 588.762428 409.155275 
L 596.129589 416.365812 
L 603.49675 423.576348 
L 610.86391 407.889317 
L 618.231071 419.119992 
L 625.598232 421.604573 
L 632.965393 407.453098 
L 640.332554 421.604573 
L 647.699715 419.119992 
L 655.066876 407.889317 
L 662.434036 423.576348 
" style="fill:none;stroke:#1f77b4;stroke-linecap:square;stroke-width:1.5;"/>
   </g>
  </g>
  <g id="axes_46">
   <g id="text_18">
    <!-- 15 -->
    <g transform="translate(20.592 436.872606)scale(0.1 -0.1)">
     <use xlink:href="#DejaVuSans-49"/>
     <use x="63.623047" xlink:href="#DejaVuSans-53"/>
    </g>
   </g>
  </g>
  <g id="axes_47">
   <g id="line2d_31">
    <path clip-path="url(#p47b89d646a)" d="M 53.706764 434.644428 
L 61.073924 449.859382 
L 68.441085 443.557141 
L 75.808246 437.254901 
L 83.175407 452.469855 
L 90.542568 437.254901 
L 97.909729 443.557141 
L 105.27689 449.859382 
L 112.64405 434.644428 
L 120.011211 449.859382 
L 127.378372 443.557141 
L 134.745533 437.254901 
L 142.112694 452.469855 
L 149.479855 437.254901 
L 156.847015 443.557141 
L 164.214176 449.859382 
L 171.581337 434.644428 
L 178.948498 449.859382 
L 186.315659 443.557141 
L 193.68282 437.254901 
L 201.04998 452.469855 
L 208.417141 437.254901 
L 215.784302 443.557141 
L 223.151463 449.859382 
L 230.518624 434.644428 
L 237.885785 449.859382 
L 245.252945 443.557141 
L 252.620106 437.254901 
L 259.987267 452.469855 
L 267.354428 437.254901 
L 274.721589 443.557141 
L 282.08875 449.859382 
L 289.45591 434.644428 
L 296.823071 449.859382 
L 304.190232 443.557141 
L 311.557393 437.254901 
L 318.924554 452.469855 
L 326.291715 437.254901 
L 333.658876 443.557141 
L 341.026036 449.859382 
" style="fill:none;stroke:#1f77b4;stroke-linecap:square;stroke-width:1.5;"/>
   </g>
  </g>
  <g id="axes_48">
   <g id="line2d_32">
    <path clip-path="url(#p9fd6090074)" d="M 375.114764 443.557141 
L 382.481924 437.254901 
L 389.849085 452.469855 
L 397.216246 437.254901 
L 404.583407 443.557141 
L 411.950568 449.859382 
L 419.317729 434.644428 
L 426.68489 449.859382 
L 434.05205 443.557141 
L 441.419211 437.254901 
L 448.786372 452.469855 
L 456.153533 437.254901 
L 463.520694 443.557141 
L 470.887855 449.859382 
L 478.255015 434.644428 
L 485.622176 449.859382 
L 492.989337 443.557141 
L 500.356498 437.254901 
L 507.723659 452.469855 
L 515.09082 437.254901 
L 522.45798 443.557141 
L 529.825141 449.859382 
L 537.192302 434.644428 
L 544.559463 449.859382 
L 551.926624 443.557141 
L 559.293785 437.254901 
L 566.660945 452.469855 
L 574.028106 437.254901 
L 581.395267 443.557141 
L 588.762428 449.859382 
L 596.129589 434.644428 
L 603.49675 449.859382 
L 610.86391 443.557141 
L 618.231071 437.254901 
L 625.598232 452.469855 
L 632.965393 437.254901 
L 640.332554 443.557141 
L 647.699715 449.859382 
L 655.066876 434.644428 
L 662.434036 449.859382 
" style="fill:none;stroke:#1f77b4;stroke-linecap:square;stroke-width:1.5;"/>
   </g>
  </g>
  <g id="axes_49">
   <g id="text_19">
    <!-- 16 -->
    <g transform="translate(20.592 464.063936)scale(0.1 -0.1)">
     <use xlink:href="#DejaVuSans-49"/>
     <use x="63.623047" xlink:href="#DejaVuSans-54"/>
    </g>
   </g>
  </g>
  <g id="axes_50">
   <g id="line2d_33">
    <path clip-path="url(#p30d5a0b149)" d="M 53.706764 461.835757 
L 61.073924 477.959008 
L 68.441085 467.994291 
L 75.808246 467.994291 
L 83.175407 477.959008 
L 90.542568 461.835757 
L 97.909729 477.959008 
L 105.27689 467.994291 
L 112.64405 467.994291 
L 120.011211 477.959008 
L 127.378372 461.835757 
L 134.745533 477.959008 
L 142.112694 467.994291 
L 149.479855 467.994291 
L 156.847015 477.959008 
L 164.214176 461.835757 
L 171.581337 477.959008 
L 178.948498 467.994291 
L 186.315659 467.994291 
L 193.68282 477.959008 
L 201.04998 461.835757 
L 208.417141 477.959008 
L 215.784302 467.994291 
L 223.151463 467.994291 
L 230.518624 477.959008 
L 237.885785 461.835757 
L 245.252945 477.959008 
L 252.620106 467.994291 
L 259.987267 467.994291 
L 267.354428 477.959008 
L 274.721589 461.835757 
L 282.08875 477.959008 
L 289.45591 467.994291 
L 296.823071 467.994291 
L 304.190232 477.959008 
L 311.557393 461.835757 
L 318.924554 477.959008 
L 326.291715 467.994291 
L 333.658876 467.994291 
L 341.026036 477.959008 
" style="fill:none;stroke:#1f77b4;stroke-linecap:square;stroke-width:1.5;"/>
   </g>
  </g>
  <g id="axes_51">
   <g id="line2d_34">
    <path clip-path="url(#p9b4f311044)" d="M 375.114764 470.748471 
L 382.481924 465.509709 
L 389.849085 479.224965 
L 397.216246 462.271977 
L 404.583407 475.987233 
L 411.950568 470.748471 
L 419.317729 465.509709 
L 426.68489 479.224965 
L 434.05205 462.271977 
L 441.419211 475.987233 
L 448.786372 470.748471 
L 456.153533 465.509709 
L 463.520694 479.224965 
L 470.887855 462.271977 
L 478.255015 475.987233 
L 485.622176 470.748471 
L 492.989337 465.509709 
L 500.356498 479.224965 
L 507.723659 462.271977 
L 515.09082 475.987233 
L 522.45798 470.748471 
L 529.825141 465.509709 
L 537.192302 479.224965 
L 544.559463 462.271977 
L 551.926624 475.987233 
L 559.293785 470.748471 
L 566.660945 465.509709 
L 574.028106 479.224965 
L 581.395267 462.271977 
L 588.762428 475.987233 
L 596.129589 470.748471 
L 603.49675 465.509709 
L 610.86391 479.224965 
L 618.231071 462.271977 
L 625.598232 475.987233 
L 632.965393 470.748471 
L 640.332554 465.509709 
L 647.699715 479.224965 
L 655.066876 462.271977 
L 662.434036 475.987233 
" style="fill:none;stroke:#1f77b4;stroke-linecap:square;stroke-width:1.5;"/>
   </g>
  </g>
  <g id="axes_52">
   <g id="text_20">
    <!-- 17 -->
    <g transform="translate(20.592 491.255265)scale(0.1 -0.1)">
     <use xlink:href="#DejaVuSans-49"/>
     <use x="63.623047" xlink:href="#DejaVuSans-55"/>
    </g>
   </g>
  </g>
  <g id="axes_53">
   <g id="line2d_35">
    <path clip-path="url(#p65e3953b8e)" d="M 53.706764 489.027087 
L 61.073924 505.881087 
L 68.441085 492.701039 
L 75.808246 499.334056 
L 83.175407 500.693981 
L 90.542568 491.63756 
L 97.909729 506.416295 
L 105.27689 489.136817 
L 112.64405 505.150337 
L 120.011211 493.893513 
L 127.378372 497.939801 
L 134.745533 501.986088 
L 142.112694 490.729264 
L 149.479855 506.742784 
L 156.847015 489.463306 
L 164.214176 504.242041 
L 171.581337 495.185621 
L 178.948498 496.545545 
L 186.315659 503.178562 
L 193.68282 489.998515 
L 201.04998 506.852514 
L 208.417141 489.998515 
L 215.784302 503.178562 
L 223.151463 496.545545 
L 230.518624 495.185621 
L 237.885785 504.242041 
L 245.252945 489.463306 
L 252.620106 506.742784 
L 259.987267 490.729264 
L 267.354428 501.986088 
L 274.721589 497.939801 
L 282.08875 493.893513 
L 289.45591 505.150337 
L 296.823071 489.136817 
L 304.190232 506.416295 
L 311.557393 491.63756 
L 318.924554 500.693981 
L 326.291715 499.334056 
L 333.658876 492.701039 
L 341.026036 505.881087 
" style="fill:none;stroke:#1f77b4;stroke-linecap:square;stroke-width:1.5;"/>
   </g>
  </g>
  <g id="axes_54">
   <g id="line2d_36">
    <path clip-path="url(#p32c12a21e2)" d="M 375.114764 497.939801 
L 382.481924 493.893513 
L 389.849085 505.150337 
L 397.216246 489.136817 
L 404.583407 506.416295 
L 411.950568 491.63756 
L 419.317729 500.693981 
L 426.68489 499.334056 
L 434.05205 492.701039 
L 441.419211 505.881087 
L 448.786372 489.027087 
L 456.153533 505.881087 
L 463.520694 492.701039 
L 470.887855 499.334056 
L 478.255015 500.693981 
L 485.622176 491.63756 
L 492.989337 506.416295 
L 500.356498 489.136817 
L 507.723659 505.150337 
L 515.09082 493.893513 
L 522.45798 497.939801 
L 529.825141 501.986088 
L 537.192302 490.729264 
L 544.559463 506.742784 
L 551.926624 489.463306 
L 559.293785 504.242041 
L 566.660945 495.185621 
L 574.028106 496.545545 
L 581.395267 503.178562 
L 588.762428 489.998515 
L 596.129589 506.852514 
L 603.49675 489.998515 
L 610.86391 503.178562 
L 618.231071 496.545545 
L 625.598232 495.185621 
L 632.965393 504.242041 
L 640.332554 489.463306 
L 647.699715 506.742784 
L 655.066876 490.729264 
L 662.434036 501.986088 
" style="fill:none;stroke:#1f77b4;stroke-linecap:square;stroke-width:1.5;"/>
   </g>
  </g>
  <g id="axes_55">
   <g id="text_21">
    <!-- 18 -->
    <g transform="translate(20.592 518.446595)scale(0.1 -0.1)">
     <use xlink:href="#DejaVuSans-49"/>
     <use x="63.623047" xlink:href="#DejaVuSans-56"/>
    </g>
   </g>
  </g>
  <g id="axes_56">
   <g id="line2d_37">
    <path clip-path="url(#p5bccf3b73a)" d="M 53.706764 516.218417 
L 61.073924 533.607625 
L 68.441085 517.920594 
L 75.808246 530.369892 
L 83.175407 522.37695 
L 90.542568 525.13113 
L 97.909729 527.88531 
L 105.27689 519.892369 
L 112.64405 532.341667 
L 120.011211 516.654636 
L 127.378372 534.043844 
L 134.745533 516.654636 
L 142.112694 532.341667 
L 149.479855 519.892369 
L 156.847015 527.88531 
L 164.214176 525.13113 
L 171.581337 522.37695 
L 178.948498 530.369892 
L 186.315659 517.920594 
L 193.68282 533.607625 
L 201.04998 516.218417 
L 208.417141 533.607625 
L 215.784302 517.920594 
L 223.151463 530.369892 
L 230.518624 522.37695 
L 237.885785 525.13113 
L 245.252945 527.88531 
L 252.620106 519.892369 
L 259.987267 532.341667 
L 267.354428 516.654636 
L 274.721589 534.043844 
L 282.08875 516.654636 
L 289.45591 532.341667 
L 296.823071 519.892369 
L 304.190232 527.88531 
L 311.557393 525.13113 
L 318.924554 522.37695 
L 326.291715 530.369892 
L 333.658876 517.920594 
L 341.026036 533.607625 
" style="fill:none;stroke:#1f77b4;stroke-linecap:square;stroke-width:1.5;"/>
   </g>
  </g>
  <g id="axes_57">
   <g id="line2d_38">
    <path clip-path="url(#p6f30cbdfe8)" d="M 375.114764 525.13113 
L 382.481924 522.37695 
L 389.849085 530.369892 
L 397.216246 517.920594 
L 404.583407 533.607625 
L 411.950568 516.218417 
L 419.317729 533.607625 
L 426.68489 517.920594 
L 434.05205 530.369892 
L 441.419211 522.37695 
L 448.786372 525.13113 
L 456.153533 527.88531 
L 463.520694 519.892369 
L 470.887855 532.341667 
L 478.255015 516.654636 
L 485.622176 534.043844 
L 492.989337 516.654636 
L 500.356498 532.341667 
L 507.723659 519.892369 
L 515.09082 527.88531 
L 522.45798 525.13113 
L 529.825141 522.37695 
L 537.192302 530.369892 
L 544.559463 517.920594 
L 551.926624 533.607625 
L 559.293785 516.218417 
L 566.660945 533.607625 
L 574.028106 517.920594 
L 581.395267 530.369892 
L 588.762428 522.37695 
L 596.129589 525.13113 
L 603.49675 527.88531 
L 610.86391 519.892369 
L 618.231071 532.341667 
L 625.598232 516.654636 
L 632.965393 534.043844 
L 640.332554 516.654636 
L 647.699715 532.341667 
L 655.066876 519.892369 
L 662.434036 527.88531 
" style="fill:none;stroke:#1f77b4;stroke-linecap:square;stroke-width:1.5;"/>
   </g>
  </g>
  <g id="axes_58">
   <g id="text_22">
    <!-- 19 -->
    <g transform="translate(20.592 545.637925)scale(0.1 -0.1)">
     <use xlink:href="#DejaVuSans-49"/>
     <use x="63.623047" xlink:href="#DejaVuSans-57"/>
    </g>
   </g>
  </g>
  <g id="axes_59">
   <g id="line2d_39">
    <path clip-path="url(#p09af1f9b00)" d="M 53.706764 543.409747 
L 61.073924 561.125443 
L 68.441085 543.845966 
L 75.808246 560.263746 
L 83.175407 545.111923 
L 90.542568 558.6247 
L 97.909729 547.083699 
L 105.27689 556.368747 
L 112.64405 549.56828 
L 120.011211 553.716716 
L 127.378372 552.32246 
L 134.745533 550.928205 
L 142.112694 555.07664 
L 149.479855 548.276173 
L 156.847015 557.561222 
L 164.214176 546.02022 
L 171.581337 559.532997 
L 178.948498 544.381174 
L 186.315659 560.798955 
L 193.68282 543.519477 
L 201.04998 561.235174 
L 208.417141 543.519477 
L 215.784302 560.798955 
L 223.151463 544.381174 
L 230.518624 559.532997 
L 237.885785 546.02022 
L 245.252945 557.561222 
L 252.620106 548.276173 
L 259.987267 555.07664 
L 267.354428 550.928205 
L 274.721589 552.32246 
L 282.08875 553.716716 
L 289.45591 549.56828 
L 296.823071 556.368747 
L 304.190232 547.083699 
L 311.557393 558.6247 
L 318.924554 545.111923 
L 326.291715 560.263746 
L 333.658876 543.845966 
L 341.026036 561.125443 
" style="fill:none;stroke:#1f77b4;stroke-linecap:square;stroke-width:1.5;"/>
   </g>
  </g>
  <g id="axes_60">
   <g id="line2d_40">
    <path clip-path="url(#p3e79820fca)" d="M 375.114764 552.32246 
L 382.481924 550.928205 
L 389.849085 555.07664 
L 397.216246 548.276173 
L 404.583407 557.561222 
L 411.950568 546.02022 
L 419.317729 559.532997 
L 426.68489 544.381174 
L 434.05205 560.798955 
L 441.419211 543.519477 
L 448.786372 561.235174 
L 456.153533 543.519477 
L 463.520694 560.798955 
L 470.887855 544.381174 
L 478.255015 559.532997 
L 485.622176 546.02022 
L 492.989337 557.561222 
L 500.356498 548.276173 
L 507.723659 555.07664 
L 515.09082 550.928205 
L 522.45798 552.32246 
L 529.825141 553.716716 
L 537.192302 549.56828 
L 544.559463 556.368747 
L 551.926624 547.083699 
L 559.293785 558.6247 
L 566.660945 545.111923 
L 574.028106 560.263746 
L 581.395267 543.845966 
L 588.762428 561.125443 
L 596.129589 543.409747 
L 603.49675 561.125443 
L 610.86391 543.845966 
L 618.231071 560.263746 
L 625.598232 545.111923 
L 632.965393 558.6247 
L 640.332554 547.083699 
L 647.699715 556.368747 
L 655.066876 549.56828 
L 662.434036 553.716716 
" style="fill:none;stroke:#1f77b4;stroke-linecap:square;stroke-width:1.5;"/>
   </g>
  </g>
 </g>
 <defs>
  <clipPath id="pe5ad95f5cc">
   <rect height="26.738141" width="316.0512" x="39.3408" y="22.318125"/>
  </clipPath>
  <clipPath id="p0c8c6ef230">
   <rect height="26.738141" width="316.0512" x="360.7488" y="22.318125"/>
  </clipPath>
  <clipPath id="p5f6bb82a1f">
   <rect height="26.738141" width="316.0512" x="39.3408" y="49.509455"/>
  </clipPath>
  <clipPath id="p1a00aca976">
   <rect height="26.738141" width="316.0512" x="360.7488" y="49.509455"/>
  </clipPath>
  <clipPath id="p4a2d23fc0c">
   <rect height="26.738141" width="316.0512" x="39.3408" y="76.700784"/>
  </clipPath>
  <clipPath id="p3c902644c9">
   <rect height="26.738141" width="316.0512" x="360.7488" y="76.700784"/>
  </clipPath>
  <clipPath id="p92ceabd493">
   <rect height="26.738141" width="316.0512" x="39.3408" y="103.892114"/>
  </clipPath>
  <clipPath id="p4e8818717a">
   <rect height="26.738141" width="316.0512" x="360.7488" y="103.892114"/>
  </clipPath>
  <clipPath id="pb7168c719d">
   <rect height="26.738141" width="316.0512" x="39.3408" y="131.083444"/>
  </clipPath>
  <clipPath id="p7dad0435b1">
   <rect height="26.738141" width="316.0512" x="360.7488" y="131.083444"/>
  </clipPath>
  <clipPath id="p3f300f5420">
   <rect height="26.738141" width="316.0512" x="39.3408" y="158.274774"/>
  </clipPath>
  <clipPath id="p347fd8972c">
   <rect height="26.738141" width="316.0512" x="360.7488" y="158.274774"/>
  </clipPath>
  <clipPath id="pfe71d03d28">
   <rect height="26.738141" width="316.0512" x="39.3408" y="185.466103"/>
  </clipPath>
  <clipPath id="pd8153d8ded">
   <rect height="26.738141" width="316.0512" x="360.7488" y="185.466103"/>
  </clipPath>
  <clipPath id="p2fdc9569f7">
   <rect height="26.738141" width="316.0512" x="39.3408" y="212.657433"/>
  </clipPath>
  <clipPath id="p7cc446f8c1">
   <rect height="26.738141" width="316.0512" x="360.7488" y="212.657433"/>
  </clipPath>
  <clipPath id="p5a303e9258">
   <rect height="26.738141" width="316.0512" x="39.3408" y="239.848763"/>
  </clipPath>
  <clipPath id="p3d79b80e83">
   <rect height="26.738141" width="316.0512" x="360.7488" y="239.848763"/>
  </clipPath>
  <clipPath id="pc21d5d0f24">
   <rect height="26.738141" width="316.0512" x="39.3408" y="267.040092"/>
  </clipPath>
  <clipPath id="p93b765cead">
   <rect height="26.738141" width="316.0512" x="360.7488" y="267.040092"/>
  </clipPath>
  <clipPath id="p048dd24092">
   <rect height="26.738141" width="316.0512" x="39.3408" y="294.231422"/>
  </clipPath>
  <clipPath id="pfcdaad318a">
   <rect height="26.738141" width="316.0512" x="360.7488" y="294.231422"/>
  </clipPath>
  <clipPath id="pcd9c5cbc4c">
   <rect height="26.738141" width="316.0512" x="39.3408" y="321.422752"/>
  </clipPath>
  <clipPath id="pc103e22bad">
   <rect height="26.738141" width="316.0512" x="360.7488" y="321.422752"/>
  </clipPath>
  <clipPath id="pa176bf6b64">
   <rect height="26.738141" width="316.0512" x="39.3408" y="348.614082"/>
  </clipPath>
  <clipPath id="pa1110000cb">
   <rect height="26.738141" width="316.0512" x="360.7488" y="348.614082"/>
  </clipPath>
  <clipPath id="p82b33ede4a">
   <rect height="26.738141" width="316.0512" x="39.3408" y="375.805411"/>
  </clipPath>
  <clipPath id="p5138e0b860">
   <rect height="26.738141" width="316.0512" x="360.7488" y="375.805411"/>
  </clipPath>
  <clipPath id="p1d3c60e744">
   <rect height="26.738141" width="316.0512" x="39.3408" y="402.996741"/>
  </clipPath>
  <clipPath id="p513a26f749">
   <rect height="26.738141" width="316.0512" x="360.7488" y="402.996741"/>
  </clipPath>
  <clipPath id="p47b89d646a">
   <rect height="26.738141" width="316.0512" x="39.3408" y="430.188071"/>
  </clipPath>
  <clipPath id="p9fd6090074">
   <rect height="26.738141" width="316.0512" x="360.7488" y="430.188071"/>
  </clipPath>
  <clipPath id="p30d5a0b149">
   <rect height="26.738141" width="316.0512" x="39.3408" y="457.379401"/>
  </clipPath>
  <clipPath id="p9b4f311044">
   <rect height="26.738141" width="316.0512" x="360.7488" y="457.379401"/>
  </clipPath>
  <clipPath id="p65e3953b8e">
   <rect height="26.738141" width="316.0512" x="39.3408" y="484.57073"/>
  </clipPath>
  <clipPath id="p32c12a21e2">
   <rect height="26.738141" width="316.0512" x="360.7488" y="484.57073"/>
  </clipPath>
  <clipPath id="p5bccf3b73a">
   <rect height="26.738141" width="316.0512" x="39.3408" y="511.76206"/>
  </clipPath>
  <clipPath id="p6f30cbdfe8">
   <rect height="26.738141" width="316.0512" x="360.7488" y="511.76206"/>
  </clipPath>
  <clipPath id="p09af1f9b00">
   <rect height="26.738141" width="316.0512" x="39.3408" y="538.95339"/>
  </clipPath>
  <clipPath id="p3e79820fca">
   <rect height="26.738141" width="316.0512" x="360.7488" y="538.95339"/>
  </clipPath>
 </defs>
</svg>
