<?xml version="1.0" encoding="utf-8" standalone="no"?>
<!DOCTYPE svg PUBLIC "-//W3C//DTD SVG 1.1//EN"
  "http://www.w3.org/Graphics/SVG/1.1/DTD/svg11.dtd">
<!-- Created with matplotlib (https://matplotlib.org/) -->
<svg height="263.63625pt" version="1.1" viewBox="0 0 703.725 263.63625" width="703.725pt" xmlns="http://www.w3.org/2000/svg" xmlns:xlink="http://www.w3.org/1999/xlink">
 <metadata>
  <rdf:RDF xmlns:cc="http://creativecommons.org/ns#" xmlns:dc="http://purl.org/dc/elements/1.1/" xmlns:rdf="http://www.w3.org/1999/02/22-rdf-syntax-ns#">
   <cc:Work>
    <dc:type rdf:resource="http://purl.org/dc/dcmitype/StillImage"/>
    <dc:date>2021-02-12T11:57:10.534776</dc:date>
    <dc:format>image/svg+xml</dc:format>
    <dc:creator>
     <cc:Agent>
      <dc:title>Matplotlib v3.3.3, https://matplotlib.org/</dc:title>
     </cc:Agent>
    </dc:creator>
   </cc:Work>
  </rdf:RDF>
 </metadata>
 <defs>
  <style type="text/css">*{stroke-linecap:butt;stroke-linejoin:round;}</style>
 </defs>
 <g id="figure_1">
  <g id="patch_1">
   <path d="M 0 263.63625 
L 703.725 263.63625 
L 703.725 0 
L 0 0 
z
" style="fill:none;"/>
  </g>
  <g id="axes_1">
   <g id="patch_2">
    <path d="M 26.925 239.758125 
L 331.288636 239.758125 
L 331.288636 22.318125 
L 26.925 22.318125 
z
" style="fill:#ffffff;"/>
   </g>
   <g id="matplotlib.axis_1">
    <g id="xtick_1">
     <g id="line2d_1">
      <defs>
       <path d="M 0 0 
L 0 3.5 
" id="m4fa1137ae4" style="stroke:#000000;stroke-width:0.8;"/>
      </defs>
      <g>
       <use style="stroke:#000000;stroke-width:0.8;" x="40.759711" xlink:href="#m4fa1137ae4" y="239.758125"/>
      </g>
     </g>
     <g id="text_1">
      <!-- 0 -->
      <g transform="translate(37.578461 254.356563)scale(0.1 -0.1)">
       <defs>
        <path d="M 31.78125 66.40625 
Q 24.171875 66.40625 20.328125 58.90625 
Q 16.5 51.421875 16.5 36.375 
Q 16.5 21.390625 20.328125 13.890625 
Q 24.171875 6.390625 31.78125 6.390625 
Q 39.453125 6.390625 43.28125 13.890625 
Q 47.125 21.390625 47.125 36.375 
Q 47.125 51.421875 43.28125 58.90625 
Q 39.453125 66.40625 31.78125 66.40625 
z
M 31.78125 74.21875 
Q 44.046875 74.21875 50.515625 64.515625 
Q 56.984375 54.828125 56.984375 36.375 
Q 56.984375 17.96875 50.515625 8.265625 
Q 44.046875 -1.421875 31.78125 -1.421875 
Q 19.53125 -1.421875 13.0625 8.265625 
Q 6.59375 17.96875 6.59375 36.375 
Q 6.59375 54.828125 13.0625 64.515625 
Q 19.53125 74.21875 31.78125 74.21875 
z
" id="DejaVuSans-48"/>
       </defs>
       <use xlink:href="#DejaVuSans-48"/>
      </g>
     </g>
    </g>
    <g id="xtick_2">
     <g id="line2d_2">
      <g>
       <use style="stroke:#000000;stroke-width:0.8;" x="97.227918" xlink:href="#m4fa1137ae4" y="239.758125"/>
      </g>
     </g>
     <g id="text_2">
      <!-- 10 -->
      <g transform="translate(90.865418 254.356563)scale(0.1 -0.1)">
       <defs>
        <path d="M 12.40625 8.296875 
L 28.515625 8.296875 
L 28.515625 63.921875 
L 10.984375 60.40625 
L 10.984375 69.390625 
L 28.421875 72.90625 
L 38.28125 72.90625 
L 38.28125 8.296875 
L 54.390625 8.296875 
L 54.390625 0 
L 12.40625 0 
z
" id="DejaVuSans-49"/>
       </defs>
       <use xlink:href="#DejaVuSans-49"/>
       <use x="63.623047" xlink:href="#DejaVuSans-48"/>
      </g>
     </g>
    </g>
    <g id="xtick_3">
     <g id="line2d_3">
      <g>
       <use style="stroke:#000000;stroke-width:0.8;" x="153.696125" xlink:href="#m4fa1137ae4" y="239.758125"/>
      </g>
     </g>
     <g id="text_3">
      <!-- 20 -->
      <g transform="translate(147.333625 254.356563)scale(0.1 -0.1)">
       <defs>
        <path d="M 19.1875 8.296875 
L 53.609375 8.296875 
L 53.609375 0 
L 7.328125 0 
L 7.328125 8.296875 
Q 12.9375 14.109375 22.625 23.890625 
Q 32.328125 33.6875 34.8125 36.53125 
Q 39.546875 41.84375 41.421875 45.53125 
Q 43.3125 49.21875 43.3125 52.78125 
Q 43.3125 58.59375 39.234375 62.25 
Q 35.15625 65.921875 28.609375 65.921875 
Q 23.96875 65.921875 18.8125 64.3125 
Q 13.671875 62.703125 7.8125 59.421875 
L 7.8125 69.390625 
Q 13.765625 71.78125 18.9375 73 
Q 24.125 74.21875 28.421875 74.21875 
Q 39.75 74.21875 46.484375 68.546875 
Q 53.21875 62.890625 53.21875 53.421875 
Q 53.21875 48.921875 51.53125 44.890625 
Q 49.859375 40.875 45.40625 35.40625 
Q 44.1875 33.984375 37.640625 27.21875 
Q 31.109375 20.453125 19.1875 8.296875 
z
" id="DejaVuSans-50"/>
       </defs>
       <use xlink:href="#DejaVuSans-50"/>
       <use x="63.623047" xlink:href="#DejaVuSans-48"/>
      </g>
     </g>
    </g>
    <g id="xtick_4">
     <g id="line2d_4">
      <g>
       <use style="stroke:#000000;stroke-width:0.8;" x="210.164332" xlink:href="#m4fa1137ae4" y="239.758125"/>
      </g>
     </g>
     <g id="text_4">
      <!-- 30 -->
      <g transform="translate(203.801832 254.356563)scale(0.1 -0.1)">
       <defs>
        <path d="M 40.578125 39.3125 
Q 47.65625 37.796875 51.625 33 
Q 55.609375 28.21875 55.609375 21.1875 
Q 55.609375 10.40625 48.1875 4.484375 
Q 40.765625 -1.421875 27.09375 -1.421875 
Q 22.515625 -1.421875 17.65625 -0.515625 
Q 12.796875 0.390625 7.625 2.203125 
L 7.625 11.71875 
Q 11.71875 9.328125 16.59375 8.109375 
Q 21.484375 6.890625 26.8125 6.890625 
Q 36.078125 6.890625 40.9375 10.546875 
Q 45.796875 14.203125 45.796875 21.1875 
Q 45.796875 27.640625 41.28125 31.265625 
Q 36.765625 34.90625 28.71875 34.90625 
L 20.21875 34.90625 
L 20.21875 43.015625 
L 29.109375 43.015625 
Q 36.375 43.015625 40.234375 45.921875 
Q 44.09375 48.828125 44.09375 54.296875 
Q 44.09375 59.90625 40.109375 62.90625 
Q 36.140625 65.921875 28.71875 65.921875 
Q 24.65625 65.921875 20.015625 65.03125 
Q 15.375 64.15625 9.8125 62.3125 
L 9.8125 71.09375 
Q 15.4375 72.65625 20.34375 73.4375 
Q 25.25 74.21875 29.59375 74.21875 
Q 40.828125 74.21875 47.359375 69.109375 
Q 53.90625 64.015625 53.90625 55.328125 
Q 53.90625 49.265625 50.4375 45.09375 
Q 46.96875 40.921875 40.578125 39.3125 
z
" id="DejaVuSans-51"/>
       </defs>
       <use xlink:href="#DejaVuSans-51"/>
       <use x="63.623047" xlink:href="#DejaVuSans-48"/>
      </g>
     </g>
    </g>
    <g id="xtick_5">
     <g id="line2d_5">
      <g>
       <use style="stroke:#000000;stroke-width:0.8;" x="266.632539" xlink:href="#m4fa1137ae4" y="239.758125"/>
      </g>
     </g>
     <g id="text_5">
      <!-- 40 -->
      <g transform="translate(260.270039 254.356563)scale(0.1 -0.1)">
       <defs>
        <path d="M 37.796875 64.3125 
L 12.890625 25.390625 
L 37.796875 25.390625 
z
M 35.203125 72.90625 
L 47.609375 72.90625 
L 47.609375 25.390625 
L 58.015625 25.390625 
L 58.015625 17.1875 
L 47.609375 17.1875 
L 47.609375 0 
L 37.796875 0 
L 37.796875 17.1875 
L 4.890625 17.1875 
L 4.890625 26.703125 
z
" id="DejaVuSans-52"/>
       </defs>
       <use xlink:href="#DejaVuSans-52"/>
       <use x="63.623047" xlink:href="#DejaVuSans-48"/>
      </g>
     </g>
    </g>
    <g id="xtick_6">
     <g id="line2d_6">
      <g>
       <use style="stroke:#000000;stroke-width:0.8;" x="323.100746" xlink:href="#m4fa1137ae4" y="239.758125"/>
      </g>
     </g>
     <g id="text_6">
      <!-- 50 -->
      <g transform="translate(316.738246 254.356563)scale(0.1 -0.1)">
       <defs>
        <path d="M 10.796875 72.90625 
L 49.515625 72.90625 
L 49.515625 64.59375 
L 19.828125 64.59375 
L 19.828125 46.734375 
Q 21.96875 47.46875 24.109375 47.828125 
Q 26.265625 48.1875 28.421875 48.1875 
Q 40.625 48.1875 47.75 41.5 
Q 54.890625 34.8125 54.890625 23.390625 
Q 54.890625 11.625 47.5625 5.09375 
Q 40.234375 -1.421875 26.90625 -1.421875 
Q 22.3125 -1.421875 17.546875 -0.640625 
Q 12.796875 0.140625 7.71875 1.703125 
L 7.71875 11.625 
Q 12.109375 9.234375 16.796875 8.0625 
Q 21.484375 6.890625 26.703125 6.890625 
Q 35.15625 6.890625 40.078125 11.328125 
Q 45.015625 15.765625 45.015625 23.390625 
Q 45.015625 31 40.078125 35.4375 
Q 35.15625 39.890625 26.703125 39.890625 
Q 22.75 39.890625 18.8125 39.015625 
Q 14.890625 38.140625 10.796875 36.28125 
z
" id="DejaVuSans-53"/>
       </defs>
       <use xlink:href="#DejaVuSans-53"/>
       <use x="63.623047" xlink:href="#DejaVuSans-48"/>
      </g>
     </g>
    </g>
   </g>
   <g id="matplotlib.axis_2">
    <g id="ytick_1">
     <g id="line2d_7">
      <defs>
       <path d="M 0 0 
L -3.5 0 
" id="m6ac6e3afdd" style="stroke:#000000;stroke-width:0.8;"/>
      </defs>
      <g>
       <use style="stroke:#000000;stroke-width:0.8;" x="26.925" xlink:href="#m6ac6e3afdd" y="229.874489"/>
      </g>
     </g>
     <g id="text_7">
      <!-- 0 -->
      <g transform="translate(13.5625 233.673707)scale(0.1 -0.1)">
       <use xlink:href="#DejaVuSans-48"/>
      </g>
     </g>
    </g>
    <g id="ytick_2">
     <g id="line2d_8">
      <g>
       <use style="stroke:#000000;stroke-width:0.8;" x="26.925" xlink:href="#m6ac6e3afdd" y="190.339943"/>
      </g>
     </g>
     <g id="text_8">
      <!-- 10 -->
      <g transform="translate(7.2 194.139162)scale(0.1 -0.1)">
       <use xlink:href="#DejaVuSans-49"/>
       <use x="63.623047" xlink:href="#DejaVuSans-48"/>
      </g>
     </g>
    </g>
    <g id="ytick_3">
     <g id="line2d_9">
      <g>
       <use style="stroke:#000000;stroke-width:0.8;" x="26.925" xlink:href="#m6ac6e3afdd" y="150.805398"/>
      </g>
     </g>
     <g id="text_9">
      <!-- 20 -->
      <g transform="translate(7.2 154.604616)scale(0.1 -0.1)">
       <use xlink:href="#DejaVuSans-50"/>
       <use x="63.623047" xlink:href="#DejaVuSans-48"/>
      </g>
     </g>
    </g>
    <g id="ytick_4">
     <g id="line2d_10">
      <g>
       <use style="stroke:#000000;stroke-width:0.8;" x="26.925" xlink:href="#m6ac6e3afdd" y="111.270852"/>
      </g>
     </g>
     <g id="text_10">
      <!-- 30 -->
      <g transform="translate(7.2 115.070071)scale(0.1 -0.1)">
       <use xlink:href="#DejaVuSans-51"/>
       <use x="63.623047" xlink:href="#DejaVuSans-48"/>
      </g>
     </g>
    </g>
    <g id="ytick_5">
     <g id="line2d_11">
      <g>
       <use style="stroke:#000000;stroke-width:0.8;" x="26.925" xlink:href="#m6ac6e3afdd" y="71.736307"/>
      </g>
     </g>
     <g id="text_11">
      <!-- 40 -->
      <g transform="translate(7.2 75.535526)scale(0.1 -0.1)">
       <use xlink:href="#DejaVuSans-52"/>
       <use x="63.623047" xlink:href="#DejaVuSans-48"/>
      </g>
     </g>
    </g>
    <g id="ytick_6">
     <g id="line2d_12">
      <g>
       <use style="stroke:#000000;stroke-width:0.8;" x="26.925" xlink:href="#m6ac6e3afdd" y="32.201761"/>
      </g>
     </g>
     <g id="text_12">
      <!-- 50 -->
      <g transform="translate(7.2 36.00098)scale(0.1 -0.1)">
       <use xlink:href="#DejaVuSans-53"/>
       <use x="63.623047" xlink:href="#DejaVuSans-48"/>
      </g>
     </g>
    </g>
   </g>
   <g id="LineCollection_1">
    <path clip-path="url(#pc43dfd9b0a)" d="M 40.759711 229.874489 
L 40.759711 229.874489 
" style="fill:none;stroke:#1f77b4;stroke-width:1.5;"/>
    <path clip-path="url(#pc43dfd9b0a)" d="M 46.406531 229.874489 
L 46.406531 32.201761 
" style="fill:none;stroke:#1f77b4;stroke-width:1.5;"/>
    <path clip-path="url(#pc43dfd9b0a)" d="M 52.053352 229.874489 
L 52.053352 229.874489 
" style="fill:none;stroke:#1f77b4;stroke-width:1.5;"/>
    <path clip-path="url(#pc43dfd9b0a)" d="M 57.700173 229.874489 
L 57.700173 229.874489 
" style="fill:none;stroke:#1f77b4;stroke-width:1.5;"/>
    <path clip-path="url(#pc43dfd9b0a)" d="M 63.346994 229.874489 
L 63.346994 229.874489 
" style="fill:none;stroke:#1f77b4;stroke-width:1.5;"/>
    <path clip-path="url(#pc43dfd9b0a)" d="M 68.993814 229.874489 
L 68.993814 229.874489 
" style="fill:none;stroke:#1f77b4;stroke-width:1.5;"/>
    <path clip-path="url(#pc43dfd9b0a)" d="M 74.640635 229.874489 
L 74.640635 229.874489 
" style="fill:none;stroke:#1f77b4;stroke-width:1.5;"/>
    <path clip-path="url(#pc43dfd9b0a)" d="M 80.287456 229.874489 
L 80.287456 229.874489 
" style="fill:none;stroke:#1f77b4;stroke-width:1.5;"/>
    <path clip-path="url(#pc43dfd9b0a)" d="M 85.934276 229.874489 
L 85.934276 229.874489 
" style="fill:none;stroke:#1f77b4;stroke-width:1.5;"/>
    <path clip-path="url(#pc43dfd9b0a)" d="M 91.581097 229.874489 
L 91.581097 229.874489 
" style="fill:none;stroke:#1f77b4;stroke-width:1.5;"/>
    <path clip-path="url(#pc43dfd9b0a)" d="M 97.227918 229.874489 
L 97.227918 229.874489 
" style="fill:none;stroke:#1f77b4;stroke-width:1.5;"/>
    <path clip-path="url(#pc43dfd9b0a)" d="M 102.874739 229.874489 
L 102.874739 229.874489 
" style="fill:none;stroke:#1f77b4;stroke-width:1.5;"/>
    <path clip-path="url(#pc43dfd9b0a)" d="M 108.521559 229.874489 
L 108.521559 229.874489 
" style="fill:none;stroke:#1f77b4;stroke-width:1.5;"/>
    <path clip-path="url(#pc43dfd9b0a)" d="M 114.16838 229.874489 
L 114.16838 229.874489 
" style="fill:none;stroke:#1f77b4;stroke-width:1.5;"/>
    <path clip-path="url(#pc43dfd9b0a)" d="M 119.815201 229.874489 
L 119.815201 229.874489 
" style="fill:none;stroke:#1f77b4;stroke-width:1.5;"/>
    <path clip-path="url(#pc43dfd9b0a)" d="M 125.462021 229.874489 
L 125.462021 229.874489 
" style="fill:none;stroke:#1f77b4;stroke-width:1.5;"/>
    <path clip-path="url(#pc43dfd9b0a)" d="M 131.108842 229.874489 
L 131.108842 229.874489 
" style="fill:none;stroke:#1f77b4;stroke-width:1.5;"/>
    <path clip-path="url(#pc43dfd9b0a)" d="M 136.755663 229.874489 
L 136.755663 229.874489 
" style="fill:none;stroke:#1f77b4;stroke-width:1.5;"/>
    <path clip-path="url(#pc43dfd9b0a)" d="M 142.402484 229.874489 
L 142.402484 229.874489 
" style="fill:none;stroke:#1f77b4;stroke-width:1.5;"/>
    <path clip-path="url(#pc43dfd9b0a)" d="M 148.049304 229.874489 
L 148.049304 229.874489 
" style="fill:none;stroke:#1f77b4;stroke-width:1.5;"/>
    <path clip-path="url(#pc43dfd9b0a)" d="M 153.696125 229.874489 
L 153.696125 229.874489 
" style="fill:none;stroke:#1f77b4;stroke-width:1.5;"/>
    <path clip-path="url(#pc43dfd9b0a)" d="M 159.342946 229.874489 
L 159.342946 229.874489 
" style="fill:none;stroke:#1f77b4;stroke-width:1.5;"/>
    <path clip-path="url(#pc43dfd9b0a)" d="M 164.989766 229.874489 
L 164.989766 229.874489 
" style="fill:none;stroke:#1f77b4;stroke-width:1.5;"/>
    <path clip-path="url(#pc43dfd9b0a)" d="M 170.636587 229.874489 
L 170.636587 229.874489 
" style="fill:none;stroke:#1f77b4;stroke-width:1.5;"/>
    <path clip-path="url(#pc43dfd9b0a)" d="M 176.283408 229.874489 
L 176.283408 229.874489 
" style="fill:none;stroke:#1f77b4;stroke-width:1.5;"/>
    <path clip-path="url(#pc43dfd9b0a)" d="M 181.930229 229.874489 
L 181.930229 229.874489 
" style="fill:none;stroke:#1f77b4;stroke-width:1.5;"/>
    <path clip-path="url(#pc43dfd9b0a)" d="M 187.577049 229.874489 
L 187.577049 229.874489 
" style="fill:none;stroke:#1f77b4;stroke-width:1.5;"/>
    <path clip-path="url(#pc43dfd9b0a)" d="M 193.22387 229.874489 
L 193.22387 229.874489 
" style="fill:none;stroke:#1f77b4;stroke-width:1.5;"/>
    <path clip-path="url(#pc43dfd9b0a)" d="M 198.870691 229.874489 
L 198.870691 229.874489 
" style="fill:none;stroke:#1f77b4;stroke-width:1.5;"/>
    <path clip-path="url(#pc43dfd9b0a)" d="M 204.517511 229.874489 
L 204.517511 229.874489 
" style="fill:none;stroke:#1f77b4;stroke-width:1.5;"/>
    <path clip-path="url(#pc43dfd9b0a)" d="M 210.164332 229.874489 
L 210.164332 229.874489 
" style="fill:none;stroke:#1f77b4;stroke-width:1.5;"/>
    <path clip-path="url(#pc43dfd9b0a)" d="M 215.811153 229.874489 
L 215.811153 229.874489 
" style="fill:none;stroke:#1f77b4;stroke-width:1.5;"/>
    <path clip-path="url(#pc43dfd9b0a)" d="M 221.457974 229.874489 
L 221.457974 229.874489 
" style="fill:none;stroke:#1f77b4;stroke-width:1.5;"/>
    <path clip-path="url(#pc43dfd9b0a)" d="M 227.104794 229.874489 
L 227.104794 229.874489 
" style="fill:none;stroke:#1f77b4;stroke-width:1.5;"/>
    <path clip-path="url(#pc43dfd9b0a)" d="M 232.751615 229.874489 
L 232.751615 229.874489 
" style="fill:none;stroke:#1f77b4;stroke-width:1.5;"/>
    <path clip-path="url(#pc43dfd9b0a)" d="M 238.398436 229.874489 
L 238.398436 229.874489 
" style="fill:none;stroke:#1f77b4;stroke-width:1.5;"/>
    <path clip-path="url(#pc43dfd9b0a)" d="M 244.045256 229.874489 
L 244.045256 229.874489 
" style="fill:none;stroke:#1f77b4;stroke-width:1.5;"/>
    <path clip-path="url(#pc43dfd9b0a)" d="M 249.692077 229.874489 
L 249.692077 229.874489 
" style="fill:none;stroke:#1f77b4;stroke-width:1.5;"/>
    <path clip-path="url(#pc43dfd9b0a)" d="M 255.338898 229.874489 
L 255.338898 229.874489 
" style="fill:none;stroke:#1f77b4;stroke-width:1.5;"/>
    <path clip-path="url(#pc43dfd9b0a)" d="M 260.985719 229.874489 
L 260.985719 229.874489 
" style="fill:none;stroke:#1f77b4;stroke-width:1.5;"/>
    <path clip-path="url(#pc43dfd9b0a)" d="M 266.632539 229.874489 
L 266.632539 229.874489 
" style="fill:none;stroke:#1f77b4;stroke-width:1.5;"/>
    <path clip-path="url(#pc43dfd9b0a)" d="M 272.27936 229.874489 
L 272.27936 229.874489 
" style="fill:none;stroke:#1f77b4;stroke-width:1.5;"/>
    <path clip-path="url(#pc43dfd9b0a)" d="M 277.926181 229.874489 
L 277.926181 229.874489 
" style="fill:none;stroke:#1f77b4;stroke-width:1.5;"/>
    <path clip-path="url(#pc43dfd9b0a)" d="M 283.573001 229.874489 
L 283.573001 229.874489 
" style="fill:none;stroke:#1f77b4;stroke-width:1.5;"/>
    <path clip-path="url(#pc43dfd9b0a)" d="M 289.219822 229.874489 
L 289.219822 229.874489 
" style="fill:none;stroke:#1f77b4;stroke-width:1.5;"/>
    <path clip-path="url(#pc43dfd9b0a)" d="M 294.866643 229.874489 
L 294.866643 229.874489 
" style="fill:none;stroke:#1f77b4;stroke-width:1.5;"/>
    <path clip-path="url(#pc43dfd9b0a)" d="M 300.513463 229.874489 
L 300.513463 229.874489 
" style="fill:none;stroke:#1f77b4;stroke-width:1.5;"/>
    <path clip-path="url(#pc43dfd9b0a)" d="M 306.160284 229.874489 
L 306.160284 229.874489 
" style="fill:none;stroke:#1f77b4;stroke-width:1.5;"/>
    <path clip-path="url(#pc43dfd9b0a)" d="M 311.807105 229.874489 
L 311.807105 229.874489 
" style="fill:none;stroke:#1f77b4;stroke-width:1.5;"/>
    <path clip-path="url(#pc43dfd9b0a)" d="M 317.453926 229.874489 
L 317.453926 229.874489 
" style="fill:none;stroke:#1f77b4;stroke-width:1.5;"/>
   </g>
   <g id="line2d_13">
    <defs>
     <path d="M 0 3 
C 0.795609 3 1.55874 2.683901 2.12132 2.12132 
C 2.683901 1.55874 3 0.795609 3 0 
C 3 -0.795609 2.683901 -1.55874 2.12132 -2.12132 
C 1.55874 -2.683901 0.795609 -3 0 -3 
C -0.795609 -3 -1.55874 -2.683901 -2.12132 -2.12132 
C -2.683901 -1.55874 -3 -0.795609 -3 0 
C -3 0.795609 -2.683901 1.55874 -2.12132 2.12132 
C -1.55874 2.683901 -0.795609 3 0 3 
z
" id="m3fd6f5fc4f" style="stroke:#1f77b4;"/>
    </defs>
    <g clip-path="url(#pc43dfd9b0a)">
     <use style="fill:#1f77b4;stroke:#1f77b4;" x="40.759711" xlink:href="#m3fd6f5fc4f" y="229.874489"/>
     <use style="fill:#1f77b4;stroke:#1f77b4;" x="46.406531" xlink:href="#m3fd6f5fc4f" y="32.201761"/>
     <use style="fill:#1f77b4;stroke:#1f77b4;" x="52.053352" xlink:href="#m3fd6f5fc4f" y="229.874489"/>
     <use style="fill:#1f77b4;stroke:#1f77b4;" x="57.700173" xlink:href="#m3fd6f5fc4f" y="229.874489"/>
     <use style="fill:#1f77b4;stroke:#1f77b4;" x="63.346994" xlink:href="#m3fd6f5fc4f" y="229.874489"/>
     <use style="fill:#1f77b4;stroke:#1f77b4;" x="68.993814" xlink:href="#m3fd6f5fc4f" y="229.874489"/>
     <use style="fill:#1f77b4;stroke:#1f77b4;" x="74.640635" xlink:href="#m3fd6f5fc4f" y="229.874489"/>
     <use style="fill:#1f77b4;stroke:#1f77b4;" x="80.287456" xlink:href="#m3fd6f5fc4f" y="229.874489"/>
     <use style="fill:#1f77b4;stroke:#1f77b4;" x="85.934276" xlink:href="#m3fd6f5fc4f" y="229.874489"/>
     <use style="fill:#1f77b4;stroke:#1f77b4;" x="91.581097" xlink:href="#m3fd6f5fc4f" y="229.874489"/>
     <use style="fill:#1f77b4;stroke:#1f77b4;" x="97.227918" xlink:href="#m3fd6f5fc4f" y="229.874489"/>
     <use style="fill:#1f77b4;stroke:#1f77b4;" x="102.874739" xlink:href="#m3fd6f5fc4f" y="229.874489"/>
     <use style="fill:#1f77b4;stroke:#1f77b4;" x="108.521559" xlink:href="#m3fd6f5fc4f" y="229.874489"/>
     <use style="fill:#1f77b4;stroke:#1f77b4;" x="114.16838" xlink:href="#m3fd6f5fc4f" y="229.874489"/>
     <use style="fill:#1f77b4;stroke:#1f77b4;" x="119.815201" xlink:href="#m3fd6f5fc4f" y="229.874489"/>
     <use style="fill:#1f77b4;stroke:#1f77b4;" x="125.462021" xlink:href="#m3fd6f5fc4f" y="229.874489"/>
     <use style="fill:#1f77b4;stroke:#1f77b4;" x="131.108842" xlink:href="#m3fd6f5fc4f" y="229.874489"/>
     <use style="fill:#1f77b4;stroke:#1f77b4;" x="136.755663" xlink:href="#m3fd6f5fc4f" y="229.874489"/>
     <use style="fill:#1f77b4;stroke:#1f77b4;" x="142.402484" xlink:href="#m3fd6f5fc4f" y="229.874489"/>
     <use style="fill:#1f77b4;stroke:#1f77b4;" x="148.049304" xlink:href="#m3fd6f5fc4f" y="229.874489"/>
     <use style="fill:#1f77b4;stroke:#1f77b4;" x="153.696125" xlink:href="#m3fd6f5fc4f" y="229.874489"/>
     <use style="fill:#1f77b4;stroke:#1f77b4;" x="159.342946" xlink:href="#m3fd6f5fc4f" y="229.874489"/>
     <use style="fill:#1f77b4;stroke:#1f77b4;" x="164.989766" xlink:href="#m3fd6f5fc4f" y="229.874489"/>
     <use style="fill:#1f77b4;stroke:#1f77b4;" x="170.636587" xlink:href="#m3fd6f5fc4f" y="229.874489"/>
     <use style="fill:#1f77b4;stroke:#1f77b4;" x="176.283408" xlink:href="#m3fd6f5fc4f" y="229.874489"/>
     <use style="fill:#1f77b4;stroke:#1f77b4;" x="181.930229" xlink:href="#m3fd6f5fc4f" y="229.874489"/>
     <use style="fill:#1f77b4;stroke:#1f77b4;" x="187.577049" xlink:href="#m3fd6f5fc4f" y="229.874489"/>
     <use style="fill:#1f77b4;stroke:#1f77b4;" x="193.22387" xlink:href="#m3fd6f5fc4f" y="229.874489"/>
     <use style="fill:#1f77b4;stroke:#1f77b4;" x="198.870691" xlink:href="#m3fd6f5fc4f" y="229.874489"/>
     <use style="fill:#1f77b4;stroke:#1f77b4;" x="204.517511" xlink:href="#m3fd6f5fc4f" y="229.874489"/>
     <use style="fill:#1f77b4;stroke:#1f77b4;" x="210.164332" xlink:href="#m3fd6f5fc4f" y="229.874489"/>
     <use style="fill:#1f77b4;stroke:#1f77b4;" x="215.811153" xlink:href="#m3fd6f5fc4f" y="229.874489"/>
     <use style="fill:#1f77b4;stroke:#1f77b4;" x="221.457974" xlink:href="#m3fd6f5fc4f" y="229.874489"/>
     <use style="fill:#1f77b4;stroke:#1f77b4;" x="227.104794" xlink:href="#m3fd6f5fc4f" y="229.874489"/>
     <use style="fill:#1f77b4;stroke:#1f77b4;" x="232.751615" xlink:href="#m3fd6f5fc4f" y="229.874489"/>
     <use style="fill:#1f77b4;stroke:#1f77b4;" x="238.398436" xlink:href="#m3fd6f5fc4f" y="229.874489"/>
     <use style="fill:#1f77b4;stroke:#1f77b4;" x="244.045256" xlink:href="#m3fd6f5fc4f" y="229.874489"/>
     <use style="fill:#1f77b4;stroke:#1f77b4;" x="249.692077" xlink:href="#m3fd6f5fc4f" y="229.874489"/>
     <use style="fill:#1f77b4;stroke:#1f77b4;" x="255.338898" xlink:href="#m3fd6f5fc4f" y="229.874489"/>
     <use style="fill:#1f77b4;stroke:#1f77b4;" x="260.985719" xlink:href="#m3fd6f5fc4f" y="229.874489"/>
     <use style="fill:#1f77b4;stroke:#1f77b4;" x="266.632539" xlink:href="#m3fd6f5fc4f" y="229.874489"/>
     <use style="fill:#1f77b4;stroke:#1f77b4;" x="272.27936" xlink:href="#m3fd6f5fc4f" y="229.874489"/>
     <use style="fill:#1f77b4;stroke:#1f77b4;" x="277.926181" xlink:href="#m3fd6f5fc4f" y="229.874489"/>
     <use style="fill:#1f77b4;stroke:#1f77b4;" x="283.573001" xlink:href="#m3fd6f5fc4f" y="229.874489"/>
     <use style="fill:#1f77b4;stroke:#1f77b4;" x="289.219822" xlink:href="#m3fd6f5fc4f" y="229.874489"/>
     <use style="fill:#1f77b4;stroke:#1f77b4;" x="294.866643" xlink:href="#m3fd6f5fc4f" y="229.874489"/>
     <use style="fill:#1f77b4;stroke:#1f77b4;" x="300.513463" xlink:href="#m3fd6f5fc4f" y="229.874489"/>
     <use style="fill:#1f77b4;stroke:#1f77b4;" x="306.160284" xlink:href="#m3fd6f5fc4f" y="229.874489"/>
     <use style="fill:#1f77b4;stroke:#1f77b4;" x="311.807105" xlink:href="#m3fd6f5fc4f" y="229.874489"/>
     <use style="fill:#1f77b4;stroke:#1f77b4;" x="317.453926" xlink:href="#m3fd6f5fc4f" y="229.874489"/>
    </g>
   </g>
   <g id="line2d_14">
    <path clip-path="url(#pc43dfd9b0a)" d="M 40.759711 229.874489 
L 317.453926 229.874489 
" style="fill:none;stroke:#d62728;stroke-linecap:square;stroke-width:1.5;"/>
   </g>
   <g id="patch_3">
    <path d="M 26.925 239.758125 
L 26.925 22.318125 
" style="fill:none;stroke:#000000;stroke-linecap:square;stroke-linejoin:miter;stroke-width:0.8;"/>
   </g>
   <g id="patch_4">
    <path d="M 331.288636 239.758125 
L 331.288636 22.318125 
" style="fill:none;stroke:#000000;stroke-linecap:square;stroke-linejoin:miter;stroke-width:0.8;"/>
   </g>
   <g id="patch_5">
    <path d="M 26.925 239.758125 
L 331.288636 239.758125 
" style="fill:none;stroke:#000000;stroke-linecap:square;stroke-linejoin:miter;stroke-width:0.8;"/>
   </g>
   <g id="patch_6">
    <path d="M 26.925 22.318125 
L 331.288636 22.318125 
" style="fill:none;stroke:#000000;stroke-linecap:square;stroke-linejoin:miter;stroke-width:0.8;"/>
   </g>
   <g id="text_13">
    <!-- Cosine Product Sums -->
    <g transform="translate(115.785256 16.318125)scale(0.12 -0.12)">
     <defs>
      <path d="M 64.40625 67.28125 
L 64.40625 56.890625 
Q 59.421875 61.53125 53.78125 63.8125 
Q 48.140625 66.109375 41.796875 66.109375 
Q 29.296875 66.109375 22.65625 58.46875 
Q 16.015625 50.828125 16.015625 36.375 
Q 16.015625 21.96875 22.65625 14.328125 
Q 29.296875 6.6875 41.796875 6.6875 
Q 48.140625 6.6875 53.78125 8.984375 
Q 59.421875 11.28125 64.40625 15.921875 
L 64.40625 5.609375 
Q 59.234375 2.09375 53.4375 0.328125 
Q 47.65625 -1.421875 41.21875 -1.421875 
Q 24.65625 -1.421875 15.125 8.703125 
Q 5.609375 18.84375 5.609375 36.375 
Q 5.609375 53.953125 15.125 64.078125 
Q 24.65625 74.21875 41.21875 74.21875 
Q 47.75 74.21875 53.53125 72.484375 
Q 59.328125 70.75 64.40625 67.28125 
z
" id="DejaVuSans-67"/>
      <path d="M 30.609375 48.390625 
Q 23.390625 48.390625 19.1875 42.75 
Q 14.984375 37.109375 14.984375 27.296875 
Q 14.984375 17.484375 19.15625 11.84375 
Q 23.34375 6.203125 30.609375 6.203125 
Q 37.796875 6.203125 41.984375 11.859375 
Q 46.1875 17.53125 46.1875 27.296875 
Q 46.1875 37.015625 41.984375 42.703125 
Q 37.796875 48.390625 30.609375 48.390625 
z
M 30.609375 56 
Q 42.328125 56 49.015625 48.375 
Q 55.71875 40.765625 55.71875 27.296875 
Q 55.71875 13.875 49.015625 6.21875 
Q 42.328125 -1.421875 30.609375 -1.421875 
Q 18.84375 -1.421875 12.171875 6.21875 
Q 5.515625 13.875 5.515625 27.296875 
Q 5.515625 40.765625 12.171875 48.375 
Q 18.84375 56 30.609375 56 
z
" id="DejaVuSans-111"/>
      <path d="M 44.28125 53.078125 
L 44.28125 44.578125 
Q 40.484375 46.53125 36.375 47.5 
Q 32.28125 48.484375 27.875 48.484375 
Q 21.1875 48.484375 17.84375 46.4375 
Q 14.5 44.390625 14.5 40.28125 
Q 14.5 37.15625 16.890625 35.375 
Q 19.28125 33.59375 26.515625 31.984375 
L 29.59375 31.296875 
Q 39.15625 29.25 43.1875 25.515625 
Q 47.21875 21.78125 47.21875 15.09375 
Q 47.21875 7.46875 41.1875 3.015625 
Q 35.15625 -1.421875 24.609375 -1.421875 
Q 20.21875 -1.421875 15.453125 -0.5625 
Q 10.6875 0.296875 5.421875 2 
L 5.421875 11.28125 
Q 10.40625 8.6875 15.234375 7.390625 
Q 20.0625 6.109375 24.8125 6.109375 
Q 31.15625 6.109375 34.5625 8.28125 
Q 37.984375 10.453125 37.984375 14.40625 
Q 37.984375 18.0625 35.515625 20.015625 
Q 33.0625 21.96875 24.703125 23.78125 
L 21.578125 24.515625 
Q 13.234375 26.265625 9.515625 29.90625 
Q 5.8125 33.546875 5.8125 39.890625 
Q 5.8125 47.609375 11.28125 51.796875 
Q 16.75 56 26.8125 56 
Q 31.78125 56 36.171875 55.265625 
Q 40.578125 54.546875 44.28125 53.078125 
z
" id="DejaVuSans-115"/>
      <path d="M 9.421875 54.6875 
L 18.40625 54.6875 
L 18.40625 0 
L 9.421875 0 
z
M 9.421875 75.984375 
L 18.40625 75.984375 
L 18.40625 64.59375 
L 9.421875 64.59375 
z
" id="DejaVuSans-105"/>
      <path d="M 54.890625 33.015625 
L 54.890625 0 
L 45.90625 0 
L 45.90625 32.71875 
Q 45.90625 40.484375 42.875 44.328125 
Q 39.84375 48.1875 33.796875 48.1875 
Q 26.515625 48.1875 22.3125 43.546875 
Q 18.109375 38.921875 18.109375 30.90625 
L 18.109375 0 
L 9.078125 0 
L 9.078125 54.6875 
L 18.109375 54.6875 
L 18.109375 46.1875 
Q 21.34375 51.125 25.703125 53.5625 
Q 30.078125 56 35.796875 56 
Q 45.21875 56 50.046875 50.171875 
Q 54.890625 44.34375 54.890625 33.015625 
z
" id="DejaVuSans-110"/>
      <path d="M 56.203125 29.59375 
L 56.203125 25.203125 
L 14.890625 25.203125 
Q 15.484375 15.921875 20.484375 11.0625 
Q 25.484375 6.203125 34.421875 6.203125 
Q 39.59375 6.203125 44.453125 7.46875 
Q 49.3125 8.734375 54.109375 11.28125 
L 54.109375 2.78125 
Q 49.265625 0.734375 44.1875 -0.34375 
Q 39.109375 -1.421875 33.890625 -1.421875 
Q 20.796875 -1.421875 13.15625 6.1875 
Q 5.515625 13.8125 5.515625 26.8125 
Q 5.515625 40.234375 12.765625 48.109375 
Q 20.015625 56 32.328125 56 
Q 43.359375 56 49.78125 48.890625 
Q 56.203125 41.796875 56.203125 29.59375 
z
M 47.21875 32.234375 
Q 47.125 39.59375 43.09375 43.984375 
Q 39.0625 48.390625 32.421875 48.390625 
Q 24.90625 48.390625 20.390625 44.140625 
Q 15.875 39.890625 15.1875 32.171875 
z
" id="DejaVuSans-101"/>
      <path id="DejaVuSans-32"/>
      <path d="M 19.671875 64.796875 
L 19.671875 37.40625 
L 32.078125 37.40625 
Q 38.96875 37.40625 42.71875 40.96875 
Q 46.484375 44.53125 46.484375 51.125 
Q 46.484375 57.671875 42.71875 61.234375 
Q 38.96875 64.796875 32.078125 64.796875 
z
M 9.8125 72.90625 
L 32.078125 72.90625 
Q 44.34375 72.90625 50.609375 67.359375 
Q 56.890625 61.8125 56.890625 51.125 
Q 56.890625 40.328125 50.609375 34.8125 
Q 44.34375 29.296875 32.078125 29.296875 
L 19.671875 29.296875 
L 19.671875 0 
L 9.8125 0 
z
" id="DejaVuSans-80"/>
      <path d="M 41.109375 46.296875 
Q 39.59375 47.171875 37.8125 47.578125 
Q 36.03125 48 33.890625 48 
Q 26.265625 48 22.1875 43.046875 
Q 18.109375 38.09375 18.109375 28.8125 
L 18.109375 0 
L 9.078125 0 
L 9.078125 54.6875 
L 18.109375 54.6875 
L 18.109375 46.1875 
Q 20.953125 51.171875 25.484375 53.578125 
Q 30.03125 56 36.53125 56 
Q 37.453125 56 38.578125 55.875 
Q 39.703125 55.765625 41.0625 55.515625 
z
" id="DejaVuSans-114"/>
      <path d="M 45.40625 46.390625 
L 45.40625 75.984375 
L 54.390625 75.984375 
L 54.390625 0 
L 45.40625 0 
L 45.40625 8.203125 
Q 42.578125 3.328125 38.25 0.953125 
Q 33.9375 -1.421875 27.875 -1.421875 
Q 17.96875 -1.421875 11.734375 6.484375 
Q 5.515625 14.40625 5.515625 27.296875 
Q 5.515625 40.1875 11.734375 48.09375 
Q 17.96875 56 27.875 56 
Q 33.9375 56 38.25 53.625 
Q 42.578125 51.265625 45.40625 46.390625 
z
M 14.796875 27.296875 
Q 14.796875 17.390625 18.875 11.75 
Q 22.953125 6.109375 30.078125 6.109375 
Q 37.203125 6.109375 41.296875 11.75 
Q 45.40625 17.390625 45.40625 27.296875 
Q 45.40625 37.203125 41.296875 42.84375 
Q 37.203125 48.484375 30.078125 48.484375 
Q 22.953125 48.484375 18.875 42.84375 
Q 14.796875 37.203125 14.796875 27.296875 
z
" id="DejaVuSans-100"/>
      <path d="M 8.5 21.578125 
L 8.5 54.6875 
L 17.484375 54.6875 
L 17.484375 21.921875 
Q 17.484375 14.15625 20.5 10.265625 
Q 23.53125 6.390625 29.59375 6.390625 
Q 36.859375 6.390625 41.078125 11.03125 
Q 45.3125 15.671875 45.3125 23.6875 
L 45.3125 54.6875 
L 54.296875 54.6875 
L 54.296875 0 
L 45.3125 0 
L 45.3125 8.40625 
Q 42.046875 3.421875 37.71875 1 
Q 33.40625 -1.421875 27.6875 -1.421875 
Q 18.265625 -1.421875 13.375 4.4375 
Q 8.5 10.296875 8.5 21.578125 
z
M 31.109375 56 
z
" id="DejaVuSans-117"/>
      <path d="M 48.78125 52.59375 
L 48.78125 44.1875 
Q 44.96875 46.296875 41.140625 47.34375 
Q 37.3125 48.390625 33.40625 48.390625 
Q 24.65625 48.390625 19.8125 42.84375 
Q 14.984375 37.3125 14.984375 27.296875 
Q 14.984375 17.28125 19.8125 11.734375 
Q 24.65625 6.203125 33.40625 6.203125 
Q 37.3125 6.203125 41.140625 7.25 
Q 44.96875 8.296875 48.78125 10.40625 
L 48.78125 2.09375 
Q 45.015625 0.34375 40.984375 -0.53125 
Q 36.96875 -1.421875 32.421875 -1.421875 
Q 20.0625 -1.421875 12.78125 6.34375 
Q 5.515625 14.109375 5.515625 27.296875 
Q 5.515625 40.671875 12.859375 48.328125 
Q 20.21875 56 33.015625 56 
Q 37.15625 56 41.109375 55.140625 
Q 45.0625 54.296875 48.78125 52.59375 
z
" id="DejaVuSans-99"/>
      <path d="M 18.3125 70.21875 
L 18.3125 54.6875 
L 36.8125 54.6875 
L 36.8125 47.703125 
L 18.3125 47.703125 
L 18.3125 18.015625 
Q 18.3125 11.328125 20.140625 9.421875 
Q 21.96875 7.515625 27.59375 7.515625 
L 36.8125 7.515625 
L 36.8125 0 
L 27.59375 0 
Q 17.1875 0 13.234375 3.875 
Q 9.28125 7.765625 9.28125 18.015625 
L 9.28125 47.703125 
L 2.6875 47.703125 
L 2.6875 54.6875 
L 9.28125 54.6875 
L 9.28125 70.21875 
z
" id="DejaVuSans-116"/>
      <path d="M 53.515625 70.515625 
L 53.515625 60.890625 
Q 47.90625 63.578125 42.921875 64.890625 
Q 37.9375 66.21875 33.296875 66.21875 
Q 25.25 66.21875 20.875 63.09375 
Q 16.5 59.96875 16.5 54.203125 
Q 16.5 49.359375 19.40625 46.890625 
Q 22.3125 44.4375 30.421875 42.921875 
L 36.375 41.703125 
Q 47.40625 39.59375 52.65625 34.296875 
Q 57.90625 29 57.90625 20.125 
Q 57.90625 9.515625 50.796875 4.046875 
Q 43.703125 -1.421875 29.984375 -1.421875 
Q 24.8125 -1.421875 18.96875 -0.25 
Q 13.140625 0.921875 6.890625 3.21875 
L 6.890625 13.375 
Q 12.890625 10.015625 18.65625 8.296875 
Q 24.421875 6.59375 29.984375 6.59375 
Q 38.421875 6.59375 43.015625 9.90625 
Q 47.609375 13.234375 47.609375 19.390625 
Q 47.609375 24.75 44.3125 27.78125 
Q 41.015625 30.8125 33.5 32.328125 
L 27.484375 33.5 
Q 16.453125 35.6875 11.515625 40.375 
Q 6.59375 45.0625 6.59375 53.421875 
Q 6.59375 63.09375 13.40625 68.65625 
Q 20.21875 74.21875 32.171875 74.21875 
Q 37.3125 74.21875 42.625 73.28125 
Q 47.953125 72.359375 53.515625 70.515625 
z
" id="DejaVuSans-83"/>
      <path d="M 52 44.1875 
Q 55.375 50.25 60.0625 53.125 
Q 64.75 56 71.09375 56 
Q 79.640625 56 84.28125 50.015625 
Q 88.921875 44.046875 88.921875 33.015625 
L 88.921875 0 
L 79.890625 0 
L 79.890625 32.71875 
Q 79.890625 40.578125 77.09375 44.375 
Q 74.3125 48.1875 68.609375 48.1875 
Q 61.625 48.1875 57.5625 43.546875 
Q 53.515625 38.921875 53.515625 30.90625 
L 53.515625 0 
L 44.484375 0 
L 44.484375 32.71875 
Q 44.484375 40.625 41.703125 44.40625 
Q 38.921875 48.1875 33.109375 48.1875 
Q 26.21875 48.1875 22.15625 43.53125 
Q 18.109375 38.875 18.109375 30.90625 
L 18.109375 0 
L 9.078125 0 
L 9.078125 54.6875 
L 18.109375 54.6875 
L 18.109375 46.1875 
Q 21.1875 51.21875 25.484375 53.609375 
Q 29.78125 56 35.6875 56 
Q 41.65625 56 45.828125 52.96875 
Q 50 49.953125 52 44.1875 
z
" id="DejaVuSans-109"/>
     </defs>
     <use xlink:href="#DejaVuSans-67"/>
     <use x="69.824219" xlink:href="#DejaVuSans-111"/>
     <use x="131.005859" xlink:href="#DejaVuSans-115"/>
     <use x="183.105469" xlink:href="#DejaVuSans-105"/>
     <use x="210.888672" xlink:href="#DejaVuSans-110"/>
     <use x="274.267578" xlink:href="#DejaVuSans-101"/>
     <use x="335.791016" xlink:href="#DejaVuSans-32"/>
     <use x="367.578125" xlink:href="#DejaVuSans-80"/>
     <use x="426.130859" xlink:href="#DejaVuSans-114"/>
     <use x="464.994141" xlink:href="#DejaVuSans-111"/>
     <use x="526.175781" xlink:href="#DejaVuSans-100"/>
     <use x="589.652344" xlink:href="#DejaVuSans-117"/>
     <use x="653.03125" xlink:href="#DejaVuSans-99"/>
     <use x="708.011719" xlink:href="#DejaVuSans-116"/>
     <use x="747.220703" xlink:href="#DejaVuSans-32"/>
     <use x="779.007812" xlink:href="#DejaVuSans-83"/>
     <use x="842.484375" xlink:href="#DejaVuSans-117"/>
     <use x="905.863281" xlink:href="#DejaVuSans-109"/>
     <use x="1003.275391" xlink:href="#DejaVuSans-115"/>
    </g>
   </g>
  </g>
  <g id="axes_2">
   <g id="patch_7">
    <path d="M 392.161364 239.758125 
L 696.525 239.758125 
L 696.525 22.318125 
L 392.161364 22.318125 
z
" style="fill:#ffffff;"/>
   </g>
   <g id="matplotlib.axis_3">
    <g id="xtick_7">
     <g id="line2d_15">
      <g>
       <use style="stroke:#000000;stroke-width:0.8;" x="405.996074" xlink:href="#m4fa1137ae4" y="239.758125"/>
      </g>
     </g>
     <g id="text_14">
      <!-- 0 -->
      <g transform="translate(402.814824 254.356563)scale(0.1 -0.1)">
       <use xlink:href="#DejaVuSans-48"/>
      </g>
     </g>
    </g>
    <g id="xtick_8">
     <g id="line2d_16">
      <g>
       <use style="stroke:#000000;stroke-width:0.8;" x="462.464281" xlink:href="#m4fa1137ae4" y="239.758125"/>
      </g>
     </g>
     <g id="text_15">
      <!-- 10 -->
      <g transform="translate(456.101781 254.356563)scale(0.1 -0.1)">
       <use xlink:href="#DejaVuSans-49"/>
       <use x="63.623047" xlink:href="#DejaVuSans-48"/>
      </g>
     </g>
    </g>
    <g id="xtick_9">
     <g id="line2d_17">
      <g>
       <use style="stroke:#000000;stroke-width:0.8;" x="518.932489" xlink:href="#m4fa1137ae4" y="239.758125"/>
      </g>
     </g>
     <g id="text_16">
      <!-- 20 -->
      <g transform="translate(512.569989 254.356563)scale(0.1 -0.1)">
       <use xlink:href="#DejaVuSans-50"/>
       <use x="63.623047" xlink:href="#DejaVuSans-48"/>
      </g>
     </g>
    </g>
    <g id="xtick_10">
     <g id="line2d_18">
      <g>
       <use style="stroke:#000000;stroke-width:0.8;" x="575.400696" xlink:href="#m4fa1137ae4" y="239.758125"/>
      </g>
     </g>
     <g id="text_17">
      <!-- 30 -->
      <g transform="translate(569.038196 254.356563)scale(0.1 -0.1)">
       <use xlink:href="#DejaVuSans-51"/>
       <use x="63.623047" xlink:href="#DejaVuSans-48"/>
      </g>
     </g>
    </g>
    <g id="xtick_11">
     <g id="line2d_19">
      <g>
       <use style="stroke:#000000;stroke-width:0.8;" x="631.868903" xlink:href="#m4fa1137ae4" y="239.758125"/>
      </g>
     </g>
     <g id="text_18">
      <!-- 40 -->
      <g transform="translate(625.506403 254.356563)scale(0.1 -0.1)">
       <use xlink:href="#DejaVuSans-52"/>
       <use x="63.623047" xlink:href="#DejaVuSans-48"/>
      </g>
     </g>
    </g>
    <g id="xtick_12">
     <g id="line2d_20">
      <g>
       <use style="stroke:#000000;stroke-width:0.8;" x="688.33711" xlink:href="#m4fa1137ae4" y="239.758125"/>
      </g>
     </g>
     <g id="text_19">
      <!-- 50 -->
      <g transform="translate(681.97461 254.356563)scale(0.1 -0.1)">
       <use xlink:href="#DejaVuSans-53"/>
       <use x="63.623047" xlink:href="#DejaVuSans-48"/>
      </g>
     </g>
    </g>
   </g>
   <g id="matplotlib.axis_4">
    <g id="ytick_7">
     <g id="line2d_21">
      <g>
       <use style="stroke:#000000;stroke-width:0.8;" x="392.161364" xlink:href="#m6ac6e3afdd" y="211.732359"/>
      </g>
     </g>
     <g id="text_20">
      <!-- −1.0 -->
      <g transform="translate(360.878551 215.531578)scale(0.1 -0.1)">
       <defs>
        <path d="M 10.59375 35.5 
L 73.1875 35.5 
L 73.1875 27.203125 
L 10.59375 27.203125 
z
" id="DejaVuSans-8722"/>
        <path d="M 10.6875 12.40625 
L 21 12.40625 
L 21 0 
L 10.6875 0 
z
" id="DejaVuSans-46"/>
       </defs>
       <use xlink:href="#DejaVuSans-8722"/>
       <use x="83.789062" xlink:href="#DejaVuSans-49"/>
       <use x="147.412109" xlink:href="#DejaVuSans-46"/>
       <use x="179.199219" xlink:href="#DejaVuSans-48"/>
      </g>
     </g>
    </g>
    <g id="ytick_8">
     <g id="line2d_22">
      <g>
       <use style="stroke:#000000;stroke-width:0.8;" x="392.161364" xlink:href="#m6ac6e3afdd" y="171.340398"/>
      </g>
     </g>
     <g id="text_21">
      <!-- −0.5 -->
      <g transform="translate(360.878551 175.139617)scale(0.1 -0.1)">
       <use xlink:href="#DejaVuSans-8722"/>
       <use x="83.789062" xlink:href="#DejaVuSans-48"/>
       <use x="147.412109" xlink:href="#DejaVuSans-46"/>
       <use x="179.199219" xlink:href="#DejaVuSans-53"/>
      </g>
     </g>
    </g>
    <g id="ytick_9">
     <g id="line2d_23">
      <g>
       <use style="stroke:#000000;stroke-width:0.8;" x="392.161364" xlink:href="#m6ac6e3afdd" y="130.948437"/>
      </g>
     </g>
     <g id="text_22">
      <!-- 0.0 -->
      <g transform="translate(369.258239 134.747656)scale(0.1 -0.1)">
       <use xlink:href="#DejaVuSans-48"/>
       <use x="63.623047" xlink:href="#DejaVuSans-46"/>
       <use x="95.410156" xlink:href="#DejaVuSans-48"/>
      </g>
     </g>
    </g>
    <g id="ytick_10">
     <g id="line2d_24">
      <g>
       <use style="stroke:#000000;stroke-width:0.8;" x="392.161364" xlink:href="#m6ac6e3afdd" y="90.556476"/>
      </g>
     </g>
     <g id="text_23">
      <!-- 0.5 -->
      <g transform="translate(369.258239 94.355695)scale(0.1 -0.1)">
       <use xlink:href="#DejaVuSans-48"/>
       <use x="63.623047" xlink:href="#DejaVuSans-46"/>
       <use x="95.410156" xlink:href="#DejaVuSans-53"/>
      </g>
     </g>
    </g>
    <g id="ytick_11">
     <g id="line2d_25">
      <g>
       <use style="stroke:#000000;stroke-width:0.8;" x="392.161364" xlink:href="#m6ac6e3afdd" y="50.164515"/>
      </g>
     </g>
     <g id="text_24">
      <!-- 1.0 -->
      <g transform="translate(369.258239 53.963734)scale(0.1 -0.1)">
       <use xlink:href="#DejaVuSans-49"/>
       <use x="63.623047" xlink:href="#DejaVuSans-46"/>
       <use x="95.410156" xlink:href="#DejaVuSans-48"/>
      </g>
     </g>
    </g>
    <g id="text_25">
     <!-- 1e−13 -->
     <g transform="translate(392.161364 19.318125)scale(0.1 -0.1)">
      <use xlink:href="#DejaVuSans-49"/>
      <use x="63.623047" xlink:href="#DejaVuSans-101"/>
      <use x="125.146484" xlink:href="#DejaVuSans-8722"/>
      <use x="208.935547" xlink:href="#DejaVuSans-49"/>
      <use x="272.558594" xlink:href="#DejaVuSans-51"/>
     </g>
    </g>
   </g>
   <g id="LineCollection_2">
    <path clip-path="url(#pc3bd1b0b00)" d="M 405.996074 130.948437 
L 405.996074 130.948437 
" style="fill:none;stroke:#1f77b4;stroke-width:1.5;"/>
    <path clip-path="url(#pc3bd1b0b00)" d="M 411.642895 130.948437 
L 411.642895 130.847538 
" style="fill:none;stroke:#1f77b4;stroke-width:1.5;"/>
    <path clip-path="url(#pc3bd1b0b00)" d="M 417.289716 130.948437 
L 417.289716 128.190526 
" style="fill:none;stroke:#1f77b4;stroke-width:1.5;"/>
    <path clip-path="url(#pc3bd1b0b00)" d="M 422.936537 130.948437 
L 422.936537 129.760069 
" style="fill:none;stroke:#1f77b4;stroke-width:1.5;"/>
    <path clip-path="url(#pc3bd1b0b00)" d="M 428.583357 130.948437 
L 428.583357 134.446275 
" style="fill:none;stroke:#1f77b4;stroke-width:1.5;"/>
    <path clip-path="url(#pc3bd1b0b00)" d="M 434.230178 130.948437 
L 434.230178 128.840765 
" style="fill:none;stroke:#1f77b4;stroke-width:1.5;"/>
    <path clip-path="url(#pc3bd1b0b00)" d="M 439.876999 130.948437 
L 439.876999 140.724447 
" style="fill:none;stroke:#1f77b4;stroke-width:1.5;"/>
    <path clip-path="url(#pc3bd1b0b00)" d="M 445.523819 130.948437 
L 445.523819 139.11006 
" style="fill:none;stroke:#1f77b4;stroke-width:1.5;"/>
    <path clip-path="url(#pc3bd1b0b00)" d="M 451.17064 130.948437 
L 451.17064 129.154673 
" style="fill:none;stroke:#1f77b4;stroke-width:1.5;"/>
    <path clip-path="url(#pc3bd1b0b00)" d="M 456.817461 130.948437 
L 456.817461 150.41077 
" style="fill:none;stroke:#1f77b4;stroke-width:1.5;"/>
    <path clip-path="url(#pc3bd1b0b00)" d="M 462.464281 130.948437 
L 462.464281 123.95276 
" style="fill:none;stroke:#1f77b4;stroke-width:1.5;"/>
    <path clip-path="url(#pc3bd1b0b00)" d="M 468.111102 130.948437 
L 468.111102 139.020372 
" style="fill:none;stroke:#1f77b4;stroke-width:1.5;"/>
    <path clip-path="url(#pc3bd1b0b00)" d="M 473.757923 130.948437 
L 473.757923 124.580577 
" style="fill:none;stroke:#1f77b4;stroke-width:1.5;"/>
    <path clip-path="url(#pc3bd1b0b00)" d="M 479.404744 130.948437 
L 479.404744 123.145566 
" style="fill:none;stroke:#1f77b4;stroke-width:1.5;"/>
    <path clip-path="url(#pc3bd1b0b00)" d="M 485.051564 130.948437 
L 485.051564 136.240039 
" style="fill:none;stroke:#1f77b4;stroke-width:1.5;"/>
    <path clip-path="url(#pc3bd1b0b00)" d="M 490.698385 130.948437 
L 490.698385 114.894254 
" style="fill:none;stroke:#1f77b4;stroke-width:1.5;"/>
    <path clip-path="url(#pc3bd1b0b00)" d="M 496.345206 130.948437 
L 496.345206 115.701448 
" style="fill:none;stroke:#1f77b4;stroke-width:1.5;"/>
    <path clip-path="url(#pc3bd1b0b00)" d="M 501.992026 130.948437 
L 501.992026 120.365233 
" style="fill:none;stroke:#1f77b4;stroke-width:1.5;"/>
    <path clip-path="url(#pc3bd1b0b00)" d="M 507.638847 130.948437 
L 507.638847 119.827104 
" style="fill:none;stroke:#1f77b4;stroke-width:1.5;"/>
    <path clip-path="url(#pc3bd1b0b00)" d="M 513.285668 130.948437 
L 513.285668 123.594007 
" style="fill:none;stroke:#1f77b4;stroke-width:1.5;"/>
    <path clip-path="url(#pc3bd1b0b00)" d="M 518.932489 130.948437 
L 518.932489 123.324942 
" style="fill:none;stroke:#1f77b4;stroke-width:1.5;"/>
    <path clip-path="url(#pc3bd1b0b00)" d="M 524.579309 130.948437 
L 524.579309 137.764738 
" style="fill:none;stroke:#1f77b4;stroke-width:1.5;"/>
    <path clip-path="url(#pc3bd1b0b00)" d="M 530.22613 130.948437 
L 530.22613 144.670727 
" style="fill:none;stroke:#1f77b4;stroke-width:1.5;"/>
    <path clip-path="url(#pc3bd1b0b00)" d="M 535.872951 130.948437 
L 535.872951 134.356587 
" style="fill:none;stroke:#1f77b4;stroke-width:1.5;"/>
    <path clip-path="url(#pc3bd1b0b00)" d="M 541.519771 130.948437 
L 541.519771 119.109598 
" style="fill:none;stroke:#1f77b4;stroke-width:1.5;"/>
    <path clip-path="url(#pc3bd1b0b00)" d="M 547.166592 130.948437 
L 547.166592 126.105276 
" style="fill:none;stroke:#1f77b4;stroke-width:1.5;"/>
    <path clip-path="url(#pc3bd1b0b00)" d="M 552.813413 130.948437 
L 552.813413 170.859673 
" style="fill:none;stroke:#1f77b4;stroke-width:1.5;"/>
    <path clip-path="url(#pc3bd1b0b00)" d="M 558.460234 130.948437 
L 558.460234 135.791598 
" style="fill:none;stroke:#1f77b4;stroke-width:1.5;"/>
    <path clip-path="url(#pc3bd1b0b00)" d="M 564.107054 130.948437 
L 564.107054 133.549394 
" style="fill:none;stroke:#1f77b4;stroke-width:1.5;"/>
    <path clip-path="url(#pc3bd1b0b00)" d="M 569.753875 130.948437 
L 569.753875 104.849179 
" style="fill:none;stroke:#1f77b4;stroke-width:1.5;"/>
    <path clip-path="url(#pc3bd1b0b00)" d="M 575.400696 130.948437 
L 575.400696 145.208856 
" style="fill:none;stroke:#1f77b4;stroke-width:1.5;"/>
    <path clip-path="url(#pc3bd1b0b00)" d="M 581.047516 130.948437 
L 581.047516 123.145566 
" style="fill:none;stroke:#1f77b4;stroke-width:1.5;"/>
    <path clip-path="url(#pc3bd1b0b00)" d="M 586.694337 130.948437 
L 586.694337 148.796383 
" style="fill:none;stroke:#1f77b4;stroke-width:1.5;"/>
    <path clip-path="url(#pc3bd1b0b00)" d="M 592.341158 130.948437 
L 592.341158 125.38777 
" style="fill:none;stroke:#1f77b4;stroke-width:1.5;"/>
    <path clip-path="url(#pc3bd1b0b00)" d="M 597.987979 130.948437 
L 597.987979 158.572393 
" style="fill:none;stroke:#1f77b4;stroke-width:1.5;"/>
    <path clip-path="url(#pc3bd1b0b00)" d="M 603.634799 130.948437 
L 603.634799 100.992588 
" style="fill:none;stroke:#1f77b4;stroke-width:1.5;"/>
    <path clip-path="url(#pc3bd1b0b00)" d="M 609.28162 130.948437 
L 609.28162 105.925437 
" style="fill:none;stroke:#1f77b4;stroke-width:1.5;"/>
    <path clip-path="url(#pc3bd1b0b00)" d="M 614.928441 130.948437 
L 614.928441 156.330189 
" style="fill:none;stroke:#1f77b4;stroke-width:1.5;"/>
    <path clip-path="url(#pc3bd1b0b00)" d="M 620.575261 130.948437 
L 620.575261 32.201761 
" style="fill:none;stroke:#1f77b4;stroke-width:1.5;"/>
    <path clip-path="url(#pc3bd1b0b00)" d="M 626.222082 130.948437 
L 626.222082 127.719663 
" style="fill:none;stroke:#1f77b4;stroke-width:1.5;"/>
    <path clip-path="url(#pc3bd1b0b00)" d="M 631.868903 130.948437 
L 631.868903 192.115769 
" style="fill:none;stroke:#1f77b4;stroke-width:1.5;"/>
    <path clip-path="url(#pc3bd1b0b00)" d="M 637.515724 130.948437 
L 637.515724 81.530255 
" style="fill:none;stroke:#1f77b4;stroke-width:1.5;"/>
    <path clip-path="url(#pc3bd1b0b00)" d="M 643.162544 130.948437 
L 643.162544 142.024926 
" style="fill:none;stroke:#1f77b4;stroke-width:1.5;"/>
    <path clip-path="url(#pc3bd1b0b00)" d="M 648.809365 130.948437 
L 648.809365 119.064754 
" style="fill:none;stroke:#1f77b4;stroke-width:1.5;"/>
    <path clip-path="url(#pc3bd1b0b00)" d="M 654.456186 130.948437 
L 654.456186 72.965035 
" style="fill:none;stroke:#1f77b4;stroke-width:1.5;"/>
    <path clip-path="url(#pc3bd1b0b00)" d="M 660.103006 130.948437 
L 660.103006 131.217501 
" style="fill:none;stroke:#1f77b4;stroke-width:1.5;"/>
    <path clip-path="url(#pc3bd1b0b00)" d="M 665.749827 130.948437 
L 665.749827 165.680181 
" style="fill:none;stroke:#1f77b4;stroke-width:1.5;"/>
    <path clip-path="url(#pc3bd1b0b00)" d="M 671.396648 130.948437 
L 671.396648 164.626345 
" style="fill:none;stroke:#1f77b4;stroke-width:1.5;"/>
    <path clip-path="url(#pc3bd1b0b00)" d="M 677.043469 130.948437 
L 677.043469 100.9029 
" style="fill:none;stroke:#1f77b4;stroke-width:1.5;"/>
    <path clip-path="url(#pc3bd1b0b00)" d="M 682.690289 130.948437 
L 682.690289 229.852067 
" style="fill:none;stroke:#1f77b4;stroke-width:1.5;"/>
   </g>
   <g id="line2d_26">
    <g clip-path="url(#pc3bd1b0b00)">
     <use style="fill:#1f77b4;stroke:#1f77b4;" x="405.996074" xlink:href="#m3fd6f5fc4f" y="130.948437"/>
     <use style="fill:#1f77b4;stroke:#1f77b4;" x="411.642895" xlink:href="#m3fd6f5fc4f" y="130.847538"/>
     <use style="fill:#1f77b4;stroke:#1f77b4;" x="417.289716" xlink:href="#m3fd6f5fc4f" y="128.190526"/>
     <use style="fill:#1f77b4;stroke:#1f77b4;" x="422.936537" xlink:href="#m3fd6f5fc4f" y="129.760069"/>
     <use style="fill:#1f77b4;stroke:#1f77b4;" x="428.583357" xlink:href="#m3fd6f5fc4f" y="134.446275"/>
     <use style="fill:#1f77b4;stroke:#1f77b4;" x="434.230178" xlink:href="#m3fd6f5fc4f" y="128.840765"/>
     <use style="fill:#1f77b4;stroke:#1f77b4;" x="439.876999" xlink:href="#m3fd6f5fc4f" y="140.724447"/>
     <use style="fill:#1f77b4;stroke:#1f77b4;" x="445.523819" xlink:href="#m3fd6f5fc4f" y="139.11006"/>
     <use style="fill:#1f77b4;stroke:#1f77b4;" x="451.17064" xlink:href="#m3fd6f5fc4f" y="129.154673"/>
     <use style="fill:#1f77b4;stroke:#1f77b4;" x="456.817461" xlink:href="#m3fd6f5fc4f" y="150.41077"/>
     <use style="fill:#1f77b4;stroke:#1f77b4;" x="462.464281" xlink:href="#m3fd6f5fc4f" y="123.95276"/>
     <use style="fill:#1f77b4;stroke:#1f77b4;" x="468.111102" xlink:href="#m3fd6f5fc4f" y="139.020372"/>
     <use style="fill:#1f77b4;stroke:#1f77b4;" x="473.757923" xlink:href="#m3fd6f5fc4f" y="124.580577"/>
     <use style="fill:#1f77b4;stroke:#1f77b4;" x="479.404744" xlink:href="#m3fd6f5fc4f" y="123.145566"/>
     <use style="fill:#1f77b4;stroke:#1f77b4;" x="485.051564" xlink:href="#m3fd6f5fc4f" y="136.240039"/>
     <use style="fill:#1f77b4;stroke:#1f77b4;" x="490.698385" xlink:href="#m3fd6f5fc4f" y="114.894254"/>
     <use style="fill:#1f77b4;stroke:#1f77b4;" x="496.345206" xlink:href="#m3fd6f5fc4f" y="115.701448"/>
     <use style="fill:#1f77b4;stroke:#1f77b4;" x="501.992026" xlink:href="#m3fd6f5fc4f" y="120.365233"/>
     <use style="fill:#1f77b4;stroke:#1f77b4;" x="507.638847" xlink:href="#m3fd6f5fc4f" y="119.827104"/>
     <use style="fill:#1f77b4;stroke:#1f77b4;" x="513.285668" xlink:href="#m3fd6f5fc4f" y="123.594007"/>
     <use style="fill:#1f77b4;stroke:#1f77b4;" x="518.932489" xlink:href="#m3fd6f5fc4f" y="123.324942"/>
     <use style="fill:#1f77b4;stroke:#1f77b4;" x="524.579309" xlink:href="#m3fd6f5fc4f" y="137.764738"/>
     <use style="fill:#1f77b4;stroke:#1f77b4;" x="530.22613" xlink:href="#m3fd6f5fc4f" y="144.670727"/>
     <use style="fill:#1f77b4;stroke:#1f77b4;" x="535.872951" xlink:href="#m3fd6f5fc4f" y="134.356587"/>
     <use style="fill:#1f77b4;stroke:#1f77b4;" x="541.519771" xlink:href="#m3fd6f5fc4f" y="119.109598"/>
     <use style="fill:#1f77b4;stroke:#1f77b4;" x="547.166592" xlink:href="#m3fd6f5fc4f" y="126.105276"/>
     <use style="fill:#1f77b4;stroke:#1f77b4;" x="552.813413" xlink:href="#m3fd6f5fc4f" y="170.859673"/>
     <use style="fill:#1f77b4;stroke:#1f77b4;" x="558.460234" xlink:href="#m3fd6f5fc4f" y="135.791598"/>
     <use style="fill:#1f77b4;stroke:#1f77b4;" x="564.107054" xlink:href="#m3fd6f5fc4f" y="133.549394"/>
     <use style="fill:#1f77b4;stroke:#1f77b4;" x="569.753875" xlink:href="#m3fd6f5fc4f" y="104.849179"/>
     <use style="fill:#1f77b4;stroke:#1f77b4;" x="575.400696" xlink:href="#m3fd6f5fc4f" y="145.208856"/>
     <use style="fill:#1f77b4;stroke:#1f77b4;" x="581.047516" xlink:href="#m3fd6f5fc4f" y="123.145566"/>
     <use style="fill:#1f77b4;stroke:#1f77b4;" x="586.694337" xlink:href="#m3fd6f5fc4f" y="148.796383"/>
     <use style="fill:#1f77b4;stroke:#1f77b4;" x="592.341158" xlink:href="#m3fd6f5fc4f" y="125.38777"/>
     <use style="fill:#1f77b4;stroke:#1f77b4;" x="597.987979" xlink:href="#m3fd6f5fc4f" y="158.572393"/>
     <use style="fill:#1f77b4;stroke:#1f77b4;" x="603.634799" xlink:href="#m3fd6f5fc4f" y="100.992588"/>
     <use style="fill:#1f77b4;stroke:#1f77b4;" x="609.28162" xlink:href="#m3fd6f5fc4f" y="105.925437"/>
     <use style="fill:#1f77b4;stroke:#1f77b4;" x="614.928441" xlink:href="#m3fd6f5fc4f" y="156.330189"/>
     <use style="fill:#1f77b4;stroke:#1f77b4;" x="620.575261" xlink:href="#m3fd6f5fc4f" y="32.201761"/>
     <use style="fill:#1f77b4;stroke:#1f77b4;" x="626.222082" xlink:href="#m3fd6f5fc4f" y="127.719663"/>
     <use style="fill:#1f77b4;stroke:#1f77b4;" x="631.868903" xlink:href="#m3fd6f5fc4f" y="192.115769"/>
     <use style="fill:#1f77b4;stroke:#1f77b4;" x="637.515724" xlink:href="#m3fd6f5fc4f" y="81.530255"/>
     <use style="fill:#1f77b4;stroke:#1f77b4;" x="643.162544" xlink:href="#m3fd6f5fc4f" y="142.024926"/>
     <use style="fill:#1f77b4;stroke:#1f77b4;" x="648.809365" xlink:href="#m3fd6f5fc4f" y="119.064754"/>
     <use style="fill:#1f77b4;stroke:#1f77b4;" x="654.456186" xlink:href="#m3fd6f5fc4f" y="72.965035"/>
     <use style="fill:#1f77b4;stroke:#1f77b4;" x="660.103006" xlink:href="#m3fd6f5fc4f" y="131.217501"/>
     <use style="fill:#1f77b4;stroke:#1f77b4;" x="665.749827" xlink:href="#m3fd6f5fc4f" y="165.680181"/>
     <use style="fill:#1f77b4;stroke:#1f77b4;" x="671.396648" xlink:href="#m3fd6f5fc4f" y="164.626345"/>
     <use style="fill:#1f77b4;stroke:#1f77b4;" x="677.043469" xlink:href="#m3fd6f5fc4f" y="100.9029"/>
     <use style="fill:#1f77b4;stroke:#1f77b4;" x="682.690289" xlink:href="#m3fd6f5fc4f" y="229.852067"/>
    </g>
   </g>
   <g id="line2d_27">
    <path clip-path="url(#pc3bd1b0b00)" d="M 405.996074 130.948437 
L 682.690289 130.948437 
" style="fill:none;stroke:#d62728;stroke-linecap:square;stroke-width:1.5;"/>
   </g>
   <g id="patch_8">
    <path d="M 392.161364 239.758125 
L 392.161364 22.318125 
" style="fill:none;stroke:#000000;stroke-linecap:square;stroke-linejoin:miter;stroke-width:0.8;"/>
   </g>
   <g id="patch_9">
    <path d="M 696.525 239.758125 
L 696.525 22.318125 
" style="fill:none;stroke:#000000;stroke-linecap:square;stroke-linejoin:miter;stroke-width:0.8;"/>
   </g>
   <g id="patch_10">
    <path d="M 392.161364 239.758125 
L 696.525 239.758125 
" style="fill:none;stroke:#000000;stroke-linecap:square;stroke-linejoin:miter;stroke-width:0.8;"/>
   </g>
   <g id="patch_11">
    <path d="M 392.161364 22.318125 
L 696.525 22.318125 
" style="fill:none;stroke:#000000;stroke-linecap:square;stroke-linejoin:miter;stroke-width:0.8;"/>
   </g>
   <g id="text_26">
    <!-- Sine Product Sums -->
    <g transform="translate(488.199119 16.318125)scale(0.12 -0.12)">
     <use xlink:href="#DejaVuSans-83"/>
     <use x="63.476562" xlink:href="#DejaVuSans-105"/>
     <use x="91.259766" xlink:href="#DejaVuSans-110"/>
     <use x="154.638672" xlink:href="#DejaVuSans-101"/>
     <use x="216.162109" xlink:href="#DejaVuSans-32"/>
     <use x="247.949219" xlink:href="#DejaVuSans-80"/>
     <use x="306.501953" xlink:href="#DejaVuSans-114"/>
     <use x="345.365234" xlink:href="#DejaVuSans-111"/>
     <use x="406.546875" xlink:href="#DejaVuSans-100"/>
     <use x="470.023438" xlink:href="#DejaVuSans-117"/>
     <use x="533.402344" xlink:href="#DejaVuSans-99"/>
     <use x="588.382812" xlink:href="#DejaVuSans-116"/>
     <use x="627.591797" xlink:href="#DejaVuSans-32"/>
     <use x="659.378906" xlink:href="#DejaVuSans-83"/>
     <use x="722.855469" xlink:href="#DejaVuSans-117"/>
     <use x="786.234375" xlink:href="#DejaVuSans-109"/>
     <use x="883.646484" xlink:href="#DejaVuSans-115"/>
    </g>
   </g>
  </g>
 </g>
 <defs>
  <clipPath id="pc43dfd9b0a">
   <rect height="217.44" width="304.363636" x="26.925" y="22.318125"/>
  </clipPath>
  <clipPath id="pc3bd1b0b00">
   <rect height="217.44" width="304.363636" x="392.161364" y="22.318125"/>
  </clipPath>
 </defs>
</svg>
