<?xml version="1.0" encoding="utf-8" standalone="no"?>
<!DOCTYPE svg PUBLIC "-//W3C//DTD SVG 1.1//EN"
  "http://www.w3.org/Graphics/SVG/1.1/DTD/svg11.dtd">
<svg xmlns:xlink="http://www.w3.org/1999/xlink" width="712.191875pt" height="712.474375pt" viewBox="0 0 712.191875 712.474375" xmlns="http://www.w3.org/2000/svg" version="1.1">
 <metadata>
  <rdf:RDF xmlns:dc="http://purl.org/dc/elements/1.1/" xmlns:cc="http://creativecommons.org/ns#" xmlns:rdf="http://www.w3.org/1999/02/22-rdf-syntax-ns#">
   <cc:Work>
    <dc:type rdf:resource="http://purl.org/dc/dcmitype/StillImage"/>
    <dc:date>2023-03-19T14:15:24.106521</dc:date>
    <dc:format>image/svg+xml</dc:format>
    <dc:creator>
     <cc:Agent>
      <dc:title>Matplotlib v3.5.2, https://matplotlib.org/</dc:title>
     </cc:Agent>
    </dc:creator>
   </cc:Work>
  </rdf:RDF>
 </metadata>
 <defs>
  <style type="text/css">*{stroke-linejoin: round; stroke-linecap: butt}</style>
 </defs>
 <g id="figure_1">
  <g id="patch_1">
   <path d="M 0 712.474375 
L 712.191875 712.474375 
L 712.191875 0 
L 0 0 
z
" style="fill: #ffffff"/>
  </g>
  <g id="axes_1">
   <g id="patch_2">
    <path d="M 66.053125 143.018125 
L 695.448125 143.018125 
L 695.448125 22.318125 
L 66.053125 22.318125 
z
" style="fill: #ffffff"/>
   </g>
   <g id="matplotlib.axis_1">
    <g id="xtick_1">
     <g id="line2d_1">
      <defs>
       <path id="m53c620a412" d="M 0 0 
L 0 3.5 
" style="stroke: #000000; stroke-width: 0.8"/>
      </defs>
      <g>
       <use xlink:href="#m53c620a412" x="66.053125" y="143.018125" style="stroke: #000000; stroke-width: 0.8"/>
      </g>
     </g>
     <g id="text_1">
      <!-- 0 -->
      <g transform="translate(62.871875 157.616563)scale(0.1 -0.1)">
       <defs>
        <path id="DejaVuSans-30" d="M 2034 4250 
Q 1547 4250 1301 3770 
Q 1056 3291 1056 2328 
Q 1056 1369 1301 889 
Q 1547 409 2034 409 
Q 2525 409 2770 889 
Q 3016 1369 3016 2328 
Q 3016 3291 2770 3770 
Q 2525 4250 2034 4250 
z
M 2034 4750 
Q 2819 4750 3233 4129 
Q 3647 3509 3647 2328 
Q 3647 1150 3233 529 
Q 2819 -91 2034 -91 
Q 1250 -91 836 529 
Q 422 1150 422 2328 
Q 422 3509 836 4129 
Q 1250 4750 2034 4750 
z
" transform="scale(0.015625)"/>
       </defs>
       <use xlink:href="#DejaVuSans-30"/>
      </g>
     </g>
    </g>
    <g id="xtick_2">
     <g id="line2d_2">
      <g>
       <use xlink:href="#m53c620a412" x="144.7275" y="143.018125" style="stroke: #000000; stroke-width: 0.8"/>
      </g>
     </g>
     <g id="text_2">
      <!-- 50 -->
      <g transform="translate(138.365 157.616563)scale(0.1 -0.1)">
       <defs>
        <path id="DejaVuSans-35" d="M 691 4666 
L 3169 4666 
L 3169 4134 
L 1269 4134 
L 1269 2991 
Q 1406 3038 1543 3061 
Q 1681 3084 1819 3084 
Q 2600 3084 3056 2656 
Q 3513 2228 3513 1497 
Q 3513 744 3044 326 
Q 2575 -91 1722 -91 
Q 1428 -91 1123 -41 
Q 819 9 494 109 
L 494 744 
Q 775 591 1075 516 
Q 1375 441 1709 441 
Q 2250 441 2565 725 
Q 2881 1009 2881 1497 
Q 2881 1984 2565 2268 
Q 2250 2553 1709 2553 
Q 1456 2553 1204 2497 
Q 953 2441 691 2322 
L 691 4666 
z
" transform="scale(0.015625)"/>
       </defs>
       <use xlink:href="#DejaVuSans-35"/>
       <use xlink:href="#DejaVuSans-30" x="63.623047"/>
      </g>
     </g>
    </g>
    <g id="xtick_3">
     <g id="line2d_3">
      <g>
       <use xlink:href="#m53c620a412" x="223.401875" y="143.018125" style="stroke: #000000; stroke-width: 0.8"/>
      </g>
     </g>
     <g id="text_3">
      <!-- 100 -->
      <g transform="translate(213.858125 157.616563)scale(0.1 -0.1)">
       <defs>
        <path id="DejaVuSans-31" d="M 794 531 
L 1825 531 
L 1825 4091 
L 703 3866 
L 703 4441 
L 1819 4666 
L 2450 4666 
L 2450 531 
L 3481 531 
L 3481 0 
L 794 0 
L 794 531 
z
" transform="scale(0.015625)"/>
       </defs>
       <use xlink:href="#DejaVuSans-31"/>
       <use xlink:href="#DejaVuSans-30" x="63.623047"/>
       <use xlink:href="#DejaVuSans-30" x="127.246094"/>
      </g>
     </g>
    </g>
    <g id="xtick_4">
     <g id="line2d_4">
      <g>
       <use xlink:href="#m53c620a412" x="302.07625" y="143.018125" style="stroke: #000000; stroke-width: 0.8"/>
      </g>
     </g>
     <g id="text_4">
      <!-- 150 -->
      <g transform="translate(292.5325 157.616563)scale(0.1 -0.1)">
       <use xlink:href="#DejaVuSans-31"/>
       <use xlink:href="#DejaVuSans-35" x="63.623047"/>
       <use xlink:href="#DejaVuSans-30" x="127.246094"/>
      </g>
     </g>
    </g>
    <g id="xtick_5">
     <g id="line2d_5">
      <g>
       <use xlink:href="#m53c620a412" x="380.750625" y="143.018125" style="stroke: #000000; stroke-width: 0.8"/>
      </g>
     </g>
     <g id="text_5">
      <!-- 200 -->
      <g transform="translate(371.206875 157.616563)scale(0.1 -0.1)">
       <defs>
        <path id="DejaVuSans-32" d="M 1228 531 
L 3431 531 
L 3431 0 
L 469 0 
L 469 531 
Q 828 903 1448 1529 
Q 2069 2156 2228 2338 
Q 2531 2678 2651 2914 
Q 2772 3150 2772 3378 
Q 2772 3750 2511 3984 
Q 2250 4219 1831 4219 
Q 1534 4219 1204 4116 
Q 875 4013 500 3803 
L 500 4441 
Q 881 4594 1212 4672 
Q 1544 4750 1819 4750 
Q 2544 4750 2975 4387 
Q 3406 4025 3406 3419 
Q 3406 3131 3298 2873 
Q 3191 2616 2906 2266 
Q 2828 2175 2409 1742 
Q 1991 1309 1228 531 
z
" transform="scale(0.015625)"/>
       </defs>
       <use xlink:href="#DejaVuSans-32"/>
       <use xlink:href="#DejaVuSans-30" x="63.623047"/>
       <use xlink:href="#DejaVuSans-30" x="127.246094"/>
      </g>
     </g>
    </g>
    <g id="xtick_6">
     <g id="line2d_6">
      <g>
       <use xlink:href="#m53c620a412" x="459.425" y="143.018125" style="stroke: #000000; stroke-width: 0.8"/>
      </g>
     </g>
     <g id="text_6">
      <!-- 250 -->
      <g transform="translate(449.88125 157.616563)scale(0.1 -0.1)">
       <use xlink:href="#DejaVuSans-32"/>
       <use xlink:href="#DejaVuSans-35" x="63.623047"/>
       <use xlink:href="#DejaVuSans-30" x="127.246094"/>
      </g>
     </g>
    </g>
    <g id="xtick_7">
     <g id="line2d_7">
      <g>
       <use xlink:href="#m53c620a412" x="538.099375" y="143.018125" style="stroke: #000000; stroke-width: 0.8"/>
      </g>
     </g>
     <g id="text_7">
      <!-- 300 -->
      <g transform="translate(528.555625 157.616563)scale(0.1 -0.1)">
       <defs>
        <path id="DejaVuSans-33" d="M 2597 2516 
Q 3050 2419 3304 2112 
Q 3559 1806 3559 1356 
Q 3559 666 3084 287 
Q 2609 -91 1734 -91 
Q 1441 -91 1130 -33 
Q 819 25 488 141 
L 488 750 
Q 750 597 1062 519 
Q 1375 441 1716 441 
Q 2309 441 2620 675 
Q 2931 909 2931 1356 
Q 2931 1769 2642 2001 
Q 2353 2234 1838 2234 
L 1294 2234 
L 1294 2753 
L 1863 2753 
Q 2328 2753 2575 2939 
Q 2822 3125 2822 3475 
Q 2822 3834 2567 4026 
Q 2313 4219 1838 4219 
Q 1578 4219 1281 4162 
Q 984 4106 628 3988 
L 628 4550 
Q 988 4650 1302 4700 
Q 1616 4750 1894 4750 
Q 2613 4750 3031 4423 
Q 3450 4097 3450 3541 
Q 3450 3153 3228 2886 
Q 3006 2619 2597 2516 
z
" transform="scale(0.015625)"/>
       </defs>
       <use xlink:href="#DejaVuSans-33"/>
       <use xlink:href="#DejaVuSans-30" x="63.623047"/>
       <use xlink:href="#DejaVuSans-30" x="127.246094"/>
      </g>
     </g>
    </g>
    <g id="xtick_8">
     <g id="line2d_8">
      <g>
       <use xlink:href="#m53c620a412" x="616.77375" y="143.018125" style="stroke: #000000; stroke-width: 0.8"/>
      </g>
     </g>
     <g id="text_8">
      <!-- 350 -->
      <g transform="translate(607.23 157.616563)scale(0.1 -0.1)">
       <use xlink:href="#DejaVuSans-33"/>
       <use xlink:href="#DejaVuSans-35" x="63.623047"/>
       <use xlink:href="#DejaVuSans-30" x="127.246094"/>
      </g>
     </g>
    </g>
    <g id="xtick_9">
     <g id="line2d_9">
      <g>
       <use xlink:href="#m53c620a412" x="695.448125" y="143.018125" style="stroke: #000000; stroke-width: 0.8"/>
      </g>
     </g>
     <g id="text_9">
      <!-- 400 -->
      <g transform="translate(685.904375 157.616563)scale(0.1 -0.1)">
       <defs>
        <path id="DejaVuSans-34" d="M 2419 4116 
L 825 1625 
L 2419 1625 
L 2419 4116 
z
M 2253 4666 
L 3047 4666 
L 3047 1625 
L 3713 1625 
L 3713 1100 
L 3047 1100 
L 3047 0 
L 2419 0 
L 2419 1100 
L 313 1100 
L 313 1709 
L 2253 4666 
z
" transform="scale(0.015625)"/>
       </defs>
       <use xlink:href="#DejaVuSans-34"/>
       <use xlink:href="#DejaVuSans-30" x="63.623047"/>
       <use xlink:href="#DejaVuSans-30" x="127.246094"/>
      </g>
     </g>
    </g>
    <g id="text_10">
     <!-- Shift (Period Index) -->
     <g transform="translate(332.951406 171.294688)scale(0.1 -0.1)">
      <defs>
       <path id="DejaVuSans-53" d="M 3425 4513 
L 3425 3897 
Q 3066 4069 2747 4153 
Q 2428 4238 2131 4238 
Q 1616 4238 1336 4038 
Q 1056 3838 1056 3469 
Q 1056 3159 1242 3001 
Q 1428 2844 1947 2747 
L 2328 2669 
Q 3034 2534 3370 2195 
Q 3706 1856 3706 1288 
Q 3706 609 3251 259 
Q 2797 -91 1919 -91 
Q 1588 -91 1214 -16 
Q 841 59 441 206 
L 441 856 
Q 825 641 1194 531 
Q 1563 422 1919 422 
Q 2459 422 2753 634 
Q 3047 847 3047 1241 
Q 3047 1584 2836 1778 
Q 2625 1972 2144 2069 
L 1759 2144 
Q 1053 2284 737 2584 
Q 422 2884 422 3419 
Q 422 4038 858 4394 
Q 1294 4750 2059 4750 
Q 2388 4750 2728 4690 
Q 3069 4631 3425 4513 
z
" transform="scale(0.015625)"/>
       <path id="DejaVuSans-68" d="M 3513 2113 
L 3513 0 
L 2938 0 
L 2938 2094 
Q 2938 2591 2744 2837 
Q 2550 3084 2163 3084 
Q 1697 3084 1428 2787 
Q 1159 2491 1159 1978 
L 1159 0 
L 581 0 
L 581 4863 
L 1159 4863 
L 1159 2956 
Q 1366 3272 1645 3428 
Q 1925 3584 2291 3584 
Q 2894 3584 3203 3211 
Q 3513 2838 3513 2113 
z
" transform="scale(0.015625)"/>
       <path id="DejaVuSans-69" d="M 603 3500 
L 1178 3500 
L 1178 0 
L 603 0 
L 603 3500 
z
M 603 4863 
L 1178 4863 
L 1178 4134 
L 603 4134 
L 603 4863 
z
" transform="scale(0.015625)"/>
       <path id="DejaVuSans-66" d="M 2375 4863 
L 2375 4384 
L 1825 4384 
Q 1516 4384 1395 4259 
Q 1275 4134 1275 3809 
L 1275 3500 
L 2222 3500 
L 2222 3053 
L 1275 3053 
L 1275 0 
L 697 0 
L 697 3053 
L 147 3053 
L 147 3500 
L 697 3500 
L 697 3744 
Q 697 4328 969 4595 
Q 1241 4863 1831 4863 
L 2375 4863 
z
" transform="scale(0.015625)"/>
       <path id="DejaVuSans-74" d="M 1172 4494 
L 1172 3500 
L 2356 3500 
L 2356 3053 
L 1172 3053 
L 1172 1153 
Q 1172 725 1289 603 
Q 1406 481 1766 481 
L 2356 481 
L 2356 0 
L 1766 0 
Q 1100 0 847 248 
Q 594 497 594 1153 
L 594 3053 
L 172 3053 
L 172 3500 
L 594 3500 
L 594 4494 
L 1172 4494 
z
" transform="scale(0.015625)"/>
       <path id="DejaVuSans-20" transform="scale(0.015625)"/>
       <path id="DejaVuSans-28" d="M 1984 4856 
Q 1566 4138 1362 3434 
Q 1159 2731 1159 2009 
Q 1159 1288 1364 580 
Q 1569 -128 1984 -844 
L 1484 -844 
Q 1016 -109 783 600 
Q 550 1309 550 2009 
Q 550 2706 781 3412 
Q 1013 4119 1484 4856 
L 1984 4856 
z
" transform="scale(0.015625)"/>
       <path id="DejaVuSans-50" d="M 1259 4147 
L 1259 2394 
L 2053 2394 
Q 2494 2394 2734 2622 
Q 2975 2850 2975 3272 
Q 2975 3691 2734 3919 
Q 2494 4147 2053 4147 
L 1259 4147 
z
M 628 4666 
L 2053 4666 
Q 2838 4666 3239 4311 
Q 3641 3956 3641 3272 
Q 3641 2581 3239 2228 
Q 2838 1875 2053 1875 
L 1259 1875 
L 1259 0 
L 628 0 
L 628 4666 
z
" transform="scale(0.015625)"/>
       <path id="DejaVuSans-65" d="M 3597 1894 
L 3597 1613 
L 953 1613 
Q 991 1019 1311 708 
Q 1631 397 2203 397 
Q 2534 397 2845 478 
Q 3156 559 3463 722 
L 3463 178 
Q 3153 47 2828 -22 
Q 2503 -91 2169 -91 
Q 1331 -91 842 396 
Q 353 884 353 1716 
Q 353 2575 817 3079 
Q 1281 3584 2069 3584 
Q 2775 3584 3186 3129 
Q 3597 2675 3597 1894 
z
M 3022 2063 
Q 3016 2534 2758 2815 
Q 2500 3097 2075 3097 
Q 1594 3097 1305 2825 
Q 1016 2553 972 2059 
L 3022 2063 
z
" transform="scale(0.015625)"/>
       <path id="DejaVuSans-72" d="M 2631 2963 
Q 2534 3019 2420 3045 
Q 2306 3072 2169 3072 
Q 1681 3072 1420 2755 
Q 1159 2438 1159 1844 
L 1159 0 
L 581 0 
L 581 3500 
L 1159 3500 
L 1159 2956 
Q 1341 3275 1631 3429 
Q 1922 3584 2338 3584 
Q 2397 3584 2469 3576 
Q 2541 3569 2628 3553 
L 2631 2963 
z
" transform="scale(0.015625)"/>
       <path id="DejaVuSans-6f" d="M 1959 3097 
Q 1497 3097 1228 2736 
Q 959 2375 959 1747 
Q 959 1119 1226 758 
Q 1494 397 1959 397 
Q 2419 397 2687 759 
Q 2956 1122 2956 1747 
Q 2956 2369 2687 2733 
Q 2419 3097 1959 3097 
z
M 1959 3584 
Q 2709 3584 3137 3096 
Q 3566 2609 3566 1747 
Q 3566 888 3137 398 
Q 2709 -91 1959 -91 
Q 1206 -91 779 398 
Q 353 888 353 1747 
Q 353 2609 779 3096 
Q 1206 3584 1959 3584 
z
" transform="scale(0.015625)"/>
       <path id="DejaVuSans-64" d="M 2906 2969 
L 2906 4863 
L 3481 4863 
L 3481 0 
L 2906 0 
L 2906 525 
Q 2725 213 2448 61 
Q 2172 -91 1784 -91 
Q 1150 -91 751 415 
Q 353 922 353 1747 
Q 353 2572 751 3078 
Q 1150 3584 1784 3584 
Q 2172 3584 2448 3432 
Q 2725 3281 2906 2969 
z
M 947 1747 
Q 947 1113 1208 752 
Q 1469 391 1925 391 
Q 2381 391 2643 752 
Q 2906 1113 2906 1747 
Q 2906 2381 2643 2742 
Q 2381 3103 1925 3103 
Q 1469 3103 1208 2742 
Q 947 2381 947 1747 
z
" transform="scale(0.015625)"/>
       <path id="DejaVuSans-49" d="M 628 4666 
L 1259 4666 
L 1259 0 
L 628 0 
L 628 4666 
z
" transform="scale(0.015625)"/>
       <path id="DejaVuSans-6e" d="M 3513 2113 
L 3513 0 
L 2938 0 
L 2938 2094 
Q 2938 2591 2744 2837 
Q 2550 3084 2163 3084 
Q 1697 3084 1428 2787 
Q 1159 2491 1159 1978 
L 1159 0 
L 581 0 
L 581 3500 
L 1159 3500 
L 1159 2956 
Q 1366 3272 1645 3428 
Q 1925 3584 2291 3584 
Q 2894 3584 3203 3211 
Q 3513 2838 3513 2113 
z
" transform="scale(0.015625)"/>
       <path id="DejaVuSans-78" d="M 3513 3500 
L 2247 1797 
L 3578 0 
L 2900 0 
L 1881 1375 
L 863 0 
L 184 0 
L 1544 1831 
L 300 3500 
L 978 3500 
L 1906 2253 
L 2834 3500 
L 3513 3500 
z
" transform="scale(0.015625)"/>
       <path id="DejaVuSans-29" d="M 513 4856 
L 1013 4856 
Q 1481 4119 1714 3412 
Q 1947 2706 1947 2009 
Q 1947 1309 1714 600 
Q 1481 -109 1013 -844 
L 513 -844 
Q 928 -128 1133 580 
Q 1338 1288 1338 2009 
Q 1338 2731 1133 3434 
Q 928 4138 513 4856 
z
" transform="scale(0.015625)"/>
      </defs>
      <use xlink:href="#DejaVuSans-53"/>
      <use xlink:href="#DejaVuSans-68" x="63.476562"/>
      <use xlink:href="#DejaVuSans-69" x="126.855469"/>
      <use xlink:href="#DejaVuSans-66" x="154.638672"/>
      <use xlink:href="#DejaVuSans-74" x="188.09375"/>
      <use xlink:href="#DejaVuSans-20" x="227.302734"/>
      <use xlink:href="#DejaVuSans-28" x="259.089844"/>
      <use xlink:href="#DejaVuSans-50" x="298.103516"/>
      <use xlink:href="#DejaVuSans-65" x="354.78125"/>
      <use xlink:href="#DejaVuSans-72" x="416.304688"/>
      <use xlink:href="#DejaVuSans-69" x="457.417969"/>
      <use xlink:href="#DejaVuSans-6f" x="485.201172"/>
      <use xlink:href="#DejaVuSans-64" x="546.382812"/>
      <use xlink:href="#DejaVuSans-20" x="609.859375"/>
      <use xlink:href="#DejaVuSans-49" x="641.646484"/>
      <use xlink:href="#DejaVuSans-6e" x="671.138672"/>
      <use xlink:href="#DejaVuSans-64" x="734.517578"/>
      <use xlink:href="#DejaVuSans-65" x="797.994141"/>
      <use xlink:href="#DejaVuSans-78" x="857.767578"/>
      <use xlink:href="#DejaVuSans-29" x="916.947266"/>
     </g>
    </g>
   </g>
   <g id="matplotlib.axis_2">
    <g id="ytick_1">
     <g id="line2d_10">
      <defs>
       <path id="m326e670398" d="M 0 0 
L -3.5 0 
" style="stroke: #000000; stroke-width: 0.8"/>
      </defs>
      <g>
       <use xlink:href="#m326e670398" x="66.053125" y="121.327602" style="stroke: #000000; stroke-width: 0.8"/>
      </g>
     </g>
     <g id="text_11">
      <!-- 0 -->
      <g transform="translate(52.690625 125.126821)scale(0.1 -0.1)">
       <use xlink:href="#DejaVuSans-30"/>
      </g>
     </g>
    </g>
    <g id="ytick_2">
     <g id="line2d_11">
      <g>
       <use xlink:href="#m326e670398" x="66.053125" y="83.267672" style="stroke: #000000; stroke-width: 0.8"/>
      </g>
     </g>
     <g id="text_12">
      <!-- 100000 -->
      <g transform="translate(20.878125 87.066891)scale(0.1 -0.1)">
       <use xlink:href="#DejaVuSans-31"/>
       <use xlink:href="#DejaVuSans-30" x="63.623047"/>
       <use xlink:href="#DejaVuSans-30" x="127.246094"/>
       <use xlink:href="#DejaVuSans-30" x="190.869141"/>
       <use xlink:href="#DejaVuSans-30" x="254.492188"/>
       <use xlink:href="#DejaVuSans-30" x="318.115234"/>
      </g>
     </g>
    </g>
    <g id="ytick_3">
     <g id="line2d_12">
      <g>
       <use xlink:href="#m326e670398" x="66.053125" y="45.207742" style="stroke: #000000; stroke-width: 0.8"/>
      </g>
     </g>
     <g id="text_13">
      <!-- 200000 -->
      <g transform="translate(20.878125 49.006961)scale(0.1 -0.1)">
       <use xlink:href="#DejaVuSans-32"/>
       <use xlink:href="#DejaVuSans-30" x="63.623047"/>
       <use xlink:href="#DejaVuSans-30" x="127.246094"/>
       <use xlink:href="#DejaVuSans-30" x="190.869141"/>
       <use xlink:href="#DejaVuSans-30" x="254.492188"/>
       <use xlink:href="#DejaVuSans-30" x="318.115234"/>
      </g>
     </g>
    </g>
    <g id="text_14">
     <!-- Dot Product -->
     <g transform="translate(14.798438 112.10875)rotate(-90)scale(0.1 -0.1)">
      <defs>
       <path id="DejaVuSans-44" d="M 1259 4147 
L 1259 519 
L 2022 519 
Q 2988 519 3436 956 
Q 3884 1394 3884 2338 
Q 3884 3275 3436 3711 
Q 2988 4147 2022 4147 
L 1259 4147 
z
M 628 4666 
L 1925 4666 
Q 3281 4666 3915 4102 
Q 4550 3538 4550 2338 
Q 4550 1131 3912 565 
Q 3275 0 1925 0 
L 628 0 
L 628 4666 
z
" transform="scale(0.015625)"/>
       <path id="DejaVuSans-75" d="M 544 1381 
L 544 3500 
L 1119 3500 
L 1119 1403 
Q 1119 906 1312 657 
Q 1506 409 1894 409 
Q 2359 409 2629 706 
Q 2900 1003 2900 1516 
L 2900 3500 
L 3475 3500 
L 3475 0 
L 2900 0 
L 2900 538 
Q 2691 219 2414 64 
Q 2138 -91 1772 -91 
Q 1169 -91 856 284 
Q 544 659 544 1381 
z
M 1991 3584 
L 1991 3584 
z
" transform="scale(0.015625)"/>
       <path id="DejaVuSans-63" d="M 3122 3366 
L 3122 2828 
Q 2878 2963 2633 3030 
Q 2388 3097 2138 3097 
Q 1578 3097 1268 2742 
Q 959 2388 959 1747 
Q 959 1106 1268 751 
Q 1578 397 2138 397 
Q 2388 397 2633 464 
Q 2878 531 3122 666 
L 3122 134 
Q 2881 22 2623 -34 
Q 2366 -91 2075 -91 
Q 1284 -91 818 406 
Q 353 903 353 1747 
Q 353 2603 823 3093 
Q 1294 3584 2113 3584 
Q 2378 3584 2631 3529 
Q 2884 3475 3122 3366 
z
" transform="scale(0.015625)"/>
      </defs>
      <use xlink:href="#DejaVuSans-44"/>
      <use xlink:href="#DejaVuSans-6f" x="77.001953"/>
      <use xlink:href="#DejaVuSans-74" x="138.183594"/>
      <use xlink:href="#DejaVuSans-20" x="177.392578"/>
      <use xlink:href="#DejaVuSans-50" x="209.179688"/>
      <use xlink:href="#DejaVuSans-72" x="267.732422"/>
      <use xlink:href="#DejaVuSans-6f" x="306.595703"/>
      <use xlink:href="#DejaVuSans-64" x="367.777344"/>
      <use xlink:href="#DejaVuSans-75" x="431.253906"/>
      <use xlink:href="#DejaVuSans-63" x="494.632812"/>
      <use xlink:href="#DejaVuSans-74" x="549.613281"/>
     </g>
    </g>
   </g>
   <g id="line2d_13">
    <path d="M 66.053125 27.804489 
L 67.626613 44.189031 
L 70.773588 89.343053 
L 72.347075 107.624009 
L 73.920563 114.947089 
L 77.067538 123.006201 
L 78.641025 128.284686 
L 80.214513 131.839452 
L 81.788 134.175635 
L 83.361488 136.183904 
L 84.934975 137.01912 
L 86.508463 137.531761 
L 88.08195 137.25895 
L 89.655438 136.795054 
L 91.228925 136.564399 
L 95.949388 131.881176 
L 100.66985 120.28426 
L 102.243338 113.757882 
L 103.816825 107.997434 
L 105.390313 103.294562 
L 106.9638 101.365687 
L 108.537288 103.58511 
L 110.110775 108.206184 
L 111.684263 114.411491 
L 113.25775 119.488668 
L 114.831238 123.641615 
L 116.404725 126.545603 
L 117.978213 128.510626 
L 122.698675 135.870765 
L 124.272163 136.897826 
L 125.84565 136.924009 
L 127.419138 135.771863 
L 128.992625 133.709803 
L 130.566113 132.060896 
L 132.1396 131.538656 
L 133.713088 130.142497 
L 135.286575 127.274297 
L 136.860063 123.604419 
L 138.43355 118.169082 
L 140.007038 111.894788 
L 141.580525 107.513551 
L 143.154013 105.535262 
L 144.7275 106.063392 
L 146.300988 109.224149 
L 149.447963 119.526564 
L 151.02145 124.035329 
L 152.594938 127.995571 
L 154.168425 130.12295 
L 157.3154 132.908298 
L 158.888888 133.86699 
L 160.462375 134.590512 
L 162.035863 135.077259 
L 163.60935 135.811334 
L 165.182838 136.349413 
L 166.756325 136.084791 
L 168.329813 135.628144 
L 169.9033 134.440672 
L 171.476788 132.599814 
L 173.050275 129.619211 
L 174.623762 125.80398 
L 176.19725 120.946445 
L 177.770737 113.851427 
L 179.344225 104.159635 
L 182.4912 82.421206 
L 184.064687 75.770223 
L 185.638175 75.340251 
L 187.211662 80.545602 
L 188.78515 88.900942 
L 190.358637 98.234382 
L 191.932125 106.333096 
L 193.505612 113.02002 
L 195.0791 118.611028 
L 196.652587 123.532202 
L 198.226075 127.686012 
L 199.799562 130.999872 
L 201.37305 133.248614 
L 202.946537 134.910755 
L 204.520025 136.033503 
L 206.093512 136.477547 
L 207.667 136.466966 
L 209.240488 135.802352 
L 213.96095 130.969091 
L 215.534438 129.180963 
L 217.107925 126.802479 
L 218.681413 123.956544 
L 220.2549 121.414661 
L 224.975363 110.958865 
L 226.54885 109.507304 
L 228.122338 110.712399 
L 229.695825 113.934602 
L 231.269313 118.056555 
L 232.8428 121.259212 
L 235.989775 126.316948 
L 237.563263 129.348248 
L 240.710238 133.745153 
L 242.283725 134.57643 
L 243.857213 134.268839 
L 245.4307 133.371122 
L 248.577675 130.451069 
L 250.151162 129.020851 
L 251.72465 128.968068 
L 253.298137 128.626897 
L 254.871625 126.326859 
L 256.445112 122.520574 
L 259.592087 111.970273 
L 261.165575 108.948143 
L 262.739062 108.261517 
L 264.31255 109.315419 
L 265.886037 111.644368 
L 267.459525 114.969214 
L 270.6065 123.367019 
L 272.179987 126.66963 
L 273.753475 129.143692 
L 275.326962 130.825217 
L 276.90045 132.227467 
L 278.473937 133.781174 
L 280.047425 134.995934 
L 281.620912 135.699628 
L 283.1944 136.132285 
L 284.767887 136.177784 
L 286.341375 134.717915 
L 289.48835 130.870651 
L 291.061838 127.926901 
L 292.635325 125.428108 
L 294.208813 121.464565 
L 295.7823 115.419115 
L 297.355788 108.180156 
L 298.929275 99.692117 
L 300.502763 92.08647 
L 302.07625 86.061625 
L 303.649738 82.300844 
L 305.223225 82.273094 
L 306.796713 85.59278 
L 308.3702 90.873988 
L 309.943688 98.980205 
L 311.517175 108.107654 
L 313.090663 115.84374 
L 314.66415 122.187628 
L 316.237638 127.142803 
L 317.811125 129.126024 
L 319.384613 130.451629 
L 320.9581 132.225777 
L 324.105075 135.059169 
L 325.678562 136.122437 
L 327.25205 135.81815 
L 328.825537 134.802391 
L 333.546 130.199798 
L 335.119487 127.962199 
L 336.692975 125.334673 
L 341.413437 114.392889 
L 342.986925 112.515017 
L 344.560412 111.263295 
L 346.1339 110.689715 
L 347.707387 112.05116 
L 349.280875 114.007618 
L 350.854363 117.081203 
L 352.42785 121.269269 
L 354.001338 124.922354 
L 355.574825 127.324977 
L 357.148313 129.168386 
L 358.7218 130.621499 
L 360.295288 131.869228 
L 361.868775 132.902895 
L 363.442263 133.467754 
L 365.01575 132.960132 
L 369.736213 128.744112 
L 371.3097 126.770933 
L 372.883188 125.079619 
L 374.456675 123.197345 
L 376.030163 120.316097 
L 379.177138 113.77587 
L 380.750625 111.011467 
L 382.324113 110.060463 
L 383.8976 110.696808 
L 385.471088 113.348044 
L 387.044575 117.776284 
L 388.618063 121.741836 
L 390.19155 126.231464 
L 391.765038 129.109043 
L 393.338525 130.868479 
L 394.912013 132.33098 
L 398.058988 133.750565 
L 399.632475 133.676434 
L 401.205962 134.002531 
L 402.77945 134.031316 
L 404.352937 133.183019 
L 405.926425 131.827447 
L 407.499912 129.92072 
L 410.646887 124.280866 
L 412.220375 122.123238 
L 413.793862 118.405456 
L 415.36735 113.314329 
L 416.940837 106.499917 
L 418.514325 98.325463 
L 420.087812 91.974248 
L 421.6613 87.49092 
L 423.234787 86.336336 
L 424.808275 88.264058 
L 426.381762 92.017525 
L 427.95525 98.239092 
L 432.675713 120.070961 
L 434.2492 125.020302 
L 435.822688 128.061402 
L 437.396175 130.290104 
L 438.969663 131.96117 
L 440.54315 132.912235 
L 443.690125 134.564355 
L 445.263613 134.831239 
L 446.8371 134.273884 
L 448.410588 134.418395 
L 449.984075 133.260763 
L 451.557563 131.725905 
L 453.13105 129.792641 
L 454.704538 126.230082 
L 456.278025 122.966695 
L 457.851513 118.904214 
L 459.425 115.420213 
L 460.998488 113.516231 
L 462.571975 111.814396 
L 464.145463 111.503085 
L 465.71895 112.363232 
L 467.292438 114.345478 
L 468.865925 117.065042 
L 472.0129 123.898731 
L 475.159875 128.635192 
L 476.733362 130.734174 
L 478.30685 131.744325 
L 481.453825 132.560581 
L 483.027312 132.36601 
L 484.6008 131.965066 
L 486.174287 131.010436 
L 487.747775 130.20912 
L 489.321262 129.042221 
L 490.89475 126.700949 
L 492.468237 123.598229 
L 494.041725 119.769764 
L 495.615212 116.579493 
L 497.1887 113.809365 
L 498.762187 111.386977 
L 500.335675 110.068604 
L 501.909162 109.645951 
L 503.48265 111.477734 
L 505.056137 115.292776 
L 508.203112 124.599642 
L 509.7766 127.89021 
L 511.350088 130.04295 
L 512.923575 131.774426 
L 516.07055 133.396163 
L 517.644037 133.723059 
L 519.217525 133.583711 
L 520.791012 133.036293 
L 522.3645 132.201492 
L 523.937987 131.081422 
L 525.511475 130.50852 
L 527.084962 130.312669 
L 528.65845 128.847888 
L 530.231937 125.375122 
L 531.805425 119.904185 
L 534.9524 105.74287 
L 536.525887 99.874387 
L 538.099375 94.516323 
L 539.672862 89.699454 
L 541.24635 86.465675 
L 542.819837 85.722188 
L 544.393325 87.958847 
L 545.966812 93.794314 
L 547.5403 100.880478 
L 549.113787 108.525958 
L 550.687275 115.429178 
L 552.260762 121.225144 
L 553.83425 125.690141 
L 555.407737 128.709766 
L 556.981225 131.197035 
L 558.554712 132.586084 
L 560.1282 132.879422 
L 561.701687 132.475481 
L 563.275175 131.928263 
L 564.848662 131.499098 
L 566.42215 131.459388 
L 569.569125 131.963109 
L 571.142612 131.349494 
L 572.7161 129.461313 
L 574.289587 126.61747 
L 575.863075 122.651533 
L 577.436562 118.19965 
L 579.01005 114.667777 
L 580.583538 111.805034 
L 582.157025 109.890406 
L 583.730513 110.475099 
L 585.304 113.29488 
L 586.877488 116.738903 
L 590.024463 122.826017 
L 591.59795 124.830019 
L 596.318413 129.410828 
L 597.8919 130.183891 
L 599.465388 129.954422 
L 601.038875 130.505547 
L 602.612363 130.688523 
L 604.18585 130.333943 
L 605.759338 130.467139 
L 607.332825 129.831103 
L 608.906313 127.828488 
L 612.053288 122.209399 
L 615.200263 115.833631 
L 616.77375 114.130929 
L 618.347238 112.933696 
L 619.920725 112.434371 
L 621.494213 113.492491 
L 623.0677 115.366206 
L 624.641188 118.285565 
L 626.214675 122.171954 
L 629.36165 129.257458 
L 630.935137 131.401654 
L 634.082112 133.824776 
L 635.6556 134.213871 
L 637.229087 134.367083 
L 638.802575 133.799757 
L 641.94955 131.050479 
L 643.523037 129.980018 
L 645.096525 129.517482 
L 646.670012 128.048207 
L 648.2435 125.953109 
L 649.816987 122.976679 
L 651.390475 118.130693 
L 654.53745 107.350412 
L 656.110937 101.735454 
L 657.684425 97.042929 
L 659.257912 93.858112 
L 660.8314 91.970052 
L 662.404887 91.827729 
L 663.978375 94.352989 
L 665.551862 100.11107 
L 667.12535 107.332201 
L 668.698837 113.947998 
L 670.272325 119.33805 
L 671.845812 122.898761 
L 673.4193 125.154785 
L 676.566275 130.641591 
L 678.139762 131.99539 
L 679.71325 132.250905 
L 682.860225 131.785353 
L 684.433712 131.721788 
L 686.0072 132.296342 
L 687.580687 132.392383 
L 689.154175 131.497137 
L 690.727662 129.916043 
L 692.30115 127.374528 
L 693.874637 124.147349 
L 695.448125 120.280005 
L 697.021612 117.055156 
L 697.021612 117.055156 
" clip-path="url(#pd039656dc7)" style="fill: none; stroke: #1f77b4; stroke-width: 1.5; stroke-linecap: square"/>
   </g>
   <g id="patch_3">
    <path d="M 66.053125 143.018125 
L 66.053125 22.318125 
" style="fill: none; stroke: #000000; stroke-width: 0.8; stroke-linejoin: miter; stroke-linecap: square"/>
   </g>
   <g id="patch_4">
    <path d="M 695.448125 143.018125 
L 695.448125 22.318125 
" style="fill: none; stroke: #000000; stroke-width: 0.8; stroke-linejoin: miter; stroke-linecap: square"/>
   </g>
   <g id="patch_5">
    <path d="M 66.053125 143.018125 
L 695.448125 143.018125 
" style="fill: none; stroke: #000000; stroke-width: 0.8; stroke-linejoin: miter; stroke-linecap: square"/>
   </g>
   <g id="patch_6">
    <path d="M 66.053125 22.318125 
L 695.448125 22.318125 
" style="fill: none; stroke: #000000; stroke-width: 0.8; stroke-linejoin: miter; stroke-linecap: square"/>
   </g>
   <g id="text_15">
    <!-- Autocorrelation function -->
    <g transform="translate(308.2125 16.318125)scale(0.12 -0.12)">
     <defs>
      <path id="DejaVuSans-41" d="M 2188 4044 
L 1331 1722 
L 3047 1722 
L 2188 4044 
z
M 1831 4666 
L 2547 4666 
L 4325 0 
L 3669 0 
L 3244 1197 
L 1141 1197 
L 716 0 
L 50 0 
L 1831 4666 
z
" transform="scale(0.015625)"/>
      <path id="DejaVuSans-6c" d="M 603 4863 
L 1178 4863 
L 1178 0 
L 603 0 
L 603 4863 
z
" transform="scale(0.015625)"/>
      <path id="DejaVuSans-61" d="M 2194 1759 
Q 1497 1759 1228 1600 
Q 959 1441 959 1056 
Q 959 750 1161 570 
Q 1363 391 1709 391 
Q 2188 391 2477 730 
Q 2766 1069 2766 1631 
L 2766 1759 
L 2194 1759 
z
M 3341 1997 
L 3341 0 
L 2766 0 
L 2766 531 
Q 2569 213 2275 61 
Q 1981 -91 1556 -91 
Q 1019 -91 701 211 
Q 384 513 384 1019 
Q 384 1609 779 1909 
Q 1175 2209 1959 2209 
L 2766 2209 
L 2766 2266 
Q 2766 2663 2505 2880 
Q 2244 3097 1772 3097 
Q 1472 3097 1187 3025 
Q 903 2953 641 2809 
L 641 3341 
Q 956 3463 1253 3523 
Q 1550 3584 1831 3584 
Q 2591 3584 2966 3190 
Q 3341 2797 3341 1997 
z
" transform="scale(0.015625)"/>
     </defs>
     <use xlink:href="#DejaVuSans-41"/>
     <use xlink:href="#DejaVuSans-75" x="68.408203"/>
     <use xlink:href="#DejaVuSans-74" x="131.787109"/>
     <use xlink:href="#DejaVuSans-6f" x="170.996094"/>
     <use xlink:href="#DejaVuSans-63" x="232.177734"/>
     <use xlink:href="#DejaVuSans-6f" x="287.158203"/>
     <use xlink:href="#DejaVuSans-72" x="348.339844"/>
     <use xlink:href="#DejaVuSans-72" x="387.703125"/>
     <use xlink:href="#DejaVuSans-65" x="426.566406"/>
     <use xlink:href="#DejaVuSans-6c" x="488.089844"/>
     <use xlink:href="#DejaVuSans-61" x="515.873047"/>
     <use xlink:href="#DejaVuSans-74" x="577.152344"/>
     <use xlink:href="#DejaVuSans-69" x="616.361328"/>
     <use xlink:href="#DejaVuSans-6f" x="644.144531"/>
     <use xlink:href="#DejaVuSans-6e" x="705.326172"/>
     <use xlink:href="#DejaVuSans-20" x="768.705078"/>
     <use xlink:href="#DejaVuSans-66" x="800.492188"/>
     <use xlink:href="#DejaVuSans-75" x="835.697266"/>
     <use xlink:href="#DejaVuSans-6e" x="899.076172"/>
     <use xlink:href="#DejaVuSans-63" x="962.455078"/>
     <use xlink:href="#DejaVuSans-74" x="1017.435547"/>
     <use xlink:href="#DejaVuSans-69" x="1056.644531"/>
     <use xlink:href="#DejaVuSans-6f" x="1084.427734"/>
     <use xlink:href="#DejaVuSans-6e" x="1145.609375"/>
    </g>
   </g>
  </g>
  <g id="axes_2">
   <g id="patch_7">
    <path d="M 66.053125 320.318125 
L 695.448125 320.318125 
L 695.448125 199.618125 
L 66.053125 199.618125 
z
" style="fill: #ffffff"/>
   </g>
   <g id="PathCollection_1">
    <defs>
     <path id="mf65a105286" d="M 0 3 
C 0.795609 3 1.55874 2.683901 2.12132 2.12132 
C 2.683901 1.55874 3 0.795609 3 0 
C 3 -0.795609 2.683901 -1.55874 2.12132 -2.12132 
C 1.55874 -2.683901 0.795609 -3 0 -3 
C -0.795609 -3 -1.55874 -2.683901 -2.12132 -2.12132 
C -2.683901 -1.55874 -3 -0.795609 -3 0 
C -3 0.795609 -2.683901 1.55874 -2.12132 2.12132 
C -1.55874 2.683901 -0.795609 3 0 3 
z
" style="stroke: #1f77b4"/>
    </defs>
    <g clip-path="url(#pb3251f5b08)">
     <use xlink:href="#mf65a105286" x="226.54885" y="210.590852" style="fill: #1f77b4; stroke: #1f77b4"/>
    </g>
   </g>
   <g id="matplotlib.axis_3">
    <g id="xtick_10">
     <g id="line2d_14">
      <g>
       <use xlink:href="#m53c620a412" x="66.053125" y="320.318125" style="stroke: #000000; stroke-width: 0.8"/>
      </g>
     </g>
     <g id="text_16">
      <!-- 0 -->
      <g transform="translate(62.871875 334.916562)scale(0.1 -0.1)">
       <use xlink:href="#DejaVuSans-30"/>
      </g>
     </g>
    </g>
    <g id="xtick_11">
     <g id="line2d_15">
      <g>
       <use xlink:href="#m53c620a412" x="144.7275" y="320.318125" style="stroke: #000000; stroke-width: 0.8"/>
      </g>
     </g>
     <g id="text_17">
      <!-- 50 -->
      <g transform="translate(138.365 334.916562)scale(0.1 -0.1)">
       <use xlink:href="#DejaVuSans-35"/>
       <use xlink:href="#DejaVuSans-30" x="63.623047"/>
      </g>
     </g>
    </g>
    <g id="xtick_12">
     <g id="line2d_16">
      <g>
       <use xlink:href="#m53c620a412" x="223.401875" y="320.318125" style="stroke: #000000; stroke-width: 0.8"/>
      </g>
     </g>
     <g id="text_18">
      <!-- 100 -->
      <g transform="translate(213.858125 334.916562)scale(0.1 -0.1)">
       <use xlink:href="#DejaVuSans-31"/>
       <use xlink:href="#DejaVuSans-30" x="63.623047"/>
       <use xlink:href="#DejaVuSans-30" x="127.246094"/>
      </g>
     </g>
    </g>
    <g id="xtick_13">
     <g id="line2d_17">
      <g>
       <use xlink:href="#m53c620a412" x="302.07625" y="320.318125" style="stroke: #000000; stroke-width: 0.8"/>
      </g>
     </g>
     <g id="text_19">
      <!-- 150 -->
      <g transform="translate(292.5325 334.916562)scale(0.1 -0.1)">
       <use xlink:href="#DejaVuSans-31"/>
       <use xlink:href="#DejaVuSans-35" x="63.623047"/>
       <use xlink:href="#DejaVuSans-30" x="127.246094"/>
      </g>
     </g>
    </g>
    <g id="xtick_14">
     <g id="line2d_18">
      <g>
       <use xlink:href="#m53c620a412" x="380.750625" y="320.318125" style="stroke: #000000; stroke-width: 0.8"/>
      </g>
     </g>
     <g id="text_20">
      <!-- 200 -->
      <g transform="translate(371.206875 334.916562)scale(0.1 -0.1)">
       <use xlink:href="#DejaVuSans-32"/>
       <use xlink:href="#DejaVuSans-30" x="63.623047"/>
       <use xlink:href="#DejaVuSans-30" x="127.246094"/>
      </g>
     </g>
    </g>
    <g id="xtick_15">
     <g id="line2d_19">
      <g>
       <use xlink:href="#m53c620a412" x="459.425" y="320.318125" style="stroke: #000000; stroke-width: 0.8"/>
      </g>
     </g>
     <g id="text_21">
      <!-- 250 -->
      <g transform="translate(449.88125 334.916562)scale(0.1 -0.1)">
       <use xlink:href="#DejaVuSans-32"/>
       <use xlink:href="#DejaVuSans-35" x="63.623047"/>
       <use xlink:href="#DejaVuSans-30" x="127.246094"/>
      </g>
     </g>
    </g>
    <g id="xtick_16">
     <g id="line2d_20">
      <g>
       <use xlink:href="#m53c620a412" x="538.099375" y="320.318125" style="stroke: #000000; stroke-width: 0.8"/>
      </g>
     </g>
     <g id="text_22">
      <!-- 300 -->
      <g transform="translate(528.555625 334.916562)scale(0.1 -0.1)">
       <use xlink:href="#DejaVuSans-33"/>
       <use xlink:href="#DejaVuSans-30" x="63.623047"/>
       <use xlink:href="#DejaVuSans-30" x="127.246094"/>
      </g>
     </g>
    </g>
    <g id="xtick_17">
     <g id="line2d_21">
      <g>
       <use xlink:href="#m53c620a412" x="616.77375" y="320.318125" style="stroke: #000000; stroke-width: 0.8"/>
      </g>
     </g>
     <g id="text_23">
      <!-- 350 -->
      <g transform="translate(607.23 334.916562)scale(0.1 -0.1)">
       <use xlink:href="#DejaVuSans-33"/>
       <use xlink:href="#DejaVuSans-35" x="63.623047"/>
       <use xlink:href="#DejaVuSans-30" x="127.246094"/>
      </g>
     </g>
    </g>
    <g id="xtick_18">
     <g id="line2d_22">
      <g>
       <use xlink:href="#m53c620a412" x="695.448125" y="320.318125" style="stroke: #000000; stroke-width: 0.8"/>
      </g>
     </g>
     <g id="text_24">
      <!-- 400 -->
      <g transform="translate(685.904375 334.916562)scale(0.1 -0.1)">
       <use xlink:href="#DejaVuSans-34"/>
       <use xlink:href="#DejaVuSans-30" x="63.623047"/>
       <use xlink:href="#DejaVuSans-30" x="127.246094"/>
      </g>
     </g>
    </g>
    <g id="text_25">
     <!-- Frequency Index -->
     <g transform="translate(339.565469 348.594687)scale(0.1 -0.1)">
      <defs>
       <path id="DejaVuSans-46" d="M 628 4666 
L 3309 4666 
L 3309 4134 
L 1259 4134 
L 1259 2759 
L 3109 2759 
L 3109 2228 
L 1259 2228 
L 1259 0 
L 628 0 
L 628 4666 
z
" transform="scale(0.015625)"/>
       <path id="DejaVuSans-71" d="M 947 1747 
Q 947 1113 1208 752 
Q 1469 391 1925 391 
Q 2381 391 2643 752 
Q 2906 1113 2906 1747 
Q 2906 2381 2643 2742 
Q 2381 3103 1925 3103 
Q 1469 3103 1208 2742 
Q 947 2381 947 1747 
z
M 2906 525 
Q 2725 213 2448 61 
Q 2172 -91 1784 -91 
Q 1150 -91 751 415 
Q 353 922 353 1747 
Q 353 2572 751 3078 
Q 1150 3584 1784 3584 
Q 2172 3584 2448 3432 
Q 2725 3281 2906 2969 
L 2906 3500 
L 3481 3500 
L 3481 -1331 
L 2906 -1331 
L 2906 525 
z
" transform="scale(0.015625)"/>
       <path id="DejaVuSans-79" d="M 2059 -325 
Q 1816 -950 1584 -1140 
Q 1353 -1331 966 -1331 
L 506 -1331 
L 506 -850 
L 844 -850 
Q 1081 -850 1212 -737 
Q 1344 -625 1503 -206 
L 1606 56 
L 191 3500 
L 800 3500 
L 1894 763 
L 2988 3500 
L 3597 3500 
L 2059 -325 
z
" transform="scale(0.015625)"/>
      </defs>
      <use xlink:href="#DejaVuSans-46"/>
      <use xlink:href="#DejaVuSans-72" x="50.269531"/>
      <use xlink:href="#DejaVuSans-65" x="89.132812"/>
      <use xlink:href="#DejaVuSans-71" x="150.65625"/>
      <use xlink:href="#DejaVuSans-75" x="214.132812"/>
      <use xlink:href="#DejaVuSans-65" x="277.511719"/>
      <use xlink:href="#DejaVuSans-6e" x="339.035156"/>
      <use xlink:href="#DejaVuSans-63" x="402.414062"/>
      <use xlink:href="#DejaVuSans-79" x="457.394531"/>
      <use xlink:href="#DejaVuSans-20" x="516.574219"/>
      <use xlink:href="#DejaVuSans-49" x="548.361328"/>
      <use xlink:href="#DejaVuSans-6e" x="577.853516"/>
      <use xlink:href="#DejaVuSans-64" x="641.232422"/>
      <use xlink:href="#DejaVuSans-65" x="704.708984"/>
      <use xlink:href="#DejaVuSans-78" x="764.482422"/>
     </g>
    </g>
   </g>
   <g id="matplotlib.axis_4">
    <g id="ytick_4">
     <g id="line2d_23">
      <g>
       <use xlink:href="#m326e670398" x="66.053125" y="320.318125" style="stroke: #000000; stroke-width: 0.8"/>
      </g>
     </g>
     <g id="text_26">
      <!-- 0 -->
      <g transform="translate(52.690625 324.117344)scale(0.1 -0.1)">
       <use xlink:href="#DejaVuSans-30"/>
      </g>
     </g>
    </g>
    <g id="ytick_5">
     <g id="line2d_24">
      <g>
       <use xlink:href="#m326e670398" x="66.053125" y="284.88629" style="stroke: #000000; stroke-width: 0.8"/>
      </g>
     </g>
     <g id="text_27">
      <!-- 2000 -->
      <g transform="translate(33.603125 288.685509)scale(0.1 -0.1)">
       <use xlink:href="#DejaVuSans-32"/>
       <use xlink:href="#DejaVuSans-30" x="63.623047"/>
       <use xlink:href="#DejaVuSans-30" x="127.246094"/>
       <use xlink:href="#DejaVuSans-30" x="190.869141"/>
      </g>
     </g>
    </g>
    <g id="ytick_6">
     <g id="line2d_25">
      <g>
       <use xlink:href="#m326e670398" x="66.053125" y="249.454455" style="stroke: #000000; stroke-width: 0.8"/>
      </g>
     </g>
     <g id="text_28">
      <!-- 4000 -->
      <g transform="translate(33.603125 253.253674)scale(0.1 -0.1)">
       <use xlink:href="#DejaVuSans-34"/>
       <use xlink:href="#DejaVuSans-30" x="63.623047"/>
       <use xlink:href="#DejaVuSans-30" x="127.246094"/>
       <use xlink:href="#DejaVuSans-30" x="190.869141"/>
      </g>
     </g>
    </g>
    <g id="ytick_7">
     <g id="line2d_26">
      <g>
       <use xlink:href="#m326e670398" x="66.053125" y="214.02262" style="stroke: #000000; stroke-width: 0.8"/>
      </g>
     </g>
     <g id="text_29">
      <!-- 6000 -->
      <g transform="translate(33.603125 217.821839)scale(0.1 -0.1)">
       <defs>
        <path id="DejaVuSans-36" d="M 2113 2584 
Q 1688 2584 1439 2293 
Q 1191 2003 1191 1497 
Q 1191 994 1439 701 
Q 1688 409 2113 409 
Q 2538 409 2786 701 
Q 3034 994 3034 1497 
Q 3034 2003 2786 2293 
Q 2538 2584 2113 2584 
z
M 3366 4563 
L 3366 3988 
Q 3128 4100 2886 4159 
Q 2644 4219 2406 4219 
Q 1781 4219 1451 3797 
Q 1122 3375 1075 2522 
Q 1259 2794 1537 2939 
Q 1816 3084 2150 3084 
Q 2853 3084 3261 2657 
Q 3669 2231 3669 1497 
Q 3669 778 3244 343 
Q 2819 -91 2113 -91 
Q 1303 -91 875 529 
Q 447 1150 447 2328 
Q 447 3434 972 4092 
Q 1497 4750 2381 4750 
Q 2619 4750 2861 4703 
Q 3103 4656 3366 4563 
z
" transform="scale(0.015625)"/>
       </defs>
       <use xlink:href="#DejaVuSans-36"/>
       <use xlink:href="#DejaVuSans-30" x="63.623047"/>
       <use xlink:href="#DejaVuSans-30" x="127.246094"/>
       <use xlink:href="#DejaVuSans-30" x="190.869141"/>
      </g>
     </g>
    </g>
    <g id="text_30">
     <!-- Magitude -->
     <g transform="translate(27.523438 283.289219)rotate(-90)scale(0.1 -0.1)">
      <defs>
       <path id="DejaVuSans-4d" d="M 628 4666 
L 1569 4666 
L 2759 1491 
L 3956 4666 
L 4897 4666 
L 4897 0 
L 4281 0 
L 4281 4097 
L 3078 897 
L 2444 897 
L 1241 4097 
L 1241 0 
L 628 0 
L 628 4666 
z
" transform="scale(0.015625)"/>
       <path id="DejaVuSans-67" d="M 2906 1791 
Q 2906 2416 2648 2759 
Q 2391 3103 1925 3103 
Q 1463 3103 1205 2759 
Q 947 2416 947 1791 
Q 947 1169 1205 825 
Q 1463 481 1925 481 
Q 2391 481 2648 825 
Q 2906 1169 2906 1791 
z
M 3481 434 
Q 3481 -459 3084 -895 
Q 2688 -1331 1869 -1331 
Q 1566 -1331 1297 -1286 
Q 1028 -1241 775 -1147 
L 775 -588 
Q 1028 -725 1275 -790 
Q 1522 -856 1778 -856 
Q 2344 -856 2625 -561 
Q 2906 -266 2906 331 
L 2906 616 
Q 2728 306 2450 153 
Q 2172 0 1784 0 
Q 1141 0 747 490 
Q 353 981 353 1791 
Q 353 2603 747 3093 
Q 1141 3584 1784 3584 
Q 2172 3584 2450 3431 
Q 2728 3278 2906 2969 
L 2906 3500 
L 3481 3500 
L 3481 434 
z
" transform="scale(0.015625)"/>
      </defs>
      <use xlink:href="#DejaVuSans-4d"/>
      <use xlink:href="#DejaVuSans-61" x="86.279297"/>
      <use xlink:href="#DejaVuSans-67" x="147.558594"/>
      <use xlink:href="#DejaVuSans-69" x="211.035156"/>
      <use xlink:href="#DejaVuSans-74" x="238.818359"/>
      <use xlink:href="#DejaVuSans-75" x="278.027344"/>
      <use xlink:href="#DejaVuSans-64" x="341.40625"/>
      <use xlink:href="#DejaVuSans-65" x="404.882812"/>
     </g>
    </g>
   </g>
   <g id="line2d_27">
    <path d="M 66.053125 320.318125 
L 67.626613 316.283055 
L 69.2001 317.69986 
L 70.773588 317.156896 
L 72.347075 300.802217 
L 73.920563 318.076681 
L 75.49405 319.589007 
L 77.067538 312.202783 
L 78.641025 306.012908 
L 80.214513 310.61216 
L 81.788 313.8492 
L 83.361488 318.608738 
L 84.934975 305.397961 
L 86.508463 312.411495 
L 88.08195 311.544935 
L 89.655438 312.8449 
L 91.228925 309.628461 
L 92.802413 293.27341 
L 94.3759 313.112703 
L 95.949388 314.18207 
L 97.522875 311.668975 
L 99.096362 305.859479 
L 100.66985 310.860397 
L 102.243338 317.812273 
L 103.816825 308.069481 
L 105.390313 302.307537 
L 106.9638 302.428521 
L 108.537288 312.540451 
L 110.110775 311.173469 
L 111.684263 313.590302 
L 113.25775 302.591554 
L 114.831238 302.777984 
L 116.404725 315.097113 
L 117.978213 302.512008 
L 119.5517 237.289906 
L 121.125188 315.330334 
L 122.698675 317.038293 
L 124.272163 307.211068 
L 125.84565 308.00342 
L 127.419138 314.208593 
L 128.992625 314.591192 
L 132.1396 311.271371 
L 133.713088 310.39548 
L 135.286575 315.1757 
L 136.860063 310.232782 
L 138.43355 312.076188 
L 140.007038 309.429999 
L 141.580525 315.41636 
L 143.154013 314.925306 
L 144.7275 312.680341 
L 146.300988 309.343535 
L 147.874475 314.093047 
L 151.02145 313.640856 
L 152.594938 312.214021 
L 154.168425 319.234028 
L 155.741913 314.890074 
L 157.3154 312.565638 
L 158.888888 313.124728 
L 160.462375 296.249462 
L 162.035863 308.646716 
L 163.60935 315.791054 
L 165.182838 315.503167 
L 166.756325 292.049793 
L 168.329813 311.234872 
L 169.9033 310.431602 
L 171.476788 286.881895 
L 173.050275 234.072571 
L 174.623762 298.814315 
L 176.19725 314.356165 
L 177.770737 316.324191 
L 179.344225 312.856558 
L 180.917712 313.777526 
L 182.4912 312.948646 
L 184.064687 316.534109 
L 185.638175 313.158786 
L 187.211662 313.737954 
L 188.78515 314.656918 
L 190.358637 311.739076 
L 191.932125 314.853894 
L 193.505612 308.12513 
L 195.0791 311.936873 
L 196.652587 309.256143 
L 198.226075 312.550144 
L 199.799562 298.357387 
L 201.37305 312.813893 
L 202.946537 315.842561 
L 204.520025 312.361224 
L 206.093512 313.997604 
L 207.667 311.317675 
L 209.240488 310.072143 
L 210.813975 307.041348 
L 212.387463 298.793878 
L 213.96095 292.63139 
L 215.534438 313.732058 
L 217.107925 299.134715 
L 218.681413 312.562377 
L 220.2549 275.027365 
L 221.828388 312.231326 
L 223.401875 296.277757 
L 224.975363 268.924015 
L 226.54885 210.590852 
L 228.122338 267.79843 
L 229.695825 306.659293 
L 231.269313 303.331039 
L 232.8428 315.496594 
L 234.416288 306.138865 
L 235.989775 310.023732 
L 237.563263 307.416142 
L 239.13675 314.53629 
L 240.710238 305.613024 
L 242.283725 316.24222 
L 243.857213 309.752617 
L 245.4307 295.902216 
L 247.004188 317.652753 
L 248.577675 316.394638 
L 250.151162 310.688792 
L 251.72465 312.464993 
L 253.298137 302.258761 
L 254.871625 305.413173 
L 256.445112 312.275078 
L 258.0186 305.764835 
L 259.592087 316.478743 
L 261.165575 315.48554 
L 262.739062 308.073819 
L 264.31255 303.983347 
L 265.886037 316.200083 
L 267.459525 310.032762 
L 269.033012 315.298357 
L 270.6065 305.443798 
L 272.179987 316.661791 
L 273.753475 299.409144 
L 275.326962 301.151618 
L 276.90045 307.56719 
L 278.473937 299.452701 
L 280.047425 294.64822 
L 281.620912 296.275943 
L 283.1944 311.573756 
L 284.767887 313.703646 
L 286.341375 308.39601 
L 287.914863 306.788258 
L 289.48835 313.068566 
L 291.061838 313.423412 
L 292.635325 311.338129 
L 294.208813 311.665151 
L 295.7823 319.174484 
L 297.355788 313.161301 
L 298.929275 317.430506 
L 300.502763 317.74615 
L 302.07625 317.554159 
L 303.649738 317.553544 
L 305.223225 312.094239 
L 306.796713 313.088947 
L 308.3702 315.034956 
L 311.517175 307.878633 
L 313.090663 313.910386 
L 314.66415 308.666481 
L 316.237638 313.055756 
L 317.811125 310.269613 
L 319.384613 306.942188 
L 320.9581 297.991988 
L 322.531588 315.584118 
L 324.105075 309.134831 
L 325.678562 308.008486 
L 327.25205 296.375722 
L 328.825537 314.885777 
L 330.399025 301.78781 
L 331.972512 287.502731 
L 333.546 289.559888 
L 335.119487 284.961436 
L 336.692975 312.232891 
L 338.266462 299.96151 
L 339.83995 317.618979 
L 341.413437 304.057628 
L 342.986925 318.161681 
L 344.560412 315.12909 
L 346.1339 310.735622 
L 347.707387 306.723726 
L 349.280875 315.937847 
L 350.854363 306.76309 
L 352.42785 307.287423 
L 354.001338 316.099435 
L 355.574825 317.45614 
L 357.148313 319.087197 
L 358.7218 305.581087 
L 360.295288 310.427822 
L 361.868775 304.851148 
L 363.442263 313.962989 
L 365.01575 307.096234 
L 366.589238 311.314113 
L 368.162725 317.354454 
L 369.736213 312.878463 
L 371.3097 305.431091 
L 372.883188 315.065399 
L 374.456675 297.547527 
L 376.030163 315.527392 
L 377.60365 307.951484 
L 379.177138 308.484385 
L 380.750625 294.002867 
L 382.324113 317.673962 
L 383.8976 313.615254 
L 385.471088 288.823392 
L 387.044575 304.254048 
L 388.618063 261.972895 
L 390.19155 316.894657 
L 391.765038 303.14654 
L 393.338525 315.367809 
L 394.912013 305.112224 
L 396.4855 310.807211 
L 398.058988 310.453401 
L 399.632475 299.638 
L 401.205962 311.338384 
L 402.77945 314.038575 
L 404.352937 303.147088 
L 405.926425 303.778308 
L 407.499912 305.519114 
L 409.0734 319.064192 
L 410.646887 307.450781 
L 412.220375 301.837608 
L 413.793862 312.143156 
L 415.36735 307.825086 
L 416.940837 316.11468 
L 418.514325 304.887039 
L 420.087812 316.041627 
L 421.6613 311.440843 
L 423.234787 311.971371 
L 424.808275 314.278907 
L 426.381762 308.988791 
L 427.95525 317.779104 
L 429.528738 318.419057 
L 431.102225 312.682738 
L 432.675713 317.052515 
L 434.2492 314.348518 
L 435.822688 317.094075 
L 437.396175 313.224231 
L 438.969663 300.865104 
L 440.54315 314.749946 
L 442.116638 306.320575 
L 443.690125 311.017027 
L 445.263613 308.886351 
L 446.8371 319.204955 
L 448.410588 301.38342 
L 449.984075 311.861648 
L 451.557563 312.608008 
L 453.13105 314.067009 
L 454.704538 315.048826 
L 456.278025 309.70343 
L 457.851513 313.867018 
L 459.425 306.605584 
L 460.998488 306.277548 
L 462.571975 303.203332 
L 464.145463 311.644059 
L 465.71895 315.833064 
L 467.292438 316.365382 
L 468.865925 312.254996 
L 470.439413 316.807034 
L 472.0129 312.773602 
L 473.586388 316.913703 
L 475.159875 310.529477 
L 476.733362 312.400963 
L 478.30685 315.637542 
L 479.880337 313.532794 
L 481.453825 315.09539 
L 483.027312 312.258499 
L 484.6008 313.549005 
L 487.747775 301.629673 
L 489.321262 303.560264 
L 490.89475 313.796131 
L 492.468237 297.979449 
L 494.041725 314.458406 
L 495.615212 297.758735 
L 497.1887 306.897685 
L 498.762187 304.2591 
L 500.335675 312.238426 
L 501.909162 315.215149 
L 503.48265 316.961448 
L 505.056137 314.519975 
L 506.629625 307.041173 
L 508.203112 317.673396 
L 509.7766 308.053326 
L 511.350088 305.412069 
L 512.923575 309.182783 
L 514.497062 319.602741 
L 516.07055 308.76928 
L 517.644037 317.206251 
L 519.217525 307.970961 
L 520.791012 313.943609 
L 522.3645 313.654571 
L 523.937987 315.89924 
L 525.511475 306.815038 
L 527.084962 315.041456 
L 528.65845 309.573955 
L 530.231937 314.111288 
L 531.805425 314.177953 
L 533.378912 312.804265 
L 534.9524 312.254724 
L 536.525887 314.598871 
L 538.099375 318.992874 
L 539.672862 304.406176 
L 541.24635 305.083469 
L 542.819837 310.585762 
L 544.393325 313.442702 
L 545.966812 295.749337 
L 547.5403 307.144522 
L 549.113787 292.923305 
L 550.687275 307.793707 
L 552.260762 303.018307 
L 553.83425 308.19902 
L 555.407737 310.047983 
L 556.981225 312.136634 
L 558.554712 307.28337 
L 560.1282 300.832052 
L 561.701687 314.291842 
L 563.275175 308.692214 
L 564.848662 307.413875 
L 566.42215 304.815064 
L 567.995637 309.426011 
L 569.569125 314.651922 
L 571.142612 313.092643 
L 572.7161 309.252519 
L 574.289587 313.446217 
L 575.863075 315.548878 
L 577.436562 315.01941 
L 579.01005 316.798004 
L 580.583538 315.650782 
L 582.157025 310.039582 
L 583.730513 309.554512 
L 585.304 314.630426 
L 586.877488 308.627496 
L 588.450975 305.316493 
L 590.024463 312.888092 
L 591.59795 316.660508 
L 593.171438 308.007698 
L 594.744925 309.842826 
L 596.318413 317.257233 
L 597.8919 319.761095 
L 599.465388 312.47535 
L 601.038875 312.282821 
L 602.612363 310.221091 
L 604.18585 317.014153 
L 605.759338 316.691801 
L 607.332825 319.061109 
L 608.906313 307.33192 
L 612.053288 317.571846 
L 613.626775 309.512773 
L 615.200263 318.017677 
L 616.77375 308.82027 
L 618.347238 316.880451 
L 619.920725 312.238281 
L 623.0677 307.287357 
L 624.641188 319.199066 
L 626.214675 311.09967 
L 627.788162 314.912179 
L 629.36165 317.202396 
L 630.935137 314.185142 
L 632.508625 314.20519 
L 634.082112 315.197204 
L 635.6556 317.973199 
L 637.229087 313.287628 
L 638.802575 313.966396 
L 640.376062 310.320441 
L 641.94955 314.098974 
L 643.523037 316.444172 
L 645.096525 313.329239 
L 646.670012 307.434842 
L 648.2435 312.165864 
L 649.816987 308.901993 
L 651.390475 310.154817 
L 652.963962 315.399569 
L 654.53745 304.072278 
L 656.110937 310.772654 
L 657.684425 312.286289 
L 659.257912 306.623524 
L 660.8314 314.250152 
L 662.404887 305.902123 
L 663.978375 307.116779 
L 665.551862 305.745747 
L 667.12535 308.58445 
L 668.698837 310.065473 
L 670.272325 311.026529 
L 671.845812 314.573334 
L 673.4193 316.453912 
L 674.992787 309.807556 
L 676.566275 309.025191 
L 678.139762 317.03783 
L 679.71325 314.099155 
L 681.286737 313.892253 
L 682.860225 319.279003 
L 684.433712 315.708723 
L 686.0072 315.893376 
L 687.580687 311.776736 
L 689.154175 316.184661 
L 690.727662 312.353349 
L 692.30115 316.184904 
L 693.874637 309.990936 
L 695.448125 301.467963 
L 697.021612 317.935579 
L 697.021612 317.935579 
" clip-path="url(#pb3251f5b08)" style="fill: none; stroke: #1f77b4; stroke-width: 1.5; stroke-linecap: square"/>
   </g>
   <g id="patch_8">
    <path d="M 66.053125 320.318125 
L 66.053125 199.618125 
" style="fill: none; stroke: #000000; stroke-width: 0.8; stroke-linejoin: miter; stroke-linecap: square"/>
   </g>
   <g id="patch_9">
    <path d="M 695.448125 320.318125 
L 695.448125 199.618125 
" style="fill: none; stroke: #000000; stroke-width: 0.8; stroke-linejoin: miter; stroke-linecap: square"/>
   </g>
   <g id="patch_10">
    <path d="M 66.053125 320.318125 
L 695.448125 320.318125 
" style="fill: none; stroke: #000000; stroke-width: 0.8; stroke-linejoin: miter; stroke-linecap: square"/>
   </g>
   <g id="patch_11">
    <path d="M 66.053125 199.618125 
L 695.448125 199.618125 
" style="fill: none; stroke: #000000; stroke-width: 0.8; stroke-linejoin: miter; stroke-linecap: square"/>
   </g>
   <g id="text_31">
    <!-- Magnitude Discrete Fourier Transform (Max 102) -->
    <g transform="translate(235.270313 193.618125)scale(0.12 -0.12)">
     <defs>
      <path id="DejaVuSans-73" d="M 2834 3397 
L 2834 2853 
Q 2591 2978 2328 3040 
Q 2066 3103 1784 3103 
Q 1356 3103 1142 2972 
Q 928 2841 928 2578 
Q 928 2378 1081 2264 
Q 1234 2150 1697 2047 
L 1894 2003 
Q 2506 1872 2764 1633 
Q 3022 1394 3022 966 
Q 3022 478 2636 193 
Q 2250 -91 1575 -91 
Q 1294 -91 989 -36 
Q 684 19 347 128 
L 347 722 
Q 666 556 975 473 
Q 1284 391 1588 391 
Q 1994 391 2212 530 
Q 2431 669 2431 922 
Q 2431 1156 2273 1281 
Q 2116 1406 1581 1522 
L 1381 1569 
Q 847 1681 609 1914 
Q 372 2147 372 2553 
Q 372 3047 722 3315 
Q 1072 3584 1716 3584 
Q 2034 3584 2315 3537 
Q 2597 3491 2834 3397 
z
" transform="scale(0.015625)"/>
      <path id="DejaVuSans-54" d="M -19 4666 
L 3928 4666 
L 3928 4134 
L 2272 4134 
L 2272 0 
L 1638 0 
L 1638 4134 
L -19 4134 
L -19 4666 
z
" transform="scale(0.015625)"/>
      <path id="DejaVuSans-6d" d="M 3328 2828 
Q 3544 3216 3844 3400 
Q 4144 3584 4550 3584 
Q 5097 3584 5394 3201 
Q 5691 2819 5691 2113 
L 5691 0 
L 5113 0 
L 5113 2094 
Q 5113 2597 4934 2840 
Q 4756 3084 4391 3084 
Q 3944 3084 3684 2787 
Q 3425 2491 3425 1978 
L 3425 0 
L 2847 0 
L 2847 2094 
Q 2847 2600 2669 2842 
Q 2491 3084 2119 3084 
Q 1678 3084 1418 2786 
Q 1159 2488 1159 1978 
L 1159 0 
L 581 0 
L 581 3500 
L 1159 3500 
L 1159 2956 
Q 1356 3278 1631 3431 
Q 1906 3584 2284 3584 
Q 2666 3584 2933 3390 
Q 3200 3197 3328 2828 
z
" transform="scale(0.015625)"/>
     </defs>
     <use xlink:href="#DejaVuSans-4d"/>
     <use xlink:href="#DejaVuSans-61" x="86.279297"/>
     <use xlink:href="#DejaVuSans-67" x="147.558594"/>
     <use xlink:href="#DejaVuSans-6e" x="211.035156"/>
     <use xlink:href="#DejaVuSans-69" x="274.414062"/>
     <use xlink:href="#DejaVuSans-74" x="302.197266"/>
     <use xlink:href="#DejaVuSans-75" x="341.40625"/>
     <use xlink:href="#DejaVuSans-64" x="404.785156"/>
     <use xlink:href="#DejaVuSans-65" x="468.261719"/>
     <use xlink:href="#DejaVuSans-20" x="529.785156"/>
     <use xlink:href="#DejaVuSans-44" x="561.572266"/>
     <use xlink:href="#DejaVuSans-69" x="638.574219"/>
     <use xlink:href="#DejaVuSans-73" x="666.357422"/>
     <use xlink:href="#DejaVuSans-63" x="718.457031"/>
     <use xlink:href="#DejaVuSans-72" x="773.4375"/>
     <use xlink:href="#DejaVuSans-65" x="812.300781"/>
     <use xlink:href="#DejaVuSans-74" x="873.824219"/>
     <use xlink:href="#DejaVuSans-65" x="913.033203"/>
     <use xlink:href="#DejaVuSans-20" x="974.556641"/>
     <use xlink:href="#DejaVuSans-46" x="1006.34375"/>
     <use xlink:href="#DejaVuSans-6f" x="1060.238281"/>
     <use xlink:href="#DejaVuSans-75" x="1121.419922"/>
     <use xlink:href="#DejaVuSans-72" x="1184.798828"/>
     <use xlink:href="#DejaVuSans-69" x="1225.912109"/>
     <use xlink:href="#DejaVuSans-65" x="1253.695312"/>
     <use xlink:href="#DejaVuSans-72" x="1315.21875"/>
     <use xlink:href="#DejaVuSans-20" x="1356.332031"/>
     <use xlink:href="#DejaVuSans-54" x="1388.119141"/>
     <use xlink:href="#DejaVuSans-72" x="1434.453125"/>
     <use xlink:href="#DejaVuSans-61" x="1475.566406"/>
     <use xlink:href="#DejaVuSans-6e" x="1536.845703"/>
     <use xlink:href="#DejaVuSans-73" x="1600.224609"/>
     <use xlink:href="#DejaVuSans-66" x="1652.324219"/>
     <use xlink:href="#DejaVuSans-6f" x="1687.529297"/>
     <use xlink:href="#DejaVuSans-72" x="1748.710938"/>
     <use xlink:href="#DejaVuSans-6d" x="1788.074219"/>
     <use xlink:href="#DejaVuSans-20" x="1885.486328"/>
     <use xlink:href="#DejaVuSans-28" x="1917.273438"/>
     <use xlink:href="#DejaVuSans-4d" x="1956.287109"/>
     <use xlink:href="#DejaVuSans-61" x="2042.566406"/>
     <use xlink:href="#DejaVuSans-78" x="2103.845703"/>
     <use xlink:href="#DejaVuSans-20" x="2163.025391"/>
     <use xlink:href="#DejaVuSans-31" x="2194.8125"/>
     <use xlink:href="#DejaVuSans-30" x="2258.435547"/>
     <use xlink:href="#DejaVuSans-32" x="2322.058594"/>
     <use xlink:href="#DejaVuSans-29" x="2385.681641"/>
    </g>
   </g>
  </g>
  <g id="axes_3">
   <g id="patch_12">
    <path d="M 66.053125 497.618125 
L 695.448125 497.618125 
L 695.448125 376.918125 
L 66.053125 376.918125 
z
" style="fill: #ffffff"/>
   </g>
   <g id="PathCollection_2">
    <g clip-path="url(#p87fcfcc3f6)">
     <use xlink:href="#mf65a105286" x="185.638175" y="420.597205" style="fill: #1f77b4; stroke: #1f77b4"/>
    </g>
   </g>
   <g id="matplotlib.axis_5">
    <g id="xtick_19">
     <g id="line2d_28">
      <g>
       <use xlink:href="#m53c620a412" x="66.053125" y="497.618125" style="stroke: #000000; stroke-width: 0.8"/>
      </g>
     </g>
     <g id="text_32">
      <!-- 0 -->
      <g transform="translate(62.871875 512.216563)scale(0.1 -0.1)">
       <use xlink:href="#DejaVuSans-30"/>
      </g>
     </g>
    </g>
    <g id="xtick_20">
     <g id="line2d_29">
      <g>
       <use xlink:href="#m53c620a412" x="144.7275" y="497.618125" style="stroke: #000000; stroke-width: 0.8"/>
      </g>
     </g>
     <g id="text_33">
      <!-- 50 -->
      <g transform="translate(138.365 512.216563)scale(0.1 -0.1)">
       <use xlink:href="#DejaVuSans-35"/>
       <use xlink:href="#DejaVuSans-30" x="63.623047"/>
      </g>
     </g>
    </g>
    <g id="xtick_21">
     <g id="line2d_30">
      <g>
       <use xlink:href="#m53c620a412" x="223.401875" y="497.618125" style="stroke: #000000; stroke-width: 0.8"/>
      </g>
     </g>
     <g id="text_34">
      <!-- 100 -->
      <g transform="translate(213.858125 512.216563)scale(0.1 -0.1)">
       <use xlink:href="#DejaVuSans-31"/>
       <use xlink:href="#DejaVuSans-30" x="63.623047"/>
       <use xlink:href="#DejaVuSans-30" x="127.246094"/>
      </g>
     </g>
    </g>
    <g id="xtick_22">
     <g id="line2d_31">
      <g>
       <use xlink:href="#m53c620a412" x="302.07625" y="497.618125" style="stroke: #000000; stroke-width: 0.8"/>
      </g>
     </g>
     <g id="text_35">
      <!-- 150 -->
      <g transform="translate(292.5325 512.216563)scale(0.1 -0.1)">
       <use xlink:href="#DejaVuSans-31"/>
       <use xlink:href="#DejaVuSans-35" x="63.623047"/>
       <use xlink:href="#DejaVuSans-30" x="127.246094"/>
      </g>
     </g>
    </g>
    <g id="xtick_23">
     <g id="line2d_32">
      <g>
       <use xlink:href="#m53c620a412" x="380.750625" y="497.618125" style="stroke: #000000; stroke-width: 0.8"/>
      </g>
     </g>
     <g id="text_36">
      <!-- 200 -->
      <g transform="translate(371.206875 512.216563)scale(0.1 -0.1)">
       <use xlink:href="#DejaVuSans-32"/>
       <use xlink:href="#DejaVuSans-30" x="63.623047"/>
       <use xlink:href="#DejaVuSans-30" x="127.246094"/>
      </g>
     </g>
    </g>
    <g id="xtick_24">
     <g id="line2d_33">
      <g>
       <use xlink:href="#m53c620a412" x="459.425" y="497.618125" style="stroke: #000000; stroke-width: 0.8"/>
      </g>
     </g>
     <g id="text_37">
      <!-- 250 -->
      <g transform="translate(449.88125 512.216563)scale(0.1 -0.1)">
       <use xlink:href="#DejaVuSans-32"/>
       <use xlink:href="#DejaVuSans-35" x="63.623047"/>
       <use xlink:href="#DejaVuSans-30" x="127.246094"/>
      </g>
     </g>
    </g>
    <g id="xtick_25">
     <g id="line2d_34">
      <g>
       <use xlink:href="#m53c620a412" x="538.099375" y="497.618125" style="stroke: #000000; stroke-width: 0.8"/>
      </g>
     </g>
     <g id="text_38">
      <!-- 300 -->
      <g transform="translate(528.555625 512.216563)scale(0.1 -0.1)">
       <use xlink:href="#DejaVuSans-33"/>
       <use xlink:href="#DejaVuSans-30" x="63.623047"/>
       <use xlink:href="#DejaVuSans-30" x="127.246094"/>
      </g>
     </g>
    </g>
    <g id="xtick_26">
     <g id="line2d_35">
      <g>
       <use xlink:href="#m53c620a412" x="616.77375" y="497.618125" style="stroke: #000000; stroke-width: 0.8"/>
      </g>
     </g>
     <g id="text_39">
      <!-- 350 -->
      <g transform="translate(607.23 512.216563)scale(0.1 -0.1)">
       <use xlink:href="#DejaVuSans-33"/>
       <use xlink:href="#DejaVuSans-35" x="63.623047"/>
       <use xlink:href="#DejaVuSans-30" x="127.246094"/>
      </g>
     </g>
    </g>
    <g id="xtick_27">
     <g id="line2d_36">
      <g>
       <use xlink:href="#m53c620a412" x="695.448125" y="497.618125" style="stroke: #000000; stroke-width: 0.8"/>
      </g>
     </g>
     <g id="text_40">
      <!-- 400 -->
      <g transform="translate(685.904375 512.216563)scale(0.1 -0.1)">
       <use xlink:href="#DejaVuSans-34"/>
       <use xlink:href="#DejaVuSans-30" x="63.623047"/>
       <use xlink:href="#DejaVuSans-30" x="127.246094"/>
      </g>
     </g>
    </g>
    <g id="text_41">
     <!-- Shift (Period Index) -->
     <g transform="translate(332.951406 525.894687)scale(0.1 -0.1)">
      <use xlink:href="#DejaVuSans-53"/>
      <use xlink:href="#DejaVuSans-68" x="63.476562"/>
      <use xlink:href="#DejaVuSans-69" x="126.855469"/>
      <use xlink:href="#DejaVuSans-66" x="154.638672"/>
      <use xlink:href="#DejaVuSans-74" x="188.09375"/>
      <use xlink:href="#DejaVuSans-20" x="227.302734"/>
      <use xlink:href="#DejaVuSans-28" x="259.089844"/>
      <use xlink:href="#DejaVuSans-50" x="298.103516"/>
      <use xlink:href="#DejaVuSans-65" x="354.78125"/>
      <use xlink:href="#DejaVuSans-72" x="416.304688"/>
      <use xlink:href="#DejaVuSans-69" x="457.417969"/>
      <use xlink:href="#DejaVuSans-6f" x="485.201172"/>
      <use xlink:href="#DejaVuSans-64" x="546.382812"/>
      <use xlink:href="#DejaVuSans-20" x="609.859375"/>
      <use xlink:href="#DejaVuSans-49" x="641.646484"/>
      <use xlink:href="#DejaVuSans-6e" x="671.138672"/>
      <use xlink:href="#DejaVuSans-64" x="734.517578"/>
      <use xlink:href="#DejaVuSans-65" x="797.994141"/>
      <use xlink:href="#DejaVuSans-78" x="857.767578"/>
      <use xlink:href="#DejaVuSans-29" x="916.947266"/>
     </g>
    </g>
   </g>
   <g id="matplotlib.axis_6">
    <g id="ytick_8">
     <g id="line2d_37">
      <g>
       <use xlink:href="#m326e670398" x="66.053125" y="497.618125" style="stroke: #000000; stroke-width: 0.8"/>
      </g>
     </g>
     <g id="text_42">
      <!-- 0 -->
      <g transform="translate(52.690625 501.417344)scale(0.1 -0.1)">
       <use xlink:href="#DejaVuSans-30"/>
      </g>
     </g>
    </g>
    <g id="ytick_9">
     <g id="line2d_38">
      <g>
       <use xlink:href="#m326e670398" x="66.053125" y="462.18629" style="stroke: #000000; stroke-width: 0.8"/>
      </g>
     </g>
     <g id="text_43">
      <!-- 2000 -->
      <g transform="translate(33.603125 465.985509)scale(0.1 -0.1)">
       <use xlink:href="#DejaVuSans-32"/>
       <use xlink:href="#DejaVuSans-30" x="63.623047"/>
       <use xlink:href="#DejaVuSans-30" x="127.246094"/>
       <use xlink:href="#DejaVuSans-30" x="190.869141"/>
      </g>
     </g>
    </g>
    <g id="ytick_10">
     <g id="line2d_39">
      <g>
       <use xlink:href="#m326e670398" x="66.053125" y="426.754455" style="stroke: #000000; stroke-width: 0.8"/>
      </g>
     </g>
     <g id="text_44">
      <!-- 4000 -->
      <g transform="translate(33.603125 430.553674)scale(0.1 -0.1)">
       <use xlink:href="#DejaVuSans-34"/>
       <use xlink:href="#DejaVuSans-30" x="63.623047"/>
       <use xlink:href="#DejaVuSans-30" x="127.246094"/>
       <use xlink:href="#DejaVuSans-30" x="190.869141"/>
      </g>
     </g>
    </g>
    <g id="ytick_11">
     <g id="line2d_40">
      <g>
       <use xlink:href="#m326e670398" x="66.053125" y="391.32262" style="stroke: #000000; stroke-width: 0.8"/>
      </g>
     </g>
     <g id="text_45">
      <!-- 6000 -->
      <g transform="translate(33.603125 395.121839)scale(0.1 -0.1)">
       <use xlink:href="#DejaVuSans-36"/>
       <use xlink:href="#DejaVuSans-30" x="63.623047"/>
       <use xlink:href="#DejaVuSans-30" x="127.246094"/>
       <use xlink:href="#DejaVuSans-30" x="190.869141"/>
      </g>
     </g>
    </g>
    <g id="text_46">
     <!-- Magitude -->
     <g transform="translate(27.523438 460.589219)rotate(-90)scale(0.1 -0.1)">
      <use xlink:href="#DejaVuSans-4d"/>
      <use xlink:href="#DejaVuSans-61" x="86.279297"/>
      <use xlink:href="#DejaVuSans-67" x="147.558594"/>
      <use xlink:href="#DejaVuSans-69" x="211.035156"/>
      <use xlink:href="#DejaVuSans-74" x="238.818359"/>
      <use xlink:href="#DejaVuSans-75" x="278.027344"/>
      <use xlink:href="#DejaVuSans-64" x="341.40625"/>
      <use xlink:href="#DejaVuSans-65" x="404.882812"/>
     </g>
    </g>
   </g>
   <g id="line2d_41">
    <path d="M 66.053125 497.618125 
L 67.626613 497.618125 
L 69.2001 495.897064 
L 70.773588 495.55599 
L 72.347075 495.706775 
L 73.920563 494.388016 
L 75.49405 495.464054 
L 77.067538 489.787182 
L 78.641025 487.076732 
L 80.214513 488.881604 
L 81.788 491.283632 
L 83.361488 492.397306 
L 84.934975 483.16996 
L 86.508463 485.374461 
L 88.08195 494.872644 
L 89.655438 484.0786 
L 91.228925 483.6828 
L 92.802413 491.642188 
L 94.3759 490.375865 
L 95.949388 473.718292 
L 97.522875 491.808518 
L 99.096362 490.717626 
L 100.66985 488.231001 
L 102.243338 493.260063 
L 103.816825 484.89569 
L 105.390313 448.207299 
L 106.9638 487.690529 
L 108.537288 484.54435 
L 110.110775 484.046795 
L 111.684263 491.071896 
L 113.25775 488.668243 
L 114.831238 486.981176 
L 116.404725 488.579238 
L 117.978213 491.691659 
L 121.125188 490.556515 
L 122.698675 491.601405 
L 124.272163 486.195515 
L 125.84565 421.100605 
L 127.419138 485.920086 
L 128.992625 477.503452 
L 130.566113 492.845297 
L 132.1396 488.498265 
L 133.713088 474.726807 
L 135.286575 490.183303 
L 136.860063 491.570225 
L 138.43355 496.439595 
L 140.007038 489.756886 
L 141.580525 491.002227 
L 143.154013 491.241652 
L 144.7275 489.208271 
L 146.300988 488.213797 
L 147.874475 490.973307 
L 149.447963 492.41061 
L 151.02145 491.053482 
L 152.594938 487.114899 
L 154.168425 489.328935 
L 155.741913 487.920868 
L 157.3154 490.345132 
L 158.888888 490.936307 
L 160.462375 487.739274 
L 162.035863 488.355988 
L 163.60935 489.296362 
L 166.756325 491.451575 
L 168.329813 491.755811 
L 169.9033 491.525984 
L 171.476788 488.174471 
L 173.050275 485.221855 
L 174.623762 484.786669 
L 176.19725 486.336124 
L 177.770737 491.431649 
L 179.344225 493.982468 
L 180.917712 493.145061 
L 182.4912 478.920529 
L 184.064687 442.68446 
L 185.638175 420.597205 
L 188.78515 477.303465 
L 190.358637 484.591162 
L 191.932125 489.722778 
L 193.505612 490.115793 
L 196.652587 480.671677 
L 198.226075 480.01806 
L 199.799562 479.950773 
L 201.37305 480.275232 
L 204.520025 487.765658 
L 206.093512 490.781681 
L 210.813975 488.499739 
L 215.534438 489.66778 
L 217.107925 488.260462 
L 221.828388 480.034943 
L 223.401875 479.700694 
L 228.122338 479.609886 
L 231.269313 482.241569 
L 234.416288 484.884832 
L 235.989775 486.722647 
L 240.710238 493.005724 
L 242.283725 495.025284 
L 245.4307 492.368112 
L 250.151162 488.33865 
L 253.298137 486.437392 
L 258.0186 483.774346 
L 259.592087 483.442869 
L 265.886037 487.276445 
L 269.033012 489.027419 
L 278.473937 491.258684 
L 280.047425 491.427029 
L 291.061838 490.435138 
L 292.635325 488.34611 
L 298.929275 478.750416 
L 303.649738 471.88727 
L 305.223225 471.326603 
L 311.517175 478.436415 
L 317.811125 485.190737 
L 319.384613 486.826877 
L 322.531588 487.540176 
L 335.119487 489.919185 
L 336.692975 490.122227 
L 355.574825 488.852 
L 377.60365 489.698365 
L 379.177138 489.359056 
L 390.19155 486.272821 
L 402.77945 482.992923 
L 404.352937 482.882298 
L 413.793862 487.181256 
L 423.234787 491.252957 
L 434.2492 495.739369 
L 435.822688 495.746711 
L 453.13105 493.412883 
L 470.439413 491.278838 
L 475.159875 490.862847 
L 500.335675 489.002902 
L 522.3645 487.388796 
L 547.5403 485.251808 
L 572.7161 483.327191 
L 579.01005 483.901516 
L 604.18585 486.190657 
L 630.935137 488.399296 
L 660.8314 490.851062 
L 689.154175 493.139939 
L 697.021612 493.73927 
L 697.021612 493.73927 
" clip-path="url(#p87fcfcc3f6)" style="fill: none; stroke: #1f77b4; stroke-width: 1.5; stroke-linecap: square"/>
   </g>
   <g id="patch_13">
    <path d="M 66.053125 497.618125 
L 66.053125 376.918125 
" style="fill: none; stroke: #000000; stroke-width: 0.8; stroke-linejoin: miter; stroke-linecap: square"/>
   </g>
   <g id="patch_14">
    <path d="M 695.448125 497.618125 
L 695.448125 376.918125 
" style="fill: none; stroke: #000000; stroke-width: 0.8; stroke-linejoin: miter; stroke-linecap: square"/>
   </g>
   <g id="patch_15">
    <path d="M 66.053125 497.618125 
L 695.448125 497.618125 
" style="fill: none; stroke: #000000; stroke-width: 0.8; stroke-linejoin: miter; stroke-linecap: square"/>
   </g>
   <g id="patch_16">
    <path d="M 66.053125 376.918125 
L 695.448125 376.918125 
" style="fill: none; stroke: #000000; stroke-width: 0.8; stroke-linejoin: miter; stroke-linecap: square"/>
   </g>
   <g id="text_47">
    <!-- Domain Warped Magnitude Discrete Fourier Transform -->
    <g transform="translate(217.524375 370.918125)scale(0.12 -0.12)">
     <defs>
      <path id="DejaVuSans-57" d="M 213 4666 
L 850 4666 
L 1831 722 
L 2809 4666 
L 3519 4666 
L 4500 722 
L 5478 4666 
L 6119 4666 
L 4947 0 
L 4153 0 
L 3169 4050 
L 2175 0 
L 1381 0 
L 213 4666 
z
" transform="scale(0.015625)"/>
      <path id="DejaVuSans-70" d="M 1159 525 
L 1159 -1331 
L 581 -1331 
L 581 3500 
L 1159 3500 
L 1159 2969 
Q 1341 3281 1617 3432 
Q 1894 3584 2278 3584 
Q 2916 3584 3314 3078 
Q 3713 2572 3713 1747 
Q 3713 922 3314 415 
Q 2916 -91 2278 -91 
Q 1894 -91 1617 61 
Q 1341 213 1159 525 
z
M 3116 1747 
Q 3116 2381 2855 2742 
Q 2594 3103 2138 3103 
Q 1681 3103 1420 2742 
Q 1159 2381 1159 1747 
Q 1159 1113 1420 752 
Q 1681 391 2138 391 
Q 2594 391 2855 752 
Q 3116 1113 3116 1747 
z
" transform="scale(0.015625)"/>
     </defs>
     <use xlink:href="#DejaVuSans-44"/>
     <use xlink:href="#DejaVuSans-6f" x="77.001953"/>
     <use xlink:href="#DejaVuSans-6d" x="138.183594"/>
     <use xlink:href="#DejaVuSans-61" x="235.595703"/>
     <use xlink:href="#DejaVuSans-69" x="296.875"/>
     <use xlink:href="#DejaVuSans-6e" x="324.658203"/>
     <use xlink:href="#DejaVuSans-20" x="388.037109"/>
     <use xlink:href="#DejaVuSans-57" x="419.824219"/>
     <use xlink:href="#DejaVuSans-61" x="512.326172"/>
     <use xlink:href="#DejaVuSans-72" x="573.605469"/>
     <use xlink:href="#DejaVuSans-70" x="614.71875"/>
     <use xlink:href="#DejaVuSans-65" x="678.195312"/>
     <use xlink:href="#DejaVuSans-64" x="739.71875"/>
     <use xlink:href="#DejaVuSans-20" x="803.195312"/>
     <use xlink:href="#DejaVuSans-4d" x="834.982422"/>
     <use xlink:href="#DejaVuSans-61" x="921.261719"/>
     <use xlink:href="#DejaVuSans-67" x="982.541016"/>
     <use xlink:href="#DejaVuSans-6e" x="1046.017578"/>
     <use xlink:href="#DejaVuSans-69" x="1109.396484"/>
     <use xlink:href="#DejaVuSans-74" x="1137.179688"/>
     <use xlink:href="#DejaVuSans-75" x="1176.388672"/>
     <use xlink:href="#DejaVuSans-64" x="1239.767578"/>
     <use xlink:href="#DejaVuSans-65" x="1303.244141"/>
     <use xlink:href="#DejaVuSans-20" x="1364.767578"/>
     <use xlink:href="#DejaVuSans-44" x="1396.554688"/>
     <use xlink:href="#DejaVuSans-69" x="1473.556641"/>
     <use xlink:href="#DejaVuSans-73" x="1501.339844"/>
     <use xlink:href="#DejaVuSans-63" x="1553.439453"/>
     <use xlink:href="#DejaVuSans-72" x="1608.419922"/>
     <use xlink:href="#DejaVuSans-65" x="1647.283203"/>
     <use xlink:href="#DejaVuSans-74" x="1708.806641"/>
     <use xlink:href="#DejaVuSans-65" x="1748.015625"/>
     <use xlink:href="#DejaVuSans-20" x="1809.539062"/>
     <use xlink:href="#DejaVuSans-46" x="1841.326172"/>
     <use xlink:href="#DejaVuSans-6f" x="1895.220703"/>
     <use xlink:href="#DejaVuSans-75" x="1956.402344"/>
     <use xlink:href="#DejaVuSans-72" x="2019.78125"/>
     <use xlink:href="#DejaVuSans-69" x="2060.894531"/>
     <use xlink:href="#DejaVuSans-65" x="2088.677734"/>
     <use xlink:href="#DejaVuSans-72" x="2150.201172"/>
     <use xlink:href="#DejaVuSans-20" x="2191.314453"/>
     <use xlink:href="#DejaVuSans-54" x="2223.101562"/>
     <use xlink:href="#DejaVuSans-72" x="2269.435547"/>
     <use xlink:href="#DejaVuSans-61" x="2310.548828"/>
     <use xlink:href="#DejaVuSans-6e" x="2371.828125"/>
     <use xlink:href="#DejaVuSans-73" x="2435.207031"/>
     <use xlink:href="#DejaVuSans-66" x="2487.306641"/>
     <use xlink:href="#DejaVuSans-6f" x="2522.511719"/>
     <use xlink:href="#DejaVuSans-72" x="2583.693359"/>
     <use xlink:href="#DejaVuSans-6d" x="2623.056641"/>
    </g>
   </g>
  </g>
  <g id="axes_4">
   <g id="patch_17">
    <path d="M 66.053125 674.918125 
L 695.448125 674.918125 
L 695.448125 554.218125 
L 66.053125 554.218125 
z
" style="fill: #ffffff"/>
   </g>
   <g id="PathCollection_3">
    <g clip-path="url(#p18c202974f)">
     <use xlink:href="#mf65a105286" x="185.638175" y="559.704489" style="fill: #1f77b4; stroke: #1f77b4"/>
    </g>
   </g>
   <g id="matplotlib.axis_7">
    <g id="xtick_28">
     <g id="line2d_42">
      <g>
       <use xlink:href="#m53c620a412" x="66.053125" y="674.918125" style="stroke: #000000; stroke-width: 0.8"/>
      </g>
     </g>
     <g id="text_48">
      <!-- 0 -->
      <g transform="translate(62.871875 689.516562)scale(0.1 -0.1)">
       <use xlink:href="#DejaVuSans-30"/>
      </g>
     </g>
    </g>
    <g id="xtick_29">
     <g id="line2d_43">
      <g>
       <use xlink:href="#m53c620a412" x="144.7275" y="674.918125" style="stroke: #000000; stroke-width: 0.8"/>
      </g>
     </g>
     <g id="text_49">
      <!-- 50 -->
      <g transform="translate(138.365 689.516562)scale(0.1 -0.1)">
       <use xlink:href="#DejaVuSans-35"/>
       <use xlink:href="#DejaVuSans-30" x="63.623047"/>
      </g>
     </g>
    </g>
    <g id="xtick_30">
     <g id="line2d_44">
      <g>
       <use xlink:href="#m53c620a412" x="223.401875" y="674.918125" style="stroke: #000000; stroke-width: 0.8"/>
      </g>
     </g>
     <g id="text_50">
      <!-- 100 -->
      <g transform="translate(213.858125 689.516562)scale(0.1 -0.1)">
       <use xlink:href="#DejaVuSans-31"/>
       <use xlink:href="#DejaVuSans-30" x="63.623047"/>
       <use xlink:href="#DejaVuSans-30" x="127.246094"/>
      </g>
     </g>
    </g>
    <g id="xtick_31">
     <g id="line2d_45">
      <g>
       <use xlink:href="#m53c620a412" x="302.07625" y="674.918125" style="stroke: #000000; stroke-width: 0.8"/>
      </g>
     </g>
     <g id="text_51">
      <!-- 150 -->
      <g transform="translate(292.5325 689.516562)scale(0.1 -0.1)">
       <use xlink:href="#DejaVuSans-31"/>
       <use xlink:href="#DejaVuSans-35" x="63.623047"/>
       <use xlink:href="#DejaVuSans-30" x="127.246094"/>
      </g>
     </g>
    </g>
    <g id="xtick_32">
     <g id="line2d_46">
      <g>
       <use xlink:href="#m53c620a412" x="380.750625" y="674.918125" style="stroke: #000000; stroke-width: 0.8"/>
      </g>
     </g>
     <g id="text_52">
      <!-- 200 -->
      <g transform="translate(371.206875 689.516562)scale(0.1 -0.1)">
       <use xlink:href="#DejaVuSans-32"/>
       <use xlink:href="#DejaVuSans-30" x="63.623047"/>
       <use xlink:href="#DejaVuSans-30" x="127.246094"/>
      </g>
     </g>
    </g>
    <g id="xtick_33">
     <g id="line2d_47">
      <g>
       <use xlink:href="#m53c620a412" x="459.425" y="674.918125" style="stroke: #000000; stroke-width: 0.8"/>
      </g>
     </g>
     <g id="text_53">
      <!-- 250 -->
      <g transform="translate(449.88125 689.516562)scale(0.1 -0.1)">
       <use xlink:href="#DejaVuSans-32"/>
       <use xlink:href="#DejaVuSans-35" x="63.623047"/>
       <use xlink:href="#DejaVuSans-30" x="127.246094"/>
      </g>
     </g>
    </g>
    <g id="xtick_34">
     <g id="line2d_48">
      <g>
       <use xlink:href="#m53c620a412" x="538.099375" y="674.918125" style="stroke: #000000; stroke-width: 0.8"/>
      </g>
     </g>
     <g id="text_54">
      <!-- 300 -->
      <g transform="translate(528.555625 689.516562)scale(0.1 -0.1)">
       <use xlink:href="#DejaVuSans-33"/>
       <use xlink:href="#DejaVuSans-30" x="63.623047"/>
       <use xlink:href="#DejaVuSans-30" x="127.246094"/>
      </g>
     </g>
    </g>
    <g id="xtick_35">
     <g id="line2d_49">
      <g>
       <use xlink:href="#m53c620a412" x="616.77375" y="674.918125" style="stroke: #000000; stroke-width: 0.8"/>
      </g>
     </g>
     <g id="text_55">
      <!-- 350 -->
      <g transform="translate(607.23 689.516562)scale(0.1 -0.1)">
       <use xlink:href="#DejaVuSans-33"/>
       <use xlink:href="#DejaVuSans-35" x="63.623047"/>
       <use xlink:href="#DejaVuSans-30" x="127.246094"/>
      </g>
     </g>
    </g>
    <g id="xtick_36">
     <g id="line2d_50">
      <g>
       <use xlink:href="#m53c620a412" x="695.448125" y="674.918125" style="stroke: #000000; stroke-width: 0.8"/>
      </g>
     </g>
     <g id="text_56">
      <!-- 400 -->
      <g transform="translate(685.904375 689.516562)scale(0.1 -0.1)">
       <use xlink:href="#DejaVuSans-34"/>
       <use xlink:href="#DejaVuSans-30" x="63.623047"/>
       <use xlink:href="#DejaVuSans-30" x="127.246094"/>
      </g>
     </g>
    </g>
    <g id="text_57">
     <!-- Shift (Period Index) -->
     <g transform="translate(332.951406 703.194687)scale(0.1 -0.1)">
      <use xlink:href="#DejaVuSans-53"/>
      <use xlink:href="#DejaVuSans-68" x="63.476562"/>
      <use xlink:href="#DejaVuSans-69" x="126.855469"/>
      <use xlink:href="#DejaVuSans-66" x="154.638672"/>
      <use xlink:href="#DejaVuSans-74" x="188.09375"/>
      <use xlink:href="#DejaVuSans-20" x="227.302734"/>
      <use xlink:href="#DejaVuSans-28" x="259.089844"/>
      <use xlink:href="#DejaVuSans-50" x="298.103516"/>
      <use xlink:href="#DejaVuSans-65" x="354.78125"/>
      <use xlink:href="#DejaVuSans-72" x="416.304688"/>
      <use xlink:href="#DejaVuSans-69" x="457.417969"/>
      <use xlink:href="#DejaVuSans-6f" x="485.201172"/>
      <use xlink:href="#DejaVuSans-64" x="546.382812"/>
      <use xlink:href="#DejaVuSans-20" x="609.859375"/>
      <use xlink:href="#DejaVuSans-49" x="641.646484"/>
      <use xlink:href="#DejaVuSans-6e" x="671.138672"/>
      <use xlink:href="#DejaVuSans-64" x="734.517578"/>
      <use xlink:href="#DejaVuSans-65" x="797.994141"/>
      <use xlink:href="#DejaVuSans-78" x="857.767578"/>
      <use xlink:href="#DejaVuSans-29" x="916.947266"/>
     </g>
    </g>
   </g>
   <g id="matplotlib.axis_8">
    <g id="ytick_12">
     <g id="line2d_51">
      <g>
       <use xlink:href="#m326e670398" x="66.053125" y="673.026508" style="stroke: #000000; stroke-width: 0.8"/>
      </g>
     </g>
     <g id="text_58">
      <!-- 2 -->
      <g transform="translate(44.310938 676.825727)scale(0.1 -0.1)">
       <defs>
        <path id="DejaVuSans-2212" d="M 678 2272 
L 4684 2272 
L 4684 1741 
L 678 1741 
L 678 2272 
z
" transform="scale(0.015625)"/>
       </defs>
       <use xlink:href="#DejaVuSans-2212"/>
       <use xlink:href="#DejaVuSans-32" x="83.789062"/>
      </g>
     </g>
    </g>
    <g id="ytick_13">
     <g id="line2d_52">
      <g>
       <use xlink:href="#m326e670398" x="66.053125" y="641.778612" style="stroke: #000000; stroke-width: 0.8"/>
      </g>
     </g>
     <g id="text_59">
      <!-- 0 -->
      <g transform="translate(52.690625 645.577831)scale(0.1 -0.1)">
       <use xlink:href="#DejaVuSans-30"/>
      </g>
     </g>
    </g>
    <g id="ytick_14">
     <g id="line2d_53">
      <g>
       <use xlink:href="#m326e670398" x="66.053125" y="610.530715" style="stroke: #000000; stroke-width: 0.8"/>
      </g>
     </g>
     <g id="text_60">
      <!-- 2 -->
      <g transform="translate(52.690625 614.329934)scale(0.1 -0.1)">
       <use xlink:href="#DejaVuSans-32"/>
      </g>
     </g>
    </g>
    <g id="ytick_15">
     <g id="line2d_54">
      <g>
       <use xlink:href="#m326e670398" x="66.053125" y="579.282819" style="stroke: #000000; stroke-width: 0.8"/>
      </g>
     </g>
     <g id="text_61">
      <!-- 4 -->
      <g transform="translate(52.690625 583.082038)scale(0.1 -0.1)">
       <use xlink:href="#DejaVuSans-34"/>
      </g>
     </g>
    </g>
    <g id="text_62">
     <!-- Product -->
     <g transform="translate(38.23125 633.550156)rotate(-90)scale(0.1 -0.1)">
      <use xlink:href="#DejaVuSans-50"/>
      <use xlink:href="#DejaVuSans-72" x="58.552734"/>
      <use xlink:href="#DejaVuSans-6f" x="97.416016"/>
      <use xlink:href="#DejaVuSans-64" x="158.597656"/>
      <use xlink:href="#DejaVuSans-75" x="222.074219"/>
      <use xlink:href="#DejaVuSans-63" x="285.453125"/>
      <use xlink:href="#DejaVuSans-74" x="340.433594"/>
     </g>
    </g>
    <g id="text_63">
     <!-- 1e8 -->
     <g transform="translate(66.053125 551.218125)scale(0.1 -0.1)">
      <defs>
       <path id="DejaVuSans-38" d="M 2034 2216 
Q 1584 2216 1326 1975 
Q 1069 1734 1069 1313 
Q 1069 891 1326 650 
Q 1584 409 2034 409 
Q 2484 409 2743 651 
Q 3003 894 3003 1313 
Q 3003 1734 2745 1975 
Q 2488 2216 2034 2216 
z
M 1403 2484 
Q 997 2584 770 2862 
Q 544 3141 544 3541 
Q 544 4100 942 4425 
Q 1341 4750 2034 4750 
Q 2731 4750 3128 4425 
Q 3525 4100 3525 3541 
Q 3525 3141 3298 2862 
Q 3072 2584 2669 2484 
Q 3125 2378 3379 2068 
Q 3634 1759 3634 1313 
Q 3634 634 3220 271 
Q 2806 -91 2034 -91 
Q 1263 -91 848 271 
Q 434 634 434 1313 
Q 434 1759 690 2068 
Q 947 2378 1403 2484 
z
M 1172 3481 
Q 1172 3119 1398 2916 
Q 1625 2713 2034 2713 
Q 2441 2713 2670 2916 
Q 2900 3119 2900 3481 
Q 2900 3844 2670 4047 
Q 2441 4250 2034 4250 
Q 1625 4250 1398 4047 
Q 1172 3844 1172 3481 
z
" transform="scale(0.015625)"/>
      </defs>
      <use xlink:href="#DejaVuSans-31"/>
      <use xlink:href="#DejaVuSans-65" x="63.623047"/>
      <use xlink:href="#DejaVuSans-38" x="125.146484"/>
     </g>
    </g>
   </g>
   <g id="line2d_55">
    <path d="M 66.053125 641.778612 
L 67.626613 641.778612 
L 69.2001 639.611124 
L 70.773588 640.250284 
L 72.347075 641.171689 
L 73.920563 641.301047 
L 77.067538 642.083205 
L 78.641025 643.477968 
L 80.214513 643.906637 
L 81.788 643.664464 
L 83.361488 643.575862 
L 84.934975 647.031968 
L 86.508463 646.375851 
L 88.08195 642.792127 
L 89.655438 646.631289 
L 91.228925 646.698667 
L 92.802413 643.675534 
L 94.3759 643.828456 
L 95.949388 647.623196 
L 97.522875 642.685893 
L 99.096362 642.284292 
L 100.66985 641.551668 
L 102.243338 641.014191 
L 103.816825 637.848861 
L 105.390313 621.131933 
L 106.9638 637.186574 
L 108.537288 636.403657 
L 110.110775 637.652297 
L 111.684263 640.729523 
L 113.25775 641.397245 
L 114.831238 642.348963 
L 116.404725 642.871506 
L 117.978213 642.765033 
L 121.125188 643.756055 
L 122.698675 643.806191 
L 124.272163 645.899771 
L 125.84565 669.431761 
L 127.419138 645.693934 
L 128.992625 647.549863 
L 130.566113 642.965659 
L 132.1396 643.936445 
L 133.713088 646.454317 
L 135.286575 642.803096 
L 136.860063 642.097686 
L 138.43355 641.692357 
L 140.007038 640.060342 
L 141.580525 639.660889 
L 143.154013 639.445228 
L 144.7275 638.804057 
L 146.300988 639.141089 
L 147.874475 640.735966 
L 149.447963 641.561285 
L 151.02145 642.190496 
L 152.594938 643.401451 
L 154.168425 643.46798 
L 155.741913 644.083836 
L 157.3154 643.730285 
L 158.888888 643.720079 
L 160.462375 644.81463 
L 163.60935 644.571509 
L 165.182838 644.293274 
L 166.756325 643.887265 
L 169.9033 643.629727 
L 171.476788 644.245267 
L 173.050275 644.160323 
L 174.623762 643.109562 
L 176.19725 641.678968 
L 177.770737 640.70689 
L 179.344225 640.332303 
L 180.917712 638.842536 
L 182.4912 624.922169 
L 184.064687 583.788164 
L 185.638175 559.704489 
L 187.211662 596.135955 
L 188.78515 626.514522 
L 190.358637 634.807744 
L 191.932125 639.03538 
L 193.505612 640.334403 
L 195.0791 641.005488 
L 198.226075 644.371728 
L 199.799562 645.738282 
L 201.37305 646.569255 
L 202.946537 646.044874 
L 206.093512 644.178553 
L 207.667 644.449646 
L 209.240488 644.587451 
L 210.813975 644.506375 
L 215.534438 643.225386 
L 217.107925 642.965749 
L 218.681413 642.519124 
L 220.2549 641.808665 
L 224.975363 637.466318 
L 226.54885 636.854334 
L 228.122338 637.349071 
L 231.269313 640.613131 
L 232.8428 641.756359 
L 234.416288 642.478462 
L 235.989775 643.038259 
L 237.563263 643.40718 
L 239.13675 643.372468 
L 240.710238 643.105769 
L 242.283725 642.574611 
L 245.4307 643.243731 
L 248.577675 643.4613 
L 250.151162 643.432828 
L 253.298137 643.669694 
L 254.871625 643.17835 
L 256.445112 642.137166 
L 259.592087 638.70505 
L 261.165575 637.993954 
L 262.739062 638.076471 
L 264.31255 638.639661 
L 267.459525 640.390609 
L 270.6065 642.166332 
L 272.179987 642.747129 
L 273.753475 643.12785 
L 276.90045 643.47523 
L 284.767887 644.059486 
L 287.914863 643.618641 
L 289.48835 643.336971 
L 291.061838 642.877016 
L 292.635325 642.659601 
L 294.208813 641.815809 
L 295.7823 639.843308 
L 297.355788 636.746489 
L 298.929275 632.319618 
L 302.07625 622.596538 
L 303.649738 618.509713 
L 305.223225 617.985784 
L 306.796713 621.508866 
L 308.3702 625.766778 
L 311.517175 635.902687 
L 313.090663 639.559847 
L 314.66415 642.092718 
L 316.237638 643.676424 
L 317.811125 644.024281 
L 319.384613 644.060096 
L 322.531588 644.65031 
L 325.678562 645.02225 
L 327.25205 644.853927 
L 330.399025 644.142965 
L 335.119487 642.962211 
L 336.692975 642.474613 
L 341.413437 640.520447 
L 344.560412 639.902201 
L 346.1339 639.769051 
L 347.707387 640.003636 
L 349.280875 640.360354 
L 350.854363 640.945748 
L 354.001338 642.500515 
L 355.574825 642.996838 
L 358.7218 643.640881 
L 361.868775 644.063759 
L 363.442263 644.157591 
L 365.01575 644.041356 
L 372.883188 642.482248 
L 374.456675 642.126723 
L 377.60365 640.978799 
L 380.750625 639.695785 
L 382.324113 639.386396 
L 383.8976 639.411849 
L 385.471088 639.920604 
L 388.618063 641.883402 
L 390.19155 643.067792 
L 391.765038 643.900705 
L 394.912013 644.992401 
L 398.058988 645.642983 
L 399.632475 645.735539 
L 402.77945 646.083796 
L 404.352937 645.826705 
L 405.926425 645.18548 
L 407.499912 644.422184 
L 410.646887 642.589103 
L 412.220375 641.983938 
L 413.793862 641.071918 
L 415.36735 639.969521 
L 418.514325 637.3154 
L 420.087812 636.542485 
L 421.6613 636.267664 
L 423.234787 636.617674 
L 424.808275 637.405951 
L 426.381762 638.34519 
L 429.528738 640.41081 
L 431.102225 641.188814 
L 432.675713 641.705723 
L 435.822688 642.070616 
L 443.690125 642.686121 
L 448.410588 642.867499 
L 451.557563 642.742818 
L 453.13105 642.60347 
L 456.278025 641.953601 
L 459.425 641.09378 
L 462.571975 640.589931 
L 464.145463 640.507237 
L 465.71895 640.578901 
L 467.292438 640.81355 
L 468.865925 641.170887 
L 473.586388 642.546277 
L 476.733362 643.277833 
L 479.880337 643.563178 
L 483.027312 643.661312 
L 486.174287 643.483011 
L 489.321262 643.178085 
L 490.89475 642.767666 
L 492.468237 642.202557 
L 495.615212 640.867289 
L 498.762187 639.819481 
L 500.335675 639.530979 
L 501.909162 639.417069 
L 503.48265 639.762655 
L 505.056137 640.528434 
L 508.203112 642.472584 
L 509.7766 643.186494 
L 512.923575 644.070206 
L 517.644037 644.594021 
L 520.791012 644.515573 
L 525.511475 644.014332 
L 527.084962 643.995481 
L 528.65845 643.658054 
L 530.231937 642.80297 
L 531.805425 641.413893 
L 534.9524 637.688318 
L 538.099375 634.577123 
L 539.672862 633.187122 
L 541.24635 632.20337 
L 542.819837 631.892299 
L 544.393325 632.413846 
L 545.966812 633.969985 
L 547.5403 635.9195 
L 550.687275 640.054046 
L 552.260762 641.74836 
L 553.83425 643.079217 
L 555.407737 644.000487 
L 556.981225 644.777037 
L 558.554712 645.230705 
L 560.1282 645.352929 
L 566.42215 645.025016 
L 569.569125 645.243825 
L 571.142612 645.070695 
L 572.7161 644.472059 
L 574.289587 643.515639 
L 579.01005 639.661866 
L 580.583538 638.784995 
L 582.157025 638.222506 
L 583.730513 638.441473 
L 585.304 639.335901 
L 588.450975 641.353425 
L 590.024463 642.219153 
L 591.59795 642.796698 
L 596.318413 644.048621 
L 597.8919 644.236982 
L 599.465388 644.145457 
L 602.612363 644.287002 
L 604.18585 644.163443 
L 605.759338 644.169914 
L 607.332825 643.976862 
L 608.906313 643.438917 
L 615.200263 640.442931 
L 616.77375 640.050752 
L 618.347238 639.788561 
L 619.920725 639.696785 
L 621.494213 639.967788 
L 623.0677 640.418468 
L 624.641188 641.093492 
L 627.788162 642.744027 
L 629.36165 643.495366 
L 630.935137 643.930596 
L 634.082112 644.376931 
L 637.229087 644.416125 
L 638.802575 644.266482 
L 643.523037 643.432723 
L 645.096525 643.321885 
L 648.2435 642.620608 
L 649.816987 642.0735 
L 657.684425 637.819936 
L 659.257912 637.386245 
L 660.8314 637.175207 
L 662.404887 637.243711 
L 663.978375 637.714518 
L 665.551862 638.646686 
L 668.698837 640.733865 
L 670.272325 641.502913 
L 671.845812 641.991645 
L 678.139762 643.099389 
L 681.286737 643.038337 
L 686.0072 642.978825 
L 689.154175 642.833879 
L 692.30115 642.372242 
L 697.021612 641.394605 
L 697.021612 641.394605 
" clip-path="url(#p18c202974f)" style="fill: none; stroke: #1f77b4; stroke-width: 1.5; stroke-linecap: square"/>
   </g>
   <g id="patch_18">
    <path d="M 66.053125 674.918125 
L 66.053125 554.218125 
" style="fill: none; stroke: #000000; stroke-width: 0.8; stroke-linejoin: miter; stroke-linecap: square"/>
   </g>
   <g id="patch_19">
    <path d="M 695.448125 674.918125 
L 695.448125 554.218125 
" style="fill: none; stroke: #000000; stroke-width: 0.8; stroke-linejoin: miter; stroke-linecap: square"/>
   </g>
   <g id="patch_20">
    <path d="M 66.053125 674.918125 
L 695.448125 674.918125 
" style="fill: none; stroke: #000000; stroke-width: 0.8; stroke-linejoin: miter; stroke-linecap: square"/>
   </g>
   <g id="patch_21">
    <path d="M 66.053125 554.218125 
L 695.448125 554.218125 
" style="fill: none; stroke: #000000; stroke-width: 0.8; stroke-linejoin: miter; stroke-linecap: square"/>
   </g>
   <g id="text_64">
    <!-- Product of ACF And Warped DFT( Max 76) -->
    <g transform="translate(256.12875 548.218125)scale(0.12 -0.12)">
     <defs>
      <path id="DejaVuSans-43" d="M 4122 4306 
L 4122 3641 
Q 3803 3938 3442 4084 
Q 3081 4231 2675 4231 
Q 1875 4231 1450 3742 
Q 1025 3253 1025 2328 
Q 1025 1406 1450 917 
Q 1875 428 2675 428 
Q 3081 428 3442 575 
Q 3803 722 4122 1019 
L 4122 359 
Q 3791 134 3420 21 
Q 3050 -91 2638 -91 
Q 1578 -91 968 557 
Q 359 1206 359 2328 
Q 359 3453 968 4101 
Q 1578 4750 2638 4750 
Q 3056 4750 3426 4639 
Q 3797 4528 4122 4306 
z
" transform="scale(0.015625)"/>
      <path id="DejaVuSans-37" d="M 525 4666 
L 3525 4666 
L 3525 4397 
L 1831 0 
L 1172 0 
L 2766 4134 
L 525 4134 
L 525 4666 
z
" transform="scale(0.015625)"/>
     </defs>
     <use xlink:href="#DejaVuSans-50"/>
     <use xlink:href="#DejaVuSans-72" x="58.552734"/>
     <use xlink:href="#DejaVuSans-6f" x="97.416016"/>
     <use xlink:href="#DejaVuSans-64" x="158.597656"/>
     <use xlink:href="#DejaVuSans-75" x="222.074219"/>
     <use xlink:href="#DejaVuSans-63" x="285.453125"/>
     <use xlink:href="#DejaVuSans-74" x="340.433594"/>
     <use xlink:href="#DejaVuSans-20" x="379.642578"/>
     <use xlink:href="#DejaVuSans-6f" x="411.429688"/>
     <use xlink:href="#DejaVuSans-66" x="472.611328"/>
     <use xlink:href="#DejaVuSans-20" x="507.816406"/>
     <use xlink:href="#DejaVuSans-41" x="539.603516"/>
     <use xlink:href="#DejaVuSans-43" x="606.261719"/>
     <use xlink:href="#DejaVuSans-46" x="676.085938"/>
     <use xlink:href="#DejaVuSans-20" x="733.605469"/>
     <use xlink:href="#DejaVuSans-41" x="765.392578"/>
     <use xlink:href="#DejaVuSans-6e" x="833.800781"/>
     <use xlink:href="#DejaVuSans-64" x="897.179688"/>
     <use xlink:href="#DejaVuSans-20" x="960.65625"/>
     <use xlink:href="#DejaVuSans-57" x="992.443359"/>
     <use xlink:href="#DejaVuSans-61" x="1084.945312"/>
     <use xlink:href="#DejaVuSans-72" x="1146.224609"/>
     <use xlink:href="#DejaVuSans-70" x="1187.337891"/>
     <use xlink:href="#DejaVuSans-65" x="1250.814453"/>
     <use xlink:href="#DejaVuSans-64" x="1312.337891"/>
     <use xlink:href="#DejaVuSans-20" x="1375.814453"/>
     <use xlink:href="#DejaVuSans-44" x="1407.601562"/>
     <use xlink:href="#DejaVuSans-46" x="1484.603516"/>
     <use xlink:href="#DejaVuSans-54" x="1540.373047"/>
     <use xlink:href="#DejaVuSans-28" x="1601.457031"/>
     <use xlink:href="#DejaVuSans-20" x="1640.470703"/>
     <use xlink:href="#DejaVuSans-4d" x="1672.257812"/>
     <use xlink:href="#DejaVuSans-61" x="1758.537109"/>
     <use xlink:href="#DejaVuSans-78" x="1819.816406"/>
     <use xlink:href="#DejaVuSans-20" x="1878.996094"/>
     <use xlink:href="#DejaVuSans-37" x="1910.783203"/>
     <use xlink:href="#DejaVuSans-36" x="1974.40625"/>
     <use xlink:href="#DejaVuSans-29" x="2038.029297"/>
    </g>
   </g>
  </g>
 </g>
 <defs>
  <clipPath id="pd039656dc7">
   <rect x="66.053125" y="22.318125" width="629.395" height="120.7"/>
  </clipPath>
  <clipPath id="pb3251f5b08">
   <rect x="66.053125" y="199.618125" width="629.395" height="120.7"/>
  </clipPath>
  <clipPath id="p87fcfcc3f6">
   <rect x="66.053125" y="376.918125" width="629.395" height="120.7"/>
  </clipPath>
  <clipPath id="p18c202974f">
   <rect x="66.053125" y="554.218125" width="629.395" height="120.7"/>
  </clipPath>
 </defs>
</svg>
