<?xml version="1.0" encoding="utf-8" standalone="no"?>
<!DOCTYPE svg PUBLIC "-//W3C//DTD SVG 1.1//EN"
  "http://www.w3.org/Graphics/SVG/1.1/DTD/svg11.dtd">
<svg xmlns:xlink="http://www.w3.org/1999/xlink" width="712.191875pt" height="712.474375pt" viewBox="0 0 712.191875 712.474375" xmlns="http://www.w3.org/2000/svg" version="1.1">
 <metadata>
  <rdf:RDF xmlns:dc="http://purl.org/dc/elements/1.1/" xmlns:cc="http://creativecommons.org/ns#" xmlns:rdf="http://www.w3.org/1999/02/22-rdf-syntax-ns#">
   <cc:Work>
    <dc:type rdf:resource="http://purl.org/dc/dcmitype/StillImage"/>
    <dc:date>2023-03-19T14:16:33.539861</dc:date>
    <dc:format>image/svg+xml</dc:format>
    <dc:creator>
     <cc:Agent>
      <dc:title>Matplotlib v3.5.2, https://matplotlib.org/</dc:title>
     </cc:Agent>
    </dc:creator>
   </cc:Work>
  </rdf:RDF>
 </metadata>
 <defs>
  <style type="text/css">*{stroke-linejoin: round; stroke-linecap: butt}</style>
 </defs>
 <g id="figure_1">
  <g id="patch_1">
   <path d="M 0 712.474375 
L 712.191875 712.474375 
L 712.191875 0 
L 0 0 
z
" style="fill: #ffffff"/>
  </g>
  <g id="axes_1">
   <g id="patch_2">
    <path d="M 66.053125 143.018125 
L 695.448125 143.018125 
L 695.448125 22.318125 
L 66.053125 22.318125 
z
" style="fill: #ffffff"/>
   </g>
   <g id="matplotlib.axis_1">
    <g id="xtick_1">
     <g id="line2d_1">
      <defs>
       <path id="m921430443b" d="M 0 0 
L 0 3.5 
" style="stroke: #000000; stroke-width: 0.8"/>
      </defs>
      <g>
       <use xlink:href="#m921430443b" x="66.053125" y="143.018125" style="stroke: #000000; stroke-width: 0.8"/>
      </g>
     </g>
     <g id="text_1">
      <!-- 0 -->
      <g transform="translate(62.871875 157.616563)scale(0.1 -0.1)">
       <defs>
        <path id="DejaVuSans-30" d="M 2034 4250 
Q 1547 4250 1301 3770 
Q 1056 3291 1056 2328 
Q 1056 1369 1301 889 
Q 1547 409 2034 409 
Q 2525 409 2770 889 
Q 3016 1369 3016 2328 
Q 3016 3291 2770 3770 
Q 2525 4250 2034 4250 
z
M 2034 4750 
Q 2819 4750 3233 4129 
Q 3647 3509 3647 2328 
Q 3647 1150 3233 529 
Q 2819 -91 2034 -91 
Q 1250 -91 836 529 
Q 422 1150 422 2328 
Q 422 3509 836 4129 
Q 1250 4750 2034 4750 
z
" transform="scale(0.015625)"/>
       </defs>
       <use xlink:href="#DejaVuSans-30"/>
      </g>
     </g>
    </g>
    <g id="xtick_2">
     <g id="line2d_2">
      <g>
       <use xlink:href="#m921430443b" x="144.7275" y="143.018125" style="stroke: #000000; stroke-width: 0.8"/>
      </g>
     </g>
     <g id="text_2">
      <!-- 50 -->
      <g transform="translate(138.365 157.616563)scale(0.1 -0.1)">
       <defs>
        <path id="DejaVuSans-35" d="M 691 4666 
L 3169 4666 
L 3169 4134 
L 1269 4134 
L 1269 2991 
Q 1406 3038 1543 3061 
Q 1681 3084 1819 3084 
Q 2600 3084 3056 2656 
Q 3513 2228 3513 1497 
Q 3513 744 3044 326 
Q 2575 -91 1722 -91 
Q 1428 -91 1123 -41 
Q 819 9 494 109 
L 494 744 
Q 775 591 1075 516 
Q 1375 441 1709 441 
Q 2250 441 2565 725 
Q 2881 1009 2881 1497 
Q 2881 1984 2565 2268 
Q 2250 2553 1709 2553 
Q 1456 2553 1204 2497 
Q 953 2441 691 2322 
L 691 4666 
z
" transform="scale(0.015625)"/>
       </defs>
       <use xlink:href="#DejaVuSans-35"/>
       <use xlink:href="#DejaVuSans-30" x="63.623047"/>
      </g>
     </g>
    </g>
    <g id="xtick_3">
     <g id="line2d_3">
      <g>
       <use xlink:href="#m921430443b" x="223.401875" y="143.018125" style="stroke: #000000; stroke-width: 0.8"/>
      </g>
     </g>
     <g id="text_3">
      <!-- 100 -->
      <g transform="translate(213.858125 157.616563)scale(0.1 -0.1)">
       <defs>
        <path id="DejaVuSans-31" d="M 794 531 
L 1825 531 
L 1825 4091 
L 703 3866 
L 703 4441 
L 1819 4666 
L 2450 4666 
L 2450 531 
L 3481 531 
L 3481 0 
L 794 0 
L 794 531 
z
" transform="scale(0.015625)"/>
       </defs>
       <use xlink:href="#DejaVuSans-31"/>
       <use xlink:href="#DejaVuSans-30" x="63.623047"/>
       <use xlink:href="#DejaVuSans-30" x="127.246094"/>
      </g>
     </g>
    </g>
    <g id="xtick_4">
     <g id="line2d_4">
      <g>
       <use xlink:href="#m921430443b" x="302.07625" y="143.018125" style="stroke: #000000; stroke-width: 0.8"/>
      </g>
     </g>
     <g id="text_4">
      <!-- 150 -->
      <g transform="translate(292.5325 157.616563)scale(0.1 -0.1)">
       <use xlink:href="#DejaVuSans-31"/>
       <use xlink:href="#DejaVuSans-35" x="63.623047"/>
       <use xlink:href="#DejaVuSans-30" x="127.246094"/>
      </g>
     </g>
    </g>
    <g id="xtick_5">
     <g id="line2d_5">
      <g>
       <use xlink:href="#m921430443b" x="380.750625" y="143.018125" style="stroke: #000000; stroke-width: 0.8"/>
      </g>
     </g>
     <g id="text_5">
      <!-- 200 -->
      <g transform="translate(371.206875 157.616563)scale(0.1 -0.1)">
       <defs>
        <path id="DejaVuSans-32" d="M 1228 531 
L 3431 531 
L 3431 0 
L 469 0 
L 469 531 
Q 828 903 1448 1529 
Q 2069 2156 2228 2338 
Q 2531 2678 2651 2914 
Q 2772 3150 2772 3378 
Q 2772 3750 2511 3984 
Q 2250 4219 1831 4219 
Q 1534 4219 1204 4116 
Q 875 4013 500 3803 
L 500 4441 
Q 881 4594 1212 4672 
Q 1544 4750 1819 4750 
Q 2544 4750 2975 4387 
Q 3406 4025 3406 3419 
Q 3406 3131 3298 2873 
Q 3191 2616 2906 2266 
Q 2828 2175 2409 1742 
Q 1991 1309 1228 531 
z
" transform="scale(0.015625)"/>
       </defs>
       <use xlink:href="#DejaVuSans-32"/>
       <use xlink:href="#DejaVuSans-30" x="63.623047"/>
       <use xlink:href="#DejaVuSans-30" x="127.246094"/>
      </g>
     </g>
    </g>
    <g id="xtick_6">
     <g id="line2d_6">
      <g>
       <use xlink:href="#m921430443b" x="459.425" y="143.018125" style="stroke: #000000; stroke-width: 0.8"/>
      </g>
     </g>
     <g id="text_6">
      <!-- 250 -->
      <g transform="translate(449.88125 157.616563)scale(0.1 -0.1)">
       <use xlink:href="#DejaVuSans-32"/>
       <use xlink:href="#DejaVuSans-35" x="63.623047"/>
       <use xlink:href="#DejaVuSans-30" x="127.246094"/>
      </g>
     </g>
    </g>
    <g id="xtick_7">
     <g id="line2d_7">
      <g>
       <use xlink:href="#m921430443b" x="538.099375" y="143.018125" style="stroke: #000000; stroke-width: 0.8"/>
      </g>
     </g>
     <g id="text_7">
      <!-- 300 -->
      <g transform="translate(528.555625 157.616563)scale(0.1 -0.1)">
       <defs>
        <path id="DejaVuSans-33" d="M 2597 2516 
Q 3050 2419 3304 2112 
Q 3559 1806 3559 1356 
Q 3559 666 3084 287 
Q 2609 -91 1734 -91 
Q 1441 -91 1130 -33 
Q 819 25 488 141 
L 488 750 
Q 750 597 1062 519 
Q 1375 441 1716 441 
Q 2309 441 2620 675 
Q 2931 909 2931 1356 
Q 2931 1769 2642 2001 
Q 2353 2234 1838 2234 
L 1294 2234 
L 1294 2753 
L 1863 2753 
Q 2328 2753 2575 2939 
Q 2822 3125 2822 3475 
Q 2822 3834 2567 4026 
Q 2313 4219 1838 4219 
Q 1578 4219 1281 4162 
Q 984 4106 628 3988 
L 628 4550 
Q 988 4650 1302 4700 
Q 1616 4750 1894 4750 
Q 2613 4750 3031 4423 
Q 3450 4097 3450 3541 
Q 3450 3153 3228 2886 
Q 3006 2619 2597 2516 
z
" transform="scale(0.015625)"/>
       </defs>
       <use xlink:href="#DejaVuSans-33"/>
       <use xlink:href="#DejaVuSans-30" x="63.623047"/>
       <use xlink:href="#DejaVuSans-30" x="127.246094"/>
      </g>
     </g>
    </g>
    <g id="xtick_8">
     <g id="line2d_8">
      <g>
       <use xlink:href="#m921430443b" x="616.77375" y="143.018125" style="stroke: #000000; stroke-width: 0.8"/>
      </g>
     </g>
     <g id="text_8">
      <!-- 350 -->
      <g transform="translate(607.23 157.616563)scale(0.1 -0.1)">
       <use xlink:href="#DejaVuSans-33"/>
       <use xlink:href="#DejaVuSans-35" x="63.623047"/>
       <use xlink:href="#DejaVuSans-30" x="127.246094"/>
      </g>
     </g>
    </g>
    <g id="xtick_9">
     <g id="line2d_9">
      <g>
       <use xlink:href="#m921430443b" x="695.448125" y="143.018125" style="stroke: #000000; stroke-width: 0.8"/>
      </g>
     </g>
     <g id="text_9">
      <!-- 400 -->
      <g transform="translate(685.904375 157.616563)scale(0.1 -0.1)">
       <defs>
        <path id="DejaVuSans-34" d="M 2419 4116 
L 825 1625 
L 2419 1625 
L 2419 4116 
z
M 2253 4666 
L 3047 4666 
L 3047 1625 
L 3713 1625 
L 3713 1100 
L 3047 1100 
L 3047 0 
L 2419 0 
L 2419 1100 
L 313 1100 
L 313 1709 
L 2253 4666 
z
" transform="scale(0.015625)"/>
       </defs>
       <use xlink:href="#DejaVuSans-34"/>
       <use xlink:href="#DejaVuSans-30" x="63.623047"/>
       <use xlink:href="#DejaVuSans-30" x="127.246094"/>
      </g>
     </g>
    </g>
    <g id="text_10">
     <!-- Shift (Period Index) -->
     <g transform="translate(332.951406 171.294688)scale(0.1 -0.1)">
      <defs>
       <path id="DejaVuSans-53" d="M 3425 4513 
L 3425 3897 
Q 3066 4069 2747 4153 
Q 2428 4238 2131 4238 
Q 1616 4238 1336 4038 
Q 1056 3838 1056 3469 
Q 1056 3159 1242 3001 
Q 1428 2844 1947 2747 
L 2328 2669 
Q 3034 2534 3370 2195 
Q 3706 1856 3706 1288 
Q 3706 609 3251 259 
Q 2797 -91 1919 -91 
Q 1588 -91 1214 -16 
Q 841 59 441 206 
L 441 856 
Q 825 641 1194 531 
Q 1563 422 1919 422 
Q 2459 422 2753 634 
Q 3047 847 3047 1241 
Q 3047 1584 2836 1778 
Q 2625 1972 2144 2069 
L 1759 2144 
Q 1053 2284 737 2584 
Q 422 2884 422 3419 
Q 422 4038 858 4394 
Q 1294 4750 2059 4750 
Q 2388 4750 2728 4690 
Q 3069 4631 3425 4513 
z
" transform="scale(0.015625)"/>
       <path id="DejaVuSans-68" d="M 3513 2113 
L 3513 0 
L 2938 0 
L 2938 2094 
Q 2938 2591 2744 2837 
Q 2550 3084 2163 3084 
Q 1697 3084 1428 2787 
Q 1159 2491 1159 1978 
L 1159 0 
L 581 0 
L 581 4863 
L 1159 4863 
L 1159 2956 
Q 1366 3272 1645 3428 
Q 1925 3584 2291 3584 
Q 2894 3584 3203 3211 
Q 3513 2838 3513 2113 
z
" transform="scale(0.015625)"/>
       <path id="DejaVuSans-69" d="M 603 3500 
L 1178 3500 
L 1178 0 
L 603 0 
L 603 3500 
z
M 603 4863 
L 1178 4863 
L 1178 4134 
L 603 4134 
L 603 4863 
z
" transform="scale(0.015625)"/>
       <path id="DejaVuSans-66" d="M 2375 4863 
L 2375 4384 
L 1825 4384 
Q 1516 4384 1395 4259 
Q 1275 4134 1275 3809 
L 1275 3500 
L 2222 3500 
L 2222 3053 
L 1275 3053 
L 1275 0 
L 697 0 
L 697 3053 
L 147 3053 
L 147 3500 
L 697 3500 
L 697 3744 
Q 697 4328 969 4595 
Q 1241 4863 1831 4863 
L 2375 4863 
z
" transform="scale(0.015625)"/>
       <path id="DejaVuSans-74" d="M 1172 4494 
L 1172 3500 
L 2356 3500 
L 2356 3053 
L 1172 3053 
L 1172 1153 
Q 1172 725 1289 603 
Q 1406 481 1766 481 
L 2356 481 
L 2356 0 
L 1766 0 
Q 1100 0 847 248 
Q 594 497 594 1153 
L 594 3053 
L 172 3053 
L 172 3500 
L 594 3500 
L 594 4494 
L 1172 4494 
z
" transform="scale(0.015625)"/>
       <path id="DejaVuSans-20" transform="scale(0.015625)"/>
       <path id="DejaVuSans-28" d="M 1984 4856 
Q 1566 4138 1362 3434 
Q 1159 2731 1159 2009 
Q 1159 1288 1364 580 
Q 1569 -128 1984 -844 
L 1484 -844 
Q 1016 -109 783 600 
Q 550 1309 550 2009 
Q 550 2706 781 3412 
Q 1013 4119 1484 4856 
L 1984 4856 
z
" transform="scale(0.015625)"/>
       <path id="DejaVuSans-50" d="M 1259 4147 
L 1259 2394 
L 2053 2394 
Q 2494 2394 2734 2622 
Q 2975 2850 2975 3272 
Q 2975 3691 2734 3919 
Q 2494 4147 2053 4147 
L 1259 4147 
z
M 628 4666 
L 2053 4666 
Q 2838 4666 3239 4311 
Q 3641 3956 3641 3272 
Q 3641 2581 3239 2228 
Q 2838 1875 2053 1875 
L 1259 1875 
L 1259 0 
L 628 0 
L 628 4666 
z
" transform="scale(0.015625)"/>
       <path id="DejaVuSans-65" d="M 3597 1894 
L 3597 1613 
L 953 1613 
Q 991 1019 1311 708 
Q 1631 397 2203 397 
Q 2534 397 2845 478 
Q 3156 559 3463 722 
L 3463 178 
Q 3153 47 2828 -22 
Q 2503 -91 2169 -91 
Q 1331 -91 842 396 
Q 353 884 353 1716 
Q 353 2575 817 3079 
Q 1281 3584 2069 3584 
Q 2775 3584 3186 3129 
Q 3597 2675 3597 1894 
z
M 3022 2063 
Q 3016 2534 2758 2815 
Q 2500 3097 2075 3097 
Q 1594 3097 1305 2825 
Q 1016 2553 972 2059 
L 3022 2063 
z
" transform="scale(0.015625)"/>
       <path id="DejaVuSans-72" d="M 2631 2963 
Q 2534 3019 2420 3045 
Q 2306 3072 2169 3072 
Q 1681 3072 1420 2755 
Q 1159 2438 1159 1844 
L 1159 0 
L 581 0 
L 581 3500 
L 1159 3500 
L 1159 2956 
Q 1341 3275 1631 3429 
Q 1922 3584 2338 3584 
Q 2397 3584 2469 3576 
Q 2541 3569 2628 3553 
L 2631 2963 
z
" transform="scale(0.015625)"/>
       <path id="DejaVuSans-6f" d="M 1959 3097 
Q 1497 3097 1228 2736 
Q 959 2375 959 1747 
Q 959 1119 1226 758 
Q 1494 397 1959 397 
Q 2419 397 2687 759 
Q 2956 1122 2956 1747 
Q 2956 2369 2687 2733 
Q 2419 3097 1959 3097 
z
M 1959 3584 
Q 2709 3584 3137 3096 
Q 3566 2609 3566 1747 
Q 3566 888 3137 398 
Q 2709 -91 1959 -91 
Q 1206 -91 779 398 
Q 353 888 353 1747 
Q 353 2609 779 3096 
Q 1206 3584 1959 3584 
z
" transform="scale(0.015625)"/>
       <path id="DejaVuSans-64" d="M 2906 2969 
L 2906 4863 
L 3481 4863 
L 3481 0 
L 2906 0 
L 2906 525 
Q 2725 213 2448 61 
Q 2172 -91 1784 -91 
Q 1150 -91 751 415 
Q 353 922 353 1747 
Q 353 2572 751 3078 
Q 1150 3584 1784 3584 
Q 2172 3584 2448 3432 
Q 2725 3281 2906 2969 
z
M 947 1747 
Q 947 1113 1208 752 
Q 1469 391 1925 391 
Q 2381 391 2643 752 
Q 2906 1113 2906 1747 
Q 2906 2381 2643 2742 
Q 2381 3103 1925 3103 
Q 1469 3103 1208 2742 
Q 947 2381 947 1747 
z
" transform="scale(0.015625)"/>
       <path id="DejaVuSans-49" d="M 628 4666 
L 1259 4666 
L 1259 0 
L 628 0 
L 628 4666 
z
" transform="scale(0.015625)"/>
       <path id="DejaVuSans-6e" d="M 3513 2113 
L 3513 0 
L 2938 0 
L 2938 2094 
Q 2938 2591 2744 2837 
Q 2550 3084 2163 3084 
Q 1697 3084 1428 2787 
Q 1159 2491 1159 1978 
L 1159 0 
L 581 0 
L 581 3500 
L 1159 3500 
L 1159 2956 
Q 1366 3272 1645 3428 
Q 1925 3584 2291 3584 
Q 2894 3584 3203 3211 
Q 3513 2838 3513 2113 
z
" transform="scale(0.015625)"/>
       <path id="DejaVuSans-78" d="M 3513 3500 
L 2247 1797 
L 3578 0 
L 2900 0 
L 1881 1375 
L 863 0 
L 184 0 
L 1544 1831 
L 300 3500 
L 978 3500 
L 1906 2253 
L 2834 3500 
L 3513 3500 
z
" transform="scale(0.015625)"/>
       <path id="DejaVuSans-29" d="M 513 4856 
L 1013 4856 
Q 1481 4119 1714 3412 
Q 1947 2706 1947 2009 
Q 1947 1309 1714 600 
Q 1481 -109 1013 -844 
L 513 -844 
Q 928 -128 1133 580 
Q 1338 1288 1338 2009 
Q 1338 2731 1133 3434 
Q 928 4138 513 4856 
z
" transform="scale(0.015625)"/>
      </defs>
      <use xlink:href="#DejaVuSans-53"/>
      <use xlink:href="#DejaVuSans-68" x="63.476562"/>
      <use xlink:href="#DejaVuSans-69" x="126.855469"/>
      <use xlink:href="#DejaVuSans-66" x="154.638672"/>
      <use xlink:href="#DejaVuSans-74" x="188.09375"/>
      <use xlink:href="#DejaVuSans-20" x="227.302734"/>
      <use xlink:href="#DejaVuSans-28" x="259.089844"/>
      <use xlink:href="#DejaVuSans-50" x="298.103516"/>
      <use xlink:href="#DejaVuSans-65" x="354.78125"/>
      <use xlink:href="#DejaVuSans-72" x="416.304688"/>
      <use xlink:href="#DejaVuSans-69" x="457.417969"/>
      <use xlink:href="#DejaVuSans-6f" x="485.201172"/>
      <use xlink:href="#DejaVuSans-64" x="546.382812"/>
      <use xlink:href="#DejaVuSans-20" x="609.859375"/>
      <use xlink:href="#DejaVuSans-49" x="641.646484"/>
      <use xlink:href="#DejaVuSans-6e" x="671.138672"/>
      <use xlink:href="#DejaVuSans-64" x="734.517578"/>
      <use xlink:href="#DejaVuSans-65" x="797.994141"/>
      <use xlink:href="#DejaVuSans-78" x="857.767578"/>
      <use xlink:href="#DejaVuSans-29" x="916.947266"/>
     </g>
    </g>
   </g>
   <g id="matplotlib.axis_2">
    <g id="ytick_1">
     <g id="line2d_10">
      <defs>
       <path id="m01ca61f1e1" d="M 0 0 
L -3.5 0 
" style="stroke: #000000; stroke-width: 0.8"/>
      </defs>
      <g>
       <use xlink:href="#m01ca61f1e1" x="66.053125" y="116.318398" style="stroke: #000000; stroke-width: 0.8"/>
      </g>
     </g>
     <g id="text_11">
      <!-- 0 -->
      <g transform="translate(52.690625 120.117616)scale(0.1 -0.1)">
       <use xlink:href="#DejaVuSans-30"/>
      </g>
     </g>
    </g>
    <g id="ytick_2">
     <g id="line2d_11">
      <g>
       <use xlink:href="#m01ca61f1e1" x="66.053125" y="84.313164" style="stroke: #000000; stroke-width: 0.8"/>
      </g>
     </g>
     <g id="text_12">
      <!-- 200000 -->
      <g transform="translate(20.878125 88.112383)scale(0.1 -0.1)">
       <use xlink:href="#DejaVuSans-32"/>
       <use xlink:href="#DejaVuSans-30" x="63.623047"/>
       <use xlink:href="#DejaVuSans-30" x="127.246094"/>
       <use xlink:href="#DejaVuSans-30" x="190.869141"/>
       <use xlink:href="#DejaVuSans-30" x="254.492188"/>
       <use xlink:href="#DejaVuSans-30" x="318.115234"/>
      </g>
     </g>
    </g>
    <g id="ytick_3">
     <g id="line2d_12">
      <g>
       <use xlink:href="#m01ca61f1e1" x="66.053125" y="52.30793" style="stroke: #000000; stroke-width: 0.8"/>
      </g>
     </g>
     <g id="text_13">
      <!-- 400000 -->
      <g transform="translate(20.878125 56.107149)scale(0.1 -0.1)">
       <use xlink:href="#DejaVuSans-34"/>
       <use xlink:href="#DejaVuSans-30" x="63.623047"/>
       <use xlink:href="#DejaVuSans-30" x="127.246094"/>
       <use xlink:href="#DejaVuSans-30" x="190.869141"/>
       <use xlink:href="#DejaVuSans-30" x="254.492188"/>
       <use xlink:href="#DejaVuSans-30" x="318.115234"/>
      </g>
     </g>
    </g>
    <g id="text_14">
     <!-- Dot Product -->
     <g transform="translate(14.798438 112.10875)rotate(-90)scale(0.1 -0.1)">
      <defs>
       <path id="DejaVuSans-44" d="M 1259 4147 
L 1259 519 
L 2022 519 
Q 2988 519 3436 956 
Q 3884 1394 3884 2338 
Q 3884 3275 3436 3711 
Q 2988 4147 2022 4147 
L 1259 4147 
z
M 628 4666 
L 1925 4666 
Q 3281 4666 3915 4102 
Q 4550 3538 4550 2338 
Q 4550 1131 3912 565 
Q 3275 0 1925 0 
L 628 0 
L 628 4666 
z
" transform="scale(0.015625)"/>
       <path id="DejaVuSans-75" d="M 544 1381 
L 544 3500 
L 1119 3500 
L 1119 1403 
Q 1119 906 1312 657 
Q 1506 409 1894 409 
Q 2359 409 2629 706 
Q 2900 1003 2900 1516 
L 2900 3500 
L 3475 3500 
L 3475 0 
L 2900 0 
L 2900 538 
Q 2691 219 2414 64 
Q 2138 -91 1772 -91 
Q 1169 -91 856 284 
Q 544 659 544 1381 
z
M 1991 3584 
L 1991 3584 
z
" transform="scale(0.015625)"/>
       <path id="DejaVuSans-63" d="M 3122 3366 
L 3122 2828 
Q 2878 2963 2633 3030 
Q 2388 3097 2138 3097 
Q 1578 3097 1268 2742 
Q 959 2388 959 1747 
Q 959 1106 1268 751 
Q 1578 397 2138 397 
Q 2388 397 2633 464 
Q 2878 531 3122 666 
L 3122 134 
Q 2881 22 2623 -34 
Q 2366 -91 2075 -91 
Q 1284 -91 818 406 
Q 353 903 353 1747 
Q 353 2603 823 3093 
Q 1294 3584 2113 3584 
Q 2378 3584 2631 3529 
Q 2884 3475 3122 3366 
z
" transform="scale(0.015625)"/>
      </defs>
      <use xlink:href="#DejaVuSans-44"/>
      <use xlink:href="#DejaVuSans-6f" x="77.001953"/>
      <use xlink:href="#DejaVuSans-74" x="138.183594"/>
      <use xlink:href="#DejaVuSans-20" x="177.392578"/>
      <use xlink:href="#DejaVuSans-50" x="209.179688"/>
      <use xlink:href="#DejaVuSans-72" x="267.732422"/>
      <use xlink:href="#DejaVuSans-6f" x="306.595703"/>
      <use xlink:href="#DejaVuSans-64" x="367.777344"/>
      <use xlink:href="#DejaVuSans-75" x="431.253906"/>
      <use xlink:href="#DejaVuSans-63" x="494.632812"/>
      <use xlink:href="#DejaVuSans-74" x="549.613281"/>
     </g>
    </g>
   </g>
   <g id="line2d_13">
    <path d="M 66.053125 27.804489 
L 67.626613 49.611144 
L 70.773588 109.779859 
L 72.347075 131.420781 
L 73.920563 135.982944 
L 75.49405 136.29071 
L 77.067538 131.633938 
L 80.214513 114.092769 
L 81.788 110.395558 
L 83.361488 115.224035 
L 86.508463 131.917687 
L 88.08195 136.174636 
L 89.655438 134.824381 
L 91.228925 128.978096 
L 92.802413 116.306541 
L 94.3759 100.119628 
L 95.949388 85.995158 
L 97.522875 80.413611 
L 99.096362 88.50843 
L 102.243338 117.469343 
L 103.816825 127.521389 
L 105.390313 131.50577 
L 106.9638 132.444987 
L 108.537288 128.377112 
L 111.684263 111.908462 
L 113.25775 107.612753 
L 114.831238 112.643576 
L 117.978213 130.759846 
L 119.5517 135.402236 
L 121.125188 133.505 
L 122.698675 126.847188 
L 124.272163 111.643761 
L 125.84565 93.575377 
L 127.419138 77.86374 
L 128.992625 73.683628 
L 130.566113 84.987184 
L 133.713088 119.001865 
L 135.286575 129.078059 
L 136.860063 132.259439 
L 138.43355 131.471511 
L 140.007038 125.481523 
L 141.580525 117.130442 
L 143.154013 110.228084 
L 144.7275 109.615549 
L 146.300988 116.328195 
L 147.874475 125.684977 
L 149.447963 133.194789 
L 151.02145 136.133133 
L 152.594938 135.150294 
L 154.168425 129.261985 
L 155.741913 115.939922 
L 157.3154 100.314288 
L 158.888888 87.184486 
L 160.462375 84.630214 
L 162.035863 95.31426 
L 163.60935 110.000249 
L 165.182838 122.94207 
L 166.756325 130.278304 
L 168.329813 132.165279 
L 169.9033 130.619183 
L 171.476788 126.133144 
L 173.050275 119.787734 
L 174.623762 114.244421 
L 176.19725 113.557433 
L 177.770737 119.436381 
L 179.344225 127.320718 
L 180.917712 134.15876 
L 182.4912 137.531761 
L 184.064687 136.112814 
L 185.638175 128.18623 
L 187.211662 112.411387 
L 188.78515 93.551447 
L 190.358637 78.153157 
L 191.932125 77.478486 
L 193.505612 90.808876 
L 195.0791 108.425598 
L 196.652587 123.575275 
L 198.226075 130.891611 
L 199.799562 132.718369 
L 201.37305 129.84757 
L 202.946537 123.663736 
L 204.520025 116.759627 
L 206.093512 111.773754 
L 207.667 112.384884 
L 209.240488 118.736902 
L 210.813975 125.678684 
L 212.387463 131.125116 
L 213.96095 133.87791 
L 215.534438 131.5821 
L 217.107925 124.62431 
L 218.681413 112.478769 
L 220.2549 98.245008 
L 221.828388 87.935741 
L 223.401875 88.850831 
L 224.975363 99.457738 
L 226.54885 113.729318 
L 228.122338 125.987035 
L 229.695825 132.862135 
L 231.269313 134.459623 
L 232.8428 132.586801 
L 234.416288 126.574354 
L 235.989775 118.067191 
L 237.563263 112.211296 
L 239.13675 111.610823 
L 240.710238 117.152932 
L 242.283725 125.450556 
L 243.857213 131.845039 
L 245.4307 133.760007 
L 247.004188 131.061367 
L 248.577675 120.968522 
L 251.72465 88.759034 
L 253.298137 79.126064 
L 254.871625 83.064236 
L 256.445112 97.719203 
L 258.0186 114.666247 
L 259.592087 127.389187 
L 261.165575 133.356079 
L 262.739062 133.882337 
L 264.31255 129.799174 
L 265.886037 122.329471 
L 267.459525 115.553322 
L 269.033012 112.200767 
L 270.6065 115.44302 
L 272.179987 122.415988 
L 273.753475 128.319043 
L 275.326962 131.994369 
L 276.90045 131.26343 
L 278.473937 126.947005 
L 280.047425 117.380227 
L 283.1944 89.392873 
L 284.767887 82.425659 
L 286.341375 86.723406 
L 287.914863 99.353559 
L 289.48835 113.032911 
L 291.061838 122.716117 
L 292.635325 128.535231 
L 294.208813 129.791295 
L 295.7823 127.776442 
L 297.355788 123.339945 
L 298.929275 117.881799 
L 300.502763 114.585263 
L 302.07625 116.283657 
L 305.223225 127.876733 
L 306.796713 131.971468 
L 308.3702 132.79045 
L 309.943688 129.299462 
L 311.517175 118.867008 
L 314.66415 86.585632 
L 316.237638 78.022675 
L 317.811125 84.779263 
L 320.9581 116.245137 
L 322.531588 127.794619 
L 324.105075 133.137698 
L 325.678562 133.541053 
L 327.25205 130.166131 
L 328.825537 123.632837 
L 330.399025 116.424821 
L 331.972512 113.537464 
L 333.546 115.463197 
L 336.692975 126.170985 
L 338.266462 129.178497 
L 339.83995 129.267948 
L 341.413437 124.727122 
L 342.986925 115.034809 
L 346.1339 89.413617 
L 347.707387 85.443546 
L 349.280875 91.667722 
L 352.42785 118.241475 
L 354.001338 126.598126 
L 355.574825 130.280718 
L 357.148313 130.115564 
L 358.7218 127.294449 
L 360.295288 121.634555 
L 361.868775 114.994501 
L 363.442263 111.891253 
L 365.01575 114.725919 
L 368.162725 129.063285 
L 369.736213 132.528303 
L 371.3097 131.783545 
L 372.883188 126.183197 
L 374.456675 115.07806 
L 376.030163 100.327003 
L 377.60365 87.522663 
L 379.177138 84.168006 
L 380.750625 92.047972 
L 382.324113 106.580751 
L 383.8976 119.680689 
L 385.471088 127.65866 
L 387.044575 130.62663 
L 388.618063 129.273257 
L 390.19155 125.28102 
L 391.765038 118.649024 
L 393.338525 113.006904 
L 394.912013 112.08133 
L 396.4855 115.285982 
L 399.632475 127.524798 
L 401.205962 130.366056 
L 402.77945 131.839789 
L 404.352937 128.402752 
L 405.926425 118.806778 
L 409.0734 94.343797 
L 410.646887 90.42213 
L 412.220375 97.341845 
L 413.793862 109.528265 
L 415.36735 120.556758 
L 416.940837 128.572654 
L 418.514325 131.627164 
L 420.087812 130.985476 
L 421.6613 127.719024 
L 424.808275 115.255976 
L 426.381762 112.946845 
L 427.95525 115.753273 
L 429.528738 122.111637 
L 431.102225 127.38845 
L 432.675713 129.823802 
L 434.2492 129.160083 
L 435.822688 123.753692 
L 437.396175 113.550606 
L 438.969663 100.199957 
L 440.54315 87.960867 
L 442.116638 85.602378 
L 443.690125 94.626292 
L 445.263613 108.285406 
L 446.8371 120.783201 
L 448.410588 128.358848 
L 449.984075 130.880561 
L 451.557563 130.61828 
L 453.13105 126.659158 
L 454.704538 120.670928 
L 456.278025 115.157039 
L 457.851513 113.997654 
L 459.425 117.510055 
L 462.571975 127.635615 
L 464.145463 129.869326 
L 465.71895 128.49204 
L 467.292438 122.964021 
L 468.865925 112.35018 
L 470.439413 100.080884 
L 472.0129 91.173427 
L 473.586388 90.703059 
L 475.159875 99.239854 
L 476.733362 110.917703 
L 478.30685 120.97502 
L 479.880337 127.409653 
L 481.453825 130.258612 
L 483.027312 131.04034 
L 484.6008 128.349073 
L 486.174287 122.700542 
L 487.747775 117.705445 
L 489.321262 115.886173 
L 490.89475 118.41106 
L 492.468237 123.110601 
L 494.041725 126.473993 
L 495.615212 126.854743 
L 497.1887 124.499942 
L 498.762187 118.011228 
L 501.909162 93.313122 
L 503.48265 84.678596 
L 505.056137 86.293586 
L 506.629625 98.060078 
L 508.203112 112.152826 
L 509.7766 124.282375 
L 511.350088 130.590651 
L 512.923575 131.6337 
L 514.497062 129.236432 
L 517.644037 116.506495 
L 519.217525 111.591332 
L 520.791012 111.310684 
L 522.3645 116.30648 
L 523.937987 122.38322 
L 525.511475 126.550572 
L 527.084962 128.389837 
L 528.65845 125.854063 
L 530.231937 118.264335 
L 531.805425 106.698314 
L 533.378912 94.036968 
L 534.9524 87.198267 
L 536.525887 90.411241 
L 538.099375 101.042767 
L 539.672862 113.631229 
L 541.24635 123.262969 
L 542.819837 128.075795 
L 544.393325 130.104109 
L 545.966812 129.17895 
L 547.5403 125.474098 
L 549.113787 121.316884 
L 550.687275 117.987394 
L 552.260762 118.01583 
L 553.83425 122.142584 
L 555.407737 125.612118 
L 556.981225 127.417853 
L 558.554712 126.612098 
L 560.1282 122.883128 
L 561.701687 114.423809 
L 564.848662 90.921564 
L 566.42215 84.510101 
L 567.995637 89.884554 
L 571.142612 112.471609 
L 572.7161 120.487471 
L 574.289587 123.467523 
L 575.863075 124.512897 
L 577.436562 122.58991 
L 579.01005 118.984124 
L 580.583538 114.903504 
L 582.157025 113.622264 
L 583.730513 115.788788 
L 586.877488 124.471001 
L 588.450975 126.858787 
L 590.024463 127.234995 
L 591.59795 124.281788 
L 593.171438 116.589379 
L 596.318413 96.095702 
L 597.8919 91.829778 
L 599.465388 96.257688 
L 601.038875 105.318294 
L 602.612363 115.363021 
L 604.18585 122.536626 
L 605.759338 126.192947 
L 607.332825 128.195355 
L 608.906313 127.489423 
L 610.4798 123.848576 
L 612.053288 119.890912 
L 613.626775 117.372318 
L 615.200263 118.939189 
L 616.77375 123.231738 
L 618.347238 126.616031 
L 619.920725 128.287037 
L 621.494213 126.964212 
L 623.0677 122.223629 
L 624.641188 112.761684 
L 626.214675 100.684063 
L 627.788162 90.924691 
L 629.36165 88.724094 
L 630.935137 95.717449 
L 634.082112 116.886401 
L 635.6556 123.278314 
L 637.229087 126.424932 
L 638.802575 127.110438 
L 640.376062 124.083629 
L 643.523037 114.423172 
L 645.096525 113.065761 
L 646.670012 116.910315 
L 648.2435 122.607021 
L 649.816987 127.578128 
L 651.390475 129.560831 
L 652.963962 128.60849 
L 654.53745 124.888394 
L 656.110937 116.372427 
L 657.684425 105.290927 
L 659.257912 95.971555 
L 660.8314 92.239557 
L 662.404887 97.461341 
L 665.551862 115.608918 
L 667.12535 122.518212 
L 668.698837 126.636008 
L 670.272325 128.285992 
L 671.845812 127.013482 
L 673.4193 123.607607 
L 674.992787 119.727989 
L 676.566275 118.470941 
L 678.139762 120.707185 
L 679.71325 124.322996 
L 681.286737 127.417125 
L 682.860225 129.240849 
L 684.433712 127.982572 
L 686.0072 122.954434 
L 687.580687 113.159681 
L 689.154175 101.032197 
L 690.727662 91.84606 
L 692.30115 91.240496 
L 693.874637 99.521003 
L 695.448125 110.161051 
L 697.021612 119.147607 
L 697.021612 119.147607 
" clip-path="url(#p6b2dbece14)" style="fill: none; stroke: #1f77b4; stroke-width: 1.5; stroke-linecap: square"/>
   </g>
   <g id="patch_3">
    <path d="M 66.053125 143.018125 
L 66.053125 22.318125 
" style="fill: none; stroke: #000000; stroke-width: 0.8; stroke-linejoin: miter; stroke-linecap: square"/>
   </g>
   <g id="patch_4">
    <path d="M 695.448125 143.018125 
L 695.448125 22.318125 
" style="fill: none; stroke: #000000; stroke-width: 0.8; stroke-linejoin: miter; stroke-linecap: square"/>
   </g>
   <g id="patch_5">
    <path d="M 66.053125 143.018125 
L 695.448125 143.018125 
" style="fill: none; stroke: #000000; stroke-width: 0.8; stroke-linejoin: miter; stroke-linecap: square"/>
   </g>
   <g id="patch_6">
    <path d="M 66.053125 22.318125 
L 695.448125 22.318125 
" style="fill: none; stroke: #000000; stroke-width: 0.8; stroke-linejoin: miter; stroke-linecap: square"/>
   </g>
   <g id="text_15">
    <!-- Autocorrelation function -->
    <g transform="translate(308.2125 16.318125)scale(0.12 -0.12)">
     <defs>
      <path id="DejaVuSans-41" d="M 2188 4044 
L 1331 1722 
L 3047 1722 
L 2188 4044 
z
M 1831 4666 
L 2547 4666 
L 4325 0 
L 3669 0 
L 3244 1197 
L 1141 1197 
L 716 0 
L 50 0 
L 1831 4666 
z
" transform="scale(0.015625)"/>
      <path id="DejaVuSans-6c" d="M 603 4863 
L 1178 4863 
L 1178 0 
L 603 0 
L 603 4863 
z
" transform="scale(0.015625)"/>
      <path id="DejaVuSans-61" d="M 2194 1759 
Q 1497 1759 1228 1600 
Q 959 1441 959 1056 
Q 959 750 1161 570 
Q 1363 391 1709 391 
Q 2188 391 2477 730 
Q 2766 1069 2766 1631 
L 2766 1759 
L 2194 1759 
z
M 3341 1997 
L 3341 0 
L 2766 0 
L 2766 531 
Q 2569 213 2275 61 
Q 1981 -91 1556 -91 
Q 1019 -91 701 211 
Q 384 513 384 1019 
Q 384 1609 779 1909 
Q 1175 2209 1959 2209 
L 2766 2209 
L 2766 2266 
Q 2766 2663 2505 2880 
Q 2244 3097 1772 3097 
Q 1472 3097 1187 3025 
Q 903 2953 641 2809 
L 641 3341 
Q 956 3463 1253 3523 
Q 1550 3584 1831 3584 
Q 2591 3584 2966 3190 
Q 3341 2797 3341 1997 
z
" transform="scale(0.015625)"/>
     </defs>
     <use xlink:href="#DejaVuSans-41"/>
     <use xlink:href="#DejaVuSans-75" x="68.408203"/>
     <use xlink:href="#DejaVuSans-74" x="131.787109"/>
     <use xlink:href="#DejaVuSans-6f" x="170.996094"/>
     <use xlink:href="#DejaVuSans-63" x="232.177734"/>
     <use xlink:href="#DejaVuSans-6f" x="287.158203"/>
     <use xlink:href="#DejaVuSans-72" x="348.339844"/>
     <use xlink:href="#DejaVuSans-72" x="387.703125"/>
     <use xlink:href="#DejaVuSans-65" x="426.566406"/>
     <use xlink:href="#DejaVuSans-6c" x="488.089844"/>
     <use xlink:href="#DejaVuSans-61" x="515.873047"/>
     <use xlink:href="#DejaVuSans-74" x="577.152344"/>
     <use xlink:href="#DejaVuSans-69" x="616.361328"/>
     <use xlink:href="#DejaVuSans-6f" x="644.144531"/>
     <use xlink:href="#DejaVuSans-6e" x="705.326172"/>
     <use xlink:href="#DejaVuSans-20" x="768.705078"/>
     <use xlink:href="#DejaVuSans-66" x="800.492188"/>
     <use xlink:href="#DejaVuSans-75" x="835.697266"/>
     <use xlink:href="#DejaVuSans-6e" x="899.076172"/>
     <use xlink:href="#DejaVuSans-63" x="962.455078"/>
     <use xlink:href="#DejaVuSans-74" x="1017.435547"/>
     <use xlink:href="#DejaVuSans-69" x="1056.644531"/>
     <use xlink:href="#DejaVuSans-6f" x="1084.427734"/>
     <use xlink:href="#DejaVuSans-6e" x="1145.609375"/>
    </g>
   </g>
  </g>
  <g id="axes_2">
   <g id="patch_7">
    <path d="M 66.053125 320.318125 
L 695.448125 320.318125 
L 695.448125 199.618125 
L 66.053125 199.618125 
z
" style="fill: #ffffff"/>
   </g>
   <g id="PathCollection_1">
    <defs>
     <path id="me3094816e5" d="M 0 3 
C 0.795609 3 1.55874 2.683901 2.12132 2.12132 
C 2.683901 1.55874 3 0.795609 3 0 
C 3 -0.795609 2.683901 -1.55874 2.12132 -2.12132 
C 1.55874 -2.683901 0.795609 -3 0 -3 
C -0.795609 -3 -1.55874 -2.683901 -2.12132 -2.12132 
C -2.683901 -1.55874 -3 -0.795609 -3 0 
C -3 0.795609 -2.683901 1.55874 -2.12132 2.12132 
C -1.55874 2.683901 -0.795609 3 0 3 
z
" style="stroke: #1f77b4"/>
    </defs>
    <g clip-path="url(#p11457a6631)">
     <use xlink:href="#me3094816e5" x="473.586388" y="210.590852" style="fill: #1f77b4; stroke: #1f77b4"/>
    </g>
   </g>
   <g id="matplotlib.axis_3">
    <g id="xtick_10">
     <g id="line2d_14">
      <g>
       <use xlink:href="#m921430443b" x="66.053125" y="320.318125" style="stroke: #000000; stroke-width: 0.8"/>
      </g>
     </g>
     <g id="text_16">
      <!-- 0 -->
      <g transform="translate(62.871875 334.916562)scale(0.1 -0.1)">
       <use xlink:href="#DejaVuSans-30"/>
      </g>
     </g>
    </g>
    <g id="xtick_11">
     <g id="line2d_15">
      <g>
       <use xlink:href="#m921430443b" x="144.7275" y="320.318125" style="stroke: #000000; stroke-width: 0.8"/>
      </g>
     </g>
     <g id="text_17">
      <!-- 50 -->
      <g transform="translate(138.365 334.916562)scale(0.1 -0.1)">
       <use xlink:href="#DejaVuSans-35"/>
       <use xlink:href="#DejaVuSans-30" x="63.623047"/>
      </g>
     </g>
    </g>
    <g id="xtick_12">
     <g id="line2d_16">
      <g>
       <use xlink:href="#m921430443b" x="223.401875" y="320.318125" style="stroke: #000000; stroke-width: 0.8"/>
      </g>
     </g>
     <g id="text_18">
      <!-- 100 -->
      <g transform="translate(213.858125 334.916562)scale(0.1 -0.1)">
       <use xlink:href="#DejaVuSans-31"/>
       <use xlink:href="#DejaVuSans-30" x="63.623047"/>
       <use xlink:href="#DejaVuSans-30" x="127.246094"/>
      </g>
     </g>
    </g>
    <g id="xtick_13">
     <g id="line2d_17">
      <g>
       <use xlink:href="#m921430443b" x="302.07625" y="320.318125" style="stroke: #000000; stroke-width: 0.8"/>
      </g>
     </g>
     <g id="text_19">
      <!-- 150 -->
      <g transform="translate(292.5325 334.916562)scale(0.1 -0.1)">
       <use xlink:href="#DejaVuSans-31"/>
       <use xlink:href="#DejaVuSans-35" x="63.623047"/>
       <use xlink:href="#DejaVuSans-30" x="127.246094"/>
      </g>
     </g>
    </g>
    <g id="xtick_14">
     <g id="line2d_18">
      <g>
       <use xlink:href="#m921430443b" x="380.750625" y="320.318125" style="stroke: #000000; stroke-width: 0.8"/>
      </g>
     </g>
     <g id="text_20">
      <!-- 200 -->
      <g transform="translate(371.206875 334.916562)scale(0.1 -0.1)">
       <use xlink:href="#DejaVuSans-32"/>
       <use xlink:href="#DejaVuSans-30" x="63.623047"/>
       <use xlink:href="#DejaVuSans-30" x="127.246094"/>
      </g>
     </g>
    </g>
    <g id="xtick_15">
     <g id="line2d_19">
      <g>
       <use xlink:href="#m921430443b" x="459.425" y="320.318125" style="stroke: #000000; stroke-width: 0.8"/>
      </g>
     </g>
     <g id="text_21">
      <!-- 250 -->
      <g transform="translate(449.88125 334.916562)scale(0.1 -0.1)">
       <use xlink:href="#DejaVuSans-32"/>
       <use xlink:href="#DejaVuSans-35" x="63.623047"/>
       <use xlink:href="#DejaVuSans-30" x="127.246094"/>
      </g>
     </g>
    </g>
    <g id="xtick_16">
     <g id="line2d_20">
      <g>
       <use xlink:href="#m921430443b" x="538.099375" y="320.318125" style="stroke: #000000; stroke-width: 0.8"/>
      </g>
     </g>
     <g id="text_22">
      <!-- 300 -->
      <g transform="translate(528.555625 334.916562)scale(0.1 -0.1)">
       <use xlink:href="#DejaVuSans-33"/>
       <use xlink:href="#DejaVuSans-30" x="63.623047"/>
       <use xlink:href="#DejaVuSans-30" x="127.246094"/>
      </g>
     </g>
    </g>
    <g id="xtick_17">
     <g id="line2d_21">
      <g>
       <use xlink:href="#m921430443b" x="616.77375" y="320.318125" style="stroke: #000000; stroke-width: 0.8"/>
      </g>
     </g>
     <g id="text_23">
      <!-- 350 -->
      <g transform="translate(607.23 334.916562)scale(0.1 -0.1)">
       <use xlink:href="#DejaVuSans-33"/>
       <use xlink:href="#DejaVuSans-35" x="63.623047"/>
       <use xlink:href="#DejaVuSans-30" x="127.246094"/>
      </g>
     </g>
    </g>
    <g id="xtick_18">
     <g id="line2d_22">
      <g>
       <use xlink:href="#m921430443b" x="695.448125" y="320.318125" style="stroke: #000000; stroke-width: 0.8"/>
      </g>
     </g>
     <g id="text_24">
      <!-- 400 -->
      <g transform="translate(685.904375 334.916562)scale(0.1 -0.1)">
       <use xlink:href="#DejaVuSans-34"/>
       <use xlink:href="#DejaVuSans-30" x="63.623047"/>
       <use xlink:href="#DejaVuSans-30" x="127.246094"/>
      </g>
     </g>
    </g>
    <g id="text_25">
     <!-- Frequency Index -->
     <g transform="translate(339.565469 348.594687)scale(0.1 -0.1)">
      <defs>
       <path id="DejaVuSans-46" d="M 628 4666 
L 3309 4666 
L 3309 4134 
L 1259 4134 
L 1259 2759 
L 3109 2759 
L 3109 2228 
L 1259 2228 
L 1259 0 
L 628 0 
L 628 4666 
z
" transform="scale(0.015625)"/>
       <path id="DejaVuSans-71" d="M 947 1747 
Q 947 1113 1208 752 
Q 1469 391 1925 391 
Q 2381 391 2643 752 
Q 2906 1113 2906 1747 
Q 2906 2381 2643 2742 
Q 2381 3103 1925 3103 
Q 1469 3103 1208 2742 
Q 947 2381 947 1747 
z
M 2906 525 
Q 2725 213 2448 61 
Q 2172 -91 1784 -91 
Q 1150 -91 751 415 
Q 353 922 353 1747 
Q 353 2572 751 3078 
Q 1150 3584 1784 3584 
Q 2172 3584 2448 3432 
Q 2725 3281 2906 2969 
L 2906 3500 
L 3481 3500 
L 3481 -1331 
L 2906 -1331 
L 2906 525 
z
" transform="scale(0.015625)"/>
       <path id="DejaVuSans-79" d="M 2059 -325 
Q 1816 -950 1584 -1140 
Q 1353 -1331 966 -1331 
L 506 -1331 
L 506 -850 
L 844 -850 
Q 1081 -850 1212 -737 
Q 1344 -625 1503 -206 
L 1606 56 
L 191 3500 
L 800 3500 
L 1894 763 
L 2988 3500 
L 3597 3500 
L 2059 -325 
z
" transform="scale(0.015625)"/>
      </defs>
      <use xlink:href="#DejaVuSans-46"/>
      <use xlink:href="#DejaVuSans-72" x="50.269531"/>
      <use xlink:href="#DejaVuSans-65" x="89.132812"/>
      <use xlink:href="#DejaVuSans-71" x="150.65625"/>
      <use xlink:href="#DejaVuSans-75" x="214.132812"/>
      <use xlink:href="#DejaVuSans-65" x="277.511719"/>
      <use xlink:href="#DejaVuSans-6e" x="339.035156"/>
      <use xlink:href="#DejaVuSans-63" x="402.414062"/>
      <use xlink:href="#DejaVuSans-79" x="457.394531"/>
      <use xlink:href="#DejaVuSans-20" x="516.574219"/>
      <use xlink:href="#DejaVuSans-49" x="548.361328"/>
      <use xlink:href="#DejaVuSans-6e" x="577.853516"/>
      <use xlink:href="#DejaVuSans-64" x="641.232422"/>
      <use xlink:href="#DejaVuSans-65" x="704.708984"/>
      <use xlink:href="#DejaVuSans-78" x="764.482422"/>
     </g>
    </g>
   </g>
   <g id="matplotlib.axis_4">
    <g id="ytick_4">
     <g id="line2d_23">
      <g>
       <use xlink:href="#m01ca61f1e1" x="66.053125" y="320.318125" style="stroke: #000000; stroke-width: 0.8"/>
      </g>
     </g>
     <g id="text_26">
      <!-- 0 -->
      <g transform="translate(52.690625 324.117344)scale(0.1 -0.1)">
       <use xlink:href="#DejaVuSans-30"/>
      </g>
     </g>
    </g>
    <g id="ytick_5">
     <g id="line2d_24">
      <g>
       <use xlink:href="#m01ca61f1e1" x="66.053125" y="295.251442" style="stroke: #000000; stroke-width: 0.8"/>
      </g>
     </g>
     <g id="text_27">
      <!-- 2000 -->
      <g transform="translate(33.603125 299.050661)scale(0.1 -0.1)">
       <use xlink:href="#DejaVuSans-32"/>
       <use xlink:href="#DejaVuSans-30" x="63.623047"/>
       <use xlink:href="#DejaVuSans-30" x="127.246094"/>
       <use xlink:href="#DejaVuSans-30" x="190.869141"/>
      </g>
     </g>
    </g>
    <g id="ytick_6">
     <g id="line2d_25">
      <g>
       <use xlink:href="#m01ca61f1e1" x="66.053125" y="270.184759" style="stroke: #000000; stroke-width: 0.8"/>
      </g>
     </g>
     <g id="text_28">
      <!-- 4000 -->
      <g transform="translate(33.603125 273.983978)scale(0.1 -0.1)">
       <use xlink:href="#DejaVuSans-34"/>
       <use xlink:href="#DejaVuSans-30" x="63.623047"/>
       <use xlink:href="#DejaVuSans-30" x="127.246094"/>
       <use xlink:href="#DejaVuSans-30" x="190.869141"/>
      </g>
     </g>
    </g>
    <g id="ytick_7">
     <g id="line2d_26">
      <g>
       <use xlink:href="#m01ca61f1e1" x="66.053125" y="245.118076" style="stroke: #000000; stroke-width: 0.8"/>
      </g>
     </g>
     <g id="text_29">
      <!-- 6000 -->
      <g transform="translate(33.603125 248.917294)scale(0.1 -0.1)">
       <defs>
        <path id="DejaVuSans-36" d="M 2113 2584 
Q 1688 2584 1439 2293 
Q 1191 2003 1191 1497 
Q 1191 994 1439 701 
Q 1688 409 2113 409 
Q 2538 409 2786 701 
Q 3034 994 3034 1497 
Q 3034 2003 2786 2293 
Q 2538 2584 2113 2584 
z
M 3366 4563 
L 3366 3988 
Q 3128 4100 2886 4159 
Q 2644 4219 2406 4219 
Q 1781 4219 1451 3797 
Q 1122 3375 1075 2522 
Q 1259 2794 1537 2939 
Q 1816 3084 2150 3084 
Q 2853 3084 3261 2657 
Q 3669 2231 3669 1497 
Q 3669 778 3244 343 
Q 2819 -91 2113 -91 
Q 1303 -91 875 529 
Q 447 1150 447 2328 
Q 447 3434 972 4092 
Q 1497 4750 2381 4750 
Q 2619 4750 2861 4703 
Q 3103 4656 3366 4563 
z
" transform="scale(0.015625)"/>
       </defs>
       <use xlink:href="#DejaVuSans-36"/>
       <use xlink:href="#DejaVuSans-30" x="63.623047"/>
       <use xlink:href="#DejaVuSans-30" x="127.246094"/>
       <use xlink:href="#DejaVuSans-30" x="190.869141"/>
      </g>
     </g>
    </g>
    <g id="ytick_8">
     <g id="line2d_27">
      <g>
       <use xlink:href="#m01ca61f1e1" x="66.053125" y="220.051393" style="stroke: #000000; stroke-width: 0.8"/>
      </g>
     </g>
     <g id="text_30">
      <!-- 8000 -->
      <g transform="translate(33.603125 223.850611)scale(0.1 -0.1)">
       <defs>
        <path id="DejaVuSans-38" d="M 2034 2216 
Q 1584 2216 1326 1975 
Q 1069 1734 1069 1313 
Q 1069 891 1326 650 
Q 1584 409 2034 409 
Q 2484 409 2743 651 
Q 3003 894 3003 1313 
Q 3003 1734 2745 1975 
Q 2488 2216 2034 2216 
z
M 1403 2484 
Q 997 2584 770 2862 
Q 544 3141 544 3541 
Q 544 4100 942 4425 
Q 1341 4750 2034 4750 
Q 2731 4750 3128 4425 
Q 3525 4100 3525 3541 
Q 3525 3141 3298 2862 
Q 3072 2584 2669 2484 
Q 3125 2378 3379 2068 
Q 3634 1759 3634 1313 
Q 3634 634 3220 271 
Q 2806 -91 2034 -91 
Q 1263 -91 848 271 
Q 434 634 434 1313 
Q 434 1759 690 2068 
Q 947 2378 1403 2484 
z
M 1172 3481 
Q 1172 3119 1398 2916 
Q 1625 2713 2034 2713 
Q 2441 2713 2670 2916 
Q 2900 3119 2900 3481 
Q 2900 3844 2670 4047 
Q 2441 4250 2034 4250 
Q 1625 4250 1398 4047 
Q 1172 3844 1172 3481 
z
" transform="scale(0.015625)"/>
       </defs>
       <use xlink:href="#DejaVuSans-38"/>
       <use xlink:href="#DejaVuSans-30" x="63.623047"/>
       <use xlink:href="#DejaVuSans-30" x="127.246094"/>
       <use xlink:href="#DejaVuSans-30" x="190.869141"/>
      </g>
     </g>
    </g>
    <g id="text_31">
     <!-- Magitude -->
     <g transform="translate(27.523438 283.289219)rotate(-90)scale(0.1 -0.1)">
      <defs>
       <path id="DejaVuSans-4d" d="M 628 4666 
L 1569 4666 
L 2759 1491 
L 3956 4666 
L 4897 4666 
L 4897 0 
L 4281 0 
L 4281 4097 
L 3078 897 
L 2444 897 
L 1241 4097 
L 1241 0 
L 628 0 
L 628 4666 
z
" transform="scale(0.015625)"/>
       <path id="DejaVuSans-67" d="M 2906 1791 
Q 2906 2416 2648 2759 
Q 2391 3103 1925 3103 
Q 1463 3103 1205 2759 
Q 947 2416 947 1791 
Q 947 1169 1205 825 
Q 1463 481 1925 481 
Q 2391 481 2648 825 
Q 2906 1169 2906 1791 
z
M 3481 434 
Q 3481 -459 3084 -895 
Q 2688 -1331 1869 -1331 
Q 1566 -1331 1297 -1286 
Q 1028 -1241 775 -1147 
L 775 -588 
Q 1028 -725 1275 -790 
Q 1522 -856 1778 -856 
Q 2344 -856 2625 -561 
Q 2906 -266 2906 331 
L 2906 616 
Q 2728 306 2450 153 
Q 2172 0 1784 0 
Q 1141 0 747 490 
Q 353 981 353 1791 
Q 353 2603 747 3093 
Q 1141 3584 1784 3584 
Q 2172 3584 2450 3431 
Q 2728 3278 2906 2969 
L 2906 3500 
L 3481 3500 
L 3481 434 
z
" transform="scale(0.015625)"/>
      </defs>
      <use xlink:href="#DejaVuSans-4d"/>
      <use xlink:href="#DejaVuSans-61" x="86.279297"/>
      <use xlink:href="#DejaVuSans-67" x="147.558594"/>
      <use xlink:href="#DejaVuSans-69" x="211.035156"/>
      <use xlink:href="#DejaVuSans-74" x="238.818359"/>
      <use xlink:href="#DejaVuSans-75" x="278.027344"/>
      <use xlink:href="#DejaVuSans-64" x="341.40625"/>
      <use xlink:href="#DejaVuSans-65" x="404.882812"/>
     </g>
    </g>
   </g>
   <g id="line2d_28">
    <path d="M 66.053125 320.318125 
L 67.626613 302.073866 
L 69.2001 305.932647 
L 70.773588 310.623507 
L 72.347075 307.047573 
L 73.920563 308.311945 
L 75.49405 318.07656 
L 77.067538 301.810282 
L 78.641025 301.816658 
L 80.214513 306.643654 
L 81.788 300.855713 
L 83.361488 313.32152 
L 84.934975 311.409071 
L 86.508463 313.138047 
L 88.08195 303.797149 
L 89.655438 298.438637 
L 91.228925 309.918703 
L 92.802413 292.438645 
L 94.3759 303.621157 
L 95.949388 310.271288 
L 97.522875 314.129227 
L 99.096362 307.033966 
L 100.66985 314.211063 
L 102.243338 319.020049 
L 103.816825 305.78618 
L 106.9638 313.649031 
L 108.537288 312.727347 
L 110.110775 311.454502 
L 111.684263 312.38787 
L 113.25775 307.328087 
L 114.831238 313.638384 
L 117.978213 315.407665 
L 119.5517 314.877647 
L 121.125188 306.728193 
L 122.698675 312.878575 
L 124.272163 311.028346 
L 125.84565 312.931688 
L 127.419138 313.259703 
L 128.992625 306.274152 
L 130.566113 308.391163 
L 132.1396 312.206912 
L 133.713088 311.983076 
L 135.286575 317.822049 
L 136.860063 315.351932 
L 138.43355 311.732606 
L 140.007038 318.024458 
L 141.580525 310.105358 
L 143.154013 314.242199 
L 144.7275 316.997754 
L 146.300988 315.079392 
L 147.874475 310.192827 
L 149.447963 309.463789 
L 151.02145 309.319827 
L 152.594938 298.343128 
L 155.741913 304.936961 
L 157.3154 307.640737 
L 158.888888 313.939525 
L 160.462375 300.530959 
L 162.035863 307.981626 
L 163.60935 310.983986 
L 165.182838 299.750573 
L 166.756325 299.145479 
L 168.329813 286.393646 
L 169.9033 309.054484 
L 171.476788 317.655211 
L 173.050275 311.669067 
L 174.623762 307.109026 
L 176.19725 303.662234 
L 177.770737 298.651582 
L 179.344225 308.765151 
L 180.917712 306.08554 
L 182.4912 306.189373 
L 184.064687 306.442005 
L 185.638175 312.037925 
L 187.211662 310.565097 
L 188.78515 307.955964 
L 190.358637 307.281911 
L 191.932125 314.971734 
L 193.505612 311.074453 
L 195.0791 317.614415 
L 196.652587 316.14897 
L 198.226075 315.655525 
L 199.799562 307.450889 
L 201.37305 313.042885 
L 202.946537 299.353242 
L 204.520025 301.106934 
L 206.093512 308.147968 
L 207.667 296.94208 
L 209.240488 312.301476 
L 210.813975 315.71657 
L 212.387463 305.045705 
L 213.96095 304.395932 
L 215.534438 313.967035 
L 217.107925 301.823559 
L 218.681413 304.55964 
L 220.2549 315.477366 
L 221.828388 314.796837 
L 223.401875 314.298931 
L 224.975363 310.026481 
L 226.54885 309.588154 
L 228.122338 305.438658 
L 229.695825 314.178107 
L 231.269313 315.237629 
L 232.8428 316.457163 
L 234.416288 308.587539 
L 235.989775 311.235555 
L 237.563263 314.969718 
L 239.13675 303.126756 
L 240.710238 299.047841 
L 242.283725 307.600027 
L 243.857213 296.31842 
L 245.4307 295.067857 
L 247.004188 300.153241 
L 248.577675 310.254567 
L 250.151162 311.526675 
L 251.72465 307.238439 
L 253.298137 309.008765 
L 254.871625 317.052317 
L 256.445112 294.602037 
L 258.0186 298.630767 
L 259.592087 300.831414 
L 261.165575 310.763047 
L 262.739062 317.889554 
L 264.31255 287.315201 
L 265.886037 306.117898 
L 267.459525 288.65928 
L 269.033012 268.879314 
L 270.6065 217.383612 
L 272.179987 275.508059 
L 273.753475 302.938472 
L 275.326962 311.676067 
L 276.90045 296.134303 
L 278.473937 315.706972 
L 280.047425 308.677389 
L 281.620912 308.104643 
L 283.1944 318.150698 
L 284.767887 315.63804 
L 286.341375 315.101191 
L 287.914863 314.973969 
L 289.48835 310.113112 
L 291.061838 317.149471 
L 292.635325 309.107015 
L 294.208813 312.404009 
L 295.7823 304.460433 
L 297.355788 309.696236 
L 298.929275 307.525454 
L 300.502763 295.614888 
L 302.07625 307.598785 
L 303.649738 307.936745 
L 305.223225 314.22159 
L 306.796713 319.753263 
L 308.3702 316.385375 
L 309.943688 307.656716 
L 311.517175 313.223004 
L 313.090663 309.443304 
L 314.66415 307.453282 
L 316.237638 303.005942 
L 317.811125 307.245591 
L 319.384613 304.567477 
L 320.9581 293.891567 
L 322.531588 308.941757 
L 324.105075 314.395977 
L 325.678562 309.909091 
L 327.25205 313.926752 
L 328.825537 306.224026 
L 330.399025 305.577334 
L 331.972512 309.457383 
L 333.546 316.619088 
L 335.119487 312.051379 
L 336.692975 311.31934 
L 338.266462 313.803197 
L 339.83995 318.290934 
L 341.413437 304.143886 
L 342.986925 313.48827 
L 344.560412 310.923023 
L 346.1339 305.556935 
L 347.707387 315.006986 
L 349.280875 309.355561 
L 350.854363 301.914957 
L 352.42785 319.066864 
L 354.001338 310.492669 
L 355.574825 318.642138 
L 357.148313 311.429894 
L 358.7218 305.288315 
L 360.295288 311.145581 
L 361.868775 310.336148 
L 363.442263 307.765063 
L 365.01575 299.229758 
L 366.589238 308.600616 
L 368.162725 316.471389 
L 369.736213 309.160118 
L 371.3097 301.190835 
L 372.883188 300.677433 
L 374.456675 290.934745 
L 376.030163 301.73677 
L 377.60365 304.357266 
L 379.177138 316.194072 
L 380.750625 311.309301 
L 382.324113 317.095216 
L 383.8976 310.362394 
L 385.471088 304.53614 
L 387.044575 314.407387 
L 388.618063 307.32452 
L 390.19155 305.803628 
L 391.765038 303.498156 
L 393.338525 313.838796 
L 394.912013 309.720646 
L 396.4855 313.491868 
L 398.058988 305.546592 
L 399.632475 307.808702 
L 401.205962 312.578307 
L 402.77945 316.15757 
L 404.352937 307.928652 
L 405.926425 309.940322 
L 407.499912 307.70586 
L 409.0734 315.233812 
L 410.646887 309.741034 
L 412.220375 310.321801 
L 413.793862 311.066659 
L 415.36735 312.488433 
L 416.940837 302.625899 
L 418.514325 302.775565 
L 420.087812 303.472164 
L 421.6613 314.656815 
L 423.234787 308.505034 
L 424.808275 316.450682 
L 426.381762 317.588218 
L 427.95525 305.716874 
L 429.528738 313.384522 
L 431.102225 306.103561 
L 432.675713 304.984772 
L 434.2492 317.158386 
L 435.822688 312.401995 
L 437.396175 303.369804 
L 438.969663 313.308576 
L 440.54315 314.5977 
L 442.116638 312.222439 
L 443.690125 308.353726 
L 445.263613 308.603068 
L 446.8371 310.932089 
L 448.410588 313.772733 
L 449.984075 310.568288 
L 453.13105 300.574215 
L 454.704538 308.14226 
L 456.278025 318.395697 
L 457.851513 312.666508 
L 459.425 307.385446 
L 460.998488 311.402905 
L 462.571975 310.242825 
L 464.145463 309.354067 
L 465.71895 304.834239 
L 467.292438 303.122866 
L 468.865925 291.259781 
L 470.439413 291.167327 
L 472.0129 237.114238 
L 473.586388 210.590852 
L 475.159875 292.14858 
L 476.733362 274.496526 
L 478.30685 284.512052 
L 479.880337 316.442623 
L 481.453825 299.460644 
L 483.027312 299.583047 
L 484.6008 305.308288 
L 486.174287 303.193236 
L 487.747775 306.171345 
L 489.321262 296.602093 
L 490.89475 315.895446 
L 492.468237 312.167658 
L 494.041725 311.427055 
L 495.615212 317.979499 
L 497.1887 312.762864 
L 498.762187 314.662843 
L 500.335675 302.488062 
L 501.909162 314.249707 
L 503.48265 306.236697 
L 505.056137 306.876228 
L 506.629625 308.778225 
L 508.203112 311.890389 
L 509.7766 313.858335 
L 511.350088 317.223947 
L 512.923575 315.446239 
L 514.497062 304.8707 
L 516.07055 303.633702 
L 517.644037 308.50875 
L 519.217525 317.446703 
L 520.791012 309.908879 
L 522.3645 313.390293 
L 523.937987 314.509238 
L 525.511475 319.477108 
L 527.084962 309.272728 
L 528.65845 313.440249 
L 530.231937 312.345666 
L 531.805425 315.106675 
L 533.378912 315.904991 
L 534.9524 312.337098 
L 536.525887 317.778316 
L 538.099375 316.761719 
L 539.672862 306.159295 
L 541.24635 308.549311 
L 542.819837 305.544511 
L 544.393325 308.708938 
L 545.966812 307.117932 
L 547.5403 307.803513 
L 549.113787 315.541938 
L 550.687275 317.397766 
L 552.260762 314.85646 
L 553.83425 315.631064 
L 556.981225 307.799272 
L 558.554712 317.566361 
L 560.1282 314.911942 
L 561.701687 316.016453 
L 563.275175 312.659979 
L 564.848662 312.375081 
L 566.42215 310.898161 
L 567.995637 308.707326 
L 569.569125 304.943703 
L 571.142612 315.241436 
L 572.7161 317.311705 
L 574.289587 297.678306 
L 575.863075 288.257728 
L 577.436562 309.017948 
L 579.01005 310.885109 
L 580.583538 307.57013 
L 582.157025 313.880226 
L 583.730513 307.386989 
L 585.304 311.688769 
L 586.877488 307.803848 
L 588.450975 314.412549 
L 590.024463 315.695927 
L 591.59795 316.034121 
L 593.171438 311.949088 
L 594.744925 315.815045 
L 596.318413 316.203572 
L 599.465388 307.557724 
L 601.038875 316.220247 
L 602.612363 313.723198 
L 604.18585 307.929385 
L 605.759338 317.60339 
L 607.332825 310.063199 
L 608.906313 319.595278 
L 610.4798 317.942144 
L 612.053288 306.383764 
L 613.626775 316.944606 
L 615.200263 318.667493 
L 616.77375 308.322363 
L 618.347238 309.673809 
L 619.920725 306.15951 
L 621.494213 316.299913 
L 623.0677 310.104311 
L 624.641188 305.75158 
L 627.788162 314.722681 
L 629.36165 316.162337 
L 630.935137 313.001308 
L 632.508625 311.789357 
L 634.082112 312.109911 
L 635.6556 316.081103 
L 637.229087 309.593544 
L 638.802575 310.825636 
L 640.376062 316.458465 
L 641.94955 318.904874 
L 643.523037 318.480566 
L 645.096525 319.715272 
L 646.670012 315.591551 
L 648.2435 317.764346 
L 649.816987 319.198988 
L 651.390475 313.98801 
L 652.963962 313.59009 
L 654.53745 318.810343 
L 656.110937 315.141141 
L 657.684425 315.840367 
L 659.257912 315.644894 
L 660.8314 317.657575 
L 662.404887 314.300113 
L 663.978375 318.44704 
L 665.551862 317.932431 
L 667.12535 318.546579 
L 668.698837 317.739667 
L 670.272325 313.986643 
L 671.845812 316.445635 
L 673.4193 308.014087 
L 674.992787 315.510844 
L 676.566275 311.792739 
L 678.139762 268.641978 
L 679.71325 303.433648 
L 681.286737 308.335332 
L 682.860225 315.50361 
L 684.433712 317.797786 
L 686.0072 312.076678 
L 687.580687 319.241373 
L 689.154175 318.545084 
L 690.727662 309.781619 
L 692.30115 319.333494 
L 693.874637 313.35433 
L 695.448125 312.988847 
L 697.021612 317.588476 
L 697.021612 317.588476 
" clip-path="url(#p11457a6631)" style="fill: none; stroke: #1f77b4; stroke-width: 1.5; stroke-linecap: square"/>
   </g>
   <g id="patch_8">
    <path d="M 66.053125 320.318125 
L 66.053125 199.618125 
" style="fill: none; stroke: #000000; stroke-width: 0.8; stroke-linejoin: miter; stroke-linecap: square"/>
   </g>
   <g id="patch_9">
    <path d="M 695.448125 320.318125 
L 695.448125 199.618125 
" style="fill: none; stroke: #000000; stroke-width: 0.8; stroke-linejoin: miter; stroke-linecap: square"/>
   </g>
   <g id="patch_10">
    <path d="M 66.053125 320.318125 
L 695.448125 320.318125 
" style="fill: none; stroke: #000000; stroke-width: 0.8; stroke-linejoin: miter; stroke-linecap: square"/>
   </g>
   <g id="patch_11">
    <path d="M 66.053125 199.618125 
L 695.448125 199.618125 
" style="fill: none; stroke: #000000; stroke-width: 0.8; stroke-linejoin: miter; stroke-linecap: square"/>
   </g>
   <g id="text_32">
    <!-- Magnitude Discrete Fourier Transform (Max 259) -->
    <g transform="translate(235.270313 193.618125)scale(0.12 -0.12)">
     <defs>
      <path id="DejaVuSans-73" d="M 2834 3397 
L 2834 2853 
Q 2591 2978 2328 3040 
Q 2066 3103 1784 3103 
Q 1356 3103 1142 2972 
Q 928 2841 928 2578 
Q 928 2378 1081 2264 
Q 1234 2150 1697 2047 
L 1894 2003 
Q 2506 1872 2764 1633 
Q 3022 1394 3022 966 
Q 3022 478 2636 193 
Q 2250 -91 1575 -91 
Q 1294 -91 989 -36 
Q 684 19 347 128 
L 347 722 
Q 666 556 975 473 
Q 1284 391 1588 391 
Q 1994 391 2212 530 
Q 2431 669 2431 922 
Q 2431 1156 2273 1281 
Q 2116 1406 1581 1522 
L 1381 1569 
Q 847 1681 609 1914 
Q 372 2147 372 2553 
Q 372 3047 722 3315 
Q 1072 3584 1716 3584 
Q 2034 3584 2315 3537 
Q 2597 3491 2834 3397 
z
" transform="scale(0.015625)"/>
      <path id="DejaVuSans-54" d="M -19 4666 
L 3928 4666 
L 3928 4134 
L 2272 4134 
L 2272 0 
L 1638 0 
L 1638 4134 
L -19 4134 
L -19 4666 
z
" transform="scale(0.015625)"/>
      <path id="DejaVuSans-6d" d="M 3328 2828 
Q 3544 3216 3844 3400 
Q 4144 3584 4550 3584 
Q 5097 3584 5394 3201 
Q 5691 2819 5691 2113 
L 5691 0 
L 5113 0 
L 5113 2094 
Q 5113 2597 4934 2840 
Q 4756 3084 4391 3084 
Q 3944 3084 3684 2787 
Q 3425 2491 3425 1978 
L 3425 0 
L 2847 0 
L 2847 2094 
Q 2847 2600 2669 2842 
Q 2491 3084 2119 3084 
Q 1678 3084 1418 2786 
Q 1159 2488 1159 1978 
L 1159 0 
L 581 0 
L 581 3500 
L 1159 3500 
L 1159 2956 
Q 1356 3278 1631 3431 
Q 1906 3584 2284 3584 
Q 2666 3584 2933 3390 
Q 3200 3197 3328 2828 
z
" transform="scale(0.015625)"/>
      <path id="DejaVuSans-39" d="M 703 97 
L 703 672 
Q 941 559 1184 500 
Q 1428 441 1663 441 
Q 2288 441 2617 861 
Q 2947 1281 2994 2138 
Q 2813 1869 2534 1725 
Q 2256 1581 1919 1581 
Q 1219 1581 811 2004 
Q 403 2428 403 3163 
Q 403 3881 828 4315 
Q 1253 4750 1959 4750 
Q 2769 4750 3195 4129 
Q 3622 3509 3622 2328 
Q 3622 1225 3098 567 
Q 2575 -91 1691 -91 
Q 1453 -91 1209 -44 
Q 966 3 703 97 
z
M 1959 2075 
Q 2384 2075 2632 2365 
Q 2881 2656 2881 3163 
Q 2881 3666 2632 3958 
Q 2384 4250 1959 4250 
Q 1534 4250 1286 3958 
Q 1038 3666 1038 3163 
Q 1038 2656 1286 2365 
Q 1534 2075 1959 2075 
z
" transform="scale(0.015625)"/>
     </defs>
     <use xlink:href="#DejaVuSans-4d"/>
     <use xlink:href="#DejaVuSans-61" x="86.279297"/>
     <use xlink:href="#DejaVuSans-67" x="147.558594"/>
     <use xlink:href="#DejaVuSans-6e" x="211.035156"/>
     <use xlink:href="#DejaVuSans-69" x="274.414062"/>
     <use xlink:href="#DejaVuSans-74" x="302.197266"/>
     <use xlink:href="#DejaVuSans-75" x="341.40625"/>
     <use xlink:href="#DejaVuSans-64" x="404.785156"/>
     <use xlink:href="#DejaVuSans-65" x="468.261719"/>
     <use xlink:href="#DejaVuSans-20" x="529.785156"/>
     <use xlink:href="#DejaVuSans-44" x="561.572266"/>
     <use xlink:href="#DejaVuSans-69" x="638.574219"/>
     <use xlink:href="#DejaVuSans-73" x="666.357422"/>
     <use xlink:href="#DejaVuSans-63" x="718.457031"/>
     <use xlink:href="#DejaVuSans-72" x="773.4375"/>
     <use xlink:href="#DejaVuSans-65" x="812.300781"/>
     <use xlink:href="#DejaVuSans-74" x="873.824219"/>
     <use xlink:href="#DejaVuSans-65" x="913.033203"/>
     <use xlink:href="#DejaVuSans-20" x="974.556641"/>
     <use xlink:href="#DejaVuSans-46" x="1006.34375"/>
     <use xlink:href="#DejaVuSans-6f" x="1060.238281"/>
     <use xlink:href="#DejaVuSans-75" x="1121.419922"/>
     <use xlink:href="#DejaVuSans-72" x="1184.798828"/>
     <use xlink:href="#DejaVuSans-69" x="1225.912109"/>
     <use xlink:href="#DejaVuSans-65" x="1253.695312"/>
     <use xlink:href="#DejaVuSans-72" x="1315.21875"/>
     <use xlink:href="#DejaVuSans-20" x="1356.332031"/>
     <use xlink:href="#DejaVuSans-54" x="1388.119141"/>
     <use xlink:href="#DejaVuSans-72" x="1434.453125"/>
     <use xlink:href="#DejaVuSans-61" x="1475.566406"/>
     <use xlink:href="#DejaVuSans-6e" x="1536.845703"/>
     <use xlink:href="#DejaVuSans-73" x="1600.224609"/>
     <use xlink:href="#DejaVuSans-66" x="1652.324219"/>
     <use xlink:href="#DejaVuSans-6f" x="1687.529297"/>
     <use xlink:href="#DejaVuSans-72" x="1748.710938"/>
     <use xlink:href="#DejaVuSans-6d" x="1788.074219"/>
     <use xlink:href="#DejaVuSans-20" x="1885.486328"/>
     <use xlink:href="#DejaVuSans-28" x="1917.273438"/>
     <use xlink:href="#DejaVuSans-4d" x="1956.287109"/>
     <use xlink:href="#DejaVuSans-61" x="2042.566406"/>
     <use xlink:href="#DejaVuSans-78" x="2103.845703"/>
     <use xlink:href="#DejaVuSans-20" x="2163.025391"/>
     <use xlink:href="#DejaVuSans-32" x="2194.8125"/>
     <use xlink:href="#DejaVuSans-35" x="2258.435547"/>
     <use xlink:href="#DejaVuSans-39" x="2322.058594"/>
     <use xlink:href="#DejaVuSans-29" x="2385.681641"/>
    </g>
   </g>
  </g>
  <g id="axes_3">
   <g id="patch_12">
    <path d="M 66.053125 497.618125 
L 695.448125 497.618125 
L 695.448125 376.918125 
L 66.053125 376.918125 
z
" style="fill: #ffffff"/>
   </g>
   <g id="PathCollection_2">
    <g clip-path="url(#pef516cd39c)">
     <use xlink:href="#me3094816e5" x="81.788" y="430.630165" style="fill: #1f77b4; stroke: #1f77b4"/>
    </g>
   </g>
   <g id="matplotlib.axis_5">
    <g id="xtick_19">
     <g id="line2d_29">
      <g>
       <use xlink:href="#m921430443b" x="66.053125" y="497.618125" style="stroke: #000000; stroke-width: 0.8"/>
      </g>
     </g>
     <g id="text_33">
      <!-- 0 -->
      <g transform="translate(62.871875 512.216563)scale(0.1 -0.1)">
       <use xlink:href="#DejaVuSans-30"/>
      </g>
     </g>
    </g>
    <g id="xtick_20">
     <g id="line2d_30">
      <g>
       <use xlink:href="#m921430443b" x="144.7275" y="497.618125" style="stroke: #000000; stroke-width: 0.8"/>
      </g>
     </g>
     <g id="text_34">
      <!-- 50 -->
      <g transform="translate(138.365 512.216563)scale(0.1 -0.1)">
       <use xlink:href="#DejaVuSans-35"/>
       <use xlink:href="#DejaVuSans-30" x="63.623047"/>
      </g>
     </g>
    </g>
    <g id="xtick_21">
     <g id="line2d_31">
      <g>
       <use xlink:href="#m921430443b" x="223.401875" y="497.618125" style="stroke: #000000; stroke-width: 0.8"/>
      </g>
     </g>
     <g id="text_35">
      <!-- 100 -->
      <g transform="translate(213.858125 512.216563)scale(0.1 -0.1)">
       <use xlink:href="#DejaVuSans-31"/>
       <use xlink:href="#DejaVuSans-30" x="63.623047"/>
       <use xlink:href="#DejaVuSans-30" x="127.246094"/>
      </g>
     </g>
    </g>
    <g id="xtick_22">
     <g id="line2d_32">
      <g>
       <use xlink:href="#m921430443b" x="302.07625" y="497.618125" style="stroke: #000000; stroke-width: 0.8"/>
      </g>
     </g>
     <g id="text_36">
      <!-- 150 -->
      <g transform="translate(292.5325 512.216563)scale(0.1 -0.1)">
       <use xlink:href="#DejaVuSans-31"/>
       <use xlink:href="#DejaVuSans-35" x="63.623047"/>
       <use xlink:href="#DejaVuSans-30" x="127.246094"/>
      </g>
     </g>
    </g>
    <g id="xtick_23">
     <g id="line2d_33">
      <g>
       <use xlink:href="#m921430443b" x="380.750625" y="497.618125" style="stroke: #000000; stroke-width: 0.8"/>
      </g>
     </g>
     <g id="text_37">
      <!-- 200 -->
      <g transform="translate(371.206875 512.216563)scale(0.1 -0.1)">
       <use xlink:href="#DejaVuSans-32"/>
       <use xlink:href="#DejaVuSans-30" x="63.623047"/>
       <use xlink:href="#DejaVuSans-30" x="127.246094"/>
      </g>
     </g>
    </g>
    <g id="xtick_24">
     <g id="line2d_34">
      <g>
       <use xlink:href="#m921430443b" x="459.425" y="497.618125" style="stroke: #000000; stroke-width: 0.8"/>
      </g>
     </g>
     <g id="text_38">
      <!-- 250 -->
      <g transform="translate(449.88125 512.216563)scale(0.1 -0.1)">
       <use xlink:href="#DejaVuSans-32"/>
       <use xlink:href="#DejaVuSans-35" x="63.623047"/>
       <use xlink:href="#DejaVuSans-30" x="127.246094"/>
      </g>
     </g>
    </g>
    <g id="xtick_25">
     <g id="line2d_35">
      <g>
       <use xlink:href="#m921430443b" x="538.099375" y="497.618125" style="stroke: #000000; stroke-width: 0.8"/>
      </g>
     </g>
     <g id="text_39">
      <!-- 300 -->
      <g transform="translate(528.555625 512.216563)scale(0.1 -0.1)">
       <use xlink:href="#DejaVuSans-33"/>
       <use xlink:href="#DejaVuSans-30" x="63.623047"/>
       <use xlink:href="#DejaVuSans-30" x="127.246094"/>
      </g>
     </g>
    </g>
    <g id="xtick_26">
     <g id="line2d_36">
      <g>
       <use xlink:href="#m921430443b" x="616.77375" y="497.618125" style="stroke: #000000; stroke-width: 0.8"/>
      </g>
     </g>
     <g id="text_40">
      <!-- 350 -->
      <g transform="translate(607.23 512.216563)scale(0.1 -0.1)">
       <use xlink:href="#DejaVuSans-33"/>
       <use xlink:href="#DejaVuSans-35" x="63.623047"/>
       <use xlink:href="#DejaVuSans-30" x="127.246094"/>
      </g>
     </g>
    </g>
    <g id="xtick_27">
     <g id="line2d_37">
      <g>
       <use xlink:href="#m921430443b" x="695.448125" y="497.618125" style="stroke: #000000; stroke-width: 0.8"/>
      </g>
     </g>
     <g id="text_41">
      <!-- 400 -->
      <g transform="translate(685.904375 512.216563)scale(0.1 -0.1)">
       <use xlink:href="#DejaVuSans-34"/>
       <use xlink:href="#DejaVuSans-30" x="63.623047"/>
       <use xlink:href="#DejaVuSans-30" x="127.246094"/>
      </g>
     </g>
    </g>
    <g id="text_42">
     <!-- Shift (Period Index) -->
     <g transform="translate(332.951406 525.894687)scale(0.1 -0.1)">
      <use xlink:href="#DejaVuSans-53"/>
      <use xlink:href="#DejaVuSans-68" x="63.476562"/>
      <use xlink:href="#DejaVuSans-69" x="126.855469"/>
      <use xlink:href="#DejaVuSans-66" x="154.638672"/>
      <use xlink:href="#DejaVuSans-74" x="188.09375"/>
      <use xlink:href="#DejaVuSans-20" x="227.302734"/>
      <use xlink:href="#DejaVuSans-28" x="259.089844"/>
      <use xlink:href="#DejaVuSans-50" x="298.103516"/>
      <use xlink:href="#DejaVuSans-65" x="354.78125"/>
      <use xlink:href="#DejaVuSans-72" x="416.304688"/>
      <use xlink:href="#DejaVuSans-69" x="457.417969"/>
      <use xlink:href="#DejaVuSans-6f" x="485.201172"/>
      <use xlink:href="#DejaVuSans-64" x="546.382812"/>
      <use xlink:href="#DejaVuSans-20" x="609.859375"/>
      <use xlink:href="#DejaVuSans-49" x="641.646484"/>
      <use xlink:href="#DejaVuSans-6e" x="671.138672"/>
      <use xlink:href="#DejaVuSans-64" x="734.517578"/>
      <use xlink:href="#DejaVuSans-65" x="797.994141"/>
      <use xlink:href="#DejaVuSans-78" x="857.767578"/>
      <use xlink:href="#DejaVuSans-29" x="916.947266"/>
     </g>
    </g>
   </g>
   <g id="matplotlib.axis_6">
    <g id="ytick_9">
     <g id="line2d_38">
      <g>
       <use xlink:href="#m01ca61f1e1" x="66.053125" y="497.618125" style="stroke: #000000; stroke-width: 0.8"/>
      </g>
     </g>
     <g id="text_43">
      <!-- 0 -->
      <g transform="translate(52.690625 501.417344)scale(0.1 -0.1)">
       <use xlink:href="#DejaVuSans-30"/>
      </g>
     </g>
    </g>
    <g id="ytick_10">
     <g id="line2d_39">
      <g>
       <use xlink:href="#m01ca61f1e1" x="66.053125" y="472.551442" style="stroke: #000000; stroke-width: 0.8"/>
      </g>
     </g>
     <g id="text_44">
      <!-- 2000 -->
      <g transform="translate(33.603125 476.350661)scale(0.1 -0.1)">
       <use xlink:href="#DejaVuSans-32"/>
       <use xlink:href="#DejaVuSans-30" x="63.623047"/>
       <use xlink:href="#DejaVuSans-30" x="127.246094"/>
       <use xlink:href="#DejaVuSans-30" x="190.869141"/>
      </g>
     </g>
    </g>
    <g id="ytick_11">
     <g id="line2d_40">
      <g>
       <use xlink:href="#m01ca61f1e1" x="66.053125" y="447.484759" style="stroke: #000000; stroke-width: 0.8"/>
      </g>
     </g>
     <g id="text_45">
      <!-- 4000 -->
      <g transform="translate(33.603125 451.283978)scale(0.1 -0.1)">
       <use xlink:href="#DejaVuSans-34"/>
       <use xlink:href="#DejaVuSans-30" x="63.623047"/>
       <use xlink:href="#DejaVuSans-30" x="127.246094"/>
       <use xlink:href="#DejaVuSans-30" x="190.869141"/>
      </g>
     </g>
    </g>
    <g id="ytick_12">
     <g id="line2d_41">
      <g>
       <use xlink:href="#m01ca61f1e1" x="66.053125" y="422.418076" style="stroke: #000000; stroke-width: 0.8"/>
      </g>
     </g>
     <g id="text_46">
      <!-- 6000 -->
      <g transform="translate(33.603125 426.217294)scale(0.1 -0.1)">
       <use xlink:href="#DejaVuSans-36"/>
       <use xlink:href="#DejaVuSans-30" x="63.623047"/>
       <use xlink:href="#DejaVuSans-30" x="127.246094"/>
       <use xlink:href="#DejaVuSans-30" x="190.869141"/>
      </g>
     </g>
    </g>
    <g id="ytick_13">
     <g id="line2d_42">
      <g>
       <use xlink:href="#m01ca61f1e1" x="66.053125" y="397.351393" style="stroke: #000000; stroke-width: 0.8"/>
      </g>
     </g>
     <g id="text_47">
      <!-- 8000 -->
      <g transform="translate(33.603125 401.150611)scale(0.1 -0.1)">
       <use xlink:href="#DejaVuSans-38"/>
       <use xlink:href="#DejaVuSans-30" x="63.623047"/>
       <use xlink:href="#DejaVuSans-30" x="127.246094"/>
       <use xlink:href="#DejaVuSans-30" x="190.869141"/>
      </g>
     </g>
    </g>
    <g id="text_48">
     <!-- Magitude -->
     <g transform="translate(27.523438 460.589219)rotate(-90)scale(0.1 -0.1)">
      <use xlink:href="#DejaVuSans-4d"/>
      <use xlink:href="#DejaVuSans-61" x="86.279297"/>
      <use xlink:href="#DejaVuSans-67" x="147.558594"/>
      <use xlink:href="#DejaVuSans-69" x="211.035156"/>
      <use xlink:href="#DejaVuSans-74" x="238.818359"/>
      <use xlink:href="#DejaVuSans-75" x="278.027344"/>
      <use xlink:href="#DejaVuSans-64" x="341.40625"/>
      <use xlink:href="#DejaVuSans-65" x="404.882812"/>
     </g>
    </g>
   </g>
   <g id="line2d_43">
    <path d="M 66.053125 497.618125 
L 67.626613 497.618125 
L 69.2001 495.913436 
L 70.773588 490.308498 
L 72.347075 495.236215 
L 73.920563 485.364596 
L 75.49405 490.52006 
L 77.067538 496.426169 
L 78.641025 492.15753 
L 80.214513 482.558718 
L 81.788 430.630165 
L 83.361488 493.161188 
L 84.934975 487.285882 
L 86.508463 484.388836 
L 88.08195 495.426978 
L 89.655438 488.765748 
L 91.228925 481.200233 
L 92.802413 488.933713 
L 94.3759 493.109062 
L 95.949388 488.567235 
L 97.522875 449.146309 
L 99.096362 477.502657 
L 100.66985 488.241915 
L 102.243338 484.409522 
L 103.816825 486.880545 
L 105.390313 483.437814 
L 106.9638 492.039386 
L 108.537288 485.869935 
L 110.110775 492.635467 
L 111.684263 484.47679 
L 113.25775 489.783685 
L 114.831238 493.3853 
L 116.404725 490.201303 
L 117.978213 485.194686 
L 119.5517 488.185824 
L 121.125188 483.450806 
L 122.698675 481.851164 
L 124.272163 482.173269 
L 125.84565 490.071778 
L 127.419138 487.016079 
L 128.992625 471.02595 
L 132.1396 486.353898 
L 133.713088 478.766441 
L 135.286575 488.519594 
L 136.860063 482.957968 
L 138.43355 478.937812 
L 140.007038 477.511503 
L 141.580525 486.664815 
L 143.154013 487.061355 
L 144.7275 489.740647 
L 146.300988 493.282151 
L 147.874475 493.078951 
L 149.447963 489.981127 
L 151.02145 489.605108 
L 152.594938 494.40928 
L 154.168425 489.14496 
L 155.741913 491.889969 
L 157.3154 494.057343 
L 158.888888 493.241702 
L 160.462375 489.294268 
L 162.035863 489.45187 
L 163.60935 487.845215 
L 165.182838 485.489543 
L 166.756325 484.136483 
L 168.329813 486.045963 
L 169.9033 490.242178 
L 171.476788 490.383456 
L 173.050275 490.035755 
L 174.623762 488.990378 
L 176.19725 488.67196 
L 177.770737 489.631324 
L 179.344225 488.897246 
L 180.917712 485.881733 
L 182.4912 485.459854 
L 184.064687 489.243843 
L 185.638175 492.226464 
L 188.78515 492.68728 
L 195.0791 491.314857 
L 196.652587 490.980891 
L 198.226075 488.910075 
L 199.799562 486.632535 
L 201.37305 484.804592 
L 204.520025 488.250432 
L 206.093512 489.645921 
L 210.813975 488.764647 
L 217.107925 490.17136 
L 221.828388 490.921101 
L 224.975363 489.11586 
L 234.416288 483.429717 
L 235.989775 484.924217 
L 240.710238 493.458672 
L 242.283725 496.201889 
L 243.857213 495.383786 
L 250.151162 491.63437 
L 258.0186 485.216396 
L 259.592087 484.680076 
L 265.886037 489.362104 
L 267.459525 490.486888 
L 269.033012 491.339507 
L 276.90045 488.463796 
L 278.473937 487.914216 
L 280.047425 487.229002 
L 286.341375 483.62871 
L 291.061838 481.06067 
L 295.7823 477.014937 
L 302.07625 471.751497 
L 303.649738 470.479209 
L 305.223225 470.543648 
L 311.517175 478.142519 
L 317.811125 485.361447 
L 319.384613 487.110131 
L 320.9581 486.155734 
L 328.825537 480.688127 
L 335.119487 476.544256 
L 336.692975 475.8321 
L 347.707387 478.971706 
L 355.574825 481.068026 
L 369.736213 487.146953 
L 377.60365 490.296518 
L 379.177138 490.351164 
L 402.77945 488.781785 
L 404.352937 488.735756 
L 429.528738 490.323476 
L 434.2492 490.597002 
L 435.822688 490.197153 
L 446.8371 486.243034 
L 457.851513 482.511236 
L 470.439413 478.495249 
L 472.0129 478.223015 
L 490.89475 480.792442 
L 509.7766 483.143194 
L 516.07055 483.882941 
L 519.217525 483.692248 
L 542.819837 481.554052 
L 567.995637 479.49495 
L 574.289587 479.11652 
L 645.096525 479.110299 
L 649.816987 479.98717 
L 668.698837 483.527235 
L 689.154175 487.120192 
L 697.021612 488.440067 
L 697.021612 488.440067 
" clip-path="url(#pef516cd39c)" style="fill: none; stroke: #1f77b4; stroke-width: 1.5; stroke-linecap: square"/>
   </g>
   <g id="patch_13">
    <path d="M 66.053125 497.618125 
L 66.053125 376.918125 
" style="fill: none; stroke: #000000; stroke-width: 0.8; stroke-linejoin: miter; stroke-linecap: square"/>
   </g>
   <g id="patch_14">
    <path d="M 695.448125 497.618125 
L 695.448125 376.918125 
" style="fill: none; stroke: #000000; stroke-width: 0.8; stroke-linejoin: miter; stroke-linecap: square"/>
   </g>
   <g id="patch_15">
    <path d="M 66.053125 497.618125 
L 695.448125 497.618125 
" style="fill: none; stroke: #000000; stroke-width: 0.8; stroke-linejoin: miter; stroke-linecap: square"/>
   </g>
   <g id="patch_16">
    <path d="M 66.053125 376.918125 
L 695.448125 376.918125 
" style="fill: none; stroke: #000000; stroke-width: 0.8; stroke-linejoin: miter; stroke-linecap: square"/>
   </g>
   <g id="text_49">
    <!-- Domain Warped Magnitude Discrete Fourier Transform -->
    <g transform="translate(217.524375 370.918125)scale(0.12 -0.12)">
     <defs>
      <path id="DejaVuSans-57" d="M 213 4666 
L 850 4666 
L 1831 722 
L 2809 4666 
L 3519 4666 
L 4500 722 
L 5478 4666 
L 6119 4666 
L 4947 0 
L 4153 0 
L 3169 4050 
L 2175 0 
L 1381 0 
L 213 4666 
z
" transform="scale(0.015625)"/>
      <path id="DejaVuSans-70" d="M 1159 525 
L 1159 -1331 
L 581 -1331 
L 581 3500 
L 1159 3500 
L 1159 2969 
Q 1341 3281 1617 3432 
Q 1894 3584 2278 3584 
Q 2916 3584 3314 3078 
Q 3713 2572 3713 1747 
Q 3713 922 3314 415 
Q 2916 -91 2278 -91 
Q 1894 -91 1617 61 
Q 1341 213 1159 525 
z
M 3116 1747 
Q 3116 2381 2855 2742 
Q 2594 3103 2138 3103 
Q 1681 3103 1420 2742 
Q 1159 2381 1159 1747 
Q 1159 1113 1420 752 
Q 1681 391 2138 391 
Q 2594 391 2855 752 
Q 3116 1113 3116 1747 
z
" transform="scale(0.015625)"/>
     </defs>
     <use xlink:href="#DejaVuSans-44"/>
     <use xlink:href="#DejaVuSans-6f" x="77.001953"/>
     <use xlink:href="#DejaVuSans-6d" x="138.183594"/>
     <use xlink:href="#DejaVuSans-61" x="235.595703"/>
     <use xlink:href="#DejaVuSans-69" x="296.875"/>
     <use xlink:href="#DejaVuSans-6e" x="324.658203"/>
     <use xlink:href="#DejaVuSans-20" x="388.037109"/>
     <use xlink:href="#DejaVuSans-57" x="419.824219"/>
     <use xlink:href="#DejaVuSans-61" x="512.326172"/>
     <use xlink:href="#DejaVuSans-72" x="573.605469"/>
     <use xlink:href="#DejaVuSans-70" x="614.71875"/>
     <use xlink:href="#DejaVuSans-65" x="678.195312"/>
     <use xlink:href="#DejaVuSans-64" x="739.71875"/>
     <use xlink:href="#DejaVuSans-20" x="803.195312"/>
     <use xlink:href="#DejaVuSans-4d" x="834.982422"/>
     <use xlink:href="#DejaVuSans-61" x="921.261719"/>
     <use xlink:href="#DejaVuSans-67" x="982.541016"/>
     <use xlink:href="#DejaVuSans-6e" x="1046.017578"/>
     <use xlink:href="#DejaVuSans-69" x="1109.396484"/>
     <use xlink:href="#DejaVuSans-74" x="1137.179688"/>
     <use xlink:href="#DejaVuSans-75" x="1176.388672"/>
     <use xlink:href="#DejaVuSans-64" x="1239.767578"/>
     <use xlink:href="#DejaVuSans-65" x="1303.244141"/>
     <use xlink:href="#DejaVuSans-20" x="1364.767578"/>
     <use xlink:href="#DejaVuSans-44" x="1396.554688"/>
     <use xlink:href="#DejaVuSans-69" x="1473.556641"/>
     <use xlink:href="#DejaVuSans-73" x="1501.339844"/>
     <use xlink:href="#DejaVuSans-63" x="1553.439453"/>
     <use xlink:href="#DejaVuSans-72" x="1608.419922"/>
     <use xlink:href="#DejaVuSans-65" x="1647.283203"/>
     <use xlink:href="#DejaVuSans-74" x="1708.806641"/>
     <use xlink:href="#DejaVuSans-65" x="1748.015625"/>
     <use xlink:href="#DejaVuSans-20" x="1809.539062"/>
     <use xlink:href="#DejaVuSans-46" x="1841.326172"/>
     <use xlink:href="#DejaVuSans-6f" x="1895.220703"/>
     <use xlink:href="#DejaVuSans-75" x="1956.402344"/>
     <use xlink:href="#DejaVuSans-72" x="2019.78125"/>
     <use xlink:href="#DejaVuSans-69" x="2060.894531"/>
     <use xlink:href="#DejaVuSans-65" x="2088.677734"/>
     <use xlink:href="#DejaVuSans-72" x="2150.201172"/>
     <use xlink:href="#DejaVuSans-20" x="2191.314453"/>
     <use xlink:href="#DejaVuSans-54" x="2223.101562"/>
     <use xlink:href="#DejaVuSans-72" x="2269.435547"/>
     <use xlink:href="#DejaVuSans-61" x="2310.548828"/>
     <use xlink:href="#DejaVuSans-6e" x="2371.828125"/>
     <use xlink:href="#DejaVuSans-73" x="2435.207031"/>
     <use xlink:href="#DejaVuSans-66" x="2487.306641"/>
     <use xlink:href="#DejaVuSans-6f" x="2522.511719"/>
     <use xlink:href="#DejaVuSans-72" x="2583.693359"/>
     <use xlink:href="#DejaVuSans-6d" x="2623.056641"/>
    </g>
   </g>
  </g>
  <g id="axes_4">
   <g id="patch_17">
    <path d="M 66.053125 674.918125 
L 695.448125 674.918125 
L 695.448125 554.218125 
L 66.053125 554.218125 
z
" style="fill: #ffffff"/>
   </g>
   <g id="PathCollection_3">
    <g clip-path="url(#pb945939f66)">
     <use xlink:href="#me3094816e5" x="97.522875" y="559.704489" style="fill: #1f77b4; stroke: #1f77b4"/>
    </g>
   </g>
   <g id="matplotlib.axis_7">
    <g id="xtick_28">
     <g id="line2d_44">
      <g>
       <use xlink:href="#m921430443b" x="66.053125" y="674.918125" style="stroke: #000000; stroke-width: 0.8"/>
      </g>
     </g>
     <g id="text_50">
      <!-- 0 -->
      <g transform="translate(62.871875 689.516562)scale(0.1 -0.1)">
       <use xlink:href="#DejaVuSans-30"/>
      </g>
     </g>
    </g>
    <g id="xtick_29">
     <g id="line2d_45">
      <g>
       <use xlink:href="#m921430443b" x="144.7275" y="674.918125" style="stroke: #000000; stroke-width: 0.8"/>
      </g>
     </g>
     <g id="text_51">
      <!-- 50 -->
      <g transform="translate(138.365 689.516562)scale(0.1 -0.1)">
       <use xlink:href="#DejaVuSans-35"/>
       <use xlink:href="#DejaVuSans-30" x="63.623047"/>
      </g>
     </g>
    </g>
    <g id="xtick_30">
     <g id="line2d_46">
      <g>
       <use xlink:href="#m921430443b" x="223.401875" y="674.918125" style="stroke: #000000; stroke-width: 0.8"/>
      </g>
     </g>
     <g id="text_52">
      <!-- 100 -->
      <g transform="translate(213.858125 689.516562)scale(0.1 -0.1)">
       <use xlink:href="#DejaVuSans-31"/>
       <use xlink:href="#DejaVuSans-30" x="63.623047"/>
       <use xlink:href="#DejaVuSans-30" x="127.246094"/>
      </g>
     </g>
    </g>
    <g id="xtick_31">
     <g id="line2d_47">
      <g>
       <use xlink:href="#m921430443b" x="302.07625" y="674.918125" style="stroke: #000000; stroke-width: 0.8"/>
      </g>
     </g>
     <g id="text_53">
      <!-- 150 -->
      <g transform="translate(292.5325 689.516562)scale(0.1 -0.1)">
       <use xlink:href="#DejaVuSans-31"/>
       <use xlink:href="#DejaVuSans-35" x="63.623047"/>
       <use xlink:href="#DejaVuSans-30" x="127.246094"/>
      </g>
     </g>
    </g>
    <g id="xtick_32">
     <g id="line2d_48">
      <g>
       <use xlink:href="#m921430443b" x="380.750625" y="674.918125" style="stroke: #000000; stroke-width: 0.8"/>
      </g>
     </g>
     <g id="text_54">
      <!-- 200 -->
      <g transform="translate(371.206875 689.516562)scale(0.1 -0.1)">
       <use xlink:href="#DejaVuSans-32"/>
       <use xlink:href="#DejaVuSans-30" x="63.623047"/>
       <use xlink:href="#DejaVuSans-30" x="127.246094"/>
      </g>
     </g>
    </g>
    <g id="xtick_33">
     <g id="line2d_49">
      <g>
       <use xlink:href="#m921430443b" x="459.425" y="674.918125" style="stroke: #000000; stroke-width: 0.8"/>
      </g>
     </g>
     <g id="text_55">
      <!-- 250 -->
      <g transform="translate(449.88125 689.516562)scale(0.1 -0.1)">
       <use xlink:href="#DejaVuSans-32"/>
       <use xlink:href="#DejaVuSans-35" x="63.623047"/>
       <use xlink:href="#DejaVuSans-30" x="127.246094"/>
      </g>
     </g>
    </g>
    <g id="xtick_34">
     <g id="line2d_50">
      <g>
       <use xlink:href="#m921430443b" x="538.099375" y="674.918125" style="stroke: #000000; stroke-width: 0.8"/>
      </g>
     </g>
     <g id="text_56">
      <!-- 300 -->
      <g transform="translate(528.555625 689.516562)scale(0.1 -0.1)">
       <use xlink:href="#DejaVuSans-33"/>
       <use xlink:href="#DejaVuSans-30" x="63.623047"/>
       <use xlink:href="#DejaVuSans-30" x="127.246094"/>
      </g>
     </g>
    </g>
    <g id="xtick_35">
     <g id="line2d_51">
      <g>
       <use xlink:href="#m921430443b" x="616.77375" y="674.918125" style="stroke: #000000; stroke-width: 0.8"/>
      </g>
     </g>
     <g id="text_57">
      <!-- 350 -->
      <g transform="translate(607.23 689.516562)scale(0.1 -0.1)">
       <use xlink:href="#DejaVuSans-33"/>
       <use xlink:href="#DejaVuSans-35" x="63.623047"/>
       <use xlink:href="#DejaVuSans-30" x="127.246094"/>
      </g>
     </g>
    </g>
    <g id="xtick_36">
     <g id="line2d_52">
      <g>
       <use xlink:href="#m921430443b" x="695.448125" y="674.918125" style="stroke: #000000; stroke-width: 0.8"/>
      </g>
     </g>
     <g id="text_58">
      <!-- 400 -->
      <g transform="translate(685.904375 689.516562)scale(0.1 -0.1)">
       <use xlink:href="#DejaVuSans-34"/>
       <use xlink:href="#DejaVuSans-30" x="63.623047"/>
       <use xlink:href="#DejaVuSans-30" x="127.246094"/>
      </g>
     </g>
    </g>
    <g id="text_59">
     <!-- Shift (Period Index) -->
     <g transform="translate(332.951406 703.194687)scale(0.1 -0.1)">
      <use xlink:href="#DejaVuSans-53"/>
      <use xlink:href="#DejaVuSans-68" x="63.476562"/>
      <use xlink:href="#DejaVuSans-69" x="126.855469"/>
      <use xlink:href="#DejaVuSans-66" x="154.638672"/>
      <use xlink:href="#DejaVuSans-74" x="188.09375"/>
      <use xlink:href="#DejaVuSans-20" x="227.302734"/>
      <use xlink:href="#DejaVuSans-28" x="259.089844"/>
      <use xlink:href="#DejaVuSans-50" x="298.103516"/>
      <use xlink:href="#DejaVuSans-65" x="354.78125"/>
      <use xlink:href="#DejaVuSans-72" x="416.304688"/>
      <use xlink:href="#DejaVuSans-69" x="457.417969"/>
      <use xlink:href="#DejaVuSans-6f" x="485.201172"/>
      <use xlink:href="#DejaVuSans-64" x="546.382812"/>
      <use xlink:href="#DejaVuSans-20" x="609.859375"/>
      <use xlink:href="#DejaVuSans-49" x="641.646484"/>
      <use xlink:href="#DejaVuSans-6e" x="671.138672"/>
      <use xlink:href="#DejaVuSans-64" x="734.517578"/>
      <use xlink:href="#DejaVuSans-65" x="797.994141"/>
      <use xlink:href="#DejaVuSans-78" x="857.767578"/>
      <use xlink:href="#DejaVuSans-29" x="916.947266"/>
     </g>
    </g>
   </g>
   <g id="matplotlib.axis_8">
    <g id="ytick_14">
     <g id="line2d_53">
      <g>
       <use xlink:href="#m01ca61f1e1" x="66.053125" y="669.825312" style="stroke: #000000; stroke-width: 0.8"/>
      </g>
     </g>
     <g id="text_60">
      <!-- 2 -->
      <g transform="translate(44.310938 673.624531)scale(0.1 -0.1)">
       <defs>
        <path id="DejaVuSans-2212" d="M 678 2272 
L 4684 2272 
L 4684 1741 
L 678 1741 
L 678 2272 
z
" transform="scale(0.015625)"/>
       </defs>
       <use xlink:href="#DejaVuSans-2212"/>
       <use xlink:href="#DejaVuSans-32" x="83.789062"/>
      </g>
     </g>
    </g>
    <g id="ytick_15">
     <g id="line2d_54">
      <g>
       <use xlink:href="#m01ca61f1e1" x="66.053125" y="649.198187" style="stroke: #000000; stroke-width: 0.8"/>
      </g>
     </g>
     <g id="text_61">
      <!-- 0 -->
      <g transform="translate(52.690625 652.997406)scale(0.1 -0.1)">
       <use xlink:href="#DejaVuSans-30"/>
      </g>
     </g>
    </g>
    <g id="ytick_16">
     <g id="line2d_55">
      <g>
       <use xlink:href="#m01ca61f1e1" x="66.053125" y="628.571062" style="stroke: #000000; stroke-width: 0.8"/>
      </g>
     </g>
     <g id="text_62">
      <!-- 2 -->
      <g transform="translate(52.690625 632.370281)scale(0.1 -0.1)">
       <use xlink:href="#DejaVuSans-32"/>
      </g>
     </g>
    </g>
    <g id="ytick_17">
     <g id="line2d_56">
      <g>
       <use xlink:href="#m01ca61f1e1" x="66.053125" y="607.943937" style="stroke: #000000; stroke-width: 0.8"/>
      </g>
     </g>
     <g id="text_63">
      <!-- 4 -->
      <g transform="translate(52.690625 611.743156)scale(0.1 -0.1)">
       <use xlink:href="#DejaVuSans-34"/>
      </g>
     </g>
    </g>
    <g id="ytick_18">
     <g id="line2d_57">
      <g>
       <use xlink:href="#m01ca61f1e1" x="66.053125" y="587.316813" style="stroke: #000000; stroke-width: 0.8"/>
      </g>
     </g>
     <g id="text_64">
      <!-- 6 -->
      <g transform="translate(52.690625 591.116031)scale(0.1 -0.1)">
       <use xlink:href="#DejaVuSans-36"/>
      </g>
     </g>
    </g>
    <g id="ytick_19">
     <g id="line2d_58">
      <g>
       <use xlink:href="#m01ca61f1e1" x="66.053125" y="566.689688" style="stroke: #000000; stroke-width: 0.8"/>
      </g>
     </g>
     <g id="text_65">
      <!-- 8 -->
      <g transform="translate(52.690625 570.488906)scale(0.1 -0.1)">
       <use xlink:href="#DejaVuSans-38"/>
      </g>
     </g>
    </g>
    <g id="text_66">
     <!-- Product -->
     <g transform="translate(38.23125 633.550156)rotate(-90)scale(0.1 -0.1)">
      <use xlink:href="#DejaVuSans-50"/>
      <use xlink:href="#DejaVuSans-72" x="58.552734"/>
      <use xlink:href="#DejaVuSans-6f" x="97.416016"/>
      <use xlink:href="#DejaVuSans-64" x="158.597656"/>
      <use xlink:href="#DejaVuSans-75" x="222.074219"/>
      <use xlink:href="#DejaVuSans-63" x="285.453125"/>
      <use xlink:href="#DejaVuSans-74" x="340.433594"/>
     </g>
    </g>
    <g id="text_67">
     <!-- 1e8 -->
     <g transform="translate(66.053125 551.218125)scale(0.1 -0.1)">
      <use xlink:href="#DejaVuSans-31"/>
      <use xlink:href="#DejaVuSans-65" x="63.623047"/>
      <use xlink:href="#DejaVuSans-38" x="125.146484"/>
     </g>
    </g>
   </g>
   <g id="line2d_59">
    <path d="M 66.053125 649.198187 
L 67.626613 649.198187 
L 69.2001 646.02031 
L 70.773588 646.740499 
L 72.347075 651.047974 
L 73.920563 661.58889 
L 75.49405 656.488046 
L 77.067538 650.136923 
L 78.641025 651.052957 
L 80.214513 647.474687 
L 81.788 628.795962 
L 83.361488 648.947375 
L 84.934975 653.152099 
L 86.508463 659.810062 
L 88.08195 651.435462 
L 89.655438 657.622275 
L 91.228925 659.886068 
L 92.802413 649.192892 
L 94.3759 645.442242 
L 95.949388 635.085241 
L 97.522875 559.704489 
L 99.096362 620.432057 
L 100.66985 642.710767 
L 102.243338 649.979927 
L 103.816825 655.383921 
L 105.390313 660.272562 
L 106.9638 653.82444 
L 108.537288 656.483074 
L 110.110775 650.22228 
L 111.684263 646.218144 
L 113.25775 645.690994 
L 116.404725 651.295901 
L 117.978213 658.423973 
L 119.5517 658.454419 
L 121.125188 661.718884 
L 122.698675 657.734637 
L 124.272163 645.48555 
L 125.84565 640.37276 
L 127.419138 628.233448 
L 128.992625 590.898181 
L 130.566113 618.709925 
L 132.1396 640.994657 
L 133.713088 651.799528 
L 135.286575 655.168007 
L 136.860063 661.215466 
L 138.43355 663.754012 
L 140.007038 658.672192 
L 141.580525 649.655566 
L 143.154013 645.892045 
L 144.7275 646.483015 
L 146.300988 649.200372 
L 147.874475 651.384482 
L 149.447963 655.825738 
L 151.02145 657.362792 
L 152.594938 652.305562 
L 154.168425 654.837824 
L 155.741913 649.086706 
L 157.3154 646.267782 
L 158.888888 642.641734 
L 160.462375 635.634656 
L 162.035863 640.377984 
L 163.60935 646.023035 
L 165.182838 653.32923 
L 166.756325 658.875975 
L 168.329813 658.628132 
L 169.9033 654.622297 
L 171.476788 652.849496 
L 174.623762 648.278051 
L 176.19725 647.928056 
L 177.770737 650.47874 
L 179.344225 654.132145 
L 180.917712 659.965048 
L 182.4912 662.460895 
L 184.064687 657.722141 
L 185.638175 652.488557 
L 187.211662 648.161855 
L 190.358637 638.899959 
L 191.932125 637.995346 
L 193.505612 641.378734 
L 196.652587 651.674969 
L 198.226075 655.723887 
L 199.799562 658.462587 
L 201.37305 658.112564 
L 202.946537 653.379783 
L 204.520025 649.41073 
L 206.093512 647.335117 
L 207.667 647.524911 
L 209.240488 650.263519 
L 210.813975 653.459602 
L 212.387463 655.665537 
L 213.96095 656.529117 
L 215.534438 655.282335 
L 217.107925 652.378763 
L 218.681413 647.778242 
L 220.2549 642.746625 
L 221.828388 639.423886 
L 223.401875 638.550954 
L 224.975363 641.826617 
L 228.122338 654.356111 
L 229.695825 658.854596 
L 231.269313 660.686167 
L 232.8428 660.291294 
L 234.416288 656.680927 
L 235.989775 650.33971 
L 237.563263 647.12912 
L 239.13675 647.515156 
L 240.710238 649.376684 
L 242.283725 649.863246 
L 245.4307 652.064959 
L 247.004188 652.33804 
L 248.577675 650.410678 
L 250.151162 645.660188 
L 251.72465 638.905757 
L 253.298137 632.78913 
L 254.871625 632.311844 
L 256.445112 638.535319 
L 258.0186 648.14457 
L 259.592087 656.563618 
L 261.165575 659.483101 
L 262.739062 658.735353 
L 264.31255 655.713445 
L 265.886037 651.750146 
L 267.459525 648.917631 
L 269.033012 647.868767 
L 270.6065 648.888876 
L 273.753475 654.153614 
L 275.326962 656.127755 
L 276.90045 656.23335 
L 278.473937 654.501825 
L 280.047425 649.76545 
L 281.620912 641.426427 
L 283.1944 632.285167 
L 284.767887 626.351704 
L 286.341375 627.908534 
L 287.914863 636.236894 
L 289.48835 646.543439 
L 291.061838 654.645341 
L 292.635325 660.419276 
L 294.208813 662.529133 
L 295.7823 661.337546 
L 297.355788 657.122053 
L 298.929275 651.068983 
L 300.502763 647.007821 
L 302.07625 649.151978 
L 305.223225 665.290046 
L 306.796713 669.431761 
L 308.3702 668.871039 
L 309.943688 663.441996 
L 311.517175 651.750567 
L 313.090663 636.84928 
L 314.66415 625.009904 
L 316.237638 621.574797 
L 317.811125 629.320156 
L 319.384613 640.550784 
L 320.9581 649.155006 
L 322.531588 656.623679 
L 324.105075 661.03799 
L 325.678562 662.290165 
L 327.25205 660.493808 
L 328.825537 655.565978 
L 330.399025 649.296607 
L 331.972512 646.47737 
L 333.546 648.31619 
L 336.692975 660.235901 
L 338.266462 663.298287 
L 339.83995 663.090892 
L 341.413437 658.023255 
L 342.986925 647.880637 
L 344.560412 634.690709 
L 346.1339 622.801194 
L 347.707387 619.594136 
L 349.280875 626.105393 
L 352.42785 650.916363 
L 354.001338 658.163457 
L 355.574825 661.080719 
L 357.148313 660.45381 
L 358.7218 657.757532 
L 361.868775 648.259514 
L 363.442263 646.213465 
L 365.01575 648.179451 
L 366.589238 652.639813 
L 368.162725 656.48641 
L 369.736213 657.926425 
L 371.3097 657.014141 
L 372.883188 653.860993 
L 374.456675 648.652085 
L 376.030163 642.670067 
L 377.60365 638.356787 
L 379.177138 637.184124 
L 380.750625 639.989018 
L 383.8976 650.512111 
L 385.471088 653.693123 
L 387.044575 654.948698 
L 388.618063 654.475749 
L 390.19155 652.898014 
L 391.765038 650.172807 
L 393.338525 647.795768 
L 394.912013 647.381455 
L 396.4855 648.750128 
L 399.632475 654.177011 
L 401.205962 655.510612 
L 402.77945 656.250863 
L 404.352937 654.71773 
L 405.926425 650.321178 
L 407.499912 644.670899 
L 409.0734 639.517717 
L 410.646887 637.92757 
L 412.220375 641.038997 
L 413.793862 646.314084 
L 415.36735 650.976534 
L 416.940837 654.277143 
L 418.514325 655.465461 
L 420.087812 655.129008 
L 421.6613 653.751358 
L 423.234787 651.159093 
L 424.808275 648.784329 
L 426.381762 647.901189 
L 427.95525 648.983509 
L 429.528738 651.371272 
L 431.102225 653.298293 
L 432.675713 654.136978 
L 434.2492 653.834571 
L 435.822688 652.035517 
L 437.396175 648.05955 
L 440.54315 635.864231 
L 442.116638 633.863227 
L 443.690125 637.743702 
L 446.8371 651.809795 
L 448.410588 656.579263 
L 449.984075 658.530841 
L 451.557563 658.757899 
L 453.13105 656.394584 
L 456.278025 648.327076 
L 457.851513 647.395364 
L 459.425 650.155524 
L 462.571975 658.883551 
L 464.145463 661.146281 
L 465.71895 660.244837 
L 467.292438 655.398074 
L 468.865925 645.395711 
L 470.439413 633.231179 
L 472.0129 624.120112 
L 473.586388 623.94501 
L 475.159875 632.555629 
L 476.733362 643.996404 
L 478.30685 653.631073 
L 479.880337 659.633084 
L 481.453825 662.159455 
L 483.027312 662.724886 
L 484.6008 660.121214 
L 486.174287 654.923813 
L 487.747775 650.427684 
L 489.321262 648.819656 
L 490.89475 651.008788 
L 492.468237 655.003699 
L 494.041725 657.772825 
L 495.615212 657.985473 
L 497.1887 655.937684 
L 498.762187 650.575415 
L 501.909162 630.945173 
L 503.48265 624.409441 
L 505.056137 625.97164 
L 506.629625 635.253206 
L 508.203112 646.057296 
L 509.7766 655.126039 
L 511.350088 659.684331 
L 512.923575 660.304529 
L 514.497062 658.443668 
L 517.644037 649.331428 
L 519.217525 645.813137 
L 520.791012 645.573681 
L 522.3645 649.189471 
L 523.937987 653.68007 
L 525.511475 656.836754 
L 527.084962 658.30006 
L 528.65845 656.458892 
L 530.231937 650.694226 
L 531.805425 641.731783 
L 533.378912 631.742855 
L 534.9524 626.174941 
L 536.525887 628.529231 
L 538.099375 636.902225 
L 539.672862 647.016144 
L 541.24635 654.886208 
L 542.819837 658.910389 
L 544.393325 660.68161 
L 545.966812 659.999678 
L 547.5403 656.950748 
L 549.113787 653.464674 
L 550.687275 650.634059 
L 552.260762 650.669932 
L 553.83425 654.286891 
L 555.407737 657.37995 
L 556.981225 659.042805 
L 558.554712 658.395569 
L 560.1282 655.106474 
L 561.701687 647.480797 
L 564.848662 625.85131 
L 566.42215 619.755526 
L 567.995637 624.563592 
L 571.142612 645.565176 
L 572.7161 653.161373 
L 574.289587 655.999819 
L 575.863075 656.994448 
L 577.436562 655.164965 
L 579.01005 651.734406 
L 580.583538 647.852021 
L 582.157025 646.632995 
L 583.730513 648.694295 
L 586.877488 656.955037 
L 588.450975 659.226994 
L 590.024463 659.585026 
L 591.59795 656.775192 
L 593.171438 649.456023 
L 596.318413 629.956246 
L 597.8919 625.897028 
L 599.465388 630.11008 
L 601.038875 638.73132 
L 602.612363 648.289116 
L 604.18585 655.115074 
L 605.759338 658.594277 
L 607.332825 660.499745 
L 608.906313 659.828092 
L 610.4798 656.36366 
L 612.053288 652.597701 
L 613.626775 650.201078 
L 615.200263 651.692102 
L 616.77375 655.77689 
L 618.347238 658.997439 
L 619.920725 660.587654 
L 621.494213 659.328913 
L 623.0677 654.817739 
L 624.641188 645.813514 
L 626.214675 634.31999 
L 627.788162 625.032451 
L 629.36165 622.938086 
L 630.935137 629.593172 
L 634.082112 649.738739 
L 635.6556 655.821768 
L 637.229087 658.816392 
L 638.802575 659.468845 
L 640.376062 656.588316 
L 643.523037 647.394487 
L 645.096525 646.102609 
L 646.670012 649.753473 
L 648.2435 654.998346 
L 649.816987 659.406516 
L 651.390475 660.997255 
L 652.963962 659.957792 
L 654.53745 656.56854 
L 656.110937 649.243823 
L 657.684425 640.052426 
L 659.257912 632.632698 
L 660.8314 629.958485 
L 662.404887 634.414568 
L 663.978375 641.809752 
L 665.551862 648.663149 
L 667.12535 653.781821 
L 668.698837 656.674172 
L 670.272325 657.694324 
L 671.845812 656.634998 
L 673.4193 654.161001 
L 674.992787 651.470387 
L 676.566275 650.601772 
L 678.139762 651.997257 
L 679.71325 654.189609 
L 681.286737 655.962127 
L 682.860225 656.891832 
L 684.433712 655.979488 
L 686.0072 652.963857 
L 687.580687 647.449498 
L 689.154175 640.946283 
L 690.727662 636.322897 
L 692.30115 636.346414 
L 693.874637 640.817961 
L 695.448125 646.209445 
L 697.021612 650.53345 
L 697.021612 650.53345 
" clip-path="url(#pb945939f66)" style="fill: none; stroke: #1f77b4; stroke-width: 1.5; stroke-linecap: square"/>
   </g>
   <g id="patch_18">
    <path d="M 66.053125 674.918125 
L 66.053125 554.218125 
" style="fill: none; stroke: #000000; stroke-width: 0.8; stroke-linejoin: miter; stroke-linecap: square"/>
   </g>
   <g id="patch_19">
    <path d="M 695.448125 674.918125 
L 695.448125 554.218125 
" style="fill: none; stroke: #000000; stroke-width: 0.8; stroke-linejoin: miter; stroke-linecap: square"/>
   </g>
   <g id="patch_20">
    <path d="M 66.053125 674.918125 
L 695.448125 674.918125 
" style="fill: none; stroke: #000000; stroke-width: 0.8; stroke-linejoin: miter; stroke-linecap: square"/>
   </g>
   <g id="patch_21">
    <path d="M 66.053125 554.218125 
L 695.448125 554.218125 
" style="fill: none; stroke: #000000; stroke-width: 0.8; stroke-linejoin: miter; stroke-linecap: square"/>
   </g>
   <g id="text_68">
    <!-- Product of ACF And Warped DFT( Max 20) -->
    <g transform="translate(256.12875 548.218125)scale(0.12 -0.12)">
     <defs>
      <path id="DejaVuSans-43" d="M 4122 4306 
L 4122 3641 
Q 3803 3938 3442 4084 
Q 3081 4231 2675 4231 
Q 1875 4231 1450 3742 
Q 1025 3253 1025 2328 
Q 1025 1406 1450 917 
Q 1875 428 2675 428 
Q 3081 428 3442 575 
Q 3803 722 4122 1019 
L 4122 359 
Q 3791 134 3420 21 
Q 3050 -91 2638 -91 
Q 1578 -91 968 557 
Q 359 1206 359 2328 
Q 359 3453 968 4101 
Q 1578 4750 2638 4750 
Q 3056 4750 3426 4639 
Q 3797 4528 4122 4306 
z
" transform="scale(0.015625)"/>
     </defs>
     <use xlink:href="#DejaVuSans-50"/>
     <use xlink:href="#DejaVuSans-72" x="58.552734"/>
     <use xlink:href="#DejaVuSans-6f" x="97.416016"/>
     <use xlink:href="#DejaVuSans-64" x="158.597656"/>
     <use xlink:href="#DejaVuSans-75" x="222.074219"/>
     <use xlink:href="#DejaVuSans-63" x="285.453125"/>
     <use xlink:href="#DejaVuSans-74" x="340.433594"/>
     <use xlink:href="#DejaVuSans-20" x="379.642578"/>
     <use xlink:href="#DejaVuSans-6f" x="411.429688"/>
     <use xlink:href="#DejaVuSans-66" x="472.611328"/>
     <use xlink:href="#DejaVuSans-20" x="507.816406"/>
     <use xlink:href="#DejaVuSans-41" x="539.603516"/>
     <use xlink:href="#DejaVuSans-43" x="606.261719"/>
     <use xlink:href="#DejaVuSans-46" x="676.085938"/>
     <use xlink:href="#DejaVuSans-20" x="733.605469"/>
     <use xlink:href="#DejaVuSans-41" x="765.392578"/>
     <use xlink:href="#DejaVuSans-6e" x="833.800781"/>
     <use xlink:href="#DejaVuSans-64" x="897.179688"/>
     <use xlink:href="#DejaVuSans-20" x="960.65625"/>
     <use xlink:href="#DejaVuSans-57" x="992.443359"/>
     <use xlink:href="#DejaVuSans-61" x="1084.945312"/>
     <use xlink:href="#DejaVuSans-72" x="1146.224609"/>
     <use xlink:href="#DejaVuSans-70" x="1187.337891"/>
     <use xlink:href="#DejaVuSans-65" x="1250.814453"/>
     <use xlink:href="#DejaVuSans-64" x="1312.337891"/>
     <use xlink:href="#DejaVuSans-20" x="1375.814453"/>
     <use xlink:href="#DejaVuSans-44" x="1407.601562"/>
     <use xlink:href="#DejaVuSans-46" x="1484.603516"/>
     <use xlink:href="#DejaVuSans-54" x="1540.373047"/>
     <use xlink:href="#DejaVuSans-28" x="1601.457031"/>
     <use xlink:href="#DejaVuSans-20" x="1640.470703"/>
     <use xlink:href="#DejaVuSans-4d" x="1672.257812"/>
     <use xlink:href="#DejaVuSans-61" x="1758.537109"/>
     <use xlink:href="#DejaVuSans-78" x="1819.816406"/>
     <use xlink:href="#DejaVuSans-20" x="1878.996094"/>
     <use xlink:href="#DejaVuSans-32" x="1910.783203"/>
     <use xlink:href="#DejaVuSans-30" x="1974.40625"/>
     <use xlink:href="#DejaVuSans-29" x="2038.029297"/>
    </g>
   </g>
  </g>
 </g>
 <defs>
  <clipPath id="p6b2dbece14">
   <rect x="66.053125" y="22.318125" width="629.395" height="120.7"/>
  </clipPath>
  <clipPath id="p11457a6631">
   <rect x="66.053125" y="199.618125" width="629.395" height="120.7"/>
  </clipPath>
  <clipPath id="pef516cd39c">
   <rect x="66.053125" y="376.918125" width="629.395" height="120.7"/>
  </clipPath>
  <clipPath id="pb945939f66">
   <rect x="66.053125" y="554.218125" width="629.395" height="120.7"/>
  </clipPath>
 </defs>
</svg>
