<?xml version="1.0" encoding="utf-8" standalone="no"?>
<!DOCTYPE svg PUBLIC "-//W3C//DTD SVG 1.1//EN"
  "http://www.w3.org/Graphics/SVG/1.1/DTD/svg11.dtd">
<svg xmlns:xlink="http://www.w3.org/1999/xlink" width="516.471875pt" height="226.194375pt" viewBox="0 0 516.471875 226.194375" xmlns="http://www.w3.org/2000/svg" version="1.1">
 <metadata>
  <rdf:RDF xmlns:dc="http://purl.org/dc/elements/1.1/" xmlns:cc="http://creativecommons.org/ns#" xmlns:rdf="http://www.w3.org/1999/02/22-rdf-syntax-ns#">
   <cc:Work>
    <dc:type rdf:resource="http://purl.org/dc/dcmitype/StillImage"/>
    <dc:date>2023-03-19T13:34:40.713842</dc:date>
    <dc:format>image/svg+xml</dc:format>
    <dc:creator>
     <cc:Agent>
      <dc:title>Matplotlib v3.5.2, https://matplotlib.org/</dc:title>
     </cc:Agent>
    </dc:creator>
   </cc:Work>
  </rdf:RDF>
 </metadata>
 <defs>
  <style type="text/css">*{stroke-linejoin: round; stroke-linecap: butt}</style>
 </defs>
 <g id="figure_1">
  <g id="patch_1">
   <path d="M 0 226.194375 
L 516.471875 226.194375 
L 516.471875 0 
L 0 0 
z
" style="fill: #ffffff"/>
  </g>
  <g id="axes_1">
   <g id="patch_2">
    <path d="M 53.328125 188.638125 
L 499.728125 188.638125 
L 499.728125 22.318125 
L 53.328125 22.318125 
z
" style="fill: #ffffff"/>
   </g>
   <g id="PathCollection_1">
    <defs>
     <path id="mc114e16fdb" d="M 0 3 
C 0.795609 3 1.55874 2.683901 2.12132 2.12132 
C 2.683901 1.55874 3 0.795609 3 0 
C 3 -0.795609 2.683901 -1.55874 2.12132 -2.12132 
C 1.55874 -2.683901 0.795609 -3 0 -3 
C -0.795609 -3 -1.55874 -2.683901 -2.12132 -2.12132 
C -2.683901 -1.55874 -3 -0.795609 -3 0 
C -3 0.795609 -2.683901 1.55874 -2.12132 2.12132 
C -1.55874 2.683901 -0.795609 3 0 3 
z
" style="stroke: #1f77b4"/>
    </defs>
    <g clip-path="url(#p173c6f1f6a)">
     <use xlink:href="#mc114e16fdb" x="123.636125" y="37.438125" style="fill: #1f77b4; stroke: #1f77b4"/>
    </g>
   </g>
   <g id="matplotlib.axis_1">
    <g id="xtick_1">
     <g id="line2d_1">
      <defs>
       <path id="m9e038554cf" d="M 0 0 
L 0 3.5 
" style="stroke: #000000; stroke-width: 0.8"/>
      </defs>
      <g>
       <use xlink:href="#m9e038554cf" x="53.328125" y="188.638125" style="stroke: #000000; stroke-width: 0.8"/>
      </g>
     </g>
     <g id="text_1">
      <!-- 0 -->
      <g transform="translate(50.146875 203.236563)scale(0.1 -0.1)">
       <defs>
        <path id="DejaVuSans-30" d="M 2034 4250 
Q 1547 4250 1301 3770 
Q 1056 3291 1056 2328 
Q 1056 1369 1301 889 
Q 1547 409 2034 409 
Q 2525 409 2770 889 
Q 3016 1369 3016 2328 
Q 3016 3291 2770 3770 
Q 2525 4250 2034 4250 
z
M 2034 4750 
Q 2819 4750 3233 4129 
Q 3647 3509 3647 2328 
Q 3647 1150 3233 529 
Q 2819 -91 2034 -91 
Q 1250 -91 836 529 
Q 422 1150 422 2328 
Q 422 3509 836 4129 
Q 1250 4750 2034 4750 
z
" transform="scale(0.015625)"/>
       </defs>
       <use xlink:href="#DejaVuSans-30"/>
      </g>
     </g>
    </g>
    <g id="xtick_2">
     <g id="line2d_2">
      <g>
       <use xlink:href="#m9e038554cf" x="109.128125" y="188.638125" style="stroke: #000000; stroke-width: 0.8"/>
      </g>
     </g>
     <g id="text_2">
      <!-- 50 -->
      <g transform="translate(102.765625 203.236563)scale(0.1 -0.1)">
       <defs>
        <path id="DejaVuSans-35" d="M 691 4666 
L 3169 4666 
L 3169 4134 
L 1269 4134 
L 1269 2991 
Q 1406 3038 1543 3061 
Q 1681 3084 1819 3084 
Q 2600 3084 3056 2656 
Q 3513 2228 3513 1497 
Q 3513 744 3044 326 
Q 2575 -91 1722 -91 
Q 1428 -91 1123 -41 
Q 819 9 494 109 
L 494 744 
Q 775 591 1075 516 
Q 1375 441 1709 441 
Q 2250 441 2565 725 
Q 2881 1009 2881 1497 
Q 2881 1984 2565 2268 
Q 2250 2553 1709 2553 
Q 1456 2553 1204 2497 
Q 953 2441 691 2322 
L 691 4666 
z
" transform="scale(0.015625)"/>
       </defs>
       <use xlink:href="#DejaVuSans-35"/>
       <use xlink:href="#DejaVuSans-30" x="63.623047"/>
      </g>
     </g>
    </g>
    <g id="xtick_3">
     <g id="line2d_3">
      <g>
       <use xlink:href="#m9e038554cf" x="164.928125" y="188.638125" style="stroke: #000000; stroke-width: 0.8"/>
      </g>
     </g>
     <g id="text_3">
      <!-- 100 -->
      <g transform="translate(155.384375 203.236563)scale(0.1 -0.1)">
       <defs>
        <path id="DejaVuSans-31" d="M 794 531 
L 1825 531 
L 1825 4091 
L 703 3866 
L 703 4441 
L 1819 4666 
L 2450 4666 
L 2450 531 
L 3481 531 
L 3481 0 
L 794 0 
L 794 531 
z
" transform="scale(0.015625)"/>
       </defs>
       <use xlink:href="#DejaVuSans-31"/>
       <use xlink:href="#DejaVuSans-30" x="63.623047"/>
       <use xlink:href="#DejaVuSans-30" x="127.246094"/>
      </g>
     </g>
    </g>
    <g id="xtick_4">
     <g id="line2d_4">
      <g>
       <use xlink:href="#m9e038554cf" x="220.728125" y="188.638125" style="stroke: #000000; stroke-width: 0.8"/>
      </g>
     </g>
     <g id="text_4">
      <!-- 150 -->
      <g transform="translate(211.184375 203.236563)scale(0.1 -0.1)">
       <use xlink:href="#DejaVuSans-31"/>
       <use xlink:href="#DejaVuSans-35" x="63.623047"/>
       <use xlink:href="#DejaVuSans-30" x="127.246094"/>
      </g>
     </g>
    </g>
    <g id="xtick_5">
     <g id="line2d_5">
      <g>
       <use xlink:href="#m9e038554cf" x="276.528125" y="188.638125" style="stroke: #000000; stroke-width: 0.8"/>
      </g>
     </g>
     <g id="text_5">
      <!-- 200 -->
      <g transform="translate(266.984375 203.236563)scale(0.1 -0.1)">
       <defs>
        <path id="DejaVuSans-32" d="M 1228 531 
L 3431 531 
L 3431 0 
L 469 0 
L 469 531 
Q 828 903 1448 1529 
Q 2069 2156 2228 2338 
Q 2531 2678 2651 2914 
Q 2772 3150 2772 3378 
Q 2772 3750 2511 3984 
Q 2250 4219 1831 4219 
Q 1534 4219 1204 4116 
Q 875 4013 500 3803 
L 500 4441 
Q 881 4594 1212 4672 
Q 1544 4750 1819 4750 
Q 2544 4750 2975 4387 
Q 3406 4025 3406 3419 
Q 3406 3131 3298 2873 
Q 3191 2616 2906 2266 
Q 2828 2175 2409 1742 
Q 1991 1309 1228 531 
z
" transform="scale(0.015625)"/>
       </defs>
       <use xlink:href="#DejaVuSans-32"/>
       <use xlink:href="#DejaVuSans-30" x="63.623047"/>
       <use xlink:href="#DejaVuSans-30" x="127.246094"/>
      </g>
     </g>
    </g>
    <g id="xtick_6">
     <g id="line2d_6">
      <g>
       <use xlink:href="#m9e038554cf" x="332.328125" y="188.638125" style="stroke: #000000; stroke-width: 0.8"/>
      </g>
     </g>
     <g id="text_6">
      <!-- 250 -->
      <g transform="translate(322.784375 203.236563)scale(0.1 -0.1)">
       <use xlink:href="#DejaVuSans-32"/>
       <use xlink:href="#DejaVuSans-35" x="63.623047"/>
       <use xlink:href="#DejaVuSans-30" x="127.246094"/>
      </g>
     </g>
    </g>
    <g id="xtick_7">
     <g id="line2d_7">
      <g>
       <use xlink:href="#m9e038554cf" x="388.128125" y="188.638125" style="stroke: #000000; stroke-width: 0.8"/>
      </g>
     </g>
     <g id="text_7">
      <!-- 300 -->
      <g transform="translate(378.584375 203.236563)scale(0.1 -0.1)">
       <defs>
        <path id="DejaVuSans-33" d="M 2597 2516 
Q 3050 2419 3304 2112 
Q 3559 1806 3559 1356 
Q 3559 666 3084 287 
Q 2609 -91 1734 -91 
Q 1441 -91 1130 -33 
Q 819 25 488 141 
L 488 750 
Q 750 597 1062 519 
Q 1375 441 1716 441 
Q 2309 441 2620 675 
Q 2931 909 2931 1356 
Q 2931 1769 2642 2001 
Q 2353 2234 1838 2234 
L 1294 2234 
L 1294 2753 
L 1863 2753 
Q 2328 2753 2575 2939 
Q 2822 3125 2822 3475 
Q 2822 3834 2567 4026 
Q 2313 4219 1838 4219 
Q 1578 4219 1281 4162 
Q 984 4106 628 3988 
L 628 4550 
Q 988 4650 1302 4700 
Q 1616 4750 1894 4750 
Q 2613 4750 3031 4423 
Q 3450 4097 3450 3541 
Q 3450 3153 3228 2886 
Q 3006 2619 2597 2516 
z
" transform="scale(0.015625)"/>
       </defs>
       <use xlink:href="#DejaVuSans-33"/>
       <use xlink:href="#DejaVuSans-30" x="63.623047"/>
       <use xlink:href="#DejaVuSans-30" x="127.246094"/>
      </g>
     </g>
    </g>
    <g id="xtick_8">
     <g id="line2d_8">
      <g>
       <use xlink:href="#m9e038554cf" x="443.928125" y="188.638125" style="stroke: #000000; stroke-width: 0.8"/>
      </g>
     </g>
     <g id="text_8">
      <!-- 350 -->
      <g transform="translate(434.384375 203.236563)scale(0.1 -0.1)">
       <use xlink:href="#DejaVuSans-33"/>
       <use xlink:href="#DejaVuSans-35" x="63.623047"/>
       <use xlink:href="#DejaVuSans-30" x="127.246094"/>
      </g>
     </g>
    </g>
    <g id="xtick_9">
     <g id="line2d_9">
      <g>
       <use xlink:href="#m9e038554cf" x="499.728125" y="188.638125" style="stroke: #000000; stroke-width: 0.8"/>
      </g>
     </g>
     <g id="text_9">
      <!-- 400 -->
      <g transform="translate(490.184375 203.236563)scale(0.1 -0.1)">
       <defs>
        <path id="DejaVuSans-34" d="M 2419 4116 
L 825 1625 
L 2419 1625 
L 2419 4116 
z
M 2253 4666 
L 3047 4666 
L 3047 1625 
L 3713 1625 
L 3713 1100 
L 3047 1100 
L 3047 0 
L 2419 0 
L 2419 1100 
L 313 1100 
L 313 1709 
L 2253 4666 
z
" transform="scale(0.015625)"/>
       </defs>
       <use xlink:href="#DejaVuSans-34"/>
       <use xlink:href="#DejaVuSans-30" x="63.623047"/>
       <use xlink:href="#DejaVuSans-30" x="127.246094"/>
      </g>
     </g>
    </g>
    <g id="text_10">
     <!-- Frequency Index -->
     <g transform="translate(235.342969 216.914688)scale(0.1 -0.1)">
      <defs>
       <path id="DejaVuSans-46" d="M 628 4666 
L 3309 4666 
L 3309 4134 
L 1259 4134 
L 1259 2759 
L 3109 2759 
L 3109 2228 
L 1259 2228 
L 1259 0 
L 628 0 
L 628 4666 
z
" transform="scale(0.015625)"/>
       <path id="DejaVuSans-72" d="M 2631 2963 
Q 2534 3019 2420 3045 
Q 2306 3072 2169 3072 
Q 1681 3072 1420 2755 
Q 1159 2438 1159 1844 
L 1159 0 
L 581 0 
L 581 3500 
L 1159 3500 
L 1159 2956 
Q 1341 3275 1631 3429 
Q 1922 3584 2338 3584 
Q 2397 3584 2469 3576 
Q 2541 3569 2628 3553 
L 2631 2963 
z
" transform="scale(0.015625)"/>
       <path id="DejaVuSans-65" d="M 3597 1894 
L 3597 1613 
L 953 1613 
Q 991 1019 1311 708 
Q 1631 397 2203 397 
Q 2534 397 2845 478 
Q 3156 559 3463 722 
L 3463 178 
Q 3153 47 2828 -22 
Q 2503 -91 2169 -91 
Q 1331 -91 842 396 
Q 353 884 353 1716 
Q 353 2575 817 3079 
Q 1281 3584 2069 3584 
Q 2775 3584 3186 3129 
Q 3597 2675 3597 1894 
z
M 3022 2063 
Q 3016 2534 2758 2815 
Q 2500 3097 2075 3097 
Q 1594 3097 1305 2825 
Q 1016 2553 972 2059 
L 3022 2063 
z
" transform="scale(0.015625)"/>
       <path id="DejaVuSans-71" d="M 947 1747 
Q 947 1113 1208 752 
Q 1469 391 1925 391 
Q 2381 391 2643 752 
Q 2906 1113 2906 1747 
Q 2906 2381 2643 2742 
Q 2381 3103 1925 3103 
Q 1469 3103 1208 2742 
Q 947 2381 947 1747 
z
M 2906 525 
Q 2725 213 2448 61 
Q 2172 -91 1784 -91 
Q 1150 -91 751 415 
Q 353 922 353 1747 
Q 353 2572 751 3078 
Q 1150 3584 1784 3584 
Q 2172 3584 2448 3432 
Q 2725 3281 2906 2969 
L 2906 3500 
L 3481 3500 
L 3481 -1331 
L 2906 -1331 
L 2906 525 
z
" transform="scale(0.015625)"/>
       <path id="DejaVuSans-75" d="M 544 1381 
L 544 3500 
L 1119 3500 
L 1119 1403 
Q 1119 906 1312 657 
Q 1506 409 1894 409 
Q 2359 409 2629 706 
Q 2900 1003 2900 1516 
L 2900 3500 
L 3475 3500 
L 3475 0 
L 2900 0 
L 2900 538 
Q 2691 219 2414 64 
Q 2138 -91 1772 -91 
Q 1169 -91 856 284 
Q 544 659 544 1381 
z
M 1991 3584 
L 1991 3584 
z
" transform="scale(0.015625)"/>
       <path id="DejaVuSans-6e" d="M 3513 2113 
L 3513 0 
L 2938 0 
L 2938 2094 
Q 2938 2591 2744 2837 
Q 2550 3084 2163 3084 
Q 1697 3084 1428 2787 
Q 1159 2491 1159 1978 
L 1159 0 
L 581 0 
L 581 3500 
L 1159 3500 
L 1159 2956 
Q 1366 3272 1645 3428 
Q 1925 3584 2291 3584 
Q 2894 3584 3203 3211 
Q 3513 2838 3513 2113 
z
" transform="scale(0.015625)"/>
       <path id="DejaVuSans-63" d="M 3122 3366 
L 3122 2828 
Q 2878 2963 2633 3030 
Q 2388 3097 2138 3097 
Q 1578 3097 1268 2742 
Q 959 2388 959 1747 
Q 959 1106 1268 751 
Q 1578 397 2138 397 
Q 2388 397 2633 464 
Q 2878 531 3122 666 
L 3122 134 
Q 2881 22 2623 -34 
Q 2366 -91 2075 -91 
Q 1284 -91 818 406 
Q 353 903 353 1747 
Q 353 2603 823 3093 
Q 1294 3584 2113 3584 
Q 2378 3584 2631 3529 
Q 2884 3475 3122 3366 
z
" transform="scale(0.015625)"/>
       <path id="DejaVuSans-79" d="M 2059 -325 
Q 1816 -950 1584 -1140 
Q 1353 -1331 966 -1331 
L 506 -1331 
L 506 -850 
L 844 -850 
Q 1081 -850 1212 -737 
Q 1344 -625 1503 -206 
L 1606 56 
L 191 3500 
L 800 3500 
L 1894 763 
L 2988 3500 
L 3597 3500 
L 2059 -325 
z
" transform="scale(0.015625)"/>
       <path id="DejaVuSans-20" transform="scale(0.015625)"/>
       <path id="DejaVuSans-49" d="M 628 4666 
L 1259 4666 
L 1259 0 
L 628 0 
L 628 4666 
z
" transform="scale(0.015625)"/>
       <path id="DejaVuSans-64" d="M 2906 2969 
L 2906 4863 
L 3481 4863 
L 3481 0 
L 2906 0 
L 2906 525 
Q 2725 213 2448 61 
Q 2172 -91 1784 -91 
Q 1150 -91 751 415 
Q 353 922 353 1747 
Q 353 2572 751 3078 
Q 1150 3584 1784 3584 
Q 2172 3584 2448 3432 
Q 2725 3281 2906 2969 
z
M 947 1747 
Q 947 1113 1208 752 
Q 1469 391 1925 391 
Q 2381 391 2643 752 
Q 2906 1113 2906 1747 
Q 2906 2381 2643 2742 
Q 2381 3103 1925 3103 
Q 1469 3103 1208 2742 
Q 947 2381 947 1747 
z
" transform="scale(0.015625)"/>
       <path id="DejaVuSans-78" d="M 3513 3500 
L 2247 1797 
L 3578 0 
L 2900 0 
L 1881 1375 
L 863 0 
L 184 0 
L 1544 1831 
L 300 3500 
L 978 3500 
L 1906 2253 
L 2834 3500 
L 3513 3500 
z
" transform="scale(0.015625)"/>
      </defs>
      <use xlink:href="#DejaVuSans-46"/>
      <use xlink:href="#DejaVuSans-72" x="50.269531"/>
      <use xlink:href="#DejaVuSans-65" x="89.132812"/>
      <use xlink:href="#DejaVuSans-71" x="150.65625"/>
      <use xlink:href="#DejaVuSans-75" x="214.132812"/>
      <use xlink:href="#DejaVuSans-65" x="277.511719"/>
      <use xlink:href="#DejaVuSans-6e" x="339.035156"/>
      <use xlink:href="#DejaVuSans-63" x="402.414062"/>
      <use xlink:href="#DejaVuSans-79" x="457.394531"/>
      <use xlink:href="#DejaVuSans-20" x="516.574219"/>
      <use xlink:href="#DejaVuSans-49" x="548.361328"/>
      <use xlink:href="#DejaVuSans-6e" x="577.853516"/>
      <use xlink:href="#DejaVuSans-64" x="641.232422"/>
      <use xlink:href="#DejaVuSans-65" x="704.708984"/>
      <use xlink:href="#DejaVuSans-78" x="764.482422"/>
     </g>
    </g>
   </g>
   <g id="matplotlib.axis_2">
    <g id="ytick_1">
     <g id="line2d_10">
      <defs>
       <path id="m3cd139137d" d="M 0 0 
L -3.5 0 
" style="stroke: #000000; stroke-width: 0.8"/>
      </defs>
      <g>
       <use xlink:href="#m3cd139137d" x="53.328125" y="188.638125" style="stroke: #000000; stroke-width: 0.8"/>
      </g>
     </g>
     <g id="text_11">
      <!-- 0 -->
      <g transform="translate(39.965625 192.437344)scale(0.1 -0.1)">
       <use xlink:href="#DejaVuSans-30"/>
      </g>
     </g>
    </g>
    <g id="ytick_2">
     <g id="line2d_11">
      <g>
       <use xlink:href="#m3cd139137d" x="53.328125" y="167.56234" style="stroke: #000000; stroke-width: 0.8"/>
      </g>
     </g>
     <g id="text_12">
      <!-- 1000 -->
      <g transform="translate(20.878125 171.361559)scale(0.1 -0.1)">
       <use xlink:href="#DejaVuSans-31"/>
       <use xlink:href="#DejaVuSans-30" x="63.623047"/>
       <use xlink:href="#DejaVuSans-30" x="127.246094"/>
       <use xlink:href="#DejaVuSans-30" x="190.869141"/>
      </g>
     </g>
    </g>
    <g id="ytick_3">
     <g id="line2d_12">
      <g>
       <use xlink:href="#m3cd139137d" x="53.328125" y="146.486555" style="stroke: #000000; stroke-width: 0.8"/>
      </g>
     </g>
     <g id="text_13">
      <!-- 2000 -->
      <g transform="translate(20.878125 150.285774)scale(0.1 -0.1)">
       <use xlink:href="#DejaVuSans-32"/>
       <use xlink:href="#DejaVuSans-30" x="63.623047"/>
       <use xlink:href="#DejaVuSans-30" x="127.246094"/>
       <use xlink:href="#DejaVuSans-30" x="190.869141"/>
      </g>
     </g>
    </g>
    <g id="ytick_4">
     <g id="line2d_13">
      <g>
       <use xlink:href="#m3cd139137d" x="53.328125" y="125.41077" style="stroke: #000000; stroke-width: 0.8"/>
      </g>
     </g>
     <g id="text_14">
      <!-- 3000 -->
      <g transform="translate(20.878125 129.209989)scale(0.1 -0.1)">
       <use xlink:href="#DejaVuSans-33"/>
       <use xlink:href="#DejaVuSans-30" x="63.623047"/>
       <use xlink:href="#DejaVuSans-30" x="127.246094"/>
       <use xlink:href="#DejaVuSans-30" x="190.869141"/>
      </g>
     </g>
    </g>
    <g id="ytick_5">
     <g id="line2d_14">
      <g>
       <use xlink:href="#m3cd139137d" x="53.328125" y="104.334985" style="stroke: #000000; stroke-width: 0.8"/>
      </g>
     </g>
     <g id="text_15">
      <!-- 4000 -->
      <g transform="translate(20.878125 108.134204)scale(0.1 -0.1)">
       <use xlink:href="#DejaVuSans-34"/>
       <use xlink:href="#DejaVuSans-30" x="63.623047"/>
       <use xlink:href="#DejaVuSans-30" x="127.246094"/>
       <use xlink:href="#DejaVuSans-30" x="190.869141"/>
      </g>
     </g>
    </g>
    <g id="ytick_6">
     <g id="line2d_15">
      <g>
       <use xlink:href="#m3cd139137d" x="53.328125" y="83.2592" style="stroke: #000000; stroke-width: 0.8"/>
      </g>
     </g>
     <g id="text_16">
      <!-- 5000 -->
      <g transform="translate(20.878125 87.058418)scale(0.1 -0.1)">
       <use xlink:href="#DejaVuSans-35"/>
       <use xlink:href="#DejaVuSans-30" x="63.623047"/>
       <use xlink:href="#DejaVuSans-30" x="127.246094"/>
       <use xlink:href="#DejaVuSans-30" x="190.869141"/>
      </g>
     </g>
    </g>
    <g id="ytick_7">
     <g id="line2d_16">
      <g>
       <use xlink:href="#m3cd139137d" x="53.328125" y="62.183415" style="stroke: #000000; stroke-width: 0.8"/>
      </g>
     </g>
     <g id="text_17">
      <!-- 6000 -->
      <g transform="translate(20.878125 65.982633)scale(0.1 -0.1)">
       <defs>
        <path id="DejaVuSans-36" d="M 2113 2584 
Q 1688 2584 1439 2293 
Q 1191 2003 1191 1497 
Q 1191 994 1439 701 
Q 1688 409 2113 409 
Q 2538 409 2786 701 
Q 3034 994 3034 1497 
Q 3034 2003 2786 2293 
Q 2538 2584 2113 2584 
z
M 3366 4563 
L 3366 3988 
Q 3128 4100 2886 4159 
Q 2644 4219 2406 4219 
Q 1781 4219 1451 3797 
Q 1122 3375 1075 2522 
Q 1259 2794 1537 2939 
Q 1816 3084 2150 3084 
Q 2853 3084 3261 2657 
Q 3669 2231 3669 1497 
Q 3669 778 3244 343 
Q 2819 -91 2113 -91 
Q 1303 -91 875 529 
Q 447 1150 447 2328 
Q 447 3434 972 4092 
Q 1497 4750 2381 4750 
Q 2619 4750 2861 4703 
Q 3103 4656 3366 4563 
z
" transform="scale(0.015625)"/>
       </defs>
       <use xlink:href="#DejaVuSans-36"/>
       <use xlink:href="#DejaVuSans-30" x="63.623047"/>
       <use xlink:href="#DejaVuSans-30" x="127.246094"/>
       <use xlink:href="#DejaVuSans-30" x="190.869141"/>
      </g>
     </g>
    </g>
    <g id="ytick_8">
     <g id="line2d_17">
      <g>
       <use xlink:href="#m3cd139137d" x="53.328125" y="41.10763" style="stroke: #000000; stroke-width: 0.8"/>
      </g>
     </g>
     <g id="text_18">
      <!-- 7000 -->
      <g transform="translate(20.878125 44.906848)scale(0.1 -0.1)">
       <defs>
        <path id="DejaVuSans-37" d="M 525 4666 
L 3525 4666 
L 3525 4397 
L 1831 0 
L 1172 0 
L 2766 4134 
L 525 4134 
L 525 4666 
z
" transform="scale(0.015625)"/>
       </defs>
       <use xlink:href="#DejaVuSans-37"/>
       <use xlink:href="#DejaVuSans-30" x="63.623047"/>
       <use xlink:href="#DejaVuSans-30" x="127.246094"/>
       <use xlink:href="#DejaVuSans-30" x="190.869141"/>
      </g>
     </g>
    </g>
    <g id="text_19">
     <!-- Magitude -->
     <g transform="translate(14.798438 128.799219)rotate(-90)scale(0.1 -0.1)">
      <defs>
       <path id="DejaVuSans-4d" d="M 628 4666 
L 1569 4666 
L 2759 1491 
L 3956 4666 
L 4897 4666 
L 4897 0 
L 4281 0 
L 4281 4097 
L 3078 897 
L 2444 897 
L 1241 4097 
L 1241 0 
L 628 0 
L 628 4666 
z
" transform="scale(0.015625)"/>
       <path id="DejaVuSans-61" d="M 2194 1759 
Q 1497 1759 1228 1600 
Q 959 1441 959 1056 
Q 959 750 1161 570 
Q 1363 391 1709 391 
Q 2188 391 2477 730 
Q 2766 1069 2766 1631 
L 2766 1759 
L 2194 1759 
z
M 3341 1997 
L 3341 0 
L 2766 0 
L 2766 531 
Q 2569 213 2275 61 
Q 1981 -91 1556 -91 
Q 1019 -91 701 211 
Q 384 513 384 1019 
Q 384 1609 779 1909 
Q 1175 2209 1959 2209 
L 2766 2209 
L 2766 2266 
Q 2766 2663 2505 2880 
Q 2244 3097 1772 3097 
Q 1472 3097 1187 3025 
Q 903 2953 641 2809 
L 641 3341 
Q 956 3463 1253 3523 
Q 1550 3584 1831 3584 
Q 2591 3584 2966 3190 
Q 3341 2797 3341 1997 
z
" transform="scale(0.015625)"/>
       <path id="DejaVuSans-67" d="M 2906 1791 
Q 2906 2416 2648 2759 
Q 2391 3103 1925 3103 
Q 1463 3103 1205 2759 
Q 947 2416 947 1791 
Q 947 1169 1205 825 
Q 1463 481 1925 481 
Q 2391 481 2648 825 
Q 2906 1169 2906 1791 
z
M 3481 434 
Q 3481 -459 3084 -895 
Q 2688 -1331 1869 -1331 
Q 1566 -1331 1297 -1286 
Q 1028 -1241 775 -1147 
L 775 -588 
Q 1028 -725 1275 -790 
Q 1522 -856 1778 -856 
Q 2344 -856 2625 -561 
Q 2906 -266 2906 331 
L 2906 616 
Q 2728 306 2450 153 
Q 2172 0 1784 0 
Q 1141 0 747 490 
Q 353 981 353 1791 
Q 353 2603 747 3093 
Q 1141 3584 1784 3584 
Q 2172 3584 2450 3431 
Q 2728 3278 2906 2969 
L 2906 3500 
L 3481 3500 
L 3481 434 
z
" transform="scale(0.015625)"/>
       <path id="DejaVuSans-69" d="M 603 3500 
L 1178 3500 
L 1178 0 
L 603 0 
L 603 3500 
z
M 603 4863 
L 1178 4863 
L 1178 4134 
L 603 4134 
L 603 4863 
z
" transform="scale(0.015625)"/>
       <path id="DejaVuSans-74" d="M 1172 4494 
L 1172 3500 
L 2356 3500 
L 2356 3053 
L 1172 3053 
L 1172 1153 
Q 1172 725 1289 603 
Q 1406 481 1766 481 
L 2356 481 
L 2356 0 
L 1766 0 
Q 1100 0 847 248 
Q 594 497 594 1153 
L 594 3053 
L 172 3053 
L 172 3500 
L 594 3500 
L 594 4494 
L 1172 4494 
z
" transform="scale(0.015625)"/>
      </defs>
      <use xlink:href="#DejaVuSans-4d"/>
      <use xlink:href="#DejaVuSans-61" x="86.279297"/>
      <use xlink:href="#DejaVuSans-67" x="147.558594"/>
      <use xlink:href="#DejaVuSans-69" x="211.035156"/>
      <use xlink:href="#DejaVuSans-74" x="238.818359"/>
      <use xlink:href="#DejaVuSans-75" x="278.027344"/>
      <use xlink:href="#DejaVuSans-64" x="341.40625"/>
      <use xlink:href="#DejaVuSans-65" x="404.882812"/>
     </g>
    </g>
   </g>
   <g id="line2d_18">
    <path d="M 53.328125 188.638125 
L 54.444125 130.740841 
L 55.560125 174.274297 
L 56.676125 169.753973 
L 57.792125 181.545238 
L 58.908125 165.118918 
L 60.024125 181.628559 
L 61.140125 168.932553 
L 62.256125 180.962776 
L 63.372125 175.503869 
L 64.488125 169.430542 
L 65.604125 179.351969 
L 66.720125 177.100297 
L 67.836125 182.785461 
L 68.952125 168.60942 
L 70.068125 165.116976 
L 71.184125 157.043421 
L 72.300125 180.758176 
L 73.416125 182.782537 
L 74.532125 176.174577 
L 75.648125 183.622374 
L 76.764125 61.912818 
L 77.880125 156.468917 
L 78.996125 175.700004 
L 80.112125 178.268393 
L 81.228125 178.198541 
L 82.344125 175.748494 
L 83.460125 166.646175 
L 84.576125 186.440972 
L 85.692125 183.548048 
L 86.808125 183.127043 
L 87.924125 176.094572 
L 89.040125 165.374542 
L 90.156125 173.695061 
L 91.272125 185.069777 
L 93.504125 163.300654 
L 94.620125 167.25174 
L 95.736125 181.553094 
L 96.852125 165.898421 
L 97.968125 167.674564 
L 99.084125 172.851623 
L 100.200125 72.381498 
L 101.316125 184.345909 
L 102.432125 160.728997 
L 103.548125 165.286234 
L 104.664125 171.561565 
L 105.780125 165.237881 
L 106.896125 168.500696 
L 108.012125 173.878735 
L 109.128125 158.426321 
L 110.244125 173.344944 
L 111.360125 174.000438 
L 112.476125 173.477035 
L 113.592125 160.185015 
L 114.708125 173.845929 
L 115.824125 162.515636 
L 116.940125 153.743504 
L 118.056125 169.436295 
L 119.172125 170.293711 
L 120.288125 161.107678 
L 121.404125 171.285711 
L 122.520125 141.74904 
L 123.636125 37.438125 
L 124.752125 132.705905 
L 125.868125 162.230327 
L 126.984125 163.499246 
L 128.100125 163.39416 
L 129.216125 150.432211 
L 130.332125 169.69544 
L 131.448125 170.615955 
L 132.564125 165.974148 
L 133.680125 166.181982 
L 134.796125 172.068481 
L 135.912125 169.917056 
L 137.028125 179.422748 
L 138.144125 161.113077 
L 139.260125 180.649352 
L 140.376125 150.660549 
L 141.492125 179.31957 
L 142.608125 146.035445 
L 143.724125 161.601697 
L 144.840125 187.397326 
L 145.956125 168.357706 
L 147.072125 154.704276 
L 148.188125 161.870713 
L 149.304125 177.45171 
L 150.420125 183.294875 
L 151.536125 171.38468 
L 152.652125 167.587997 
L 153.768125 158.480235 
L 154.884125 175.976025 
L 156.000125 172.322458 
L 157.116125 146.785261 
L 158.232125 178.658872 
L 159.348125 169.795005 
L 160.464125 181.884686 
L 161.580125 174.895356 
L 162.696125 181.183789 
L 163.812125 161.354098 
L 164.928125 157.238758 
L 166.044125 144.760292 
L 167.160125 169.726564 
L 168.276125 172.931506 
L 169.392125 137.972733 
L 170.508125 161.337141 
L 171.624125 175.474349 
L 172.740125 178.056423 
L 173.856125 172.943429 
L 174.972125 156.264047 
L 176.088125 177.971263 
L 177.204125 174.273237 
L 178.320125 168.967643 
L 179.436125 177.685128 
L 180.552125 177.585767 
L 181.668125 163.56486 
L 182.784125 163.977461 
L 183.900125 153.863235 
L 185.016125 166.444093 
L 186.132125 183.287234 
L 187.248125 132.458386 
L 188.364125 173.837157 
L 189.480125 139.495754 
L 190.596125 124.321708 
L 191.712125 150.332561 
L 192.828125 94.712913 
L 193.944125 146.736988 
L 195.060125 150.027967 
L 196.176125 161.042202 
L 197.292125 139.134542 
L 198.408125 170.863017 
L 199.524125 161.90263 
L 200.640125 161.811548 
L 201.756125 171.231727 
L 202.872125 187.101393 
L 203.988125 162.111403 
L 205.104125 164.27042 
L 206.220125 146.786564 
L 207.336125 166.211735 
L 208.452125 156.957326 
L 209.568125 179.635122 
L 210.684125 155.241509 
L 211.800125 174.604063 
L 212.916125 158.177295 
L 214.032125 157.104095 
L 215.148125 156.491858 
L 216.264125 159.522403 
L 217.380125 163.294796 
L 218.496125 146.771854 
L 219.612125 179.048333 
L 220.728125 161.537516 
L 221.844125 173.191224 
L 222.960125 165.465136 
L 224.076125 179.23446 
L 225.192125 163.56492 
L 226.308125 171.321379 
L 227.424125 156.986325 
L 228.540125 184.289003 
L 229.656125 173.343043 
L 230.772125 168.324736 
L 231.888125 161.446499 
L 233.004125 175.759739 
L 234.120125 148.548392 
L 235.236125 168.224314 
L 236.352125 161.510234 
L 237.468125 142.747842 
L 238.584125 157.214751 
L 239.700125 148.399485 
L 240.816125 150.469126 
L 241.932125 155.867756 
L 243.048125 183.378164 
L 244.164125 166.100567 
L 245.280125 183.074813 
L 246.396125 169.739111 
L 247.512125 171.09488 
L 248.628125 148.984404 
L 249.744125 176.564873 
L 250.860125 176.798171 
L 251.976125 160.645773 
L 253.092125 181.100874 
L 254.208125 166.534402 
L 255.324125 166.030924 
L 256.440125 156.873048 
L 257.556125 125.513723 
L 258.672125 166.685577 
L 259.788125 138.976976 
L 260.904125 96.521506 
L 262.020125 109.399872 
L 263.136125 90.676889 
L 264.252125 150.903426 
L 265.368125 65.936965 
L 266.484125 155.313325 
L 267.600125 125.061323 
L 268.716125 174.393999 
L 269.832125 130.890828 
L 270.948125 178.536544 
L 272.064125 133.660925 
L 273.180125 170.803392 
L 274.296125 162.379911 
L 275.412125 163.913807 
L 276.528125 156.423115 
L 277.644125 175.114116 
L 278.760125 138.718745 
L 279.876125 151.853327 
L 280.992125 144.330352 
L 282.108125 151.13843 
L 283.224125 167.043848 
L 284.340125 144.031167 
L 285.456125 151.400645 
L 286.572125 182.307775 
L 287.688125 161.6796 
L 288.804125 129.464639 
L 289.920125 160.872055 
L 291.036125 165.074043 
L 292.152125 180.880659 
L 293.268125 164.175737 
L 294.384125 170.824716 
L 295.500125 150.331727 
L 296.616125 181.624424 
L 297.732125 179.665982 
L 298.848125 183.59834 
L 299.964125 169.89052 
L 301.080125 168.106086 
L 302.196125 141.682665 
L 303.312125 148.138888 
L 304.428125 167.396085 
L 305.544125 166.616195 
L 306.660125 158.372131 
L 307.776125 137.946767 
L 308.892125 160.620314 
L 310.008125 159.947484 
L 311.124125 176.185306 
L 312.240125 142.761554 
L 313.356125 163.739148 
L 314.472125 174.286373 
L 315.588125 167.988813 
L 316.704125 152.817654 
L 318.936125 182.46409 
L 320.052125 160.873833 
L 321.168125 169.797896 
L 322.284125 185.676534 
L 323.400125 174.171772 
L 324.516125 152.997968 
L 325.632125 160.697066 
L 326.748125 153.354366 
L 327.864125 168.894514 
L 328.980125 172.08523 
L 330.096125 184.234025 
L 331.212125 137.395683 
L 332.328125 161.397835 
L 333.444125 159.074535 
L 334.560125 159.878864 
L 335.676125 115.698554 
L 336.792125 150.899803 
L 337.908125 153.364019 
L 339.024125 164.627805 
L 340.140125 148.329769 
L 341.256125 165.638238 
L 342.372125 167.289142 
L 343.488125 153.648337 
L 344.604125 150.141884 
L 345.720125 180.096933 
L 346.836125 180.237829 
L 347.952125 182.407398 
L 349.068125 159.291026 
L 350.184125 178.210424 
L 351.300125 174.312062 
L 352.416125 174.11925 
L 353.532125 155.621747 
L 354.648125 169.714916 
L 355.764125 176.877193 
L 356.880125 177.830979 
L 357.996125 183.001116 
L 359.112125 162.56296 
L 360.228125 181.49472 
L 361.344125 159.188132 
L 362.460125 186.033791 
L 363.576125 175.639587 
L 364.692125 179.836059 
L 365.808125 152.586949 
L 366.924125 174.089162 
L 368.040125 173.699485 
L 369.156125 170.333311 
L 370.272125 178.974621 
L 371.388125 165.175269 
L 372.504125 181.101001 
L 373.620125 168.312858 
L 374.736125 185.795621 
L 375.852125 175.304189 
L 376.968125 166.631126 
L 378.084125 178.880938 
L 379.200125 174.782229 
L 380.316125 167.762071 
L 381.432125 172.413034 
L 383.664125 179.812793 
L 384.780125 185.860311 
L 385.896125 153.272862 
L 387.012125 169.945315 
L 388.128125 173.966113 
L 389.244125 174.876068 
L 390.360125 161.46548 
L 391.476125 167.006861 
L 392.592125 175.33038 
L 393.708125 166.252643 
L 394.824125 170.565378 
L 395.940125 182.500518 
L 397.056125 152.794611 
L 398.172125 185.010223 
L 399.288125 163.190926 
L 400.404125 162.320614 
L 401.520125 173.989406 
L 402.636125 171.991281 
L 403.752125 183.099624 
L 404.868125 169.566114 
L 405.984125 170.001267 
L 407.100125 173.489232 
L 408.216125 169.40658 
L 409.332125 171.816795 
L 410.448125 159.53919 
L 411.564125 175.517952 
L 412.680125 182.858911 
L 413.796125 176.457858 
L 414.912125 154.907798 
L 416.028125 183.71586 
L 417.144125 168.071755 
L 418.260125 177.058344 
L 419.376125 175.083815 
L 420.492125 162.437591 
L 421.608125 177.590044 
L 422.724125 157.049618 
L 423.840125 175.379542 
L 424.956125 147.80878 
L 426.072125 175.555196 
L 427.188125 167.87226 
L 428.304125 171.04853 
L 429.420125 167.681159 
L 430.536125 168.119602 
L 431.652125 168.299292 
L 432.768125 167.363029 
L 433.884125 161.48827 
L 435.000125 167.525325 
L 436.116125 181.591392 
L 437.232125 172.598978 
L 438.348125 175.862228 
L 439.464125 176.888931 
L 440.580125 164.35191 
L 441.696125 174.248451 
L 442.812125 175.780865 
L 443.928125 175.246993 
L 446.160125 180.084805 
L 447.276125 168.932119 
L 448.392125 181.991153 
L 449.508125 170.92112 
L 450.624125 181.500046 
L 451.740125 183.96258 
L 452.856125 185.815381 
L 453.972125 180.062246 
L 455.088125 165.127881 
L 456.204125 177.397064 
L 457.320125 169.889236 
L 458.436125 180.471315 
L 459.552125 165.051368 
L 460.668125 179.831562 
L 461.784125 169.264512 
L 462.900125 181.285809 
L 464.016125 167.433876 
L 465.132125 163.703729 
L 466.248125 179.632939 
L 467.364125 160.471548 
L 468.480125 172.857269 
L 469.596125 157.85242 
L 470.712125 154.062203 
L 471.828125 166.644844 
L 472.944125 168.389304 
L 474.060125 161.938854 
L 475.176125 179.554135 
L 476.292125 172.713851 
L 477.408125 163.28214 
L 478.524125 145.357317 
L 479.640125 143.39376 
L 480.756125 177.764894 
L 481.872125 160.061238 
L 482.988125 169.379356 
L 484.104125 173.604715 
L 485.220125 171.076182 
L 486.336125 181.089033 
L 487.452125 172.798441 
L 488.568125 173.341934 
L 489.684125 183.08609 
L 490.800125 159.121156 
L 491.916125 161.861033 
L 493.032125 158.377277 
L 494.148125 168.620865 
L 495.264125 173.341948 
L 496.380125 171.302555 
L 497.496125 164.437888 
L 498.612125 173.461305 
L 499.728125 184.694809 
L 500.844125 181.547025 
L 500.844125 181.547025 
" clip-path="url(#p173c6f1f6a)" style="fill: none; stroke: #1f77b4; stroke-width: 1.5; stroke-linecap: square"/>
   </g>
   <g id="patch_3">
    <path d="M 53.328125 188.638125 
L 53.328125 22.318125 
" style="fill: none; stroke: #000000; stroke-width: 0.8; stroke-linejoin: miter; stroke-linecap: square"/>
   </g>
   <g id="patch_4">
    <path d="M 499.728125 188.638125 
L 499.728125 22.318125 
" style="fill: none; stroke: #000000; stroke-width: 0.8; stroke-linejoin: miter; stroke-linecap: square"/>
   </g>
   <g id="patch_5">
    <path d="M 53.328125 188.638125 
L 499.728125 188.638125 
" style="fill: none; stroke: #000000; stroke-width: 0.8; stroke-linejoin: miter; stroke-linecap: square"/>
   </g>
   <g id="patch_6">
    <path d="M 53.328125 22.318125 
L 499.728125 22.318125 
" style="fill: none; stroke: #000000; stroke-width: 0.8; stroke-linejoin: miter; stroke-linecap: square"/>
   </g>
   <g id="text_20">
    <!-- Magnitude Discrete Fourier Transform (Max Index 63) -->
    <g transform="translate(116.43875 16.318125)scale(0.12 -0.12)">
     <defs>
      <path id="DejaVuSans-44" d="M 1259 4147 
L 1259 519 
L 2022 519 
Q 2988 519 3436 956 
Q 3884 1394 3884 2338 
Q 3884 3275 3436 3711 
Q 2988 4147 2022 4147 
L 1259 4147 
z
M 628 4666 
L 1925 4666 
Q 3281 4666 3915 4102 
Q 4550 3538 4550 2338 
Q 4550 1131 3912 565 
Q 3275 0 1925 0 
L 628 0 
L 628 4666 
z
" transform="scale(0.015625)"/>
      <path id="DejaVuSans-73" d="M 2834 3397 
L 2834 2853 
Q 2591 2978 2328 3040 
Q 2066 3103 1784 3103 
Q 1356 3103 1142 2972 
Q 928 2841 928 2578 
Q 928 2378 1081 2264 
Q 1234 2150 1697 2047 
L 1894 2003 
Q 2506 1872 2764 1633 
Q 3022 1394 3022 966 
Q 3022 478 2636 193 
Q 2250 -91 1575 -91 
Q 1294 -91 989 -36 
Q 684 19 347 128 
L 347 722 
Q 666 556 975 473 
Q 1284 391 1588 391 
Q 1994 391 2212 530 
Q 2431 669 2431 922 
Q 2431 1156 2273 1281 
Q 2116 1406 1581 1522 
L 1381 1569 
Q 847 1681 609 1914 
Q 372 2147 372 2553 
Q 372 3047 722 3315 
Q 1072 3584 1716 3584 
Q 2034 3584 2315 3537 
Q 2597 3491 2834 3397 
z
" transform="scale(0.015625)"/>
      <path id="DejaVuSans-6f" d="M 1959 3097 
Q 1497 3097 1228 2736 
Q 959 2375 959 1747 
Q 959 1119 1226 758 
Q 1494 397 1959 397 
Q 2419 397 2687 759 
Q 2956 1122 2956 1747 
Q 2956 2369 2687 2733 
Q 2419 3097 1959 3097 
z
M 1959 3584 
Q 2709 3584 3137 3096 
Q 3566 2609 3566 1747 
Q 3566 888 3137 398 
Q 2709 -91 1959 -91 
Q 1206 -91 779 398 
Q 353 888 353 1747 
Q 353 2609 779 3096 
Q 1206 3584 1959 3584 
z
" transform="scale(0.015625)"/>
      <path id="DejaVuSans-54" d="M -19 4666 
L 3928 4666 
L 3928 4134 
L 2272 4134 
L 2272 0 
L 1638 0 
L 1638 4134 
L -19 4134 
L -19 4666 
z
" transform="scale(0.015625)"/>
      <path id="DejaVuSans-66" d="M 2375 4863 
L 2375 4384 
L 1825 4384 
Q 1516 4384 1395 4259 
Q 1275 4134 1275 3809 
L 1275 3500 
L 2222 3500 
L 2222 3053 
L 1275 3053 
L 1275 0 
L 697 0 
L 697 3053 
L 147 3053 
L 147 3500 
L 697 3500 
L 697 3744 
Q 697 4328 969 4595 
Q 1241 4863 1831 4863 
L 2375 4863 
z
" transform="scale(0.015625)"/>
      <path id="DejaVuSans-6d" d="M 3328 2828 
Q 3544 3216 3844 3400 
Q 4144 3584 4550 3584 
Q 5097 3584 5394 3201 
Q 5691 2819 5691 2113 
L 5691 0 
L 5113 0 
L 5113 2094 
Q 5113 2597 4934 2840 
Q 4756 3084 4391 3084 
Q 3944 3084 3684 2787 
Q 3425 2491 3425 1978 
L 3425 0 
L 2847 0 
L 2847 2094 
Q 2847 2600 2669 2842 
Q 2491 3084 2119 3084 
Q 1678 3084 1418 2786 
Q 1159 2488 1159 1978 
L 1159 0 
L 581 0 
L 581 3500 
L 1159 3500 
L 1159 2956 
Q 1356 3278 1631 3431 
Q 1906 3584 2284 3584 
Q 2666 3584 2933 3390 
Q 3200 3197 3328 2828 
z
" transform="scale(0.015625)"/>
      <path id="DejaVuSans-28" d="M 1984 4856 
Q 1566 4138 1362 3434 
Q 1159 2731 1159 2009 
Q 1159 1288 1364 580 
Q 1569 -128 1984 -844 
L 1484 -844 
Q 1016 -109 783 600 
Q 550 1309 550 2009 
Q 550 2706 781 3412 
Q 1013 4119 1484 4856 
L 1984 4856 
z
" transform="scale(0.015625)"/>
      <path id="DejaVuSans-29" d="M 513 4856 
L 1013 4856 
Q 1481 4119 1714 3412 
Q 1947 2706 1947 2009 
Q 1947 1309 1714 600 
Q 1481 -109 1013 -844 
L 513 -844 
Q 928 -128 1133 580 
Q 1338 1288 1338 2009 
Q 1338 2731 1133 3434 
Q 928 4138 513 4856 
z
" transform="scale(0.015625)"/>
     </defs>
     <use xlink:href="#DejaVuSans-4d"/>
     <use xlink:href="#DejaVuSans-61" x="86.279297"/>
     <use xlink:href="#DejaVuSans-67" x="147.558594"/>
     <use xlink:href="#DejaVuSans-6e" x="211.035156"/>
     <use xlink:href="#DejaVuSans-69" x="274.414062"/>
     <use xlink:href="#DejaVuSans-74" x="302.197266"/>
     <use xlink:href="#DejaVuSans-75" x="341.40625"/>
     <use xlink:href="#DejaVuSans-64" x="404.785156"/>
     <use xlink:href="#DejaVuSans-65" x="468.261719"/>
     <use xlink:href="#DejaVuSans-20" x="529.785156"/>
     <use xlink:href="#DejaVuSans-44" x="561.572266"/>
     <use xlink:href="#DejaVuSans-69" x="638.574219"/>
     <use xlink:href="#DejaVuSans-73" x="666.357422"/>
     <use xlink:href="#DejaVuSans-63" x="718.457031"/>
     <use xlink:href="#DejaVuSans-72" x="773.4375"/>
     <use xlink:href="#DejaVuSans-65" x="812.300781"/>
     <use xlink:href="#DejaVuSans-74" x="873.824219"/>
     <use xlink:href="#DejaVuSans-65" x="913.033203"/>
     <use xlink:href="#DejaVuSans-20" x="974.556641"/>
     <use xlink:href="#DejaVuSans-46" x="1006.34375"/>
     <use xlink:href="#DejaVuSans-6f" x="1060.238281"/>
     <use xlink:href="#DejaVuSans-75" x="1121.419922"/>
     <use xlink:href="#DejaVuSans-72" x="1184.798828"/>
     <use xlink:href="#DejaVuSans-69" x="1225.912109"/>
     <use xlink:href="#DejaVuSans-65" x="1253.695312"/>
     <use xlink:href="#DejaVuSans-72" x="1315.21875"/>
     <use xlink:href="#DejaVuSans-20" x="1356.332031"/>
     <use xlink:href="#DejaVuSans-54" x="1388.119141"/>
     <use xlink:href="#DejaVuSans-72" x="1434.453125"/>
     <use xlink:href="#DejaVuSans-61" x="1475.566406"/>
     <use xlink:href="#DejaVuSans-6e" x="1536.845703"/>
     <use xlink:href="#DejaVuSans-73" x="1600.224609"/>
     <use xlink:href="#DejaVuSans-66" x="1652.324219"/>
     <use xlink:href="#DejaVuSans-6f" x="1687.529297"/>
     <use xlink:href="#DejaVuSans-72" x="1748.710938"/>
     <use xlink:href="#DejaVuSans-6d" x="1788.074219"/>
     <use xlink:href="#DejaVuSans-20" x="1885.486328"/>
     <use xlink:href="#DejaVuSans-28" x="1917.273438"/>
     <use xlink:href="#DejaVuSans-4d" x="1956.287109"/>
     <use xlink:href="#DejaVuSans-61" x="2042.566406"/>
     <use xlink:href="#DejaVuSans-78" x="2103.845703"/>
     <use xlink:href="#DejaVuSans-20" x="2163.025391"/>
     <use xlink:href="#DejaVuSans-49" x="2194.8125"/>
     <use xlink:href="#DejaVuSans-6e" x="2224.304688"/>
     <use xlink:href="#DejaVuSans-64" x="2287.683594"/>
     <use xlink:href="#DejaVuSans-65" x="2351.160156"/>
     <use xlink:href="#DejaVuSans-78" x="2410.933594"/>
     <use xlink:href="#DejaVuSans-20" x="2470.113281"/>
     <use xlink:href="#DejaVuSans-36" x="2501.900391"/>
     <use xlink:href="#DejaVuSans-33" x="2565.523438"/>
     <use xlink:href="#DejaVuSans-29" x="2629.146484"/>
    </g>
   </g>
  </g>
 </g>
 <defs>
  <clipPath id="p173c6f1f6a">
   <rect x="53.328125" y="22.318125" width="446.4" height="166.32"/>
  </clipPath>
 </defs>
</svg>
