<?xml version="1.0" encoding="utf-8" standalone="no"?>
<!DOCTYPE svg PUBLIC "-//W3C//DTD SVG 1.1//EN"
  "http://www.w3.org/Graphics/SVG/1.1/DTD/svg11.dtd">
<!-- Created with matplotlib (https://matplotlib.org/) -->
<svg height="222.954375pt" version="1.1" viewBox="0 0 516.471875 222.954375" width="516.471875pt" xmlns="http://www.w3.org/2000/svg" xmlns:xlink="http://www.w3.org/1999/xlink">
 <metadata>
  <rdf:RDF xmlns:cc="http://creativecommons.org/ns#" xmlns:dc="http://purl.org/dc/elements/1.1/" xmlns:rdf="http://www.w3.org/1999/02/22-rdf-syntax-ns#">
   <cc:Work>
    <dc:type rdf:resource="http://purl.org/dc/dcmitype/StillImage"/>
    <dc:date>2021-03-19T23:47:50.794553</dc:date>
    <dc:format>image/svg+xml</dc:format>
    <dc:creator>
     <cc:Agent>
      <dc:title>Matplotlib v3.3.3, https://matplotlib.org/</dc:title>
     </cc:Agent>
    </dc:creator>
   </cc:Work>
  </rdf:RDF>
 </metadata>
 <defs>
  <style type="text/css">*{stroke-linecap:butt;stroke-linejoin:round;}</style>
 </defs>
 <g id="figure_1">
  <g id="patch_1">
   <path d="M 0 222.954375 
L 516.471875 222.954375 
L 516.471875 0 
L 0 0 
z
" style="fill:none;"/>
  </g>
  <g id="axes_1">
   <g id="patch_2">
    <path d="M 53.328125 185.398125 
L 499.728125 185.398125 
L 499.728125 22.318125 
L 53.328125 22.318125 
z
" style="fill:#ffffff;"/>
   </g>
   <g id="PathCollection_1">
    <defs>
     <path d="M 0 3 
C 0.795609 3 1.55874 2.683901 2.12132 2.12132 
C 2.683901 1.55874 3 0.795609 3 0 
C 3 -0.795609 2.683901 -1.55874 2.12132 -2.12132 
C 1.55874 -2.683901 0.795609 -3 0 -3 
C -0.795609 -3 -1.55874 -2.683901 -2.12132 -2.12132 
C -2.683901 -1.55874 -3 -0.795609 -3 0 
C -3 0.795609 -2.683901 1.55874 -2.12132 2.12132 
C -1.55874 2.683901 -0.795609 3 0 3 
z
" id="m2f12fc93d3" style="stroke:#1f77b4;"/>
    </defs>
    <g clip-path="url(#p5c69f01d5f)">
     <use style="fill:#1f77b4;stroke:#1f77b4;" x="123.636125" xlink:href="#m2f12fc93d3" y="37.14358"/>
    </g>
   </g>
   <g id="matplotlib.axis_1">
    <g id="xtick_1">
     <g id="line2d_1">
      <defs>
       <path d="M 0 0 
L 0 3.5 
" id="m8792b90c0a" style="stroke:#000000;stroke-width:0.8;"/>
      </defs>
      <g>
       <use style="stroke:#000000;stroke-width:0.8;" x="53.328125" xlink:href="#m8792b90c0a" y="185.398125"/>
      </g>
     </g>
     <g id="text_1">
      <!-- 0 -->
      <g transform="translate(50.146875 199.996562)scale(0.1 -0.1)">
       <defs>
        <path d="M 31.78125 66.40625 
Q 24.171875 66.40625 20.328125 58.90625 
Q 16.5 51.421875 16.5 36.375 
Q 16.5 21.390625 20.328125 13.890625 
Q 24.171875 6.390625 31.78125 6.390625 
Q 39.453125 6.390625 43.28125 13.890625 
Q 47.125 21.390625 47.125 36.375 
Q 47.125 51.421875 43.28125 58.90625 
Q 39.453125 66.40625 31.78125 66.40625 
z
M 31.78125 74.21875 
Q 44.046875 74.21875 50.515625 64.515625 
Q 56.984375 54.828125 56.984375 36.375 
Q 56.984375 17.96875 50.515625 8.265625 
Q 44.046875 -1.421875 31.78125 -1.421875 
Q 19.53125 -1.421875 13.0625 8.265625 
Q 6.59375 17.96875 6.59375 36.375 
Q 6.59375 54.828125 13.0625 64.515625 
Q 19.53125 74.21875 31.78125 74.21875 
z
" id="DejaVuSans-48"/>
       </defs>
       <use xlink:href="#DejaVuSans-48"/>
      </g>
     </g>
    </g>
    <g id="xtick_2">
     <g id="line2d_2">
      <g>
       <use style="stroke:#000000;stroke-width:0.8;" x="109.128125" xlink:href="#m8792b90c0a" y="185.398125"/>
      </g>
     </g>
     <g id="text_2">
      <!-- 50 -->
      <g transform="translate(102.765625 199.996562)scale(0.1 -0.1)">
       <defs>
        <path d="M 10.796875 72.90625 
L 49.515625 72.90625 
L 49.515625 64.59375 
L 19.828125 64.59375 
L 19.828125 46.734375 
Q 21.96875 47.46875 24.109375 47.828125 
Q 26.265625 48.1875 28.421875 48.1875 
Q 40.625 48.1875 47.75 41.5 
Q 54.890625 34.8125 54.890625 23.390625 
Q 54.890625 11.625 47.5625 5.09375 
Q 40.234375 -1.421875 26.90625 -1.421875 
Q 22.3125 -1.421875 17.546875 -0.640625 
Q 12.796875 0.140625 7.71875 1.703125 
L 7.71875 11.625 
Q 12.109375 9.234375 16.796875 8.0625 
Q 21.484375 6.890625 26.703125 6.890625 
Q 35.15625 6.890625 40.078125 11.328125 
Q 45.015625 15.765625 45.015625 23.390625 
Q 45.015625 31 40.078125 35.4375 
Q 35.15625 39.890625 26.703125 39.890625 
Q 22.75 39.890625 18.8125 39.015625 
Q 14.890625 38.140625 10.796875 36.28125 
z
" id="DejaVuSans-53"/>
       </defs>
       <use xlink:href="#DejaVuSans-53"/>
       <use x="63.623047" xlink:href="#DejaVuSans-48"/>
      </g>
     </g>
    </g>
    <g id="xtick_3">
     <g id="line2d_3">
      <g>
       <use style="stroke:#000000;stroke-width:0.8;" x="164.928125" xlink:href="#m8792b90c0a" y="185.398125"/>
      </g>
     </g>
     <g id="text_3">
      <!-- 100 -->
      <g transform="translate(155.384375 199.996562)scale(0.1 -0.1)">
       <defs>
        <path d="M 12.40625 8.296875 
L 28.515625 8.296875 
L 28.515625 63.921875 
L 10.984375 60.40625 
L 10.984375 69.390625 
L 28.421875 72.90625 
L 38.28125 72.90625 
L 38.28125 8.296875 
L 54.390625 8.296875 
L 54.390625 0 
L 12.40625 0 
z
" id="DejaVuSans-49"/>
       </defs>
       <use xlink:href="#DejaVuSans-49"/>
       <use x="63.623047" xlink:href="#DejaVuSans-48"/>
       <use x="127.246094" xlink:href="#DejaVuSans-48"/>
      </g>
     </g>
    </g>
    <g id="xtick_4">
     <g id="line2d_4">
      <g>
       <use style="stroke:#000000;stroke-width:0.8;" x="220.728125" xlink:href="#m8792b90c0a" y="185.398125"/>
      </g>
     </g>
     <g id="text_4">
      <!-- 150 -->
      <g transform="translate(211.184375 199.996562)scale(0.1 -0.1)">
       <use xlink:href="#DejaVuSans-49"/>
       <use x="63.623047" xlink:href="#DejaVuSans-53"/>
       <use x="127.246094" xlink:href="#DejaVuSans-48"/>
      </g>
     </g>
    </g>
    <g id="xtick_5">
     <g id="line2d_5">
      <g>
       <use style="stroke:#000000;stroke-width:0.8;" x="276.528125" xlink:href="#m8792b90c0a" y="185.398125"/>
      </g>
     </g>
     <g id="text_5">
      <!-- 200 -->
      <g transform="translate(266.984375 199.996562)scale(0.1 -0.1)">
       <defs>
        <path d="M 19.1875 8.296875 
L 53.609375 8.296875 
L 53.609375 0 
L 7.328125 0 
L 7.328125 8.296875 
Q 12.9375 14.109375 22.625 23.890625 
Q 32.328125 33.6875 34.8125 36.53125 
Q 39.546875 41.84375 41.421875 45.53125 
Q 43.3125 49.21875 43.3125 52.78125 
Q 43.3125 58.59375 39.234375 62.25 
Q 35.15625 65.921875 28.609375 65.921875 
Q 23.96875 65.921875 18.8125 64.3125 
Q 13.671875 62.703125 7.8125 59.421875 
L 7.8125 69.390625 
Q 13.765625 71.78125 18.9375 73 
Q 24.125 74.21875 28.421875 74.21875 
Q 39.75 74.21875 46.484375 68.546875 
Q 53.21875 62.890625 53.21875 53.421875 
Q 53.21875 48.921875 51.53125 44.890625 
Q 49.859375 40.875 45.40625 35.40625 
Q 44.1875 33.984375 37.640625 27.21875 
Q 31.109375 20.453125 19.1875 8.296875 
z
" id="DejaVuSans-50"/>
       </defs>
       <use xlink:href="#DejaVuSans-50"/>
       <use x="63.623047" xlink:href="#DejaVuSans-48"/>
       <use x="127.246094" xlink:href="#DejaVuSans-48"/>
      </g>
     </g>
    </g>
    <g id="xtick_6">
     <g id="line2d_6">
      <g>
       <use style="stroke:#000000;stroke-width:0.8;" x="332.328125" xlink:href="#m8792b90c0a" y="185.398125"/>
      </g>
     </g>
     <g id="text_6">
      <!-- 250 -->
      <g transform="translate(322.784375 199.996562)scale(0.1 -0.1)">
       <use xlink:href="#DejaVuSans-50"/>
       <use x="63.623047" xlink:href="#DejaVuSans-53"/>
       <use x="127.246094" xlink:href="#DejaVuSans-48"/>
      </g>
     </g>
    </g>
    <g id="xtick_7">
     <g id="line2d_7">
      <g>
       <use style="stroke:#000000;stroke-width:0.8;" x="388.128125" xlink:href="#m8792b90c0a" y="185.398125"/>
      </g>
     </g>
     <g id="text_7">
      <!-- 300 -->
      <g transform="translate(378.584375 199.996562)scale(0.1 -0.1)">
       <defs>
        <path d="M 40.578125 39.3125 
Q 47.65625 37.796875 51.625 33 
Q 55.609375 28.21875 55.609375 21.1875 
Q 55.609375 10.40625 48.1875 4.484375 
Q 40.765625 -1.421875 27.09375 -1.421875 
Q 22.515625 -1.421875 17.65625 -0.515625 
Q 12.796875 0.390625 7.625 2.203125 
L 7.625 11.71875 
Q 11.71875 9.328125 16.59375 8.109375 
Q 21.484375 6.890625 26.8125 6.890625 
Q 36.078125 6.890625 40.9375 10.546875 
Q 45.796875 14.203125 45.796875 21.1875 
Q 45.796875 27.640625 41.28125 31.265625 
Q 36.765625 34.90625 28.71875 34.90625 
L 20.21875 34.90625 
L 20.21875 43.015625 
L 29.109375 43.015625 
Q 36.375 43.015625 40.234375 45.921875 
Q 44.09375 48.828125 44.09375 54.296875 
Q 44.09375 59.90625 40.109375 62.90625 
Q 36.140625 65.921875 28.71875 65.921875 
Q 24.65625 65.921875 20.015625 65.03125 
Q 15.375 64.15625 9.8125 62.3125 
L 9.8125 71.09375 
Q 15.4375 72.65625 20.34375 73.4375 
Q 25.25 74.21875 29.59375 74.21875 
Q 40.828125 74.21875 47.359375 69.109375 
Q 53.90625 64.015625 53.90625 55.328125 
Q 53.90625 49.265625 50.4375 45.09375 
Q 46.96875 40.921875 40.578125 39.3125 
z
" id="DejaVuSans-51"/>
       </defs>
       <use xlink:href="#DejaVuSans-51"/>
       <use x="63.623047" xlink:href="#DejaVuSans-48"/>
       <use x="127.246094" xlink:href="#DejaVuSans-48"/>
      </g>
     </g>
    </g>
    <g id="xtick_8">
     <g id="line2d_8">
      <g>
       <use style="stroke:#000000;stroke-width:0.8;" x="443.928125" xlink:href="#m8792b90c0a" y="185.398125"/>
      </g>
     </g>
     <g id="text_8">
      <!-- 350 -->
      <g transform="translate(434.384375 199.996562)scale(0.1 -0.1)">
       <use xlink:href="#DejaVuSans-51"/>
       <use x="63.623047" xlink:href="#DejaVuSans-53"/>
       <use x="127.246094" xlink:href="#DejaVuSans-48"/>
      </g>
     </g>
    </g>
    <g id="xtick_9">
     <g id="line2d_9">
      <g>
       <use style="stroke:#000000;stroke-width:0.8;" x="499.728125" xlink:href="#m8792b90c0a" y="185.398125"/>
      </g>
     </g>
     <g id="text_9">
      <!-- 400 -->
      <g transform="translate(490.184375 199.996562)scale(0.1 -0.1)">
       <defs>
        <path d="M 37.796875 64.3125 
L 12.890625 25.390625 
L 37.796875 25.390625 
z
M 35.203125 72.90625 
L 47.609375 72.90625 
L 47.609375 25.390625 
L 58.015625 25.390625 
L 58.015625 17.1875 
L 47.609375 17.1875 
L 47.609375 0 
L 37.796875 0 
L 37.796875 17.1875 
L 4.890625 17.1875 
L 4.890625 26.703125 
z
" id="DejaVuSans-52"/>
       </defs>
       <use xlink:href="#DejaVuSans-52"/>
       <use x="63.623047" xlink:href="#DejaVuSans-48"/>
       <use x="127.246094" xlink:href="#DejaVuSans-48"/>
      </g>
     </g>
    </g>
    <g id="text_10">
     <!-- Frequency Index -->
     <g transform="translate(235.342969 213.674688)scale(0.1 -0.1)">
      <defs>
       <path d="M 9.8125 72.90625 
L 51.703125 72.90625 
L 51.703125 64.59375 
L 19.671875 64.59375 
L 19.671875 43.109375 
L 48.578125 43.109375 
L 48.578125 34.8125 
L 19.671875 34.8125 
L 19.671875 0 
L 9.8125 0 
z
" id="DejaVuSans-70"/>
       <path d="M 41.109375 46.296875 
Q 39.59375 47.171875 37.8125 47.578125 
Q 36.03125 48 33.890625 48 
Q 26.265625 48 22.1875 43.046875 
Q 18.109375 38.09375 18.109375 28.8125 
L 18.109375 0 
L 9.078125 0 
L 9.078125 54.6875 
L 18.109375 54.6875 
L 18.109375 46.1875 
Q 20.953125 51.171875 25.484375 53.578125 
Q 30.03125 56 36.53125 56 
Q 37.453125 56 38.578125 55.875 
Q 39.703125 55.765625 41.0625 55.515625 
z
" id="DejaVuSans-114"/>
       <path d="M 56.203125 29.59375 
L 56.203125 25.203125 
L 14.890625 25.203125 
Q 15.484375 15.921875 20.484375 11.0625 
Q 25.484375 6.203125 34.421875 6.203125 
Q 39.59375 6.203125 44.453125 7.46875 
Q 49.3125 8.734375 54.109375 11.28125 
L 54.109375 2.78125 
Q 49.265625 0.734375 44.1875 -0.34375 
Q 39.109375 -1.421875 33.890625 -1.421875 
Q 20.796875 -1.421875 13.15625 6.1875 
Q 5.515625 13.8125 5.515625 26.8125 
Q 5.515625 40.234375 12.765625 48.109375 
Q 20.015625 56 32.328125 56 
Q 43.359375 56 49.78125 48.890625 
Q 56.203125 41.796875 56.203125 29.59375 
z
M 47.21875 32.234375 
Q 47.125 39.59375 43.09375 43.984375 
Q 39.0625 48.390625 32.421875 48.390625 
Q 24.90625 48.390625 20.390625 44.140625 
Q 15.875 39.890625 15.1875 32.171875 
z
" id="DejaVuSans-101"/>
       <path d="M 14.796875 27.296875 
Q 14.796875 17.390625 18.875 11.75 
Q 22.953125 6.109375 30.078125 6.109375 
Q 37.203125 6.109375 41.296875 11.75 
Q 45.40625 17.390625 45.40625 27.296875 
Q 45.40625 37.203125 41.296875 42.84375 
Q 37.203125 48.484375 30.078125 48.484375 
Q 22.953125 48.484375 18.875 42.84375 
Q 14.796875 37.203125 14.796875 27.296875 
z
M 45.40625 8.203125 
Q 42.578125 3.328125 38.25 0.953125 
Q 33.9375 -1.421875 27.875 -1.421875 
Q 17.96875 -1.421875 11.734375 6.484375 
Q 5.515625 14.40625 5.515625 27.296875 
Q 5.515625 40.1875 11.734375 48.09375 
Q 17.96875 56 27.875 56 
Q 33.9375 56 38.25 53.625 
Q 42.578125 51.265625 45.40625 46.390625 
L 45.40625 54.6875 
L 54.390625 54.6875 
L 54.390625 -20.796875 
L 45.40625 -20.796875 
z
" id="DejaVuSans-113"/>
       <path d="M 8.5 21.578125 
L 8.5 54.6875 
L 17.484375 54.6875 
L 17.484375 21.921875 
Q 17.484375 14.15625 20.5 10.265625 
Q 23.53125 6.390625 29.59375 6.390625 
Q 36.859375 6.390625 41.078125 11.03125 
Q 45.3125 15.671875 45.3125 23.6875 
L 45.3125 54.6875 
L 54.296875 54.6875 
L 54.296875 0 
L 45.3125 0 
L 45.3125 8.40625 
Q 42.046875 3.421875 37.71875 1 
Q 33.40625 -1.421875 27.6875 -1.421875 
Q 18.265625 -1.421875 13.375 4.4375 
Q 8.5 10.296875 8.5 21.578125 
z
M 31.109375 56 
z
" id="DejaVuSans-117"/>
       <path d="M 54.890625 33.015625 
L 54.890625 0 
L 45.90625 0 
L 45.90625 32.71875 
Q 45.90625 40.484375 42.875 44.328125 
Q 39.84375 48.1875 33.796875 48.1875 
Q 26.515625 48.1875 22.3125 43.546875 
Q 18.109375 38.921875 18.109375 30.90625 
L 18.109375 0 
L 9.078125 0 
L 9.078125 54.6875 
L 18.109375 54.6875 
L 18.109375 46.1875 
Q 21.34375 51.125 25.703125 53.5625 
Q 30.078125 56 35.796875 56 
Q 45.21875 56 50.046875 50.171875 
Q 54.890625 44.34375 54.890625 33.015625 
z
" id="DejaVuSans-110"/>
       <path d="M 48.78125 52.59375 
L 48.78125 44.1875 
Q 44.96875 46.296875 41.140625 47.34375 
Q 37.3125 48.390625 33.40625 48.390625 
Q 24.65625 48.390625 19.8125 42.84375 
Q 14.984375 37.3125 14.984375 27.296875 
Q 14.984375 17.28125 19.8125 11.734375 
Q 24.65625 6.203125 33.40625 6.203125 
Q 37.3125 6.203125 41.140625 7.25 
Q 44.96875 8.296875 48.78125 10.40625 
L 48.78125 2.09375 
Q 45.015625 0.34375 40.984375 -0.53125 
Q 36.96875 -1.421875 32.421875 -1.421875 
Q 20.0625 -1.421875 12.78125 6.34375 
Q 5.515625 14.109375 5.515625 27.296875 
Q 5.515625 40.671875 12.859375 48.328125 
Q 20.21875 56 33.015625 56 
Q 37.15625 56 41.109375 55.140625 
Q 45.0625 54.296875 48.78125 52.59375 
z
" id="DejaVuSans-99"/>
       <path d="M 32.171875 -5.078125 
Q 28.375 -14.84375 24.75 -17.8125 
Q 21.140625 -20.796875 15.09375 -20.796875 
L 7.90625 -20.796875 
L 7.90625 -13.28125 
L 13.1875 -13.28125 
Q 16.890625 -13.28125 18.9375 -11.515625 
Q 21 -9.765625 23.484375 -3.21875 
L 25.09375 0.875 
L 2.984375 54.6875 
L 12.5 54.6875 
L 29.59375 11.921875 
L 46.6875 54.6875 
L 56.203125 54.6875 
z
" id="DejaVuSans-121"/>
       <path id="DejaVuSans-32"/>
       <path d="M 9.8125 72.90625 
L 19.671875 72.90625 
L 19.671875 0 
L 9.8125 0 
z
" id="DejaVuSans-73"/>
       <path d="M 45.40625 46.390625 
L 45.40625 75.984375 
L 54.390625 75.984375 
L 54.390625 0 
L 45.40625 0 
L 45.40625 8.203125 
Q 42.578125 3.328125 38.25 0.953125 
Q 33.9375 -1.421875 27.875 -1.421875 
Q 17.96875 -1.421875 11.734375 6.484375 
Q 5.515625 14.40625 5.515625 27.296875 
Q 5.515625 40.1875 11.734375 48.09375 
Q 17.96875 56 27.875 56 
Q 33.9375 56 38.25 53.625 
Q 42.578125 51.265625 45.40625 46.390625 
z
M 14.796875 27.296875 
Q 14.796875 17.390625 18.875 11.75 
Q 22.953125 6.109375 30.078125 6.109375 
Q 37.203125 6.109375 41.296875 11.75 
Q 45.40625 17.390625 45.40625 27.296875 
Q 45.40625 37.203125 41.296875 42.84375 
Q 37.203125 48.484375 30.078125 48.484375 
Q 22.953125 48.484375 18.875 42.84375 
Q 14.796875 37.203125 14.796875 27.296875 
z
" id="DejaVuSans-100"/>
       <path d="M 54.890625 54.6875 
L 35.109375 28.078125 
L 55.90625 0 
L 45.3125 0 
L 29.390625 21.484375 
L 13.484375 0 
L 2.875 0 
L 24.125 28.609375 
L 4.6875 54.6875 
L 15.28125 54.6875 
L 29.78125 35.203125 
L 44.28125 54.6875 
z
" id="DejaVuSans-120"/>
      </defs>
      <use xlink:href="#DejaVuSans-70"/>
      <use x="50.269531" xlink:href="#DejaVuSans-114"/>
      <use x="89.132812" xlink:href="#DejaVuSans-101"/>
      <use x="150.65625" xlink:href="#DejaVuSans-113"/>
      <use x="214.132812" xlink:href="#DejaVuSans-117"/>
      <use x="277.511719" xlink:href="#DejaVuSans-101"/>
      <use x="339.035156" xlink:href="#DejaVuSans-110"/>
      <use x="402.414062" xlink:href="#DejaVuSans-99"/>
      <use x="457.394531" xlink:href="#DejaVuSans-121"/>
      <use x="516.574219" xlink:href="#DejaVuSans-32"/>
      <use x="548.361328" xlink:href="#DejaVuSans-73"/>
      <use x="577.853516" xlink:href="#DejaVuSans-110"/>
      <use x="641.232422" xlink:href="#DejaVuSans-100"/>
      <use x="704.708984" xlink:href="#DejaVuSans-101"/>
      <use x="764.482422" xlink:href="#DejaVuSans-120"/>
     </g>
    </g>
   </g>
   <g id="matplotlib.axis_2">
    <g id="ytick_1">
     <g id="line2d_10">
      <defs>
       <path d="M 0 0 
L -3.5 0 
" id="m48054f22b8" style="stroke:#000000;stroke-width:0.8;"/>
      </defs>
      <g>
       <use style="stroke:#000000;stroke-width:0.8;" x="53.328125" xlink:href="#m48054f22b8" y="185.398125"/>
      </g>
     </g>
     <g id="text_11">
      <!-- 0 -->
      <g transform="translate(39.965625 189.197344)scale(0.1 -0.1)">
       <use xlink:href="#DejaVuSans-48"/>
      </g>
     </g>
    </g>
    <g id="ytick_2">
     <g id="line2d_11">
      <g>
       <use style="stroke:#000000;stroke-width:0.8;" x="53.328125" xlink:href="#m48054f22b8" y="147.240864"/>
      </g>
     </g>
     <g id="text_12">
      <!-- 2000 -->
      <g transform="translate(20.878125 151.040083)scale(0.1 -0.1)">
       <use xlink:href="#DejaVuSans-50"/>
       <use x="63.623047" xlink:href="#DejaVuSans-48"/>
       <use x="127.246094" xlink:href="#DejaVuSans-48"/>
       <use x="190.869141" xlink:href="#DejaVuSans-48"/>
      </g>
     </g>
    </g>
    <g id="ytick_3">
     <g id="line2d_12">
      <g>
       <use style="stroke:#000000;stroke-width:0.8;" x="53.328125" xlink:href="#m48054f22b8" y="109.083603"/>
      </g>
     </g>
     <g id="text_13">
      <!-- 4000 -->
      <g transform="translate(20.878125 112.882822)scale(0.1 -0.1)">
       <use xlink:href="#DejaVuSans-52"/>
       <use x="63.623047" xlink:href="#DejaVuSans-48"/>
       <use x="127.246094" xlink:href="#DejaVuSans-48"/>
       <use x="190.869141" xlink:href="#DejaVuSans-48"/>
      </g>
     </g>
    </g>
    <g id="ytick_4">
     <g id="line2d_13">
      <g>
       <use style="stroke:#000000;stroke-width:0.8;" x="53.328125" xlink:href="#m48054f22b8" y="70.926342"/>
      </g>
     </g>
     <g id="text_14">
      <!-- 6000 -->
      <g transform="translate(20.878125 74.725561)scale(0.1 -0.1)">
       <defs>
        <path d="M 33.015625 40.375 
Q 26.375 40.375 22.484375 35.828125 
Q 18.609375 31.296875 18.609375 23.390625 
Q 18.609375 15.53125 22.484375 10.953125 
Q 26.375 6.390625 33.015625 6.390625 
Q 39.65625 6.390625 43.53125 10.953125 
Q 47.40625 15.53125 47.40625 23.390625 
Q 47.40625 31.296875 43.53125 35.828125 
Q 39.65625 40.375 33.015625 40.375 
z
M 52.59375 71.296875 
L 52.59375 62.3125 
Q 48.875 64.0625 45.09375 64.984375 
Q 41.3125 65.921875 37.59375 65.921875 
Q 27.828125 65.921875 22.671875 59.328125 
Q 17.53125 52.734375 16.796875 39.40625 
Q 19.671875 43.65625 24.015625 45.921875 
Q 28.375 48.1875 33.59375 48.1875 
Q 44.578125 48.1875 50.953125 41.515625 
Q 57.328125 34.859375 57.328125 23.390625 
Q 57.328125 12.15625 50.6875 5.359375 
Q 44.046875 -1.421875 33.015625 -1.421875 
Q 20.359375 -1.421875 13.671875 8.265625 
Q 6.984375 17.96875 6.984375 36.375 
Q 6.984375 53.65625 15.1875 63.9375 
Q 23.390625 74.21875 37.203125 74.21875 
Q 40.921875 74.21875 44.703125 73.484375 
Q 48.484375 72.75 52.59375 71.296875 
z
" id="DejaVuSans-54"/>
       </defs>
       <use xlink:href="#DejaVuSans-54"/>
       <use x="63.623047" xlink:href="#DejaVuSans-48"/>
       <use x="127.246094" xlink:href="#DejaVuSans-48"/>
       <use x="190.869141" xlink:href="#DejaVuSans-48"/>
      </g>
     </g>
    </g>
    <g id="ytick_5">
     <g id="line2d_14">
      <g>
       <use style="stroke:#000000;stroke-width:0.8;" x="53.328125" xlink:href="#m48054f22b8" y="32.769081"/>
      </g>
     </g>
     <g id="text_15">
      <!-- 8000 -->
      <g transform="translate(20.878125 36.5683)scale(0.1 -0.1)">
       <defs>
        <path d="M 31.78125 34.625 
Q 24.75 34.625 20.71875 30.859375 
Q 16.703125 27.09375 16.703125 20.515625 
Q 16.703125 13.921875 20.71875 10.15625 
Q 24.75 6.390625 31.78125 6.390625 
Q 38.8125 6.390625 42.859375 10.171875 
Q 46.921875 13.96875 46.921875 20.515625 
Q 46.921875 27.09375 42.890625 30.859375 
Q 38.875 34.625 31.78125 34.625 
z
M 21.921875 38.8125 
Q 15.578125 40.375 12.03125 44.71875 
Q 8.5 49.078125 8.5 55.328125 
Q 8.5 64.0625 14.71875 69.140625 
Q 20.953125 74.21875 31.78125 74.21875 
Q 42.671875 74.21875 48.875 69.140625 
Q 55.078125 64.0625 55.078125 55.328125 
Q 55.078125 49.078125 51.53125 44.71875 
Q 48 40.375 41.703125 38.8125 
Q 48.828125 37.15625 52.796875 32.3125 
Q 56.78125 27.484375 56.78125 20.515625 
Q 56.78125 9.90625 50.3125 4.234375 
Q 43.84375 -1.421875 31.78125 -1.421875 
Q 19.734375 -1.421875 13.25 4.234375 
Q 6.78125 9.90625 6.78125 20.515625 
Q 6.78125 27.484375 10.78125 32.3125 
Q 14.796875 37.15625 21.921875 38.8125 
z
M 18.3125 54.390625 
Q 18.3125 48.734375 21.84375 45.5625 
Q 25.390625 42.390625 31.78125 42.390625 
Q 38.140625 42.390625 41.71875 45.5625 
Q 45.3125 48.734375 45.3125 54.390625 
Q 45.3125 60.0625 41.71875 63.234375 
Q 38.140625 66.40625 31.78125 66.40625 
Q 25.390625 66.40625 21.84375 63.234375 
Q 18.3125 60.0625 18.3125 54.390625 
z
" id="DejaVuSans-56"/>
       </defs>
       <use xlink:href="#DejaVuSans-56"/>
       <use x="63.623047" xlink:href="#DejaVuSans-48"/>
       <use x="127.246094" xlink:href="#DejaVuSans-48"/>
       <use x="190.869141" xlink:href="#DejaVuSans-48"/>
      </g>
     </g>
    </g>
    <g id="text_16">
     <!-- Magitude -->
     <g transform="translate(14.798438 127.179219)rotate(-90)scale(0.1 -0.1)">
      <defs>
       <path d="M 9.8125 72.90625 
L 24.515625 72.90625 
L 43.109375 23.296875 
L 61.8125 72.90625 
L 76.515625 72.90625 
L 76.515625 0 
L 66.890625 0 
L 66.890625 64.015625 
L 48.09375 14.015625 
L 38.1875 14.015625 
L 19.390625 64.015625 
L 19.390625 0 
L 9.8125 0 
z
" id="DejaVuSans-77"/>
       <path d="M 34.28125 27.484375 
Q 23.390625 27.484375 19.1875 25 
Q 14.984375 22.515625 14.984375 16.5 
Q 14.984375 11.71875 18.140625 8.90625 
Q 21.296875 6.109375 26.703125 6.109375 
Q 34.1875 6.109375 38.703125 11.40625 
Q 43.21875 16.703125 43.21875 25.484375 
L 43.21875 27.484375 
z
M 52.203125 31.203125 
L 52.203125 0 
L 43.21875 0 
L 43.21875 8.296875 
Q 40.140625 3.328125 35.546875 0.953125 
Q 30.953125 -1.421875 24.3125 -1.421875 
Q 15.921875 -1.421875 10.953125 3.296875 
Q 6 8.015625 6 15.921875 
Q 6 25.140625 12.171875 29.828125 
Q 18.359375 34.515625 30.609375 34.515625 
L 43.21875 34.515625 
L 43.21875 35.40625 
Q 43.21875 41.609375 39.140625 45 
Q 35.0625 48.390625 27.6875 48.390625 
Q 23 48.390625 18.546875 47.265625 
Q 14.109375 46.140625 10.015625 43.890625 
L 10.015625 52.203125 
Q 14.9375 54.109375 19.578125 55.046875 
Q 24.21875 56 28.609375 56 
Q 40.484375 56 46.34375 49.84375 
Q 52.203125 43.703125 52.203125 31.203125 
z
" id="DejaVuSans-97"/>
       <path d="M 45.40625 27.984375 
Q 45.40625 37.75 41.375 43.109375 
Q 37.359375 48.484375 30.078125 48.484375 
Q 22.859375 48.484375 18.828125 43.109375 
Q 14.796875 37.75 14.796875 27.984375 
Q 14.796875 18.265625 18.828125 12.890625 
Q 22.859375 7.515625 30.078125 7.515625 
Q 37.359375 7.515625 41.375 12.890625 
Q 45.40625 18.265625 45.40625 27.984375 
z
M 54.390625 6.78125 
Q 54.390625 -7.171875 48.1875 -13.984375 
Q 42 -20.796875 29.203125 -20.796875 
Q 24.46875 -20.796875 20.265625 -20.09375 
Q 16.0625 -19.390625 12.109375 -17.921875 
L 12.109375 -9.1875 
Q 16.0625 -11.328125 19.921875 -12.34375 
Q 23.78125 -13.375 27.78125 -13.375 
Q 36.625 -13.375 41.015625 -8.765625 
Q 45.40625 -4.15625 45.40625 5.171875 
L 45.40625 9.625 
Q 42.625 4.78125 38.28125 2.390625 
Q 33.9375 0 27.875 0 
Q 17.828125 0 11.671875 7.65625 
Q 5.515625 15.328125 5.515625 27.984375 
Q 5.515625 40.671875 11.671875 48.328125 
Q 17.828125 56 27.875 56 
Q 33.9375 56 38.28125 53.609375 
Q 42.625 51.21875 45.40625 46.390625 
L 45.40625 54.6875 
L 54.390625 54.6875 
z
" id="DejaVuSans-103"/>
       <path d="M 9.421875 54.6875 
L 18.40625 54.6875 
L 18.40625 0 
L 9.421875 0 
z
M 9.421875 75.984375 
L 18.40625 75.984375 
L 18.40625 64.59375 
L 9.421875 64.59375 
z
" id="DejaVuSans-105"/>
       <path d="M 18.3125 70.21875 
L 18.3125 54.6875 
L 36.8125 54.6875 
L 36.8125 47.703125 
L 18.3125 47.703125 
L 18.3125 18.015625 
Q 18.3125 11.328125 20.140625 9.421875 
Q 21.96875 7.515625 27.59375 7.515625 
L 36.8125 7.515625 
L 36.8125 0 
L 27.59375 0 
Q 17.1875 0 13.234375 3.875 
Q 9.28125 7.765625 9.28125 18.015625 
L 9.28125 47.703125 
L 2.6875 47.703125 
L 2.6875 54.6875 
L 9.28125 54.6875 
L 9.28125 70.21875 
z
" id="DejaVuSans-116"/>
      </defs>
      <use xlink:href="#DejaVuSans-77"/>
      <use x="86.279297" xlink:href="#DejaVuSans-97"/>
      <use x="147.558594" xlink:href="#DejaVuSans-103"/>
      <use x="211.035156" xlink:href="#DejaVuSans-105"/>
      <use x="238.818359" xlink:href="#DejaVuSans-116"/>
      <use x="278.027344" xlink:href="#DejaVuSans-117"/>
      <use x="341.40625" xlink:href="#DejaVuSans-100"/>
      <use x="404.882812" xlink:href="#DejaVuSans-101"/>
     </g>
    </g>
   </g>
   <g id="line2d_15">
    <path clip-path="url(#p5c69f01d5f)" d="M 53.328125 185.398125 
L 54.444125 112.142003 
L 55.560125 152.992931 
L 56.676125 159.679506 
L 57.792125 175.357367 
L 58.908125 137.76172 
L 60.024125 175.195514 
L 61.140125 169.027761 
L 62.256125 173.85713 
L 63.372125 168.194972 
L 64.488125 167.301449 
L 65.604125 170.134945 
L 66.720125 167.2922 
L 67.836125 179.899304 
L 68.952125 159.401337 
L 70.068125 149.87993 
L 71.184125 143.680824 
L 72.300125 180.039945 
L 73.416125 172.917371 
L 74.532125 172.425936 
L 75.648125 184.101688 
L 76.764125 53.731164 
L 77.880125 158.8329 
L 78.996125 174.816198 
L 80.112125 179.053946 
L 81.228125 179.862645 
L 82.344125 184.846678 
L 83.460125 161.170173 
L 84.576125 181.482509 
L 85.692125 173.439442 
L 86.808125 178.163694 
L 87.924125 170.017999 
L 89.040125 165.530502 
L 90.156125 164.988444 
L 91.272125 178.573102 
L 92.388125 163.638997 
L 93.504125 159.620084 
L 94.620125 164.233568 
L 95.736125 182.659307 
L 96.852125 163.447412 
L 97.968125 162.070645 
L 99.084125 169.972043 
L 100.200125 73.577342 
L 101.316125 181.119318 
L 102.432125 157.492086 
L 103.548125 166.5739 
L 104.664125 173.36358 
L 105.780125 169.375213 
L 106.896125 163.011703 
L 108.012125 167.256668 
L 109.128125 161.697252 
L 110.244125 176.595624 
L 111.360125 176.335408 
L 112.476125 164.415929 
L 113.592125 159.159601 
L 114.708125 175.727101 
L 115.824125 160.854658 
L 116.940125 156.94323 
L 118.056125 170.938215 
L 119.172125 169.000571 
L 120.288125 161.983879 
L 121.404125 168.671816 
L 122.520125 157.682465 
L 123.636125 37.14358 
L 124.752125 152.41565 
L 125.868125 149.830295 
L 126.984125 157.795515 
L 128.100125 168.236775 
L 129.216125 163.570712 
L 130.332125 169.648444 
L 131.448125 162.732366 
L 132.564125 154.528532 
L 133.680125 162.256802 
L 134.796125 171.311463 
L 135.912125 171.21827 
L 137.028125 181.814001 
L 138.144125 157.235308 
L 139.260125 177.7697 
L 140.376125 152.336647 
L 141.492125 176.35519 
L 142.608125 151.597375 
L 143.724125 165.815394 
L 144.840125 176.368262 
L 145.956125 175.051372 
L 147.072125 155.557963 
L 148.188125 170.673377 
L 149.304125 181.679161 
L 150.420125 180.160156 
L 151.536125 182.202621 
L 152.652125 166.21896 
L 153.768125 164.503736 
L 154.884125 174.242327 
L 156.000125 161.77314 
L 157.116125 153.375044 
L 158.232125 183.069111 
L 159.348125 176.839926 
L 160.464125 179.799197 
L 161.580125 177.300919 
L 162.696125 182.474313 
L 163.812125 164.275786 
L 164.928125 156.703953 
L 166.044125 162.713762 
L 167.160125 177.869144 
L 168.276125 166.801623 
L 169.392125 158.084993 
L 170.508125 145.46794 
L 171.624125 168.829332 
L 172.740125 178.235333 
L 173.856125 176.429989 
L 174.972125 168.834939 
L 176.088125 176.369659 
L 177.204125 167.675152 
L 178.320125 176.090707 
L 179.436125 163.24107 
L 180.552125 169.371999 
L 181.668125 166.189653 
L 182.784125 157.948359 
L 183.900125 164.452779 
L 185.016125 177.560561 
L 186.132125 174.95207 
L 187.248125 140.429758 
L 188.364125 179.198854 
L 189.480125 160.208735 
L 190.596125 129.749025 
L 191.712125 153.282266 
L 192.828125 108.786837 
L 193.944125 115.85527 
L 195.060125 144.664106 
L 196.176125 181.686763 
L 197.292125 130.058094 
L 198.408125 167.995503 
L 199.524125 176.964863 
L 200.640125 148.601299 
L 201.756125 163.737689 
L 202.872125 180.451279 
L 203.988125 166.042183 
L 205.104125 157.894212 
L 206.220125 164.023871 
L 207.336125 161.801383 
L 208.452125 169.995006 
L 209.568125 171.811818 
L 210.684125 153.647581 
L 211.800125 171.74268 
L 212.916125 164.122355 
L 214.032125 173.96393 
L 215.148125 165.459031 
L 216.264125 169.444451 
L 217.380125 143.958224 
L 218.496125 154.3522 
L 219.612125 160.164483 
L 220.728125 155.877584 
L 221.844125 167.485226 
L 222.960125 173.528014 
L 224.076125 175.387286 
L 225.192125 160.966985 
L 226.308125 158.871816 
L 227.424125 167.252884 
L 228.540125 165.752333 
L 229.656125 176.721931 
L 230.772125 183.982485 
L 231.888125 167.258417 
L 233.004125 166.62904 
L 234.120125 148.536489 
L 235.236125 155.859258 
L 236.352125 150.771779 
L 237.468125 143.334806 
L 238.584125 168.467343 
L 239.700125 141.507707 
L 240.816125 153.194656 
L 241.932125 177.865116 
L 243.048125 156.17548 
L 244.164125 158.000986 
L 245.280125 181.993964 
L 246.396125 176.967592 
L 247.512125 165.994589 
L 248.628125 160.793169 
L 249.744125 153.463351 
L 250.860125 165.463858 
L 251.976125 150.960829 
L 253.092125 174.591479 
L 254.208125 171.837744 
L 255.324125 158.363334 
L 256.440125 175.671039 
L 257.556125 104.067571 
L 258.672125 160.799125 
L 259.788125 146.823554 
L 260.904125 103.46725 
L 262.020125 111.476099 
L 263.136125 85.639819 
L 264.252125 106.311561 
L 265.368125 89.516534 
L 266.484125 134.009407 
L 267.600125 100.570416 
L 268.716125 175.214083 
L 269.832125 138.262839 
L 270.948125 158.9705 
L 272.064125 159.464758 
L 273.180125 141.012927 
L 274.296125 170.451058 
L 275.412125 136.940874 
L 276.528125 154.164907 
L 277.644125 161.100034 
L 278.760125 148.228342 
L 279.876125 176.201911 
L 280.992125 112.841332 
L 282.108125 157.480623 
L 283.224125 170.830168 
L 284.340125 155.381673 
L 285.456125 149.89389 
L 286.572125 165.019969 
L 287.688125 158.903362 
L 288.804125 152.151451 
L 289.920125 166.465204 
L 291.036125 134.788442 
L 292.152125 181.772855 
L 293.268125 166.677807 
L 294.384125 179.142496 
L 295.500125 183.025816 
L 296.616125 148.78012 
L 297.732125 159.38145 
L 298.848125 160.147364 
L 299.964125 145.644548 
L 301.080125 155.831488 
L 302.196125 150.47898 
L 303.312125 172.98783 
L 304.428125 131.85714 
L 305.544125 160.638233 
L 306.660125 162.569633 
L 307.776125 136.314383 
L 308.892125 154.460247 
L 310.008125 164.515517 
L 311.124125 156.708662 
L 312.240125 143.999378 
L 313.356125 152.845557 
L 314.472125 169.080562 
L 315.588125 177.035734 
L 316.704125 145.843523 
L 317.820125 170.186751 
L 318.936125 169.523808 
L 320.052125 170.452819 
L 321.168125 144.949662 
L 322.284125 176.968932 
L 323.400125 154.893756 
L 324.516125 156.973913 
L 325.632125 180.37007 
L 326.748125 181.631306 
L 327.864125 139.260955 
L 328.980125 178.462305 
L 330.096125 148.844044 
L 331.212125 148.584982 
L 332.328125 151.453606 
L 333.444125 169.116801 
L 334.560125 158.521718 
L 335.676125 90.873543 
L 336.792125 164.456004 
L 337.908125 141.877803 
L 339.024125 168.227464 
L 340.140125 124.63628 
L 341.256125 175.964136 
L 342.372125 172.654195 
L 343.488125 157.878801 
L 344.604125 171.717342 
L 345.720125 154.059719 
L 346.836125 168.627608 
L 347.952125 164.681477 
L 349.068125 163.606617 
L 351.300125 175.362911 
L 352.416125 166.817797 
L 353.532125 145.988846 
L 354.648125 163.728976 
L 355.764125 164.536544 
L 356.880125 182.590866 
L 357.996125 165.060686 
L 359.112125 150.045664 
L 360.228125 180.633378 
L 361.344125 166.537911 
L 362.460125 162.091951 
L 363.576125 165.405358 
L 364.692125 170.305288 
L 365.808125 158.048969 
L 366.924125 173.444115 
L 368.040125 178.369092 
L 369.156125 171.878305 
L 370.272125 161.549786 
L 371.388125 152.63919 
L 372.504125 174.912766 
L 373.620125 160.708521 
L 374.736125 170.465054 
L 375.852125 174.235944 
L 376.968125 159.409835 
L 378.084125 164.449959 
L 379.200125 180.435263 
L 380.316125 152.331197 
L 381.432125 178.631858 
L 382.548125 169.18045 
L 383.664125 179.474318 
L 384.780125 167.54127 
L 385.896125 153.838575 
L 387.012125 174.625109 
L 388.128125 177.125743 
L 389.244125 175.007996 
L 390.360125 163.615902 
L 391.476125 167.445736 
L 392.592125 153.940592 
L 393.708125 152.590272 
L 394.824125 176.79892 
L 395.940125 176.3464 
L 397.056125 171.633341 
L 398.172125 159.671753 
L 399.288125 156.279433 
L 400.404125 148.922876 
L 401.520125 169.167777 
L 402.636125 173.88644 
L 403.752125 172.961404 
L 404.868125 177.227046 
L 405.984125 167.786014 
L 407.100125 164.778083 
L 408.216125 173.328428 
L 409.332125 162.788578 
L 410.448125 162.598228 
L 411.564125 170.742625 
L 412.680125 175.714407 
L 413.796125 172.483897 
L 414.912125 156.638549 
L 416.028125 160.919878 
L 417.144125 172.920439 
L 418.260125 168.272337 
L 419.376125 172.953265 
L 420.492125 162.787981 
L 421.608125 156.656655 
L 422.724125 145.696107 
L 423.840125 169.370188 
L 424.956125 149.189308 
L 426.072125 173.014995 
L 427.188125 157.790587 
L 428.304125 170.679457 
L 429.420125 161.210947 
L 430.536125 153.12557 
L 431.652125 157.101699 
L 432.768125 177.020977 
L 433.884125 150.473545 
L 435.000125 178.429331 
L 436.116125 158.744103 
L 437.232125 168.183629 
L 438.348125 179.806449 
L 439.464125 169.357364 
L 440.580125 160.081905 
L 441.696125 157.170413 
L 442.812125 169.165493 
L 443.928125 182.70305 
L 445.044125 159.446354 
L 446.160125 183.48379 
L 448.392125 174.547619 
L 449.508125 176.16502 
L 450.624125 163.581899 
L 451.740125 179.121368 
L 452.856125 174.777893 
L 455.088125 171.763542 
L 456.204125 164.902224 
L 457.320125 167.503148 
L 458.436125 172.357774 
L 459.552125 178.383431 
L 460.668125 162.933597 
L 461.784125 164.591481 
L 462.900125 153.639858 
L 464.016125 168.699719 
L 465.132125 155.628815 
L 466.248125 172.041382 
L 468.480125 156.819994 
L 469.596125 148.517505 
L 470.712125 142.154639 
L 471.828125 144.434433 
L 472.944125 160.720804 
L 474.060125 150.847194 
L 475.176125 161.160584 
L 476.292125 161.162938 
L 477.408125 151.752756 
L 478.524125 166.029695 
L 479.640125 114.183529 
L 480.756125 140.502349 
L 481.872125 174.899194 
L 482.988125 160.925036 
L 484.104125 140.364045 
L 485.220125 160.629672 
L 486.336125 171.148909 
L 487.452125 177.415957 
L 488.568125 158.859518 
L 489.684125 161.131525 
L 490.800125 158.924895 
L 491.916125 158.072032 
L 493.032125 132.940119 
L 494.148125 162.826428 
L 495.264125 170.314834 
L 496.380125 162.929794 
L 497.496125 147.48279 
L 498.612125 156.058113 
L 499.728125 161.309156 
L 500.844125 181.359249 
L 500.844125 181.359249 
" style="fill:none;stroke:#1f77b4;stroke-linecap:square;stroke-width:1.5;"/>
   </g>
   <g id="patch_3">
    <path d="M 53.328125 185.398125 
L 53.328125 22.318125 
" style="fill:none;stroke:#000000;stroke-linecap:square;stroke-linejoin:miter;stroke-width:0.8;"/>
   </g>
   <g id="patch_4">
    <path d="M 499.728125 185.398125 
L 499.728125 22.318125 
" style="fill:none;stroke:#000000;stroke-linecap:square;stroke-linejoin:miter;stroke-width:0.8;"/>
   </g>
   <g id="patch_5">
    <path d="M 53.328125 185.398125 
L 499.728125 185.398125 
" style="fill:none;stroke:#000000;stroke-linecap:square;stroke-linejoin:miter;stroke-width:0.8;"/>
   </g>
   <g id="patch_6">
    <path d="M 53.328125 22.318125 
L 499.728125 22.318125 
" style="fill:none;stroke:#000000;stroke-linecap:square;stroke-linejoin:miter;stroke-width:0.8;"/>
   </g>
   <g id="text_17">
    <!-- Magnitude Discrete Fourier Transform (Max Index 63) -->
    <g transform="translate(116.43875 16.318125)scale(0.12 -0.12)">
     <defs>
      <path d="M 19.671875 64.796875 
L 19.671875 8.109375 
L 31.59375 8.109375 
Q 46.6875 8.109375 53.6875 14.9375 
Q 60.6875 21.78125 60.6875 36.53125 
Q 60.6875 51.171875 53.6875 57.984375 
Q 46.6875 64.796875 31.59375 64.796875 
z
M 9.8125 72.90625 
L 30.078125 72.90625 
Q 51.265625 72.90625 61.171875 64.09375 
Q 71.09375 55.28125 71.09375 36.53125 
Q 71.09375 17.671875 61.125 8.828125 
Q 51.171875 0 30.078125 0 
L 9.8125 0 
z
" id="DejaVuSans-68"/>
      <path d="M 44.28125 53.078125 
L 44.28125 44.578125 
Q 40.484375 46.53125 36.375 47.5 
Q 32.28125 48.484375 27.875 48.484375 
Q 21.1875 48.484375 17.84375 46.4375 
Q 14.5 44.390625 14.5 40.28125 
Q 14.5 37.15625 16.890625 35.375 
Q 19.28125 33.59375 26.515625 31.984375 
L 29.59375 31.296875 
Q 39.15625 29.25 43.1875 25.515625 
Q 47.21875 21.78125 47.21875 15.09375 
Q 47.21875 7.46875 41.1875 3.015625 
Q 35.15625 -1.421875 24.609375 -1.421875 
Q 20.21875 -1.421875 15.453125 -0.5625 
Q 10.6875 0.296875 5.421875 2 
L 5.421875 11.28125 
Q 10.40625 8.6875 15.234375 7.390625 
Q 20.0625 6.109375 24.8125 6.109375 
Q 31.15625 6.109375 34.5625 8.28125 
Q 37.984375 10.453125 37.984375 14.40625 
Q 37.984375 18.0625 35.515625 20.015625 
Q 33.0625 21.96875 24.703125 23.78125 
L 21.578125 24.515625 
Q 13.234375 26.265625 9.515625 29.90625 
Q 5.8125 33.546875 5.8125 39.890625 
Q 5.8125 47.609375 11.28125 51.796875 
Q 16.75 56 26.8125 56 
Q 31.78125 56 36.171875 55.265625 
Q 40.578125 54.546875 44.28125 53.078125 
z
" id="DejaVuSans-115"/>
      <path d="M 30.609375 48.390625 
Q 23.390625 48.390625 19.1875 42.75 
Q 14.984375 37.109375 14.984375 27.296875 
Q 14.984375 17.484375 19.15625 11.84375 
Q 23.34375 6.203125 30.609375 6.203125 
Q 37.796875 6.203125 41.984375 11.859375 
Q 46.1875 17.53125 46.1875 27.296875 
Q 46.1875 37.015625 41.984375 42.703125 
Q 37.796875 48.390625 30.609375 48.390625 
z
M 30.609375 56 
Q 42.328125 56 49.015625 48.375 
Q 55.71875 40.765625 55.71875 27.296875 
Q 55.71875 13.875 49.015625 6.21875 
Q 42.328125 -1.421875 30.609375 -1.421875 
Q 18.84375 -1.421875 12.171875 6.21875 
Q 5.515625 13.875 5.515625 27.296875 
Q 5.515625 40.765625 12.171875 48.375 
Q 18.84375 56 30.609375 56 
z
" id="DejaVuSans-111"/>
      <path d="M -0.296875 72.90625 
L 61.375 72.90625 
L 61.375 64.59375 
L 35.5 64.59375 
L 35.5 0 
L 25.59375 0 
L 25.59375 64.59375 
L -0.296875 64.59375 
z
" id="DejaVuSans-84"/>
      <path d="M 37.109375 75.984375 
L 37.109375 68.5 
L 28.515625 68.5 
Q 23.6875 68.5 21.796875 66.546875 
Q 19.921875 64.59375 19.921875 59.515625 
L 19.921875 54.6875 
L 34.71875 54.6875 
L 34.71875 47.703125 
L 19.921875 47.703125 
L 19.921875 0 
L 10.890625 0 
L 10.890625 47.703125 
L 2.296875 47.703125 
L 2.296875 54.6875 
L 10.890625 54.6875 
L 10.890625 58.5 
Q 10.890625 67.625 15.140625 71.796875 
Q 19.390625 75.984375 28.609375 75.984375 
z
" id="DejaVuSans-102"/>
      <path d="M 52 44.1875 
Q 55.375 50.25 60.0625 53.125 
Q 64.75 56 71.09375 56 
Q 79.640625 56 84.28125 50.015625 
Q 88.921875 44.046875 88.921875 33.015625 
L 88.921875 0 
L 79.890625 0 
L 79.890625 32.71875 
Q 79.890625 40.578125 77.09375 44.375 
Q 74.3125 48.1875 68.609375 48.1875 
Q 61.625 48.1875 57.5625 43.546875 
Q 53.515625 38.921875 53.515625 30.90625 
L 53.515625 0 
L 44.484375 0 
L 44.484375 32.71875 
Q 44.484375 40.625 41.703125 44.40625 
Q 38.921875 48.1875 33.109375 48.1875 
Q 26.21875 48.1875 22.15625 43.53125 
Q 18.109375 38.875 18.109375 30.90625 
L 18.109375 0 
L 9.078125 0 
L 9.078125 54.6875 
L 18.109375 54.6875 
L 18.109375 46.1875 
Q 21.1875 51.21875 25.484375 53.609375 
Q 29.78125 56 35.6875 56 
Q 41.65625 56 45.828125 52.96875 
Q 50 49.953125 52 44.1875 
z
" id="DejaVuSans-109"/>
      <path d="M 31 75.875 
Q 24.46875 64.65625 21.28125 53.65625 
Q 18.109375 42.671875 18.109375 31.390625 
Q 18.109375 20.125 21.3125 9.0625 
Q 24.515625 -2 31 -13.1875 
L 23.1875 -13.1875 
Q 15.875 -1.703125 12.234375 9.375 
Q 8.59375 20.453125 8.59375 31.390625 
Q 8.59375 42.28125 12.203125 53.3125 
Q 15.828125 64.359375 23.1875 75.875 
z
" id="DejaVuSans-40"/>
      <path d="M 8.015625 75.875 
L 15.828125 75.875 
Q 23.140625 64.359375 26.78125 53.3125 
Q 30.421875 42.28125 30.421875 31.390625 
Q 30.421875 20.453125 26.78125 9.375 
Q 23.140625 -1.703125 15.828125 -13.1875 
L 8.015625 -13.1875 
Q 14.5 -2 17.703125 9.0625 
Q 20.90625 20.125 20.90625 31.390625 
Q 20.90625 42.671875 17.703125 53.65625 
Q 14.5 64.65625 8.015625 75.875 
z
" id="DejaVuSans-41"/>
     </defs>
     <use xlink:href="#DejaVuSans-77"/>
     <use x="86.279297" xlink:href="#DejaVuSans-97"/>
     <use x="147.558594" xlink:href="#DejaVuSans-103"/>
     <use x="211.035156" xlink:href="#DejaVuSans-110"/>
     <use x="274.414062" xlink:href="#DejaVuSans-105"/>
     <use x="302.197266" xlink:href="#DejaVuSans-116"/>
     <use x="341.40625" xlink:href="#DejaVuSans-117"/>
     <use x="404.785156" xlink:href="#DejaVuSans-100"/>
     <use x="468.261719" xlink:href="#DejaVuSans-101"/>
     <use x="529.785156" xlink:href="#DejaVuSans-32"/>
     <use x="561.572266" xlink:href="#DejaVuSans-68"/>
     <use x="638.574219" xlink:href="#DejaVuSans-105"/>
     <use x="666.357422" xlink:href="#DejaVuSans-115"/>
     <use x="718.457031" xlink:href="#DejaVuSans-99"/>
     <use x="773.4375" xlink:href="#DejaVuSans-114"/>
     <use x="812.300781" xlink:href="#DejaVuSans-101"/>
     <use x="873.824219" xlink:href="#DejaVuSans-116"/>
     <use x="913.033203" xlink:href="#DejaVuSans-101"/>
     <use x="974.556641" xlink:href="#DejaVuSans-32"/>
     <use x="1006.34375" xlink:href="#DejaVuSans-70"/>
     <use x="1060.238281" xlink:href="#DejaVuSans-111"/>
     <use x="1121.419922" xlink:href="#DejaVuSans-117"/>
     <use x="1184.798828" xlink:href="#DejaVuSans-114"/>
     <use x="1225.912109" xlink:href="#DejaVuSans-105"/>
     <use x="1253.695312" xlink:href="#DejaVuSans-101"/>
     <use x="1315.21875" xlink:href="#DejaVuSans-114"/>
     <use x="1356.332031" xlink:href="#DejaVuSans-32"/>
     <use x="1388.119141" xlink:href="#DejaVuSans-84"/>
     <use x="1434.453125" xlink:href="#DejaVuSans-114"/>
     <use x="1475.566406" xlink:href="#DejaVuSans-97"/>
     <use x="1536.845703" xlink:href="#DejaVuSans-110"/>
     <use x="1600.224609" xlink:href="#DejaVuSans-115"/>
     <use x="1652.324219" xlink:href="#DejaVuSans-102"/>
     <use x="1687.529297" xlink:href="#DejaVuSans-111"/>
     <use x="1748.710938" xlink:href="#DejaVuSans-114"/>
     <use x="1788.074219" xlink:href="#DejaVuSans-109"/>
     <use x="1885.486328" xlink:href="#DejaVuSans-32"/>
     <use x="1917.273438" xlink:href="#DejaVuSans-40"/>
     <use x="1956.287109" xlink:href="#DejaVuSans-77"/>
     <use x="2042.566406" xlink:href="#DejaVuSans-97"/>
     <use x="2103.845703" xlink:href="#DejaVuSans-120"/>
     <use x="2163.025391" xlink:href="#DejaVuSans-32"/>
     <use x="2194.8125" xlink:href="#DejaVuSans-73"/>
     <use x="2224.304688" xlink:href="#DejaVuSans-110"/>
     <use x="2287.683594" xlink:href="#DejaVuSans-100"/>
     <use x="2351.160156" xlink:href="#DejaVuSans-101"/>
     <use x="2410.933594" xlink:href="#DejaVuSans-120"/>
     <use x="2470.113281" xlink:href="#DejaVuSans-32"/>
     <use x="2501.900391" xlink:href="#DejaVuSans-54"/>
     <use x="2565.523438" xlink:href="#DejaVuSans-51"/>
     <use x="2629.146484" xlink:href="#DejaVuSans-41"/>
    </g>
   </g>
  </g>
 </g>
 <defs>
  <clipPath id="p5c69f01d5f">
   <rect height="163.08" width="446.4" x="53.328125" y="22.318125"/>
  </clipPath>
 </defs>
</svg>
