<?xml version="1.0" encoding="utf-8" standalone="no"?>
<!DOCTYPE svg PUBLIC "-//W3C//DTD SVG 1.1//EN"
  "http://www.w3.org/Graphics/SVG/1.1/DTD/svg11.dtd">
<!-- Created with matplotlib (https://matplotlib.org/) -->
<svg height="423.59625pt" version="1.1" viewBox="0 0 713.125 423.59625" width="713.125pt" xmlns="http://www.w3.org/2000/svg" xmlns:xlink="http://www.w3.org/1999/xlink">
 <metadata>
  <rdf:RDF xmlns:cc="http://creativecommons.org/ns#" xmlns:dc="http://purl.org/dc/elements/1.1/" xmlns:rdf="http://www.w3.org/1999/02/22-rdf-syntax-ns#">
   <cc:Work>
    <dc:type rdf:resource="http://purl.org/dc/dcmitype/StillImage"/>
    <dc:date>2021-04-04T12:42:37.962786</dc:date>
    <dc:format>image/svg+xml</dc:format>
    <dc:creator>
     <cc:Agent>
      <dc:title>Matplotlib v3.3.3, https://matplotlib.org/</dc:title>
     </cc:Agent>
    </dc:creator>
   </cc:Work>
  </rdf:RDF>
 </metadata>
 <defs>
  <style type="text/css">*{stroke-linecap:butt;stroke-linejoin:round;}</style>
 </defs>
 <g id="figure_1">
  <g id="patch_1">
   <path d="M 0 423.59625 
L 713.125 423.59625 
L 713.125 0 
L 0 0 
z
" style="fill:none;"/>
  </g>
  <g id="axes_1">
   <g id="patch_2">
    <path d="M 39.65 182.118125 
L 705.925 182.118125 
L 705.925 22.318125 
L 39.65 22.318125 
z
" style="fill:#ffffff;"/>
   </g>
   <g id="matplotlib.axis_1">
    <g id="xtick_1">
     <g id="line2d_1">
      <defs>
       <path d="M 0 0 
L 0 3.5 
" id="m2b3d120452" style="stroke:#000000;stroke-width:0.8;"/>
      </defs>
      <g>
       <use style="stroke:#000000;stroke-width:0.8;" x="69.935227" xlink:href="#m2b3d120452" y="182.118125"/>
      </g>
     </g>
     <g id="text_1">
      <!-- 0 -->
      <g transform="translate(66.753977 196.716562)scale(0.1 -0.1)">
       <defs>
        <path d="M 31.78125 66.40625 
Q 24.171875 66.40625 20.328125 58.90625 
Q 16.5 51.421875 16.5 36.375 
Q 16.5 21.390625 20.328125 13.890625 
Q 24.171875 6.390625 31.78125 6.390625 
Q 39.453125 6.390625 43.28125 13.890625 
Q 47.125 21.390625 47.125 36.375 
Q 47.125 51.421875 43.28125 58.90625 
Q 39.453125 66.40625 31.78125 66.40625 
z
M 31.78125 74.21875 
Q 44.046875 74.21875 50.515625 64.515625 
Q 56.984375 54.828125 56.984375 36.375 
Q 56.984375 17.96875 50.515625 8.265625 
Q 44.046875 -1.421875 31.78125 -1.421875 
Q 19.53125 -1.421875 13.0625 8.265625 
Q 6.59375 17.96875 6.59375 36.375 
Q 6.59375 54.828125 13.0625 64.515625 
Q 19.53125 74.21875 31.78125 74.21875 
z
" id="DejaVuSans-48"/>
       </defs>
       <use xlink:href="#DejaVuSans-48"/>
      </g>
     </g>
    </g>
    <g id="xtick_2">
     <g id="line2d_2">
      <g>
       <use style="stroke:#000000;stroke-width:0.8;" x="191.263218" xlink:href="#m2b3d120452" y="182.118125"/>
      </g>
     </g>
     <g id="text_2">
      <!-- 1 -->
      <g transform="translate(188.081968 196.716562)scale(0.1 -0.1)">
       <defs>
        <path d="M 12.40625 8.296875 
L 28.515625 8.296875 
L 28.515625 63.921875 
L 10.984375 60.40625 
L 10.984375 69.390625 
L 28.421875 72.90625 
L 38.28125 72.90625 
L 38.28125 8.296875 
L 54.390625 8.296875 
L 54.390625 0 
L 12.40625 0 
z
" id="DejaVuSans-49"/>
       </defs>
       <use xlink:href="#DejaVuSans-49"/>
      </g>
     </g>
    </g>
    <g id="xtick_3">
     <g id="line2d_3">
      <g>
       <use style="stroke:#000000;stroke-width:0.8;" x="312.591209" xlink:href="#m2b3d120452" y="182.118125"/>
      </g>
     </g>
     <g id="text_3">
      <!-- 2 -->
      <g transform="translate(309.409959 196.716562)scale(0.1 -0.1)">
       <defs>
        <path d="M 19.1875 8.296875 
L 53.609375 8.296875 
L 53.609375 0 
L 7.328125 0 
L 7.328125 8.296875 
Q 12.9375 14.109375 22.625 23.890625 
Q 32.328125 33.6875 34.8125 36.53125 
Q 39.546875 41.84375 41.421875 45.53125 
Q 43.3125 49.21875 43.3125 52.78125 
Q 43.3125 58.59375 39.234375 62.25 
Q 35.15625 65.921875 28.609375 65.921875 
Q 23.96875 65.921875 18.8125 64.3125 
Q 13.671875 62.703125 7.8125 59.421875 
L 7.8125 69.390625 
Q 13.765625 71.78125 18.9375 73 
Q 24.125 74.21875 28.421875 74.21875 
Q 39.75 74.21875 46.484375 68.546875 
Q 53.21875 62.890625 53.21875 53.421875 
Q 53.21875 48.921875 51.53125 44.890625 
Q 49.859375 40.875 45.40625 35.40625 
Q 44.1875 33.984375 37.640625 27.21875 
Q 31.109375 20.453125 19.1875 8.296875 
z
" id="DejaVuSans-50"/>
       </defs>
       <use xlink:href="#DejaVuSans-50"/>
      </g>
     </g>
    </g>
    <g id="xtick_4">
     <g id="line2d_4">
      <g>
       <use style="stroke:#000000;stroke-width:0.8;" x="433.9192" xlink:href="#m2b3d120452" y="182.118125"/>
      </g>
     </g>
     <g id="text_4">
      <!-- 3 -->
      <g transform="translate(430.73795 196.716562)scale(0.1 -0.1)">
       <defs>
        <path d="M 40.578125 39.3125 
Q 47.65625 37.796875 51.625 33 
Q 55.609375 28.21875 55.609375 21.1875 
Q 55.609375 10.40625 48.1875 4.484375 
Q 40.765625 -1.421875 27.09375 -1.421875 
Q 22.515625 -1.421875 17.65625 -0.515625 
Q 12.796875 0.390625 7.625 2.203125 
L 7.625 11.71875 
Q 11.71875 9.328125 16.59375 8.109375 
Q 21.484375 6.890625 26.8125 6.890625 
Q 36.078125 6.890625 40.9375 10.546875 
Q 45.796875 14.203125 45.796875 21.1875 
Q 45.796875 27.640625 41.28125 31.265625 
Q 36.765625 34.90625 28.71875 34.90625 
L 20.21875 34.90625 
L 20.21875 43.015625 
L 29.109375 43.015625 
Q 36.375 43.015625 40.234375 45.921875 
Q 44.09375 48.828125 44.09375 54.296875 
Q 44.09375 59.90625 40.109375 62.90625 
Q 36.140625 65.921875 28.71875 65.921875 
Q 24.65625 65.921875 20.015625 65.03125 
Q 15.375 64.15625 9.8125 62.3125 
L 9.8125 71.09375 
Q 15.4375 72.65625 20.34375 73.4375 
Q 25.25 74.21875 29.59375 74.21875 
Q 40.828125 74.21875 47.359375 69.109375 
Q 53.90625 64.015625 53.90625 55.328125 
Q 53.90625 49.265625 50.4375 45.09375 
Q 46.96875 40.921875 40.578125 39.3125 
z
" id="DejaVuSans-51"/>
       </defs>
       <use xlink:href="#DejaVuSans-51"/>
      </g>
     </g>
    </g>
    <g id="xtick_5">
     <g id="line2d_5">
      <g>
       <use style="stroke:#000000;stroke-width:0.8;" x="555.24719" xlink:href="#m2b3d120452" y="182.118125"/>
      </g>
     </g>
     <g id="text_5">
      <!-- 4 -->
      <g transform="translate(552.06594 196.716562)scale(0.1 -0.1)">
       <defs>
        <path d="M 37.796875 64.3125 
L 12.890625 25.390625 
L 37.796875 25.390625 
z
M 35.203125 72.90625 
L 47.609375 72.90625 
L 47.609375 25.390625 
L 58.015625 25.390625 
L 58.015625 17.1875 
L 47.609375 17.1875 
L 47.609375 0 
L 37.796875 0 
L 37.796875 17.1875 
L 4.890625 17.1875 
L 4.890625 26.703125 
z
" id="DejaVuSans-52"/>
       </defs>
       <use xlink:href="#DejaVuSans-52"/>
      </g>
     </g>
    </g>
    <g id="xtick_6">
     <g id="line2d_6">
      <g>
       <use style="stroke:#000000;stroke-width:0.8;" x="676.575181" xlink:href="#m2b3d120452" y="182.118125"/>
      </g>
     </g>
     <g id="text_6">
      <!-- 5 -->
      <g transform="translate(673.393931 196.716562)scale(0.1 -0.1)">
       <defs>
        <path d="M 10.796875 72.90625 
L 49.515625 72.90625 
L 49.515625 64.59375 
L 19.828125 64.59375 
L 19.828125 46.734375 
Q 21.96875 47.46875 24.109375 47.828125 
Q 26.265625 48.1875 28.421875 48.1875 
Q 40.625 48.1875 47.75 41.5 
Q 54.890625 34.8125 54.890625 23.390625 
Q 54.890625 11.625 47.5625 5.09375 
Q 40.234375 -1.421875 26.90625 -1.421875 
Q 22.3125 -1.421875 17.546875 -0.640625 
Q 12.796875 0.140625 7.71875 1.703125 
L 7.71875 11.625 
Q 12.109375 9.234375 16.796875 8.0625 
Q 21.484375 6.890625 26.703125 6.890625 
Q 35.15625 6.890625 40.078125 11.328125 
Q 45.015625 15.765625 45.015625 23.390625 
Q 45.015625 31 40.078125 35.4375 
Q 35.15625 39.890625 26.703125 39.890625 
Q 22.75 39.890625 18.8125 39.015625 
Q 14.890625 38.140625 10.796875 36.28125 
z
" id="DejaVuSans-53"/>
       </defs>
       <use xlink:href="#DejaVuSans-53"/>
      </g>
     </g>
    </g>
    <g id="text_7">
     <!-- Time (Sec) -->
     <g transform="translate(346.063281 210.394687)scale(0.1 -0.1)">
      <defs>
       <path d="M -0.296875 72.90625 
L 61.375 72.90625 
L 61.375 64.59375 
L 35.5 64.59375 
L 35.5 0 
L 25.59375 0 
L 25.59375 64.59375 
L -0.296875 64.59375 
z
" id="DejaVuSans-84"/>
       <path d="M 9.421875 54.6875 
L 18.40625 54.6875 
L 18.40625 0 
L 9.421875 0 
z
M 9.421875 75.984375 
L 18.40625 75.984375 
L 18.40625 64.59375 
L 9.421875 64.59375 
z
" id="DejaVuSans-105"/>
       <path d="M 52 44.1875 
Q 55.375 50.25 60.0625 53.125 
Q 64.75 56 71.09375 56 
Q 79.640625 56 84.28125 50.015625 
Q 88.921875 44.046875 88.921875 33.015625 
L 88.921875 0 
L 79.890625 0 
L 79.890625 32.71875 
Q 79.890625 40.578125 77.09375 44.375 
Q 74.3125 48.1875 68.609375 48.1875 
Q 61.625 48.1875 57.5625 43.546875 
Q 53.515625 38.921875 53.515625 30.90625 
L 53.515625 0 
L 44.484375 0 
L 44.484375 32.71875 
Q 44.484375 40.625 41.703125 44.40625 
Q 38.921875 48.1875 33.109375 48.1875 
Q 26.21875 48.1875 22.15625 43.53125 
Q 18.109375 38.875 18.109375 30.90625 
L 18.109375 0 
L 9.078125 0 
L 9.078125 54.6875 
L 18.109375 54.6875 
L 18.109375 46.1875 
Q 21.1875 51.21875 25.484375 53.609375 
Q 29.78125 56 35.6875 56 
Q 41.65625 56 45.828125 52.96875 
Q 50 49.953125 52 44.1875 
z
" id="DejaVuSans-109"/>
       <path d="M 56.203125 29.59375 
L 56.203125 25.203125 
L 14.890625 25.203125 
Q 15.484375 15.921875 20.484375 11.0625 
Q 25.484375 6.203125 34.421875 6.203125 
Q 39.59375 6.203125 44.453125 7.46875 
Q 49.3125 8.734375 54.109375 11.28125 
L 54.109375 2.78125 
Q 49.265625 0.734375 44.1875 -0.34375 
Q 39.109375 -1.421875 33.890625 -1.421875 
Q 20.796875 -1.421875 13.15625 6.1875 
Q 5.515625 13.8125 5.515625 26.8125 
Q 5.515625 40.234375 12.765625 48.109375 
Q 20.015625 56 32.328125 56 
Q 43.359375 56 49.78125 48.890625 
Q 56.203125 41.796875 56.203125 29.59375 
z
M 47.21875 32.234375 
Q 47.125 39.59375 43.09375 43.984375 
Q 39.0625 48.390625 32.421875 48.390625 
Q 24.90625 48.390625 20.390625 44.140625 
Q 15.875 39.890625 15.1875 32.171875 
z
" id="DejaVuSans-101"/>
       <path id="DejaVuSans-32"/>
       <path d="M 31 75.875 
Q 24.46875 64.65625 21.28125 53.65625 
Q 18.109375 42.671875 18.109375 31.390625 
Q 18.109375 20.125 21.3125 9.0625 
Q 24.515625 -2 31 -13.1875 
L 23.1875 -13.1875 
Q 15.875 -1.703125 12.234375 9.375 
Q 8.59375 20.453125 8.59375 31.390625 
Q 8.59375 42.28125 12.203125 53.3125 
Q 15.828125 64.359375 23.1875 75.875 
z
" id="DejaVuSans-40"/>
       <path d="M 53.515625 70.515625 
L 53.515625 60.890625 
Q 47.90625 63.578125 42.921875 64.890625 
Q 37.9375 66.21875 33.296875 66.21875 
Q 25.25 66.21875 20.875 63.09375 
Q 16.5 59.96875 16.5 54.203125 
Q 16.5 49.359375 19.40625 46.890625 
Q 22.3125 44.4375 30.421875 42.921875 
L 36.375 41.703125 
Q 47.40625 39.59375 52.65625 34.296875 
Q 57.90625 29 57.90625 20.125 
Q 57.90625 9.515625 50.796875 4.046875 
Q 43.703125 -1.421875 29.984375 -1.421875 
Q 24.8125 -1.421875 18.96875 -0.25 
Q 13.140625 0.921875 6.890625 3.21875 
L 6.890625 13.375 
Q 12.890625 10.015625 18.65625 8.296875 
Q 24.421875 6.59375 29.984375 6.59375 
Q 38.421875 6.59375 43.015625 9.90625 
Q 47.609375 13.234375 47.609375 19.390625 
Q 47.609375 24.75 44.3125 27.78125 
Q 41.015625 30.8125 33.5 32.328125 
L 27.484375 33.5 
Q 16.453125 35.6875 11.515625 40.375 
Q 6.59375 45.0625 6.59375 53.421875 
Q 6.59375 63.09375 13.40625 68.65625 
Q 20.21875 74.21875 32.171875 74.21875 
Q 37.3125 74.21875 42.625 73.28125 
Q 47.953125 72.359375 53.515625 70.515625 
z
" id="DejaVuSans-83"/>
       <path d="M 48.78125 52.59375 
L 48.78125 44.1875 
Q 44.96875 46.296875 41.140625 47.34375 
Q 37.3125 48.390625 33.40625 48.390625 
Q 24.65625 48.390625 19.8125 42.84375 
Q 14.984375 37.3125 14.984375 27.296875 
Q 14.984375 17.28125 19.8125 11.734375 
Q 24.65625 6.203125 33.40625 6.203125 
Q 37.3125 6.203125 41.140625 7.25 
Q 44.96875 8.296875 48.78125 10.40625 
L 48.78125 2.09375 
Q 45.015625 0.34375 40.984375 -0.53125 
Q 36.96875 -1.421875 32.421875 -1.421875 
Q 20.0625 -1.421875 12.78125 6.34375 
Q 5.515625 14.109375 5.515625 27.296875 
Q 5.515625 40.671875 12.859375 48.328125 
Q 20.21875 56 33.015625 56 
Q 37.15625 56 41.109375 55.140625 
Q 45.0625 54.296875 48.78125 52.59375 
z
" id="DejaVuSans-99"/>
       <path d="M 8.015625 75.875 
L 15.828125 75.875 
Q 23.140625 64.359375 26.78125 53.3125 
Q 30.421875 42.28125 30.421875 31.390625 
Q 30.421875 20.453125 26.78125 9.375 
Q 23.140625 -1.703125 15.828125 -13.1875 
L 8.015625 -13.1875 
Q 14.5 -2 17.703125 9.0625 
Q 20.90625 20.125 20.90625 31.390625 
Q 20.90625 42.671875 17.703125 53.65625 
Q 14.5 64.65625 8.015625 75.875 
z
" id="DejaVuSans-41"/>
      </defs>
      <use xlink:href="#DejaVuSans-84"/>
      <use x="57.958984" xlink:href="#DejaVuSans-105"/>
      <use x="85.742188" xlink:href="#DejaVuSans-109"/>
      <use x="183.154297" xlink:href="#DejaVuSans-101"/>
      <use x="244.677734" xlink:href="#DejaVuSans-32"/>
      <use x="276.464844" xlink:href="#DejaVuSans-40"/>
      <use x="315.478516" xlink:href="#DejaVuSans-83"/>
      <use x="378.955078" xlink:href="#DejaVuSans-101"/>
      <use x="440.478516" xlink:href="#DejaVuSans-99"/>
      <use x="495.458984" xlink:href="#DejaVuSans-41"/>
     </g>
    </g>
   </g>
   <g id="matplotlib.axis_2">
    <g id="ytick_1">
     <g id="line2d_7">
      <defs>
       <path d="M 0 0 
L -3.5 0 
" id="m44c68552a7" style="stroke:#000000;stroke-width:0.8;"/>
      </defs>
      <g>
       <use style="stroke:#000000;stroke-width:0.8;" x="39.65" xlink:href="#m44c68552a7" y="157.912955"/>
      </g>
     </g>
     <g id="text_8">
      <!-- 1000 -->
      <g transform="translate(7.2 161.712173)scale(0.1 -0.1)">
       <use xlink:href="#DejaVuSans-49"/>
       <use x="63.623047" xlink:href="#DejaVuSans-48"/>
       <use x="127.246094" xlink:href="#DejaVuSans-48"/>
       <use x="190.869141" xlink:href="#DejaVuSans-48"/>
      </g>
     </g>
    </g>
    <g id="ytick_2">
     <g id="line2d_8">
      <g>
       <use style="stroke:#000000;stroke-width:0.8;" x="39.65" xlink:href="#m44c68552a7" y="128.392597"/>
      </g>
     </g>
     <g id="text_9">
      <!-- 2000 -->
      <g transform="translate(7.2 132.191816)scale(0.1 -0.1)">
       <use xlink:href="#DejaVuSans-50"/>
       <use x="63.623047" xlink:href="#DejaVuSans-48"/>
       <use x="127.246094" xlink:href="#DejaVuSans-48"/>
       <use x="190.869141" xlink:href="#DejaVuSans-48"/>
      </g>
     </g>
    </g>
    <g id="ytick_3">
     <g id="line2d_9">
      <g>
       <use style="stroke:#000000;stroke-width:0.8;" x="39.65" xlink:href="#m44c68552a7" y="98.872239"/>
      </g>
     </g>
     <g id="text_10">
      <!-- 3000 -->
      <g transform="translate(7.2 102.671458)scale(0.1 -0.1)">
       <use xlink:href="#DejaVuSans-51"/>
       <use x="63.623047" xlink:href="#DejaVuSans-48"/>
       <use x="127.246094" xlink:href="#DejaVuSans-48"/>
       <use x="190.869141" xlink:href="#DejaVuSans-48"/>
      </g>
     </g>
    </g>
    <g id="ytick_4">
     <g id="line2d_10">
      <g>
       <use style="stroke:#000000;stroke-width:0.8;" x="39.65" xlink:href="#m44c68552a7" y="69.351881"/>
      </g>
     </g>
     <g id="text_11">
      <!-- 4000 -->
      <g transform="translate(7.2 73.1511)scale(0.1 -0.1)">
       <use xlink:href="#DejaVuSans-52"/>
       <use x="63.623047" xlink:href="#DejaVuSans-48"/>
       <use x="127.246094" xlink:href="#DejaVuSans-48"/>
       <use x="190.869141" xlink:href="#DejaVuSans-48"/>
      </g>
     </g>
    </g>
    <g id="ytick_5">
     <g id="line2d_11">
      <g>
       <use style="stroke:#000000;stroke-width:0.8;" x="39.65" xlink:href="#m44c68552a7" y="39.831524"/>
      </g>
     </g>
     <g id="text_12">
      <!-- 5000 -->
      <g transform="translate(7.2 43.630742)scale(0.1 -0.1)">
       <use xlink:href="#DejaVuSans-53"/>
       <use x="63.623047" xlink:href="#DejaVuSans-48"/>
       <use x="127.246094" xlink:href="#DejaVuSans-48"/>
       <use x="190.869141" xlink:href="#DejaVuSans-48"/>
      </g>
     </g>
    </g>
   </g>
   <g id="line2d_12">
    <path clip-path="url(#p009d610c90)" d="M 69.935227 154.886462 
L 70.639535 167.119414 
L 71.343842 172.877681 
L 72.04815 166.622163 
L 72.752458 166.901327 
L 73.456765 166.673067 
L 74.161073 165.442837 
L 74.865381 165.713812 
L 75.569688 165.277785 
L 76.273996 163.071745 
L 76.978303 164.808807 
L 77.682611 164.977522 
L 78.386919 159.359128 
L 79.091226 141.634531 
L 79.795534 81.673503 
L 80.499841 73.927789 
L 81.204149 101.973275 
L 81.908457 121.645163 
L 82.612764 137.82949 
L 83.317072 149.751073 
L 84.021379 154.917208 
L 85.429995 169.17891 
L 86.83861 172.255892 
L 87.542918 168.081244 
L 88.951533 165.627826 
L 89.65584 168.008092 
L 90.360148 165.57223 
L 91.064456 165.494786 
L 91.768763 162.009153 
L 92.473071 160.529294 
L 93.177378 161.907314 
L 93.881686 158.74998 
L 94.585994 159.446997 
L 95.290301 159.775292 
L 95.994609 159.89253 
L 96.698916 157.15971 
L 97.403224 161.763967 
L 98.107532 162.125433 
L 98.811839 155.179568 
L 99.516147 154.716897 
L 100.220455 153.958113 
L 100.924762 133.726153 
L 102.333377 100.37986 
L 103.037685 96.747732 
L 103.741993 114.919314 
L 104.4463 136.053584 
L 105.150608 147.5138 
L 105.854915 152.206704 
L 106.559223 153.266341 
L 107.967838 169.259428 
L 108.672146 174.854489 
L 110.080761 156.437326 
L 110.785069 153.36669 
L 111.489376 156.260027 
L 112.193684 157.263972 
L 112.897992 158.599995 
L 113.602299 158.716651 
L 114.306607 164.322402 
L 115.010914 162.631044 
L 115.715222 156.902855 
L 116.41953 157.763029 
L 117.123837 160.325134 
L 117.828145 162.115352 
L 118.532452 157.87707 
L 119.23676 149.718475 
L 119.941068 149.299662 
L 120.645375 137.094868 
L 121.349683 88.968772 
L 122.05399 86.512845 
L 122.758298 120.51998 
L 123.462606 140.011326 
L 124.166913 128.518347 
L 124.871221 131.228656 
L 125.575529 144.020282 
L 126.279836 149.416756 
L 126.984144 142.476561 
L 127.688451 143.11709 
L 128.392759 148.029927 
L 129.097067 158.188512 
L 129.801374 150.815824 
L 130.505682 152.397891 
L 131.209989 149.764057 
L 131.914297 152.22696 
L 132.618605 148.573033 
L 133.322912 150.976089 
L 134.02722 150.737007 
L 134.731527 153.917602 
L 135.435835 158.849649 
L 136.140143 153.576846 
L 136.84445 153.791809 
L 137.548758 153.626824 
L 138.253066 154.815068 
L 138.957373 153.077562 
L 139.661681 149.582095 
L 140.365988 152.815612 
L 141.070296 149.822856 
L 142.478911 153.204003 
L 143.183219 154.293003 
L 143.887526 155.025859 
L 144.591834 153.08861 
L 145.296142 156.249335 
L 146.000449 151.188212 
L 146.704757 155.080471 
L 147.409064 151.472331 
L 148.113372 151.805772 
L 148.81768 153.523146 
L 149.521987 153.344178 
L 150.226295 154.496712 
L 150.930603 157.864858 
L 151.63491 162.292591 
L 152.339218 159.158954 
L 153.043525 148.273369 
L 153.747833 150.253197 
L 154.452141 152.968453 
L 155.156448 157.261716 
L 155.860756 154.891111 
L 156.565063 149.099805 
L 157.269371 153.384463 
L 157.973679 149.55483 
L 158.677986 147.596512 
L 159.382294 132.173804 
L 160.086601 113.848185 
L 160.790909 120.488608 
L 161.495217 131.694401 
L 162.199524 140.935426 
L 162.903832 145.951801 
L 163.60814 149.329302 
L 164.312447 153.959879 
L 165.721062 145.124283 
L 166.42537 131.109998 
L 167.833985 150.301344 
L 168.538293 159.818095 
L 169.2426 164.927158 
L 169.946908 166.332804 
L 171.355523 161.844256 
L 172.059831 164.285673 
L 172.764138 158.987677 
L 173.468446 158.036276 
L 174.172754 154.557007 
L 174.877061 148.987064 
L 176.285677 158.764677 
L 176.989984 159.625546 
L 177.694292 153.078207 
L 178.398599 144.473477 
L 179.102907 146.21805 
L 179.807215 148.864705 
L 180.511522 152.210009 
L 181.21583 150.990661 
L 182.624445 156.688617 
L 183.328753 154.762449 
L 184.03306 153.905534 
L 184.737368 155.547676 
L 185.441675 153.610608 
L 186.850291 157.982193 
L 187.554598 157.883614 
L 188.258906 156.222997 
L 188.963214 156.127528 
L 189.667521 154.581687 
L 190.371829 155.958806 
L 191.076136 154.204067 
L 191.780444 151.244366 
L 192.484752 154.072652 
L 193.189059 155.317869 
L 193.893367 157.549559 
L 194.597674 152.341513 
L 195.301982 153.010114 
L 196.00629 157.404802 
L 196.710597 155.611642 
L 197.414905 159.803744 
L 198.119212 159.029254 
L 198.82352 157.03218 
L 199.527828 155.745349 
L 200.232135 153.904744 
L 200.936443 150.290338 
L 201.640751 145.651217 
L 202.345058 145.914727 
L 203.049366 147.486099 
L 203.753673 148.719904 
L 204.457981 144.358963 
L 205.162289 136.295202 
L 205.866596 138.635383 
L 206.570904 136.559206 
L 207.275211 138.462206 
L 207.979519 146.098621 
L 208.683827 155.967977 
L 209.388134 150.28667 
L 210.092442 150.085462 
L 210.796749 151.072693 
L 211.501057 154.658494 
L 212.205365 154.089048 
L 212.909672 155.21969 
L 213.61398 148.289577 
L 214.318288 147.011013 
L 215.022595 141.750047 
L 215.726903 140.735508 
L 217.135518 152.965635 
L 217.839826 152.111855 
L 218.544133 150.691717 
L 219.248441 142.14913 
L 219.952748 145.650248 
L 220.657056 144.416789 
L 221.361364 147.132215 
L 222.065671 138.078301 
L 222.769979 133.401595 
L 223.474286 133.476758 
L 224.882902 154.168067 
L 225.587209 159.24623 
L 226.291517 151.694494 
L 226.995825 139.476756 
L 227.700132 137.816279 
L 228.40444 139.085247 
L 229.108747 151.547631 
L 230.517363 158.326168 
L 231.22167 157.559521 
L 231.925978 152.926493 
L 233.334593 153.484195 
L 234.038901 158.644692 
L 234.743208 155.265182 
L 235.447516 151.19485 
L 236.151823 152.479432 
L 236.856131 142.161617 
L 237.560439 148.581967 
L 238.264746 152.59622 
L 238.969054 155.72385 
L 239.673362 155.239986 
L 240.377669 150.538898 
L 241.081977 137.461112 
L 241.786284 131.557271 
L 242.490592 120.766543 
L 243.1949 117.071396 
L 243.899207 130.944429 
L 244.603515 140.736132 
L 245.307822 146.16587 
L 246.01213 156.007713 
L 246.716438 156.812161 
L 247.420745 157.934554 
L 248.125053 160.200363 
L 248.82936 155.4146 
L 249.533668 147.658191 
L 250.237976 147.912148 
L 250.942283 153.049061 
L 252.350899 168.912428 
L 253.055206 167.796856 
L 253.759514 165.29215 
L 254.463821 163.816424 
L 255.168129 166.237847 
L 255.872437 163.704934 
L 256.576744 163.82526 
L 257.281052 164.124118 
L 257.985359 161.842989 
L 258.689667 162.412842 
L 259.393975 163.458695 
L 260.098282 163.535446 
L 260.80259 160.234013 
L 261.506897 151.816709 
L 262.211205 146.858561 
L 262.915513 140.390878 
L 264.324128 134.084682 
L 265.028436 127.531678 
L 265.732743 133.701548 
L 266.437051 146.661331 
L 267.141358 151.276517 
L 267.845666 153.679472 
L 268.549974 153.890482 
L 269.254281 150.287193 
L 270.662896 129.277487 
L 272.071512 150.164736 
L 272.775819 153.682297 
L 273.480127 153.019134 
L 274.184434 150.50026 
L 274.888742 145.23252 
L 275.59305 149.767152 
L 276.297357 143.40558 
L 277.001665 144.333158 
L 277.705973 146.20499 
L 278.41028 146.141842 
L 279.114588 143.856875 
L 280.523203 151.231819 
L 281.227511 149.153178 
L 281.931818 147.503331 
L 282.636126 146.796075 
L 283.340433 144.590055 
L 284.044741 144.222781 
L 284.749049 142.951859 
L 285.453356 147.445206 
L 286.157664 145.643617 
L 286.861971 148.198105 
L 287.566279 153.063839 
L 288.270587 147.01031 
L 288.974894 147.59613 
L 289.679202 147.213021 
L 290.38351 154.287803 
L 291.087817 159.363888 
L 291.792125 156.035475 
L 292.496432 149.191426 
L 293.20074 146.692862 
L 293.905048 147.883341 
L 294.609355 150.609268 
L 295.313663 155.907073 
L 296.01797 151.240993 
L 296.722278 148.351263 
L 297.426586 152.171937 
L 298.130893 157.00151 
L 298.835201 153.51716 
L 299.539508 153.942694 
L 300.243816 154.750914 
L 300.948124 143.134747 
L 301.652431 141.42613 
L 302.356739 146.056437 
L 303.061047 155.293895 
L 303.765354 158.376875 
L 304.469662 158.321595 
L 305.173969 153.53098 
L 305.878277 145.652496 
L 306.582585 134.347471 
L 307.286892 138.771453 
L 307.9912 145.823092 
L 308.695507 154.967838 
L 309.399815 151.996516 
L 310.80843 138.473071 
L 311.512738 137.08387 
L 312.217045 142.526412 
L 312.921353 137.212063 
L 313.625661 137.396385 
L 314.329968 138.284475 
L 315.034276 134.611367 
L 315.738584 148.270399 
L 316.442891 156.28927 
L 317.147199 151.570928 
L 317.851506 149.937737 
L 318.555814 150.911621 
L 319.260122 153.674196 
L 320.668737 144.467924 
L 321.373044 145.48874 
L 322.077352 148.817985 
L 323.485967 150.705786 
L 324.190275 139.650408 
L 324.894582 139.14138 
L 326.303198 145.465468 
L 327.007505 147.938991 
L 327.711813 143.506573 
L 328.416121 137.393394 
L 329.120428 130.029182 
L 329.824736 131.561502 
L 330.529043 142.178157 
L 331.233351 143.14616 
L 331.937659 142.537836 
L 332.641966 154.27403 
L 333.346274 158.183924 
L 334.050581 159.847071 
L 335.459197 148.261016 
L 336.163504 141.843639 
L 337.572119 147.079445 
L 338.276427 146.300438 
L 338.980735 146.449946 
L 339.685042 149.749877 
L 340.38935 143.370748 
L 341.093658 148.630827 
L 341.797965 150.858775 
L 342.502273 152.358039 
L 343.20658 149.145178 
L 343.910888 147.566321 
L 344.615196 147.957798 
L 345.319503 151.123885 
L 346.023811 152.69663 
L 346.728118 143.405479 
L 347.432426 129.890214 
L 348.136734 132.008823 
L 348.841041 137.257209 
L 349.545349 136.691479 
L 350.249656 136.541498 
L 350.953964 146.547747 
L 351.658272 149.34413 
L 352.362579 155.982344 
L 353.066887 148.636081 
L 353.771195 154.827645 
L 354.475502 153.976102 
L 355.17981 148.663555 
L 355.884117 145.541006 
L 356.588425 147.97018 
L 357.292733 147.225911 
L 357.99704 142.46477 
L 358.701348 139.812629 
L 359.405655 146.69844 
L 360.109963 151.395568 
L 360.814271 157.116626 
L 361.518578 146.356026 
L 362.222886 143.273019 
L 363.631501 149.645849 
L 364.335809 143.492447 
L 365.040116 144.700159 
L 365.744424 139.132436 
L 366.448732 137.24007 
L 367.153039 150.460819 
L 367.857347 157.30431 
L 368.561654 153.246525 
L 369.265962 147.756968 
L 369.97027 143.544176 
L 370.674577 142.712774 
L 371.378885 142.967268 
L 372.083192 148.382794 
L 372.7875 149.816506 
L 373.491808 153.632427 
L 374.196115 152.057189 
L 374.900423 158.430137 
L 375.60473 156.602672 
L 376.309038 153.899984 
L 377.013346 144.58483 
L 377.717653 144.418987 
L 378.421961 145.610771 
L 379.126268 149.061997 
L 379.830576 155.410059 
L 380.534884 155.132686 
L 381.239191 149.779815 
L 381.943499 150.494585 
L 382.647807 150.401523 
L 383.352114 147.534084 
L 384.056422 152.497533 
L 384.760729 155.030143 
L 385.465037 150.977123 
L 386.169345 152.419011 
L 386.873652 150.840937 
L 387.57796 141.929562 
L 388.282267 140.202109 
L 388.986575 150.199237 
L 389.690883 150.52524 
L 390.39519 140.729883 
L 391.099498 138.982135 
L 391.803805 134.624772 
L 392.508113 138.474354 
L 393.212421 146.043962 
L 393.916728 148.134314 
L 394.621036 145.831662 
L 395.325344 147.945459 
L 396.029651 155.183806 
L 396.733959 159.618155 
L 397.438266 159.325208 
L 398.142574 153.474361 
L 399.551189 152.526563 
L 400.255497 154.337323 
L 400.959804 155.707731 
L 401.664112 154.464471 
L 402.36842 152.456532 
L 403.072727 152.450294 
L 403.777035 146.028283 
L 404.481342 148.143244 
L 405.18565 154.61244 
L 405.889958 155.896244 
L 406.594265 145.845398 
L 407.298573 145.170466 
L 408.002881 153.157611 
L 408.707188 148.820908 
L 409.411496 136.682052 
L 410.115803 119.138873 
L 410.820111 114.778242 
L 412.228726 143.729518 
L 412.933034 154.665052 
L 413.637341 153.8805 
L 414.341649 153.307945 
L 415.045957 131.389551 
L 415.750264 142.209274 
L 416.454572 147.799619 
L 417.158879 156.259389 
L 417.863187 158.988304 
L 418.567495 156.486158 
L 419.271802 158.518942 
L 419.97611 154.149253 
L 420.680418 147.157609 
L 421.384725 145.456459 
L 422.089033 150.094463 
L 422.79334 148.240583 
L 423.497648 153.216155 
L 424.201956 153.172062 
L 424.906263 151.228359 
L 425.610571 154.288073 
L 426.314878 155.760534 
L 427.019186 151.198086 
L 427.723494 149.192139 
L 428.427801 151.395741 
L 429.132109 146.21548 
L 429.836416 143.486213 
L 430.540724 146.705936 
L 431.245032 142.8439 
L 431.949339 141.486187 
L 432.653647 144.205181 
L 433.357955 147.876959 
L 434.062262 141.943061 
L 434.76657 145.419616 
L 435.470877 149.49628 
L 436.175185 150.664157 
L 436.879493 149.289616 
L 437.5838 154.40818 
L 438.288108 160.666114 
L 438.992415 164.56781 
L 439.696723 171.899629 
L 440.401031 171.768471 
L 441.105338 168.733888 
L 441.809646 171.048725 
L 442.513953 164.657576 
L 443.218261 164.772694 
L 443.922569 166.217631 
L 444.626876 165.449147 
L 445.331184 154.64369 
L 446.035492 99.227492 
L 446.739799 29.581761 
L 448.148414 89.002364 
L 449.55703 115.94728 
L 450.261337 130.614624 
L 451.669952 143.457806 
L 452.37426 146.310676 
L 453.078568 141.273419 
L 454.487183 160.932993 
L 455.19149 154.864549 
L 455.895798 162.935718 
L 456.600106 160.124037 
L 457.304413 148.443824 
L 458.008721 148.538165 
L 458.713029 156.354754 
L 460.121644 143.813178 
L 460.825951 144.010178 
L 461.530259 152.941805 
L 462.234567 154.44219 
L 462.938874 147.537947 
L 463.643182 147.2947 
L 464.347489 152.093884 
L 465.051797 152.919542 
L 465.756105 147.92351 
L 466.460412 150.779428 
L 467.16472 149.786936 
L 467.869027 148.106041 
L 468.573335 148.733482 
L 469.277643 149.159314 
L 469.98195 153.928838 
L 470.686258 153.540792 
L 471.390566 151.712818 
L 472.094873 145.723313 
L 472.799181 149.738064 
L 473.503488 150.62877 
L 474.207796 152.160539 
L 474.912104 159.81887 
L 475.616411 157.065877 
L 476.320719 146.878308 
L 477.025026 145.314991 
L 477.729334 150.94757 
L 478.433642 153.593098 
L 479.137949 152.493612 
L 479.842257 151.153157 
L 480.546564 150.523672 
L 481.250872 148.650157 
L 481.95518 145.202001 
L 482.659487 145.726578 
L 483.363795 150.751457 
L 484.068103 152.030285 
L 484.77241 149.782028 
L 485.476718 150.075779 
L 486.181025 146.865847 
L 486.885333 150.139493 
L 487.589641 156.383745 
L 488.293948 150.039505 
L 488.998256 135.451206 
L 489.702563 123.398222 
L 490.406871 115.947027 
L 491.111179 110.617428 
L 491.815486 117.459196 
L 493.224101 157.490576 
L 493.928409 161.029352 
L 494.632717 157.618192 
L 495.337024 156.198532 
L 496.041332 163.319402 
L 496.74564 162.741693 
L 497.449947 159.218746 
L 498.154255 153.618629 
L 498.858562 158.01669 
L 499.56287 155.136189 
L 500.267178 153.669547 
L 500.971485 151.585169 
L 501.675793 156.099045 
L 502.3801 156.077741 
L 503.084408 153.923912 
L 503.788716 155.240995 
L 504.493023 158.448789 
L 505.197331 158.413536 
L 505.901638 155.395335 
L 506.605946 153.434523 
L 507.310254 153.935238 
L 508.014561 152.988132 
L 508.718869 146.09332 
L 510.127484 159.941002 
L 510.831792 150.138117 
L 511.536099 147.320357 
L 512.240407 144.992328 
L 512.944715 146.704811 
L 513.649022 145.53582 
L 514.35333 154.247976 
L 515.057637 151.530006 
L 515.761945 153.642326 
L 516.466253 153.609447 
L 517.17056 154.304574 
L 517.874868 150.306043 
L 518.579175 154.366335 
L 519.283483 149.935712 
L 519.987791 160.253362 
L 520.692098 154.810326 
L 522.100714 156.176684 
L 522.805021 150.009956 
L 523.509329 141.810472 
L 524.213636 142.84621 
L 524.917944 154.061658 
L 525.622252 159.069686 
L 526.326559 146.408166 
L 527.030867 147.179487 
L 527.735174 140.753076 
L 528.439482 141.233196 
L 529.14379 149.304769 
L 529.848097 146.515624 
L 530.552405 134.08026 
L 531.256712 124.606063 
L 531.96102 123.728135 
L 532.665328 131.854385 
L 534.073943 144.415676 
L 534.778251 149.802042 
L 535.482558 149.427798 
L 536.186866 138.562346 
L 536.891173 140.609975 
L 537.595481 147.238772 
L 538.299789 155.209298 
L 539.004096 151.273638 
L 539.708404 138.140189 
L 541.117019 145.139818 
L 541.821327 150.697771 
L 543.229942 153.192126 
L 543.934249 151.003054 
L 544.638557 154.613514 
L 545.342865 147.998626 
L 546.047172 147.812664 
L 546.75148 145.51328 
L 547.455788 139.115305 
L 548.160095 143.122646 
L 548.864403 157.713137 
L 549.56871 162.285571 
L 550.273018 158.744299 
L 551.681633 111.294962 
L 552.385941 112.800933 
L 553.090248 125.169227 
L 553.794556 122.462897 
L 554.498864 127.811624 
L 555.203171 143.611689 
L 555.907479 152.942594 
L 556.611786 159.427682 
L 557.316094 159.614577 
L 558.020402 158.61784 
L 558.724709 155.020277 
L 559.429017 152.097091 
L 560.133325 151.446169 
L 560.837632 144.107924 
L 561.54194 148.409165 
L 562.246247 155.20342 
L 562.950555 153.898114 
L 563.654863 153.539819 
L 564.35917 155.307924 
L 565.767785 148.558518 
L 566.472093 148.368499 
L 567.176401 149.160871 
L 567.880708 150.432567 
L 568.585016 152.33107 
L 569.289323 146.45911 
L 569.993631 147.652706 
L 570.697939 153.887837 
L 571.402246 144.776186 
L 572.106554 132.172601 
L 573.515169 124.253477 
L 574.219477 129.856701 
L 574.923784 133.086323 
L 575.628092 139.211567 
L 576.3324 127.413121 
L 577.036707 132.136792 
L 577.741015 135.384259 
L 578.445322 135.525381 
L 579.14963 127.458244 
L 579.853938 139.609529 
L 580.558245 141.379248 
L 581.262553 139.37662 
L 581.96686 128.089134 
L 582.671168 133.45216 
L 583.375476 140.642111 
L 584.079783 144.755239 
L 584.784091 150.937091 
L 585.488399 158.896281 
L 586.192706 155.49871 
L 586.897014 147.198333 
L 587.601321 134.583223 
L 588.305629 132.747257 
L 589.009937 158.473906 
L 589.714244 162.631098 
L 591.827167 155.248 
L 592.531475 154.112331 
L 593.235782 156.699103 
L 593.94009 155.508375 
L 594.644397 146.292078 
L 596.053013 122.689013 
L 596.75732 128.151793 
L 598.165936 151.133499 
L 598.870243 160.513694 
L 599.574551 158.550197 
L 600.278858 155.503766 
L 600.983166 144.738054 
L 602.391781 156.378667 
L 603.096089 161.537418 
L 603.800396 158.749442 
L 604.504704 148.665058 
L 605.209012 151.974217 
L 605.913319 151.098494 
L 606.617627 152.990496 
L 607.321934 156.990908 
L 608.73055 141.918798 
L 609.434857 136.106452 
L 610.139165 127.419679 
L 610.843473 125.834899 
L 611.54778 109.954733 
L 612.252088 114.425605 
L 612.956395 123.924227 
L 613.660703 129.405316 
L 614.365011 131.909231 
L 615.069318 135.378749 
L 615.773626 143.707266 
L 616.477933 141.763135 
L 617.182241 137.424367 
L 617.886549 134.061111 
L 618.590856 142.762856 
L 619.999471 155.819838 
L 620.703779 152.222106 
L 621.408087 152.84039 
L 622.112394 152.920533 
L 622.816702 148.235611 
L 623.52101 146.579465 
L 624.225317 146.121975 
L 624.929625 151.398671 
L 625.633932 143.260111 
L 626.33824 144.542654 
L 627.042548 151.149009 
L 627.746855 147.334944 
L 628.451163 155.482718 
L 629.15547 156.147384 
L 629.859778 150.832191 
L 630.564086 154.223259 
L 631.268393 155.572655 
L 631.972701 154.355103 
L 632.677008 153.486346 
L 633.381316 152.208672 
L 634.085624 153.405042 
L 634.789931 160.01823 
L 635.494239 161.847852 
L 636.198547 156.937911 
L 636.902854 155.075087 
L 637.607162 158.159784 
L 638.311469 162.62347 
L 639.015777 156.481725 
L 639.720085 155.504527 
L 640.424392 158.554954 
L 641.1287 153.622114 
L 641.833007 144.944148 
L 642.537315 138.275733 
L 643.241623 145.233298 
L 643.94593 147.21571 
L 644.650238 150.218083 
L 645.354545 146.114743 
L 647.467468 139.727369 
L 648.171776 141.580831 
L 648.876084 148.789723 
L 649.580391 147.200012 
L 650.284699 144.807278 
L 650.989006 148.903397 
L 651.693314 151.281512 
L 652.397622 146.326193 
L 653.101929 142.819937 
L 653.806237 153.527488 
L 654.510544 146.747106 
L 655.214852 132.551075 
L 655.91916 109.44777 
L 656.623467 119.758988 
L 657.327775 139.263148 
L 658.73639 159.95376 
L 659.440698 159.449492 
L 660.145005 156.941255 
L 660.849313 157.23588 
L 661.553621 154.421358 
L 662.962236 157.164982 
L 663.666543 157.798628 
L 664.370851 155.805251 
L 665.075159 156.206741 
L 665.779466 153.378754 
L 666.483774 153.584179 
L 667.188081 154.81784 
L 667.892389 153.873509 
L 668.596697 150.538458 
L 669.301004 148.557185 
L 670.005312 145.510613 
L 670.709619 145.440816 
L 671.413927 150.450358 
L 672.118235 154.440024 
L 672.822542 154.9873 
L 673.52685 150.287614 
L 674.231158 138.396351 
L 674.935465 132.030419 
L 675.639773 148.049033 
L 675.639773 148.049033 
" style="fill:none;stroke:#1f77b4;stroke-linecap:square;stroke-width:1.5;"/>
   </g>
   <g id="patch_3">
    <path d="M 39.65 182.118125 
L 39.65 22.318125 
" style="fill:none;stroke:#000000;stroke-linecap:square;stroke-linejoin:miter;stroke-width:0.8;"/>
   </g>
   <g id="patch_4">
    <path d="M 705.925 182.118125 
L 705.925 22.318125 
" style="fill:none;stroke:#000000;stroke-linecap:square;stroke-linejoin:miter;stroke-width:0.8;"/>
   </g>
   <g id="patch_5">
    <path d="M 39.65 182.118125 
L 705.925 182.118125 
" style="fill:none;stroke:#000000;stroke-linecap:square;stroke-linejoin:miter;stroke-width:0.8;"/>
   </g>
   <g id="patch_6">
    <path d="M 39.65 22.318125 
L 705.925 22.318125 
" style="fill:none;stroke:#000000;stroke-linecap:square;stroke-linejoin:miter;stroke-width:0.8;"/>
   </g>
   <g id="text_13">
    <!-- Fishin' Naive Novelty Function -->
    <g transform="translate(282.770625 16.318125)scale(0.12 -0.12)">
     <defs>
      <path d="M 9.8125 72.90625 
L 51.703125 72.90625 
L 51.703125 64.59375 
L 19.671875 64.59375 
L 19.671875 43.109375 
L 48.578125 43.109375 
L 48.578125 34.8125 
L 19.671875 34.8125 
L 19.671875 0 
L 9.8125 0 
z
" id="DejaVuSans-70"/>
      <path d="M 44.28125 53.078125 
L 44.28125 44.578125 
Q 40.484375 46.53125 36.375 47.5 
Q 32.28125 48.484375 27.875 48.484375 
Q 21.1875 48.484375 17.84375 46.4375 
Q 14.5 44.390625 14.5 40.28125 
Q 14.5 37.15625 16.890625 35.375 
Q 19.28125 33.59375 26.515625 31.984375 
L 29.59375 31.296875 
Q 39.15625 29.25 43.1875 25.515625 
Q 47.21875 21.78125 47.21875 15.09375 
Q 47.21875 7.46875 41.1875 3.015625 
Q 35.15625 -1.421875 24.609375 -1.421875 
Q 20.21875 -1.421875 15.453125 -0.5625 
Q 10.6875 0.296875 5.421875 2 
L 5.421875 11.28125 
Q 10.40625 8.6875 15.234375 7.390625 
Q 20.0625 6.109375 24.8125 6.109375 
Q 31.15625 6.109375 34.5625 8.28125 
Q 37.984375 10.453125 37.984375 14.40625 
Q 37.984375 18.0625 35.515625 20.015625 
Q 33.0625 21.96875 24.703125 23.78125 
L 21.578125 24.515625 
Q 13.234375 26.265625 9.515625 29.90625 
Q 5.8125 33.546875 5.8125 39.890625 
Q 5.8125 47.609375 11.28125 51.796875 
Q 16.75 56 26.8125 56 
Q 31.78125 56 36.171875 55.265625 
Q 40.578125 54.546875 44.28125 53.078125 
z
" id="DejaVuSans-115"/>
      <path d="M 54.890625 33.015625 
L 54.890625 0 
L 45.90625 0 
L 45.90625 32.71875 
Q 45.90625 40.484375 42.875 44.328125 
Q 39.84375 48.1875 33.796875 48.1875 
Q 26.515625 48.1875 22.3125 43.546875 
Q 18.109375 38.921875 18.109375 30.90625 
L 18.109375 0 
L 9.078125 0 
L 9.078125 75.984375 
L 18.109375 75.984375 
L 18.109375 46.1875 
Q 21.34375 51.125 25.703125 53.5625 
Q 30.078125 56 35.796875 56 
Q 45.21875 56 50.046875 50.171875 
Q 54.890625 44.34375 54.890625 33.015625 
z
" id="DejaVuSans-104"/>
      <path d="M 54.890625 33.015625 
L 54.890625 0 
L 45.90625 0 
L 45.90625 32.71875 
Q 45.90625 40.484375 42.875 44.328125 
Q 39.84375 48.1875 33.796875 48.1875 
Q 26.515625 48.1875 22.3125 43.546875 
Q 18.109375 38.921875 18.109375 30.90625 
L 18.109375 0 
L 9.078125 0 
L 9.078125 54.6875 
L 18.109375 54.6875 
L 18.109375 46.1875 
Q 21.34375 51.125 25.703125 53.5625 
Q 30.078125 56 35.796875 56 
Q 45.21875 56 50.046875 50.171875 
Q 54.890625 44.34375 54.890625 33.015625 
z
" id="DejaVuSans-110"/>
      <path d="M 17.921875 72.90625 
L 17.921875 45.796875 
L 9.625 45.796875 
L 9.625 72.90625 
z
" id="DejaVuSans-39"/>
      <path d="M 9.8125 72.90625 
L 23.09375 72.90625 
L 55.421875 11.921875 
L 55.421875 72.90625 
L 64.984375 72.90625 
L 64.984375 0 
L 51.703125 0 
L 19.390625 60.984375 
L 19.390625 0 
L 9.8125 0 
z
" id="DejaVuSans-78"/>
      <path d="M 34.28125 27.484375 
Q 23.390625 27.484375 19.1875 25 
Q 14.984375 22.515625 14.984375 16.5 
Q 14.984375 11.71875 18.140625 8.90625 
Q 21.296875 6.109375 26.703125 6.109375 
Q 34.1875 6.109375 38.703125 11.40625 
Q 43.21875 16.703125 43.21875 25.484375 
L 43.21875 27.484375 
z
M 52.203125 31.203125 
L 52.203125 0 
L 43.21875 0 
L 43.21875 8.296875 
Q 40.140625 3.328125 35.546875 0.953125 
Q 30.953125 -1.421875 24.3125 -1.421875 
Q 15.921875 -1.421875 10.953125 3.296875 
Q 6 8.015625 6 15.921875 
Q 6 25.140625 12.171875 29.828125 
Q 18.359375 34.515625 30.609375 34.515625 
L 43.21875 34.515625 
L 43.21875 35.40625 
Q 43.21875 41.609375 39.140625 45 
Q 35.0625 48.390625 27.6875 48.390625 
Q 23 48.390625 18.546875 47.265625 
Q 14.109375 46.140625 10.015625 43.890625 
L 10.015625 52.203125 
Q 14.9375 54.109375 19.578125 55.046875 
Q 24.21875 56 28.609375 56 
Q 40.484375 56 46.34375 49.84375 
Q 52.203125 43.703125 52.203125 31.203125 
z
" id="DejaVuSans-97"/>
      <path d="M 2.984375 54.6875 
L 12.5 54.6875 
L 29.59375 8.796875 
L 46.6875 54.6875 
L 56.203125 54.6875 
L 35.6875 0 
L 23.484375 0 
z
" id="DejaVuSans-118"/>
      <path d="M 30.609375 48.390625 
Q 23.390625 48.390625 19.1875 42.75 
Q 14.984375 37.109375 14.984375 27.296875 
Q 14.984375 17.484375 19.15625 11.84375 
Q 23.34375 6.203125 30.609375 6.203125 
Q 37.796875 6.203125 41.984375 11.859375 
Q 46.1875 17.53125 46.1875 27.296875 
Q 46.1875 37.015625 41.984375 42.703125 
Q 37.796875 48.390625 30.609375 48.390625 
z
M 30.609375 56 
Q 42.328125 56 49.015625 48.375 
Q 55.71875 40.765625 55.71875 27.296875 
Q 55.71875 13.875 49.015625 6.21875 
Q 42.328125 -1.421875 30.609375 -1.421875 
Q 18.84375 -1.421875 12.171875 6.21875 
Q 5.515625 13.875 5.515625 27.296875 
Q 5.515625 40.765625 12.171875 48.375 
Q 18.84375 56 30.609375 56 
z
" id="DejaVuSans-111"/>
      <path d="M 9.421875 75.984375 
L 18.40625 75.984375 
L 18.40625 0 
L 9.421875 0 
z
" id="DejaVuSans-108"/>
      <path d="M 18.3125 70.21875 
L 18.3125 54.6875 
L 36.8125 54.6875 
L 36.8125 47.703125 
L 18.3125 47.703125 
L 18.3125 18.015625 
Q 18.3125 11.328125 20.140625 9.421875 
Q 21.96875 7.515625 27.59375 7.515625 
L 36.8125 7.515625 
L 36.8125 0 
L 27.59375 0 
Q 17.1875 0 13.234375 3.875 
Q 9.28125 7.765625 9.28125 18.015625 
L 9.28125 47.703125 
L 2.6875 47.703125 
L 2.6875 54.6875 
L 9.28125 54.6875 
L 9.28125 70.21875 
z
" id="DejaVuSans-116"/>
      <path d="M 32.171875 -5.078125 
Q 28.375 -14.84375 24.75 -17.8125 
Q 21.140625 -20.796875 15.09375 -20.796875 
L 7.90625 -20.796875 
L 7.90625 -13.28125 
L 13.1875 -13.28125 
Q 16.890625 -13.28125 18.9375 -11.515625 
Q 21 -9.765625 23.484375 -3.21875 
L 25.09375 0.875 
L 2.984375 54.6875 
L 12.5 54.6875 
L 29.59375 11.921875 
L 46.6875 54.6875 
L 56.203125 54.6875 
z
" id="DejaVuSans-121"/>
      <path d="M 8.5 21.578125 
L 8.5 54.6875 
L 17.484375 54.6875 
L 17.484375 21.921875 
Q 17.484375 14.15625 20.5 10.265625 
Q 23.53125 6.390625 29.59375 6.390625 
Q 36.859375 6.390625 41.078125 11.03125 
Q 45.3125 15.671875 45.3125 23.6875 
L 45.3125 54.6875 
L 54.296875 54.6875 
L 54.296875 0 
L 45.3125 0 
L 45.3125 8.40625 
Q 42.046875 3.421875 37.71875 1 
Q 33.40625 -1.421875 27.6875 -1.421875 
Q 18.265625 -1.421875 13.375 4.4375 
Q 8.5 10.296875 8.5 21.578125 
z
M 31.109375 56 
z
" id="DejaVuSans-117"/>
     </defs>
     <use xlink:href="#DejaVuSans-70"/>
     <use x="50.269531" xlink:href="#DejaVuSans-105"/>
     <use x="78.052734" xlink:href="#DejaVuSans-115"/>
     <use x="130.152344" xlink:href="#DejaVuSans-104"/>
     <use x="193.53125" xlink:href="#DejaVuSans-105"/>
     <use x="221.314453" xlink:href="#DejaVuSans-110"/>
     <use x="284.693359" xlink:href="#DejaVuSans-39"/>
     <use x="312.183594" xlink:href="#DejaVuSans-32"/>
     <use x="343.970703" xlink:href="#DejaVuSans-78"/>
     <use x="418.775391" xlink:href="#DejaVuSans-97"/>
     <use x="480.054688" xlink:href="#DejaVuSans-105"/>
     <use x="507.837891" xlink:href="#DejaVuSans-118"/>
     <use x="567.017578" xlink:href="#DejaVuSans-101"/>
     <use x="628.541016" xlink:href="#DejaVuSans-32"/>
     <use x="660.328125" xlink:href="#DejaVuSans-78"/>
     <use x="735.132812" xlink:href="#DejaVuSans-111"/>
     <use x="796.314453" xlink:href="#DejaVuSans-118"/>
     <use x="855.494141" xlink:href="#DejaVuSans-101"/>
     <use x="917.017578" xlink:href="#DejaVuSans-108"/>
     <use x="944.800781" xlink:href="#DejaVuSans-116"/>
     <use x="984.009766" xlink:href="#DejaVuSans-121"/>
     <use x="1043.189453" xlink:href="#DejaVuSans-32"/>
     <use x="1074.976562" xlink:href="#DejaVuSans-70"/>
     <use x="1126.996094" xlink:href="#DejaVuSans-117"/>
     <use x="1190.375" xlink:href="#DejaVuSans-110"/>
     <use x="1253.753906" xlink:href="#DejaVuSans-99"/>
     <use x="1308.734375" xlink:href="#DejaVuSans-116"/>
     <use x="1347.943359" xlink:href="#DejaVuSans-105"/>
     <use x="1375.726562" xlink:href="#DejaVuSans-111"/>
     <use x="1436.908203" xlink:href="#DejaVuSans-110"/>
    </g>
   </g>
  </g>
  <g id="axes_2">
   <g id="patch_7">
    <path d="M 39.65 399.718125 
L 705.925 399.718125 
L 705.925 239.918125 
L 39.65 239.918125 
z
" style="fill:#ffffff;"/>
   </g>
   <g id="matplotlib.axis_3">
    <g id="xtick_7">
     <g id="line2d_13">
      <g>
       <use style="stroke:#000000;stroke-width:0.8;" x="69.935227" xlink:href="#m2b3d120452" y="399.718125"/>
      </g>
     </g>
     <g id="text_14">
      <!-- 0 -->
      <g transform="translate(66.753977 414.316562)scale(0.1 -0.1)">
       <use xlink:href="#DejaVuSans-48"/>
      </g>
     </g>
    </g>
    <g id="xtick_8">
     <g id="line2d_14">
      <g>
       <use style="stroke:#000000;stroke-width:0.8;" x="192.258876" xlink:href="#m2b3d120452" y="399.718125"/>
      </g>
     </g>
     <g id="text_15">
      <!-- 1 -->
      <g transform="translate(189.077626 414.316562)scale(0.1 -0.1)">
       <use xlink:href="#DejaVuSans-49"/>
      </g>
     </g>
    </g>
    <g id="xtick_9">
     <g id="line2d_15">
      <g>
       <use style="stroke:#000000;stroke-width:0.8;" x="314.582524" xlink:href="#m2b3d120452" y="399.718125"/>
      </g>
     </g>
     <g id="text_16">
      <!-- 2 -->
      <g transform="translate(311.401274 414.316562)scale(0.1 -0.1)">
       <use xlink:href="#DejaVuSans-50"/>
      </g>
     </g>
    </g>
    <g id="xtick_10">
     <g id="line2d_16">
      <g>
       <use style="stroke:#000000;stroke-width:0.8;" x="436.906172" xlink:href="#m2b3d120452" y="399.718125"/>
      </g>
     </g>
     <g id="text_17">
      <!-- 3 -->
      <g transform="translate(433.724922 414.316562)scale(0.1 -0.1)">
       <use xlink:href="#DejaVuSans-51"/>
      </g>
     </g>
    </g>
    <g id="xtick_11">
     <g id="line2d_17">
      <g>
       <use style="stroke:#000000;stroke-width:0.8;" x="559.229821" xlink:href="#m2b3d120452" y="399.718125"/>
      </g>
     </g>
     <g id="text_18">
      <!-- 4 -->
      <g transform="translate(556.048571 414.316562)scale(0.1 -0.1)">
       <use xlink:href="#DejaVuSans-52"/>
      </g>
     </g>
    </g>
    <g id="xtick_12">
     <g id="line2d_18">
      <g>
       <use style="stroke:#000000;stroke-width:0.8;" x="681.553469" xlink:href="#m2b3d120452" y="399.718125"/>
      </g>
     </g>
     <g id="text_19">
      <!-- 5 -->
      <g transform="translate(678.372219 414.316562)scale(0.1 -0.1)">
       <use xlink:href="#DejaVuSans-53"/>
      </g>
     </g>
    </g>
   </g>
   <g id="matplotlib.axis_4">
    <g id="ytick_6">
     <g id="line2d_19">
      <g>
       <use style="stroke:#000000;stroke-width:0.8;" x="39.65" xlink:href="#m44c68552a7" y="395.073849"/>
      </g>
     </g>
     <g id="text_20">
      <!-- 0 -->
      <g transform="translate(26.2875 398.873068)scale(0.1 -0.1)">
       <use xlink:href="#DejaVuSans-48"/>
      </g>
     </g>
    </g>
    <g id="ytick_7">
     <g id="line2d_20">
      <g>
       <use style="stroke:#000000;stroke-width:0.8;" x="39.65" xlink:href="#m44c68552a7" y="359.754053"/>
      </g>
     </g>
     <g id="text_21">
      <!-- 20 -->
      <g transform="translate(19.925 363.553272)scale(0.1 -0.1)">
       <use xlink:href="#DejaVuSans-50"/>
       <use x="63.623047" xlink:href="#DejaVuSans-48"/>
      </g>
     </g>
    </g>
    <g id="ytick_8">
     <g id="line2d_21">
      <g>
       <use style="stroke:#000000;stroke-width:0.8;" x="39.65" xlink:href="#m44c68552a7" y="324.434258"/>
      </g>
     </g>
     <g id="text_22">
      <!-- 40 -->
      <g transform="translate(19.925 328.233476)scale(0.1 -0.1)">
       <use xlink:href="#DejaVuSans-52"/>
       <use x="63.623047" xlink:href="#DejaVuSans-48"/>
      </g>
     </g>
    </g>
    <g id="ytick_9">
     <g id="line2d_22">
      <g>
       <use style="stroke:#000000;stroke-width:0.8;" x="39.65" xlink:href="#m44c68552a7" y="289.114462"/>
      </g>
     </g>
     <g id="text_23">
      <!-- 60 -->
      <g transform="translate(19.925 292.913681)scale(0.1 -0.1)">
       <defs>
        <path d="M 33.015625 40.375 
Q 26.375 40.375 22.484375 35.828125 
Q 18.609375 31.296875 18.609375 23.390625 
Q 18.609375 15.53125 22.484375 10.953125 
Q 26.375 6.390625 33.015625 6.390625 
Q 39.65625 6.390625 43.53125 10.953125 
Q 47.40625 15.53125 47.40625 23.390625 
Q 47.40625 31.296875 43.53125 35.828125 
Q 39.65625 40.375 33.015625 40.375 
z
M 52.59375 71.296875 
L 52.59375 62.3125 
Q 48.875 64.0625 45.09375 64.984375 
Q 41.3125 65.921875 37.59375 65.921875 
Q 27.828125 65.921875 22.671875 59.328125 
Q 17.53125 52.734375 16.796875 39.40625 
Q 19.671875 43.65625 24.015625 45.921875 
Q 28.375 48.1875 33.59375 48.1875 
Q 44.578125 48.1875 50.953125 41.515625 
Q 57.328125 34.859375 57.328125 23.390625 
Q 57.328125 12.15625 50.6875 5.359375 
Q 44.046875 -1.421875 33.015625 -1.421875 
Q 20.359375 -1.421875 13.671875 8.265625 
Q 6.984375 17.96875 6.984375 36.375 
Q 6.984375 53.65625 15.1875 63.9375 
Q 23.390625 74.21875 37.203125 74.21875 
Q 40.921875 74.21875 44.703125 73.484375 
Q 48.484375 72.75 52.59375 71.296875 
z
" id="DejaVuSans-54"/>
       </defs>
       <use xlink:href="#DejaVuSans-54"/>
       <use x="63.623047" xlink:href="#DejaVuSans-48"/>
      </g>
     </g>
    </g>
    <g id="ytick_10">
     <g id="line2d_23">
      <g>
       <use style="stroke:#000000;stroke-width:0.8;" x="39.65" xlink:href="#m44c68552a7" y="253.794667"/>
      </g>
     </g>
     <g id="text_24">
      <!-- 80 -->
      <g transform="translate(19.925 257.593885)scale(0.1 -0.1)">
       <defs>
        <path d="M 31.78125 34.625 
Q 24.75 34.625 20.71875 30.859375 
Q 16.703125 27.09375 16.703125 20.515625 
Q 16.703125 13.921875 20.71875 10.15625 
Q 24.75 6.390625 31.78125 6.390625 
Q 38.8125 6.390625 42.859375 10.171875 
Q 46.921875 13.96875 46.921875 20.515625 
Q 46.921875 27.09375 42.890625 30.859375 
Q 38.875 34.625 31.78125 34.625 
z
M 21.921875 38.8125 
Q 15.578125 40.375 12.03125 44.71875 
Q 8.5 49.078125 8.5 55.328125 
Q 8.5 64.0625 14.71875 69.140625 
Q 20.953125 74.21875 31.78125 74.21875 
Q 42.671875 74.21875 48.875 69.140625 
Q 55.078125 64.0625 55.078125 55.328125 
Q 55.078125 49.078125 51.53125 44.71875 
Q 48 40.375 41.703125 38.8125 
Q 48.828125 37.15625 52.796875 32.3125 
Q 56.78125 27.484375 56.78125 20.515625 
Q 56.78125 9.90625 50.3125 4.234375 
Q 43.84375 -1.421875 31.78125 -1.421875 
Q 19.734375 -1.421875 13.25 4.234375 
Q 6.78125 9.90625 6.78125 20.515625 
Q 6.78125 27.484375 10.78125 32.3125 
Q 14.796875 37.15625 21.921875 38.8125 
z
M 18.3125 54.390625 
Q 18.3125 48.734375 21.84375 45.5625 
Q 25.390625 42.390625 31.78125 42.390625 
Q 38.140625 42.390625 41.71875 45.5625 
Q 45.3125 48.734375 45.3125 54.390625 
Q 45.3125 60.0625 41.71875 63.234375 
Q 38.140625 66.40625 31.78125 66.40625 
Q 25.390625 66.40625 21.84375 63.234375 
Q 18.3125 60.0625 18.3125 54.390625 
z
" id="DejaVuSans-56"/>
       </defs>
       <use xlink:href="#DejaVuSans-56"/>
       <use x="63.623047" xlink:href="#DejaVuSans-48"/>
      </g>
     </g>
    </g>
   </g>
   <g id="line2d_24">
    <path clip-path="url(#pc9950252f5)" d="M 69.935227 383.365816 
L 70.645315 386.174081 
L 71.355402 390.698095 
L 72.065489 390.257593 
L 72.775577 390.014711 
L 74.195752 388.820606 
L 74.905839 385.113124 
L 75.615926 374.787111 
L 77.036101 350.106198 
L 77.746189 340.653041 
L 78.456276 319.981197 
L 79.166363 303.225322 
L 79.876451 297.146886 
L 80.586538 308.219049 
L 81.296626 335.510069 
L 82.006713 356.468565 
L 82.7168 370.378554 
L 83.426888 363.284029 
L 84.136975 385.657394 
L 84.847063 391.342713 
L 85.55715 390.891147 
L 86.267237 388.347654 
L 86.977325 385.003226 
L 87.687412 382.438767 
L 88.397499 366.225353 
L 89.107587 382.813798 
L 89.817674 385.929462 
L 90.527762 390.988845 
L 91.237849 392.454489 
L 92.658024 388.529338 
L 93.368111 389.977203 
L 94.078199 389.414721 
L 94.788286 387.160161 
L 95.498373 385.849337 
L 96.208461 375.439799 
L 96.918548 370.120894 
L 97.628636 370.130513 
L 98.338723 355.737408 
L 99.04881 348.949817 
L 99.758898 346.007033 
L 100.468985 344.645164 
L 101.179073 341.654314 
L 101.88916 341.224013 
L 102.599247 346.870342 
L 103.309335 361.665694 
L 104.019422 373.479725 
L 104.729509 374.135534 
L 105.439597 371.239976 
L 106.149684 378.713277 
L 106.859772 384.040594 
L 107.569859 384.772186 
L 108.279946 383.609085 
L 108.990034 380.238165 
L 109.700121 375.864397 
L 110.410209 377.272225 
L 111.120296 382.071136 
L 111.830383 381.939233 
L 112.540471 382.665711 
L 113.250558 385.323949 
L 113.960646 382.015804 
L 114.670733 385.120023 
L 115.38082 389.155926 
L 116.090908 384.971165 
L 116.800995 372.091587 
L 117.511083 354.222153 
L 118.22117 345.919969 
L 118.931257 346.18641 
L 119.641345 335.562803 
L 120.351432 305.330919 
L 121.06152 281.778636 
L 121.771607 268.834605 
L 122.481694 267.102955 
L 123.191782 279.639624 
L 123.901869 288.106423 
L 124.611956 298.381237 
L 125.322044 323.898763 
L 126.742219 384.038524 
L 127.452306 391.418693 
L 128.162393 390.709251 
L 128.872481 387.547973 
L 129.582568 388.488755 
L 130.292656 388.580935 
L 131.002743 387.48716 
L 131.71283 383.508933 
L 132.422918 380.999179 
L 133.133005 379.873045 
L 133.843093 379.339262 
L 135.263267 369.003468 
L 135.973355 364.651782 
L 136.683442 361.824761 
L 137.39353 369.179305 
L 138.103617 370.045991 
L 138.813704 366.705815 
L 139.523792 360.931622 
L 140.233879 358.967493 
L 140.943966 371.438706 
L 141.654054 375.851058 
L 142.364141 377.716014 
L 143.074229 380.429294 
L 143.784316 379.242667 
L 144.494403 375.59599 
L 145.204491 380.897454 
L 145.914578 385.058077 
L 146.624666 386.543215 
L 147.334753 386.668853 
L 148.04484 380.361541 
L 148.754928 375.198372 
L 149.465015 381.619641 
L 150.175103 378.57606 
L 151.595277 379.990305 
L 152.305365 376.216887 
L 153.015452 373.719133 
L 153.72554 379.678166 
L 154.435627 381.825452 
L 155.145714 382.12984 
L 155.855802 380.683962 
L 156.565889 374.985066 
L 157.275977 364.436361 
L 157.986064 363.111 
L 158.696151 360.421451 
L 159.406239 358.526464 
L 160.116326 359.637217 
L 160.826413 363.243342 
L 161.536501 369.447593 
L 162.246588 374.579961 
L 162.956676 376.856206 
L 163.666763 377.764988 
L 164.37685 380.451765 
L 165.086938 378.670491 
L 165.797025 372.686371 
L 166.507113 376.376041 
L 167.2172 381.915589 
L 167.927287 383.477578 
L 168.637375 388.80831 
L 169.347462 389.79217 
L 170.05755 389.977612 
L 170.767637 391.417297 
L 171.477724 389.964673 
L 172.187812 390.7566 
L 172.897899 388.744543 
L 173.607987 386.261812 
L 174.318074 385.224326 
L 175.028161 387.381822 
L 175.738249 386.580127 
L 176.448336 383.497812 
L 177.158423 385.552683 
L 177.868511 384.546621 
L 178.578598 379.409657 
L 179.288686 384.399568 
L 179.998773 385.01896 
L 180.70886 380.69018 
L 181.418948 384.055587 
L 182.129035 382.760212 
L 182.839123 379.984004 
L 183.54921 382.766585 
L 184.259297 381.146949 
L 184.969385 375.413728 
L 185.679472 384.122318 
L 186.38956 386.326106 
L 187.099647 381.594116 
L 187.809734 388.852396 
L 188.519822 386.055894 
L 189.229909 380.411866 
L 189.939997 386.0057 
L 190.650084 386.296036 
L 191.360171 382.684166 
L 192.070259 386.429686 
L 192.780346 383.620035 
L 193.490433 379.122834 
L 194.200521 388.26407 
L 194.910608 390.968399 
L 195.620696 385.902892 
L 196.330783 391.502228 
L 197.04087 388.157156 
L 197.750958 383.893055 
L 198.461045 382.280466 
L 199.171133 379.142585 
L 199.88122 373.928869 
L 200.591307 373.625319 
L 201.301395 369.330445 
L 202.011482 357.367141 
L 202.72157 349.016117 
L 203.431657 337.15396 
L 204.141744 333.809571 
L 204.851832 342.329509 
L 205.561919 352.240041 
L 206.272007 352.75342 
L 206.982094 360.484093 
L 207.692181 360.430589 
L 208.402269 374.75207 
L 209.112356 382.566672 
L 209.822444 382.712255 
L 211.242618 376.701665 
L 211.952706 380.510379 
L 212.662793 380.928577 
L 213.37288 387.059302 
L 214.082968 387.021062 
L 214.793055 382.352391 
L 215.503143 380.640366 
L 216.21323 363.320962 
L 216.923317 383.482694 
L 217.633405 382.144021 
L 218.343492 382.344139 
L 219.05358 376.210419 
L 219.763667 372.53552 
L 220.473754 362.213432 
L 221.183842 372.637862 
L 221.893929 379.710382 
L 222.604017 379.147163 
L 223.314104 372.288051 
L 224.024191 371.157303 
L 224.734279 373.086697 
L 225.444366 373.926996 
L 226.154454 373.850001 
L 226.864541 372.532544 
L 227.574628 365.369062 
L 228.284716 366.311239 
L 228.994803 372.131634 
L 229.70489 376.634555 
L 230.414978 379.310459 
L 231.125065 378.197694 
L 231.835153 377.448229 
L 232.54524 383.816182 
L 233.255327 387.402303 
L 233.965415 388.949451 
L 234.675502 389.844946 
L 235.38559 385.675717 
L 236.095677 387.620591 
L 236.805764 390.012505 
L 237.515852 388.423527 
L 238.225939 387.918872 
L 238.936027 386.138979 
L 239.646114 377.394083 
L 240.356201 373.141974 
L 241.066289 369.95086 
L 241.776376 364.480487 
L 242.486464 361.058091 
L 243.196551 358.286758 
L 243.906638 353.12208 
L 245.326813 364.169526 
L 246.036901 364.299489 
L 246.746988 365.346983 
L 247.457075 367.530763 
L 248.167163 368.763751 
L 249.587337 378.797611 
L 250.297425 382.366454 
L 251.007512 384.396741 
L 251.7176 384.276544 
L 252.427687 382.734453 
L 253.137774 378.16862 
L 253.847862 376.140763 
L 255.978124 384.671019 
L 256.688211 385.010719 
L 257.398299 390.427776 
L 258.108386 390.115918 
L 258.818474 386.41977 
L 259.528561 381.306162 
L 260.238648 379.90529 
L 260.948736 378.983205 
L 261.658823 371.658296 
L 262.368911 357.748969 
L 263.078998 346.294096 
L 263.789085 339.808562 
L 265.20926 323.23628 
L 265.919347 326.975011 
L 266.629435 333.252965 
L 269.469784 363.651743 
L 270.179872 369.01476 
L 270.889959 372.390445 
L 272.310134 382.736511 
L 273.020221 380.435459 
L 273.730309 379.213974 
L 274.440396 378.547986 
L 275.150484 383.043528 
L 275.860571 381.940456 
L 276.570658 378.849961 
L 277.280746 378.349106 
L 277.990833 373.184617 
L 278.700921 371.623872 
L 279.411008 369.777205 
L 280.121095 367.145354 
L 280.831183 368.567784 
L 281.54127 371.919583 
L 282.251358 370.742324 
L 282.961445 371.499582 
L 284.38162 374.042065 
L 285.091707 366.312264 
L 285.801794 338.547904 
L 286.511882 315.899261 
L 287.221969 314.253969 
L 287.932057 320.637655 
L 288.642144 338.063817 
L 289.352231 346.774984 
L 290.062319 337.19903 
L 290.772406 366.401553 
L 291.482494 386.544919 
L 292.192581 389.818047 
L 292.902668 391.443547 
L 293.612756 390.665672 
L 294.322843 385.601689 
L 295.032931 384.970119 
L 295.743018 388.005051 
L 296.453105 388.123679 
L 297.163193 388.457663 
L 297.87328 389.32099 
L 298.583368 385.296611 
L 299.293455 384.165523 
L 300.003542 388.446741 
L 300.71363 389.851325 
L 301.423717 388.99928 
L 302.133804 389.723622 
L 302.843892 385.969918 
L 303.553979 389.636485 
L 304.264067 391.311843 
L 304.974154 390.51964 
L 305.684241 386.943735 
L 306.394329 381.047754 
L 307.104416 373.342643 
L 307.814504 372.121858 
L 308.524591 372.500978 
L 309.234678 372.402488 
L 309.944766 369.34291 
L 310.654853 361.415217 
L 311.364941 359.626521 
L 312.075028 365.330163 
L 312.785115 365.489299 
L 313.495203 368.612655 
L 314.20529 368.457399 
L 314.915378 370.419253 
L 315.625465 367.989913 
L 316.335552 373.161669 
L 317.04564 375.232638 
L 317.755727 379.043931 
L 318.465815 372.942947 
L 319.175902 380.554726 
L 319.885989 378.872766 
L 321.306164 387.179859 
L 322.016251 386.682446 
L 322.726339 381.133834 
L 323.436426 384.255098 
L 324.146514 382.799618 
L 324.856601 384.035236 
L 325.566688 382.111945 
L 327.696951 359.016212 
L 328.407038 353.662252 
L 329.117125 353.424464 
L 329.827213 350.499961 
L 330.5373 351.027714 
L 331.957475 368.737285 
L 333.37765 383.290108 
L 334.087737 386.112976 
L 334.797825 388.094708 
L 335.507912 389.401659 
L 336.928087 388.351003 
L 338.348261 383.389637 
L 339.058349 382.71321 
L 339.768436 386.920274 
L 340.478524 387.123284 
L 341.188611 384.402808 
L 341.898698 387.699667 
L 342.608786 387.396192 
L 343.318873 382.858866 
L 344.028961 386.563878 
L 344.739048 383.166122 
L 345.449135 379.135842 
L 346.159223 376.672884 
L 346.86931 371.820365 
L 347.579398 363.370515 
L 348.289485 362.925533 
L 348.999572 361.903568 
L 349.70966 356.934203 
L 350.419747 366.371481 
L 351.129835 370.517006 
L 351.839922 369.589215 
L 352.550009 380.400205 
L 353.260097 385.728382 
L 353.970184 385.429756 
L 354.680272 389.59078 
L 355.390359 388.63446 
L 356.100446 388.042351 
L 356.810534 388.9663 
L 357.520621 389.108638 
L 358.230708 387.556945 
L 358.940796 389.214273 
L 359.650883 384.683136 
L 360.360971 376.080144 
L 361.071058 385.462089 
L 361.781145 386.057961 
L 362.491233 379.405082 
L 363.20132 380.285488 
L 363.911408 374.160213 
L 364.621495 372.080918 
L 365.331582 381.172008 
L 366.04167 383.382245 
L 366.751757 382.082312 
L 367.461845 383.363931 
L 368.882019 353.397468 
L 369.592107 350.860102 
L 370.302194 347.317986 
L 371.012282 347.42099 
L 371.722369 349.126332 
L 372.432456 350.397544 
L 373.142544 345.547772 
L 373.852631 372.487412 
L 374.562718 389.269271 
L 375.272806 390.336612 
L 375.982893 389.196147 
L 376.692981 386.704752 
L 377.403068 385.668429 
L 378.113155 386.972449 
L 378.823243 386.94272 
L 379.53333 388.079593 
L 380.243418 387.449398 
L 380.953505 388.0787 
L 381.663592 390.263765 
L 382.37368 383.659988 
L 383.083767 371.0697 
L 383.793855 366.849918 
L 384.503942 370.027716 
L 385.924117 380.070359 
L 386.634204 382.969422 
L 387.344292 380.594942 
L 388.054379 373.649082 
L 388.764466 372.116647 
L 390.184641 367.697807 
L 390.894728 367.843763 
L 391.604816 370.296211 
L 392.314903 368.928605 
L 393.024991 370.865717 
L 393.735078 373.366328 
L 394.445165 378.075408 
L 395.155253 385.141965 
L 395.86534 387.727507 
L 396.575428 386.874776 
L 397.285515 383.007966 
L 397.995602 380.781018 
L 398.70569 383.167503 
L 399.415777 383.962724 
L 400.125865 383.109593 
L 400.835952 386.16271 
L 401.546039 385.764847 
L 402.256127 385.777069 
L 402.966214 387.945166 
L 403.676302 382.800107 
L 404.386389 387.139893 
L 405.096476 383.405095 
L 405.806564 385.752665 
L 406.516651 384.527346 
L 407.226739 381.009659 
L 407.936826 374.062685 
L 408.646913 361.99099 
L 409.357001 315.315008 
L 410.067088 289.179214 
L 410.777175 282.130003 
L 411.487263 286.157836 
L 412.19735 298.895689 
L 412.907438 314.465884 
L 413.617525 326.638647 
L 414.327612 329.256459 
L 415.0377 364.960895 
L 415.747787 383.785746 
L 416.457875 387.066135 
L 417.167962 388.069577 
L 417.878049 387.810551 
L 418.588137 384.348429 
L 419.298224 380.11092 
L 420.008312 386.089107 
L 420.718399 390.612844 
L 421.428486 391.72648 
L 422.138574 389.475004 
L 422.848661 379.089904 
L 423.558749 388.163755 
L 424.268836 390.133903 
L 424.978923 389.271308 
L 425.689011 389.184404 
L 426.399098 385.637414 
L 427.109185 384.591473 
L 427.819273 387.164636 
L 428.52936 385.987722 
L 429.239448 383.085122 
L 429.949535 383.28031 
L 430.659622 384.745913 
L 431.36971 384.842325 
L 432.079797 385.075957 
L 432.789885 380.914046 
L 433.499972 379.959159 
L 434.210059 378.622648 
L 434.920147 377.65016 
L 435.630234 375.763063 
L 436.340322 371.654225 
L 437.050409 374.565267 
L 437.760496 378.576978 
L 438.470584 384.629142 
L 439.180671 389.032475 
L 439.890759 392.113141 
L 440.600846 389.847628 
L 441.310933 384.698988 
L 442.021021 387.798479 
L 442.731108 386.707987 
L 443.441196 386.836638 
L 444.151283 387.306521 
L 444.86137 376.372348 
L 445.571458 354.754651 
L 446.281545 341.731666 
L 446.991632 337.967953 
L 447.70172 340.563459 
L 448.411807 338.896386 
L 449.121895 332.794405 
L 449.831982 316.87332 
L 451.252157 265.18329 
L 451.962244 253.997076 
L 453.382419 247.181761 
L 454.092506 250.594313 
L 454.802594 278.559844 
L 455.512681 295.075097 
L 456.932856 371.406321 
L 457.642943 388.908407 
L 458.353031 388.02527 
L 459.063118 391.167203 
L 459.773206 389.495906 
L 461.19338 384.26041 
L 461.903468 389.824231 
L 463.323642 386.655846 
L 464.03373 387.768178 
L 464.743817 387.209745 
L 465.453905 385.630891 
L 466.163992 382.024102 
L 466.874079 376.925526 
L 467.584167 375.737077 
L 468.294254 373.71475 
L 469.714429 366.22866 
L 470.424516 365.173162 
L 471.844691 370.613131 
L 472.554779 372.948461 
L 473.264866 374.490601 
L 473.974953 378.589018 
L 474.685041 381.253358 
L 475.395128 382.61141 
L 476.105216 388.75429 
L 476.815303 387.420973 
L 477.52539 390.623272 
L 478.235478 388.30908 
L 478.945565 384.848122 
L 480.36574 385.577039 
L 481.785915 382.647878 
L 482.496002 382.57924 
L 483.206089 384.78012 
L 483.916177 385.509773 
L 484.626264 384.228572 
L 485.336352 383.186278 
L 486.046439 382.626847 
L 486.756526 386.1529 
L 487.466614 385.009543 
L 488.176701 382.937807 
L 488.886789 379.814866 
L 489.596876 373.402645 
L 490.306963 360.568273 
L 491.017051 352.274511 
L 491.727138 348.403192 
L 492.437226 351.478902 
L 493.147313 360.81012 
L 495.987663 389.247794 
L 496.69775 390.422455 
L 497.407837 389.313169 
L 498.117925 388.913096 
L 498.828012 387.058528 
L 499.538099 387.196026 
L 500.248187 384.389011 
L 500.958274 377.074321 
L 501.668362 376.217448 
L 502.378449 380.539053 
L 503.088536 382.131037 
L 503.798624 384.339735 
L 504.508711 387.568484 
L 505.218799 389.789995 
L 505.928886 390.746492 
L 506.638973 390.766123 
L 507.349061 388.963716 
L 508.059148 388.881799 
L 508.769236 391.17659 
L 509.479323 388.790501 
L 510.899498 380.78134 
L 511.609585 381.110513 
L 512.319673 374.637469 
L 513.02976 370.662508 
L 513.739847 368.250025 
L 514.449935 369.974258 
L 515.160022 374.880748 
L 515.87011 376.929968 
L 516.580197 377.710708 
L 517.290284 380.164803 
L 518.000372 384.276471 
L 518.710459 386.24264 
L 519.420546 387.805771 
L 520.130634 386.088046 
L 520.840721 386.750052 
L 521.550809 387.886965 
L 522.260896 386.907576 
L 522.970983 386.200952 
L 523.681071 386.527106 
L 524.391158 386.632544 
L 525.101246 385.512782 
L 525.811333 382.721065 
L 526.52142 382.29102 
L 527.231508 385.783963 
L 527.941595 386.683494 
L 529.36177 382.93364 
L 530.071857 382.594225 
L 530.781945 385.657435 
L 531.492032 385.333031 
L 533.622294 372.635156 
L 534.332382 358.088425 
L 535.042469 340.319253 
L 535.752556 330.407094 
L 536.462644 334.356886 
L 537.172731 347.22321 
L 537.882819 356.350851 
L 538.592906 351.423704 
L 539.302993 349.949868 
L 540.013081 371.954298 
L 540.723168 380.593706 
L 541.433256 383.923383 
L 542.143343 385.77783 
L 542.85343 385.976298 
L 543.563518 386.581054 
L 544.273605 387.00124 
L 544.983693 386.333149 
L 545.69378 386.434452 
L 546.403867 386.011795 
L 547.113955 386.518434 
L 547.824042 378.406073 
L 548.53413 372.184199 
L 549.244217 373.139508 
L 549.954304 378.569979 
L 550.664392 374.957778 
L 551.374479 365.047229 
L 552.084567 358.779332 
L 552.794654 354.333081 
L 554.214829 337.351896 
L 554.924916 333.964427 
L 555.635003 335.637139 
L 556.345091 350.699335 
L 557.055178 362.653772 
L 557.765266 366.549138 
L 558.475353 361.310335 
L 559.18544 375.599437 
L 559.895528 379.366274 
L 560.605615 380.589964 
L 561.315703 383.722633 
L 562.02579 384.530857 
L 562.735877 383.865511 
L 563.445965 386.916814 
L 564.156052 386.59405 
L 564.86614 385.440379 
L 565.576227 387.691045 
L 566.286314 386.293948 
L 566.996402 385.159888 
L 567.706489 388.193182 
L 568.416577 386.740156 
L 569.126664 383.947933 
L 569.836751 383.949009 
L 570.546839 379.448902 
L 571.256926 382.504161 
L 571.967013 376.462237 
L 572.677101 368.968397 
L 573.387188 363.743704 
L 574.097276 355.560714 
L 574.807363 350.677173 
L 575.51745 351.316259 
L 576.227538 344.989445 
L 576.937625 336.762603 
L 577.647713 338.026083 
L 578.3578 348.831346 
L 579.067887 352.518955 
L 579.777975 365.452285 
L 580.488062 369.848295 
L 581.908237 377.172131 
L 582.618324 378.294185 
L 583.328412 380.861244 
L 584.038499 382.113779 
L 585.458674 379.746196 
L 586.168761 373.948209 
L 586.878849 377.615355 
L 587.588936 373.490192 
L 588.299023 378.769613 
L 589.009111 373.952271 
L 589.719198 352.517418 
L 591.139373 344.346335 
L 591.84946 344.356574 
L 592.559548 353.576046 
L 593.269635 361.171692 
L 593.979723 364.281226 
L 594.68981 372.466533 
L 595.399897 382.86486 
L 596.109985 382.398036 
L 596.820072 383.28025 
L 597.53016 381.376757 
L 598.240247 374.610047 
L 598.950334 381.752826 
L 599.660422 382.839972 
L 600.370509 379.547435 
L 601.080597 386.969294 
L 601.790684 388.194497 
L 602.500771 384.198814 
L 603.210859 387.86827 
L 603.920946 389.897922 
L 604.631034 387.513652 
L 605.341121 388.853825 
L 606.051208 387.416692 
L 606.761296 383.484645 
L 607.471383 387.532799 
L 608.18147 388.268737 
L 608.891558 380.531071 
L 609.601645 386.08301 
L 610.311733 384.931545 
L 611.02182 373.989537 
L 611.731907 371.005001 
L 612.441995 364.20068 
L 613.152082 354.332393 
L 613.86217 351.241238 
L 614.572257 347.259664 
L 615.282344 338.733515 
L 615.992432 348.140245 
L 616.702519 344.38457 
L 617.412607 314.668967 
L 618.122694 302.13515 
L 618.832781 295.828439 
L 619.542869 304.126186 
L 620.252956 321.122617 
L 620.963044 333.419946 
L 621.673131 320.719347 
L 622.383218 341.872936 
L 623.093306 376.795323 
L 623.803393 387.301217 
L 624.51348 390.92137 
L 625.223568 389.357761 
L 625.933655 384.867702 
L 626.643743 382.998625 
L 627.35383 385.81011 
L 629.484092 381.052105 
L 630.19418 380.168905 
L 630.904267 381.479759 
L 631.614354 387.162692 
L 632.324442 383.559336 
L 633.034529 383.188593 
L 633.744617 386.606294 
L 634.454704 385.20452 
L 635.164791 385.409685 
L 635.874879 383.655788 
L 636.584966 376.979794 
L 637.295054 366.202303 
L 638.005141 359.230211 
L 638.715228 357.681812 
L 639.425316 354.69093 
L 640.135403 361.416192 
L 640.845491 362.64995 
L 641.555578 366.276758 
L 642.975753 386.959763 
L 643.68584 390.827581 
L 644.395927 388.772541 
L 645.106015 383.602533 
L 645.816102 380.437083 
L 647.236277 376.174013 
L 647.946364 372.400133 
L 648.656452 371.104716 
L 649.366539 376.878184 
L 650.786714 377.446283 
L 651.496801 376.018324 
L 652.206889 381.739538 
L 652.916976 382.671039 
L 655.047238 381.859206 
L 655.757326 380.820201 
L 656.467413 375.278835 
L 657.887588 358.001078 
L 658.597675 362.124011 
L 659.307763 364.997687 
L 660.01785 368.360618 
L 660.727937 369.134197 
L 662.148112 379.476625 
L 662.8582 381.83669 
L 663.568287 381.281561 
L 664.278374 381.432372 
L 664.988462 380.627229 
L 665.698549 380.830102 
L 666.408637 383.523676 
L 667.118724 384.822252 
L 667.828811 390.273311 
L 668.538899 388.847399 
L 669.248986 388.375043 
L 669.959074 387.050958 
L 670.669161 385.226506 
L 671.379248 385.669297 
L 672.089336 386.605037 
L 672.799423 388.196736 
L 673.509511 388.110374 
L 674.219598 385.961241 
L 674.929685 383.091721 
L 675.639773 381.092108 
L 675.639773 381.092108 
" style="fill:none;stroke:#1f77b4;stroke-linecap:square;stroke-width:1.5;"/>
   </g>
   <g id="patch_8">
    <path d="M 39.65 399.718125 
L 39.65 239.918125 
" style="fill:none;stroke:#000000;stroke-linecap:square;stroke-linejoin:miter;stroke-width:0.8;"/>
   </g>
   <g id="patch_9">
    <path d="M 705.925 399.718125 
L 705.925 239.918125 
" style="fill:none;stroke:#000000;stroke-linecap:square;stroke-linejoin:miter;stroke-width:0.8;"/>
   </g>
   <g id="patch_10">
    <path d="M 39.65 399.718125 
L 705.925 399.718125 
" style="fill:none;stroke:#000000;stroke-linecap:square;stroke-linejoin:miter;stroke-width:0.8;"/>
   </g>
   <g id="patch_11">
    <path d="M 39.65 239.918125 
L 705.925 239.918125 
" style="fill:none;stroke:#000000;stroke-linecap:square;stroke-linejoin:miter;stroke-width:0.8;"/>
   </g>
   <g id="text_25">
    <!-- Fishin' Superflux Novelty Function -->
    <g transform="translate(271.134375 233.918125)scale(0.12 -0.12)">
     <defs>
      <path d="M 18.109375 8.203125 
L 18.109375 -20.796875 
L 9.078125 -20.796875 
L 9.078125 54.6875 
L 18.109375 54.6875 
L 18.109375 46.390625 
Q 20.953125 51.265625 25.265625 53.625 
Q 29.59375 56 35.59375 56 
Q 45.5625 56 51.78125 48.09375 
Q 58.015625 40.1875 58.015625 27.296875 
Q 58.015625 14.40625 51.78125 6.484375 
Q 45.5625 -1.421875 35.59375 -1.421875 
Q 29.59375 -1.421875 25.265625 0.953125 
Q 20.953125 3.328125 18.109375 8.203125 
z
M 48.6875 27.296875 
Q 48.6875 37.203125 44.609375 42.84375 
Q 40.53125 48.484375 33.40625 48.484375 
Q 26.265625 48.484375 22.1875 42.84375 
Q 18.109375 37.203125 18.109375 27.296875 
Q 18.109375 17.390625 22.1875 11.75 
Q 26.265625 6.109375 33.40625 6.109375 
Q 40.53125 6.109375 44.609375 11.75 
Q 48.6875 17.390625 48.6875 27.296875 
z
" id="DejaVuSans-112"/>
      <path d="M 41.109375 46.296875 
Q 39.59375 47.171875 37.8125 47.578125 
Q 36.03125 48 33.890625 48 
Q 26.265625 48 22.1875 43.046875 
Q 18.109375 38.09375 18.109375 28.8125 
L 18.109375 0 
L 9.078125 0 
L 9.078125 54.6875 
L 18.109375 54.6875 
L 18.109375 46.1875 
Q 20.953125 51.171875 25.484375 53.578125 
Q 30.03125 56 36.53125 56 
Q 37.453125 56 38.578125 55.875 
Q 39.703125 55.765625 41.0625 55.515625 
z
" id="DejaVuSans-114"/>
      <path d="M 37.109375 75.984375 
L 37.109375 68.5 
L 28.515625 68.5 
Q 23.6875 68.5 21.796875 66.546875 
Q 19.921875 64.59375 19.921875 59.515625 
L 19.921875 54.6875 
L 34.71875 54.6875 
L 34.71875 47.703125 
L 19.921875 47.703125 
L 19.921875 0 
L 10.890625 0 
L 10.890625 47.703125 
L 2.296875 47.703125 
L 2.296875 54.6875 
L 10.890625 54.6875 
L 10.890625 58.5 
Q 10.890625 67.625 15.140625 71.796875 
Q 19.390625 75.984375 28.609375 75.984375 
z
" id="DejaVuSans-102"/>
      <path d="M 54.890625 54.6875 
L 35.109375 28.078125 
L 55.90625 0 
L 45.3125 0 
L 29.390625 21.484375 
L 13.484375 0 
L 2.875 0 
L 24.125 28.609375 
L 4.6875 54.6875 
L 15.28125 54.6875 
L 29.78125 35.203125 
L 44.28125 54.6875 
z
" id="DejaVuSans-120"/>
     </defs>
     <use xlink:href="#DejaVuSans-70"/>
     <use x="50.269531" xlink:href="#DejaVuSans-105"/>
     <use x="78.052734" xlink:href="#DejaVuSans-115"/>
     <use x="130.152344" xlink:href="#DejaVuSans-104"/>
     <use x="193.53125" xlink:href="#DejaVuSans-105"/>
     <use x="221.314453" xlink:href="#DejaVuSans-110"/>
     <use x="284.693359" xlink:href="#DejaVuSans-39"/>
     <use x="312.183594" xlink:href="#DejaVuSans-32"/>
     <use x="343.970703" xlink:href="#DejaVuSans-83"/>
     <use x="407.447266" xlink:href="#DejaVuSans-117"/>
     <use x="470.826172" xlink:href="#DejaVuSans-112"/>
     <use x="534.302734" xlink:href="#DejaVuSans-101"/>
     <use x="595.826172" xlink:href="#DejaVuSans-114"/>
     <use x="636.939453" xlink:href="#DejaVuSans-102"/>
     <use x="672.144531" xlink:href="#DejaVuSans-108"/>
     <use x="699.927734" xlink:href="#DejaVuSans-117"/>
     <use x="763.306641" xlink:href="#DejaVuSans-120"/>
     <use x="822.486328" xlink:href="#DejaVuSans-32"/>
     <use x="854.273438" xlink:href="#DejaVuSans-78"/>
     <use x="929.078125" xlink:href="#DejaVuSans-111"/>
     <use x="990.259766" xlink:href="#DejaVuSans-118"/>
     <use x="1049.439453" xlink:href="#DejaVuSans-101"/>
     <use x="1110.962891" xlink:href="#DejaVuSans-108"/>
     <use x="1138.746094" xlink:href="#DejaVuSans-116"/>
     <use x="1177.955078" xlink:href="#DejaVuSans-121"/>
     <use x="1237.134766" xlink:href="#DejaVuSans-32"/>
     <use x="1268.921875" xlink:href="#DejaVuSans-70"/>
     <use x="1320.941406" xlink:href="#DejaVuSans-117"/>
     <use x="1384.320312" xlink:href="#DejaVuSans-110"/>
     <use x="1447.699219" xlink:href="#DejaVuSans-99"/>
     <use x="1502.679688" xlink:href="#DejaVuSans-116"/>
     <use x="1541.888672" xlink:href="#DejaVuSans-105"/>
     <use x="1569.671875" xlink:href="#DejaVuSans-111"/>
     <use x="1630.853516" xlink:href="#DejaVuSans-110"/>
    </g>
   </g>
  </g>
 </g>
 <defs>
  <clipPath id="p009d610c90">
   <rect height="159.8" width="666.275" x="39.65" y="22.318125"/>
  </clipPath>
  <clipPath id="pc9950252f5">
   <rect height="159.8" width="666.275" x="39.65" y="239.918125"/>
  </clipPath>
 </defs>
</svg>
