<?xml version="1.0" encoding="utf-8" standalone="no"?>
<!DOCTYPE svg PUBLIC "-//W3C//DTD SVG 1.1//EN"
  "http://www.w3.org/Graphics/SVG/1.1/DTD/svg11.dtd">
<svg xmlns:xlink="http://www.w3.org/1999/xlink" width="712.69pt" height="424.87625pt" viewBox="0 0 712.69 424.87625" xmlns="http://www.w3.org/2000/svg" version="1.1">
 <metadata>
  <rdf:RDF xmlns:dc="http://purl.org/dc/elements/1.1/" xmlns:cc="http://creativecommons.org/ns#" xmlns:rdf="http://www.w3.org/1999/02/22-rdf-syntax-ns#">
   <cc:Work>
    <dc:type rdf:resource="http://purl.org/dc/dcmitype/StillImage"/>
    <dc:date>2023-03-19T13:00:18.953360</dc:date>
    <dc:format>image/svg+xml</dc:format>
    <dc:creator>
     <cc:Agent>
      <dc:title>Matplotlib v3.5.2, https://matplotlib.org/</dc:title>
     </cc:Agent>
    </dc:creator>
   </cc:Work>
  </rdf:RDF>
 </metadata>
 <defs>
  <style type="text/css">*{stroke-linejoin: round; stroke-linecap: butt}</style>
 </defs>
 <g id="figure_1">
  <g id="patch_1">
   <path d="M 0 424.87625 
L 712.69 424.87625 
L 712.69 0 
L 0 0 
z
" style="fill: #ffffff"/>
  </g>
  <g id="axes_1">
   <g id="patch_2">
    <path d="M 39.65 183.358125 
L 705.49 183.358125 
L 705.49 22.318125 
L 39.65 22.318125 
z
" style="fill: #ffffff"/>
   </g>
   <g id="matplotlib.axis_1">
    <g id="xtick_1">
     <g id="line2d_1">
      <defs>
       <path id="m680ccf55e1" d="M 0 0 
L 0 3.5 
" style="stroke: #000000; stroke-width: 0.8"/>
      </defs>
      <g>
       <use xlink:href="#m680ccf55e1" x="69.915455" y="183.358125" style="stroke: #000000; stroke-width: 0.8"/>
      </g>
     </g>
     <g id="text_1">
      <!-- 0 -->
      <g transform="translate(66.734205 197.956562)scale(0.1 -0.1)">
       <defs>
        <path id="DejaVuSans-30" d="M 2034 4250 
Q 1547 4250 1301 3770 
Q 1056 3291 1056 2328 
Q 1056 1369 1301 889 
Q 1547 409 2034 409 
Q 2525 409 2770 889 
Q 3016 1369 3016 2328 
Q 3016 3291 2770 3770 
Q 2525 4250 2034 4250 
z
M 2034 4750 
Q 2819 4750 3233 4129 
Q 3647 3509 3647 2328 
Q 3647 1150 3233 529 
Q 2819 -91 2034 -91 
Q 1250 -91 836 529 
Q 422 1150 422 2328 
Q 422 3509 836 4129 
Q 1250 4750 2034 4750 
z
" transform="scale(0.015625)"/>
       </defs>
       <use xlink:href="#DejaVuSans-30"/>
      </g>
     </g>
    </g>
    <g id="xtick_2">
     <g id="line2d_2">
      <g>
       <use xlink:href="#m680ccf55e1" x="192.15924" y="183.358125" style="stroke: #000000; stroke-width: 0.8"/>
      </g>
     </g>
     <g id="text_2">
      <!-- 1 -->
      <g transform="translate(188.97799 197.956562)scale(0.1 -0.1)">
       <defs>
        <path id="DejaVuSans-31" d="M 794 531 
L 1825 531 
L 1825 4091 
L 703 3866 
L 703 4441 
L 1819 4666 
L 2450 4666 
L 2450 531 
L 3481 531 
L 3481 0 
L 794 0 
L 794 531 
z
" transform="scale(0.015625)"/>
       </defs>
       <use xlink:href="#DejaVuSans-31"/>
      </g>
     </g>
    </g>
    <g id="xtick_3">
     <g id="line2d_3">
      <g>
       <use xlink:href="#m680ccf55e1" x="314.403025" y="183.358125" style="stroke: #000000; stroke-width: 0.8"/>
      </g>
     </g>
     <g id="text_3">
      <!-- 2 -->
      <g transform="translate(311.221775 197.956562)scale(0.1 -0.1)">
       <defs>
        <path id="DejaVuSans-32" d="M 1228 531 
L 3431 531 
L 3431 0 
L 469 0 
L 469 531 
Q 828 903 1448 1529 
Q 2069 2156 2228 2338 
Q 2531 2678 2651 2914 
Q 2772 3150 2772 3378 
Q 2772 3750 2511 3984 
Q 2250 4219 1831 4219 
Q 1534 4219 1204 4116 
Q 875 4013 500 3803 
L 500 4441 
Q 881 4594 1212 4672 
Q 1544 4750 1819 4750 
Q 2544 4750 2975 4387 
Q 3406 4025 3406 3419 
Q 3406 3131 3298 2873 
Q 3191 2616 2906 2266 
Q 2828 2175 2409 1742 
Q 1991 1309 1228 531 
z
" transform="scale(0.015625)"/>
       </defs>
       <use xlink:href="#DejaVuSans-32"/>
      </g>
     </g>
    </g>
    <g id="xtick_4">
     <g id="line2d_4">
      <g>
       <use xlink:href="#m680ccf55e1" x="436.64681" y="183.358125" style="stroke: #000000; stroke-width: 0.8"/>
      </g>
     </g>
     <g id="text_4">
      <!-- 3 -->
      <g transform="translate(433.46556 197.956562)scale(0.1 -0.1)">
       <defs>
        <path id="DejaVuSans-33" d="M 2597 2516 
Q 3050 2419 3304 2112 
Q 3559 1806 3559 1356 
Q 3559 666 3084 287 
Q 2609 -91 1734 -91 
Q 1441 -91 1130 -33 
Q 819 25 488 141 
L 488 750 
Q 750 597 1062 519 
Q 1375 441 1716 441 
Q 2309 441 2620 675 
Q 2931 909 2931 1356 
Q 2931 1769 2642 2001 
Q 2353 2234 1838 2234 
L 1294 2234 
L 1294 2753 
L 1863 2753 
Q 2328 2753 2575 2939 
Q 2822 3125 2822 3475 
Q 2822 3834 2567 4026 
Q 2313 4219 1838 4219 
Q 1578 4219 1281 4162 
Q 984 4106 628 3988 
L 628 4550 
Q 988 4650 1302 4700 
Q 1616 4750 1894 4750 
Q 2613 4750 3031 4423 
Q 3450 4097 3450 3541 
Q 3450 3153 3228 2886 
Q 3006 2619 2597 2516 
z
" transform="scale(0.015625)"/>
       </defs>
       <use xlink:href="#DejaVuSans-33"/>
      </g>
     </g>
    </g>
    <g id="xtick_5">
     <g id="line2d_5">
      <g>
       <use xlink:href="#m680ccf55e1" x="558.890596" y="183.358125" style="stroke: #000000; stroke-width: 0.8"/>
      </g>
     </g>
     <g id="text_5">
      <!-- 4 -->
      <g transform="translate(555.709346 197.956562)scale(0.1 -0.1)">
       <defs>
        <path id="DejaVuSans-34" d="M 2419 4116 
L 825 1625 
L 2419 1625 
L 2419 4116 
z
M 2253 4666 
L 3047 4666 
L 3047 1625 
L 3713 1625 
L 3713 1100 
L 3047 1100 
L 3047 0 
L 2419 0 
L 2419 1100 
L 313 1100 
L 313 1709 
L 2253 4666 
z
" transform="scale(0.015625)"/>
       </defs>
       <use xlink:href="#DejaVuSans-34"/>
      </g>
     </g>
    </g>
    <g id="xtick_6">
     <g id="line2d_6">
      <g>
       <use xlink:href="#m680ccf55e1" x="681.134381" y="183.358125" style="stroke: #000000; stroke-width: 0.8"/>
      </g>
     </g>
     <g id="text_6">
      <!-- 5 -->
      <g transform="translate(677.953131 197.956562)scale(0.1 -0.1)">
       <defs>
        <path id="DejaVuSans-35" d="M 691 4666 
L 3169 4666 
L 3169 4134 
L 1269 4134 
L 1269 2991 
Q 1406 3038 1543 3061 
Q 1681 3084 1819 3084 
Q 2600 3084 3056 2656 
Q 3513 2228 3513 1497 
Q 3513 744 3044 326 
Q 2575 -91 1722 -91 
Q 1428 -91 1123 -41 
Q 819 9 494 109 
L 494 744 
Q 775 591 1075 516 
Q 1375 441 1709 441 
Q 2250 441 2565 725 
Q 2881 1009 2881 1497 
Q 2881 1984 2565 2268 
Q 2250 2553 1709 2553 
Q 1456 2553 1204 2497 
Q 953 2441 691 2322 
L 691 4666 
z
" transform="scale(0.015625)"/>
       </defs>
       <use xlink:href="#DejaVuSans-35"/>
      </g>
     </g>
    </g>
    <g id="text_7">
     <!-- Time (Sec) -->
     <g transform="translate(345.845781 211.634687)scale(0.1 -0.1)">
      <defs>
       <path id="DejaVuSans-54" d="M -19 4666 
L 3928 4666 
L 3928 4134 
L 2272 4134 
L 2272 0 
L 1638 0 
L 1638 4134 
L -19 4134 
L -19 4666 
z
" transform="scale(0.015625)"/>
       <path id="DejaVuSans-69" d="M 603 3500 
L 1178 3500 
L 1178 0 
L 603 0 
L 603 3500 
z
M 603 4863 
L 1178 4863 
L 1178 4134 
L 603 4134 
L 603 4863 
z
" transform="scale(0.015625)"/>
       <path id="DejaVuSans-6d" d="M 3328 2828 
Q 3544 3216 3844 3400 
Q 4144 3584 4550 3584 
Q 5097 3584 5394 3201 
Q 5691 2819 5691 2113 
L 5691 0 
L 5113 0 
L 5113 2094 
Q 5113 2597 4934 2840 
Q 4756 3084 4391 3084 
Q 3944 3084 3684 2787 
Q 3425 2491 3425 1978 
L 3425 0 
L 2847 0 
L 2847 2094 
Q 2847 2600 2669 2842 
Q 2491 3084 2119 3084 
Q 1678 3084 1418 2786 
Q 1159 2488 1159 1978 
L 1159 0 
L 581 0 
L 581 3500 
L 1159 3500 
L 1159 2956 
Q 1356 3278 1631 3431 
Q 1906 3584 2284 3584 
Q 2666 3584 2933 3390 
Q 3200 3197 3328 2828 
z
" transform="scale(0.015625)"/>
       <path id="DejaVuSans-65" d="M 3597 1894 
L 3597 1613 
L 953 1613 
Q 991 1019 1311 708 
Q 1631 397 2203 397 
Q 2534 397 2845 478 
Q 3156 559 3463 722 
L 3463 178 
Q 3153 47 2828 -22 
Q 2503 -91 2169 -91 
Q 1331 -91 842 396 
Q 353 884 353 1716 
Q 353 2575 817 3079 
Q 1281 3584 2069 3584 
Q 2775 3584 3186 3129 
Q 3597 2675 3597 1894 
z
M 3022 2063 
Q 3016 2534 2758 2815 
Q 2500 3097 2075 3097 
Q 1594 3097 1305 2825 
Q 1016 2553 972 2059 
L 3022 2063 
z
" transform="scale(0.015625)"/>
       <path id="DejaVuSans-20" transform="scale(0.015625)"/>
       <path id="DejaVuSans-28" d="M 1984 4856 
Q 1566 4138 1362 3434 
Q 1159 2731 1159 2009 
Q 1159 1288 1364 580 
Q 1569 -128 1984 -844 
L 1484 -844 
Q 1016 -109 783 600 
Q 550 1309 550 2009 
Q 550 2706 781 3412 
Q 1013 4119 1484 4856 
L 1984 4856 
z
" transform="scale(0.015625)"/>
       <path id="DejaVuSans-53" d="M 3425 4513 
L 3425 3897 
Q 3066 4069 2747 4153 
Q 2428 4238 2131 4238 
Q 1616 4238 1336 4038 
Q 1056 3838 1056 3469 
Q 1056 3159 1242 3001 
Q 1428 2844 1947 2747 
L 2328 2669 
Q 3034 2534 3370 2195 
Q 3706 1856 3706 1288 
Q 3706 609 3251 259 
Q 2797 -91 1919 -91 
Q 1588 -91 1214 -16 
Q 841 59 441 206 
L 441 856 
Q 825 641 1194 531 
Q 1563 422 1919 422 
Q 2459 422 2753 634 
Q 3047 847 3047 1241 
Q 3047 1584 2836 1778 
Q 2625 1972 2144 2069 
L 1759 2144 
Q 1053 2284 737 2584 
Q 422 2884 422 3419 
Q 422 4038 858 4394 
Q 1294 4750 2059 4750 
Q 2388 4750 2728 4690 
Q 3069 4631 3425 4513 
z
" transform="scale(0.015625)"/>
       <path id="DejaVuSans-63" d="M 3122 3366 
L 3122 2828 
Q 2878 2963 2633 3030 
Q 2388 3097 2138 3097 
Q 1578 3097 1268 2742 
Q 959 2388 959 1747 
Q 959 1106 1268 751 
Q 1578 397 2138 397 
Q 2388 397 2633 464 
Q 2878 531 3122 666 
L 3122 134 
Q 2881 22 2623 -34 
Q 2366 -91 2075 -91 
Q 1284 -91 818 406 
Q 353 903 353 1747 
Q 353 2603 823 3093 
Q 1294 3584 2113 3584 
Q 2378 3584 2631 3529 
Q 2884 3475 3122 3366 
z
" transform="scale(0.015625)"/>
       <path id="DejaVuSans-29" d="M 513 4856 
L 1013 4856 
Q 1481 4119 1714 3412 
Q 1947 2706 1947 2009 
Q 1947 1309 1714 600 
Q 1481 -109 1013 -844 
L 513 -844 
Q 928 -128 1133 580 
Q 1338 1288 1338 2009 
Q 1338 2731 1133 3434 
Q 928 4138 513 4856 
z
" transform="scale(0.015625)"/>
      </defs>
      <use xlink:href="#DejaVuSans-54"/>
      <use xlink:href="#DejaVuSans-69" x="57.958984"/>
      <use xlink:href="#DejaVuSans-6d" x="85.742188"/>
      <use xlink:href="#DejaVuSans-65" x="183.154297"/>
      <use xlink:href="#DejaVuSans-20" x="244.677734"/>
      <use xlink:href="#DejaVuSans-28" x="276.464844"/>
      <use xlink:href="#DejaVuSans-53" x="315.478516"/>
      <use xlink:href="#DejaVuSans-65" x="378.955078"/>
      <use xlink:href="#DejaVuSans-63" x="440.478516"/>
      <use xlink:href="#DejaVuSans-29" x="495.458984"/>
     </g>
    </g>
   </g>
   <g id="matplotlib.axis_2">
    <g id="ytick_1">
     <g id="line2d_7">
      <defs>
       <path id="mb8301ceb08" d="M 0 0 
L -3.5 0 
" style="stroke: #000000; stroke-width: 0.8"/>
      </defs>
      <g>
       <use xlink:href="#mb8301ceb08" x="39.65" y="170.785538" style="stroke: #000000; stroke-width: 0.8"/>
      </g>
     </g>
     <g id="text_8">
      <!-- 1000 -->
      <g transform="translate(7.2 174.584757)scale(0.1 -0.1)">
       <use xlink:href="#DejaVuSans-31"/>
       <use xlink:href="#DejaVuSans-30" x="63.623047"/>
       <use xlink:href="#DejaVuSans-30" x="127.246094"/>
       <use xlink:href="#DejaVuSans-30" x="190.869141"/>
      </g>
     </g>
    </g>
    <g id="ytick_2">
     <g id="line2d_8">
      <g>
       <use xlink:href="#mb8301ceb08" x="39.65" y="146.129255" style="stroke: #000000; stroke-width: 0.8"/>
      </g>
     </g>
     <g id="text_9">
      <!-- 2000 -->
      <g transform="translate(7.2 149.928474)scale(0.1 -0.1)">
       <use xlink:href="#DejaVuSans-32"/>
       <use xlink:href="#DejaVuSans-30" x="63.623047"/>
       <use xlink:href="#DejaVuSans-30" x="127.246094"/>
       <use xlink:href="#DejaVuSans-30" x="190.869141"/>
      </g>
     </g>
    </g>
    <g id="ytick_3">
     <g id="line2d_9">
      <g>
       <use xlink:href="#mb8301ceb08" x="39.65" y="121.472972" style="stroke: #000000; stroke-width: 0.8"/>
      </g>
     </g>
     <g id="text_10">
      <!-- 3000 -->
      <g transform="translate(7.2 125.272191)scale(0.1 -0.1)">
       <use xlink:href="#DejaVuSans-33"/>
       <use xlink:href="#DejaVuSans-30" x="63.623047"/>
       <use xlink:href="#DejaVuSans-30" x="127.246094"/>
       <use xlink:href="#DejaVuSans-30" x="190.869141"/>
      </g>
     </g>
    </g>
    <g id="ytick_4">
     <g id="line2d_10">
      <g>
       <use xlink:href="#mb8301ceb08" x="39.65" y="96.816689" style="stroke: #000000; stroke-width: 0.8"/>
      </g>
     </g>
     <g id="text_11">
      <!-- 4000 -->
      <g transform="translate(7.2 100.615908)scale(0.1 -0.1)">
       <use xlink:href="#DejaVuSans-34"/>
       <use xlink:href="#DejaVuSans-30" x="63.623047"/>
       <use xlink:href="#DejaVuSans-30" x="127.246094"/>
       <use xlink:href="#DejaVuSans-30" x="190.869141"/>
      </g>
     </g>
    </g>
    <g id="ytick_5">
     <g id="line2d_11">
      <g>
       <use xlink:href="#mb8301ceb08" x="39.65" y="72.160406" style="stroke: #000000; stroke-width: 0.8"/>
      </g>
     </g>
     <g id="text_12">
      <!-- 5000 -->
      <g transform="translate(7.2 75.959625)scale(0.1 -0.1)">
       <use xlink:href="#DejaVuSans-35"/>
       <use xlink:href="#DejaVuSans-30" x="63.623047"/>
       <use xlink:href="#DejaVuSans-30" x="127.246094"/>
       <use xlink:href="#DejaVuSans-30" x="190.869141"/>
      </g>
     </g>
    </g>
    <g id="ytick_6">
     <g id="line2d_12">
      <g>
       <use xlink:href="#mb8301ceb08" x="39.65" y="47.504124" style="stroke: #000000; stroke-width: 0.8"/>
      </g>
     </g>
     <g id="text_13">
      <!-- 6000 -->
      <g transform="translate(7.2 51.303342)scale(0.1 -0.1)">
       <defs>
        <path id="DejaVuSans-36" d="M 2113 2584 
Q 1688 2584 1439 2293 
Q 1191 2003 1191 1497 
Q 1191 994 1439 701 
Q 1688 409 2113 409 
Q 2538 409 2786 701 
Q 3034 994 3034 1497 
Q 3034 2003 2786 2293 
Q 2538 2584 2113 2584 
z
M 3366 4563 
L 3366 3988 
Q 3128 4100 2886 4159 
Q 2644 4219 2406 4219 
Q 1781 4219 1451 3797 
Q 1122 3375 1075 2522 
Q 1259 2794 1537 2939 
Q 1816 3084 2150 3084 
Q 2853 3084 3261 2657 
Q 3669 2231 3669 1497 
Q 3669 778 3244 343 
Q 2819 -91 2113 -91 
Q 1303 -91 875 529 
Q 447 1150 447 2328 
Q 447 3434 972 4092 
Q 1497 4750 2381 4750 
Q 2619 4750 2861 4703 
Q 3103 4656 3366 4563 
z
" transform="scale(0.015625)"/>
       </defs>
       <use xlink:href="#DejaVuSans-36"/>
       <use xlink:href="#DejaVuSans-30" x="63.623047"/>
       <use xlink:href="#DejaVuSans-30" x="127.246094"/>
       <use xlink:href="#DejaVuSans-30" x="190.869141"/>
      </g>
     </g>
    </g>
    <g id="ytick_7">
     <g id="line2d_13">
      <g>
       <use xlink:href="#mb8301ceb08" x="39.65" y="22.847841" style="stroke: #000000; stroke-width: 0.8"/>
      </g>
     </g>
     <g id="text_14">
      <!-- 7000 -->
      <g transform="translate(7.2 26.64706)scale(0.1 -0.1)">
       <defs>
        <path id="DejaVuSans-37" d="M 525 4666 
L 3525 4666 
L 3525 4397 
L 1831 0 
L 1172 0 
L 2766 4134 
L 525 4134 
L 525 4666 
z
" transform="scale(0.015625)"/>
       </defs>
       <use xlink:href="#DejaVuSans-37"/>
       <use xlink:href="#DejaVuSans-30" x="63.623047"/>
       <use xlink:href="#DejaVuSans-30" x="127.246094"/>
       <use xlink:href="#DejaVuSans-30" x="190.869141"/>
      </g>
     </g>
    </g>
   </g>
   <g id="line2d_14">
    <path d="M 69.915455 157.923986 
L 70.625078 155.283522 
L 71.334702 153.101586 
L 72.044326 154.36995 
L 72.75395 153.965872 
L 73.463573 146.178428 
L 74.173197 153.495816 
L 74.882821 157.422329 
L 75.592445 153.247025 
L 76.302069 112.43371 
L 77.011692 57.649481 
L 77.721316 56.883243 
L 79.140564 121.200108 
L 79.850188 132.101001 
L 80.559811 150.766588 
L 81.269435 148.062693 
L 81.979059 159.684746 
L 82.688683 163.743017 
L 83.398307 168.938026 
L 84.10793 161.295177 
L 84.817554 163.220484 
L 85.527178 155.574094 
L 86.236802 155.294121 
L 86.946425 157.305613 
L 87.656049 154.214043 
L 88.365673 152.664578 
L 89.075297 151.881834 
L 89.784921 151.422693 
L 90.494544 152.94088 
L 91.204168 147.56013 
L 91.913792 150.768335 
L 92.623416 156.186051 
L 93.33304 147.337456 
L 94.042663 143.598193 
L 94.752287 149.751212 
L 95.461911 149.941356 
L 96.171535 146.069926 
L 96.881158 143.676771 
L 97.590782 147.038433 
L 98.300406 128.496815 
L 99.01003 102.093848 
L 99.719654 81.759912 
L 100.429277 84.731642 
L 101.138901 102.588154 
L 101.848525 128.099561 
L 102.558149 146.550848 
L 103.267773 146.946424 
L 103.977396 146.778044 
L 105.396644 164.961817 
L 106.106268 176.038125 
L 106.815892 156.145243 
L 107.525515 151.420187 
L 108.235139 144.464275 
L 108.944763 149.274191 
L 109.654387 143.943185 
L 110.36401 147.640446 
L 111.073634 146.439208 
L 111.783258 149.945019 
L 112.492882 157.925578 
L 113.202506 145.272586 
L 113.912129 145.56866 
L 114.621753 144.745588 
L 115.331377 149.027095 
L 116.041001 150.963417 
L 116.750625 142.593845 
L 117.460248 141.978389 
L 118.169872 114.909855 
L 119.58912 69.952118 
L 120.298743 92.830268 
L 121.008367 151.571908 
L 121.717991 136.554301 
L 122.427615 130.567846 
L 123.137239 131.361536 
L 123.846862 139.5541 
L 124.556486 132.027861 
L 125.26611 129.764144 
L 126.685358 153.629152 
L 128.814229 145.126398 
L 129.523853 150.367563 
L 130.233477 145.121586 
L 130.9431 144.095127 
L 131.652724 147.269863 
L 132.362348 148.808114 
L 133.071972 160.393106 
L 133.781595 150.067843 
L 134.491219 152.095039 
L 135.200843 149.660419 
L 135.910467 157.807816 
L 136.620091 151.170931 
L 137.329714 151.205772 
L 138.039338 151.407729 
L 138.748962 133.936068 
L 139.458586 143.021868 
L 140.16821 145.283838 
L 140.877833 151.965229 
L 141.587457 141.957689 
L 142.297081 139.826534 
L 143.006705 144.6204 
L 143.716328 140.771968 
L 144.425952 151.698446 
L 145.135576 141.698 
L 145.8452 148.483153 
L 146.554824 148.31745 
L 147.264447 146.451037 
L 147.974071 146.473573 
L 148.683695 148.307015 
L 149.393319 140.829587 
L 150.102943 135.633743 
L 150.812566 137.765209 
L 151.52219 138.252806 
L 152.231814 145.172554 
L 152.941438 144.311273 
L 153.651061 149.372935 
L 154.360685 146.481918 
L 155.070309 148.329778 
L 155.779933 140.208811 
L 156.489557 138.720829 
L 157.19918 140.006133 
L 157.908804 121.126373 
L 158.618428 109.064145 
L 160.037676 142.871571 
L 160.747299 125.279307 
L 161.456923 103.87638 
L 162.876171 146.918972 
L 163.585795 144.809177 
L 164.295418 126.73177 
L 165.005042 137.693069 
L 165.714666 146.168674 
L 166.42429 158.515968 
L 167.843537 162.524394 
L 168.553161 159.585171 
L 169.262785 154.114522 
L 169.972409 155.039919 
L 170.682032 148.7666 
L 171.391656 149.829905 
L 172.10128 132.20612 
L 172.810904 135.241742 
L 173.520528 142.498789 
L 174.230151 157.588348 
L 174.939775 125.152586 
L 175.649399 132.838239 
L 176.359023 138.917888 
L 177.77827 148.92044 
L 178.487894 142.765091 
L 179.197518 148.003543 
L 179.907142 154.599078 
L 180.616765 153.373673 
L 181.326389 153.050057 
L 182.036013 148.574987 
L 182.745637 154.024234 
L 183.455261 150.473133 
L 184.874508 153.959716 
L 185.584132 155.583435 
L 186.293756 151.105872 
L 187.00338 147.604524 
L 187.713003 141.73702 
L 188.422627 154.97494 
L 189.132251 146.779286 
L 189.841875 142.314718 
L 190.551498 145.96515 
L 191.261122 146.826525 
L 191.970746 150.680279 
L 192.68037 144.516541 
L 193.389994 146.016301 
L 194.099617 151.117419 
L 194.809241 149.333606 
L 195.518865 151.857574 
L 196.228489 147.916682 
L 196.938113 142.256472 
L 197.647736 147.72792 
L 198.35736 142.66931 
L 199.066984 115.545716 
L 199.776608 119.558107 
L 200.486231 136.425826 
L 201.195855 141.381563 
L 201.905479 133.442999 
L 202.615103 122.144634 
L 203.324727 136.913074 
L 204.03435 137.162 
L 204.743974 141.377833 
L 205.453598 133.061246 
L 206.163222 138.494386 
L 206.872846 151.309826 
L 207.582469 143.895611 
L 208.292093 143.549075 
L 209.001717 144.562651 
L 209.711341 151.863137 
L 210.420965 140.492402 
L 211.130588 151.065245 
L 211.840212 150.043205 
L 212.549836 144.634212 
L 213.25946 141.583882 
L 213.969083 140.972271 
L 214.678707 145.121499 
L 215.388331 152.544638 
L 216.097955 154.25966 
L 216.807579 150.990048 
L 217.517202 141.778099 
L 218.226826 140.368007 
L 218.93645 152.553438 
L 219.646074 144.834805 
L 220.355698 142.17407 
L 221.065321 138.954812 
L 221.774945 124.484672 
L 223.194193 149.66945 
L 223.903816 157.428296 
L 224.61344 155.525365 
L 225.323064 137.880336 
L 226.032688 129.201265 
L 226.742312 134.919186 
L 227.451935 146.997664 
L 228.161559 151.330794 
L 228.871183 157.800293 
L 229.580807 158.774192 
L 230.290431 147.463549 
L 231.000054 143.60509 
L 231.709678 148.176268 
L 232.419302 149.440384 
L 233.128926 147.885772 
L 233.83855 150.380579 
L 234.548173 137.552111 
L 235.257797 134.413759 
L 235.967421 142.524048 
L 237.386668 153.606077 
L 238.096292 152.626049 
L 238.805916 148.814619 
L 239.51554 137.781318 
L 240.225164 134.225232 
L 240.934787 128.709701 
L 241.644411 119.327819 
L 242.354035 131.809389 
L 243.063659 137.870088 
L 244.482906 153.209158 
L 245.19253 152.366758 
L 245.902154 150.586545 
L 246.611778 155.006877 
L 247.321401 147.766078 
L 248.031025 143.423926 
L 248.740649 142.819868 
L 250.159897 150.717705 
L 250.86952 161.584156 
L 251.579144 162.316847 
L 252.998392 154.863862 
L 253.708016 159.2603 
L 254.417639 154.389365 
L 255.127263 154.830959 
L 255.836887 154.307062 
L 256.546511 154.152617 
L 257.256134 153.52159 
L 257.965758 153.75047 
L 258.675382 155.458835 
L 259.385006 152.574989 
L 260.09463 134.636181 
L 260.804253 150.421564 
L 261.513877 135.086136 
L 262.223501 124.194879 
L 262.933125 129.023249 
L 263.642749 123.104841 
L 264.352372 115.577167 
L 265.77162 151.723749 
L 266.481244 148.422065 
L 267.190868 148.260403 
L 267.900491 140.651358 
L 268.610115 130.789965 
L 269.319739 126.556469 
L 270.029363 127.014534 
L 270.738986 122.633701 
L 271.44861 133.503238 
L 272.158234 127.540749 
L 272.867858 129.188221 
L 274.287105 142.863863 
L 274.996729 143.56889 
L 275.706353 138.733368 
L 276.415977 140.57976 
L 277.125601 146.071709 
L 277.835224 136.480622 
L 278.544848 142.435044 
L 279.254472 151.854584 
L 279.964096 145.023101 
L 280.673719 143.062871 
L 281.383343 146.156412 
L 282.092967 142.852072 
L 282.802591 143.950635 
L 283.512215 137.736114 
L 284.221838 134.998255 
L 284.931462 139.029092 
L 285.641086 140.969223 
L 286.35071 152.809715 
L 287.060334 147.581056 
L 287.769957 140.803178 
L 288.479581 145.271164 
L 289.189205 155.757556 
L 289.898829 153.931325 
L 290.608453 143.710979 
L 291.318076 138.169882 
L 292.0277 144.03281 
L 293.446948 149.613378 
L 294.156571 153.338036 
L 294.866195 146.746923 
L 295.575819 145.262511 
L 296.285443 144.702929 
L 296.995067 150.064732 
L 297.70469 153.944377 
L 298.414314 143.147357 
L 299.123938 150.890738 
L 299.833562 141.93436 
L 300.543186 139.894512 
L 301.252809 133.24319 
L 301.962433 152.144914 
L 302.672057 153.69984 
L 303.381681 153.811952 
L 304.091304 152.98598 
L 304.800928 138.439767 
L 306.220176 129.736058 
L 306.9298 137.886153 
L 307.639423 152.273087 
L 308.349047 150.833777 
L 309.058671 149.066915 
L 309.768295 136.365113 
L 311.187542 130.528714 
L 311.897166 137.776902 
L 312.60679 132.415951 
L 313.316414 138.881448 
L 314.026038 132.219207 
L 314.735661 139.52665 
L 315.445285 151.754307 
L 316.154909 148.2729 
L 316.864533 149.347901 
L 317.574156 145.15879 
L 318.28378 155.461079 
L 318.993404 147.438996 
L 319.703028 146.096987 
L 320.412652 142.112142 
L 321.122275 146.758722 
L 321.831899 152.871444 
L 322.541523 152.018399 
L 323.251147 142.027198 
L 323.960771 136.007466 
L 324.670394 142.970099 
L 325.380018 137.461328 
L 326.089642 147.66699 
L 326.799266 148.3719 
L 327.508889 138.164613 
L 328.218513 134.724772 
L 328.928137 128.586831 
L 329.637761 140.570245 
L 330.347385 137.032896 
L 331.766632 146.174508 
L 333.18588 157.412037 
L 333.895504 155.78886 
L 334.605127 147.216558 
L 335.314751 142.757379 
L 336.024375 144.506238 
L 336.733999 149.671552 
L 337.443623 149.75089 
L 338.153246 144.786467 
L 338.86287 152.500816 
L 339.572494 145.73347 
L 340.282118 145.46008 
L 340.991741 150.923557 
L 341.701365 152.185861 
L 342.410989 147.900623 
L 343.120613 146.483346 
L 343.830237 147.63596 
L 344.53986 150.826249 
L 345.249484 155.572203 
L 345.959108 139.770645 
L 346.668732 138.094506 
L 347.378356 136.749844 
L 348.087979 136.140023 
L 348.797603 136.260265 
L 349.507227 133.295921 
L 350.216851 141.458856 
L 350.926474 144.435907 
L 351.636098 154.630456 
L 352.345722 151.596899 
L 353.055346 153.25352 
L 353.76497 155.274944 
L 354.474593 147.241857 
L 355.184217 150.262371 
L 355.893841 149.460772 
L 357.313089 144.441476 
L 358.022712 143.673845 
L 358.732336 142.467239 
L 359.44196 155.50465 
L 360.151584 157.482663 
L 360.861208 145.922067 
L 361.570831 144.13113 
L 362.280455 141.072691 
L 362.990079 150.21658 
L 363.699703 146.516611 
L 364.409326 141.853531 
L 365.11895 138.928216 
L 365.828574 138.560093 
L 366.538198 145.982737 
L 367.247822 154.974084 
L 367.957445 153.517124 
L 368.667069 148.576946 
L 369.376693 147.909362 
L 370.086317 143.655725 
L 370.795941 142.022556 
L 371.505564 142.002362 
L 372.215188 153.65293 
L 372.924812 153.890151 
L 373.634436 153.13725 
L 374.344059 158.476656 
L 375.053683 158.061341 
L 375.763307 151.280333 
L 376.472931 141.224736 
L 377.182555 147.511871 
L 377.892178 136.044946 
L 378.601802 149.883815 
L 379.311426 155.153289 
L 380.02105 150.550086 
L 380.730674 151.86827 
L 381.440297 151.170359 
L 382.149921 154.859384 
L 382.859545 145.482734 
L 383.569169 149.994383 
L 384.278792 137.899251 
L 384.988416 138.149874 
L 385.69804 140.154471 
L 386.407664 148.611324 
L 387.117288 143.049971 
L 387.826911 132.443965 
L 388.536535 146.634715 
L 389.246159 153.159208 
L 389.955783 141.671995 
L 390.665407 137.188016 
L 391.37503 136.95603 
L 392.084654 136.418266 
L 392.794278 145.751771 
L 393.503902 141.280467 
L 394.213526 137.931363 
L 394.923149 143.521566 
L 396.342397 160.002473 
L 397.052021 152.660761 
L 397.761644 156.923653 
L 398.471268 150.704125 
L 399.180892 149.611857 
L 399.890516 150.484466 
L 400.60014 147.398535 
L 401.309763 155.921306 
L 402.019387 148.748455 
L 402.729011 153.745317 
L 403.438635 140.769279 
L 404.148259 143.663136 
L 404.857882 147.4115 
L 405.567506 157.135612 
L 406.27713 144.590402 
L 406.986754 140.318969 
L 407.696377 151.697791 
L 408.406001 154.314138 
L 409.825249 132.294426 
L 410.534873 116.34496 
L 411.244496 126.800947 
L 411.95412 149.05192 
L 412.663744 149.393158 
L 413.373368 153.854914 
L 414.082992 133.446394 
L 414.792615 107.173264 
L 415.502239 122.649413 
L 416.211863 141.832181 
L 416.921487 155.945038 
L 417.631111 155.003646 
L 418.340734 148.164218 
L 419.050358 156.162527 
L 419.759982 155.663098 
L 420.469606 143.776922 
L 421.179229 136.61171 
L 421.888853 146.258641 
L 422.598477 147.551449 
L 423.308101 151.703535 
L 424.017725 149.05721 
L 424.727348 147.984021 
L 425.436972 149.796373 
L 426.146596 148.956698 
L 426.85622 151.567553 
L 427.565844 137.316767 
L 428.275467 142.359113 
L 428.985091 145.802802 
L 429.694715 131.021477 
L 430.404339 147.363738 
L 431.113962 141.614391 
L 431.823586 141.64386 
L 432.53321 142.424681 
L 433.242834 147.535421 
L 433.952458 145.436166 
L 434.662081 146.465314 
L 435.371705 142.212026 
L 436.081329 146.635299 
L 436.790953 149.489182 
L 437.500577 149.395584 
L 438.2102 159.165223 
L 438.919824 158.890603 
L 439.629448 167.477685 
L 440.339072 165.613485 
L 441.048696 170.902798 
L 441.758319 165.051783 
L 442.467943 153.885618 
L 443.177567 151.956371 
L 443.887191 156.108928 
L 444.596814 152.686787 
L 445.306438 142.202889 
L 446.016062 62.507645 
L 446.725686 29.638125 
L 447.43531 36.608006 
L 448.144933 84.540253 
L 448.854557 111.57076 
L 449.564181 116.159175 
L 450.273805 131.924222 
L 450.983429 139.782835 
L 451.693052 143.050005 
L 452.402676 148.692856 
L 453.1123 144.148606 
L 453.821924 151.308036 
L 454.531547 152.85577 
L 455.241171 150.564723 
L 455.950795 161.125162 
L 456.660419 149.990496 
L 457.370043 149.708695 
L 458.079666 146.154283 
L 458.78929 148.50066 
L 459.498914 149.705726 
L 460.208538 151.484612 
L 460.918162 138.550393 
L 461.627785 147.20946 
L 462.337409 153.365193 
L 463.047033 146.47939 
L 463.756657 141.554014 
L 464.466281 149.707847 
L 465.175904 152.930933 
L 465.885528 143.714171 
L 466.595152 142.878574 
L 467.304776 149.423349 
L 468.014399 149.407581 
L 468.724023 138.919255 
L 469.433647 139.684719 
L 470.143271 139.338419 
L 470.852895 134.646797 
L 471.562518 144.74117 
L 472.272142 131.502056 
L 472.981766 140.919225 
L 473.69139 145.545492 
L 474.401014 145.610104 
L 475.110637 150.105825 
L 476.529885 147.204726 
L 477.239509 136.74871 
L 477.949132 144.262389 
L 478.658756 145.911849 
L 479.36838 144.494922 
L 480.078004 142.78563 
L 480.787628 146.089401 
L 481.497251 144.560738 
L 482.206875 140.798216 
L 483.626123 146.0942 
L 484.335747 151.222797 
L 485.754994 147.222146 
L 486.464618 141.923179 
L 487.883866 154.020772 
L 488.593489 154.110789 
L 489.303113 148.165248 
L 490.012737 128.618536 
L 490.722361 133.001175 
L 491.431984 120.956109 
L 492.141608 113.317342 
L 493.560856 144.896713 
L 494.27048 141.722171 
L 494.980103 134.051535 
L 495.689727 150.564209 
L 496.399351 162.452802 
L 497.108975 151.445093 
L 497.818599 154.957395 
L 498.528222 147.787191 
L 499.237846 154.7275 
L 499.94747 154.259776 
L 500.657094 154.871859 
L 501.366717 145.084294 
L 502.076341 155.116145 
L 502.785965 150.24311 
L 503.495589 151.763023 
L 504.205213 154.041549 
L 504.914836 152.347953 
L 505.62446 156.239777 
L 506.334084 150.978636 
L 507.043708 148.679452 
L 507.753332 153.185376 
L 508.462955 151.364375 
L 509.172579 138.602643 
L 509.882203 143.16173 
L 510.591827 153.383693 
L 511.30145 148.108476 
L 512.011074 143.914152 
L 512.720698 147.325326 
L 513.430322 145.463827 
L 514.139946 135.069897 
L 514.849569 154.243501 
L 515.559193 142.238956 
L 516.268817 140.415185 
L 516.978441 149.76915 
L 517.688065 151.319779 
L 518.397688 146.008955 
L 519.107312 151.751607 
L 519.816936 144.113735 
L 520.52656 154.801931 
L 521.236184 155.010655 
L 521.945807 149.826532 
L 522.655431 151.561657 
L 523.365055 147.987765 
L 524.074679 134.878084 
L 524.784302 133.53739 
L 525.493926 150.910014 
L 526.20355 150.600635 
L 526.913174 146.89763 
L 527.622798 146.8787 
L 528.332421 143.235433 
L 529.042045 141.423582 
L 529.751669 145.531993 
L 530.461293 148.628091 
L 531.170917 129.899228 
L 531.88054 132.869579 
L 532.590164 123.639066 
L 533.299788 130.651073 
L 534.009412 134.228154 
L 534.719035 135.573265 
L 535.428659 147.220705 
L 536.138283 148.056535 
L 536.847907 146.48704 
L 537.557531 137.3317 
L 538.267154 143.865829 
L 538.976778 149.05813 
L 539.686402 147.348313 
L 541.10565 137.826984 
L 541.815273 139.029269 
L 542.524897 151.93386 
L 543.234521 154.119585 
L 543.944145 147.207678 
L 544.653769 149.550317 
L 545.363392 155.837115 
L 546.073016 147.900532 
L 546.78264 151.320984 
L 547.492264 145.552476 
L 548.201887 137.824028 
L 548.911511 135.165778 
L 549.621135 158.570695 
L 550.330759 160.271211 
L 551.040383 158.175723 
L 551.750006 143.944324 
L 552.45963 103.351715 
L 553.169254 110.072111 
L 553.878878 124.403672 
L 554.588502 133.082729 
L 555.298125 124.328301 
L 556.717373 147.290453 
L 557.426997 151.55589 
L 558.13662 158.237961 
L 558.846244 159.840725 
L 559.555868 150.635804 
L 560.265492 144.47068 
L 560.975116 151.885634 
L 561.684739 147.058402 
L 562.394363 145.501982 
L 563.103987 149.044338 
L 563.813611 149.923796 
L 564.523235 147.886111 
L 565.232858 152.285274 
L 565.942482 149.767519 
L 566.652106 139.325519 
L 567.36173 145.17473 
L 568.071354 146.192487 
L 568.780977 144.097525 
L 569.490601 148.755743 
L 570.200225 147.327787 
L 570.909849 140.471367 
L 571.619472 139.616332 
L 572.329096 151.54671 
L 573.03872 136.654678 
L 573.748344 127.498747 
L 574.457968 121.228232 
L 575.167591 128.23314 
L 575.877215 133.005484 
L 577.296463 90.466913 
L 578.006087 122.152124 
L 578.71571 128.389176 
L 579.425334 140.884555 
L 580.134958 126.889494 
L 580.844582 127.061374 
L 581.554205 148.275522 
L 582.263829 140.818146 
L 582.973453 131.072485 
L 583.683077 129.291782 
L 585.102324 146.034866 
L 585.811948 147.334884 
L 586.521572 155.422891 
L 587.231196 158.45805 
L 587.94082 155.064789 
L 588.650443 136.673196 
L 589.360067 121.574625 
L 590.069691 154.03894 
L 590.779315 164.984232 
L 591.488939 160.448695 
L 592.198562 148.208379 
L 592.908186 149.766352 
L 593.61781 149.780643 
L 594.327434 150.542543 
L 595.037057 149.629283 
L 595.746681 140.061148 
L 596.456305 138.361885 
L 597.165929 129.482674 
L 597.875553 123.004003 
L 598.585176 138.183356 
L 599.2948 144.888072 
L 600.004424 149.674052 
L 600.714048 150.625689 
L 601.423672 152.787767 
L 602.133295 142.253642 
L 602.842919 146.729998 
L 603.552543 154.08471 
L 604.262167 159.612028 
L 604.97179 156.216242 
L 605.681414 148.101885 
L 607.100662 153.113353 
L 607.810286 146.809285 
L 608.519909 147.684441 
L 609.229533 137.156907 
L 609.939157 137.413696 
L 610.648781 139.069377 
L 611.358405 124.047111 
L 612.777652 105.507936 
L 613.487276 118.570959 
L 614.1969 120.817003 
L 614.906523 128.611148 
L 615.616147 118.058702 
L 617.035395 144.469137 
L 617.745019 140.600791 
L 618.454642 144.65407 
L 619.164266 131.161933 
L 619.87389 133.537463 
L 620.583514 148.972711 
L 621.293138 152.782279 
L 622.712385 145.492511 
L 623.422009 153.587903 
L 624.131633 145.978774 
L 624.841257 143.961588 
L 625.55088 140.641074 
L 626.260504 146.850071 
L 626.970128 138.98966 
L 627.679752 138.95793 
L 628.389375 150.631933 
L 629.098999 147.030457 
L 629.808623 151.283404 
L 631.227871 148.464167 
L 631.937494 153.352664 
L 632.647118 149.464458 
L 633.356742 152.146041 
L 634.066366 150.114307 
L 634.77599 148.702107 
L 635.485613 144.42828 
L 636.195237 151.826603 
L 636.904861 162.227583 
L 637.614485 159.753582 
L 638.324108 147.516031 
L 639.033732 155.483724 
L 639.743356 156.85086 
L 640.45298 147.385347 
L 641.162604 150.850377 
L 641.872227 151.296528 
L 642.581851 118.65329 
L 643.291475 117.625894 
L 644.001099 127.362214 
L 644.710723 132.4401 
L 645.420346 146.587622 
L 646.12997 145.77824 
L 646.839594 145.737163 
L 647.549218 146.981937 
L 648.258842 139.096872 
L 648.968465 138.407355 
L 649.678089 135.000463 
L 650.387713 147.698697 
L 651.097337 148.890136 
L 651.80696 139.835362 
L 652.516584 148.186973 
L 653.226208 152.856608 
L 653.935832 145.949601 
L 654.645456 141.482427 
L 655.355079 149.714165 
L 656.064703 146.596995 
L 656.774327 142.453995 
L 657.483951 123.253404 
L 658.193575 109.353583 
L 658.903198 131.570824 
L 659.612822 149.228739 
L 660.322446 152.617327 
L 661.03207 153.765665 
L 661.741693 148.853231 
L 662.451317 145.652695 
L 663.160941 146.299094 
L 663.870565 144.382651 
L 664.580189 150.313927 
L 665.289812 148.83661 
L 665.999436 153.264408 
L 666.70906 155.447794 
L 667.418684 151.950838 
L 668.128308 150.043723 
L 668.837931 150.776171 
L 669.547555 153.638267 
L 670.257179 144.535062 
L 670.966803 144.838547 
L 671.676427 143.836571 
L 672.38605 143.806402 
L 673.095674 148.671652 
L 673.805298 151.551516 
L 674.514922 154.913342 
L 675.224545 148.58386 
L 675.224545 148.58386 
" clip-path="url(#p8df6dcdec2)" style="fill: none; stroke: #1f77b4; stroke-width: 1.5; stroke-linecap: square"/>
   </g>
   <g id="patch_3">
    <path d="M 39.65 183.358125 
L 39.65 22.318125 
" style="fill: none; stroke: #000000; stroke-width: 0.8; stroke-linejoin: miter; stroke-linecap: square"/>
   </g>
   <g id="patch_4">
    <path d="M 705.49 183.358125 
L 705.49 22.318125 
" style="fill: none; stroke: #000000; stroke-width: 0.8; stroke-linejoin: miter; stroke-linecap: square"/>
   </g>
   <g id="patch_5">
    <path d="M 39.65 183.358125 
L 705.49 183.358125 
" style="fill: none; stroke: #000000; stroke-width: 0.8; stroke-linejoin: miter; stroke-linecap: square"/>
   </g>
   <g id="patch_6">
    <path d="M 39.65 22.318125 
L 705.49 22.318125 
" style="fill: none; stroke: #000000; stroke-width: 0.8; stroke-linejoin: miter; stroke-linecap: square"/>
   </g>
   <g id="text_15">
    <!-- Fishin' Naive Novelty Function -->
    <g transform="translate(282.553125 16.318125)scale(0.12 -0.12)">
     <defs>
      <path id="DejaVuSans-46" d="M 628 4666 
L 3309 4666 
L 3309 4134 
L 1259 4134 
L 1259 2759 
L 3109 2759 
L 3109 2228 
L 1259 2228 
L 1259 0 
L 628 0 
L 628 4666 
z
" transform="scale(0.015625)"/>
      <path id="DejaVuSans-73" d="M 2834 3397 
L 2834 2853 
Q 2591 2978 2328 3040 
Q 2066 3103 1784 3103 
Q 1356 3103 1142 2972 
Q 928 2841 928 2578 
Q 928 2378 1081 2264 
Q 1234 2150 1697 2047 
L 1894 2003 
Q 2506 1872 2764 1633 
Q 3022 1394 3022 966 
Q 3022 478 2636 193 
Q 2250 -91 1575 -91 
Q 1294 -91 989 -36 
Q 684 19 347 128 
L 347 722 
Q 666 556 975 473 
Q 1284 391 1588 391 
Q 1994 391 2212 530 
Q 2431 669 2431 922 
Q 2431 1156 2273 1281 
Q 2116 1406 1581 1522 
L 1381 1569 
Q 847 1681 609 1914 
Q 372 2147 372 2553 
Q 372 3047 722 3315 
Q 1072 3584 1716 3584 
Q 2034 3584 2315 3537 
Q 2597 3491 2834 3397 
z
" transform="scale(0.015625)"/>
      <path id="DejaVuSans-68" d="M 3513 2113 
L 3513 0 
L 2938 0 
L 2938 2094 
Q 2938 2591 2744 2837 
Q 2550 3084 2163 3084 
Q 1697 3084 1428 2787 
Q 1159 2491 1159 1978 
L 1159 0 
L 581 0 
L 581 4863 
L 1159 4863 
L 1159 2956 
Q 1366 3272 1645 3428 
Q 1925 3584 2291 3584 
Q 2894 3584 3203 3211 
Q 3513 2838 3513 2113 
z
" transform="scale(0.015625)"/>
      <path id="DejaVuSans-6e" d="M 3513 2113 
L 3513 0 
L 2938 0 
L 2938 2094 
Q 2938 2591 2744 2837 
Q 2550 3084 2163 3084 
Q 1697 3084 1428 2787 
Q 1159 2491 1159 1978 
L 1159 0 
L 581 0 
L 581 3500 
L 1159 3500 
L 1159 2956 
Q 1366 3272 1645 3428 
Q 1925 3584 2291 3584 
Q 2894 3584 3203 3211 
Q 3513 2838 3513 2113 
z
" transform="scale(0.015625)"/>
      <path id="DejaVuSans-27" d="M 1147 4666 
L 1147 2931 
L 616 2931 
L 616 4666 
L 1147 4666 
z
" transform="scale(0.015625)"/>
      <path id="DejaVuSans-4e" d="M 628 4666 
L 1478 4666 
L 3547 763 
L 3547 4666 
L 4159 4666 
L 4159 0 
L 3309 0 
L 1241 3903 
L 1241 0 
L 628 0 
L 628 4666 
z
" transform="scale(0.015625)"/>
      <path id="DejaVuSans-61" d="M 2194 1759 
Q 1497 1759 1228 1600 
Q 959 1441 959 1056 
Q 959 750 1161 570 
Q 1363 391 1709 391 
Q 2188 391 2477 730 
Q 2766 1069 2766 1631 
L 2766 1759 
L 2194 1759 
z
M 3341 1997 
L 3341 0 
L 2766 0 
L 2766 531 
Q 2569 213 2275 61 
Q 1981 -91 1556 -91 
Q 1019 -91 701 211 
Q 384 513 384 1019 
Q 384 1609 779 1909 
Q 1175 2209 1959 2209 
L 2766 2209 
L 2766 2266 
Q 2766 2663 2505 2880 
Q 2244 3097 1772 3097 
Q 1472 3097 1187 3025 
Q 903 2953 641 2809 
L 641 3341 
Q 956 3463 1253 3523 
Q 1550 3584 1831 3584 
Q 2591 3584 2966 3190 
Q 3341 2797 3341 1997 
z
" transform="scale(0.015625)"/>
      <path id="DejaVuSans-76" d="M 191 3500 
L 800 3500 
L 1894 563 
L 2988 3500 
L 3597 3500 
L 2284 0 
L 1503 0 
L 191 3500 
z
" transform="scale(0.015625)"/>
      <path id="DejaVuSans-6f" d="M 1959 3097 
Q 1497 3097 1228 2736 
Q 959 2375 959 1747 
Q 959 1119 1226 758 
Q 1494 397 1959 397 
Q 2419 397 2687 759 
Q 2956 1122 2956 1747 
Q 2956 2369 2687 2733 
Q 2419 3097 1959 3097 
z
M 1959 3584 
Q 2709 3584 3137 3096 
Q 3566 2609 3566 1747 
Q 3566 888 3137 398 
Q 2709 -91 1959 -91 
Q 1206 -91 779 398 
Q 353 888 353 1747 
Q 353 2609 779 3096 
Q 1206 3584 1959 3584 
z
" transform="scale(0.015625)"/>
      <path id="DejaVuSans-6c" d="M 603 4863 
L 1178 4863 
L 1178 0 
L 603 0 
L 603 4863 
z
" transform="scale(0.015625)"/>
      <path id="DejaVuSans-74" d="M 1172 4494 
L 1172 3500 
L 2356 3500 
L 2356 3053 
L 1172 3053 
L 1172 1153 
Q 1172 725 1289 603 
Q 1406 481 1766 481 
L 2356 481 
L 2356 0 
L 1766 0 
Q 1100 0 847 248 
Q 594 497 594 1153 
L 594 3053 
L 172 3053 
L 172 3500 
L 594 3500 
L 594 4494 
L 1172 4494 
z
" transform="scale(0.015625)"/>
      <path id="DejaVuSans-79" d="M 2059 -325 
Q 1816 -950 1584 -1140 
Q 1353 -1331 966 -1331 
L 506 -1331 
L 506 -850 
L 844 -850 
Q 1081 -850 1212 -737 
Q 1344 -625 1503 -206 
L 1606 56 
L 191 3500 
L 800 3500 
L 1894 763 
L 2988 3500 
L 3597 3500 
L 2059 -325 
z
" transform="scale(0.015625)"/>
      <path id="DejaVuSans-75" d="M 544 1381 
L 544 3500 
L 1119 3500 
L 1119 1403 
Q 1119 906 1312 657 
Q 1506 409 1894 409 
Q 2359 409 2629 706 
Q 2900 1003 2900 1516 
L 2900 3500 
L 3475 3500 
L 3475 0 
L 2900 0 
L 2900 538 
Q 2691 219 2414 64 
Q 2138 -91 1772 -91 
Q 1169 -91 856 284 
Q 544 659 544 1381 
z
M 1991 3584 
L 1991 3584 
z
" transform="scale(0.015625)"/>
     </defs>
     <use xlink:href="#DejaVuSans-46"/>
     <use xlink:href="#DejaVuSans-69" x="50.269531"/>
     <use xlink:href="#DejaVuSans-73" x="78.052734"/>
     <use xlink:href="#DejaVuSans-68" x="130.152344"/>
     <use xlink:href="#DejaVuSans-69" x="193.53125"/>
     <use xlink:href="#DejaVuSans-6e" x="221.314453"/>
     <use xlink:href="#DejaVuSans-27" x="284.693359"/>
     <use xlink:href="#DejaVuSans-20" x="312.183594"/>
     <use xlink:href="#DejaVuSans-4e" x="343.970703"/>
     <use xlink:href="#DejaVuSans-61" x="418.775391"/>
     <use xlink:href="#DejaVuSans-69" x="480.054688"/>
     <use xlink:href="#DejaVuSans-76" x="507.837891"/>
     <use xlink:href="#DejaVuSans-65" x="567.017578"/>
     <use xlink:href="#DejaVuSans-20" x="628.541016"/>
     <use xlink:href="#DejaVuSans-4e" x="660.328125"/>
     <use xlink:href="#DejaVuSans-6f" x="735.132812"/>
     <use xlink:href="#DejaVuSans-76" x="796.314453"/>
     <use xlink:href="#DejaVuSans-65" x="855.494141"/>
     <use xlink:href="#DejaVuSans-6c" x="917.017578"/>
     <use xlink:href="#DejaVuSans-74" x="944.800781"/>
     <use xlink:href="#DejaVuSans-79" x="984.009766"/>
     <use xlink:href="#DejaVuSans-20" x="1043.189453"/>
     <use xlink:href="#DejaVuSans-46" x="1074.976562"/>
     <use xlink:href="#DejaVuSans-75" x="1126.996094"/>
     <use xlink:href="#DejaVuSans-6e" x="1190.375"/>
     <use xlink:href="#DejaVuSans-63" x="1253.753906"/>
     <use xlink:href="#DejaVuSans-74" x="1308.734375"/>
     <use xlink:href="#DejaVuSans-69" x="1347.943359"/>
     <use xlink:href="#DejaVuSans-6f" x="1375.726562"/>
     <use xlink:href="#DejaVuSans-6e" x="1436.908203"/>
    </g>
   </g>
  </g>
  <g id="axes_2">
   <g id="patch_7">
    <path d="M 39.65 400.998125 
L 705.49 400.998125 
L 705.49 239.958125 
L 39.65 239.958125 
z
" style="fill: #ffffff"/>
   </g>
   <g id="matplotlib.axis_3">
    <g id="xtick_7">
     <g id="line2d_15">
      <g>
       <use xlink:href="#m680ccf55e1" x="69.915455" y="400.998125" style="stroke: #000000; stroke-width: 0.8"/>
      </g>
     </g>
     <g id="text_16">
      <!-- 0 -->
      <g transform="translate(66.734205 415.596562)scale(0.1 -0.1)">
       <use xlink:href="#DejaVuSans-30"/>
      </g>
     </g>
    </g>
    <g id="xtick_8">
     <g id="line2d_16">
      <g>
       <use xlink:href="#m680ccf55e1" x="193.170713" y="400.998125" style="stroke: #000000; stroke-width: 0.8"/>
      </g>
     </g>
     <g id="text_17">
      <!-- 1 -->
      <g transform="translate(189.989463 415.596562)scale(0.1 -0.1)">
       <use xlink:href="#DejaVuSans-31"/>
      </g>
     </g>
    </g>
    <g id="xtick_9">
     <g id="line2d_17">
      <g>
       <use xlink:href="#m680ccf55e1" x="316.425972" y="400.998125" style="stroke: #000000; stroke-width: 0.8"/>
      </g>
     </g>
     <g id="text_18">
      <!-- 2 -->
      <g transform="translate(313.244722 415.596562)scale(0.1 -0.1)">
       <use xlink:href="#DejaVuSans-32"/>
      </g>
     </g>
    </g>
    <g id="xtick_10">
     <g id="line2d_18">
      <g>
       <use xlink:href="#m680ccf55e1" x="439.681231" y="400.998125" style="stroke: #000000; stroke-width: 0.8"/>
      </g>
     </g>
     <g id="text_19">
      <!-- 3 -->
      <g transform="translate(436.499981 415.596562)scale(0.1 -0.1)">
       <use xlink:href="#DejaVuSans-33"/>
      </g>
     </g>
    </g>
    <g id="xtick_11">
     <g id="line2d_19">
      <g>
       <use xlink:href="#m680ccf55e1" x="562.936489" y="400.998125" style="stroke: #000000; stroke-width: 0.8"/>
      </g>
     </g>
     <g id="text_20">
      <!-- 4 -->
      <g transform="translate(559.755239 415.596562)scale(0.1 -0.1)">
       <use xlink:href="#DejaVuSans-34"/>
      </g>
     </g>
    </g>
    <g id="xtick_12">
     <g id="line2d_20">
      <g>
       <use xlink:href="#m680ccf55e1" x="686.191748" y="400.998125" style="stroke: #000000; stroke-width: 0.8"/>
      </g>
     </g>
     <g id="text_21">
      <!-- 5 -->
      <g transform="translate(683.010498 415.596562)scale(0.1 -0.1)">
       <use xlink:href="#DejaVuSans-35"/>
      </g>
     </g>
    </g>
   </g>
   <g id="matplotlib.axis_4">
    <g id="ytick_8">
     <g id="line2d_21">
      <g>
       <use xlink:href="#mb8301ceb08" x="39.65" y="396.411085" style="stroke: #000000; stroke-width: 0.8"/>
      </g>
     </g>
     <g id="text_22">
      <!-- 0 -->
      <g transform="translate(26.2875 400.210304)scale(0.1 -0.1)">
       <use xlink:href="#DejaVuSans-30"/>
      </g>
     </g>
    </g>
    <g id="ytick_9">
     <g id="line2d_22">
      <g>
       <use xlink:href="#mb8301ceb08" x="39.65" y="365.486691" style="stroke: #000000; stroke-width: 0.8"/>
      </g>
     </g>
     <g id="text_23">
      <!-- 20 -->
      <g transform="translate(19.925 369.285909)scale(0.1 -0.1)">
       <use xlink:href="#DejaVuSans-32"/>
       <use xlink:href="#DejaVuSans-30" x="63.623047"/>
      </g>
     </g>
    </g>
    <g id="ytick_10">
     <g id="line2d_23">
      <g>
       <use xlink:href="#mb8301ceb08" x="39.65" y="334.562296" style="stroke: #000000; stroke-width: 0.8"/>
      </g>
     </g>
     <g id="text_24">
      <!-- 40 -->
      <g transform="translate(19.925 338.361515)scale(0.1 -0.1)">
       <use xlink:href="#DejaVuSans-34"/>
       <use xlink:href="#DejaVuSans-30" x="63.623047"/>
      </g>
     </g>
    </g>
    <g id="ytick_11">
     <g id="line2d_24">
      <g>
       <use xlink:href="#mb8301ceb08" x="39.65" y="303.637902" style="stroke: #000000; stroke-width: 0.8"/>
      </g>
     </g>
     <g id="text_25">
      <!-- 60 -->
      <g transform="translate(19.925 307.43712)scale(0.1 -0.1)">
       <use xlink:href="#DejaVuSans-36"/>
       <use xlink:href="#DejaVuSans-30" x="63.623047"/>
      </g>
     </g>
    </g>
    <g id="ytick_12">
     <g id="line2d_25">
      <g>
       <use xlink:href="#mb8301ceb08" x="39.65" y="272.713507" style="stroke: #000000; stroke-width: 0.8"/>
      </g>
     </g>
     <g id="text_26">
      <!-- 80 -->
      <g transform="translate(19.925 276.512726)scale(0.1 -0.1)">
       <defs>
        <path id="DejaVuSans-38" d="M 2034 2216 
Q 1584 2216 1326 1975 
Q 1069 1734 1069 1313 
Q 1069 891 1326 650 
Q 1584 409 2034 409 
Q 2484 409 2743 651 
Q 3003 894 3003 1313 
Q 3003 1734 2745 1975 
Q 2488 2216 2034 2216 
z
M 1403 2484 
Q 997 2584 770 2862 
Q 544 3141 544 3541 
Q 544 4100 942 4425 
Q 1341 4750 2034 4750 
Q 2731 4750 3128 4425 
Q 3525 4100 3525 3541 
Q 3525 3141 3298 2862 
Q 3072 2584 2669 2484 
Q 3125 2378 3379 2068 
Q 3634 1759 3634 1313 
Q 3634 634 3220 271 
Q 2806 -91 2034 -91 
Q 1263 -91 848 271 
Q 434 634 434 1313 
Q 434 1759 690 2068 
Q 947 2378 1403 2484 
z
M 1172 3481 
Q 1172 3119 1398 2916 
Q 1625 2713 2034 2713 
Q 2441 2713 2670 2916 
Q 2900 3119 2900 3481 
Q 2900 3844 2670 4047 
Q 2441 4250 2034 4250 
Q 1625 4250 1398 4047 
Q 1172 3844 1172 3481 
z
" transform="scale(0.015625)"/>
       </defs>
       <use xlink:href="#DejaVuSans-38"/>
       <use xlink:href="#DejaVuSans-30" x="63.623047"/>
      </g>
     </g>
    </g>
    <g id="ytick_13">
     <g id="line2d_26">
      <g>
       <use xlink:href="#mb8301ceb08" x="39.65" y="241.789113" style="stroke: #000000; stroke-width: 0.8"/>
      </g>
     </g>
     <g id="text_27">
      <!-- 100 -->
      <g transform="translate(13.5625 245.588331)scale(0.1 -0.1)">
       <use xlink:href="#DejaVuSans-31"/>
       <use xlink:href="#DejaVuSans-30" x="63.623047"/>
       <use xlink:href="#DejaVuSans-30" x="127.246094"/>
      </g>
     </g>
    </g>
   </g>
   <g id="line2d_27">
    <path d="M 69.915455 390.280074 
L 70.63095 390.296422 
L 71.346445 389.421544 
L 72.061941 386.933185 
L 73.492931 369.786135 
L 74.208427 353.068234 
L 74.923922 347.522698 
L 75.639418 338.572659 
L 76.354913 310.047738 
L 77.070408 301.8053 
L 77.785904 311.830136 
L 78.501399 338.356206 
L 79.93239 380.845461 
L 80.647885 359.4128 
L 82.078876 393.333942 
L 82.794371 391.944598 
L 83.509867 387.582104 
L 84.225362 386.760919 
L 84.940858 383.590333 
L 85.656353 368.465115 
L 86.371848 388.536161 
L 87.087344 385.151178 
L 87.802839 390.764954 
L 88.518334 392.756308 
L 89.23383 389.93492 
L 89.949325 385.897631 
L 90.664821 390.34458 
L 91.380316 388.367429 
L 92.095811 385.074645 
L 92.811307 386.66705 
L 93.526802 371.794047 
L 94.242297 370.887132 
L 94.957793 374.263053 
L 95.673288 356.195216 
L 96.388784 347.423879 
L 97.104279 347.549117 
L 97.819774 350.454823 
L 99.250765 339.742677 
L 99.96626 340.114264 
L 100.681756 354.355172 
L 101.397251 373.731024 
L 102.112747 370.799497 
L 102.828242 370.372571 
L 103.543737 376.75976 
L 104.259233 385.014314 
L 104.974728 384.248875 
L 105.690224 385.472354 
L 106.405719 377.806547 
L 107.121214 377.60568 
L 107.83671 378.052473 
L 108.552205 382.377681 
L 109.2677 381.360922 
L 109.983196 382.957302 
L 110.698691 385.369347 
L 111.414187 372.566016 
L 112.129682 383.150133 
L 112.845177 391.037696 
L 113.560673 386.768874 
L 114.276168 376.861618 
L 115.707159 328.593629 
L 116.422654 350.33883 
L 117.13815 344.261593 
L 117.853645 326.702095 
L 118.56914 303.065899 
L 119.284636 272.736455 
L 120.000131 263.964482 
L 120.715626 285.936358 
L 121.431122 297.777862 
L 122.146617 302.648499 
L 122.862113 316.275622 
L 123.577608 340.01319 
L 124.293103 371.716691 
L 125.008599 390.026854 
L 125.724094 393.164257 
L 126.43959 388.456293 
L 127.155085 387.943038 
L 127.87058 389.248888 
L 128.586076 383.880859 
L 129.301571 384.999562 
L 130.017066 383.494766 
L 131.448057 376.832342 
L 132.163553 374.580362 
L 132.879048 369.802112 
L 133.594543 363.139348 
L 134.310039 364.71013 
L 135.025534 368.674199 
L 135.741029 375.411385 
L 136.456525 374.28082 
L 137.887516 353.192588 
L 138.603011 369.485917 
L 139.318506 376.823043 
L 140.749497 376.981343 
L 141.464992 383.424066 
L 142.180488 375.513281 
L 143.611479 384.230475 
L 144.326974 386.435416 
L 145.042469 387.948988 
L 145.757965 386.087739 
L 146.47346 376.22336 
L 147.188956 382.981785 
L 147.904451 382.55625 
L 148.619946 382.420097 
L 149.335442 383.516995 
L 150.050937 385.211741 
L 150.766432 373.63473 
L 151.481928 383.765737 
L 152.197423 384.311902 
L 152.912919 381.990862 
L 153.628414 386.813472 
L 154.343909 378.512014 
L 155.059405 359.026503 
L 155.7749 364.604188 
L 156.490395 362.053974 
L 157.205891 356.614024 
L 157.921386 360.887144 
L 158.636882 367.288665 
L 159.352377 365.025178 
L 160.067872 378.528572 
L 160.783368 379.923719 
L 161.498863 378.73332 
L 162.214358 383.613727 
L 162.929854 378.623014 
L 163.645349 369.439637 
L 164.360845 381.320787 
L 165.07634 382.60637 
L 165.791835 382.582349 
L 166.507331 389.437572 
L 167.222826 390.389815 
L 167.938322 385.502641 
L 168.653817 392.349177 
L 169.369312 390.007543 
L 170.084808 389.98809 
L 170.800303 388.826099 
L 171.515798 386.495497 
L 172.231294 384.684207 
L 172.946789 388.694073 
L 173.662285 386.730211 
L 174.37778 383.920369 
L 175.093275 388.92647 
L 175.808771 385.604681 
L 176.524266 379.387906 
L 177.239761 386.536038 
L 177.955257 386.063368 
L 178.670752 381.318602 
L 179.386248 384.360877 
L 180.817238 379.802801 
L 181.532734 386.244728 
L 182.248229 383.662204 
L 182.963724 375.920652 
L 183.67922 385.143656 
L 184.394715 385.996279 
L 185.110211 382.347468 
L 185.825706 390.870022 
L 186.541201 385.986833 
L 187.256697 378.508747 
L 187.972192 383.816409 
L 188.687688 385.51639 
L 189.403183 382.94826 
L 190.118678 388.561878 
L 190.834174 382.693024 
L 191.549669 378.696881 
L 192.265164 388.781558 
L 192.98066 390.133733 
L 193.696155 386.60777 
L 194.411651 393.488468 
L 195.127146 388.516602 
L 195.842641 381.771229 
L 196.558137 384.17566 
L 197.989127 373.878594 
L 198.704623 374.60587 
L 199.420118 365.376147 
L 200.135614 359.871503 
L 200.851109 358.599842 
L 201.566604 340.551263 
L 202.2821 333.36841 
L 202.997595 349.417696 
L 203.71309 358.024127 
L 204.428586 353.86405 
L 205.144081 366.453994 
L 205.859577 360.148131 
L 206.575072 367.404837 
L 207.290567 385.616142 
L 208.006063 384.373649 
L 208.721558 378.424314 
L 209.437054 370.930303 
L 210.152549 382.87151 
L 210.868044 382.469933 
L 211.58354 387.687529 
L 212.299035 388.531069 
L 213.01453 379.879297 
L 213.730026 378.79955 
L 214.445521 375.295841 
L 215.161017 384.144193 
L 215.876512 386.290817 
L 216.592007 387.892282 
L 217.307503 375.096094 
L 218.738493 365.896891 
L 219.453989 376.727027 
L 220.169484 383.573602 
L 220.88498 382.112323 
L 221.600475 370.88661 
L 222.31597 370.503663 
L 223.746961 376.972396 
L 224.462456 376.217931 
L 225.177952 370.930647 
L 225.893447 360.447036 
L 226.608943 367.839229 
L 227.324438 370.721245 
L 228.039933 375.065332 
L 228.755429 381.895241 
L 229.470924 378.574289 
L 230.18642 375.917153 
L 230.901915 384.117781 
L 232.332906 390.704276 
L 233.048401 392.258 
L 233.763896 384.827058 
L 234.479392 387.586294 
L 235.194887 392.824584 
L 235.910383 388.922389 
L 236.625878 391.365386 
L 237.341373 389.963292 
L 238.056869 378.566574 
L 238.772364 371.526917 
L 239.487859 370.930654 
L 240.203355 364.249563 
L 240.91885 361.701717 
L 241.634346 358.604887 
L 242.349841 351.502702 
L 243.065336 355.358145 
L 243.780832 362.338459 
L 244.496327 361.909365 
L 245.211822 364.752232 
L 245.927318 366.195894 
L 246.642813 366.432323 
L 248.073804 378.759215 
L 248.789299 385.375801 
L 249.504795 384.727558 
L 250.22029 386.791332 
L 250.935786 384.915138 
L 251.651281 380.59699 
L 252.366776 372.630223 
L 253.082272 381.37911 
L 253.797767 385.295084 
L 254.513262 385.767364 
L 255.228758 385.095996 
L 255.944253 391.23217 
L 256.659749 389.420848 
L 257.375244 383.863457 
L 258.090739 379.284645 
L 258.806235 376.786385 
L 259.52173 377.814402 
L 260.237225 372.578509 
L 260.952721 356.433526 
L 261.668216 344.989123 
L 262.383712 341.695213 
L 263.099207 332.349258 
L 263.814702 321.381601 
L 265.245693 332.989115 
L 265.961188 340.444162 
L 266.676684 351.466739 
L 268.107675 363.528699 
L 268.82317 366.667337 
L 269.538665 371.78301 
L 270.254161 378.718595 
L 270.969656 383.90422 
L 271.685152 375.107382 
L 272.400647 380.760321 
L 273.116142 381.810879 
L 273.831638 381.556711 
L 274.547133 384.544681 
L 275.262628 378.089439 
L 275.978124 379.042716 
L 276.693619 380.1879 
L 277.409115 377.154659 
L 278.12461 375.958571 
L 278.840105 372.384658 
L 280.271096 378.502469 
L 280.986591 379.299821 
L 281.702087 377.82488 
L 282.417582 375.637793 
L 283.133078 379.239222 
L 283.848573 377.283034 
L 285.279564 319.22209 
L 285.995059 320.814342 
L 286.710554 326.853006 
L 287.42605 348.649628 
L 288.141545 355.153303 
L 288.857041 335.949383 
L 289.572536 346.804058 
L 290.288031 385.163045 
L 291.003527 390.460487 
L 291.719022 392.159745 
L 292.434518 389.745587 
L 293.150013 379.713238 
L 293.865508 385.94948 
L 294.581004 388.74442 
L 295.296499 388.449153 
L 296.72749 390.086294 
L 297.442985 383.745427 
L 298.158481 381.752373 
L 298.873976 388.924376 
L 299.589471 389.665147 
L 300.304967 387.31828 
L 301.020462 391.206466 
L 301.735957 388.22903 
L 302.451453 388.75852 
L 303.166948 391.342188 
L 303.882444 391.46813 
L 304.597939 384.716386 
L 305.313434 381.301476 
L 306.02893 372.847621 
L 306.744425 370.189247 
L 307.45992 378.217268 
L 308.175416 373.788686 
L 308.890911 364.850499 
L 309.606407 370.590522 
L 310.321902 364.606348 
L 311.037397 365.329668 
L 311.752893 368.664754 
L 312.468388 369.101606 
L 313.183884 365.612126 
L 313.899379 374.317595 
L 314.614874 367.96785 
L 315.33037 369.15815 
L 316.045865 374.499946 
L 316.76136 378.46303 
L 317.476856 376.382293 
L 318.192351 380.530049 
L 318.907847 377.955456 
L 319.623342 382.730948 
L 320.338837 389.987484 
L 321.054333 386.821494 
L 321.769828 381.491861 
L 322.485323 384.994428 
L 323.200819 381.297 
L 323.916314 383.841531 
L 324.63181 385.813219 
L 326.0628 366.596442 
L 326.778296 362.25683 
L 327.493791 355.127591 
L 328.209286 359.48051 
L 328.924782 355.262249 
L 329.640277 352.438627 
L 330.355773 363.578808 
L 331.071268 370.421874 
L 331.786763 374.458591 
L 332.502259 384.503341 
L 333.217754 387.916891 
L 333.93325 385.864735 
L 334.648745 389.999806 
L 335.36424 389.874134 
L 336.079736 387.657381 
L 336.795231 383.557288 
L 337.510726 381.572043 
L 338.226222 380.841191 
L 338.941717 389.114792 
L 339.657213 386.712014 
L 340.372708 381.010613 
L 341.088203 390.618667 
L 341.803699 387.591915 
L 342.519194 381.733527 
L 343.234689 387.049965 
L 343.950185 382.982653 
L 344.66568 374.161305 
L 345.381176 380.426756 
L 346.096671 375.283019 
L 346.812166 363.588934 
L 347.527662 370.370844 
L 348.243157 366.780135 
L 348.958652 357.687704 
L 349.674148 370.764038 
L 350.389643 373.921165 
L 351.105139 367.878891 
L 351.820634 383.152191 
L 352.536129 384.896528 
L 353.251625 383.562876 
L 353.96712 393.279427 
L 354.682616 388.653223 
L 355.398111 385.381806 
L 356.113606 391.580144 
L 356.829102 387.082902 
L 357.544597 385.805055 
L 358.260092 391.96298 
L 359.691083 376.015356 
L 360.406579 386.397009 
L 361.122074 385.842054 
L 361.837569 378.947658 
L 362.553065 381.758753 
L 363.26856 375.010325 
L 363.984055 369.33844 
L 364.699551 380.755246 
L 365.415046 384.017038 
L 366.130542 384.189811 
L 366.846037 386.92955 
L 367.561532 381.835193 
L 368.277028 355.335838 
L 368.992523 355.700922 
L 369.708018 351.037496 
L 370.423514 351.283565 
L 371.854505 356.830353 
L 372.57 334.052125 
L 373.285495 357.80904 
L 374.000991 388.17536 
L 374.716486 392.459674 
L 375.431982 389.749909 
L 376.147477 385.200316 
L 376.862972 387.380556 
L 377.578468 386.079288 
L 378.293963 386.059009 
L 379.009458 388.076263 
L 379.724954 386.394878 
L 380.440449 389.045077 
L 381.155945 390.90018 
L 381.87144 375.087327 
L 382.586935 365.304414 
L 383.302431 373.507361 
L 384.017926 371.884325 
L 384.733421 379.010416 
L 385.448917 380.286813 
L 386.164412 384.063756 
L 386.879908 383.758961 
L 387.595403 376.826727 
L 388.310898 372.882835 
L 389.741889 369.046442 
L 390.457384 370.174023 
L 391.17288 373.417814 
L 391.888375 373.184935 
L 392.603871 369.927324 
L 393.319366 370.730126 
L 394.034861 380.248767 
L 394.750357 386.355127 
L 395.465852 389.097843 
L 396.181348 388.117995 
L 397.612338 383.0466 
L 398.327834 381.286167 
L 399.043329 385.515727 
L 399.758824 383.582516 
L 400.47432 387.385198 
L 401.189815 388.396452 
L 401.905311 385.940654 
L 402.620806 385.713104 
L 403.336301 391.830749 
L 404.051797 389.975773 
L 404.767292 386.53421 
L 405.482787 388.197114 
L 406.198283 386.093103 
L 406.913778 376.990364 
L 407.629274 372.57338 
L 408.344769 371.383415 
L 409.060264 331.360091 
L 409.77576 299.016611 
L 410.491255 279.621682 
L 411.20675 289.350569 
L 411.922246 315.263475 
L 412.637741 327.203928 
L 413.353237 332.849288 
L 414.068732 315.914208 
L 415.499723 379.703125 
L 416.215218 389.072562 
L 416.930714 387.624789 
L 417.646209 385.70684 
L 418.361704 384.984904 
L 419.0772 381.019226 
L 419.792695 384.342092 
L 420.50819 390.912399 
L 421.223686 392.811799 
L 421.939181 390.014059 
L 422.654677 382.206054 
L 423.370172 388.655368 
L 424.085667 391.313186 
L 424.801163 391.315208 
L 425.516658 389.794123 
L 426.232153 385.14379 
L 426.947649 387.508748 
L 427.663144 388.012645 
L 428.37864 386.622555 
L 429.094135 387.601476 
L 429.80963 386.409674 
L 430.525126 385.781335 
L 431.240621 387.113853 
L 431.956116 387.526136 
L 432.671612 382.12994 
L 433.387107 382.402123 
L 434.102603 383.707899 
L 435.533593 375.786519 
L 436.249089 373.517786 
L 436.964584 373.255847 
L 437.68008 378.861263 
L 438.395575 387.545816 
L 439.11107 389.370558 
L 439.826566 393.678125 
L 440.542061 390.933812 
L 441.257556 386.588762 
L 441.973052 389.332024 
L 442.688547 387.551082 
L 443.404043 365.575374 
L 444.119538 388.035688 
L 444.835033 377.554686 
L 445.550529 351.062137 
L 446.266024 340.243553 
L 446.981519 335.955325 
L 447.697015 340.216627 
L 448.41251 342.361046 
L 449.128006 337.032887 
L 449.843501 318.980553 
L 450.558996 305.417067 
L 451.274492 280.651259 
L 451.989987 267.743468 
L 453.420978 249.520328 
L 454.136473 247.278125 
L 454.851969 280.039034 
L 455.567464 304.925863 
L 456.282959 310.366609 
L 456.998455 358.015105 
L 457.71395 390.05234 
L 458.429446 388.499273 
L 459.144941 391.869926 
L 459.860436 390.200168 
L 460.575932 389.0586 
L 461.291427 388.672947 
L 462.006922 391.155005 
L 462.722418 388.567734 
L 464.153409 382.367759 
L 464.868904 389.310265 
L 465.584399 388.028814 
L 466.299895 385.634909 
L 467.01539 379.78414 
L 467.730885 378.038469 
L 468.446381 379.396795 
L 469.161876 372.361206 
L 469.877372 369.349939 
L 470.592867 361.183432 
L 471.308362 369.941818 
L 472.023858 372.168932 
L 472.739353 374.919009 
L 473.454848 376.396617 
L 474.170344 379.074036 
L 474.885839 381.147874 
L 475.601335 380.518707 
L 476.31683 390.665785 
L 477.032325 388.528214 
L 477.747821 390.791076 
L 479.178812 384.238797 
L 479.894307 382.309025 
L 480.609802 386.361853 
L 481.325298 385.332134 
L 482.040793 380.427027 
L 482.756288 381.917753 
L 483.471784 385.838848 
L 484.187279 387.368575 
L 484.902775 384.769484 
L 485.61827 385.1715 
L 486.333765 383.087459 
L 487.049261 386.718652 
L 487.764756 385.840418 
L 488.480251 383.460982 
L 489.911242 381.153549 
L 490.626738 366.765034 
L 491.342233 354.969004 
L 492.057728 352.864101 
L 492.773224 355.761668 
L 493.488719 367.921164 
L 494.204214 369.583976 
L 494.91971 378.488584 
L 497.066196 392.742015 
L 497.781691 388.422461 
L 498.497187 390.554565 
L 499.212682 385.788222 
L 499.928178 387.181563 
L 500.643673 383.352916 
L 501.359168 374.489266 
L 502.074664 379.379683 
L 502.790159 379.629791 
L 503.505654 383.249097 
L 504.22115 383.254072 
L 504.936645 388.591493 
L 505.652141 389.595473 
L 506.367636 391.777388 
L 507.083131 390.807724 
L 507.798627 391.058045 
L 508.514122 390.533382 
L 509.229617 393.233254 
L 509.945113 391.248997 
L 510.660608 383.486501 
L 511.376104 384.587879 
L 512.091599 383.286514 
L 513.52259 370.970553 
L 514.238085 370.239426 
L 514.95358 371.063894 
L 515.669076 377.506429 
L 516.384571 380.366127 
L 517.100067 378.908306 
L 518.531057 384.200567 
L 519.246553 388.498413 
L 519.962048 387.521541 
L 520.677544 388.622129 
L 521.393039 382.915838 
L 522.108534 389.883953 
L 522.82403 387.032697 
L 523.539525 387.096851 
L 524.25502 388.210379 
L 524.970516 388.559842 
L 525.686011 388.288923 
L 526.401507 381.388638 
L 527.117002 385.808358 
L 527.832497 383.312807 
L 528.547993 389.57271 
L 529.263488 385.399975 
L 529.978983 383.753232 
L 530.694479 385.304859 
L 531.409974 388.543031 
L 532.12547 388.598952 
L 532.840965 383.030026 
L 533.55646 382.180825 
L 534.271956 378.487185 
L 534.987451 370.138515 
L 535.702946 345.321244 
L 536.418442 331.384652 
L 537.133937 337.781429 
L 537.849433 354.436397 
L 538.564928 361.844691 
L 539.995919 338.359675 
L 540.711414 363.703717 
L 541.42691 380.979712 
L 542.142405 385.714707 
L 542.8579 385.242379 
L 543.573396 385.232666 
L 544.288891 386.504258 
L 545.004386 390.461666 
L 545.719882 387.243013 
L 546.435377 387.814356 
L 547.150873 387.116225 
L 547.866368 386.868743 
L 548.581863 371.803613 
L 549.297359 377.402863 
L 550.012854 372.1904 
L 550.728349 381.183614 
L 551.443845 380.546697 
L 552.15934 368.049797 
L 552.874836 361.392111 
L 553.590331 359.939467 
L 554.305826 352.253089 
L 555.021322 337.033215 
L 555.736817 334.03487 
L 556.452312 332.406515 
L 557.167808 342.719792 
L 557.883303 365.707897 
L 558.598799 364.665128 
L 559.314294 357.192286 
L 560.029789 379.192829 
L 560.745285 381.776627 
L 561.46078 377.385457 
L 562.176276 388.237525 
L 562.891771 386.316088 
L 563.607266 383.696461 
L 564.322762 387.854422 
L 565.038257 389.032013 
L 565.753752 384.05505 
L 566.469248 389.682292 
L 567.184743 386.578697 
L 567.900239 386.222123 
L 568.615734 389.307268 
L 570.046725 384.654915 
L 570.76222 387.431627 
L 571.477715 377.689168 
L 572.193211 383.887423 
L 572.908706 381.725998 
L 573.624202 371.263863 
L 574.339697 370.227144 
L 575.055192 362.745068 
L 575.770688 351.485728 
L 576.486183 357.496246 
L 577.201678 353.329912 
L 577.917174 334.867294 
L 578.632669 340.877532 
L 579.348165 355.544784 
L 580.06366 350.702552 
L 580.779155 367.117209 
L 581.494651 372.858917 
L 582.210146 372.14584 
L 582.925642 378.118415 
L 583.641137 381.152722 
L 584.356632 379.150518 
L 585.072128 381.685412 
L 585.787623 382.548094 
L 586.503118 376.28462 
L 587.218614 382.153934 
L 587.934109 380.646568 
L 588.649605 364.954369 
L 589.3651 381.753307 
L 590.080595 381.866617 
L 590.796091 362.366025 
L 591.511586 351.916802 
L 592.227081 348.862604 
L 592.942577 344.601155 
L 593.658072 356.099374 
L 594.373568 364.859697 
L 595.089063 364.730951 
L 595.804558 367.899525 
L 596.520054 378.387344 
L 597.235549 381.305051 
L 597.951044 383.658373 
L 598.66654 382.446445 
L 599.382035 375.197263 
L 600.097531 385.604889 
L 600.813026 382.161947 
L 601.528521 377.527841 
L 602.244017 389.176387 
L 602.959512 390.376677 
L 603.675008 382.179621 
L 604.390503 391.00425 
L 605.105998 389.558325 
L 605.821494 386.994133 
L 606.536989 391.666483 
L 607.252484 387.283491 
L 607.96798 379.304497 
L 608.683475 388.979207 
L 609.398971 388.88978 
L 610.114466 378.610351 
L 610.829961 388.604127 
L 611.545457 385.063986 
L 612.260952 376.133996 
L 612.976447 375.735291 
L 613.691943 362.940857 
L 614.407438 354.849138 
L 615.122934 353.526783 
L 615.838429 348.651475 
L 616.553924 332.708179 
L 617.26942 353.179181 
L 617.984915 358.817054 
L 619.415906 309.40621 
L 620.131401 298.851506 
L 620.846897 309.611056 
L 621.562392 330.716276 
L 622.277887 344.666621 
L 622.993383 318.845629 
L 623.708878 309.29198 
L 624.424374 366.486553 
L 625.139869 387.122362 
L 625.855364 391.059346 
L 626.57086 390.067821 
L 627.286355 386.887381 
L 628.00185 378.902772 
L 628.717346 385.672766 
L 629.432841 385.567131 
L 630.148337 383.507583 
L 630.863832 379.446017 
L 631.579327 378.99056 
L 632.294823 385.452596 
L 633.010318 386.666219 
L 633.725813 383.093033 
L 634.441309 383.356199 
L 635.156804 389.022287 
L 635.8723 386.745463 
L 636.587795 386.039977 
L 637.30329 389.22201 
L 638.018786 381.329856 
L 638.734281 367.621697 
L 639.449776 356.729813 
L 640.165272 359.308479 
L 640.880767 359.205483 
L 641.596263 361.258468 
L 642.311758 360.901849 
L 643.027253 361.746431 
L 643.742749 373.224769 
L 644.458244 386.64641 
L 645.17374 391.500702 
L 645.889235 390.353074 
L 647.320226 377.249903 
L 648.035721 379.326973 
L 648.751216 376.668289 
L 649.466712 372.284377 
L 650.897703 378.935813 
L 651.613198 378.950506 
L 652.328693 375.642958 
L 653.044189 380.623422 
L 653.759684 383.981599 
L 654.475179 384.869512 
L 655.190675 382.909989 
L 655.90617 385.449237 
L 656.621666 386.538458 
L 657.337161 384.383238 
L 658.052656 381.484643 
L 658.768152 370.624525 
L 659.483647 362.812249 
L 660.199142 361.950986 
L 660.914638 371.200891 
L 661.630133 371.928724 
L 662.345629 370.806218 
L 663.061124 372.038577 
L 663.776619 380.799311 
L 664.492115 382.544855 
L 665.20761 380.665479 
L 665.923106 384.70497 
L 666.638601 382.852101 
L 667.354096 383.21927 
L 668.069592 381.757779 
L 669.500582 392.401675 
L 670.216078 389.953357 
L 670.931573 389.445603 
L 671.647069 387.495367 
L 672.362564 384.000279 
L 673.078059 385.250665 
L 673.793555 389.118877 
L 674.50905 387.800224 
L 675.224545 388.98448 
L 675.224545 388.98448 
" clip-path="url(#pca1982528b)" style="fill: none; stroke: #1f77b4; stroke-width: 1.5; stroke-linecap: square"/>
   </g>
   <g id="patch_8">
    <path d="M 39.65 400.998125 
L 39.65 239.958125 
" style="fill: none; stroke: #000000; stroke-width: 0.8; stroke-linejoin: miter; stroke-linecap: square"/>
   </g>
   <g id="patch_9">
    <path d="M 705.49 400.998125 
L 705.49 239.958125 
" style="fill: none; stroke: #000000; stroke-width: 0.8; stroke-linejoin: miter; stroke-linecap: square"/>
   </g>
   <g id="patch_10">
    <path d="M 39.65 400.998125 
L 705.49 400.998125 
" style="fill: none; stroke: #000000; stroke-width: 0.8; stroke-linejoin: miter; stroke-linecap: square"/>
   </g>
   <g id="patch_11">
    <path d="M 39.65 239.958125 
L 705.49 239.958125 
" style="fill: none; stroke: #000000; stroke-width: 0.8; stroke-linejoin: miter; stroke-linecap: square"/>
   </g>
   <g id="text_28">
    <!-- Fishin' Superflux Novelty Function -->
    <g transform="translate(270.916875 233.958125)scale(0.12 -0.12)">
     <defs>
      <path id="DejaVuSans-70" d="M 1159 525 
L 1159 -1331 
L 581 -1331 
L 581 3500 
L 1159 3500 
L 1159 2969 
Q 1341 3281 1617 3432 
Q 1894 3584 2278 3584 
Q 2916 3584 3314 3078 
Q 3713 2572 3713 1747 
Q 3713 922 3314 415 
Q 2916 -91 2278 -91 
Q 1894 -91 1617 61 
Q 1341 213 1159 525 
z
M 3116 1747 
Q 3116 2381 2855 2742 
Q 2594 3103 2138 3103 
Q 1681 3103 1420 2742 
Q 1159 2381 1159 1747 
Q 1159 1113 1420 752 
Q 1681 391 2138 391 
Q 2594 391 2855 752 
Q 3116 1113 3116 1747 
z
" transform="scale(0.015625)"/>
      <path id="DejaVuSans-72" d="M 2631 2963 
Q 2534 3019 2420 3045 
Q 2306 3072 2169 3072 
Q 1681 3072 1420 2755 
Q 1159 2438 1159 1844 
L 1159 0 
L 581 0 
L 581 3500 
L 1159 3500 
L 1159 2956 
Q 1341 3275 1631 3429 
Q 1922 3584 2338 3584 
Q 2397 3584 2469 3576 
Q 2541 3569 2628 3553 
L 2631 2963 
z
" transform="scale(0.015625)"/>
      <path id="DejaVuSans-66" d="M 2375 4863 
L 2375 4384 
L 1825 4384 
Q 1516 4384 1395 4259 
Q 1275 4134 1275 3809 
L 1275 3500 
L 2222 3500 
L 2222 3053 
L 1275 3053 
L 1275 0 
L 697 0 
L 697 3053 
L 147 3053 
L 147 3500 
L 697 3500 
L 697 3744 
Q 697 4328 969 4595 
Q 1241 4863 1831 4863 
L 2375 4863 
z
" transform="scale(0.015625)"/>
      <path id="DejaVuSans-78" d="M 3513 3500 
L 2247 1797 
L 3578 0 
L 2900 0 
L 1881 1375 
L 863 0 
L 184 0 
L 1544 1831 
L 300 3500 
L 978 3500 
L 1906 2253 
L 2834 3500 
L 3513 3500 
z
" transform="scale(0.015625)"/>
     </defs>
     <use xlink:href="#DejaVuSans-46"/>
     <use xlink:href="#DejaVuSans-69" x="50.269531"/>
     <use xlink:href="#DejaVuSans-73" x="78.052734"/>
     <use xlink:href="#DejaVuSans-68" x="130.152344"/>
     <use xlink:href="#DejaVuSans-69" x="193.53125"/>
     <use xlink:href="#DejaVuSans-6e" x="221.314453"/>
     <use xlink:href="#DejaVuSans-27" x="284.693359"/>
     <use xlink:href="#DejaVuSans-20" x="312.183594"/>
     <use xlink:href="#DejaVuSans-53" x="343.970703"/>
     <use xlink:href="#DejaVuSans-75" x="407.447266"/>
     <use xlink:href="#DejaVuSans-70" x="470.826172"/>
     <use xlink:href="#DejaVuSans-65" x="534.302734"/>
     <use xlink:href="#DejaVuSans-72" x="595.826172"/>
     <use xlink:href="#DejaVuSans-66" x="636.939453"/>
     <use xlink:href="#DejaVuSans-6c" x="672.144531"/>
     <use xlink:href="#DejaVuSans-75" x="699.927734"/>
     <use xlink:href="#DejaVuSans-78" x="763.306641"/>
     <use xlink:href="#DejaVuSans-20" x="822.486328"/>
     <use xlink:href="#DejaVuSans-4e" x="854.273438"/>
     <use xlink:href="#DejaVuSans-6f" x="929.078125"/>
     <use xlink:href="#DejaVuSans-76" x="990.259766"/>
     <use xlink:href="#DejaVuSans-65" x="1049.439453"/>
     <use xlink:href="#DejaVuSans-6c" x="1110.962891"/>
     <use xlink:href="#DejaVuSans-74" x="1138.746094"/>
     <use xlink:href="#DejaVuSans-79" x="1177.955078"/>
     <use xlink:href="#DejaVuSans-20" x="1237.134766"/>
     <use xlink:href="#DejaVuSans-46" x="1268.921875"/>
     <use xlink:href="#DejaVuSans-75" x="1320.941406"/>
     <use xlink:href="#DejaVuSans-6e" x="1384.320312"/>
     <use xlink:href="#DejaVuSans-63" x="1447.699219"/>
     <use xlink:href="#DejaVuSans-74" x="1502.679688"/>
     <use xlink:href="#DejaVuSans-69" x="1541.888672"/>
     <use xlink:href="#DejaVuSans-6f" x="1569.671875"/>
     <use xlink:href="#DejaVuSans-6e" x="1630.853516"/>
    </g>
   </g>
  </g>
 </g>
 <defs>
  <clipPath id="p8df6dcdec2">
   <rect x="39.65" y="22.318125" width="665.84" height="161.04"/>
  </clipPath>
  <clipPath id="pca1982528b">
   <rect x="39.65" y="239.958125" width="665.84" height="161.04"/>
  </clipPath>
 </defs>
</svg>
